<svg xmlns="http://www.w3.org/2000/svg" xmlns:xlink="http://www.w3.org/1999/xlink" width="388" zoomAndPan="magnify" viewBox="0 0 291 90.749999" height="121" preserveAspectRatio="xMidYMid meet" version="1.0"><defs><g/><clipPath id="4cacb438fd"><path d="M 0.398438 0 L 290.597656 0 L 290.597656 90.5 L 0.398438 90.5 Z M 0.398438 0 " clip-rule="nonzero"/></clipPath><clipPath id="d54a04d576"><path d="M 148 19 L 175 19 L 175 37 L 148 37 Z M 148 19 " clip-rule="nonzero"/></clipPath><clipPath id="4da8df5664"><path d="M 126.660156 0.367188 L 175.960938 15.625 L 163.800781 54.921875 L 114.5 39.664062 Z M 126.660156 0.367188 " clip-rule="nonzero"/></clipPath><clipPath id="83b892d0f9"><path d="M 126.660156 0.367188 L 175.960938 15.625 L 163.800781 54.921875 L 114.5 39.664062 Z M 126.660156 0.367188 " clip-rule="nonzero"/></clipPath><clipPath id="2865df58e8"><path d="M 122 34 L 148 34 L 148 42 L 122 42 Z M 122 34 " clip-rule="nonzero"/></clipPath><clipPath id="4beefaf75d"><path d="M 126.660156 0.367188 L 175.960938 15.625 L 163.800781 54.921875 L 114.5 39.664062 Z M 126.660156 0.367188 " clip-rule="nonzero"/></clipPath><clipPath id="1b174b4439"><path d="M 126.660156 0.367188 L 175.960938 15.625 L 163.800781 54.921875 L 114.5 39.664062 Z M 126.660156 0.367188 " clip-rule="nonzero"/></clipPath><clipPath id="f22cb7997f"><path d="M 126 6 L 164 6 L 164 20 L 126 20 Z M 126 6 " clip-rule="nonzero"/></clipPath><clipPath id="e3a7a0f075"><path d="M 126.660156 0.367188 L 175.960938 15.625 L 163.800781 54.921875 L 114.5 39.664062 Z M 126.660156 0.367188 " clip-rule="nonzero"/></clipPath><clipPath id="bb053a8ae4"><path d="M 126.660156 0.367188 L 175.960938 15.625 L 163.800781 54.921875 L 114.5 39.664062 Z M 126.660156 0.367188 " clip-rule="nonzero"/></clipPath><clipPath id="6fe93f69ab"><path d="M 123 20 L 129 20 L 129 38 L 123 38 Z M 123 20 " clip-rule="nonzero"/></clipPath><clipPath id="e455860621"><path d="M 126.660156 0.367188 L 175.960938 15.625 L 163.800781 54.921875 L 114.5 39.664062 Z M 126.660156 0.367188 " clip-rule="nonzero"/></clipPath><clipPath id="366dc809fc"><path d="M 126.660156 0.367188 L 175.960938 15.625 L 163.800781 54.921875 L 114.5 39.664062 Z M 126.660156 0.367188 " clip-rule="nonzero"/></clipPath><clipPath id="717de1dcc9"><path d="M 128 37 L 163 37 L 163 48 L 128 48 Z M 128 37 " clip-rule="nonzero"/></clipPath><clipPath id="a77680946a"><path d="M 126.660156 0.367188 L 175.960938 15.625 L 163.800781 54.921875 L 114.5 39.664062 Z M 126.660156 0.367188 " clip-rule="nonzero"/></clipPath><clipPath id="a3634b1c7b"><path d="M 126.660156 0.367188 L 175.960938 15.625 L 163.800781 54.921875 L 114.5 39.664062 Z M 126.660156 0.367188 " clip-rule="nonzero"/></clipPath><clipPath id="4f92f21a02"><path d="M 122 12 L 145 12 L 145 28 L 122 28 Z M 122 12 " clip-rule="nonzero"/></clipPath><clipPath id="e6b83f662a"><path d="M 126.660156 0.367188 L 175.960938 15.625 L 163.800781 54.921875 L 114.5 39.664062 Z M 126.660156 0.367188 " clip-rule="nonzero"/></clipPath><clipPath id="9ff2fcabe3"><path d="M 126.660156 0.367188 L 175.960938 15.625 L 163.800781 54.921875 L 114.5 39.664062 Z M 126.660156 0.367188 " clip-rule="nonzero"/></clipPath></defs><g clip-path="url(#4cacb438fd)"><path fill="#ffffff" d="M 0.398438 0 L 290.601562 0 L 290.601562 90.5 L 0.398438 90.5 Z M 0.398438 0 " fill-opacity="1" fill-rule="nonzero"/></g><g clip-path="url(#d54a04d576)"><g clip-path="url(#4da8df5664)"><g clip-path="url(#83b892d0f9)"><path fill="#184420" d="M 148.261719 33.183594 C 148.414062 32.90625 148.59375 32.652344 148.789062 32.417969 C 151.324219 29.089844 154.59375 29.492188 155.519531 29.6875 C 155.578125 29.699219 155.636719 29.710938 155.695312 29.730469 C 155.746094 29.742188 155.769531 29.75 155.769531 29.75 C 156.839844 30.074219 157.941406 31.132812 157.941406 31.132812 C 158.878906 29.40625 156.464844 27.976562 156.464844 27.976562 C 156.464844 27.976562 158.207031 24.046875 153.289062 24 C 157.613281 20.996094 164.371094 18.851562 174.769531 20.539062 C 174.769531 20.539062 174.453125 21.320312 173.835938 22.554688 C 173.101562 24.027344 171.617188 24.976562 169.972656 25.039062 L 166.160156 25.179688 L 171.492188 26.6875 C 171.394531 26.84375 171.292969 27 171.1875 27.160156 C 170.152344 28.730469 168.25 29.496094 166.414062 29.078125 C 164.714844 28.6875 163.230469 28.324219 163.230469 28.324219 L 168.289062 31.007812 C 168.28125 31.015625 168.277344 31.023438 168.269531 31.03125 C 166.984375 32.507812 164.878906 32.96875 163.085938 32.1875 L 159.203125 30.496094 L 165.125 34.101562 C 165.070312 34.148438 165.015625 34.191406 164.960938 34.234375 C 163.714844 35.226562 162.039062 35.492188 160.546875 34.929688 L 155.066406 32.847656 L 161.164062 36.5625 C 161.164062 36.5625 157.582031 37.773438 152.894531 34.917969 C 150.898438 33.703125 149.367188 33.273438 148.261719 33.183594 " fill-opacity="1" fill-rule="nonzero"/></g></g></g><g clip-path="url(#2865df58e8)"><g clip-path="url(#4beefaf75d)"><g clip-path="url(#1b174b4439)"><path fill="#184420" d="M 147.351562 34.054688 C 147.351562 34.054688 147.265625 34.125 147.109375 34.25 C 147.035156 34.316406 146.9375 34.394531 146.824219 34.488281 C 146.710938 34.578125 146.582031 34.683594 146.4375 34.800781 C 146.292969 34.917969 146.132812 35.046875 145.957031 35.183594 C 145.867188 35.253906 145.777344 35.328125 145.683594 35.402344 C 145.585938 35.472656 145.484375 35.550781 145.382812 35.628906 C 144.972656 35.941406 144.5 36.273438 143.980469 36.625 C 143.453125 36.96875 142.875 37.316406 142.25 37.648438 C 141.621094 37.96875 140.945312 38.265625 140.226562 38.503906 C 139.867188 38.625 139.5 38.722656 139.125 38.8125 C 138.933594 38.851562 138.746094 38.886719 138.554688 38.925781 C 138.363281 38.949219 138.167969 38.976562 137.976562 39.003906 L 137.9375 39.007812 L 137.929688 39.007812 C 137.921875 39.007812 137.957031 39.007812 137.9375 39.007812 L 137.917969 39.007812 L 137.839844 39.015625 L 137.683594 39.027344 L 137.523438 39.039062 L 137.445312 39.046875 L 137.375 39.046875 C 137.179688 39.050781 136.996094 39.0625 136.792969 39.058594 C 136.691406 39.058594 136.589844 39.058594 136.492188 39.058594 L 136.1875 39.046875 C 136.085938 39.042969 135.984375 39.039062 135.882812 39.03125 L 135.578125 39.007812 C 134.761719 38.945312 133.933594 38.824219 133.109375 38.710938 C 132.902344 38.679688 132.695312 38.648438 132.488281 38.621094 C 132.28125 38.589844 132.074219 38.5625 131.871094 38.535156 C 131.460938 38.484375 131.046875 38.433594 130.640625 38.398438 C 130.539062 38.386719 130.4375 38.378906 130.335938 38.371094 C 130.230469 38.363281 130.125 38.355469 130.023438 38.347656 C 129.925781 38.34375 129.828125 38.339844 129.730469 38.335938 C 129.632812 38.332031 129.539062 38.328125 129.433594 38.328125 C 129.230469 38.328125 129.027344 38.320312 128.832031 38.332031 C 128.632812 38.335938 128.441406 38.339844 128.25 38.359375 C 127.488281 38.414062 126.769531 38.542969 126.128906 38.730469 C 125.484375 38.917969 124.914062 39.15625 124.445312 39.433594 C 124.328125 39.5 124.21875 39.578125 124.113281 39.644531 C 124.058594 39.679688 124.007812 39.710938 123.957031 39.746094 C 123.910156 39.785156 123.863281 39.820312 123.816406 39.859375 C 123.726562 39.929688 123.636719 40 123.554688 40.066406 C 123.476562 40.140625 123.402344 40.210938 123.332031 40.277344 C 123.191406 40.40625 123.082031 40.542969 122.988281 40.652344 C 122.941406 40.710938 122.894531 40.761719 122.855469 40.8125 C 122.820312 40.863281 122.789062 40.910156 122.761719 40.953125 C 122.644531 41.121094 122.585938 41.207031 122.585938 41.207031 C 122.585938 41.207031 122.667969 41.140625 122.820312 41.007812 C 122.859375 40.976562 122.898438 40.9375 122.945312 40.898438 C 122.992188 40.859375 123.050781 40.820312 123.105469 40.78125 C 123.226562 40.699219 123.351562 40.59375 123.511719 40.503906 C 123.589844 40.457031 123.671875 40.40625 123.757812 40.355469 C 123.847656 40.308594 123.941406 40.261719 124.039062 40.210938 C 124.085938 40.1875 124.136719 40.164062 124.1875 40.136719 C 124.238281 40.117188 124.292969 40.09375 124.347656 40.070312 C 124.457031 40.027344 124.5625 39.976562 124.683594 39.9375 C 124.800781 39.898438 124.921875 39.855469 125.050781 39.8125 C 125.175781 39.777344 125.308594 39.746094 125.445312 39.707031 C 125.476562 39.699219 125.511719 39.691406 125.546875 39.679688 C 125.578125 39.671875 125.613281 39.667969 125.648438 39.660156 C 125.71875 39.644531 125.789062 39.628906 125.863281 39.617188 C 126.003906 39.582031 126.15625 39.566406 126.304688 39.542969 C 126.910156 39.457031 127.574219 39.421875 128.277344 39.441406 C 128.628906 39.449219 128.992188 39.472656 129.347656 39.511719 C 129.433594 39.519531 129.535156 39.53125 129.628906 39.542969 C 129.726562 39.554688 129.824219 39.566406 129.921875 39.578125 C 130.011719 39.59375 130.105469 39.605469 130.195312 39.617188 C 130.292969 39.632812 130.386719 39.644531 130.484375 39.664062 C 130.871094 39.726562 131.261719 39.789062 131.664062 39.867188 C 131.867188 39.902344 132.066406 39.9375 132.269531 39.976562 C 132.476562 40.011719 132.683594 40.050781 132.890625 40.085938 C 133.71875 40.234375 134.582031 40.363281 135.464844 40.441406 L 135.796875 40.460938 C 135.90625 40.46875 136.019531 40.472656 136.132812 40.476562 L 136.464844 40.484375 C 136.578125 40.488281 136.691406 40.484375 136.800781 40.484375 C 137.023438 40.488281 137.261719 40.46875 137.492188 40.453125 L 137.578125 40.449219 L 137.65625 40.441406 L 137.8125 40.421875 L 138.046875 40.398438 L 138.066406 40.394531 L 138.09375 40.390625 L 138.144531 40.382812 C 138.367188 40.347656 138.585938 40.308594 138.804688 40.273438 C 139.019531 40.21875 139.234375 40.167969 139.449219 40.113281 C 139.554688 40.089844 139.65625 40.050781 139.761719 40.019531 C 139.863281 39.988281 139.96875 39.957031 140.070312 39.921875 L 140.222656 39.875 L 140.371094 39.816406 C 140.472656 39.777344 140.570312 39.738281 140.667969 39.699219 C 141.449219 39.378906 142.160156 38.988281 142.796875 38.578125 C 143.429688 38.15625 143.992188 37.714844 144.484375 37.28125 C 144.972656 36.84375 145.398438 36.425781 145.753906 36.035156 C 145.84375 35.941406 145.929688 35.84375 146.011719 35.753906 C 146.09375 35.664062 146.171875 35.570312 146.242188 35.484375 C 146.390625 35.3125 146.527344 35.152344 146.640625 35.003906 C 146.757812 34.855469 146.863281 34.722656 146.953125 34.605469 C 147.039062 34.488281 147.109375 34.386719 147.171875 34.304688 C 147.289062 34.140625 147.351562 34.054688 147.351562 34.054688 " fill-opacity="1" fill-rule="nonzero"/></g></g></g><g clip-path="url(#f22cb7997f)"><g clip-path="url(#e3a7a0f075)"><g clip-path="url(#bb053a8ae4)"><path fill="#184420" d="M 161.566406 19.5625 C 159.417969 14.792969 155.316406 10.933594 149.925781 9.265625 C 141.195312 6.5625 131.988281 10.515625 127.773438 18.238281 C 127.730469 18.207031 127.6875 18.171875 127.644531 18.136719 L 127.164062 17.714844 L 127.085938 17.640625 L 126.878906 17.4375 L 126.867188 17.425781 C 126.757812 17.328125 126.65625 17.21875 126.546875 17.101562 C 131.214844 8.949219 141.058594 4.820312 150.40625 7.710938 C 156.402344 9.570312 160.9375 13.925781 163.21875 19.28125 C 162.65625 19.359375 162.105469 19.453125 161.566406 19.5625 " fill-opacity="1" fill-rule="nonzero"/></g></g></g><g clip-path="url(#6fe93f69ab)"><g clip-path="url(#e455860621)"><g clip-path="url(#366dc809fc)"><path fill="#184420" d="M 125.554688 20.4375 L 125.570312 20.453125 C 125.820312 20.691406 126.125 20.976562 126.457031 21.25 C 126.402344 21.40625 126.351562 21.5625 126.304688 21.722656 C 124.605469 27.210938 125.535156 32.882812 128.375 37.386719 C 128.304688 37.390625 128.238281 37.394531 128.167969 37.402344 C 127.628906 37.441406 127.113281 37.515625 126.617188 37.617188 C 123.835938 32.835938 122.984375 26.945312 124.75 21.242188 C 124.878906 20.832031 125.015625 20.429688 125.167969 20.035156 L 125.554688 20.4375 " fill-opacity="1" fill-rule="nonzero"/></g></g></g><g clip-path="url(#717de1dcc9)"><g clip-path="url(#a77680946a)"><g clip-path="url(#a3634b1c7b)"><path fill="#184420" d="M 129.25 40.46875 L 129.273438 40.46875 C 129.324219 40.472656 129.378906 40.480469 129.433594 40.488281 L 129.546875 40.503906 L 129.796875 40.53125 C 129.796875 40.53125 130.125 40.582031 130.164062 40.585938 C 130.214844 40.59375 130.269531 40.601562 130.320312 40.609375 L 130.558594 40.648438 C 130.722656 40.675781 130.890625 40.707031 131.0625 40.734375 C 133.152344 42.804688 135.757812 44.417969 138.761719 45.347656 C 146.964844 47.886719 155.582031 44.550781 160.09375 37.734375 C 160.929688 37.652344 161.429688 37.488281 161.472656 37.472656 L 162.320312 37.1875 C 157.730469 45.554688 147.75 49.832031 138.28125 46.898438 C 134.335938 45.679688 131.023438 43.375 128.570312 40.417969 C 128.796875 40.429688 129.023438 40.445312 129.25 40.46875 " fill-opacity="1" fill-rule="nonzero"/></g></g></g><g clip-path="url(#4f92f21a02)"><g clip-path="url(#e6b83f662a)"><g clip-path="url(#9ff2fcabe3)"><path fill="#184420" d="M 144.636719 27.398438 C 144.636719 27.398438 144.589844 27.300781 144.496094 27.117188 C 144.472656 27.070312 144.445312 27.019531 144.417969 26.960938 C 144.386719 26.910156 144.347656 26.847656 144.308594 26.785156 C 144.269531 26.71875 144.226562 26.652344 144.179688 26.578125 C 144.132812 26.503906 144.074219 26.433594 144.019531 26.351562 C 143.792969 26.03125 143.472656 25.679688 143.0625 25.308594 C 142.65625 24.941406 142.152344 24.570312 141.566406 24.226562 C 140.980469 23.886719 140.3125 23.578125 139.585938 23.3125 C 139.40625 23.246094 139.21875 23.179688 139.03125 23.121094 C 138.9375 23.089844 138.84375 23.0625 138.746094 23.03125 C 138.648438 23.003906 138.554688 22.976562 138.457031 22.945312 C 138.40625 22.933594 138.359375 22.917969 138.308594 22.90625 L 138.230469 22.882812 L 138.160156 22.863281 C 138.0625 22.839844 137.96875 22.8125 137.871094 22.789062 C 137.675781 22.738281 137.46875 22.691406 137.265625 22.640625 C 136.863281 22.550781 136.453125 22.460938 136.039062 22.378906 C 135.625 22.296875 135.210938 22.214844 134.792969 22.136719 C 133.960938 21.96875 133.125 21.804688 132.320312 21.582031 C 131.914062 21.476562 131.519531 21.355469 131.128906 21.21875 L 130.839844 21.113281 L 130.804688 21.101562 L 130.789062 21.09375 L 130.777344 21.09375 C 130.816406 21.109375 130.785156 21.09375 130.789062 21.097656 L 130.566406 21.003906 C 130.464844 20.964844 130.367188 20.921875 130.265625 20.882812 L 130.117188 20.820312 C 130.066406 20.800781 130.027344 20.777344 129.984375 20.757812 C 129.808594 20.671875 129.632812 20.585938 129.457031 20.5 C 129.28125 20.402344 129.105469 20.308594 128.933594 20.210938 C 128.84375 20.164062 128.761719 20.109375 128.679688 20.058594 C 128.59375 20.003906 128.511719 19.953125 128.429688 19.898438 C 128.347656 19.847656 128.261719 19.796875 128.179688 19.742188 C 128.101562 19.6875 128.023438 19.628906 127.941406 19.574219 C 127.617188 19.359375 127.328125 19.109375 127.03125 18.878906 C 126.890625 18.753906 126.753906 18.632812 126.613281 18.511719 C 126.578125 18.480469 126.546875 18.453125 126.511719 18.421875 C 126.476562 18.390625 126.445312 18.359375 126.414062 18.328125 C 126.347656 18.261719 126.285156 18.199219 126.21875 18.136719 C 125.953125 17.894531 125.730469 17.625 125.496094 17.378906 C 125.382812 17.253906 125.277344 17.121094 125.171875 16.996094 C 125.121094 16.933594 125.066406 16.871094 125.015625 16.808594 C 124.96875 16.746094 124.917969 16.679688 124.871094 16.617188 C 124.777344 16.492188 124.683594 16.367188 124.589844 16.246094 C 124.5 16.125 124.425781 15.996094 124.339844 15.878906 C 124.261719 15.757812 124.175781 15.644531 124.105469 15.523438 C 124.035156 15.40625 123.964844 15.292969 123.898438 15.179688 C 123.757812 14.960938 123.652344 14.742188 123.542969 14.542969 C 123.488281 14.441406 123.433594 14.347656 123.386719 14.253906 C 123.34375 14.160156 123.300781 14.070312 123.261719 13.984375 C 123.222656 13.898438 123.183594 13.820312 123.148438 13.742188 C 123.109375 13.664062 123.074219 13.59375 123.046875 13.527344 C 122.992188 13.390625 122.941406 13.273438 122.902344 13.179688 C 122.824219 12.988281 122.78125 12.886719 122.78125 12.886719 C 122.78125 12.886719 122.792969 12.996094 122.824219 13.199219 C 122.839844 13.300781 122.859375 13.429688 122.882812 13.578125 C 122.902344 13.726562 122.949219 13.890625 122.988281 14.082031 C 123.011719 14.175781 123.035156 14.273438 123.058594 14.378906 C 123.085938 14.484375 123.121094 14.589844 123.15625 14.703125 C 123.222656 14.925781 123.296875 15.167969 123.398438 15.421875 C 123.445312 15.546875 123.5 15.679688 123.550781 15.8125 C 123.605469 15.949219 123.671875 16.078125 123.734375 16.21875 C 123.800781 16.359375 123.863281 16.5 123.9375 16.644531 C 124.015625 16.785156 124.097656 16.929688 124.175781 17.078125 C 124.21875 17.152344 124.257812 17.226562 124.300781 17.300781 C 124.347656 17.375 124.394531 17.445312 124.441406 17.519531 C 124.539062 17.667969 124.632812 17.820312 124.734375 17.972656 C 124.839844 18.121094 124.953125 18.269531 125.066406 18.421875 C 125.171875 18.574219 125.296875 18.722656 125.421875 18.871094 C 125.484375 18.945312 125.546875 19.019531 125.613281 19.09375 C 125.644531 19.132812 125.675781 19.171875 125.710938 19.207031 C 125.742188 19.246094 125.777344 19.28125 125.8125 19.316406 C 125.949219 19.460938 126.089844 19.609375 126.230469 19.757812 C 126.53125 20.039062 126.835938 20.328125 127.171875 20.589844 C 127.257812 20.65625 127.339844 20.726562 127.425781 20.792969 C 127.507812 20.863281 127.597656 20.921875 127.6875 20.984375 C 127.777344 21.046875 127.867188 21.109375 127.957031 21.171875 C 128.046875 21.238281 128.132812 21.300781 128.230469 21.355469 C 128.417969 21.472656 128.609375 21.589844 128.796875 21.707031 C 129 21.8125 129.207031 21.921875 129.414062 22.027344 C 129.464844 22.054688 129.519531 22.085938 129.566406 22.105469 L 129.714844 22.171875 C 129.8125 22.214844 129.910156 22.261719 130.007812 22.304688 L 130.230469 22.402344 L 130.328125 22.441406 L 130.648438 22.5625 C 131.078125 22.714844 131.511719 22.855469 131.949219 22.96875 C 132.820312 23.203125 133.695312 23.367188 134.546875 23.507812 C 134.972656 23.578125 135.394531 23.640625 135.808594 23.703125 C 136.21875 23.765625 136.621094 23.828125 137.023438 23.890625 C 137.21875 23.921875 137.40625 23.953125 137.605469 23.988281 C 137.703125 24.007812 137.800781 24.023438 137.898438 24.042969 L 137.972656 24.054688 L 138.039062 24.070312 L 138.179688 24.097656 C 138.269531 24.113281 138.363281 24.132812 138.457031 24.152344 C 138.546875 24.171875 138.640625 24.191406 138.730469 24.210938 C 138.914062 24.25 139.089844 24.300781 139.265625 24.339844 C 139.964844 24.519531 140.617188 24.730469 141.199219 24.972656 C 141.78125 25.210938 142.296875 25.476562 142.730469 25.75 C 143.164062 26.023438 143.53125 26.292969 143.804688 26.546875 C 143.875 26.609375 143.945312 26.664062 144.003906 26.722656 C 144.0625 26.78125 144.121094 26.835938 144.171875 26.886719 C 144.222656 26.941406 144.273438 26.988281 144.316406 27.03125 C 144.359375 27.078125 144.394531 27.121094 144.429688 27.160156 C 144.566406 27.316406 144.636719 27.398438 144.636719 27.398438 " fill-opacity="1" fill-rule="nonzero"/></g></g></g><g fill="#1b4418" fill-opacity="1"><g transform="translate(47.870892, 79.4111)"><g><path d="M 6.234375 0.265625 C 4.929688 0.265625 3.851562 -0.0195312 3 -0.59375 C 2.15625 -1.175781 1.535156 -1.914062 1.140625 -2.8125 C 0.753906 -3.707031 0.5625 -4.664062 0.5625 -5.6875 C 0.5625 -6.65625 0.78125 -7.59375 1.21875 -8.5 C 1.65625 -9.414062 2.300781 -10.164062 3.15625 -10.75 C 4.019531 -11.34375 5.0625 -11.640625 6.28125 -11.640625 C 7.53125 -11.640625 8.578125 -11.34375 9.421875 -10.75 C 10.273438 -10.164062 10.90625 -9.414062 11.3125 -8.5 C 11.726562 -7.59375 11.9375 -6.65625 11.9375 -5.6875 C 11.9375 -4.75 11.71875 -3.820312 11.28125 -2.90625 C 10.851562 -1.988281 10.207031 -1.226562 9.34375 -0.625 C 8.476562 -0.03125 7.441406 0.265625 6.234375 0.265625 Z M 6.390625 -0.921875 C 7.097656 -0.921875 7.671875 -1.144531 8.109375 -1.59375 C 8.554688 -2.039062 8.878906 -2.601562 9.078125 -3.28125 C 9.273438 -3.96875 9.375 -4.679688 9.375 -5.421875 C 9.375 -6.953125 9.101562 -8.171875 8.5625 -9.078125 C 8.019531 -9.992188 7.210938 -10.453125 6.140625 -10.453125 C 5.429688 -10.453125 4.847656 -10.222656 4.390625 -9.765625 C 3.929688 -9.316406 3.601562 -8.742188 3.40625 -8.046875 C 3.21875 -7.359375 3.125 -6.640625 3.125 -5.890625 C 3.125 -5.128906 3.234375 -4.367188 3.453125 -3.609375 C 3.671875 -2.847656 4.023438 -2.207031 4.515625 -1.6875 C 5.003906 -1.175781 5.628906 -0.921875 6.390625 -0.921875 Z M 6.390625 -0.921875 "/></g></g></g><g fill="#1b4418" fill-opacity="1"><g transform="translate(62.817297, 79.4111)"><g><path d="M 1.125 -5.59375 C 0.988281 -5.882812 0.894531 -6.101562 0.84375 -6.25 C 0.800781 -6.40625 0.769531 -6.539062 0.75 -6.65625 C 0.726562 -6.769531 0.710938 -6.859375 0.703125 -6.921875 L 0.09375 -6.890625 L 0.09375 -8.140625 L 3.90625 -8.140625 L 3.90625 -7.09375 C 3.53125 -7.082031 3.34375 -6.90625 3.34375 -6.5625 C 3.34375 -6.363281 3.398438 -6.117188 3.515625 -5.828125 L 4.875 -2.453125 L 4.890625 -2.453125 L 6.078125 -5.8125 C 6.234375 -6.21875 6.414062 -6.597656 6.625 -6.953125 L 6.625 -6.96875 L 5.609375 -6.890625 L 5.609375 -8.140625 L 8.703125 -8.140625 L 8.703125 -7.09375 C 8.367188 -7.039062 8.082031 -6.828125 7.84375 -6.453125 C 7.613281 -6.085938 7.394531 -5.648438 7.1875 -5.140625 L 5.109375 0.046875 L 3.6875 0.046875 Z M 1.125 -5.59375 "/></g></g></g><g fill="#1b4418" fill-opacity="1"><g transform="translate(74.006765, 79.4111)"><g><path d="M 4.515625 0.265625 C 3.722656 0.265625 3.023438 0.0859375 2.421875 -0.265625 C 1.816406 -0.617188 1.34375 -1.117188 1 -1.765625 C 0.664062 -2.421875 0.5 -3.179688 0.5 -4.046875 C 0.5 -4.804688 0.671875 -5.519531 1.015625 -6.1875 C 1.359375 -6.851562 1.835938 -7.382812 2.453125 -7.78125 C 3.078125 -8.1875 3.785156 -8.390625 4.578125 -8.390625 C 5.617188 -8.390625 6.488281 -8.078125 7.1875 -7.453125 C 7.894531 -6.835938 8.242188 -5.8125 8.234375 -4.375 L 2.890625 -4.28125 C 2.890625 -3.320312 3.070312 -2.566406 3.4375 -2.015625 C 3.800781 -1.460938 4.382812 -1.1875 5.1875 -1.1875 C 5.570312 -1.1875 5.976562 -1.28125 6.40625 -1.46875 C 6.84375 -1.664062 7.234375 -1.976562 7.578125 -2.40625 L 8.3125 -1.71875 C 7.382812 -0.394531 6.117188 0.265625 4.515625 0.265625 Z M 5.984375 -5.421875 C 5.953125 -6.640625 5.507812 -7.25 4.65625 -7.25 C 4.1875 -7.25 3.8125 -7.082031 3.53125 -6.75 C 3.257812 -6.425781 3.082031 -5.984375 3 -5.421875 Z M 5.984375 -5.421875 "/></g></g></g><g fill="#1b4418" fill-opacity="1"><g transform="translate(85.196235, 79.4111)"><g><path d="M 0.671875 -1.0625 C 1.078125 -1.0625 1.335938 -1.171875 1.453125 -1.390625 C 1.566406 -1.617188 1.625 -1.988281 1.625 -2.5 L 1.625 -5.234375 C 1.625 -5.722656 1.644531 -6.1875 1.6875 -6.625 L 0.546875 -6.578125 L 0.546875 -7.8125 C 1.234375 -7.8125 1.785156 -7.859375 2.203125 -7.953125 C 2.628906 -8.046875 2.914062 -8.160156 3.0625 -8.296875 L 3.859375 -8.296875 C 3.878906 -8.128906 3.894531 -7.914062 3.90625 -7.65625 C 3.914062 -7.394531 3.921875 -7.140625 3.921875 -6.890625 L 3.953125 -6.890625 C 4.691406 -7.890625 5.472656 -8.390625 6.296875 -8.390625 C 6.703125 -8.390625 7.035156 -8.273438 7.296875 -8.046875 C 7.566406 -7.816406 7.703125 -7.484375 7.703125 -7.046875 C 7.703125 -6.765625 7.609375 -6.503906 7.421875 -6.265625 C 7.242188 -6.023438 6.972656 -5.90625 6.609375 -5.90625 C 6.335938 -5.90625 6.09375 -5.972656 5.875 -6.109375 C 5.664062 -6.253906 5.546875 -6.5 5.515625 -6.84375 C 5.210938 -6.84375 4.898438 -6.664062 4.578125 -6.3125 C 4.253906 -5.96875 4.039062 -5.617188 3.9375 -5.265625 L 3.9375 -2.625 C 3.9375 -2.101562 3.914062 -1.625 3.875 -1.1875 C 4.21875 -1.21875 4.566406 -1.234375 4.921875 -1.234375 L 4.921875 0 L 0.671875 0 Z M 0.671875 -1.0625 "/></g></g></g><g fill="#1b4418" fill-opacity="1"><g transform="translate(95.44241, 79.4111)"><g><path d="M 4.40625 0.265625 C 3.9375 0.265625 3.476562 0.203125 3.03125 0.078125 C 2.59375 -0.0351562 2.25 -0.1875 2 -0.375 L 1.984375 -0.375 L 2.03125 0.109375 L 0.796875 0.109375 L 0.734375 -2.6875 L 1.796875 -2.6875 C 1.847656 -2.1875 2.109375 -1.765625 2.578125 -1.421875 C 3.046875 -1.078125 3.625 -0.90625 4.3125 -0.90625 C 4.613281 -0.90625 4.875 -0.972656 5.09375 -1.109375 C 5.320312 -1.253906 5.4375 -1.457031 5.4375 -1.71875 C 5.4375 -1.914062 5.363281 -2.078125 5.21875 -2.203125 C 5.082031 -2.335938 4.914062 -2.445312 4.71875 -2.53125 C 4.519531 -2.625 4.128906 -2.785156 3.546875 -3.015625 C 2.847656 -3.285156 2.328125 -3.503906 1.984375 -3.671875 C 1.640625 -3.847656 1.328125 -4.109375 1.046875 -4.453125 C 0.773438 -4.796875 0.640625 -5.238281 0.640625 -5.78125 C 0.640625 -6.21875 0.75 -6.632812 0.96875 -7.03125 C 1.1875 -7.425781 1.523438 -7.75 1.984375 -8 C 2.453125 -8.257812 3.019531 -8.390625 3.6875 -8.390625 C 4 -8.390625 4.335938 -8.335938 4.703125 -8.234375 C 5.078125 -8.140625 5.390625 -8.007812 5.640625 -7.84375 L 5.65625 -7.84375 L 5.640625 -8.3125 L 6.875 -8.3125 L 6.875 -5.4375 L 5.828125 -5.4375 C 5.722656 -6 5.46875 -6.441406 5.0625 -6.765625 C 4.664062 -7.085938 4.175781 -7.25 3.59375 -7.25 C 3.289062 -7.25 3.035156 -7.175781 2.828125 -7.03125 C 2.617188 -6.894531 2.515625 -6.679688 2.515625 -6.390625 C 2.515625 -6.085938 2.632812 -5.863281 2.875 -5.71875 C 3.113281 -5.570312 3.515625 -5.40625 4.078125 -5.21875 C 4.148438 -5.207031 4.289062 -5.164062 4.5 -5.09375 C 5.425781 -4.769531 6.132812 -4.390625 6.625 -3.953125 C 7.125 -3.515625 7.375 -2.945312 7.375 -2.25 C 7.375 -1.707031 7.234375 -1.25 6.953125 -0.875 C 6.671875 -0.5 6.304688 -0.210938 5.859375 -0.015625 C 5.410156 0.171875 4.925781 0.265625 4.40625 0.265625 Z M 4.40625 0.265625 "/></g></g></g><g fill="#1b4418" fill-opacity="1"><g transform="translate(105.769899, 79.4111)"><g><path d="M 4.515625 0.265625 C 3.722656 0.265625 3.023438 0.0859375 2.421875 -0.265625 C 1.816406 -0.617188 1.34375 -1.117188 1 -1.765625 C 0.664062 -2.421875 0.5 -3.179688 0.5 -4.046875 C 0.5 -4.804688 0.671875 -5.519531 1.015625 -6.1875 C 1.359375 -6.851562 1.835938 -7.382812 2.453125 -7.78125 C 3.078125 -8.1875 3.785156 -8.390625 4.578125 -8.390625 C 5.617188 -8.390625 6.488281 -8.078125 7.1875 -7.453125 C 7.894531 -6.835938 8.242188 -5.8125 8.234375 -4.375 L 2.890625 -4.28125 C 2.890625 -3.320312 3.070312 -2.566406 3.4375 -2.015625 C 3.800781 -1.460938 4.382812 -1.1875 5.1875 -1.1875 C 5.570312 -1.1875 5.976562 -1.28125 6.40625 -1.46875 C 6.84375 -1.664062 7.234375 -1.976562 7.578125 -2.40625 L 8.3125 -1.71875 C 7.382812 -0.394531 6.117188 0.265625 4.515625 0.265625 Z M 5.984375 -5.421875 C 5.953125 -6.640625 5.507812 -7.25 4.65625 -7.25 C 4.1875 -7.25 3.8125 -7.082031 3.53125 -6.75 C 3.257812 -6.425781 3.082031 -5.984375 3 -5.421875 Z M 5.984375 -5.421875 "/></g></g></g><g fill="#1b4418" fill-opacity="1"><g transform="translate(116.959367, 79.4111)"><g><path d="M 2.703125 0.265625 C 2.015625 0.265625 1.472656 0.0625 1.078125 -0.34375 C 0.679688 -0.75 0.484375 -1.269531 0.484375 -1.90625 C 0.484375 -2.851562 0.925781 -3.570312 1.8125 -4.0625 C 2.707031 -4.5625 3.78125 -4.835938 5.03125 -4.890625 L 5.03125 -5.734375 C 5.03125 -6.722656 4.660156 -7.21875 3.921875 -7.21875 C 3.441406 -7.21875 3.050781 -7.066406 2.75 -6.765625 C 2.875 -6.609375 2.9375 -6.398438 2.9375 -6.140625 C 2.9375 -5.890625 2.847656 -5.660156 2.671875 -5.453125 C 2.492188 -5.242188 2.234375 -5.140625 1.890625 -5.140625 C 1.566406 -5.140625 1.3125 -5.242188 1.125 -5.453125 C 0.9375 -5.671875 0.84375 -5.9375 0.84375 -6.25 C 0.84375 -6.664062 0.992188 -7.035156 1.296875 -7.359375 C 1.597656 -7.691406 2.007812 -7.945312 2.53125 -8.125 C 3.0625 -8.300781 3.644531 -8.390625 4.28125 -8.390625 C 6.28125 -8.390625 7.28125 -7.351562 7.28125 -5.28125 L 7.265625 -2.625 C 7.265625 -2.101562 7.242188 -1.625 7.203125 -1.1875 C 7.566406 -1.21875 7.921875 -1.234375 8.265625 -1.234375 L 8.265625 0 L 5.1875 0 C 5.164062 -0.144531 5.144531 -0.394531 5.125 -0.75 L 5.109375 -0.75 C 4.441406 -0.0703125 3.640625 0.265625 2.703125 0.265625 Z M 3.71875 -1.328125 C 4.207031 -1.328125 4.640625 -1.523438 5.015625 -1.921875 L 5.015625 -3.734375 C 4.367188 -3.671875 3.835938 -3.507812 3.421875 -3.25 C 3.003906 -2.988281 2.796875 -2.640625 2.796875 -2.203125 C 2.796875 -1.898438 2.882812 -1.675781 3.0625 -1.53125 C 3.238281 -1.394531 3.457031 -1.328125 3.71875 -1.328125 Z M 3.71875 -1.328125 "/></g></g></g><g fill="#1b4418" fill-opacity="1"><g transform="translate(127.921143, 79.4111)"><g><path d="M 4.40625 0.265625 C 3.9375 0.265625 3.476562 0.203125 3.03125 0.078125 C 2.59375 -0.0351562 2.25 -0.1875 2 -0.375 L 1.984375 -0.375 L 2.03125 0.109375 L 0.796875 0.109375 L 0.734375 -2.6875 L 1.796875 -2.6875 C 1.847656 -2.1875 2.109375 -1.765625 2.578125 -1.421875 C 3.046875 -1.078125 3.625 -0.90625 4.3125 -0.90625 C 4.613281 -0.90625 4.875 -0.972656 5.09375 -1.109375 C 5.320312 -1.253906 5.4375 -1.457031 5.4375 -1.71875 C 5.4375 -1.914062 5.363281 -2.078125 5.21875 -2.203125 C 5.082031 -2.335938 4.914062 -2.445312 4.71875 -2.53125 C 4.519531 -2.625 4.128906 -2.785156 3.546875 -3.015625 C 2.847656 -3.285156 2.328125 -3.503906 1.984375 -3.671875 C 1.640625 -3.847656 1.328125 -4.109375 1.046875 -4.453125 C 0.773438 -4.796875 0.640625 -5.238281 0.640625 -5.78125 C 0.640625 -6.21875 0.75 -6.632812 0.96875 -7.03125 C 1.1875 -7.425781 1.523438 -7.75 1.984375 -8 C 2.453125 -8.257812 3.019531 -8.390625 3.6875 -8.390625 C 4 -8.390625 4.335938 -8.335938 4.703125 -8.234375 C 5.078125 -8.140625 5.390625 -8.007812 5.640625 -7.84375 L 5.65625 -7.84375 L 5.640625 -8.3125 L 6.875 -8.3125 L 6.875 -5.4375 L 5.828125 -5.4375 C 5.722656 -6 5.46875 -6.441406 5.0625 -6.765625 C 4.664062 -7.085938 4.175781 -7.25 3.59375 -7.25 C 3.289062 -7.25 3.035156 -7.175781 2.828125 -7.03125 C 2.617188 -6.894531 2.515625 -6.679688 2.515625 -6.390625 C 2.515625 -6.085938 2.632812 -5.863281 2.875 -5.71875 C 3.113281 -5.570312 3.515625 -5.40625 4.078125 -5.21875 C 4.148438 -5.207031 4.289062 -5.164062 4.5 -5.09375 C 5.425781 -4.769531 6.132812 -4.390625 6.625 -3.953125 C 7.125 -3.515625 7.375 -2.945312 7.375 -2.25 C 7.375 -1.707031 7.234375 -1.25 6.953125 -0.875 C 6.671875 -0.5 6.304688 -0.210938 5.859375 -0.015625 C 5.410156 0.171875 4.925781 0.265625 4.40625 0.265625 Z M 4.40625 0.265625 "/></g></g></g><g fill="#1b4418" fill-opacity="1"><g transform="translate(138.248638, 79.4111)"><g/></g></g><g fill="#1b4418" fill-opacity="1"><g transform="translate(144.965573, 79.4111)"><g><path d="M 0.8125 -1.078125 C 1.101562 -1.085938 1.320312 -1.117188 1.46875 -1.171875 C 1.625 -1.234375 1.742188 -1.363281 1.828125 -1.5625 C 1.921875 -1.757812 1.96875 -2.066406 1.96875 -2.484375 L 1.96875 -8.71875 C 1.96875 -9.320312 1.988281 -9.8125 2.03125 -10.1875 L 0.8125 -10.140625 L 0.8125 -11.390625 L 8.953125 -11.390625 L 9.046875 -8.234375 L 7.96875 -8.234375 C 7.96875 -9.035156 7.773438 -9.585938 7.390625 -9.890625 C 7.003906 -10.203125 6.539062 -10.347656 6 -10.328125 L 5.421875 -10.3125 C 5.160156 -10.300781 4.953125 -10.265625 4.796875 -10.203125 C 4.648438 -10.148438 4.535156 -10.019531 4.453125 -9.8125 C 4.367188 -9.601562 4.328125 -9.296875 4.328125 -8.890625 L 4.328125 -6.453125 L 6.234375 -6.453125 C 6.222656 -6.640625 6.203125 -7.113281 6.171875 -7.875 L 7.421875 -7.875 L 7.421875 -3.921875 L 6.34375 -3.921875 C 6.34375 -4.359375 6.273438 -4.675781 6.140625 -4.875 C 6.003906 -5.082031 5.828125 -5.21875 5.609375 -5.28125 C 5.390625 -5.34375 5.101562 -5.363281 4.75 -5.34375 L 4.328125 -5.328125 L 4.328125 -2.671875 C 4.328125 -2.085938 4.304688 -1.609375 4.265625 -1.234375 L 6.4375 -1.234375 C 6.988281 -1.234375 7.457031 -1.421875 7.84375 -1.796875 C 8.226562 -2.171875 8.421875 -2.765625 8.421875 -3.578125 L 9.484375 -3.578125 L 9.40625 0 L 0.8125 0 Z M 0.8125 -1.078125 "/></g></g></g><g fill="#1b4418" fill-opacity="1"><g transform="translate(157.55374, 79.4111)"><g><path d="M 3.8125 0.265625 C 3.15625 0.265625 2.578125 0.0976562 2.078125 -0.234375 C 1.585938 -0.578125 1.203125 -1.0625 0.921875 -1.6875 C 0.648438 -2.3125 0.515625 -3.035156 0.515625 -3.859375 C 0.515625 -4.722656 0.679688 -5.5 1.015625 -6.1875 C 1.359375 -6.875 1.832031 -7.410156 2.4375 -7.796875 C 3.050781 -8.191406 3.753906 -8.390625 4.546875 -8.390625 C 4.972656 -8.390625 5.457031 -8.289062 6 -8.09375 L 6 -9.171875 C 6 -9.691406 6.019531 -10.171875 6.0625 -10.609375 C 5.707031 -10.578125 5.320312 -10.5625 4.90625 -10.5625 L 4.90625 -11.796875 C 5.59375 -11.796875 6.144531 -11.84375 6.5625 -11.9375 C 6.988281 -12.03125 7.273438 -12.144531 7.421875 -12.28125 L 8.296875 -12.28125 L 8.296875 -2.625 C 8.296875 -2.101562 8.273438 -1.625 8.234375 -1.1875 C 8.585938 -1.21875 8.9375 -1.234375 9.28125 -1.234375 L 9.28125 0 L 6.203125 0 L 6.109375 -0.75 L 6.09375 -0.75 C 5.457031 -0.0703125 4.695312 0.265625 3.8125 0.265625 Z M 4.65625 -1.21875 C 4.925781 -1.21875 5.179688 -1.285156 5.421875 -1.421875 C 5.660156 -1.566406 5.851562 -1.757812 6 -2 L 6 -6.875 C 5.882812 -6.96875 5.71875 -7.039062 5.5 -7.09375 C 5.28125 -7.15625 5.0625 -7.1875 4.84375 -7.1875 C 4.15625 -7.175781 3.660156 -6.878906 3.359375 -6.296875 C 3.054688 -5.710938 2.90625 -4.976562 2.90625 -4.09375 C 2.90625 -3.3125 3.050781 -2.632812 3.34375 -2.0625 C 3.632812 -1.5 4.070312 -1.21875 4.65625 -1.21875 Z M 4.65625 -1.21875 "/></g></g></g><g fill="#1b4418" fill-opacity="1"><g transform="translate(169.686525, 79.4111)"><g><path d="M 4.03125 0.265625 C 3.070312 0.265625 2.378906 -0.015625 1.953125 -0.578125 C 1.535156 -1.148438 1.328125 -2.066406 1.328125 -3.328125 L 1.328125 -5.203125 C 1.328125 -5.660156 1.34375 -6.132812 1.375 -6.625 L 0.25 -6.578125 L 0.25 -7.8125 C 0.925781 -7.8125 1.472656 -7.859375 1.890625 -7.953125 C 2.316406 -8.046875 2.601562 -8.160156 2.75 -8.296875 L 3.640625 -8.296875 L 3.640625 -3.3125 C 3.640625 -2.601562 3.734375 -2.078125 3.921875 -1.734375 C 4.109375 -1.398438 4.398438 -1.234375 4.796875 -1.234375 C 5.066406 -1.234375 5.34375 -1.304688 5.625 -1.453125 C 5.914062 -1.609375 6.160156 -1.796875 6.359375 -2.015625 L 6.359375 -5.203125 C 6.359375 -5.710938 6.378906 -6.1875 6.421875 -6.625 L 5.28125 -6.578125 L 5.28125 -7.8125 C 5.96875 -7.8125 6.519531 -7.859375 6.9375 -7.953125 C 7.351562 -8.046875 7.632812 -8.160156 7.78125 -8.296875 L 8.671875 -8.296875 L 8.671875 -2.625 C 8.671875 -2.101562 8.648438 -1.625 8.609375 -1.1875 C 8.953125 -1.21875 9.300781 -1.234375 9.65625 -1.234375 L 9.65625 0 L 6.578125 0 L 6.46875 -0.84375 L 6.453125 -0.84375 C 6.054688 -0.5 5.671875 -0.226562 5.296875 -0.03125 C 4.921875 0.164062 4.5 0.265625 4.03125 0.265625 Z M 4.03125 0.265625 "/></g></g></g><g fill="#1b4418" fill-opacity="1"><g transform="translate(182.177101, 79.4111)"><g><path d="M 4.5 0.265625 C 3.769531 0.265625 3.097656 0.0976562 2.484375 -0.234375 C 1.878906 -0.566406 1.394531 -1.046875 1.03125 -1.671875 C 0.675781 -2.296875 0.5 -3.035156 0.5 -3.890625 C 0.5 -4.703125 0.675781 -5.453125 1.03125 -6.140625 C 1.394531 -6.828125 1.898438 -7.375 2.546875 -7.78125 C 3.191406 -8.1875 3.921875 -8.390625 4.734375 -8.390625 C 5.390625 -8.390625 5.953125 -8.285156 6.421875 -8.078125 C 6.898438 -7.878906 7.257812 -7.609375 7.5 -7.265625 C 7.738281 -6.921875 7.859375 -6.554688 7.859375 -6.171875 C 7.859375 -5.828125 7.753906 -5.535156 7.546875 -5.296875 C 7.347656 -5.054688 7.078125 -4.9375 6.734375 -4.9375 C 6.378906 -4.9375 6.109375 -5.046875 5.921875 -5.265625 C 5.742188 -5.484375 5.65625 -5.726562 5.65625 -6 C 5.65625 -6.25 5.722656 -6.488281 5.859375 -6.71875 C 5.753906 -6.914062 5.59375 -7.050781 5.375 -7.125 C 5.164062 -7.207031 4.953125 -7.25 4.734375 -7.25 C 4.179688 -7.25 3.734375 -6.992188 3.390625 -6.484375 C 3.046875 -5.984375 2.875 -5.273438 2.875 -4.359375 C 2.875 -3.441406 3.050781 -2.679688 3.40625 -2.078125 C 3.769531 -1.484375 4.335938 -1.1875 5.109375 -1.1875 C 5.546875 -1.1875 5.972656 -1.300781 6.390625 -1.53125 C 6.816406 -1.757812 7.175781 -2.0625 7.46875 -2.4375 L 8.21875 -1.703125 C 7.675781 -0.953125 7.09375 -0.4375 6.46875 -0.15625 C 5.851562 0.125 5.195312 0.265625 4.5 0.265625 Z M 4.5 0.265625 "/></g></g></g><g fill="#1b4418" fill-opacity="1"><g transform="translate(193.041313, 79.4111)"><g><path d="M 2.703125 0.265625 C 2.015625 0.265625 1.472656 0.0625 1.078125 -0.34375 C 0.679688 -0.75 0.484375 -1.269531 0.484375 -1.90625 C 0.484375 -2.851562 0.925781 -3.570312 1.8125 -4.0625 C 2.707031 -4.5625 3.78125 -4.835938 5.03125 -4.890625 L 5.03125 -5.734375 C 5.03125 -6.722656 4.660156 -7.21875 3.921875 -7.21875 C 3.441406 -7.21875 3.050781 -7.066406 2.75 -6.765625 C 2.875 -6.609375 2.9375 -6.398438 2.9375 -6.140625 C 2.9375 -5.890625 2.847656 -5.660156 2.671875 -5.453125 C 2.492188 -5.242188 2.234375 -5.140625 1.890625 -5.140625 C 1.566406 -5.140625 1.3125 -5.242188 1.125 -5.453125 C 0.9375 -5.671875 0.84375 -5.9375 0.84375 -6.25 C 0.84375 -6.664062 0.992188 -7.035156 1.296875 -7.359375 C 1.597656 -7.691406 2.007812 -7.945312 2.53125 -8.125 C 3.0625 -8.300781 3.644531 -8.390625 4.28125 -8.390625 C 6.28125 -8.390625 7.28125 -7.351562 7.28125 -5.28125 L 7.265625 -2.625 C 7.265625 -2.101562 7.242188 -1.625 7.203125 -1.1875 C 7.566406 -1.21875 7.921875 -1.234375 8.265625 -1.234375 L 8.265625 0 L 5.1875 0 C 5.164062 -0.144531 5.144531 -0.394531 5.125 -0.75 L 5.109375 -0.75 C 4.441406 -0.0703125 3.640625 0.265625 2.703125 0.265625 Z M 3.71875 -1.328125 C 4.207031 -1.328125 4.640625 -1.523438 5.015625 -1.921875 L 5.015625 -3.734375 C 4.367188 -3.671875 3.835938 -3.507812 3.421875 -3.25 C 3.003906 -2.988281 2.796875 -2.640625 2.796875 -2.203125 C 2.796875 -1.898438 2.882812 -1.675781 3.0625 -1.53125 C 3.238281 -1.394531 3.457031 -1.328125 3.71875 -1.328125 Z M 3.71875 -1.328125 "/></g></g></g><g fill="#1b4418" fill-opacity="1"><g transform="translate(204.003095, 79.4111)"><g><path d="M 3.890625 0.265625 C 2.191406 0.265625 1.34375 -0.773438 1.34375 -2.859375 L 1.375 -6.78125 L 0.28125 -6.78125 L 0.28125 -8.140625 C 0.625 -8.140625 0.945312 -8.242188 1.25 -8.453125 C 1.5625 -8.671875 1.828125 -8.9375 2.046875 -9.25 C 2.265625 -9.570312 2.414062 -9.878906 2.5 -10.171875 L 3.703125 -10.171875 L 3.6875 -8.140625 L 5.765625 -8.140625 L 5.765625 -6.875 L 3.6875 -6.828125 L 3.671875 -2.828125 C 3.671875 -1.773438 4 -1.25 4.65625 -1.25 C 5.175781 -1.25 5.664062 -1.578125 6.125 -2.234375 L 6.90625 -1.5 C 6.394531 -0.75 5.882812 -0.265625 5.375 -0.046875 C 4.875 0.160156 4.378906 0.265625 3.890625 0.265625 Z M 3.890625 0.265625 "/></g></g></g><g fill="#1b4418" fill-opacity="1"><g transform="translate(213.159607, 79.4111)"><g><path d="M 2.953125 -9.75 C 2.585938 -9.75 2.285156 -9.875 2.046875 -10.125 C 1.804688 -10.375 1.6875 -10.6875 1.6875 -11.0625 C 1.6875 -11.425781 1.8125 -11.738281 2.0625 -12 C 2.3125 -12.269531 2.601562 -12.40625 2.9375 -12.40625 C 3.289062 -12.40625 3.582031 -12.273438 3.8125 -12.015625 C 4.039062 -11.753906 4.15625 -11.4375 4.15625 -11.0625 C 4.15625 -10.675781 4.046875 -10.359375 3.828125 -10.109375 C 3.609375 -9.867188 3.316406 -9.75 2.953125 -9.75 Z M 0.671875 -1.0625 C 1.078125 -1.0625 1.335938 -1.171875 1.453125 -1.390625 C 1.566406 -1.617188 1.625 -1.988281 1.625 -2.5 L 1.625 -5.203125 C 1.625 -5.710938 1.644531 -6.1875 1.6875 -6.625 L 0.546875 -6.578125 L 0.546875 -7.8125 C 1.234375 -7.8125 1.785156 -7.859375 2.203125 -7.953125 C 2.628906 -8.046875 2.914062 -8.160156 3.0625 -8.296875 L 3.9375 -8.296875 L 3.9375 -2.625 C 3.9375 -2.101562 3.914062 -1.625 3.875 -1.1875 C 4.21875 -1.21875 4.566406 -1.234375 4.921875 -1.234375 L 4.921875 0 L 0.671875 0 Z M 0.671875 -1.0625 "/></g></g></g><g fill="#1b4418" fill-opacity="1"><g transform="translate(220.917424, 79.4111)"><g><path d="M 4.65625 0.265625 C 3.863281 0.265625 3.148438 0.0976562 2.515625 -0.234375 C 1.890625 -0.578125 1.394531 -1.0625 1.03125 -1.6875 C 0.675781 -2.320312 0.5 -3.054688 0.5 -3.890625 C 0.5 -4.765625 0.679688 -5.539062 1.046875 -6.21875 C 1.421875 -6.90625 1.921875 -7.4375 2.546875 -7.8125 C 3.171875 -8.195312 3.859375 -8.390625 4.609375 -8.390625 C 5.390625 -8.390625 6.085938 -8.222656 6.703125 -7.890625 C 7.316406 -7.554688 7.800781 -7.070312 8.15625 -6.4375 C 8.519531 -5.800781 8.703125 -5.0625 8.703125 -4.21875 C 8.703125 -3.3125 8.53125 -2.519531 8.1875 -1.84375 C 7.84375 -1.175781 7.363281 -0.65625 6.75 -0.28125 C 6.144531 0.0820312 5.445312 0.265625 4.65625 0.265625 Z M 4.6875 -0.890625 C 5.28125 -0.890625 5.695312 -1.164062 5.9375 -1.71875 C 6.175781 -2.269531 6.296875 -2.96875 6.296875 -3.8125 C 6.296875 -4.738281 6.160156 -5.539062 5.890625 -6.21875 C 5.617188 -6.90625 5.191406 -7.25 4.609375 -7.25 C 4.003906 -7.25 3.566406 -6.96875 3.296875 -6.40625 C 3.023438 -5.84375 2.890625 -5.148438 2.890625 -4.328125 C 2.890625 -3.378906 3.035156 -2.566406 3.328125 -1.890625 C 3.628906 -1.222656 4.082031 -0.890625 4.6875 -0.890625 Z M 4.6875 -0.890625 "/></g></g></g><g fill="#1b4418" fill-opacity="1"><g transform="translate(232.562288, 79.4111)"><g><path d="M 0.671875 -1.0625 C 1.078125 -1.0625 1.335938 -1.171875 1.453125 -1.390625 C 1.566406 -1.617188 1.625 -1.988281 1.625 -2.5 L 1.625 -5.234375 C 1.625 -5.722656 1.644531 -6.1875 1.6875 -6.625 L 0.546875 -6.578125 L 0.546875 -7.8125 C 1.234375 -7.8125 1.785156 -7.859375 2.203125 -7.953125 C 2.628906 -8.046875 2.914062 -8.160156 3.0625 -8.296875 L 3.859375 -8.296875 C 3.859375 -8.273438 3.878906 -8.003906 3.921875 -7.484375 L 3.953125 -7.484375 C 4.265625 -7.734375 4.648438 -7.945312 5.109375 -8.125 C 5.578125 -8.300781 5.972656 -8.390625 6.296875 -8.390625 C 7.285156 -8.390625 7.988281 -8.109375 8.40625 -7.546875 C 8.832031 -6.984375 9.046875 -6.066406 9.046875 -4.796875 L 9.046875 -2.625 C 9.046875 -2.101562 9.023438 -1.625 8.984375 -1.1875 C 9.335938 -1.21875 9.6875 -1.234375 10.03125 -1.234375 L 10.03125 0 L 5.78125 0 L 5.78125 -1.0625 C 6.1875 -1.0625 6.445312 -1.171875 6.5625 -1.390625 C 6.6875 -1.617188 6.75 -1.988281 6.75 -2.5 L 6.734375 -4.8125 C 6.734375 -5.53125 6.628906 -6.054688 6.421875 -6.390625 C 6.222656 -6.722656 5.890625 -6.890625 5.421875 -6.890625 C 5.160156 -6.890625 4.894531 -6.832031 4.625 -6.71875 C 4.351562 -6.613281 4.125 -6.472656 3.9375 -6.296875 L 3.9375 -2.625 C 3.9375 -2.101562 3.914062 -1.625 3.875 -1.1875 C 4.21875 -1.21875 4.566406 -1.234375 4.921875 -1.234375 L 4.921875 0 L 0.671875 0 Z M 0.671875 -1.0625 "/></g></g></g><g fill="#0b4715" fill-opacity="1"><g transform="translate(29.494817, 60.642567)"><g><path d="M 10.035156 0 L 12.644531 0 C 12.644531 -0.582031 12.800781 -1.839844 13.472656 -3.285156 L 18.570312 -14.824219 C 19.304688 -16.480469 19.949219 -17.554688 21.792969 -17.894531 L 21.792969 -19.0625 L 14.609375 -19.0625 L 14.609375 -17.894531 C 16.636719 -17.617188 17.371094 -16.667969 16.695312 -15.164062 L 12.800781 -6.355469 C 12.585938 -5.863281 12.429688 -5.863281 12.246094 -6.382812 L 8.074219 -15.347656 C 7.457031 -16.667969 7.488281 -17.648438 9.300781 -17.894531 L 9.300781 -19.0625 L 0.613281 -19.0625 L 0.613281 -17.957031 C 2.179688 -17.554688 2.515625 -16.453125 3.589844 -14.089844 Z M 10.035156 0 "/></g></g></g><g fill="#0b4715" fill-opacity="1"><g transform="translate(53.433162, 60.642567)"><g><path d="M 5.003906 0.183594 C 7.242188 0.183594 8.71875 -1.042969 9.484375 -2.027344 C 9.792969 -2.363281 10.035156 -2.300781 10.066406 -1.902344 C 10.222656 -0.953125 11.019531 0.152344 12.921875 0.152344 C 13.902344 0.152344 15.164062 -0.121094 15.714844 -0.550781 L 15.714844 -1.78125 C 14.640625 -1.597656 14.117188 -1.933594 14.117188 -2.945312 L 14.117188 -8.316406 C 14.117188 -12.921875 12.429688 -14.117188 8.933594 -14.117188 C 5.402344 -14.117188 1.8125 -12.800781 1.8125 -10.558594 C 1.8125 -9.578125 2.457031 -8.6875 3.746094 -8.6875 C 4.847656 -8.6875 5.953125 -9.300781 5.953125 -10.679688 C 5.953125 -11.847656 6.324219 -12.859375 7.734375 -12.859375 C 9.332031 -12.859375 9.976562 -11.847656 9.976562 -9.605469 L 9.976562 -9.300781 C 9.976562 -8.378906 9.761719 -8.164062 8.746094 -8.011719 C 3.101562 -7.121094 0.921875 -5.707031 0.921875 -3.191406 C 0.921875 -0.796875 2.855469 0.183594 5.003906 0.183594 Z M 6.96875 -2.117188 C 5.648438 -2.117188 5.125 -2.914062 5.125 -3.960938 C 5.125 -4.941406 5.769531 -6.597656 8.746094 -6.8125 C 9.699219 -6.90625 9.976562 -6.660156 9.976562 -5.953125 L 9.976562 -5.371094 C 9.976562 -3.53125 8.777344 -2.117188 6.96875 -2.117188 Z M 6.96875 -2.117188 "/></g></g></g><g fill="#0b4715" fill-opacity="1"><g transform="translate(71.294899, 60.642567)"><g><path d="M 5.1875 0.152344 C 6.199219 0.152344 7.398438 -0.121094 8.316406 -0.707031 L 8.316406 -1.933594 C 6.9375 -1.566406 6.414062 -1.933594 6.414062 -2.914062 L 6.414062 -18.90625 C 6.414062 -19.796875 5.921875 -20.226562 4.941406 -20.074219 L 0.308594 -19.246094 L 0.308594 -18.015625 C 1.566406 -18.140625 2.269531 -17.832031 2.269531 -16.390625 L 2.269531 -2.546875 C 2.269531 -0.859375 3.316406 0.152344 5.1875 0.152344 Z M 5.1875 0.152344 "/></g></g></g><g fill="#0b4715" fill-opacity="1"><g transform="translate(81.60691, 60.642567)"><g><path d="M 5.1875 0.152344 C 6.199219 0.152344 7.398438 -0.121094 8.316406 -0.707031 L 8.316406 -1.933594 C 6.9375 -1.566406 6.414062 -1.933594 6.414062 -2.914062 L 6.414062 -18.90625 C 6.414062 -19.796875 5.921875 -20.226562 4.941406 -20.074219 L 0.308594 -19.246094 L 0.308594 -18.015625 C 1.566406 -18.140625 2.269531 -17.832031 2.269531 -16.390625 L 2.269531 -2.546875 C 2.269531 -0.859375 3.316406 0.152344 5.1875 0.152344 Z M 5.1875 0.152344 "/></g></g></g><g fill="#0b4715" fill-opacity="1"><g transform="translate(91.918918, 60.642567)"><g><path d="M 10.375 -2.085938 C 8.257812 -2.085938 6.628906 -3.222656 5.863281 -5.25 C 5.648438 -5.921875 5.800781 -6.414062 6.292969 -6.445312 L 9.605469 -6.597656 C 12.613281 -6.722656 14.761719 -7 14.761719 -9.605469 C 14.761719 -12.429688 12.03125 -14.117188 8.746094 -14.117188 C 4.847656 -14.117188 0.921875 -11.816406 0.921875 -6.90625 C 0.921875 -2.117188 4.605469 0.183594 8.441406 0.183594 C 11.96875 0.183594 13.933594 -1.75 14.519531 -2.914062 L 13.71875 -3.652344 C 12.613281 -2.363281 11.480469 -2.085938 10.375 -2.085938 Z M 8.289062 -12.800781 C 9.976562 -12.800781 10.988281 -11.296875 10.988281 -9.914062 C 10.988281 -8.503906 10.222656 -7.644531 7.703125 -7.644531 L 6.476562 -7.671875 C 5.707031 -7.671875 5.402344 -8.011719 5.339844 -8.6875 C 5.433594 -11.019531 6.261719 -12.800781 8.289062 -12.800781 Z M 8.289062 -12.800781 "/></g></g></g><g fill="#0b4715" fill-opacity="1"><g transform="translate(109.289615, 60.642567)"><g><path d="M 4.664062 6.078125 C 6.96875 6.078125 8.257812 4.910156 9.515625 1.597656 L 14.058594 -10.128906 C 14.640625 -11.632812 15.101562 -12.183594 16.972656 -12.644531 L 16.972656 -13.84375 L 10.773438 -13.84375 L 10.773438 -12.644531 C 12.675781 -12.183594 13.230469 -11.539062 11.601562 -7.214844 L 10.375 -4.019531 C 10.097656 -3.253906 9.699219 -3.253906 9.421875 -4.019531 L 7 -10.128906 C 6.382812 -11.695312 6.382812 -12.183594 7.980469 -12.644531 L 7.980469 -13.84375 L 0.308594 -13.84375 L 0.308594 -12.644531 C 1.625 -12.183594 2.210938 -11.601562 2.792969 -10.128906 L 6.753906 0.0625 C 7.273438 1.382812 7.398438 2.515625 7 3.652344 C 6.785156 4.265625 6.355469 4.757812 5.769531 4.757812 C 4.265625 4.757812 5.523438 1.75 3.070312 1.75 C 1.6875 1.75 1.167969 2.699219 1.167969 3.621094 C 1.167969 5.125 2.640625 6.078125 4.664062 6.078125 Z M 4.664062 6.078125 "/></g></g></g><g fill="#0b4715" fill-opacity="1"><g transform="translate(128.102741, 60.642567)"><g/></g></g><g fill="#0b4715" fill-opacity="1"><g transform="translate(135.16162, 60.642567)"><g><path d="M 4.574219 0.308594 C 7.273438 0.308594 10.957031 -0.796875 10.957031 -4.941406 L 10.957031 -15.960938 C 10.957031 -17.15625 11.753906 -17.742188 13.199219 -17.894531 L 13.199219 -19.0625 L 3.746094 -19.0625 L 3.746094 -17.894531 C 5.492188 -17.742188 6.261719 -17.15625 6.261719 -15.960938 L 6.261719 -3.007812 C 6.261719 -1.441406 5.769531 -0.921875 5.09375 -0.921875 C 4.175781 -0.921875 3.621094 -1.65625 3.621094 -3.191406 C 3.621094 -4.265625 3.222656 -5.492188 1.6875 -5.492188 C 0.460938 -5.492188 -0.613281 -4.726562 -0.613281 -3.128906 C -0.613281 -0.828125 1.78125 0.308594 4.574219 0.308594 Z M 4.574219 0.308594 "/></g></g></g><g fill="#0b4715" fill-opacity="1"><g transform="translate(150.81368, 60.642567)"><g><path d="M 8.410156 0.183594 C 12.183594 0.183594 15.835938 -2.054688 15.835938 -6.90625 C 15.835938 -11.753906 12.15625 -14.117188 8.347656 -14.117188 C 4.574219 -14.117188 0.921875 -11.878906 0.921875 -7.027344 C 0.921875 -2.179688 4.605469 0.183594 8.410156 0.183594 Z M 8.933594 -1.105469 C 6.84375 -1.105469 5.339844 -4.417969 5.339844 -8.195312 C 5.339844 -11.265625 6.324219 -12.828125 7.828125 -12.828125 C 9.914062 -12.828125 11.417969 -9.515625 11.417969 -5.738281 C 11.417969 -2.671875 10.375 -1.105469 8.933594 -1.105469 Z M 8.933594 -1.105469 "/></g></g></g><g fill="#0b4715" fill-opacity="1"><g transform="translate(169.105086, 60.642567)"><g><path d="M 7.214844 0.183594 C 9.667969 0.183594 11.019531 -1.042969 11.785156 -1.996094 C 11.941406 -2.210938 12.09375 -2.332031 12.246094 -2.332031 C 12.460938 -2.332031 12.554688 -2.117188 12.644531 -1.78125 C 12.859375 -1.105469 13.257812 0.152344 15.347656 0.152344 C 16.328125 0.152344 17.554688 -0.121094 18.109375 -0.550781 L 18.109375 -1.78125 C 17.066406 -1.597656 16.542969 -1.933594 16.542969 -2.945312 L 16.542969 -12.921875 C 16.542969 -13.78125 16.082031 -14.210938 15.101562 -14.058594 L 10.4375 -13.257812 L 10.4375 -12.03125 C 11.695312 -12.125 12.398438 -11.847656 12.398438 -10.40625 L 12.398438 -6.230469 C 12.398438 -3.960938 11.324219 -2.546875 9.453125 -2.546875 C 7.703125 -2.546875 6.875 -3.988281 6.875 -6.230469 L 6.875 -12.921875 C 6.875 -13.78125 6.382812 -14.210938 5.402344 -14.058594 L 0.765625 -13.257812 L 0.765625 -12.03125 C 2.027344 -12.125 2.730469 -11.847656 2.730469 -10.40625 L 2.730469 -5.371094 C 2.730469 -0.796875 4.941406 0.183594 7.214844 0.183594 Z M 7.214844 0.183594 "/></g></g></g><g fill="#0b4715" fill-opacity="1"><g transform="translate(189.514098, 60.642567)"><g><path d="M 0.765625 0 L 8.960938 0 L 8.960938 -1.195312 C 7.398438 -1.320312 6.875 -1.78125 6.875 -3.160156 L 6.875 -7.429688 C 6.875 -10.4375 8.074219 -12.03125 9.484375 -12.03125 C 10.222656 -12.03125 10.710938 -11.480469 10.710938 -10.589844 C 10.710938 -9.515625 11.570312 -8.902344 12.675781 -8.902344 C 13.964844 -8.902344 14.886719 -9.730469 14.886719 -11.234375 C 14.886719 -12.953125 13.414062 -14.210938 11.570312 -14.210938 C 9.851562 -14.210938 8.441406 -13.230469 7.703125 -12.339844 C 7.335938 -11.847656 6.875 -12 6.875 -13.105469 C 6.875 -13.78125 6.382812 -14.210938 5.402344 -14.058594 L 0.765625 -13.257812 L 0.765625 -12.03125 C 2.027344 -12.125 2.730469 -11.847656 2.730469 -10.40625 L 2.730469 -3.160156 C 2.730469 -1.78125 2.210938 -1.320312 0.765625 -1.195312 Z M 0.765625 0 "/></g></g></g><g fill="#0b4715" fill-opacity="1"><g transform="translate(206.393758, 60.642567)"><g><path d="M 15.316406 0.152344 C 16.238281 0.152344 17.585938 -0.09375 18.109375 -0.550781 L 18.109375 -1.78125 C 17.066406 -1.597656 16.542969 -1.933594 16.542969 -2.945312 L 16.542969 -8.65625 C 16.542969 -13.230469 14.332031 -14.210938 12.09375 -14.210938 C 9.761719 -14.210938 8.59375 -13.105469 7.828125 -12.246094 C 7.429688 -11.785156 6.875 -12 6.875 -13.105469 C 6.875 -13.78125 6.382812 -14.210938 5.402344 -14.058594 L 0.765625 -13.257812 L 0.765625 -12.03125 C 2.027344 -12.125 2.730469 -11.847656 2.730469 -10.40625 L 2.730469 -3.160156 C 2.730469 -1.78125 2.210938 -1.320312 0.765625 -1.195312 L 0.765625 0 L 8.777344 0 L 8.777344 -1.195312 C 7.398438 -1.320312 6.875 -1.78125 6.875 -3.160156 L 6.875 -7.796875 C 6.875 -10.066406 7.949219 -11.480469 9.820312 -11.480469 C 11.539062 -11.480469 12.398438 -10.035156 12.398438 -7.796875 L 12.398438 -2.578125 C 12.398438 -0.859375 13.445312 0.152344 15.316406 0.152344 Z M 15.316406 0.152344 "/></g></g></g><g fill="#0b4715" fill-opacity="1"><g transform="translate(226.649314, 60.642567)"><g><path d="M 10.375 -2.085938 C 8.257812 -2.085938 6.628906 -3.222656 5.863281 -5.25 C 5.648438 -5.921875 5.800781 -6.414062 6.292969 -6.445312 L 9.605469 -6.597656 C 12.613281 -6.722656 14.761719 -7 14.761719 -9.605469 C 14.761719 -12.429688 12.03125 -14.117188 8.746094 -14.117188 C 4.847656 -14.117188 0.921875 -11.816406 0.921875 -6.90625 C 0.921875 -2.117188 4.605469 0.183594 8.441406 0.183594 C 11.96875 0.183594 13.933594 -1.75 14.519531 -2.914062 L 13.71875 -3.652344 C 12.613281 -2.363281 11.480469 -2.085938 10.375 -2.085938 Z M 8.289062 -12.800781 C 9.976562 -12.800781 10.988281 -11.296875 10.988281 -9.914062 C 10.988281 -8.503906 10.222656 -7.644531 7.703125 -7.644531 L 6.476562 -7.671875 C 5.707031 -7.671875 5.402344 -8.011719 5.339844 -8.6875 C 5.433594 -11.019531 6.261719 -12.800781 8.289062 -12.800781 Z M 8.289062 -12.800781 "/></g></g></g><g fill="#0b4715" fill-opacity="1"><g transform="translate(244.020011, 60.642567)"><g><path d="M 4.664062 6.078125 C 6.96875 6.078125 8.257812 4.910156 9.515625 1.597656 L 14.058594 -10.128906 C 14.640625 -11.632812 15.101562 -12.183594 16.972656 -12.644531 L 16.972656 -13.84375 L 10.773438 -13.84375 L 10.773438 -12.644531 C 12.675781 -12.183594 13.230469 -11.539062 11.601562 -7.214844 L 10.375 -4.019531 C 10.097656 -3.253906 9.699219 -3.253906 9.421875 -4.019531 L 7 -10.128906 C 6.382812 -11.695312 6.382812 -12.183594 7.980469 -12.644531 L 7.980469 -13.84375 L 0.308594 -13.84375 L 0.308594 -12.644531 C 1.625 -12.183594 2.210938 -11.601562 2.792969 -10.128906 L 6.753906 0.0625 C 7.273438 1.382812 7.398438 2.515625 7 3.652344 C 6.785156 4.265625 6.355469 4.757812 5.769531 4.757812 C 4.265625 4.757812 5.523438 1.75 3.070312 1.75 C 1.6875 1.75 1.167969 2.699219 1.167969 3.621094 C 1.167969 5.125 2.640625 6.078125 4.664062 6.078125 Z M 4.664062 6.078125 "/></g></g></g></svg>