<?xml version="1.0" encoding="UTF-8"?>
<svg version="1.1" xmlns="http://www.w3.org/2000/svg" width="362" height="347">
<path d="M0 0 C1.875 1.875 1.875 1.875 1.875 3.875 C2.535 3.875 3.195 3.875 3.875 3.875 C4.85914433 5.78911557 5.83713349 7.7063967 6.8125 9.625 C7.35777344 10.69234375 7.90304688 11.7596875 8.46484375 12.859375 C11.92831043 20.2660129 11.83173626 27.75926979 9.3125 35.5 C7.07361016 41.14938512 3.48109555 47.07195222 -2.125 49.875 C-0.5212669 50.52190922 1.08300306 51.16748764 2.6875 51.8125 C3.58082031 52.17214844 4.47414062 52.53179687 5.39453125 52.90234375 C9.82297378 54.63885114 13.19562608 55.00934143 17.95703125 55.05078125 C19.37826994 55.0739846 20.79949394 55.09810215 22.22070312 55.12304688 C24.4523292 55.15809603 26.68341588 55.18747538 28.9152832 55.20092773 C31.07569125 55.21648401 33.23453986 55.25673814 35.39453125 55.30078125 C36.68464111 55.31536377 37.97475098 55.32994629 39.30395508 55.3449707 C43.45791952 55.96151933 45.62140052 57.26749686 48.875 59.875 C52.99365106 65.55589802 53.0161666 70.74500501 52.97265625 77.578125 C52.97053383 78.83480988 52.97053383 78.83480988 52.96836853 80.11688232 C52.96278197 82.78629157 52.95023194 85.4556162 52.9375 88.125 C52.93248326 89.93749879 52.92792066 91.74999889 52.92382812 93.5625 C52.91281694 98.00003248 52.89556155 102.43750191 52.875 106.875 C53.78094154 106.7684182 53.78094154 106.7684182 54.70518494 106.65968323 C55.5049324 106.56775192 56.30467987 106.47582062 57.12866211 106.38110352 C57.91824814 106.28942398 58.70783417 106.19774445 59.52134705 106.10328674 C62.83293781 105.78208719 66.11237212 105.78021721 69.4375 105.8125 C70.65566406 105.82152344 71.87382812 105.83054687 73.12890625 105.83984375 C74.48822266 105.85724609 74.48822266 105.85724609 75.875 105.875 C76.14957031 104.97007812 76.42414063 104.06515625 76.70703125 103.1328125 C79.36824605 95.7098923 83.84080658 91.20025507 90.875 87.875 C96.8855184 85.15993768 103.00266765 84.75740018 109.37890625 86.59765625 C117.95941503 90.18375721 123.09044939 95.44645899 126.875 103.875 C129.39322439 112.1150127 127.78609793 119.36056266 123.875 126.875 C120.24137925 132.7974139 114.38760968 136.70413011 107.875 138.875 C99.13897141 139.73267462 92.087765 139.13562825 84.875 133.875 C80.22677054 129.59581712 77.73306228 125.59112456 74.875 119.875 C63.985 119.38 63.985 119.38 52.875 118.875 C52.875 129.765 52.875 140.655 52.875 151.875 C56.175 151.875 59.475 151.875 62.875 151.875 C66.04320445 155.10209301 66.28497262 158.21845015 66.25 162.625 C66.04954267 169.71073078 64.94244027 175.2634965 60.5 180.875 C57.76139464 182.96155647 56.19544594 183.34195182 52.875 183.875 C55.01648453 186.77043915 57.17069431 189.48565361 59.875 191.875 C63.11090328 192.14219972 63.11090328 192.14219972 65.875 190.875 C73.18954115 188.43681962 80.30449266 189.17538426 87.25 192.375 C94.92440846 196.65862407 99.00225495 202.25265954 101.40234375 210.66015625 C103.00963785 218.1918567 101.62627137 224.21781419 97.875 230.875 C93.41892525 236.72925622 88.06727302 241.03052998 80.875 242.875 C73.01244665 243.85220306 66.37703971 242.89875802 59.78125 238.46875 C53.50603478 233.50477378 49.47351528 227.66312224 48.46875 219.625 C48.32806529 214.56035032 48.56931557 210.40590474 50.40429688 205.67041016 C50.67850464 204.95744781 50.9527124 204.24448547 51.23522949 203.50991821 C51.55191589 202.7006337 51.55191589 202.7006337 51.875 201.875 C46.97793154 194.74679054 41.23843324 187.38140135 32.62402344 184.96191406 C24.41069712 183.78858173 16.16142397 184.01437471 7.88977051 184.31280518 C4.49741944 184.41752513 1.10467174 184.42984535 -2.2890625 184.44921875 C-8.90940769 184.49356942 -15.50105369 184.68720771 -22.125 184.875 C-22.125 201.045 -22.125 217.215 -22.125 233.875 C-20.475 234.205 -18.825 234.535 -17.125 234.875 C-10.82470175 238.36027137 -5.1675083 243.85969161 -2.6015625 250.73828125 C-0.7992594 258.81909923 -1.3562713 266.45347 -5.51171875 273.65234375 C-9.94991293 279.76695025 -15.61640051 284.3786243 -23.125 285.875 C-32.4194917 286.97820376 -39.41404489 284.8599774 -46.875 279.3125 C-52.31077547 274.2821903 -55.33984571 267.17118257 -55.6875 259.8125 C-55.22038702 251.65099814 -51.85424913 244.60424913 -46.125 238.875 C-42.17007099 235.82640889 -40.1336171 234.87672342 -35.125 233.875 C-34.795 217.705 -34.465 201.535 -34.125 184.875 C-41.54442263 184.85864737 -48.95859611 184.84907925 -56.37698364 184.90354156 C-59.83203009 184.92700107 -63.2861136 184.9383806 -66.74121094 184.91967773 C-70.71340781 184.89874757 -74.68416556 184.93439561 -78.65625 184.97265625 C-79.88363892 184.95840103 -81.11102783 184.94414581 -82.37561035 184.92945862 C-88.32486639 185.02937519 -92.21253556 185.29721414 -96.80639648 189.2902832 C-97.93452243 190.46451158 -99.04389952 191.65733741 -100.125 192.875 C-100.97191406 193.62007812 -101.81882812 194.36515625 -102.69140625 195.1328125 C-103.35011719 195.74898437 -104.00882812 196.36515625 -104.6875 197 C-105.36941406 197.62132812 -106.05132812 198.24265625 -106.75390625 198.8828125 C-108.40735886 200.83400233 -108.40735886 200.83400233 -107.90234375 203.4921875 C-107.19623278 205.85566862 -107.19623278 205.85566862 -106.125 207.875 C-105.42972899 217.83675191 -105.19817572 225.71008776 -111.6328125 233.76171875 C-116.39349972 239.04276015 -121.74933298 242.32570086 -128.86328125 243.21875 C-137.4597263 243.50410917 -143.22897088 241.68372413 -149.875 236.25 C-156.0737429 230.35102359 -158.28708794 224.96627688 -158.6875 216.4375 C-158.37940469 207.92015554 -155.49533025 201.77887217 -149.3125 195.9375 C-141.8696154 190.06080899 -134.53763044 188.81442192 -125.125 189.875 C-123.09686629 190.81663351 -121.08427833 191.79739692 -119.125 192.875 C-115.64285434 191.95325556 -113.4666024 189.53958204 -111.125 186.875 C-110.795 185.885 -110.465 184.895 -110.125 183.875 C-111.2078125 183.5346875 -111.2078125 183.5346875 -112.3125 183.1875 C-116.37236566 181.29289603 -119.14611803 178.72739818 -121.25 174.74609375 C-122.43117546 170.87036178 -122.45468828 167.27893388 -122.4375 163.25 C-122.45361328 162.486875 -122.46972656 161.72375 -122.48632812 160.9375 C-122.48828125 158.7109375 -122.48828125 158.7109375 -122.125 154.875 C-121.135 153.885 -120.145 152.895 -119.125 151.875 C-115.825 151.875 -112.525 151.875 -109.125 151.875 C-109.125 140.985 -109.125 130.095 -109.125 118.875 C-116.715 119.205 -124.305 119.535 -132.125 119.875 C-133.445 122.515 -134.765 125.155 -136.125 127.875 C-140.20068431 133.38857781 -145.46664014 137.17777102 -152.125 138.875 C-162.20896565 140.07517751 -168.30775291 138.30265658 -176.375 132.5625 C-182.2521928 126.81887976 -184.2464332 120.8446326 -184.5 112.75 C-184.41342847 105.02781963 -182.42191244 99.59369228 -177.29296875 93.80859375 C-171.63173896 88.4600157 -166.03118114 85.82655906 -158.25 85.4375 C-149.20731132 85.78422886 -142.9262703 89.37901852 -136.71875 95.77734375 C-134.23474605 99.04673131 -133.125 101.76559592 -133.125 105.875 C-131.15466797 105.85759766 -131.15466797 105.85759766 -129.14453125 105.83984375 C-127.40885559 105.83046172 -125.67317839 105.82136196 -123.9375 105.8125 C-123.07318359 105.80412109 -122.20886719 105.79574219 -121.31835938 105.78710938 C-117.12213231 105.77103188 -113.21563114 105.79940962 -109.125 106.875 C-108.35808101 99.03106907 -108.04903661 91.90897203 -113.25 85.53515625 C-116.43862103 82.06901541 -119.84589819 78.83723235 -123.29443359 75.63183594 C-125.76737154 73.25850152 -127.87067176 70.74848992 -130 68.0625 C-130.59554687 67.31355469 -131.19109375 66.56460938 -131.8046875 65.79296875 C-135.69176334 60.14635859 -134.16696151 53.25701424 -133.125 46.875 C-133.95837891 46.54628906 -133.95837891 46.54628906 -134.80859375 46.2109375 C-138.43522921 44.11935347 -140.85179514 41.00183845 -143.61254883 37.89770508 C-144.09876709 37.35267334 -144.58498535 36.8076416 -145.0859375 36.24609375 C-145.5819043 35.68905762 -146.07787109 35.13202148 -146.58886719 34.55810547 C-148.11739894 32.8833283 -149.69054731 31.26805124 -151.2890625 29.66015625 C-151.7955835 29.14050293 -152.30210449 28.62084961 -152.82397461 28.08544922 C-154.24170894 26.63492818 -155.67325187 25.19794183 -157.10546875 23.76171875 C-159.61085266 20.18052203 -159.69759834 18.1592626 -159.125 13.875 C-156.9375 11.8125 -156.9375 11.8125 -154.125 10.875 C-147.62318995 11.90160159 -142.97601181 18.86301518 -138.875 23.5625 C-138.29878906 24.21605469 -137.72257812 24.86960937 -137.12890625 25.54296875 C-135.57289223 27.35376869 -134.07768614 29.18531949 -132.58984375 31.05078125 C-127.96248349 37.09808851 -127.96248349 37.09808851 -121.4765625 40.5 C-118.94217256 40.40552608 -118.94217256 40.40552608 -116.45703125 40.07421875 C-112.23476091 39.71352229 -109.40504067 41.34086879 -106.125 43.875 C-105.52002686 44.74406982 -104.91505371 45.61313965 -104.29174805 46.50854492 C-101.42436718 50.58095507 -98.83480707 54.1014672 -93.940979 55.4984436 C-88.58090415 56.28486516 -83.2247323 56.17981167 -77.82299805 55.97949219 C-74.9595805 55.8757996 -72.10535018 55.85649088 -69.24023438 55.8515625 C-58.00614033 55.71421835 -48.51876868 54.25089873 -38.125 49.875 C-38.69822998 49.42995117 -39.27145996 48.98490234 -39.86206055 48.52636719 C-46.29113761 43.45172395 -49.4736767 37.86925672 -51.125 29.875 C-51.9660679 20.5100324 -50.10856493 12.27572505 -44.125 4.875 C-31.56870298 -8.07833408 -15.40969229 -10.47859076 0 0 Z M-35.5 12.1875 C-39.37819347 18.60143535 -39.76276963 24.69492299 -38.125 31.875 C-35.4168003 37.09795657 -31.93892532 40.39398668 -26.75 43.125 C-20.58773894 44.88564602 -15.83523161 43.86363846 -10.20703125 41.140625 C-6.01825837 38.59435406 -3.81843195 35.42696676 -1.8125 30.9375 C-0.34741295 24.41120315 -0.95110984 19.78500236 -4.125 13.875 C-7.83512958 9.46295401 -11.60492031 6.36012023 -17.44921875 5.5546875 C-24.8402799 5.21512879 -30.18505614 7.01242309 -35.5 12.1875 Z M-122.125 54.875 C-121.7980244 57.49080479 -121.30460932 59.51578137 -120.125 61.875 C-119.465 61.875 -118.805 61.875 -118.125 61.875 C-117.87105469 62.45765625 -117.61710937 63.0403125 -117.35546875 63.640625 C-115.99179667 66.11688033 -114.48274797 67.68020626 -112.4375 69.625 C-108.98721131 72.98136069 -105.79538826 76.46788036 -102.6640625 80.12109375 C-101.03924225 82.01895798 -101.03924225 82.01895798 -98.75 84.1875 C-97.125 85.875 -97.125 85.875 -96.125 88.875 C-90.70001373 94.70584559 -84.47721405 99.51766032 -76.4140625 100.1796875 C-71.64469626 100.07972742 -67.80783889 98.48785605 -63.5 96.5625 C-62.77554688 96.25376953 -62.05109375 95.94503906 -61.3046875 95.62695312 C-58.06724114 94.2340301 -54.91401783 92.76729582 -51.7734375 91.1640625 C-48.92201923 89.77620405 -47.25122384 89.44080224 -44.125 89.875 C-41.65281178 92.34718822 -41.85967599 93.10062875 -41.80615234 96.50830078 C-41.78628265 97.46914581 -41.76641296 98.42999084 -41.74594116 99.41995239 C-41.73438995 100.45957123 -41.72283875 101.49919006 -41.7109375 102.5703125 C-41.69157135 103.63289276 -41.6722052 104.69547302 -41.6522522 105.79025269 C-41.59233916 109.19341943 -41.54602402 112.59661978 -41.5 116 C-41.46183103 118.3034004 -41.42277995 120.60678636 -41.3828125 122.91015625 C-41.28662813 128.56497628 -41.20161519 134.21988283 -41.125 139.875 C-39.145 139.875 -37.165 139.875 -35.125 139.875 C-35.12242187 139.23433594 -35.11984375 138.59367187 -35.1171875 137.93359375 C-35.07851562 137.06863281 -35.03984375 136.20367187 -35 135.3125 C-34.97679687 134.46558594 -34.95359375 133.61867188 -34.9296875 132.74609375 C-33.40274458 127.2980207 -30.17495345 124.09503837 -25.35400391 121.22583008 C-22.10376435 119.58253279 -18.82245931 118.05417754 -15.5 116.5625 C-14.36820312 116.03849609 -13.23640625 115.51449219 -12.0703125 114.97460938 C-9.97679551 114.0059857 -7.87997579 113.04444403 -5.77880859 112.0925293 C-4.46517334 111.48985229 -4.46517334 111.48985229 -3.125 110.875 C-2.35961914 110.56143555 -1.59423828 110.24787109 -0.80566406 109.92480469 C-0.25104492 109.57836914 0.30357422 109.23193359 0.875 108.875 C1.29008992 106.27918406 1.48042451 104.03859271 1.5 101.4375 C1.63631938 94.23302093 1.63631938 94.23302093 3.875 90.875 C6.875 90.5 6.875 90.5 9.875 90.875 C12.72299817 95.14699725 12.20518316 98.85298285 12.1875 103.875 C12.20361328 104.79023438 12.21972656 105.70546875 12.23632812 106.6484375 C12.23697266 107.52757812 12.23761719 108.40671875 12.23828125 109.3125 C12.24126221 110.11558594 12.24424316 110.91867188 12.24731445 111.74609375 C11.78055874 114.41501824 10.98040734 115.21592557 8.875 116.875 C6.47358777 118.1704987 4.0826904 119.38514232 1.625 120.5625 C0.19079713 121.26829485 -1.2427809 121.97536058 -2.67578125 122.68359375 C-3.40877441 123.04437012 -4.14176758 123.40514648 -4.89697266 123.77685547 C-8.46505503 125.53548296 -12.0235012 127.30848075 -15.5625 129.125 C-16.20670898 129.44170654 -16.85091797 129.75841309 -17.51464844 130.0847168 C-20.98307841 131.85213116 -20.98307841 131.85213116 -23.09375 134.99609375 C-23.27454444 136.9368688 -23.27454444 136.9368688 -22.1875 138.6875 C-18.88981097 140.58616944 -15.67178668 139.72767725 -12.125 138.875 C-8.96974399 137.58541168 -6.03375588 135.97728757 -3.0625 134.3125 C-2.24483154 133.86793457 -1.42716309 133.42336914 -0.5847168 132.96533203 C1.08910656 132.05487874 2.76027144 131.13952056 4.42871094 130.21923828 C7.40289932 128.5849188 10.39660785 126.98946237 13.39501953 125.40014648 C16.22520437 123.89834419 19.04997694 122.38648489 21.875 120.875 C21.97487254 116.35845625 22.0469343 111.84252011 22.09472656 107.32519531 C22.11467724 105.79285466 22.14184816 104.26058848 22.17675781 102.72851562 C22.44434708 90.67125786 21.54830879 80.87947236 12.9453125 71.69921875 C5.83925831 65.43784647 -0.86229562 62.72366507 -10.23046875 62.671875 C-11.02850418 62.66617493 -11.82653961 62.66047485 -12.64875793 62.65460205 C-14.33914874 62.64515755 -16.02955791 62.63862025 -17.7199707 62.63476562 C-20.28565395 62.62510112 -22.85052173 62.5940905 -25.41601562 62.5625 C-27.06249527 62.55596528 -28.70898062 62.55071665 -30.35546875 62.546875 C-31.11409714 62.5345282 -31.87272552 62.5221814 -32.65434265 62.50946045 C-46.83262121 62.56771034 -57.24738259 72.26592002 -67.55078125 80.91015625 C-75.11070385 87.09785761 -75.11070385 87.09785761 -80.125 86.875 C-85.13188777 85.27705709 -87.73355116 82.3197386 -90.98828125 78.4140625 C-93.72628971 75.16048755 -96.5698606 72.01428352 -99.4375 68.875 C-99.96553223 68.2867041 -100.49356445 67.6984082 -101.03759766 67.09228516 C-102.35868787 65.6475692 -103.7375617 64.25612219 -105.125 62.875 C-105.785 62.875 -106.445 62.875 -107.125 62.875 C-107.33125 62.33875 -107.5375 61.8025 -107.75 61.25 C-109.68906294 57.90070947 -112.03212196 55.21555635 -115.125 52.875 C-118.70900023 52.22336359 -119.52878728 52.27878728 -122.125 54.875 Z M-84.125 68.875 C-82.475 70.855 -80.825 72.835 -79.125 74.875 C-75.59127288 72.91181826 -72.88020215 70.83429119 -70.125 67.875 C-72.92657448 66.94114184 -74.77947803 66.71145405 -77.6875 66.6875 C-78.47253906 66.67332031 -79.25757813 66.65914063 -80.06640625 66.64453125 C-82.3493545 66.68332491 -82.3493545 66.68332491 -84.125 68.875 Z M-169.9375 102.5 C-172.46954202 107.56408405 -173.89945565 112.57952402 -172.1875 118.125 C-170.2092856 122.4254661 -167.51877684 125.0846386 -163.125 126.875 C-158.05230982 127.8683679 -153.63691798 127.64060018 -149.1875 124.875 C-145.59955239 121.8482006 -143.78169315 118.52172751 -143.125 113.875 C-143.3278771 109.01406456 -144.42182029 105.76822828 -147.4375 101.9375 C-154.63323027 96.41519537 -162.88964841 96.1812365 -169.9375 102.5 Z M89.5625 103.4375 C86.46341776 107.91395213 86.23285258 111.51171242 86.875 116.875 C89.2380864 121.69206073 92.05793927 124.5119136 96.875 126.875 C101.56144179 127.69954452 104.90366591 127.35150352 109.1875 125.25 C112.71210435 122.13523336 115.41548449 119.48673611 116.2578125 114.69921875 C116.53077548 109.28545291 115.48483749 106.08647707 111.875 101.875 C108.57240076 98.97271582 105.99342552 97.95940947 101.5625 97.625 C96.21069763 97.98783406 93.15550637 99.45606051 89.5625 103.4375 Z M25.875 67.875 C26.308125 68.865 26.74125 69.855 27.1875 70.875 C28.327325 73.54899704 29.44113208 76.23034508 30.5 78.9375 C30.73976562 79.54722656 30.97953125 80.15695313 31.2265625 80.78515625 C32.92391218 86.25553021 33.05856766 91.7418264 33.11328125 97.4140625 C33.121353 98.21733978 33.12942474 99.02061707 33.13774109 99.84823608 C33.15150586 101.53747443 33.16226165 103.22673969 33.17016602 104.91601562 C33.18174658 106.64233557 33.20229299 108.36861807 33.23168945 110.09472656 C33.27425425 112.59725099 33.29051172 115.09872168 33.30078125 117.6015625 C33.32704338 118.75635605 33.32704338 118.75635605 33.35383606 119.93447876 C33.34069761 123.17286893 33.21794742 125.37617743 31.35864258 128.08056641 C13.19166997 141.20621751 -8.54943173 153.1437515 -31.375 152.4375 C-32.45433807 152.40783142 -32.45433807 152.40783142 -33.55548096 152.37756348 C-39.0689365 152.15997932 -44.02808414 151.95378708 -48.98608398 149.40307617 C-52.2067407 145.59644447 -51.85324901 142.14213227 -51.83203125 137.296875 C-51.84715256 136.3703009 -51.86227386 135.44372681 -51.87785339 134.48907471 C-51.92078804 131.5341367 -51.92957394 128.58021907 -51.9375 125.625 C-51.96063982 123.61976443 -51.98600408 121.61455321 -52.01367188 119.609375 C-52.0765813 114.69782624 -52.10887151 109.78691619 -52.125 104.875 C-56.13499544 105.61181447 -59.50111284 106.82096512 -63.25 108.4375 C-72.88173982 112.16871452 -80.06106694 111.76557691 -89.6171875 108.04296875 C-92.24316322 106.8199676 -94.65259001 105.3806508 -97.125 103.875 C-97.29301189 110.38931814 -97.45294171 116.90379826 -97.60717773 123.41845703 C-97.66064069 125.63595096 -97.71597328 127.85340062 -97.77319336 130.07080078 C-97.85498452 133.25283255 -97.9301129 136.43496149 -98.00390625 139.6171875 C-98.03094131 140.61305878 -98.05797638 141.60893005 -98.08583069 142.63497925 C-98.10592697 143.55578278 -98.12602325 144.4765863 -98.14672852 145.42529297 C-98.16671402 146.2380368 -98.18669952 147.05078064 -98.20729065 147.88815308 C-98.25779554 149.95092317 -98.25779554 149.95092317 -97.125 151.875 C-96.25842522 151.87713753 -96.25842522 151.87713753 -95.37434387 151.87931824 C-89.35544498 151.8990213 -83.33755942 151.95330753 -77.3190918 152.02758789 C-75.07372307 152.05076945 -72.82824558 152.06516395 -70.58276367 152.07055664 C-67.35266327 152.0798447 -64.12427391 152.12083423 -60.89453125 152.16796875 C-59.89227005 152.1640361 -58.89000885 152.16010345 -57.8573761 152.15605164 C-50.7376527 152.30473733 -50.7376527 152.30473733 -47.4362793 155.37768555 C-46.67355713 156.20179932 -45.91083496 157.02591309 -45.125 157.875 C-42.33215648 158.37561116 -40.15872951 158.57918481 -37.375 158.5390625 C-36.63926758 158.54384613 -35.90353516 158.54862976 -35.14550781 158.55355835 C-33.59568127 158.5569488 -32.04578239 158.54780592 -30.49609375 158.52685547 C-28.13118214 158.50007002 -25.77101498 158.52662417 -23.40625 158.55859375 C-21.89582292 158.55528949 -20.38539877 158.5488829 -18.875 158.5390625 C-18.1727832 158.54918365 -17.47056641 158.55930481 -16.74707031 158.56973267 C-14.45367655 158.56667644 -14.45367655 158.56667644 -11.125 157.875 C-10.36227783 157.05088623 -9.59955566 156.22677246 -8.8137207 155.37768555 C-4.71769548 151.56506823 -0.763685 152.14674812 4.64453125 152.16796875 C5.68067062 152.15284744 6.71681 152.13772614 7.78434753 152.12214661 C11.08561931 152.07924465 14.38597713 152.07042884 17.6875 152.0625 C19.9290608 152.03935776 22.17059983 152.013993 24.41210938 151.98632812 C29.89974823 151.92345133 35.38702957 151.88853684 40.875 151.875 C40.89813598 141.21807375 40.91592152 130.56115345 40.92681217 119.90420723 C40.93203824 114.95614868 40.93913091 110.00810727 40.95043945 105.06005859 C40.9612781 100.28793036 40.96727892 95.51581864 40.96987724 90.74367905 C40.97172972 88.91995865 40.97534696 87.09623918 40.98073006 85.27252579 C40.98795343 82.72479525 40.98899039 80.17713361 40.98852539 77.62939453 C40.99212067 76.86982452 40.99571594 76.11025452 40.99942017 75.32766724 C41.06343595 71.47426406 41.06343595 71.47426406 39.875 67.875 C35.255 67.875 30.635 67.875 25.875 67.875 Z M-110.125 163.875 C-110.29177282 167.29156024 -110.29177282 167.29156024 -110.125 170.875 C-108.27212349 173.15442689 -108.27212349 173.15442689 -105.40132904 173.12388897 C-103.64920986 173.12307182 -103.64920986 173.12307182 -101.86169434 173.12223816 C-101.21211179 173.12465257 -100.56252925 173.12706699 -99.89326239 173.12955457 C-97.70673552 173.13521076 -95.52049833 173.1265142 -93.33398438 173.11791992 C-91.77045106 173.11899233 -90.20691812 173.1209304 -88.64338684 173.12367249 C-84.38933538 173.12853057 -80.13538839 173.12085317 -75.88134956 173.11071944 C-71.43664793 173.10195441 -66.99194972 173.10369609 -62.54724121 173.1040802 C-55.08209478 173.10314284 -47.61698893 173.09444927 -40.15185547 173.08081055 C-31.51199684 173.06508427 -22.87218268 173.0598124 -14.23231077 173.0605461 C-5.93280639 173.06115579 2.36668345 173.05605571 10.66618347 173.04775429 C14.20362969 173.0442171 17.74107077 173.04239042 21.27851868 173.04186058 C25.44154306 173.04085833 29.60452989 173.03477136 33.76754189 173.02469444 C35.2986306 173.02176586 36.82972364 173.0205448 38.36081505 173.02112198 C40.44448181 173.02161035 42.52804233 173.01597995 44.61169434 173.00871277 C45.77977379 173.00703692 46.94785324 173.00536108 48.15132904 173.00363445 C50.8407896 173.06065536 50.8407896 173.06065536 52.875 171.875 C53.96259087 167.78107154 53.96259087 167.78107154 52.875 163.875 C45.13388556 163.74821902 37.39303884 163.66065588 29.65112305 163.6003418 C27.01755773 163.57519843 24.38406218 163.54107916 21.75073242 163.49780273 C17.96515691 163.4371479 14.18050402 163.4087873 10.39453125 163.38671875 C9.21727982 163.36091232 8.04002838 163.3351059 6.82710266 163.30851746 C0.39525398 163.0890439 0.39525398 163.0890439 -4.80004883 166.36401367 C-5.56728271 167.19263916 -6.3345166 168.02126465 -7.125 168.875 C-10.35535722 169.63672001 -13.53719143 169.57628517 -16.84375 169.5390625 C-17.77924683 169.54384613 -18.71474365 169.54862976 -19.67858887 169.55355835 C-21.65211676 169.5569536 -23.62570118 169.54777739 -25.59912109 169.52685547 C-28.61553656 169.50008399 -31.62823117 169.52661536 -34.64453125 169.55859375 C-36.56511236 169.55528958 -38.48569116 169.54888321 -40.40625 169.5390625 C-41.75487122 169.55424423 -41.75487122 169.55424423 -43.1307373 169.56973267 C-45.56413761 169.52431175 -47.75515179 169.43381151 -50.125 168.875 C-50.89223389 168.04637451 -51.65946777 167.21774902 -52.44995117 166.36401367 C-56.84258328 162.27686533 -61.87596709 163.26026655 -67.64453125 163.38671875 C-68.85823898 163.39379349 -70.07194672 163.40086823 -71.32243347 163.40815735 C-75.19475212 163.43612111 -79.06561917 163.49886909 -82.9375 163.5625 C-85.56443223 163.58758004 -88.19138714 163.61039371 -90.81835938 163.63085938 C-97.2544006 163.6859547 -103.68959659 163.76960345 -110.125 163.875 Z M-145 208.0625 C-146.59368281 212.04670704 -147.60606302 215.55979293 -147.125 219.875 C-144.78542909 224.6450792 -141.169319 228.99804409 -136.125 230.875 C-131.34828601 231.57641339 -128.07576664 231.36799011 -123.75 229.125 C-119.38186482 225.38088413 -117.43175124 222.4823855 -116.75 216.6875 C-117.32890144 210.80200205 -119.98918009 206.77350659 -124.375 202.875 C-132.27190289 200.00339895 -139.46332163 201.6030419 -145 208.0625 Z M63.625 207.4375 C60.43381085 211.8823706 60.23101598 215.49637293 60.875 220.875 C63.2380864 225.69206073 66.05793927 228.5119136 70.875 230.875 C75.64523745 231.71428774 78.93278817 231.36355428 83.25 229.125 C87.89404037 225.14439397 89.52241158 222.37146106 89.99609375 216.25390625 C89.7867113 212.14055422 88.40466481 209.09523423 85.875 205.875 C82.54098495 202.88617338 79.20418775 201.6476032 74.75 201.4375 C69.41966087 202.03931248 67.12928145 203.44651279 63.625 207.4375 Z M-40.4375 250.5625 C-42.77227548 255.1455778 -44.03932075 259.01966312 -42.42578125 264.05859375 C-40.65231961 267.87889649 -38.9146978 270.79677863 -35.125 272.875 C-30.33606036 274.47131321 -25.95486662 274.70675756 -21.375 272.625 C-17.94900569 269.96033776 -15.51851095 268.05553286 -14.125 263.875 C-13.58643067 259.23977214 -13.67321981 255.79593654 -15.75 251.5625 C-18.75277568 248.16462226 -21.45100352 245.35097137 -26.078125 244.52734375 C-32.16092058 244.26035081 -36.39546405 245.86499876 -40.4375 250.5625 Z " fill="#F5F8F9" transform="translate(209.125,38.125)"/>
<path d="M0 0 C2.22536474 1.28836906 3.78354369 2.3647394 5.375 4.375 C5.375 5.035 5.375 5.695 5.375 6.375 C4.818125 6.230625 4.26125 6.08625 3.6875 5.9375 C1.26115805 5.34730872 -1.17406345 4.851571 -3.625 4.375 C-3.955 5.365 -4.285 6.355 -4.625 7.375 C-3.965 7.705 -3.305 8.035 -2.625 8.375 C-2.625 9.365 -2.625 10.355 -2.625 11.375 C-2.068125 11.601875 -1.51125 11.82875 -0.9375 12.0625 C4.20091917 14.97890007 7.64557021 19.89968425 11.375 24.375 C12.179375 25.15875 12.98375 25.9425 13.8125 26.75 C17.02387889 30.0397052 20.18653471 33.29877457 22.375 37.375 C21.6875 39.875 21.6875 39.875 20.375 42.375 C20.21188908 46.64163829 20.69729793 49.55354294 23.4375 52.875 C24.076875 53.37 24.71625 53.865 25.375 54.375 C25.705 51.405 26.035 48.435 26.375 45.375 C27.035 45.375 27.695 45.375 28.375 45.375 C28.375 46.035 28.375 46.695 28.375 47.375 C29.365 47.705 30.355 48.035 31.375 48.375 C31.375 49.035 31.375 49.695 31.375 50.375 C32.035 50.375 32.695 50.375 33.375 50.375 C34.609375 51.59765625 34.609375 51.59765625 36.125 53.4375 C38.63760611 56.41520553 41.22247315 59.29012003 43.9140625 62.10546875 C44.54344727 62.76603271 45.17283203 63.42659668 45.82128906 64.10717773 C47.09649048 65.44129669 48.37702057 66.77034468 49.66308594 68.09399414 C50.55302246 69.02973267 50.55302246 69.02973267 51.4609375 69.984375 C51.9976709 70.54092773 52.5344043 71.09748047 53.08740234 71.67089844 C54.52092523 73.56812819 54.84026975 75.08764316 55.375 77.375 C57.23826766 78.49433218 57.23826766 78.49433218 59.375 79.375 C60.52848885 80.32043949 61.65378906 81.3012068 62.75 82.3125 C65.7412998 84.9549225 68.69864951 86.76099247 72.375 88.375 C71.88 90.355 71.88 90.355 71.375 92.375 C70.715 92.375 70.055 92.375 69.375 92.375 C68.941875 91.900625 68.50875 91.42625 68.0625 90.9375 C66.43754501 89.137247 66.43754501 89.137247 63.8125 89 C62.6059375 88.690625 62.6059375 88.690625 61.375 88.375 C60.25 85.875 60.25 85.875 59.375 83.375 C57.89 82.88 57.89 82.88 56.375 82.375 C56.375 81.715 56.375 81.055 56.375 80.375 C55.715 80.375 55.055 80.375 54.375 80.375 C52.6484375 78.625 52.6484375 78.625 50.75 76.375 C50.11835937 75.6325 49.48671875 74.89 48.8359375 74.125 C48.35382813 73.5475 47.87171875 72.97 47.375 72.375 C45.725 73.695 44.075 75.015 42.375 76.375 C38.13681249 75.01166695 36.00082891 73.24078494 33.125 69.875 C32.35542969 68.98425781 31.58585937 68.09351562 30.79296875 67.17578125 C29.99503906 66.25152344 29.19710937 65.32726562 28.375 64.375 C25.9962619 61.81129004 23.6141726 59.25101309 21.22265625 56.69921875 C17.53847669 52.06478569 17.07361671 48.20174351 17.375 42.375 C17.67192012 40.03675408 17.99520847 37.70122311 18.375 35.375 C17.81941406 35.15585938 17.26382813 34.93671875 16.69140625 34.7109375 C13.06477079 32.61935347 10.64820486 29.50183845 7.88745117 26.39770508 C7.40123291 25.85267334 6.91501465 25.3076416 6.4140625 24.74609375 C5.9180957 24.18905762 5.42212891 23.63202148 4.91113281 23.05810547 C3.38260106 21.3833283 1.80945269 19.76805124 0.2109375 18.16015625 C-0.2955835 17.64050293 -0.80210449 17.12084961 -1.32397461 16.58544922 C-2.74170894 15.13492818 -4.17325187 13.69794183 -5.60546875 12.26171875 C-8.11085266 8.68052203 -8.19759834 6.6592626 -7.625 2.375 C-4.90604124 -0.18858969 -3.67521481 -0.87505115 0 0 Z " fill="#F3F6F7" transform="translate(57.625,49.625)"/>
<path d="M0 0 C1.875 1.875 1.875 1.875 1.875 3.875 C2.535 3.875 3.195 3.875 3.875 3.875 C4.74691947 5.25981328 5.59690384 6.65845246 6.4375 8.0625 C6.91316406 8.83980469 7.38882813 9.61710937 7.87890625 10.41796875 C9.07105797 13.35860967 8.76355164 14.87946363 7.875 17.875 C7.38 16.39 7.38 16.39 6.875 14.875 C6.38 14.400625 5.885 13.92625 5.375 13.4375 C3.63314029 11.62306281 3.29644987 10.31940923 2.875 7.875 C2.215 7.875 1.555 7.875 0.875 7.875 C0.153125 6.946875 -0.56875 6.01875 -1.3125 5.0625 C-4.83612795 0.64232766 -9.67542994 -1.03508599 -15.125 -2.125 C-15.125 -2.785 -15.125 -3.445 -15.125 -4.125 C-25.92107243 -3.21310994 -25.92107243 -3.21310994 -35.125 1.875 C-35.785 1.875 -36.445 1.875 -37.125 1.875 C-37.125 2.535 -37.125 3.195 -37.125 3.875 C-38.135625 4.555625 -39.14625 5.23625 -40.1875 5.9375 C-41.912914 7.16810157 -41.912914 7.16810157 -43.125 8.875 C-43.3614885 12.00715876 -42.85418374 14.8323151 -42.125 17.875 C-42.00640625 17.26527344 -41.8878125 16.65554687 -41.765625 16.02734375 C-40.79365747 12.7617699 -38.58968994 11.1716429 -36.125 8.875 C-35.3 7.946875 -34.475 7.01875 -33.625 6.0625 C-31.125 3.875 -31.125 3.875 -28.3125 3.5625 C-27.590625 3.665625 -26.86875 3.76875 -26.125 3.875 C-27.24935745 7.02320086 -28.172578 7.90536893 -31.0625 9.75 C-35.23220119 12.64326205 -36.56220623 15.27480555 -37.62890625 20.203125 C-38.46221031 25.92222237 -38.44297482 30.9610373 -35.125 35.875 C-32.63033259 38.17323691 -29.99574476 40.07481801 -27.125 41.875 C-27.455 42.865 -27.785 43.855 -28.125 44.875 C-31.56255988 43.63365893 -34.47380683 42.4315077 -37.125 39.875 C-37.875 37.1875 -37.875 37.1875 -38.125 34.875 C-40.105 35.535 -42.085 36.195 -44.125 36.875 C-43.4134375 37.49375 -43.4134375 37.49375 -42.6875 38.125 C-40.93764784 40.08483441 -40.69288417 41.36008441 -40.125 43.875 C-39.465 44.535 -38.805 45.195 -38.125 45.875 C-38.455 46.535 -38.785 47.195 -39.125 47.875 C-43.85387594 46.01722731 -46.12665055 42.99478308 -48.265625 38.453125 C-51.82421348 29.58171427 -52.46031236 21.8966209 -49.0234375 12.89453125 C-45.63856695 5.28593092 -39.10880446 -1.64404249 -31.4375 -5.125 C-20.38717695 -8.49964955 -9.36553529 -6.368564 0 0 Z " fill="#F2F5F6" transform="translate(209.125,38.125)"/>
<path d="M0 0 C2 0 4 0 6 0 C9.92481237 3.92481237 10.31360935 7.11806043 10.4375 12.625 C10.43211016 17.24948572 10.03774631 19.51332566 7 23 C6.401875 24.155 5.80375 25.31 5.1875 26.5 C3.17244615 30.16943658 0.51846946 31.76097398 -3 34 C-3 34.99 -3 35.98 -3 37 C-4.9375 37.5625 -4.9375 37.5625 -7 38 C-7.495 37.505 -7.495 37.505 -8 37 C-9.70547359 36.8406651 -11.41489693 36.72285331 -13.125 36.625 C-21.69581535 35.90336399 -27.35773995 32.94578172 -33.25 26.5625 C-35.044517 23.93481439 -35.64214583 22.13122401 -36 19 C-34.35 17.68 -32.7 16.36 -31 15 C-28 21.625 -28 21.625 -28 25 C-27.278125 25.28875 -26.55625 25.5775 -25.8125 25.875 C-24.05226294 26.57909482 -22.30040277 27.30495264 -20.5625 28.0625 C-17.72285406 29.10139486 -14.98906375 29.58292134 -12 30 C-12.33 29.01 -12.66 28.02 -13 27 C-11.7625 26.608125 -10.525 26.21625 -9.25 25.8125 C-5.23515871 24.27051671 -3.11374182 22.88928494 -1 19 C-0.55981399 16.68494766 -0.31624908 14.43777028 -0.17578125 12.0859375 C0 10 0 10 1 7 C1.66 7 2.32 7 3 7 C2.690625 6.401875 2.38125 5.80375 2.0625 5.1875 C1 3 1 3 0 0 Z " fill="#F5F9FA" transform="translate(298,242)"/>
<path d="M0 0 C0.6953125 1.73828125 0.6953125 1.73828125 1 4 C-0.2578125 6.10546875 -0.2578125 6.10546875 -2.125 8.1875 C-2.72570312 8.88230469 -3.32640625 9.57710938 -3.9453125 10.29296875 C-6.31091539 12.25830804 -7.97995963 12.64992612 -11 13 C-11.33 14.98 -11.66 16.96 -12 19 C-5.93475402 17.73640709 -1.49794875 15.30833967 3 11 C4.54451195 8.32852264 4.54451195 8.32852264 5 6 C5.99 6.33 6.98 6.66 8 7 C6.3637407 12.99961744 2.03041235 17.048209 -3.07421875 20.3359375 C-10.05752073 23.87146921 -17.63627834 24.27788154 -25.125 22 C-30.18990783 19.77689346 -34.46898683 16.22488038 -38 12 C-38.98346648 9.40988036 -39.0585765 7.81167181 -39 5 C-38.34 5 -37.68 5 -37 5 C-36.7525 5.598125 -36.505 6.19625 -36.25 6.8125 C-34.83629988 9.28647521 -33.34944617 10.43370255 -31 12 C-30.01879536 8.94736336 -30.01879536 7.05263664 -31 4 C-27.11438576 4.57564655 -24.95386643 6.51253354 -22 9 C-18.52401505 10.73799248 -14.8006247 10.45581817 -11 10 C-6.1331961 7.56659805 -3.26537917 4.22578481 0 0 Z " fill="#F5F9FA" transform="translate(93,258)"/>
<path d="M0 0 C0.99 0.33 1.98 0.66 3 1 C2.01 1.495 2.01 1.495 1 2 C1 6.95 1 11.9 1 17 C2.32 16.67 3.64 16.34 5 16 C5.66 16.33 6.32 16.66 7 17 C7 16.34 7 15.68 7 15 C10 16 10 16 11.375 18.375 C13.35568135 21.57456217 14.50328031 22.58643246 18 24 C22.95445122 24.67937291 26.82922714 24.5108827 31.4375 22.5 C36.65900406 17.4058497 37.37322493 11.01988075 38 4 C38.66 4 39.32 4 40 4 C41.48212391 7.45828912 42.15835009 9.35340379 41.25 13.0625 C40.63125 14.5165625 40.63125 14.5165625 40 16 C39.731875 16.86625 39.46375 17.7325 39.1875 18.625 C37.66533479 21.66933043 35.79830188 23.11114623 33 25 C32.34 25 31.68 25 31 25 C31 25.66 31 26.32 31 27 C26.36901402 28.15774649 20.38436379 29.19218189 16 27 C15.67 28.65 15.34 30.3 15 32 C18.00313748 33.50156874 20.79067522 33.09281204 24.125 33.0625 C25.40632813 33.05347656 26.68765625 33.04445312 28.0078125 33.03515625 C29.48894531 33.01775391 29.48894531 33.01775391 31 33 C31 33.99 31 34.98 31 36 C26.13723181 38.4313841 18.67766831 37.7933832 13.57421875 36.28125 C7.57428629 33.39196214 1.8362921 29.21066871 -1.3125 23.21484375 C-3.63806719 15.72281763 -2.30077327 7.33371478 0 0 Z " fill="#F0F4F4" transform="translate(28,140)"/>
<path d="M0 0 C2.23901367 0.18164062 2.23901367 0.18164062 4.67651367 2.86914062 C5.08901367 3.42085937 5.50151367 3.97257813 5.92651367 4.54101562 C7.36695699 6.4548079 7.36695699 6.4548079 10.17651367 8.61914062 C13.11174167 11.07514772 15.42795433 13.59076397 17.84448242 16.53320312 C19.21023533 18.23132516 19.21023533 18.23132516 20.93432617 19.66210938 C21.36487305 20.16355469 21.79541992 20.665 22.23901367 21.18164062 C21.92651367 24.86914062 21.92651367 24.86914062 21.23901367 28.18164062 C20.57901367 28.18164062 19.91901367 28.18164062 19.23901367 28.18164062 C18.85920764 37.40952063 18.8934878 44.21731191 24.17651367 52.05664062 C26.17423768 54.11490173 27.62815929 55.08676621 30.23901367 56.18164062 C31.22901367 56.84164062 32.21901367 57.50164062 33.23901367 58.18164062 C36.24679888 59.18423569 38.77722014 59.48478704 41.92651367 59.74414062 C42.92038086 59.82792969 43.91424805 59.91171875 44.93823242 59.99804688 C46.07711914 60.08892578 46.07711914 60.08892578 47.23901367 60.18164062 C47.23901367 61.17164063 47.23901367 62.16164063 47.23901367 63.18164062 C37.96876305 63.64174498 31.44442512 62.96726461 24.05151367 57.11914062 C18.89207422 52.24464063 15.72140868 47.04080067 14.83276367 39.93164062 C14.64575526 33.1993379 15.71684008 28.36633226 18.23901367 22.18164062 C13.23186115 14.61112115 7.55021514 7.34778994 -1.65942383 5.32568359 C-10.95245124 4.20154652 -20.44085163 4.61863394 -29.76098633 5.18164062 C-30.09098633 3.86164063 -30.42098633 2.54164063 -30.76098633 1.18164062 C-26.19853919 1.01350575 -21.63602077 0.84738807 -17.07348633 0.68164062 C-15.77991211 0.63394531 -14.48633789 0.58625 -13.15356445 0.53710938 C-11.2828125 0.46943359 -11.2828125 0.46943359 -9.37426758 0.40039062 C-7.65397339 0.33754883 -7.65397339 0.33754883 -5.89892578 0.2734375 C-3.93134758 0.21587822 -1.96417395 0.12921969 0 0 Z " fill="#E9EBEC" transform="translate(242.760986328125,217.818359375)"/>
<path d="M0 0 C1.875 1.875 1.875 1.875 1.875 3.875 C2.535 3.875 3.195 3.875 3.875 3.875 C4.74691947 5.25981328 5.59690384 6.65845246 6.4375 8.0625 C6.91316406 8.83980469 7.38882813 9.61710937 7.87890625 10.41796875 C9.07105797 13.35860967 8.76355164 14.87946363 7.875 17.875 C7.38 16.39 7.38 16.39 6.875 14.875 C6.38 14.400625 5.885 13.92625 5.375 13.4375 C3.63314029 11.62306281 3.29644987 10.31940923 2.875 7.875 C2.215 7.875 1.555 7.875 0.875 7.875 C0.153125 6.946875 -0.56875 6.01875 -1.3125 5.0625 C-4.83612795 0.64232766 -9.67542994 -1.03508599 -15.125 -2.125 C-15.125 -2.785 -15.125 -3.445 -15.125 -4.125 C-25.92107243 -3.21310994 -25.92107243 -3.21310994 -35.125 1.875 C-35.785 1.875 -36.445 1.875 -37.125 1.875 C-37.125 2.535 -37.125 3.195 -37.125 3.875 C-38.48625 4.926875 -38.48625 4.926875 -39.875 6 C-43.62717631 8.96084055 -45.29580112 12.53872266 -47.125 16.875 C-47.785 16.215 -48.445 15.555 -49.125 14.875 C-48.70220239 8.9558335 -43.94416726 4.51111406 -39.875 0.6875 C-28.06917324 -9.3197081 -12.59763297 -8.56639042 0 0 Z " fill="#E4E6E7" transform="translate(209.125,38.125)"/>
<path d="M0 0 C2.22536474 1.28836906 3.78354369 2.3647394 5.375 4.375 C5.375 5.035 5.375 5.695 5.375 6.375 C4.818125 6.230625 4.26125 6.08625 3.6875 5.9375 C1.26115805 5.34730872 -1.17406345 4.851571 -3.625 4.375 C-3.955 5.365 -4.285 6.355 -4.625 7.375 C-3.965 7.705 -3.305 8.035 -2.625 8.375 C-2.625 9.365 -2.625 10.355 -2.625 11.375 C-2.068125 11.601875 -1.51125 11.82875 -0.9375 12.0625 C4.20091917 14.97890007 7.64557021 19.89968425 11.375 24.375 C12.179375 25.15875 12.98375 25.9425 13.8125 26.75 C17.02573697 30.04160861 20.1785018 33.30057968 22.375 37.375 C21.6875 39.75 21.6875 39.75 20.375 42.375 C20.46345952 45.74166516 20.89628888 49.04342936 21.375 52.375 C20.715 52.045 20.055 51.715 19.375 51.375 C19.375 50.715 19.375 50.055 19.375 49.375 C18.715 49.375 18.055 49.375 17.375 49.375 C17.27735126 44.59021178 17.60387459 40.09814313 18.375 35.375 C17.81941406 35.15585938 17.26382813 34.93671875 16.69140625 34.7109375 C13.06477079 32.61935347 10.64820486 29.50183845 7.88745117 26.39770508 C7.40123291 25.85267334 6.91501465 25.3076416 6.4140625 24.74609375 C5.9180957 24.18905762 5.42212891 23.63202148 4.91113281 23.05810547 C3.38260106 21.3833283 1.80945269 19.76805124 0.2109375 18.16015625 C-0.2955835 17.64050293 -0.80210449 17.12084961 -1.32397461 16.58544922 C-2.74170894 15.13492818 -4.17325187 13.69794183 -5.60546875 12.26171875 C-8.11085266 8.68052203 -8.19759834 6.6592626 -7.625 2.375 C-4.90604124 -0.18858969 -3.67521481 -0.87505115 0 0 Z " fill="#EAEDEF" transform="translate(57.625,49.625)"/>
<path d="M0 0 C0.33 0 0.66 0 1 0 C1 27.72 1 55.44 1 84 C-15.17 84 -31.34 84 -48 84 C-48 83.67 -48 83.34 -48 83 C-32.49 82.67 -16.98 82.34 -1 82 C-1.33 80.68 -1.66 79.36 -2 78 C-2.08363974 75.16308375 -2.11621679 72.35182011 -2.09765625 69.515625 C-2.0962413 68.70003113 -2.09482635 67.88443726 -2.09336853 67.04412842 C-2.08778303 64.44604788 -2.07523321 61.84805437 -2.0625 59.25 C-2.05748312 57.48567833 -2.05292054 55.72135531 -2.04882812 53.95703125 C-2.03781835 49.63798744 -2.02056369 45.31900846 -2 41 C-1.67 41 -1.34 41 -1 41 C-1.00523682 39.79351807 -1.01047363 38.58703613 -1.01586914 37.34399414 C-1.03391611 32.88436622 -1.04543089 28.42474154 -1.05493164 23.96508789 C-1.05997256 22.03181415 -1.06680519 20.09854424 -1.07543945 18.1652832 C-1.08751565 15.39273128 -1.09323057 12.62022959 -1.09765625 9.84765625 C-1.10281754 8.97786636 -1.10797882 8.10807648 -1.11329651 7.21192932 C-1.11349185 5.14094186 -1.06208168 3.07005676 -1 1 C-0.67 0.67 -0.34 0.34 0 0 Z " fill="#EAEDEE" transform="translate(252,109)"/>
<path d="M0 0 C0.33 0 0.66 0 1 0 C1 16.5 1 33 1 50 C-11 56 -11 56 -14 57 C-15.10636395 59.39068734 -15.10636395 59.39068734 -16 62 C-16.66 62.99 -17.32 63.98 -18 65 C-18.46114506 67.79847151 -18.46114506 67.79847151 -18.625 70.875 C-18.69976562 71.90367187 -18.77453125 72.93234375 -18.8515625 73.9921875 C-18.98364193 76.66853389 -19.02965527 79.3211409 -19 82 C-19.99 81.67 -20.98 81.34 -22 81 C-24.21412797 76.57174405 -23.53372836 70.98407715 -22.28125 66.328125 C-19.38067554 58.60885425 -15.46874601 52.954042 -8 49 C-5.36 48.67 -2.72 48.34 0 48 C0 32.16 0 16.32 0 0 Z " fill="#EAEDEE" transform="translate(177,224)"/>
<path d="M0 0 C7.95524248 3.60237395 13.00250746 8.33156346 16.3125 16.5 C18.34319019 24.98724364 17.63104427 31.88540802 13.3125 39.5 C9.5598102 44.27116511 6.51283756 47.71282671 0.3125 48.5 C1 46.625 1 46.625 2.3125 44.5 C3.97916667 43.83333333 5.64583333 43.16666667 7.3125 42.5 C8.52940533 40.73470405 8.52940533 40.73470405 9.3125 38.5 C12.19711538 32.61538462 12.19711538 32.61538462 13.3125 31.5 C13.464823 29.39970014 13.53439372 27.29312861 13.5625 25.1875 C13.58828125 24.03636719 13.6140625 22.88523438 13.640625 21.69921875 C13.28050813 18.18807924 12.46939968 17.16206829 10.3125 14.5 C10.3125 13.18 10.3125 11.86 10.3125 10.5 C9.69375 10.2525 9.075 10.005 8.4375 9.75 C6.3125 8.5 6.3125 8.5 5.5 6.53125 C4.4526033 4.28326126 4.4526033 4.28326126 1.9296875 3.453125 C1.02476562 3.22109375 0.11984375 2.9890625 -0.8125 2.75 C-1.72257812 2.50765625 -2.63265625 2.2653125 -3.5703125 2.015625 C-4.26898438 1.84546875 -4.96765625 1.6753125 -5.6875 1.5 C-2.6875 -0.5 -2.6875 -0.5 0 0 Z " fill="#E9ECED" transform="translate(293.6875,229.5)"/>
<path d="M0 0 C0.99 0.33 1.98 0.66 3 1 C1.3637407 6.99961744 -2.96958765 11.048209 -8.07421875 14.3359375 C-14.57619027 17.62777946 -21.17615494 18.08120665 -28.265625 16.4921875 C-33.02878398 14.91052784 -36.33735038 12.3879509 -40 9 C-39.67 8.01 -39.34 7.02 -39 6 C-38.35675781 6.5053125 -37.71351562 7.010625 -37.05078125 7.53125 C-29.67907187 12.83130924 -24.01685504 14.33356472 -15 13 C-11.61417598 11.97485312 -11.61417598 11.97485312 -9 10 C-8.39414063 9.62488281 -7.78828125 9.24976563 -7.1640625 8.86328125 C-3.35096818 6.39644268 -1.1791029 4.58540018 0 0 Z " fill="#EAEDEE" transform="translate(98,264)"/>
<path d="M0 0 C0.66 0.66 1.32 1.32 2 2 C0.02 3.65 -1.96 5.3 -4 7 C-3.67 7.99 -3.34 8.98 -3 10 C-2.608125 9.505 -2.21625 9.01 -1.8125 8.5 C0.55091715 6.54406857 2.01435003 6.75792027 5 7 C5.66 8.32 6.32 9.64 7 11 C-1.07744875 17.70387244 -1.07744875 17.70387244 -7 18 C-7 17.01 -7 16.02 -7 15 C-7.515625 14.525625 -8.03125 14.05125 -8.5625 13.5625 C-9.036875 13.046875 -9.51125 12.53125 -10 12 C-9.8125 9.875 -9.8125 9.875 -9 8 C-8.34 7.67 -7.68 7.34 -7 7 C-7.33 5.68 -7.66 4.36 -8 3 C-7.01 3.33 -6.02 3.66 -5 4 C-2.30566683 2.12802546 -2.30566683 2.12802546 0 0 Z " fill="#F6F9FA" transform="translate(136,108)"/>
<path d="M0 0 C2.125 0.0625 2.125 0.0625 5 1 C6.54110233 2.72315563 7.87417853 4.49879978 9.1796875 6.40625 C13.41605906 10.11534784 21.0915138 9.19479671 26.55859375 9.31640625 C27.34774673 9.33718735 28.13689972 9.35796844 28.94996643 9.37937927 C31.44573109 9.44423305 33.94159178 9.50345805 36.4375 9.5625 C38.13998348 9.60574642 39.84245762 9.64936256 41.54492188 9.69335938 C45.69651873 9.79984763 49.84821118 9.90129147 54 10 C54 10.66 54 11.32 54 12 C47.7704242 12.07589768 41.54096705 12.12853504 35.31103516 12.16479492 C33.19054712 12.17990645 31.07009046 12.2003964 28.94970703 12.22631836 C25.90649689 12.26259786 22.86369897 12.27970242 19.8203125 12.29296875 C18.86818878 12.30845261 17.91606506 12.32393646 16.93508911 12.33988953 C15.61394608 12.34022942 15.61394608 12.34022942 14.26611328 12.34057617 C13.48889923 12.34723801 12.71168518 12.35389984 11.91091919 12.36076355 C11.28031586 12.24171158 10.64971252 12.12265961 10 12 C9.34 11.01 8.68 10.02 8 9 C7.01 8.67 6.02 8.34 5 8 C5 7.01 5 6.02 5 5 C4.360625 4.731875 3.72125 4.46375 3.0625 4.1875 C1 3 1 3 0 0 Z " fill="#EEF0F1" transform="translate(102,85)"/>
<path d="M0 0 C1.1446875 0.2475 1.1446875 0.2475 2.3125 0.5 C5.03596236 1.09145396 5.03596236 1.09145396 8 1 C9.03159626 4.09478879 8.97482862 5.52631393 8.5625 8.6875 C8.46066406 9.49574219 8.35882813 10.30398437 8.25390625 11.13671875 C8.17011719 11.75160156 8.08632813 12.36648437 8 13 C7.34 13 6.68 13 6 13 C6 13.66 6 14.32 6 15 C4.0085944 15.38133299 2.00720923 15.71325582 0 16 C-1 15 -1 15 -1.1328125 12.3828125 C-1.13023438 11.30773437 -1.12765625 10.23265625 -1.125 9.125 C-1.12757812 8.05507812 -1.13015625 6.98515625 -1.1328125 5.8828125 C-1 3 -1 3 0 0 Z " fill="#F5F9FA" transform="translate(29,142)"/>
<path d="M0 0 C-1.11384609 3.34153826 -1.47882293 3.526736 -4.3125 5.25 C-9.12193076 8.50895719 -11.1658875 12.49766251 -13 18 C-13.04346001 19.49937028 -13.03998579 21.00053305 -13 22.5 C-12.92108687 25.45924233 -13.04446414 27.13339242 -14 30 C-13.34 30.33 -12.68 30.66 -12 31 C-13.65 30.67 -15.3 30.34 -17 30 C-17.62204475 21.18078778 -17.32582036 14.30544184 -12 7 C-5.64208633 0 -5.64208633 0 0 0 Z " fill="#EBEDEF" transform="translate(68,231)"/>
<path d="M0 0 C1.02480469 0.0515625 2.04960938 0.103125 3.10546875 0.15625 C4.70068359 0.25292969 4.70068359 0.25292969 6.328125 0.3515625 C7.94654297 0.43664062 7.94654297 0.43664062 9.59765625 0.5234375 C12.25850199 0.66472134 14.91837731 0.81611516 17.578125 0.9765625 C17.578125 1.6365625 17.578125 2.2965625 17.578125 2.9765625 C19.558125 2.9765625 21.538125 2.9765625 23.578125 2.9765625 C23.578125 3.3065625 23.578125 3.6365625 23.578125 3.9765625 C22.70599365 3.98067139 21.8338623 3.98478027 20.93530273 3.98901367 C17.67114789 4.01613 14.40882978 4.06535135 11.14526367 4.12915039 C9.73815329 4.15221777 8.330873 4.16669954 6.92358398 4.17211914 C-4.24613495 4.16376193 -4.24613495 4.16376193 -13.421875 9.9765625 C-13.421875 8.6565625 -13.421875 7.3365625 -13.421875 5.9765625 C-12.101875 5.3165625 -10.781875 4.6565625 -9.421875 3.9765625 C-9.421875 3.3165625 -9.421875 2.6565625 -9.421875 1.9765625 C-6.12147382 -0.01318553 -3.81844405 -0.21213578 0 0 Z " fill="#EDEFF0" transform="translate(123.421875,219.0234375)"/>
<path d="M0 0 C1.7591174 2.25354388 2.78522643 4.37608909 4 7 C0.06764531 7 -1.02964049 5.45054659 -4 3 C-8.67799933 1.44066689 -12.49750756 1.42905287 -17.125 3.1875 C-20.2170022 5.13680573 -22.53252803 7.31480991 -25 10 C-25 4.7826087 -25 4.7826087 -23 2 C-15.9383267 -3.18816814 -8.07164166 -3.64015212 0 0 Z " fill="#EEF0F2" transform="translate(321,135)"/>
<path d="M0 0 C0.66 0.66 1.32 1.32 2 2 C1.67 2.99 1.34 3.98 1 5 C0.31808594 4.76539063 -0.36382812 4.53078125 -1.06640625 4.2890625 C-5.04525767 3.89700524 -7.57782417 5.47998371 -10.9375 7.375 C-15.24880509 9.76653652 -19.03001986 11.46885708 -24 12 C-24 11.01 -24 10.02 -24 9 C-20.94516699 7.4840072 -17.88002094 5.99013052 -14.8125 4.5 C-13.94818359 4.07074219 -13.08386719 3.64148438 -12.19335938 3.19921875 C-11.35224609 2.79316406 -10.51113281 2.38710937 -9.64453125 1.96875 C-8.48981323 1.40317383 -8.48981323 1.40317383 -7.31176758 0.82617188 C-4.68618109 -0.11215157 -2.76802715 -0.29408299 0 0 Z " fill="#E9ECEE" transform="translate(165,127)"/>
<path d="M0 0 C-0.33 0.99 -0.66 1.98 -1 3 C-1.639375 2.835 -2.27875 2.67 -2.9375 2.5 C-8.87896282 1.52996525 -14.53028059 1.19122517 -20 4 C-25.88461538 7 -25.88461538 7 -28 7 C-28.33 7.66 -28.66 8.32 -29 9 C-28.68793825 6.08742371 -28.03930601 5.03930601 -25.9375 2.9375 C-18.2390902 -2.14017455 -8.59471766 -4.58384942 0 0 Z " fill="#EAECED" transform="translate(61,126)"/>
<path d="M0 0 C2.10644899 2.52773878 3.48320834 5.01882708 4.8125 8 C7.37692511 13.24585821 10.96835988 15.2475407 16.375 17.25 C17.24125 17.4975 18.1075 17.745 19 18 C19 18.66 19 19.32 19 20 C15.37 19.67 11.74 19.34 8 19 C8 18.34 8 17.68 8 17 C7.236875 16.835 6.47375 16.67 5.6875 16.5 C2.22002686 14.56466615 1.68753087 12.84911171 0.4921875 9.17578125 C-0.22242188 6.01675409 -0.20171814 3.22749029 0 0 Z " fill="#E8EAEC" transform="translate(267,252)"/>
<path d="M0 0 C0.99 0.33 1.98 0.66 3 1 C2.814375 1.61875 2.62875 2.2375 2.4375 2.875 C1.76313824 5.04160178 1.76313824 5.04160178 3 7 C2.34 7 1.68 7 1 7 C0.979375 7.680625 0.95875 8.36125 0.9375 9.0625 C-0.47413665 13.48562818 -3.64039642 15.91971681 -7 19 C-7.66 19.66 -8.32 20.32 -9 21 C-11.625 20.625 -11.625 20.625 -14 20 C-14.33 19.01 -14.66 18.02 -15 17 C-13.7625 16.608125 -12.525 16.21625 -11.25 15.8125 C-7.21728597 14.26911562 -5.23858835 12.81389126 -3 9 C-1.85040539 6.03892297 -0.87769302 3.05197801 0 0 Z " fill="#EEF1F1" transform="translate(300,252)"/>
<path d="M0 0 C0.99 0.33 1.98 0.66 3 1 C2.01 1.495 2.01 1.495 1 2 C0.97287649 4.39591038 0.9531018 6.79150957 0.9375 9.1875 C0.92912109 9.86103516 0.92074219 10.53457031 0.91210938 11.22851562 C0.89399564 14.94183114 0.95968236 18.42104559 2 22 C2.66 22.66 3.32 23.32 4 24 C4.804375 24.99 5.60875 25.98 6.4375 27 C8.84315993 30.09217272 8.84315993 30.09217272 12 32 C12 32.66 12 33.32 12 34 C7.73122445 33.50744898 4.90222461 30.96430428 2 28 C-2.92880757 21.77413781 -2.6648362 15.73109518 -2 8 C-1.51002514 5.21793933 -0.84758337 2.70167198 0 0 Z " fill="#E3E5E5" transform="translate(28,140)"/>
<path d="M0 0 C2.62697064 -0.22137393 5.00893964 -0.28162025 7.625 -0.1875 C8.33140625 -0.17396484 9.0378125 -0.16042969 9.765625 -0.14648438 C11.51074128 -0.1111104 13.25546608 -0.05730221 15 0 C15.60546875 1.85546875 15.60546875 1.85546875 16 4 C14.3125 6.3125 14.3125 6.3125 12 8 C9.8125 7.9375 9.8125 7.9375 8 7 C7.67 6.01 7.34 5.02 7 4 C4.03 3.67 1.06 3.34 -2 3 C-1.34 2.01 -0.68 1.02 0 0 Z " fill="#EBEEF1" transform="translate(129,102)"/>
<path d="M0 0 C0.66 0 1.32 0 2 0 C2 0.66 2 1.32 2 2 C2.88558594 2.40412109 2.88558594 2.40412109 3.7890625 2.81640625 C5.98859616 3.99389512 7.54809588 5.25211662 9.375 6.9375 C12.3662998 9.5799225 15.32364951 11.38599247 19 13 C18.67 14.32 18.34 15.64 18 17 C17.34 17 16.68 17 16 17 C15.566875 16.525625 15.13375 16.05125 14.6875 15.5625 C13.06254501 13.762247 13.06254501 13.762247 10.4375 13.625 C9.2309375 13.315625 9.2309375 13.315625 8 13 C6.875 10.5 6.875 10.5 6 8 C5.01 7.67 4.02 7.34 3 7 C3 6.34 3 5.68 3 5 C2.34 5 1.68 5 1 5 C0.67 3.35 0.34 1.7 0 0 Z " fill="#E7EAEC" transform="translate(111,125)"/>
<path d="M0 0 C0.99773437 0.02320313 1.99546875 0.04640625 3.0234375 0.0703125 C4.52777344 0.09738281 4.52777344 0.09738281 6.0625 0.125 C6.83335937 0.14820313 7.60421875 0.17140625 8.3984375 0.1953125 C10.42652532 3.56468549 10.69616298 6.22741338 10.7109375 10.1328125 C10.72769531 11.15246094 10.74445313 12.17210937 10.76171875 13.22265625 C10.35337942 16.56401355 9.30850919 18.45871902 7.3984375 21.1953125 C6.17514676 17.52544029 6.51822744 14.85563428 6.8359375 11.0078125 C6.93777344 9.73550781 7.03960937 8.46320313 7.14453125 7.15234375 C7.22832031 6.17652344 7.31210937 5.20070312 7.3984375 4.1953125 C6.7384375 4.1953125 6.0784375 4.1953125 5.3984375 4.1953125 C5.3984375 3.5353125 5.3984375 2.8753125 5.3984375 2.1953125 C2.0984375 2.1953125 -1.2015625 2.1953125 -4.6015625 2.1953125 C-2.6015625 0.1953125 -2.6015625 0.1953125 0 0 Z " fill="#EDEFF1" transform="translate(264.6015625,190.8046875)"/>
<path d="M0 0 C0.66 0 1.32 0 2 0 C2.82481886 5.02746731 3.15430519 9.9008972 3.125 15 C3.12886719 15.67289063 3.13273438 16.34578125 3.13671875 17.0390625 C3.12816695 21.46889635 2.7147525 25.64341336 2 30 C1.34 29.67 0.68 29.34 0 29 C0 19.43 0 9.86 0 0 Z " fill="#ECF0F1" transform="translate(157,151)"/>
<path d="M0 0 C1.43838552 0.79005662 2.87567415 1.58211045 4.3125 2.375 C5.11300781 2.81585938 5.91351563 3.25671875 6.73828125 3.7109375 C8.53527943 4.73513335 10.27900708 5.85267138 12 7 C14.73872955 7.45772063 14.73872955 7.45772063 17.6875 7.625 C18.68136719 7.69976562 19.67523438 7.77453125 20.69921875 7.8515625 C21.45847656 7.90054687 22.21773437 7.94953125 23 8 C22.67 8.99 22.34 9.98 22 11 C14.42220414 11.40595335 8.58510893 10.22810107 2.5 5.5 C1.675 4.675 0.85 3.85 0 3 C0 2.01 0 1.02 0 0 Z " fill="#E1E2E3" transform="translate(58,270)"/>
<path d="M0 0 C7.76924149 -0.53580976 10.90662674 1.37735745 16.875 6.4375 C19 9 19 9 19.3125 11.8125 C19.209375 12.534375 19.10625 13.25625 19 14 C18.34 13.67 17.68 13.34 17 13 C17 12.34 17 11.68 17 11 C16.34 11 15.68 11 15 11 C14.21625 10.195625 13.4325 9.39125 12.625 8.5625 C10.12189473 6.11899248 9.3034301 5.45564553 6 5 C3.49642808 3.74821404 1.93566621 2.00018842 0 0 Z " fill="#EBEEEF" transform="translate(184,273)"/>
<path d="M0 0 C2.22536474 1.28836906 3.78354369 2.3647394 5.375 4.375 C5.375 5.035 5.375 5.695 5.375 6.375 C4.818125 6.230625 4.26125 6.08625 3.6875 5.9375 C1.26115805 5.34730872 -1.17406345 4.851571 -3.625 4.375 C-3.955 5.365 -4.285 6.355 -4.625 7.375 C-3.965 7.705 -3.305 8.035 -2.625 8.375 C-2.955 9.695 -3.285 11.015 -3.625 12.375 C-5.625 11.3125 -5.625 11.3125 -7.625 9.375 C-8.1875 5.875 -8.1875 5.875 -7.625 2.375 C-4.90604124 -0.18858969 -3.67521481 -0.87505115 0 0 Z " fill="#D9DBDD" transform="translate(57.625,49.625)"/>
<path d="M0 0 C0.33 0.99 0.66 1.98 1 3 C-5.1018724 5.85208561 -12.70249204 6.3323815 -19.1796875 4.32421875 C-20.8125 3.5 -20.8125 3.5 -23 2 C-23 1.67 -23 1.34 -23 1 C-21.13794922 1.01740234 -21.13794922 1.01740234 -19.23828125 1.03515625 C-17.59635568 1.04453868 -15.95442847 1.0536384 -14.3125 1.0625 C-13.49587891 1.07087891 -12.67925781 1.07925781 -11.83789062 1.08789062 C-7.75500916 1.10442051 -3.98348293 1.03035098 0 0 Z " fill="#E0E1E2" transform="translate(321,172)"/>
<path d="M0 0 C6.92075566 0.56495965 12.20363716 2.76358794 16.9375 7.9375 C19.05063096 11.07517931 19.54008134 12.32744686 19 16 C18.67 15.34 18.34 14.68 18 14 C17.34 14 16.68 14 16 14 C15.67 13.01 15.34 12.02 15 11 C14.34 10.67 13.68 10.34 13 10 C13 9.34 13 8.68 13 8 C10.525 7.01 10.525 7.01 8 6 C8 5.34 8 4.68 8 4 C7.05125 3.855625 6.1025 3.71125 5.125 3.5625 C2 3 2 3 0 2 C0 1.34 0 0.68 0 0 Z " fill="#E8ECED" transform="translate(314,125)"/>
<path d="M0 0 C1.82151337 1.7304377 3.22207628 3.33311442 4.625 5.4375 C8.69323697 9.82691357 14.23869443 11.69061237 20 13 C20 13.33 20 13.66 20 14 C10.58997722 14.3690205 10.58997722 14.3690205 6 12 C6 11.34 6 10.68 6 10 C4.68 9.67 3.36 9.34 2 9 C2 8.34 2 7.68 2 7 C1.34 7 0.68 7 0 7 C0 4.69 0 2.38 0 0 Z " fill="#E9ECEE" transform="translate(295,154)"/>
<path d="M0 0 C5.86513954 2.65591224 11.8044098 6.31337751 14.3125 12.5 C13.9825 13.49 13.6525 14.48 13.3125 15.5 C11.8125 14.125 11.8125 14.125 10.3125 12.5 C10.3125 11.84 10.3125 11.18 10.3125 10.5 C9.69375 10.2525 9.075 10.005 8.4375 9.75 C6.3125 8.5 6.3125 8.5 5.5 6.53125 C4.4526033 4.28326126 4.4526033 4.28326126 1.9296875 3.453125 C1.02476562 3.22109375 0.11984375 2.9890625 -0.8125 2.75 C-1.72257812 2.50765625 -2.63265625 2.2653125 -3.5703125 2.015625 C-4.26898438 1.84546875 -4.96765625 1.6753125 -5.6875 1.5 C-2.6875 -0.5 -2.6875 -0.5 0 0 Z " fill="#E0E3E3" transform="translate(293.6875,229.5)"/>
<path d="M0 0 C0 0.99 0 1.98 0 3 C-0.60328125 3.21914063 -1.2065625 3.43828125 -1.828125 3.6640625 C-7.38946535 5.87065883 -9.92651565 7.68050785 -13 13 C-13.99 13.33 -14.98 13.66 -16 14 C-15.46744565 9.47328804 -13.78440128 6.5799445 -11 3 C-8.875 1.6875 -8.875 1.6875 -7 1 C-4.53721199 -0.231394 -2.7204945 -0.07159196 0 0 Z " fill="#ECEDEF" transform="translate(180,280)"/>
<path d="M0 0 C2.82028259 0.41781964 4.01327289 1.01175599 6.1875 2.9375 C9.50588774 5.37098434 12.1030445 5.81981947 16.109375 6.41015625 C16.73328125 6.60480469 17.3571875 6.79945313 18 7 C18.33 7.99 18.66 8.98 19 10 C12.05173678 10.66173935 8.48883005 9.64857066 2.75 5.703125 C0.8011017 3.80642934 0.36959506 2.65646452 0 0 Z " fill="#DFE2E5" transform="translate(62,262)"/>
<path d="M0 0 C4.84824868 0.41556417 6.88036862 2.37448245 10 6 C11.99701395 8.8139742 12.03039116 9.73660994 11.625 13.25 C11.41875 14.1575 11.2125 15.065 11 16 C10.34 16 9.68 16 9 16 C8.76925781 15.32453125 8.53851563 14.6490625 8.30078125 13.953125 C6.33453024 8.57507876 4.91267737 5.27511825 0 2 C0 1.34 0 0.68 0 0 Z " fill="#EBEDEE" transform="translate(83,239)"/>
<path d="M0 0 C3.3 0 6.6 0 10 0 C9.01 1.485 9.01 1.485 8 3 C5.375 3.1875 5.375 3.1875 3 3 C3.32504259 7.82194643 3.32504259 7.82194643 5.5625 11.9375 C6.036875 12.288125 6.51125 12.63875 7 13 C5.1875 13.6875 5.1875 13.6875 3 14 C1.375 12.875 1.375 12.875 0 11 C-0.29296875 8.30078125 -0.29296875 8.30078125 -0.1875 5.3125 C-0.16042969 4.31863281 -0.13335937 3.32476562 -0.10546875 2.30078125 C-0.07066406 1.54152344 -0.03585938 0.78226563 0 0 Z " fill="#F0F1F3" transform="translate(96,199)"/>
<path d="M0 0 C8.57142857 -0.14285714 8.57142857 -0.14285714 12 1 C12 1.99 12 2.98 12 4 C13.32 4.33 14.64 4.66 16 5 C16.33 6.32 16.66 7.64 17 9 C16.28714844 8.66226563 15.57429688 8.32453125 14.83984375 7.9765625 C9.61343563 5.54273046 4.60415357 3.3699042 -1 2 C-0.67 1.34 -0.34 0.68 0 0 Z " fill="#ECEDEE" transform="translate(48,133)"/>
<path d="M0 0 C-2.04540429 2.64699379 -3.21831975 3.05745257 -6.5625 3.9375 C-8.2640625 4.4634375 -8.2640625 4.4634375 -10 5 C-10.68268138 6.32520503 -11.3507041 7.65812182 -12 9 C-15.125 9.75 -15.125 9.75 -18 10 C-17.67 9.01 -17.34 8.02 -17 7 C-16.34 7 -15.68 7 -15 7 C-14.67 6.01 -14.34 5.02 -14 4 C-11.85546875 2.578125 -11.85546875 2.578125 -9.1875 1.25 C-8.31480469 0.80140625 -7.44210938 0.3528125 -6.54296875 -0.109375 C-3.80064256 -1.06982104 -2.6686569 -1.02018585 0 0 Z " fill="#EDEEF0" transform="translate(226,164)"/>
<path d="M0 0 C0.69140625 1.7421875 0.69140625 1.7421875 1 4 C-1.57003345 8.35181383 -4.82466249 11.48712545 -9.4375 13.5 C-10.283125 13.665 -11.12875 13.83 -12 14 C-12.33 13.01 -12.66 12.02 -13 11 C-12.48050781 10.70867187 -11.96101563 10.41734375 -11.42578125 10.1171875 C-6.58707149 7.27299212 -3.35090767 4.50278218 0 0 Z " fill="#ECEFF0" transform="translate(93,258)"/>
<path d="M0 0 C5.94 0 11.88 0 18 0 C18 0.99 18 1.98 18 3 C15.17314012 4.41342994 12.71268563 4.24577366 9.5625 4.3125 C7.83193359 4.36857422 7.83193359 4.36857422 6.06640625 4.42578125 C4.54853516 4.21501953 4.54853516 4.21501953 3 4 C2.01 2.68 1.02 1.36 0 0 Z " fill="#DADBDD" transform="translate(41,173)"/>
<path d="M0 0 C2.19629783 3.54143525 2.23275752 6.39667247 2.1953125 10.515625 C2.18564453 12.39121094 2.18564453 12.39121094 2.17578125 14.3046875 C2.15902344 15.60664062 2.14226562 16.90859375 2.125 18.25 C2.11597656 19.56742188 2.10695313 20.88484375 2.09765625 22.2421875 C2.07408533 25.49497462 2.04118022 28.74739589 2 32 C1.67 32 1.34 32 1 32 C0.09958689 23.97667603 -0.11547323 16.07029553 0 8 C-0.66 7.67 -1.32 7.34 -2 7 C-1.34 7 -0.68 7 0 7 C0 4.69 0 2.38 0 0 Z " fill="#FDFDFE" transform="translate(260,103)"/>
<path d="M0 0 C1.9375 0.8125 1.9375 0.8125 4 2 C4.33 2.99 4.66 3.98 5 5 C7.08697558 6.6741769 7.08697558 6.6741769 9.5625 8.1875 C10.38878906 8.71730469 11.21507812 9.24710938 12.06640625 9.79296875 C12.70449219 10.19128906 13.34257812 10.58960938 14 11 C12.16015625 12.0703125 12.16015625 12.0703125 10 13 C6.32216434 11.38534044 4.05741477 9.42902462 2 6 C1.27648573 4.01985568 0.59734611 2.02178685 0 0 Z " fill="#EBEEEE" transform="translate(288,161)"/>
<path d="M0 0 C2.86319855 1.04983947 3.8499428 1.73398952 5.375 4.4375 C5.684375 5.7059375 5.684375 5.7059375 6 7 C5.01 8.485 5.01 8.485 4 10 C3.9744911 12.5254223 3.9744911 12.5254223 4.375 15.1875 C4.48585938 16.08855469 4.59671875 16.98960938 4.7109375 17.91796875 C4.80632812 18.60503906 4.90171875 19.29210937 5 20 C4.34 19.67 3.68 19.34 3 19 C3 18.34 3 17.68 3 17 C2.34 17 1.68 17 1 17 C0.87318841 10.5326087 0.87318841 10.5326087 1.625 7.375 C2.099177 4.37187899 1.30856342 2.69410116 0 0 Z " fill="#E1E4E7" transform="translate(74,82)"/>
<path d="M0 0 C0.66 0.33 1.32 0.66 2 1 C0.58832253 6.26170694 -1.74850232 9.72171358 -5 14 C-6.32 13.67 -7.64 13.34 -9 13 C-7.68889201 11.01989841 -6.37618664 9.04088963 -5.0625 7.0625 C-4.50272461 6.21655273 -4.50272461 6.21655273 -3.93164062 5.35351562 C-1.11328125 1.11328125 -1.11328125 1.11328125 0 0 Z " fill="#ECEFF1" transform="translate(208,68)"/>
<path d="M0 0 C0 0.66 0 1.32 0 2 C1.98 2 3.96 2 6 2 C6 2.33 6 2.66 6 3 C-1.92 3 -9.84 3 -18 3 C-12.39004157 -0.73997229 -6.52699931 -0.11406407 0 0 Z " fill="#E5E6E9" transform="translate(141,220)"/>
<path d="M0 0 C0.66 0 1.32 0 2 0 C1.70569635 5.88607298 -0.92478352 9.9150342 -5 14 C-7.875 15 -7.875 15 -10 15 C-9 12 -9 12 -6.4375 10 C-5.633125 9.34 -4.82875 8.68 -4 8 C-4 7.01 -4 6.02 -4 5 C-3.01 5 -2.02 5 -1 5 C-0.67 3.35 -0.34 1.7 0 0 Z " fill="#EEEFF1" transform="translate(333,157)"/>
<path d="M0 0 C1.54897985 3.0979597 0.83239539 6.26216552 0.5625 9.625 C0.51029297 10.33140625 0.45808594 11.0378125 0.40429688 11.765625 C0.27458793 13.51079987 0.13795046 15.25545725 0 17 C-0.66 17 -1.32 17 -2 17 C-3.42247747 14.15504507 -3.20793601 11.6688204 -3.25 8.5 C-3.27578125 7.3346875 -3.3015625 6.169375 -3.328125 4.96875 C-3.16570312 3.49921875 -3.16570312 3.49921875 -3 2 C-2.01 1.34 -1.02 0.68 0 0 Z " fill="#DEE1E0" transform="translate(261,246)"/>
<path d="M0 0 C0.99 0.33 1.98 0.66 3 1 C4.1194613 3.8914086 4.10768197 6.67762612 4.0625 9.75 C4.05347656 10.54921875 4.04445313 11.3484375 4.03515625 12.171875 C4.01775391 13.07679688 4.01775391 13.07679688 4 14 C2.125 14.625 2.125 14.625 0 15 C-0.66 14.34 -1.32 13.68 -2 13 C-1.34 13 -0.68 13 0 13 C0 8.71 0 4.42 0 0 Z " fill="#EEF0F1" transform="translate(333,141)"/>
<path d="M0 0 C2.86855713 0.08436933 4.55682315 0.58692181 6.66796875 2.5546875 C11 7.51440024 11 7.51440024 11 10 C11.66 10.33 12.32 10.66 13 11 C11.68 11 10.36 11 9 11 C8.67 10.34 8.34 9.68 8 9 C7.01 8.67 6.02 8.34 5 8 C5 7.01 5 6.02 5 5 C4.360625 4.731875 3.72125 4.46375 3.0625 4.1875 C1 3 1 3 0 0 Z " fill="#E7E9EB" transform="translate(102,85)"/>
<path d="M0 0 C1.02577148 0.00676758 1.02577148 0.00676758 2.07226562 0.01367188 C3.73571604 0.0253044 5.3991205 0.04323306 7.0625 0.0625 C7.0625 0.7225 7.0625 1.3825 7.0625 2.0625 C2.40712644 2.98342281 -2.08435433 3.18455997 -6.8125 3.125 C-7.84503906 3.11823242 -7.84503906 3.11823242 -8.8984375 3.11132812 C-10.57816335 3.09966336 -12.25784375 3.08173271 -13.9375 3.0625 C-14.2675 2.4025 -14.5975 1.7425 -14.9375 1.0625 C-9.89895894 0.23038724 -5.1249338 -0.0453534 0 0 Z " fill="#FDFDFE" transform="translate(278.9375,143.9375)"/>
<path d="M0 0 C4.05726008 1.56048464 7.47623615 4.4835557 10 8 C10 9.32 10 10.64 10 12 C8.0625 11.25 8.0625 11.25 6 10 C5.855625 9.34 5.71125 8.68 5.5625 8 C5.376875 7.34 5.19125 6.68 5 6 C2.52869082 4.84478498 2.52869082 4.84478498 0 4 C-0.33 3.34 -0.66 2.68 -1 2 C-0.67 1.34 -0.34 0.68 0 0 Z " fill="#DFE2E3" transform="translate(64,128)"/>
<path d="M0 0 C0.33 0.99 0.66 1.98 1 3 C1.66 3.33 2.32 3.66 3 4 C-0.81208094 5.79392044 -3.78715363 6.45791808 -8 6 C-9.875 4.5 -9.875 4.5 -11 3 C-9.34623289 1.34623289 -7.19051636 1.36528792 -4.9375 0.9375 C-4.01839844 0.76089844 -3.09929687 0.58429688 -2.15234375 0.40234375 C-1.44207031 0.26957031 -0.73179687 0.13679687 0 0 Z " fill="#EEF2F2" transform="translate(140,136)"/>
<path d="M0 0 C-0.99 0.33 -1.98 0.66 -3 1 C-3 1.66 -3 2.32 -3 3 C-3.99 3 -4.98 3 -6 3 C-6 3.66 -6 4.32 -6 5 C-6.804375 5.28875 -7.60875 5.5775 -8.4375 5.875 C-11.1326468 6.73262568 -11.1326468 6.73262568 -12 9 C-12.3125 6.75 -12.3125 6.75 -12 4 C-8.16577528 0.26940297 -5.25086193 -1.62957784 0 0 Z " fill="#EBECED" transform="translate(304,127)"/>
<path d="M0 0 C0.66 0.66 1.32 1.32 2 2 C1.67 2.99 1.34 3.98 1 5 C0.236875 4.79375 -0.52625 4.5875 -1.3125 4.375 C-4.21885944 3.66608797 -4.21885944 3.66608797 -7 6 C-9.1875 5.625 -9.1875 5.625 -11 5 C-11 4.34 -11 3.68 -11 3 C-7.20148423 0.87989818 -4.39867782 -0.61092748 0 0 Z " fill="#DFE1E3" transform="translate(165,127)"/>
<path d="M0 0 C0.66 0.33 1.32 0.66 2 1 C4.204364 1.22950319 6.41392173 1.41075933 8.625 1.5625 C9.81351563 1.64628906 11.00203125 1.73007813 12.2265625 1.81640625 C13.59941406 1.90728516 13.59941406 1.90728516 15 2 C14.67 2.66 14.34 3.32 14 4 C10.83984375 4.4140625 10.83984375 4.4140625 6.9375 4.625 C5.64714844 4.69976562 4.35679687 4.77453125 3.02734375 4.8515625 C2.02832031 4.90054688 1.02929688 4.94953125 0 5 C0 4.34 0 3.68 0 3 C-0.99 2.67 -1.98 2.34 -3 2 C-2.01 2 -1.02 2 0 2 C0 1.34 0 0.68 0 0 Z " fill="#EEEEEF" transform="translate(174,96)"/>
<path d="M0 0 C0.99 0.33 1.98 0.66 3 1 C2.01 1.33 1.02 1.66 0 2 C-0.33 3.32 -0.66 4.64 -1 6 C-4.3 6.66 -7.6 7.32 -11 8 C-11 7.01 -11 6.02 -11 5 C-10.34 5 -9.68 5 -9 5 C-9 4.34 -9 3.68 -9 3 C-6.36 3 -3.72 3 -1 3 C-0.67 2.01 -0.34 1.02 0 0 Z " fill="#ECF0F1" transform="translate(174,87)"/>
<path d="M0 0 C0.99 0.33 1.98 0.66 3 1 C2.01 1.495 2.01 1.495 1 2 C0.97294692 4.41674224 0.95313562 6.8331794 0.9375 9.25 C0.92912109 9.93191406 0.92074219 10.61382812 0.91210938 11.31640625 C0.89571608 14.69342554 0.94371232 17.77291639 2 21 C1.01 21.66 0.02 22.32 -1 23 C-2.66240201 14.89579019 -2.29866516 7.90166148 0 0 Z " fill="#EAEDEE" transform="translate(28,140)"/>
<path d="M0 0 C0.66 0 1.32 0 2 0 C2.87191947 1.38481328 3.72190384 2.78345246 4.5625 4.1875 C5.03816406 4.96480469 5.51382813 5.74210937 6.00390625 6.54296875 C7.19605797 9.48360967 6.88855164 11.00446363 6 14 C5.67 13.01 5.34 12.02 5 11 C4.505 10.525625 4.01 10.05125 3.5 9.5625 C1.75814029 7.74806281 1.42144987 6.44440923 1 4 C0.34 4 -0.32 4 -1 4 C-0.67 2.68 -0.34 1.36 0 0 Z " fill="#E6EAEB" transform="translate(211,42)"/>
<path d="M0 0 C2.41313129 0.46921997 4.80619179 0.9501636 7.1875 1.5625 C9.01326836 2.07821351 9.01326836 2.07821351 11 2 C11 2.99 11 3.98 11 5 C12.32 5.33 13.64 5.66 15 6 C8.741346 6.5326514 4.54891215 4.81849506 -1 2 C-0.67 1.34 -0.34 0.68 0 0 Z " fill="#EBEDEC" transform="translate(167,318)"/>
<path d="M0 0 C0.66 0.66 1.32 1.32 2 2 C1.67861144 5.36432276 0.35354137 6.98817404 -2.0625 9.25 C-2.61035156 9.77078125 -3.15820312 10.2915625 -3.72265625 10.828125 C-4.14417969 11.21484375 -4.56570312 11.6015625 -5 12 C-5.99 11.67 -6.98 11.34 -8 11 C-6.73046875 9.53515625 -5.4609375 8.0703125 -4.19140625 6.60546875 C-2.79128769 4.89287029 -2.79128769 4.89287029 -2 2 C-1.34 2 -0.68 2 0 2 C0 1.34 0 0.68 0 0 Z " fill="#EFF1F1" transform="translate(71,161)"/>
<path d="M0 0 C-0.33 0.99 -0.66 1.98 -1 3 C-14.86 2.505 -14.86 2.505 -29 2 C-29 1.67 -29 1.34 -29 1 C-28.03175293 0.96241577 -28.03175293 0.96241577 -27.04394531 0.92407227 C-24.11244106 0.80785567 -21.18123783 0.68524558 -18.25 0.5625 C-17.23421875 0.52318359 -16.2184375 0.48386719 -15.171875 0.44335938 C-14.1921875 0.40146484 -13.2125 0.35957031 -12.203125 0.31640625 C-10.85202637 0.26141968 -10.85202637 0.26141968 -9.47363281 0.20532227 C-7.03115028 0.07817633 -7.03115028 0.07817633 -4.86230469 -0.58227539 C-3 -1 -3 -1 0 0 Z " fill="#FEFEFE" transform="translate(176,221)"/>
<path d="M0 0 C5.03985731 0.44469329 7.37634988 2.71343362 11 6 C10.34 7.32 9.68 8.64 9 10 C5.7317654 6.85281112 2.8689341 3.50647501 0 0 Z " fill="#E8ECED" transform="translate(291,241)"/>
<path d="M0 0 C3.82792868 1.5595265 6.36359864 3.83631836 9 7 C8.67 8.32 8.34 9.64 8 11 C5.03 8.03 2.06 5.06 -1 2 C-0.67 1.34 -0.34 0.68 0 0 Z " fill="#E3E5E6" transform="translate(250,226)"/>
<path d="M0 0 C1.15759801 3.47279404 1.02260483 5.98038824 0.87890625 9.63671875 C0.83056641 10.93544922 0.78222656 12.23417969 0.73242188 13.57226562 C0.67590048 14.94401533 0.61925831 16.31576007 0.5625 17.6875 C0.50925949 19.07094416 0.45651922 20.45440766 0.40429688 21.83789062 C0.27445883 25.22548325 0.13948625 28.61279314 0 32 C-0.33 32 -0.66 32 -1 32 C-1.33 21.77 -1.66 11.54 -2 1 C-1.34 0.67 -0.68 0.34 0 0 Z " fill="#FEFEFE" transform="translate(262,154)"/>
<path d="M0 0 C3.10712212 0.78637041 6.09244107 1.63924116 9 3 C10.5625 5.6875 10.5625 5.6875 11 8 C5.95575532 7.55491959 3.55556591 5.39019075 0 2 C0 1.34 0 0.68 0 0 Z " fill="#E7E9EB" transform="translate(195,42)"/>
<path d="M0 0 C0 1.32 0 2.64 0 4 C-1.32 4 -2.64 4 -4 4 C-4.33 4.66 -4.66 5.32 -5 6 C-7.0625 6.625 -7.0625 6.625 -9 7 C-9.33 5.68 -9.66 4.36 -10 3 C-3.375 0 -3.375 0 0 0 Z " fill="#F0F0F1" transform="translate(199,153)"/>
<path d="M0 0 C2.97 0 5.94 0 9 0 C9.33 1.32 9.66 2.64 10 4 C6.04 4 2.08 4 -2 4 C-1.34 2.68 -0.68 1.36 0 0 Z " fill="#ECEEEE" transform="translate(281,228)"/>
<path d="M0 0 C3.99455527 0.61454696 6.74466336 2.70646737 10 5 C9.67 5.99 9.34 6.98 9 8 C5.56801397 6.76067171 2.69674368 5.49698489 0 3 C0 2.01 0 1.02 0 0 Z " fill="#EAEAEC" transform="translate(172,75)"/>
<path d="M0 0 C1.32 0.33 2.64 0.66 4 1 C3.67 5.62 3.34 10.24 3 15 C1.1155829 11.2311658 0.66570538 9.31987525 0.375 5.25 C0.30023438 4.26515625 0.22546875 3.2803125 0.1484375 2.265625 C0.09945312 1.51796875 0.05046875 0.7703125 0 0 Z " fill="#EEF2F1" transform="translate(238,120)"/>
<path d="M0 0 C0.66 0 1.32 0 2 0 C2.2475 0.5775 2.495 1.155 2.75 1.75 C4.16683317 4.3002997 5.87627537 6.01785701 8 8 C6.25 8.75 6.25 8.75 4 9 C1.75 7.375 1.75 7.375 0 5 C-0.25 2.25 -0.25 2.25 0 0 Z " fill="#EBEDEE" transform="translate(54,263)"/>
<path d="M0 0 C4.54805635 -0.17835515 7.8794254 0.00214565 12 2 C11.67 2.99 11.34 3.98 11 5 C9.35 4.67 7.7 4.34 6 4 C6 3.67 6 3.34 6 3 C3.69 2.67 1.38 2.34 -1 2 C-0.67 1.34 -0.34 0.68 0 0 Z " fill="#EDEFF1" transform="translate(49,124)"/>
<path d="M0 0 C0.99 0.99 1.98 1.98 3 3 C-4.59 3 -12.18 3 -20 3 C-20 2.67 -20 2.34 -20 2 C-18.72382813 1.93941406 -17.44765625 1.87882812 -16.1328125 1.81640625 C-14.46352984 1.73200432 -12.79425963 1.64735614 -11.125 1.5625 C-10.28324219 1.52318359 -9.44148437 1.48386719 -8.57421875 1.44335938 C-7.76855469 1.40146484 -6.96289062 1.35957031 -6.1328125 1.31640625 C-5.01737061 1.26141968 -5.01737061 1.26141968 -3.87939453 1.20532227 C-1.91135688 1.10044135 -1.91135688 1.10044135 0 0 Z " fill="#EFF1F2" transform="translate(248,94)"/>
<path d="M0 0 C0.33 0.99 0.66 1.98 1 3 C-3.95 5.475 -3.95 5.475 -9 8 C-9.33 7.01 -9.66 6.02 -10 5 C-6.7 3.35 -3.4 1.7 0 0 Z " fill="#ECF0F1" transform="translate(240,164)"/>
<path d="M0 0 C0.78375 0.185625 1.5675 0.37125 2.375 0.5625 C4.97089775 1.25962266 4.97089775 1.25962266 7 0 C7 3.3 7 6.6 7 10 C4.4375 7.75 4.4375 7.75 2 5 C2.1875 2.6875 2.1875 2.6875 3 1 C2.01 0.67 1.02 0.34 0 0 Z " fill="#EEF0F2" transform="translate(161,130)"/>
<path d="M0 0 C2.69082872 0.17635452 5.32851446 0.61835921 8 1 C8.33 1.99 8.66 2.98 9 4 C7.54176788 4.0270043 6.08339325 4.04639787 4.625 4.0625 C3.81289062 4.07410156 3.00078125 4.08570313 2.1640625 4.09765625 C0 4 0 4 -2 3 C-1 1 -1 1 0 0 Z " fill="#E7E8E9" transform="translate(72,268)"/>
<path d="M0 0 C1.485 0.99 1.485 0.99 3 2 C3 2.99 3 3.98 3 5 C3.66 5.33 4.32 5.66 5 6 C4.67 7.32 4.34 8.64 4 10 C2 8.9375 2 8.9375 0 7 C-0.25 3.3125 -0.25 3.3125 0 0 Z " fill="#E1E3E4" transform="translate(50,52)"/>
<path d="M0 0 C2.64 0.33 5.28 0.66 8 1 C8 1.66 8 2.32 8 3 C9.32 3.33 10.64 3.66 12 4 C3.42857143 4.28571429 3.42857143 4.28571429 0 2 C0 1.34 0 0.68 0 0 Z " fill="#E6E9ED" transform="translate(172,311)"/>
<path d="M0 0 C0.99 0 1.98 0 3 0 C3 2.97 3 5.94 3 9 C2.01 9 1.02 9 0 9 C0 6.03 0 3.06 0 0 Z " fill="#EBEDEF" transform="translate(263,199)"/>
<path d="M0 0 C0.33 0.99 0.66 1.98 1 3 C-4.50016964 4.30267176 -9.47032059 3.71033431 -15 3 C-15 2.67 -15 2.34 -15 2 C-10.05 1.34 -5.1 0.68 0 0 Z " fill="#E8E9EB" transform="translate(321,172)"/>
<path d="M0 0 C1.65 0.33 3.3 0.66 5 1 C3.06745228 3.0245738 1.36841312 4.42105792 -1 6 C-1.99 6 -2.98 6 -4 6 C-4 5.34 -4 4.68 -4 4 C-3.34 4 -2.68 4 -2 4 C-1.34 2.68 -0.68 1.36 0 0 Z " fill="#EBECF0" transform="translate(156,103)"/>
<path d="M0 0 C2.97 0.33 5.94 0.66 9 1 C9.33 1.99 9.66 2.98 10 4 C6.04 3.67 2.08 3.34 -2 3 C-1.34 2.01 -0.68 1.02 0 0 Z " fill="#E9EDEF" transform="translate(90,79)"/>
<path d="M0 0 C1.65 1.65 3.3 3.3 5 5 C4.67 5.99 4.34 6.98 4 8 C-0.875 4.375 -0.875 4.375 -2 1 C-1.34 0.67 -0.68 0.34 0 0 Z " fill="#E9EDEE" transform="translate(63,55)"/>
<path d="M0 0 C0.99 0.33 1.98 0.66 3 1 C3.33 3.97 3.66 6.94 4 10 C3.67 9.34 3.34 8.68 3 8 C2.34 7.67 1.68 7.34 1 7 C1.33 6.34 1.66 5.68 2 5 C1.34 5 0.68 5 0 5 C-0.5625 3.0625 -0.5625 3.0625 -1 1 C-0.67 0.67 -0.34 0.34 0 0 Z " fill="#EBEEEF" transform="translate(203,287)"/>
<path d="M0 0 C0.66 0.33 1.32 0.66 2 1 C2.125 4.375 2.125 4.375 2 8 C1.34 8.66 0.68 9.32 0 10 C-1.49106457 7.01787087 -1.11941467 4.28390342 -1 1 C-0.67 0.67 -0.34 0.34 0 0 Z " fill="#E8EBED" transform="translate(168,59)"/>
<path d="M0 0 C0.66 0.33 1.32 0.66 2 1 C2 3.31 2 5.62 2 8 C1.34 8 0.68 8 0 8 C-0.33 9.32 -0.66 10.64 -1 12 C-2.3609623 9.2780754 -1.70366248 7.8168043 -1.0625 4.875 C-0.86785156 3.96492187 -0.67320313 3.05484375 -0.47265625 2.1171875 C-0.31667969 1.41851562 -0.16070312 0.71984375 0 0 Z " fill="#ECF0F1" transform="translate(101,251)"/>
<path d="M0 0 C-0.125 1.875 -0.125 1.875 -1 4 C-4 5.125 -4 5.125 -7 6 C-7.33 6.66 -7.66 7.32 -8 8 C-7.65978036 4.82461668 -6.97533396 3.97723135 -4.5625 1.75 C-2 0 -2 0 0 0 Z " fill="#DCDFE1" transform="translate(40,127)"/>
<path d="M0 0 C2.96175123 0.61277612 4.38058783 1.25372522 7 3 C7.6875 5.125 7.6875 5.125 8 7 C5.05043472 5.63055898 2.47531189 4.12169591 0 2 C0 1.34 0 0.68 0 0 Z " fill="#E7E8E8" transform="translate(317,136)"/>
<path d="M0 0 C0 0.66 0 1.32 0 2 C-1.32 2.33 -2.64 2.66 -4 3 C-4 2.34 -4 1.68 -4 1 C-7.3 1 -10.6 1 -14 1 C-14 0.67 -14 0.34 -14 0 C-12.04235617 -0.19456705 -10.08384679 -0.38044247 -8.125 -0.5625 C-6.48917969 -0.71912109 -6.48917969 -0.71912109 -4.8203125 -0.87890625 C-2 -1 -2 -1 0 0 Z " fill="#E7E9EB" transform="translate(59,174)"/>
<path d="M0 0 C0.33 0.66 0.66 1.32 1 2 C0.22265625 3.7265625 0.22265625 3.7265625 -0.9375 5.625 C-1.618125 6.73875 -2.29875 7.8525 -3 9 C-3.66 9 -4.32 9 -5 9 C-5.33 7.68 -5.66 6.36 -6 5 C-4.02 3.35 -2.04 1.7 0 0 Z " fill="#EEEFF2" transform="translate(181,162)"/>
<path d="M0 0 C6.625 0.75 6.625 0.75 10 3 C5.94568308 4.15837626 3.78187881 3.83691257 0 2 C0 1.34 0 0.68 0 0 Z " fill="#EFF1F2" transform="translate(314,125)"/>
<path d="M0 0 C0.99 0.33 1.98 0.66 3 1 C3 1.66 3 2.32 3 3 C3.66 3 4.32 3 5 3 C5 3.99 5 4.98 5 6 C3.125 5.75 3.125 5.75 1 5 C-0.25 2.9375 -0.25 2.9375 -1 1 C-0.67 0.67 -0.34 0.34 0 0 Z " fill="#ECEFF0" transform="translate(83,107)"/>
<path d="M0 0 C1.32 0 2.64 0 4 0 C3.67 0.99 3.34 1.98 3 3 C1.5199159 2.88637738 0.04089926 2.75877092 -1.4375 2.625 C-2.26121094 2.55539063 -3.08492187 2.48578125 -3.93359375 2.4140625 C-4.61550781 2.27742188 -5.29742187 2.14078125 -6 2 C-6.33 1.34 -6.66 0.68 -7 0 C-4.31031097 -1.34484451 -2.8977573 -0.62094799 0 0 Z " fill="#EDF0F1" transform="translate(209,91)"/>
<path d="M0 0 C3 1.8125 3 1.8125 6 4 C6 4.99 6 5.98 6 7 C1.2 4.53846154 1.2 4.53846154 0.1875 1.8125 C0.125625 1.214375 0.06375 0.61625 0 0 Z " fill="#DADBDB" transform="translate(58,270)"/>
<path d="M0 0 C1.875 0.25 1.875 0.25 4 1 C5.25 3.0625 5.25 3.0625 6 5 C5.01 5.33 4.02 5.66 3 6 C3 5.34 3 4.68 3 4 C2.01 3.67 1.02 3.34 0 3 C0 2.01 0 1.02 0 0 Z " fill="#E1E4E5" transform="translate(272,265)"/>
<path d="M0 0 C2 3.75 2 3.75 2 6 C0.35 6.33 -1.3 6.66 -3 7 C-1.125 1.125 -1.125 1.125 0 0 Z " fill="#EDEFEF" transform="translate(262,240)"/>
<path d="M0 0 C2.64 0 5.28 0 8 0 C8 0.99 8 1.98 8 3 C5.69 3 3.38 3 1 3 C0.67 2.01 0.34 1.02 0 0 Z " fill="#F0F0F3" transform="translate(252,199)"/>
<path d="M0 0 C1.32 0.66 2.64 1.32 4 2 C4 3.32 4 4.64 4 6 C2.35 5.01 0.7 4.02 -1 3 C-0.67 2.01 -0.34 1.02 0 0 Z " fill="#E8ECEC" transform="translate(64,128)"/>
<path d="M0 0 C0.99 0 1.98 0 3 0 C4.75 2.3125 4.75 2.3125 6 5 C5.67 5.99 5.34 6.98 5 8 C2.27573689 5.64722731 1.1858237 3.37503669 0 0 Z " fill="#D9DCDC" transform="translate(302,237)"/>
<path d="M0 0 C1.32 0 2.64 0 4 0 C4 0.66 4 1.32 4 2 C4.66 2 5.32 2 6 2 C5.67 3.32 5.34 4.64 5 6 C4.34 5.34 3.68 4.68 3 4 C2.01 3.34 1.02 2.68 0 2 C0 1.34 0 0.68 0 0 Z " fill="#EEF0F2" transform="translate(282,153)"/>
<path d="M0 0 C0 0.66 0 1.32 0 2 C0.66 2.33 1.32 2.66 2 3 C1.34 3.66 0.68 4.32 0 5 C-2.0625 4.8125 -2.0625 4.8125 -4 4 C-4.33 3.01 -4.66 2.02 -5 1 C-3 0 -3 0 0 0 Z " fill="#EEF1F3" transform="translate(103,218)"/>
<path d="M0 0 C-1.28650706 0.69710731 -2.57940665 1.38242876 -3.875 2.0625 C-4.95394531 2.63677734 -4.95394531 2.63677734 -6.0546875 3.22265625 C-6.69664062 3.47917969 -7.33859375 3.73570312 -8 4 C-8.66 3.67 -9.32 3.34 -10 3 C-6.81859267 -0.48439851 -4.56758339 -1.41752588 0 0 Z " fill="#FCFEFD" transform="translate(221,178)"/>
<path d="M0 0 C0 0.66 0 1.32 0 2 C-6.0546875 2.1953125 -6.0546875 2.1953125 -8 2 C-8.66 1.34 -9.32 0.68 -10 0 C-6.7169902 -1.6415049 -3.57454967 -0.51888624 0 0 Z " fill="#E5E8E9" transform="translate(54,166)"/>
<path d="M0 0 C0.66 0.33 1.32 0.66 2 1 C2 1.99 2 2.98 2 4 C0.1875 4.6875 0.1875 4.6875 -2 5 C-3.75 3.5625 -3.75 3.5625 -5 2 C-2.625 0.9375 -2.625 0.9375 0 0 Z " fill="#F0F3F3" transform="translate(157,138)"/>
<path d="M0 0 C2.97 1.98 2.97 1.98 6 4 C5.67 4.99 5.34 5.98 5 7 C3.0625 6.3125 3.0625 6.3125 1 5 C0.25 2.375 0.25 2.375 0 0 Z " fill="#EBEFF0" transform="translate(76,99)"/>
<path d="M0 0 C3.55780196 0.60990891 6.6828589 1.5783681 10 3 C9.34 3.66 8.68 4.32 8 5 C1.125 2.25 1.125 2.25 0 0 Z " fill="#ECEDF1" transform="translate(79,76)"/>
</svg>
