<?xml version="1.0" encoding="UTF-8"?>
<svg version="1.1" xmlns="http://www.w3.org/2000/svg" width="411" height="316">
<path d="M0 0 C1.19132261 -0.00467997 2.38264521 -0.00935994 3.6100685 -0.01418173 C6.9043887 -0.02405726 10.19819371 -0.02053049 13.4924823 -0.01122308 C17.0502021 -0.00442468 20.60787746 -0.01491787 24.16558838 -0.02316284 C31.13104751 -0.03649519 38.0964096 -0.03362431 45.06187252 -0.02492492 C50.72524374 -0.01814519 56.38858779 -0.01723291 62.0519619 -0.02049637 C63.26181663 -0.02118592 63.26181663 -0.02118592 64.49611288 -0.0218894 C66.13476884 -0.0228486 67.77342479 -0.02382124 69.41208073 -0.02480717 C84.77506674 -0.03336003 100.13799903 -0.02352942 115.50097623 -0.00740607 C128.67212042 0.00598937 141.84318525 0.0036752 155.014328 -0.01016235 C170.31831359 -0.0262332 185.62225207 -0.03252802 200.92624491 -0.02332556 C202.55973382 -0.02236995 204.19322273 -0.02142683 205.82671165 -0.02049637 C207.0321839 -0.01980213 207.0321839 -0.01980213 208.26200912 -0.01909386 C213.91452002 -0.01650792 219.56700096 -0.0208666 225.21950722 -0.02793503 C232.11411552 -0.0363673 239.00862142 -0.03403403 245.90321807 -0.0180928 C249.41840039 -0.01023204 252.93341225 -0.00708061 256.44859314 -0.01704025 C260.26562139 -0.02525328 264.08217199 -0.01493596 267.89916992 0 C269.00142357 -0.00669217 270.10367722 -0.01338433 271.2393325 -0.02027929 C279.11135531 0.03935279 287.16650287 0.74970497 293.57756042 5.75595093 C298.89733009 11.20547107 300.26436036 15.56422622 300.22795105 23.06454468 C300.21957214 23.74645874 300.21119324 24.4283728 300.20256042 25.13095093 C300.19804871 25.82833374 300.19353699 26.52571655 300.18888855 27.24423218 C300.17716063 28.95650895 300.15922695 30.66874126 300.14006042 32.38095093 C301.43041199 32.34614624 302.72076355 32.31134155 304.05021667 32.27548218 C305.76765149 32.24732751 307.48510049 32.22002916 309.20256042 32.19345093 C310.05011902 32.16831421 310.89767761 32.14317749 311.7709198 32.11727905 C318.78763889 32.03600431 323.50656727 33.09859019 328.95256042 37.81845093 C331.94028705 41.31835926 333.38387038 43.90490476 333.41421509 48.52859497 C333.42419022 49.34711945 333.43416534 50.16564392 333.44444275 51.00897217 C333.44510742 51.89839508 333.44577209 52.78781799 333.44645691 53.70419312 C333.45478043 54.64777679 333.46310394 55.59136047 333.47167969 56.5635376 C333.49578726 59.68500897 333.50455349 62.80627131 333.51115417 65.92782593 C333.52012105 68.10012881 333.52924291 70.27243106 333.53851318 72.44473267 C333.55500859 77.00096131 333.56270411 81.55711643 333.56559753 86.1133728 C333.57097691 91.94198153 333.60863684 97.76989576 333.6543417 103.59830856 C333.68413758 108.08684793 333.69132168 112.57522074 333.69232368 117.0638504 C333.69652216 119.2119896 333.70894142 121.36012946 333.72984123 123.50817108 C333.75680267 126.5193377 333.75191515 129.52890351 333.73942566 132.54013062 C333.76167709 133.8621196 333.76167709 133.8621196 333.78437805 135.21081543 C333.71105592 141.44240261 332.07122024 145.53322978 328.14006042 150.38095093 C323.10718076 155.01533279 318.28620351 155.02862201 311.76506042 155.13095093 C310.83822449 155.16059937 309.91138855 155.1902478 308.95646667 155.22079468 C306.68424607 155.29106954 304.41302583 155.34397141 302.14006042 155.38095093 C302.13641479 155.97563675 302.13276917 156.57032257 302.12901306 157.18302917 C302.08725423 163.36374211 302.01795591 169.54370785 301.93254089 175.72396851 C301.90428727 178.03150973 301.88309471 180.33914853 301.86906433 182.64682007 C301.84769598 185.96105057 301.80107597 189.27410244 301.74943542 192.58798218 C301.74820679 193.62243973 301.74697815 194.65689728 301.74571228 195.72270203 C301.72599365 196.68347153 301.70627502 197.64424103 301.68595886 198.63412476 C301.67707642 199.48017776 301.66819397 200.32623077 301.65904236 201.19792175 C301.14006042 203.38095093 301.14006042 203.38095093 299.30906677 205.19715881 C296.3024425 206.83810288 294.38000355 206.19093671 291.14006042 205.38095093 C290.81006042 204.39095093 290.48006042 203.40095093 290.14006042 202.38095093 C289.48006042 202.38095093 288.82006042 202.38095093 288.14006042 202.38095093 C286.22587915 200.02154078 284.42172204 197.65032117 282.64006042 195.19345093 C281.55218254 193.71770096 280.4636312 192.24244723 279.37443542 190.76766968 C278.82980652 190.02694214 278.28517761 189.2862146 277.7240448 188.52304077 C272.04210491 180.83911035 266.14578207 173.31278048 260.12443542 165.89266968 C258.14006042 163.38095093 258.14006042 163.38095093 257.33408356 161.4276371 C255.91707495 158.61613484 254.72480134 157.22321063 252.14006042 155.38095093 C245.53433147 154.05812591 238.93665585 154.18250952 232.22013855 154.18710327 C230.15328128 154.15988405 228.0864646 154.12941686 226.0196991 154.09594727 C220.4075831 154.0167335 214.79639106 153.98974954 209.18377113 153.97703123 C205.67352685 153.96689483 202.16352003 153.9458698 198.65335083 153.92103958 C186.39553366 153.83503185 174.13840428 153.79260704 161.8802948 153.78866577 C150.47383803 153.78380346 139.07102909 153.68195125 127.6656003 153.53488195 C117.85967361 153.41292696 108.0549438 153.36083615 98.24826384 153.36199534 C92.39689534 153.36143019 86.54901828 153.332894 80.69842529 153.23328781 C75.18719292 153.1417585 69.68250226 153.13770441 64.1709137 153.19866562 C62.15774301 153.2064382 60.14417226 153.18392006 58.1317749 153.12758636 C47.42044226 152.71377425 47.42044226 152.71377425 38.00311852 157.10590792 C33.95241682 161.3353239 30.77504379 166.04359353 27.67691708 170.99356008 C26.0468431 173.52575701 24.32039627 175.94089565 22.50707245 178.34512901 C21.95908509 179.0721758 21.41109773 179.79922259 20.84650469 180.5483011 C18.01597129 183.58817568 15.80823815 184.30805881 11.70256042 184.75595093 C7.55850479 184.31973454 6.0487577 183.28964821 3.14006042 180.38095093 C1.97580067 178.05243141 1.9854805 176.61814909 1.93473816 174.02304077 C1.90482033 172.67186661 1.90482033 172.67186661 1.8742981 171.293396 C1.8575856 170.3193985 1.84087311 169.345401 1.82365417 168.34188843 C1.80287308 167.3458963 1.78209198 166.34990417 1.76068115 165.32373047 C1.69517001 162.13454239 1.63629338 158.94527035 1.57756042 155.75595093 C1.5343767 153.59708799 1.49076246 151.43823363 1.44670105 149.27938843 C1.33948706 143.97999863 1.23772358 138.68052487 1.14006042 133.38095093 C0.47184265 133.3882019 -0.19637512 133.39545288 -0.88484192 133.40292358 C-1.77123352 133.40856323 -2.65762512 133.41420288 -3.57087708 133.42001343 C-4.44534485 133.4272644 -5.31981262 133.43451538 -6.22077942 133.44198608 C-13.26479359 133.27908104 -18.34335475 131.53344223 -24.03572083 127.40438843 C-30.63523751 120.08415364 -30.50892376 112.49427159 -30.60993958 103.06845093 C-30.63715407 101.6729178 -30.66565907 100.2774093 -30.69538879 98.88192749 C-30.76437593 95.36449344 -30.80821005 91.84731785 -30.84101868 88.32937622 C-30.85829982 86.54980829 -30.88174584 84.77030296 -30.90583801 82.99081421 C-30.99702127 75.84627226 -30.96624278 68.70708197 -30.88276672 61.56259155 C-30.85684717 59.08540329 -30.83927883 56.60821323 -30.82185364 54.13095093 C-30.78522397 49.27441052 -30.724446 44.4185771 -30.65040588 39.56246948 C-30.62362265 37.62219979 -30.60322344 35.68183052 -30.5894928 33.74142456 C-30.56814206 31.0008414 -30.52160767 28.26172137 -30.46931458 25.52157593 C-30.46807587 24.70286011 -30.46683716 23.88414429 -30.46556091 23.0406189 C-30.30139634 16.59147599 -28.5301788 12.39352852 -24.18415833 7.49032593 C-23.64404114 7.04173218 -23.10392395 6.59313843 -22.54743958 6.13095093 C-22.01505676 5.67204468 -21.48267395 5.21313843 -20.93415833 4.74032593 C-13.99601658 0.19329518 -8.13029858 -0.04906398 0 0 Z M-18.85993958 12.38095093 C-22.81584141 17.78735011 -23.01251688 22.66251003 -23.02107239 29.16342163 C-23.02603729 30.06130402 -23.0310022 30.9591864 -23.03611755 31.88427734 C-23.05073757 34.85843672 -23.05754105 37.83254275 -23.06306458 40.80673218 C-23.06881632 42.8731537 -23.07457405 44.93957521 -23.08033752 47.0059967 C-23.09084717 51.34118905 -23.09669002 55.67636286 -23.10017395 60.01156616 C-23.10565747 65.56332366 -23.12968272 71.11483575 -23.1581459 76.6665163 C-23.176781 80.93621026 -23.18197836 85.20584522 -23.18350983 89.4755764 C-23.18653509 91.52207976 -23.19455935 93.56858211 -23.20769501 95.61504555 C-23.22477293 98.48031845 -23.22287087 101.34499331 -23.21638489 104.21029663 C-23.22559967 105.05363052 -23.23481445 105.89696442 -23.24430847 106.76585388 C-23.20926223 111.71478812 -22.59322047 115.08987308 -19.85993958 119.38095093 C-15.77040077 123.07151034 -13.29271473 124.47848296 -7.85212708 124.69735718 C-6.86599426 124.73925171 -5.87986145 124.78114624 -4.86384583 124.8243103 C-3.83130676 124.86362671 -2.7987677 124.90294312 -1.73493958 124.94345093 C-0.17452942 125.00822632 -0.17452942 125.00822632 1.41740417 125.0743103 C3.99148571 125.18057972 6.56566551 125.28261676 9.14006042 125.38095093 C9.13672951 126.29510269 9.13672951 126.29510269 9.1333313 127.22772217 C9.11125833 133.55385758 9.09614537 139.87998211 9.08512878 146.20614624 C9.08009084 148.56910649 9.07326034 150.9320636 9.06462097 153.29501343 C9.05253189 156.68564627 9.04682683 160.07623801 9.04240417 163.46688843 C9.03724289 164.52838104 9.0320816 165.58987366 9.02676392 166.68353271 C9.02668839 167.6643985 9.02661285 168.64526428 9.02653503 169.65585327 C9.02320412 170.95491104 9.02320412 170.95491104 9.01980591 172.2802124 C9.00452297 174.43934753 9.00452297 174.43934753 10.14006042 176.38095093 C13.16868264 176.0704999 14.15920129 175.36146887 16.33146667 173.15048218 C17.11392761 172.17466187 17.89638855 171.19884155 18.70256042 170.19345093 C19.35164368 169.39040527 19.35164368 169.39040527 20.01383972 168.57113647 C21.39991097 166.8493042 22.77083916 165.11620164 24.14006042 163.38095093 C25.02011922 162.27666507 25.90032619 161.17249728 26.78068542 160.06845093 C29.07435293 157.17927158 31.34490586 154.27281771 33.60588074 151.35800171 C34.69958863 149.94857355 35.79553658 148.54088247 36.89299011 147.1343689 C38.70986069 144.8039928 40.5195685 142.4682197 42.32756042 140.13095093 C42.90481873 139.39143188 43.48207703 138.65191284 44.076828 137.88998413 C44.60687439 137.20122192 45.13692078 136.51245972 45.68302917 135.80282593 C46.15764587 135.19019897 46.63226257 134.57757202 47.1212616 133.94638062 C48.32188245 132.41286635 48.32188245 132.41286635 48.14006042 130.38095093 C48.80006042 130.38095093 49.46006042 130.38095093 50.14006042 130.38095093 C50.80006042 128.73095093 51.46006042 127.08095093 52.14006042 125.38095093 C53.3198881 125.37948437 54.49971577 125.37801781 55.71529579 125.37650681 C83.72212552 125.3408047 111.72885565 125.28456339 139.73559061 125.20302998 C143.1827507 125.19301252 146.62991126 125.18316839 150.07707214 125.1734314 C151.10647345 125.17051934 151.10647345 125.17051934 152.15667073 125.16754845 C163.26857149 125.13652748 174.38045159 125.11954754 185.49238749 125.1077567 C196.89430696 125.09534562 208.29609322 125.06754787 219.69794977 125.02633786 C226.1022095 125.00367892 232.50631445 124.98804291 238.91061783 124.98906708 C244.93691645 124.98981106 250.96287235 124.97196536 256.98908234 124.9397831 C259.20219994 124.93125532 261.41535586 124.92955358 263.62848282 124.93514824 C266.64833916 124.94176615 269.66709805 124.92391976 272.68684387 124.89993286 C274.00300546 124.91157349 274.00300546 124.91157349 275.34575617 124.92344928 C281.99728469 124.82980592 285.47008812 122.74169785 290.46940613 118.32138062 C293.04052271 113.79609519 292.80822682 109.46057195 292.87052917 104.33407593 C292.89842026 103.20439392 292.92631134 102.07471191 292.95504761 100.91079712 C293.02539961 97.74862781 293.07604512 94.58695641 293.11441803 91.42425537 C293.14063362 89.33527638 293.17249242 87.24644349 293.20555115 85.15756226 C293.3455904 76.05229538 293.41198244 66.94815502 293.43522644 57.84188843 C293.44423543 54.66527001 293.46551032 51.48906808 293.49674988 48.31259155 C293.53516538 44.40518141 293.55398109 40.49814532 293.55850792 36.59055328 C293.5633486 35.12178008 293.57488997 33.65301175 293.59354591 32.18434906 C293.61791861 30.14813344 293.61455439 28.11164332 293.61003113 26.07528687 C293.61589737 24.92348938 293.62176361 23.77169189 293.62780762 22.58499146 C292.85711754 17.52228214 290.31193967 14.43850049 286.57756042 11.06845093 C283.04677273 8.62405944 280.40002328 8.25518731 276.21458054 8.24672985 C275.19228938 8.24227201 274.16999822 8.23781416 273.11672854 8.23322123 C271.42692681 8.23349778 271.42692681 8.23349778 269.70298767 8.23377991 C268.50888252 8.23010322 267.31477736 8.22642653 266.0844872 8.22263843 C262.76410457 8.21350953 259.44377138 8.20890146 256.1233809 8.20624912 C252.54452639 8.20234645 248.96568619 8.19276813 245.38684082 8.18403625 C236.7413425 8.16427141 228.09584302 8.15420589 219.45032775 8.14530846 C215.37977451 8.14092585 211.30922257 8.13555899 207.23867035 8.1303196 C193.70877731 8.11330777 180.17888509 8.09881312 166.648983 8.09157085 C163.13770802 8.08966094 159.62643304 8.08774061 156.11515808 8.08578491 C155.24244063 8.08530117 154.36972318 8.08481743 153.47055975 8.08431903 C139.32991232 8.07601692 125.18934943 8.05067677 111.04873893 8.01820423 C96.53359916 7.98514313 82.01850237 7.96712298 67.50332475 7.96392661 C59.35245665 7.9617607 51.20171186 7.95300017 43.05088043 7.92746544 C36.1099731 7.90577142 29.16921903 7.8977016 22.22828165 7.90743222 C18.68710781 7.91198067 15.14625027 7.91005954 11.60511971 7.89067078 C7.76497071 7.86982643 3.92525871 7.88001242 0.08506775 7.89320374 C-1.03254385 7.88223449 -2.15015545 7.87126524 -3.30163407 7.8599636 C-9.70455233 7.91316547 -13.668466 8.52947679 -18.85993958 12.38095093 Z " fill="#F3F6F7" transform="translate(52.85993957519531,64.61904907226563)"/>
<path d="M0 0 C1.19132261 -0.00467997 2.38264521 -0.00935994 3.6100685 -0.01418173 C6.9043887 -0.02405726 10.19819371 -0.02053049 13.4924823 -0.01122308 C17.0502021 -0.00442468 20.60787746 -0.01491787 24.16558838 -0.02316284 C31.13104751 -0.03649519 38.0964096 -0.03362431 45.06187252 -0.02492492 C50.72524374 -0.01814519 56.38858779 -0.01723291 62.0519619 -0.02049637 C63.26181663 -0.02118592 63.26181663 -0.02118592 64.49611288 -0.0218894 C66.13476884 -0.0228486 67.77342479 -0.02382124 69.41208073 -0.02480717 C84.77506674 -0.03336003 100.13799903 -0.02352942 115.50097623 -0.00740607 C128.67212042 0.00598937 141.84318525 0.0036752 155.014328 -0.01016235 C170.31831359 -0.0262332 185.62225207 -0.03252802 200.92624491 -0.02332556 C202.55973382 -0.02236995 204.19322273 -0.02142683 205.82671165 -0.02049637 C207.0321839 -0.01980213 207.0321839 -0.01980213 208.26200912 -0.01909386 C213.91452002 -0.01650792 219.56700096 -0.0208666 225.21950722 -0.02793503 C232.11411552 -0.0363673 239.00862142 -0.03403403 245.90321807 -0.0180928 C249.41840039 -0.01023204 252.93341225 -0.00708061 256.44859314 -0.01704025 C260.26562139 -0.02525328 264.08217199 -0.01493596 267.89916992 0 C269.00142357 -0.00669217 270.10367722 -0.01338433 271.2393325 -0.02027929 C279.11135531 0.03935279 287.16650287 0.74970497 293.57756042 5.75595093 C299.38028328 11.70020361 300.22988407 16.90795283 300.70256042 24.94345093 C300.74574402 25.61569702 300.78892761 26.28794312 300.8334198 26.9805603 C301.00896577 29.78650937 301.14006042 32.5688209 301.14006042 35.38095093 C299.64006042 34.06845093 299.64006042 34.06845093 298.14006042 32.38095093 C298.14006042 31.39095093 298.14006042 30.40095093 298.14006042 29.38095093 C295.98464432 31.12905363 295.98464432 31.12905363 295.90628052 33.195755 C295.91373795 33.92839066 295.92119537 34.66102631 295.92887878 35.41586304 C295.93394691 36.6624192 295.93394691 36.6624192 295.93911743 37.93415833 C295.95930687 39.28260582 295.95930687 39.28260582 295.97990417 40.65829468 C295.98510574 41.58058365 295.99030731 42.50287262 295.9956665 43.45310974 C296.01352082 46.4083815 296.04469088 49.36331092 296.07756042 52.31845093 C296.10516731 55.2699875 296.12988741 58.22147466 296.14874268 61.17308044 C296.16100674 63.01169761 296.17861713 64.85028834 296.20205688 66.688797 C296.2085878 67.5229866 296.21511871 68.35717621 296.22184753 69.21664429 C296.23010056 69.95007553 296.23835358 70.68350677 296.24685669 71.43916321 C296.14006042 73.38095093 296.14006042 73.38095093 295.14006042 76.38095093 C295.07849663 79.2724278 295.07250457 82.13918068 295.11271667 85.02938843 C295.12536457 86.7741781 295.13772541 88.51896987 295.14982605 90.26376343 C295.17462885 93.01122592 295.20259239 95.75857917 295.23600769 98.50595093 C295.26627115 101.15960373 295.28400472 103.81311774 295.30021667 106.46688843 C295.32040611 107.69367813 295.32040611 107.69367813 295.34100342 108.94525146 C295.36543882 114.51936261 294.93029742 118.43275184 291.01506042 122.69345093 C290.39631042 123.25032593 289.77756042 123.80720093 289.14006042 124.38095093 C288.48006042 124.05095093 287.82006042 123.72095093 287.14006042 123.38095093 C287.58289858 120.90105728 288.03311088 119.51115713 289.6517334 117.54055786 C291.40228548 115.00045454 291.55250331 113.63365659 291.64079285 110.57723999 C291.67473648 109.60462219 291.70868011 108.63200439 291.74365234 107.62991333 C291.7648967 106.56291199 291.78614105 105.49591064 291.80802917 104.39657593 C291.85663338 102.69528534 291.85663338 102.69528534 291.90621948 100.95962524 C292.00619703 97.10031467 292.07834388 93.24101443 292.14006042 89.38095093 C292.15160408 88.68980194 292.16314774 87.99865295 292.1750412 87.28656006 C292.33562158 77.47174646 292.41023469 67.65791866 292.43522644 57.84188843 C292.44423543 54.66527001 292.46551032 51.48906808 292.49674988 48.31259155 C292.53516538 44.40518141 292.55398109 40.49814532 292.55850792 36.59055328 C292.5633486 35.12178008 292.57488997 33.65301175 292.59354591 32.18434906 C292.61791861 30.14813344 292.61455439 28.11164332 292.61003113 26.07528687 C292.61589737 24.92348938 292.62176361 23.77169189 292.62780762 22.58499146 C291.90604271 17.84367454 289.64421236 14.70278142 286.07756042 11.56845093 C282.74843271 9.52801781 280.02642083 9.25443238 276.21458054 9.24672985 C275.19228938 9.24227201 274.16999822 9.23781416 273.11672854 9.23322123 C271.42692681 9.23349778 271.42692681 9.23349778 269.70298767 9.23377991 C268.50888252 9.23010322 267.31477736 9.22642653 266.0844872 9.22263843 C262.76410457 9.21350953 259.44377138 9.20890146 256.1233809 9.20624912 C252.54452639 9.20234645 248.96568619 9.19276813 245.38684082 9.18403625 C236.7413425 9.16427141 228.09584302 9.15420589 219.45032775 9.14530846 C215.37977451 9.14092585 211.30922257 9.13555899 207.23867035 9.1303196 C193.70877731 9.11330777 180.17888509 9.09881312 166.648983 9.09157085 C163.13770802 9.08966094 159.62643304 9.08774061 156.11515808 9.08578491 C155.24244063 9.08530117 154.36972318 9.08481743 153.47055975 9.08431903 C139.32991232 9.07601692 125.18934943 9.05067677 111.04873893 9.01820423 C96.53359916 8.98514313 82.01850237 8.96712298 67.50332475 8.96392661 C59.35245665 8.9617607 51.20171186 8.95300017 43.05088043 8.92746544 C36.1099731 8.90577142 29.16921903 8.8977016 22.22828165 8.90743222 C18.68710781 8.91198067 15.14625027 8.91005954 11.60511971 8.89067078 C7.76497071 8.86982643 3.92525871 8.88001242 0.08506775 8.89320374 C-1.03254385 8.88223449 -2.15015545 8.87126524 -3.30163407 8.8599636 C-9.69193017 8.91306059 -13.70232514 9.48931355 -18.85993958 13.38095093 C-22.08592797 18.73059195 -22.29216922 23.56097196 -22.24812317 29.61752319 C-22.25600861 30.96522293 -22.25600861 30.96522293 -22.26405334 32.34014893 C-22.27719435 35.29273156 -22.2685369 38.24476962 -22.25837708 41.19735718 C-22.26039933 43.25806277 -22.26331202 45.31876767 -22.26707458 47.37947083 C-22.2714898 51.69082476 -22.265092 56.00199181 -22.25105286 60.31332397 C-22.2339508 65.83362207 -22.24381385 71.35348288 -22.26177025 76.87376499 C-22.27262053 81.12632023 -22.26915619 85.37877211 -22.26138687 89.63133049 C-22.25938887 91.66665639 -22.26183005 93.70199174 -22.26882553 95.73730659 C-22.27646159 98.58304776 -22.26480593 101.42808437 -22.24812317 104.27377319 C-22.25419586 105.11082291 -22.26026855 105.94787262 -22.26652527 106.81028748 C-22.2131424 111.73650908 -21.577458 115.10975178 -18.85993958 119.38095093 C-14.035077 123.68011952 -9.90009398 123.99302082 -3.73493958 124.06845093 C-2.14891079 124.11072795 -0.56296306 124.15619144 1.02287292 124.20516968 C1.71783875 124.21636841 2.41280457 124.22756714 3.12882996 124.23910522 C5.14006042 124.38095093 5.14006042 124.38095093 9.14006042 125.38095093 C9.47006042 142.21095093 9.80006042 159.04095093 10.14006042 176.38095093 C14.39372842 173.82875013 15.95680918 172.74886831 18.76506042 169.06845093 C19.44052917 168.19446655 20.11599792 167.32048218 20.81193542 166.42001343 C21.58021667 165.4171228 22.34849792 164.41423218 23.14006042 163.38095093 C24.10157259 162.15799839 25.06522084 160.93672312 26.03068542 159.71688843 C31.26787299 153.18347549 31.26787299 153.18347549 36.14006042 146.38095093 C37.13006042 146.71095093 38.12006042 147.04095093 39.14006042 147.38095093 C37.40153422 150.40049644 35.54984568 153.32255049 33.57756042 156.19345093 C33.16377136 156.79802124 32.7499823 157.40259155 32.32365417 158.02548218 C31.93306824 158.47278687 31.5424823 158.92009155 31.14006042 159.38095093 C30.48006042 159.38095093 29.82006042 159.38095093 29.14006042 159.38095093 C28.87193542 160.10282593 28.60381042 160.82470093 28.32756042 161.56845093 C26.54834774 165.7823757 24.55025589 169.29553598 21.14006042 172.38095093 C21.80006042 172.71095093 22.46006042 173.04095093 23.14006042 173.38095093 C23.41785339 172.79668335 23.69564636 172.21241577 23.9818573 171.61044312 C25.84165105 168.03041854 28.26239084 164.88104708 30.64006042 161.63095093 C31.13892761 160.93356812 31.6377948 160.2361853 32.15177917 159.51766968 C32.63259949 158.85895874 33.1134198 158.2002478 33.60881042 157.52157593 C34.2652655 156.61713745 34.2652655 156.61713745 34.9349823 155.69442749 C35.33265808 155.26098022 35.73033386 154.82753296 36.14006042 154.38095093 C36.80006042 154.38095093 37.46006042 154.38095093 38.14006042 154.38095093 C38.14006042 153.72095093 38.14006042 153.06095093 38.14006042 152.38095093 C49.12893134 151.28816757 60.04768045 151.22587626 71.07951355 151.21981812 C73.06344188 151.2151806 75.04736933 151.21015471 77.03129578 151.20477295 C82.38193038 151.1917503 87.73255251 151.18522581 93.08320045 151.18076229 C96.42864776 151.17781947 99.77409174 151.1737128 103.11953735 151.16925812 C113.59586078 151.15561965 124.07217649 151.1459311 134.54850817 151.14205623 C146.6287852 151.13756242 158.70894983 151.11993819 170.78919268 151.09105563 C180.1440226 151.06946596 189.49882079 151.05935366 198.85367537 151.05801511 C204.43555511 151.05696658 210.01732866 151.0510466 215.59918213 151.0331955 C220.83925959 151.01675839 226.07915038 151.01453801 231.31924438 151.0233345 C233.2425537 151.0241068 235.16587291 151.01973694 237.0891571 151.00987625 C239.71218397 150.9972144 242.33454353 151.00300157 244.95756531 151.01345825 C245.7201051 151.00540185 246.48264489 150.99734544 247.26829195 150.9890449 C251.72090967 151.03063039 254.61912437 151.5906483 258.14006042 154.38095093 C258.83664406 156.03533706 259.50102925 157.70349411 260.14006042 159.38095093 C261.02693542 160.22657593 261.91381042 161.07220093 262.82756042 161.94345093 C263.59068542 162.74782593 264.35381042 163.55220093 265.14006042 164.38095093 C264.95256042 166.69345093 264.95256042 166.69345093 264.14006042 168.38095093 C265.79006042 169.04095093 267.44006042 169.70095093 269.14006042 170.38095093 C269.14006042 171.04095093 269.14006042 171.70095093 269.14006042 172.38095093 C269.80006042 172.71095093 270.46006042 173.04095093 271.14006042 173.38095093 C275.14006042 177.96918622 275.14006042 177.96918622 275.14006042 180.38095093 C275.80006042 180.38095093 276.46006042 180.38095093 277.14006042 180.38095093 C280.65653848 184.13994471 283.80957484 188.0931815 284.14006042 193.38095093 C283.15006042 193.38095093 282.16006042 193.38095093 281.14006042 193.38095093 C279.65715027 191.81137085 279.65715027 191.81137085 278.10099792 189.61141968 C277.52478699 188.81002563 276.94857605 188.00863159 276.35490417 187.18295288 C275.74775574 186.32016724 275.1406073 185.45738159 274.51506042 184.56845093 C273.25427547 182.81423763 271.99126051 181.06162489 270.72599792 179.31063843 C270.11208191 178.45953491 269.49816589 177.6084314 268.86564636 176.73153687 C266.12246845 172.9947914 263.19437986 169.44120397 260.20256042 165.90048218 C258.14006042 163.38095093 258.14006042 163.38095093 257.32645416 161.42687416 C255.91292458 158.61544033 254.72259819 157.2233911 252.14006042 155.38095093 C245.53435572 154.05807885 238.93663758 154.18250953 232.22013855 154.18710327 C230.15328128 154.15988405 228.0864646 154.12941686 226.0196991 154.09594727 C220.4075831 154.0167335 214.79639106 153.98974954 209.18377113 153.97703123 C205.67352685 153.96689483 202.16352003 153.9458698 198.65335083 153.92103958 C186.39553366 153.83503185 174.13840428 153.79260704 161.8802948 153.78866577 C150.47383803 153.78380346 139.07102909 153.68195125 127.6656003 153.53488195 C117.85967361 153.41292696 108.0549438 153.36083615 98.24826384 153.36199534 C92.39689534 153.36143019 86.54901828 153.332894 80.69842529 153.23328781 C75.18719292 153.1417585 69.68250226 153.13770441 64.1709137 153.19866562 C62.15774301 153.2064382 60.14417226 153.18392006 58.1317749 153.12758636 C47.42044226 152.71377425 47.42044226 152.71377425 38.00311852 157.10590792 C33.95241682 161.3353239 30.77504379 166.04359353 27.67691708 170.99356008 C26.0468431 173.52575701 24.32039627 175.94089565 22.50707245 178.34512901 C21.95908509 179.0721758 21.41109773 179.79922259 20.84650469 180.5483011 C18.01597129 183.58817568 15.80823815 184.30805881 11.70256042 184.75595093 C7.55850479 184.31973454 6.0487577 183.28964821 3.14006042 180.38095093 C1.97580067 178.05243141 1.9854805 176.61814909 1.93473816 174.02304077 C1.90482033 172.67186661 1.90482033 172.67186661 1.8742981 171.293396 C1.8575856 170.3193985 1.84087311 169.345401 1.82365417 168.34188843 C1.80287308 167.3458963 1.78209198 166.34990417 1.76068115 165.32373047 C1.69517001 162.13454239 1.63629338 158.94527035 1.57756042 155.75595093 C1.5343767 153.59708799 1.49076246 151.43823363 1.44670105 149.27938843 C1.33948706 143.97999863 1.23772358 138.68052487 1.14006042 133.38095093 C0.47184265 133.3882019 -0.19637512 133.39545288 -0.88484192 133.40292358 C-1.77123352 133.40856323 -2.65762512 133.41420288 -3.57087708 133.42001343 C-4.44534485 133.4272644 -5.31981262 133.43451538 -6.22077942 133.44198608 C-13.26479359 133.27908104 -18.34335475 131.53344223 -24.03572083 127.40438843 C-30.63523751 120.08415364 -30.50892376 112.49427159 -30.60993958 103.06845093 C-30.63715407 101.6729178 -30.66565907 100.2774093 -30.69538879 98.88192749 C-30.76437593 95.36449344 -30.80821005 91.84731785 -30.84101868 88.32937622 C-30.85829982 86.54980829 -30.88174584 84.77030296 -30.90583801 82.99081421 C-30.99702127 75.84627226 -30.96624278 68.70708197 -30.88276672 61.56259155 C-30.85684717 59.08540329 -30.83927883 56.60821323 -30.82185364 54.13095093 C-30.78522397 49.27441052 -30.724446 44.4185771 -30.65040588 39.56246948 C-30.62362265 37.62219979 -30.60322344 35.68183052 -30.5894928 33.74142456 C-30.56814206 31.0008414 -30.52160767 28.26172137 -30.46931458 25.52157593 C-30.46807587 24.70286011 -30.46683716 23.88414429 -30.46556091 23.0406189 C-30.30139634 16.59147599 -28.5301788 12.39352852 -24.18415833 7.49032593 C-23.64404114 7.04173218 -23.10392395 6.59313843 -22.54743958 6.13095093 C-22.01505676 5.67204468 -21.48267395 5.21313843 -20.93415833 4.74032593 C-13.99601658 0.19329518 -8.13029858 -0.04906398 0 0 Z " fill="#F1F3F4" transform="translate(52.85993957519531,64.61904907226563)"/>
<path d="M0 0 C1.84271484 -0.0309375 1.84271484 -0.0309375 3.72265625 -0.0625 C14.9916106 -0.11030044 27.05314523 0.95860881 35.5 9.25 C40.72719042 17.07198279 42.68623096 25.40468558 41.07421875 34.70703125 C39.25598373 41.96881651 35.84170172 47.63094834 29.32421875 51.5625 C27.07809856 52.61767218 24.85590451 53.47287872 22.5 54.25 C21.84 54.47429687 21.18 54.69859375 20.5 54.9296875 C16.70154593 56.04778084 13.20389015 56.33596435 9.24609375 56.296875 C8.35462646 56.29010742 7.46315918 56.28333984 6.54467773 56.27636719 C5.53256226 56.26331543 5.53256226 56.26331543 4.5 56.25 C4.47494385 56.9112085 4.4498877 57.57241699 4.42407227 58.25366211 C4.30846898 61.23182305 4.18558246 64.2096392 4.0625 67.1875 C4.02318359 68.22841797 3.98386719 69.26933594 3.94335938 70.34179688 C3.90146484 71.33115234 3.85957031 72.32050781 3.81640625 73.33984375 C3.77974854 74.25628662 3.74309082 75.17272949 3.70532227 76.11694336 C3.5 78.25 3.5 78.25 2.5 79.25 C0.36646826 79.35003289 -1.77037542 79.38081048 -3.90625 79.3828125 C-5.20691406 79.38410156 -6.50757813 79.38539063 -7.84765625 79.38671875 C-8.52844238 79.38462402 -9.20922852 79.3825293 -9.91064453 79.38037109 C-11.99128515 79.3750224 -14.07170989 79.3803168 -16.15234375 79.38671875 C-18.10333984 79.38478516 -18.10333984 79.38478516 -20.09375 79.3828125 C-21.29708984 79.38168457 -22.50042969 79.38055664 -23.74023438 79.37939453 C-26.5 79.25 -26.5 79.25 -27.5 78.25 C-27.60025695 75.88238425 -27.63618935 73.54392927 -27.62939453 71.17578125 C-27.63114685 70.43597015 -27.63289917 69.69615906 -27.63470459 68.93392944 C-27.6391231 66.47676277 -27.63618513 64.01966747 -27.6328125 61.5625 C-27.63348554 59.86238593 -27.63445557 58.16227195 -27.63571167 56.4621582 C-27.63718864 52.89435919 -27.63503411 49.32658517 -27.63037109 45.75878906 C-27.6246738 41.17511506 -27.62795281 36.59149961 -27.63394356 32.00782776 C-27.63754919 28.49580439 -27.63641057 24.98379502 -27.63381577 21.47177124 C-27.6331465 19.78119907 -27.63397489 18.09062564 -27.63629532 16.40005493 C-27.63882189 14.04140843 -27.63498121 11.68285805 -27.62939453 9.32421875 C-27.63141876 8.61872894 -27.63344299 7.91323914 -27.63552856 7.18637085 C-27.61426271 2.36426271 -27.61426271 2.36426271 -26.5 1.25 C-17.73817427 0.03200569 -8.82882278 0.03705697 0 0 Z M3.5 24.25 C3.5 26.89 3.5 29.53 3.5 32.25 C5.91645782 32.41687448 5.91645782 32.41687448 8.5 32.25 C10.76839983 30.41734675 10.76839983 30.41734675 10.6875 27.6875 C10.77003323 25.30310277 10.77003323 25.30310277 9.5 24.25 C7.50041636 24.20919217 5.49954746 24.20745644 3.5 24.25 Z " fill="#F2F6F7" transform="translate(205.5,90.75)"/>
<path d="M0 0 C1.10471374 4.52932632 -0.5527731 7.29867939 -2.8125 11.125 C-4.74712346 14.19173644 -6.79294137 17.12353319 -9 20 C-12.0009507 19.55868372 -14.16475076 18.91404308 -16.875 17.5 C-20.30017617 15.85591544 -23.23946434 15.37605357 -27 15 C-25.62752705 17.7449459 -23.80639549 17.91816925 -21.03417969 18.90209961 C-12.05664237 22.09250863 -4.94766438 25.93370184 0 34.4375 C2.1972997 42.26538019 2.841036 48.56871729 -1 56 C-5.76742438 62.98132066 -11.99989201 68.15317571 -20.25 70.3125 C-32.79474721 72.54649608 -47.17063098 71.16440789 -58 64 C-60.43490503 62.10152041 -62.74789222 60.11135104 -65 58 C-63.64910629 53.36239582 -61.76738109 49.66335601 -59.125 45.625 C-58.44695312 44.56539062 -57.76890625 43.50578125 -57.0703125 42.4140625 C-56.38710938 41.61742187 -55.70390625 40.82078125 -55 40 C-51.14748214 40 -50.43431423 40.0914849 -47.375 41.875 C-42.76857775 44.32596429 -38.12011396 45.2026052 -33 46 C-33 45.01 -33 44.02 -33 43 C-34.25296875 42.86271484 -34.25296875 42.86271484 -35.53125 42.72265625 C-39.54972546 41.88547386 -42.90841119 40.35385692 -46.5 38.4375 C-47.16273926 38.08397461 -47.82547852 37.73044922 -48.50830078 37.36621094 C-54.18174203 34.18255326 -58.52537034 30.47988757 -60.6171875 24.125 C-61.94387707 16.76051912 -61.97953737 8.53377943 -58 2 C-51.57192239 -6.28167671 -43.79393313 -9.50106298 -33.56640625 -10.8046875 C-20.79445661 -11.5041371 -9.80846128 -8.28759874 0 0 Z " fill="#F2F6F7" transform="translate(313,101)"/>
<path d="M0 0 C1.24132187 0.00222061 2.48264374 0.00444122 3.76158142 0.00672913 C4.44447739 0.0065831 5.12737335 0.00643707 5.83096313 0.00628662 C8.09815092 0.00698575 10.36525752 0.01477811 12.63243103 0.02259827 C14.20041865 0.02446245 15.76840685 0.02588635 17.33639526 0.02688599 C21.47103981 0.03071117 25.60564944 0.04054146 29.74028015 0.05158997 C33.95627876 0.06180407 38.172283 0.0663836 42.38829041 0.07142639 C50.66630304 0.08216373 58.94428055 0.09976053 67.22227478 0.12025452 C67.22227478 9.03025452 67.22227478 17.94025452 67.22227478 27.12025452 C62.50440011 27.90656696 58.57207714 28.22732812 53.84727478 28.18275452 C51.97942322 28.16921936 51.97942322 28.16921936 50.07383728 28.15541077 C48.66231384 28.13800842 48.66231384 28.13800842 47.22227478 28.12025452 C47.22449539 28.73190964 47.226716 29.34356476 47.22900391 29.97375488 C47.251056 36.31595783 47.26618105 42.65814996 47.27720642 49.00038147 C47.28224819 51.37017763 47.28908143 53.73997067 47.29771423 56.10975647 C47.30978668 59.5077949 47.31550449 62.90579237 47.31993103 66.30384827 C47.32509232 67.37050217 47.3302536 68.43715607 47.33557129 69.53613281 C47.33564682 70.51707413 47.33572235 71.49801544 47.33580017 72.50868225 C47.33802078 73.37694138 47.34024139 74.2452005 47.3425293 75.13977051 C47.22227478 77.12025452 47.22227478 77.12025452 46.22227478 78.12025452 C44.07668651 78.20801057 41.92823057 78.22720671 39.78086853 78.21791077 C38.6058075 78.21541321 37.43074646 78.21291565 36.22007751 78.21034241 C34.71517761 78.2012384 33.21027771 78.1921344 31.65977478 78.18275452 C26.89539978 78.16212952 22.13102478 78.14150452 17.22227478 78.12025452 C17.22227478 61.62025452 17.22227478 45.12025452 17.22227478 28.12025452 C11.28227478 28.12025452 5.34227478 28.12025452 -0.77772522 28.12025452 C-1.76772522 27.79025452 -2.75772522 27.46025452 -3.77772522 27.12025452 C-3.80659059 22.80776842 -3.82447777 18.4953069 -3.84022522 14.18275452 C-3.84860413 12.9510553 -3.85698303 11.71935608 -3.86561584 10.45033264 C-3.8688385 9.28050842 -3.87206116 8.1106842 -3.87538147 6.90541077 C-3.88061829 5.82138977 -3.8858551 4.73736877 -3.89125061 3.62049866 C-3.73081495 0.08711879 -3.5613654 0.15418022 0 0 Z " fill="#F2F6F7" transform="translate(64.77772521972656,91.87974548339844)"/>
<path d="M0 0 C1.25159912 0.00523682 2.50319824 0.01047363 3.79272461 0.01586914 C4.78942421 0.01799156 4.78942421 0.01799156 5.80625916 0.02015686 C7.93590735 0.02577021 10.06545175 0.03832485 12.19506836 0.05102539 C13.63582205 0.05603868 15.07657739 0.06060188 16.51733398 0.06469727 C20.05577938 0.07574394 23.59416375 0.09301747 27.13256836 0.11352539 C28.32803558 3.84607067 28.22164126 7.35515392 28.17016602 11.25292969 C28.15816414 12.31941238 28.15816414 12.31941238 28.1459198 13.40744019 C28.1181005 15.75097544 28.08260637 18.09432095 28.04663086 20.43774414 C28.02485837 22.06630538 28.00340896 23.69487097 27.98226929 25.32344055 C27.93682002 28.73212359 27.88759654 32.14072571 27.83569336 35.54931641 C27.76930839 39.92766506 27.71210255 44.30607687 27.65766335 48.68458843 C27.61492243 52.04481886 27.5674748 55.40496992 27.51856613 58.76511574 C27.49560776 60.38030845 27.47410576 61.99552253 27.4540596 63.61075401 C27.42539995 65.86137235 27.39045078 68.11180494 27.35375977 70.36230469 C27.33519928 71.64485641 27.31663879 72.92740814 27.29751587 74.24882507 C27.13256836 77.11352539 27.13256836 77.11352539 26.13256836 78.11352539 C21.49241511 78.36768089 16.8413553 78.29875337 12.19506836 78.30102539 C10.88086914 78.31327148 9.56666992 78.32551758 8.21264648 78.33813477 C6.96032227 78.34006836 5.70799805 78.34200195 4.41772461 78.34399414 C2.68341187 78.35015747 2.68341187 78.35015747 0.9140625 78.35644531 C-1.86743164 78.11352539 -1.86743164 78.11352539 -3.86743164 76.11352539 C-4.06031666 73.70980162 -4.12986052 71.4218468 -4.11035156 69.01757812 C-4.11224991 68.28737457 -4.11414825 67.55717102 -4.11610413 66.80484009 C-4.11981607 64.38549138 -4.10910281 61.96644127 -4.09790039 59.54711914 C-4.09670882 57.87085506 -4.09625538 56.19459029 -4.09651184 54.51832581 C-4.09494631 51.00354845 -4.08665067 47.48887285 -4.07324219 43.97412109 C-4.05623916 39.4588494 -4.05242817 34.9436895 -4.05318737 30.42838955 C-4.05291605 26.96697412 -4.04744115 23.50558335 -4.04018593 20.0441761 C-4.03699414 18.37872568 -4.03503067 16.71327245 -4.03429222 15.04781914 C-4.03213477 12.72518991 -4.02340396 10.40268158 -4.01269531 8.08007812 C-4.0131485 7.3855101 -4.01360168 6.69094208 -4.0140686 5.97532654 C-3.97465364 0.15736177 -3.97465364 0.15736177 0 0 Z " fill="#F3F6F7" transform="translate(140.867431640625,91.886474609375)"/>
<path d="M0 0 C2.39323804 2.39323804 2.44196109 3.73148638 3 7 C3.33 7.99 3.66 8.98 4 10 C4.99 10 5.98 10 7 10 C6.484375 9.4225 5.96875 8.845 5.4375 8.25 C4 6 4 6 4.3125 3.75 C4.539375 3.1725 4.76625 2.595 5 2 C5.721875 2.763125 6.44375 3.52625 7.1875 4.3125 C12.70546496 9.58522207 16.67124814 10.45796606 24.0625 10.625 C25.65766622 10.67625032 27.25272985 10.73082452 28.84765625 10.7890625 C29.54898682 10.80662598 30.25031738 10.82418945 30.97290039 10.84228516 C33 11 33 11 37 12 C37.33 28.83 37.66 45.66 38 63 C42.253668 60.4477992 43.81674876 59.36791738 46.625 55.6875 C47.30046875 54.81351563 47.9759375 53.93953125 48.671875 53.0390625 C49.82429688 51.53472656 49.82429688 51.53472656 51 50 C51.96151216 48.77704746 52.92516041 47.55577219 53.890625 46.3359375 C59.12781256 39.80252456 59.12781256 39.80252456 64 33 C65.485 33.495 65.485 33.495 67 34 C65.2614738 37.01954551 63.40978526 39.94159957 61.4375 42.8125 C61.02371094 43.41707031 60.60992187 44.02164063 60.18359375 44.64453125 C59.79300781 45.09183594 59.40242188 45.53914063 59 46 C58.34 46 57.68 46 57 46 C56.731875 46.721875 56.46375 47.44375 56.1875 48.1875 C54.40828732 52.40142477 52.41019547 55.91458505 49 59 C49.99 59.495 49.99 59.495 51 60 C51.27779297 59.41573242 51.55558594 58.83146484 51.84179688 58.22949219 C53.70159063 54.64946761 56.12233042 51.50009615 58.5 48.25 C58.99886719 47.55261719 59.49773437 46.85523438 60.01171875 46.13671875 C60.49253906 45.47800781 60.97335938 44.81929687 61.46875 44.140625 C61.90638672 43.53766602 62.34402344 42.93470703 62.79492188 42.31347656 C63.39143555 41.66330566 63.39143555 41.66330566 64 41 C64.66 41 65.32 41 66 41 C66 40.34 66 39.68 66 39 C76.98887091 37.90721664 87.90762002 37.84492533 98.93945312 37.83886719 C100.92338145 37.83422967 102.9073089 37.82920378 104.89123535 37.82382202 C110.24186996 37.81079937 115.59249208 37.80427489 120.94314003 37.79981136 C124.28858734 37.79686855 127.63403131 37.79276187 130.97947693 37.78830719 C141.45580035 37.77466872 151.93211606 37.76498017 162.40844774 37.7611053 C174.48872478 37.75661149 186.56888941 37.73898726 198.64913225 37.7101047 C208.00396217 37.68851503 217.35876036 37.67840273 226.71361494 37.67706418 C232.29549469 37.67601566 237.87726823 37.67009567 243.4591217 37.65224457 C248.69919916 37.63580747 253.93908996 37.63358708 259.17918396 37.64238358 C261.10249328 37.64315587 263.02581249 37.63878601 264.94909668 37.62892532 C267.57212355 37.61626347 270.1944831 37.62205065 272.81750488 37.63250732 C273.96131457 37.62042272 273.96131457 37.62042272 275.12823153 37.60809398 C279.58084924 37.64967946 282.47906395 38.20969737 286 41 C286.69658363 42.65438613 287.36096883 44.32254318 288 46 C288.886875 46.845625 289.77375 47.69125 290.6875 48.5625 C291.450625 49.366875 292.21375 50.17125 293 51 C292.8125 53.3125 292.8125 53.3125 292 55 C293.65 55.66 295.3 56.32 297 57 C297 57.66 297 58.32 297 59 C297.66 59.33 298.32 59.66 299 60 C303 64.58823529 303 64.58823529 303 67 C303.66 67 304.32 67 305 67 C308.51647805 70.75899378 311.66951441 74.71223057 312 80 C311.01 80 310.02 80 309 80 C307.51708984 78.43041992 307.51708984 78.43041992 305.9609375 76.23046875 C305.38472656 75.42907471 304.80851562 74.62768066 304.21484375 73.80200195 C303.60769531 72.93921631 303.00054687 72.07643066 302.375 71.1875 C301.11421504 69.4332867 299.85120009 67.68067396 298.5859375 65.9296875 C297.97202148 65.07858398 297.35810547 64.22748047 296.72558594 63.35058594 C293.98240802 59.61384047 291.05431943 56.06025304 288.0625 52.51953125 C286 50 286 50 285.18639374 48.04592323 C283.77286416 45.2344894 282.58253776 43.84244017 280 42 C273.3942953 40.67712792 266.79657715 40.8015586 260.08007812 40.80615234 C258.01322085 40.77893312 255.94640418 40.74846593 253.87963867 40.71499634 C248.26752267 40.63578257 242.65633064 40.60879861 237.04371071 40.5960803 C233.53346642 40.5859439 230.0234596 40.56491887 226.51329041 40.54008865 C214.25547324 40.45408092 201.99834385 40.41165611 189.74023438 40.40771484 C178.33377761 40.40285254 166.93096867 40.30100032 155.52553988 40.15393102 C145.71961319 40.03197603 135.91488338 39.97988522 126.10820341 39.98104441 C120.25683491 39.98047927 114.40895786 39.95194307 108.55836487 39.85233688 C103.0471325 39.76080758 97.54244183 39.75675349 92.03085327 39.81771469 C90.01768259 39.82548727 88.00411184 39.80296913 85.99171448 39.74663544 C75.28038183 39.33282332 75.28038183 39.33282332 65.86305809 43.72495699 C61.81235639 47.95437297 58.63498337 52.66264261 55.53685665 57.61260915 C53.90678268 60.14480608 52.18033584 62.55994472 50.36701202 64.96417809 C49.81902466 65.69122487 49.2710373 66.41827166 48.70644426 67.16735017 C45.87591087 70.20722475 43.66817772 70.92710788 39.5625 71.375 C35.41844436 70.93878362 33.90869728 69.90869728 31 67 C29.83574024 64.67148048 29.84542008 63.23719816 29.79467773 60.64208984 C29.77473251 59.74130707 29.75478729 58.84052429 29.73423767 57.91244507 C29.71752518 56.93844757 29.70081268 55.96445007 29.68359375 54.9609375 C29.66281265 53.96494537 29.64203156 52.96895325 29.62062073 51.94277954 C29.55510958 48.75359146 29.49623296 45.56431942 29.4375 42.375 C29.39431627 40.21613707 29.35070203 38.0572827 29.30664062 35.8984375 C29.19942664 30.5990477 29.09766315 25.29957394 29 20 C28.33178223 20.00725098 27.66356445 20.01450195 26.97509766 20.02197266 C26.08870605 20.0276123 25.20231445 20.03325195 24.2890625 20.0390625 C22.97736084 20.04993896 22.97736084 20.04993896 21.63916016 20.06103516 C13.7386685 19.87832258 7.59461178 17.73873527 2 12 C-0.1893461 8.76233508 -1.10905571 6.02512364 -0.6875 2.0625 C-0.460625 1.381875 -0.23375 0.70125 0 0 Z " fill="#E7EAEB" transform="translate(25,178)"/>
<path d="M0 0 C2.39323804 2.39323804 2.44196109 3.73148638 3 7 C3.33 7.99 3.66 8.98 4 10 C4.99 10 5.98 10 7 10 C6.484375 9.4225 5.96875 8.845 5.4375 8.25 C4 6 4 6 4.3125 3.75 C4.539375 3.1725 4.76625 2.595 5 2 C5.721875 2.763125 6.44375 3.52625 7.1875 4.3125 C12.70546496 9.58522207 16.67124814 10.45796606 24.0625 10.625 C25.65766622 10.67625032 27.25272985 10.73082452 28.84765625 10.7890625 C29.54898682 10.80662598 30.25031738 10.82418945 30.97290039 10.84228516 C33 11 33 11 37 12 C37.33 28.83 37.66 45.66 38 63 C42.253668 60.4477992 43.81674876 59.36791738 46.625 55.6875 C47.30046875 54.81351563 47.9759375 53.93953125 48.671875 53.0390625 C49.82429688 51.53472656 49.82429688 51.53472656 51 50 C51.96151216 48.77704746 52.92516041 47.55577219 53.890625 46.3359375 C59.12781256 39.80252456 59.12781256 39.80252456 64 33 C65.485 33.495 65.485 33.495 67 34 C65.2614738 37.01954551 63.40978526 39.94159957 61.4375 42.8125 C61.02371094 43.41707031 60.60992187 44.02164063 60.18359375 44.64453125 C59.79300781 45.09183594 59.40242188 45.53914063 59 46 C58.34 46 57.68 46 57 46 C56.731875 46.721875 56.46375 47.44375 56.1875 48.1875 C54.69959354 51.711489 53.15478041 54.88963423 50.375 57.5625 C48.85352594 58.90902609 48.85352594 58.90902609 48.5625 60.875 C47.76096406 63.90302467 46.0926833 65.71707276 44 68 C43.34 68 42.68 68 42 68 C42.33 68.99 42.66 69.98 43 71 C38.86001651 71.32470459 36.66000999 71.4304413 33.125 69.125 C30.19853261 66.19853261 29.87314113 64.65493222 29.79467773 60.64208984 C29.77473251 59.74130707 29.75478729 58.84052429 29.73423767 57.91244507 C29.71752518 56.93844757 29.70081268 55.96445007 29.68359375 54.9609375 C29.66281265 53.96494537 29.64203156 52.96895325 29.62062073 51.94277954 C29.55510958 48.75359146 29.49623296 45.56431942 29.4375 42.375 C29.39431627 40.21613707 29.35070203 38.0572827 29.30664062 35.8984375 C29.19942664 30.5990477 29.09766315 25.29957394 29 20 C28.33178223 20.00725098 27.66356445 20.01450195 26.97509766 20.02197266 C26.08870605 20.0276123 25.20231445 20.03325195 24.2890625 20.0390625 C22.97736084 20.04993896 22.97736084 20.04993896 21.63916016 20.06103516 C13.7386685 19.87832258 7.59461178 17.73873527 2 12 C-0.1893461 8.76233508 -1.10905571 6.02512364 -0.6875 2.0625 C-0.460625 1.381875 -0.23375 0.70125 0 0 Z " fill="#E9ECED" transform="translate(25,178)"/>
<path d="M0 0 C1 3 1 3 0 6 C-0.08664208 9.00730704 -0.11548713 11.99079644 -0.09765625 14.99780273 C-0.09619598 15.91840485 -0.09473572 16.83900696 -0.0932312 17.7875061 C-0.08942368 19.78785677 -0.08330552 21.78820406 -0.07516479 23.78854179 C-0.06242204 26.95295256 -0.05589082 30.1173215 -0.05102539 33.28175354 C-0.03763995 41.14179639 -0.01344056 49.00179952 0.01037598 56.86181641 C0.03008661 63.50121396 0.04573642 70.14059677 0.05593872 76.78001595 C0.06242984 79.89987448 0.07493877 83.01967259 0.08764648 86.13951111 C0.09127886 88.05060778 0.09463061 89.96170501 0.09765625 91.87280273 C0.10282257 92.74202866 0.10798889 93.61125458 0.11331177 94.50682068 C0.11338226 95.30732849 0.11345276 96.1078363 0.11352539 96.93260193 C0.115746 97.62558097 0.11796661 98.31856001 0.12025452 99.03253841 C0 101 0 101 -0.59693909 103.11358738 C-1.26607378 105.16425176 -1.26607378 105.16425176 0.4375 107.25 C1.2109375 108.11625 1.2109375 108.11625 2 109 C1.505 109.99 1.505 109.99 1 111 C-3.0042343 107.50912907 -4.62671065 105.35048061 -5 100 C-5.66 101.32 -6.32 102.64 -7 104 C-8.79475518 102.20524482 -8.23703154 99.49900413 -8.31640625 97.0703125 C-8.35846191 95.81508789 -8.40051758 94.55986328 -8.44384766 93.26660156 C-8.48401878 91.88608562 -8.52355192 90.50555099 -8.5625 89.125 C-8.58334656 88.42274292 -8.60419312 87.72048584 -8.62567139 86.99694824 C-9.45865638 58.64654089 -8.73943804 30.3444693 -8 2 C-7.34 1.67 -6.68 1.34 -6 1 C-5.67 2.65 -5.34 4.3 -5 6 C-3.35 4.02 -1.7 2.04 0 0 Z " fill="#F2F6F5" transform="translate(31,79)"/>
<path d="M0 0 C2.29197121 -0.36914349 2.29197121 -0.36914349 5.21377563 -0.36076355 C6.31877914 -0.36488754 7.42378265 -0.36901154 8.56227112 -0.3732605 C9.78002731 -0.36247467 10.99778351 -0.35168884 12.25244141 -0.34057617 C13.5304512 -0.34101425 14.808461 -0.34145233 16.12519836 -0.34190369 C19.63542427 -0.34276649 23.14534433 -0.32509503 26.65549898 -0.30418181 C30.32169843 -0.28546226 33.98790443 -0.28366831 37.65414429 -0.28010559 C44.59921669 -0.27077119 51.54414789 -0.24613866 58.48915803 -0.21605712 C66.39471727 -0.18255639 74.30028315 -0.16603802 82.20589566 -0.15097082 C98.47067985 -0.11959022 114.73532192 -0.06680278 131 0 C130.67 0.66 130.34 1.32 130 2 C127.05859375 2.4140625 127.05859375 2.4140625 123.4375 2.625 C122.23996094 2.69976562 121.04242188 2.77453125 119.80859375 2.8515625 C118.88175781 2.90054688 117.95492187 2.94953125 117 3 C118.37828979 2.99214478 118.37828979 2.99214478 119.78442383 2.98413086 C139.55321528 2.88692948 159.24894793 3.05720508 179 4 C179 4.33 179 4.66 179 5 C119.6 5.33 60.2 5.66 -1 6 C-1 5.34 -1 4.68 -1 4 C2.465 3.505 2.465 3.505 6 3 C3.36 3 0.72 3 -2 3 C-1.34 2.01 -0.68 1.02 0 0 Z " fill="#F2F4F5" transform="translate(40,68)"/>
<path d="M0 0 C0.70835198 0.00152028 1.41670396 0.00304056 2.14652115 0.0046069 C4.50206613 0.01332372 6.85681577 0.04365916 9.21217346 0.07402039 C10.90775795 0.08473677 12.60335137 0.09411157 14.2989502 0.10224915 C18.88947714 0.12806746 23.47965264 0.17260607 28.06999469 0.22054696 C32.87187404 0.26749995 37.67385964 0.29718005 42.4758606 0.32870483 C51.56348911 0.39098275 60.65091601 0.46875889 69.73837286 0.55212516 C80.08649936 0.64630026 90.43473188 0.7231647 100.78300941 0.79858649 C122.06499139 0.95408412 143.3467469 1.13128369 164.62843323 1.32279968 C161.78369124 4.16754167 159.88406889 3.58375589 155.89610291 3.60127258 C154.84610845 3.60996119 154.84610845 3.60996119 153.77490199 3.61882532 C151.41792759 3.63589645 149.06114815 3.63870786 146.70411682 3.64164734 C145.01910925 3.65094063 143.33410631 3.66110839 141.64910889 3.67208862 C137.06467263 3.69947035 132.48026723 3.71456214 127.89577055 3.72751665 C123.10843062 3.74311156 118.32115406 3.7699133 113.53385925 3.79554749 C104.46392039 3.84239993 95.3939697 3.87911267 86.32397139 3.91222036 C76.00001948 3.95039616 65.67613111 3.99981815 55.35223269 4.05020452 C34.11101308 4.15362049 12.86975327 4.24284937 -8.37156677 4.32279968 C-8.37156677 4.65279968 -8.37156677 4.98279968 -8.37156677 5.32279968 C-6.06156677 5.32279968 -3.75156677 5.32279968 -1.37156677 5.32279968 C-1.70156677 5.98279968 -2.03156677 6.64279968 -2.37156677 7.32279968 C-4.68156677 7.32279968 -6.99156677 7.32279968 -9.37156677 7.32279968 C-9.61906677 7.92092468 -9.86656677 8.51904968 -10.12156677 9.13529968 C-11.55229202 11.63906887 -12.94072498 12.80352356 -15.37156677 14.32279968 C-16.03156677 14.32279968 -16.69156677 14.32279968 -17.37156677 14.32279968 C-17.70156677 15.97279968 -18.03156677 17.62279968 -18.37156677 19.32279968 C-19.36156677 19.32279968 -20.35156677 19.32279968 -21.37156677 19.32279968 C-21.70156677 19.98279968 -22.03156677 20.64279968 -22.37156677 21.32279968 C-23.62916453 18.31853837 -24.49817432 16.14574877 -23.99656677 12.88529968 C-18.48861451 4.19968265 -10.1165565 -0.08128716 0 0 Z " fill="#E9EAEB" transform="translate(48.37156677246094,64.67720031738281)"/>
<path d="M0 0 C2.39323804 2.39323804 2.44196109 3.73148638 3 7 C3.33 7.99 3.66 8.98 4 10 C4.99 10 5.98 10 7 10 C6.484375 9.4225 5.96875 8.845 5.4375 8.25 C4 6 4 6 4.3125 3.75 C4.539375 3.1725 4.76625 2.595 5 2 C5.721875 2.763125 6.44375 3.52625 7.1875 4.3125 C12.70546496 9.58522207 16.67124814 10.45796606 24.0625 10.625 C25.65766622 10.67625032 27.25272985 10.73082452 28.84765625 10.7890625 C29.54898682 10.80662598 30.25031738 10.82418945 30.97290039 10.84228516 C33 11 33 11 37 12 C37 28.5 37 45 37 62 C34.93119358 58.89679038 34.74184422 58.15060522 34.68115234 54.62036133 C34.66128265 53.73967484 34.64141296 52.85898834 34.62094116 51.95161438 C34.60938995 51.00465195 34.59783875 50.05768951 34.5859375 49.08203125 C34.56657135 48.10965012 34.5472052 47.13726898 34.5272522 46.13542175 C34.4674445 43.02787056 34.4210661 39.92028235 34.375 36.8125 C34.33682133 34.706364 34.29776967 32.60024363 34.2578125 30.49414062 C34.16174189 25.32955395 34.07771509 20.16489418 34 15 C33.34 15.33 32.68 15.66 32 16 C32 19.96 32 23.92 32 28 C30.53867783 25.07735566 29.65900754 23.07536854 29 20 C28.38253906 20.02320313 27.76507813 20.04640625 27.12890625 20.0703125 C18.10321837 20.2626407 10.84854545 19.58725776 3.66796875 13.7109375 C0.97624653 10.94987349 0.01846377 8.73436717 -1 5 C-0.6875 2.0625 -0.6875 2.0625 0 0 Z " fill="#EAEEEF" transform="translate(25,178)"/>
<path d="M0 0 C0.495 0.99 0.495 0.99 1 2 C0.67 2.66 0.34 3.32 0 4 C-5.89062782 5.26056752 -11.79956326 5.13522939 -17.80053711 5.11352539 C-19.39677917 5.11374443 -19.39677917 5.11374443 -21.02526855 5.1139679 C-24.52598137 5.11327388 -28.02664029 5.10550545 -31.52734375 5.09765625 C-33.96114574 5.09579025 -36.39494811 5.09436721 -38.82875061 5.09336853 C-45.22214807 5.08955766 -51.61552268 5.07973959 -58.00891113 5.06866455 C-64.53783865 5.05841967 -71.06676988 5.05386432 -77.59570312 5.04882812 C-90.39714515 5.03811603 -103.19857136 5.02125009 -116 5 C-115 3 -115 3 -113.2169714 2.38167477 C-110.93602379 1.98898583 -108.84227629 1.88264854 -106.52845764 1.89320374 C-105.19319786 1.89547722 -105.19319786 1.89547722 -103.83096313 1.89779663 C-102.86202118 1.904534 -101.89307922 1.91127136 -100.89477539 1.91821289 C-99.35512871 1.92281273 -99.35512871 1.92281273 -97.78437805 1.92750549 C-95.55595687 1.93465813 -93.327542 1.94404688 -91.09913826 1.95540047 C-87.57312223 1.97277716 -84.04715143 1.98308558 -80.52110291 1.99131775 C-70.49587726 2.01578478 -60.4707126 2.05136956 -50.44555664 2.09594727 C-44.31368347 2.1227181 -38.18184552 2.13976885 -32.04992485 2.15081596 C-29.71232234 2.157028 -27.37472674 2.16703609 -25.03715706 2.18089485 C-21.76959886 2.20009486 -18.50222612 2.20700494 -15.23461914 2.21118164 C-14.26770142 2.21994324 -13.30078369 2.22870483 -12.30456543 2.23773193 C-7.76568594 2.23110314 -4.11297979 2.18169864 0 0 Z " fill="#EAEBEC" transform="translate(338,188)"/>
<path d="M0 0 C1.12697548 0.01441132 1.12697548 0.01441132 2.27671814 0.02911377 C4.76579 0.06215546 7.25468917 0.10246799 9.74365234 0.14282227 C11.46714668 0.16711834 13.19064744 0.19096215 14.91415405 0.21437073 C19.45490838 0.27726273 23.99554915 0.34631485 28.53619385 0.41662598 C33.16779398 0.48726327 37.79947476 0.55210777 42.43115234 0.61743164 C51.5223868 0.7465099 60.61351185 0.88209241 69.70458984 1.02172852 C69.70458984 1.68172852 69.70458984 2.34172852 69.70458984 3.02172852 C79.27458984 3.02172852 88.84458984 3.02172852 98.70458984 3.02172852 C98.70458984 3.35172852 98.70458984 3.68172852 98.70458984 4.02172852 C63.72458984 4.02172852 28.74458984 4.02172852 -7.29541016 4.02172852 C-7.95541016 5.34172852 -8.61541016 6.66172852 -9.29541016 8.02172852 C-10.92041016 9.77172852 -10.92041016 9.77172852 -12.29541016 11.02172852 C-12.62541016 10.36172852 -12.95541016 9.70172852 -13.29541016 9.02172852 C-12.58837891 7.11157227 -12.58837891 7.11157227 -11.48291016 4.95922852 C-11.12583984 4.24637695 -10.76876953 3.53352539 -10.40087891 2.79907227 C-8.0019666 -1.05783622 -4.04526866 -0.07346929 0 0 Z " fill="#EDEEEF" transform="translate(114.29541015625,188.978271484375)"/>
<path d="M0 0 C0.66 0.33 1.32 0.66 2 1 C-3 5 -3 5 -21 6 C-21.33 21.84 -21.66 37.68 -22 54 C-22.99 54 -23.98 54 -25 54 C-25 37.17 -25 20.34 -25 3 C-18.73827683 2.10546812 -12.63158355 1.63283733 -6.328125 1.28125 C-3.00292406 1.13165187 -3.00292406 1.13165187 0 0 Z " fill="#E3E7E8" transform="translate(376,214)"/>
<path d="M0 0 C0.68359375 1.75390625 0.68359375 1.75390625 1 4 C-3.15195548 11.07943596 -10.37841014 16.25224634 -18.25 18.3125 C-30.95694671 20.57538092 -44.95211429 19.00915391 -56 12 C-57.7074998 10.71937515 -59.39371931 9.40549561 -61 8 C-60.67 7.01 -60.34 6.02 -60 5 C-59.31292969 5.42152344 -58.62585938 5.84304687 -57.91796875 6.27734375 C-57.01691406 6.82519531 -56.11585938 7.37304688 -55.1875 7.9375 C-54.29417969 8.48277344 -53.40085937 9.02804688 -52.48046875 9.58984375 C-49.99296438 11.11009578 -49.99296438 11.11009578 -47 12 C-47 12.66 -47 13.32 -47 14 C-46.31292969 14.06058594 -45.62585938 14.12117187 -44.91796875 14.18359375 C-43.56638672 14.30927734 -43.56638672 14.30927734 -42.1875 14.4375 C-41.29417969 14.51871094 -40.40085937 14.59992188 -39.48046875 14.68359375 C-37 15 -37 15 -34 16 C-31.76686396 15.95556347 -31.76686396 15.95556347 -29.33203125 15.66015625 C-28.43935547 15.56669922 -27.54667969 15.47324219 -26.62695312 15.37695312 C-25.69818359 15.27318359 -24.76941406 15.16941406 -23.8125 15.0625 C-22.87212891 14.96259766 -21.93175781 14.86269531 -20.96289062 14.75976562 C-18.64124292 14.51228034 -16.32040817 14.25880867 -14 14 C-13.67 13.01 -13.34 12.02 -13 11 C-12.4225 10.896875 -11.845 10.79375 -11.25 10.6875 C-8.28674659 9.78206146 -7.0965089 7.95391236 -5.23828125 5.56640625 C-3.64421437 3.54993679 -1.84955002 1.78104817 0 0 Z " fill="#E8EAEA" transform="translate(311,153)"/>
<path d="M0 0 C0.33 0 0.66 0 1 0 C1 24.09 1 48.18 1 73 C-0.485 73.495 -0.485 73.495 -2 74 C-2.42354036 20.75156436 -2.42354036 20.75156436 0 0 Z " fill="#DEE0E1" transform="translate(180,95)"/>
<path d="M0 0 C0.99 0 1.98 0 3 0 C4.05413433 10.6233447 4.11879674 21.1490478 4.0625 31.8125 C4.05747056 33.48762886 4.05291023 35.16275919 4.04882812 36.83789062 C4.03794708 40.89196439 4.02076371 44.94596531 4 49 C3.01 49 2.02 49 1 49 C0.67 49.99 0.34 50.98 0 52 C-1.71802382 48.56395235 -1.1196618 44.61561104 -1.09765625 40.8359375 C-1.0962413 39.92872955 -1.09482635 39.02152161 -1.09336853 38.08682251 C-1.08776096 35.18284845 -1.07520718 32.27895085 -1.0625 29.375 C-1.05748598 27.40885528 -1.0529229 25.44270935 -1.04882812 23.4765625 C-1.03778906 18.6510121 -1.02051935 13.82551903 -1 9 C-0.67 9 -0.34 9 0 9 C0 6.03 0 3.06 0 0 Z " fill="#F0F1F3" transform="translate(56,193)"/>
<path d="M0 0 C0.33 0 0.66 0 1 0 C1.19476139 2.60380996 1.38108614 5.20775533 1.5625 7.8125 C1.61857422 8.55048828 1.67464844 9.28847656 1.73242188 10.04882812 C1.95769724 13.36788516 2.06255812 15.81232564 1 19 C0.9384362 21.89147687 0.93244414 24.75822976 0.97265625 27.6484375 C0.98530415 29.39322717 0.99766499 31.13801895 1.00976562 32.8828125 C1.03456842 35.630275 1.06253197 38.37762824 1.09594727 41.125 C1.12621073 43.77865281 1.14394429 46.43216681 1.16015625 49.0859375 C1.17361588 49.9037973 1.1870755 50.7216571 1.20094299 51.56430054 C1.22537839 57.13841168 0.790237 61.05180091 -3.125 65.3125 C-3.74375 65.869375 -4.3625 66.42625 -5 67 C-5.66 66.67 -6.32 66.34 -7 66 C-6.55833857 63.52669599 -6.12473401 62.14854403 -4.48880005 60.20033264 C-2.64518789 57.47561483 -2.57985192 55.81527339 -2.49169922 52.54467773 C-2.43681839 50.9079435 -2.43681839 50.9079435 -2.38082886 49.23814392 C-2.35570221 48.06514236 -2.33057556 46.89214081 -2.3046875 45.68359375 C-2.26691193 44.47558609 -2.22913635 43.26757843 -2.19021606 42.02296448 C-2.07167892 38.16140105 -1.97248411 34.29964742 -1.875 30.4375 C-1.76700412 26.57196764 -1.65498271 22.70660548 -1.5383606 18.84132385 C-1.46687786 16.43535076 -1.40102474 14.02920268 -1.34127808 11.62290955 C-1.31099518 10.53490555 -1.28071228 9.44690155 -1.24951172 8.32592773 C-1.22525116 7.3675853 -1.2009906 6.40924286 -1.17599487 5.42185974 C-1 3 -1 3 0 0 Z " fill="#E8EBEB" transform="translate(347,122)"/>
<path d="M0 0 C2.2035509 3.30532635 2.23562757 4.2047636 2.16699219 8.03125 C2.15327576 9.05661865 2.13955933 10.0819873 2.12542725 11.13842773 C2.099505 12.24774658 2.07358276 13.35706543 2.046875 14.5 C2.02659241 15.64605713 2.00630981 16.79211426 1.9854126 17.97290039 C1.93978377 20.40407055 1.8890005 22.83514854 1.83349609 25.26611328 C1.75095628 28.95723573 1.68867849 32.64829064 1.62890625 36.33984375 C1.58195532 38.70575382 1.53381518 41.07164064 1.484375 43.4375 C1.45763702 45.0771875 1.45763702 45.0771875 1.43035889 46.75 C1.25689488 53.67263386 0.4493184 60.22823913 -1 67 C-1.33 67 -1.66 67 -2 67 C-2.18992754 23.93612138 -2.18992754 23.93612138 -1.5625 10.4375 C-1.52326416 9.57302246 -1.48402832 8.70854492 -1.44360352 7.81787109 C-1.14024074 2.28048148 -1.14024074 2.28048148 0 0 Z " fill="#E7EAEA" transform="translate(140,96)"/>
<path d="M0 0 C3.0833134 -0.02911321 6.16659125 -0.04683682 9.25 -0.0625 C10.12269531 -0.07087891 10.99539062 -0.07925781 11.89453125 -0.08789062 C12.73886719 -0.09111328 13.58320312 -0.09433594 14.453125 -0.09765625 C15.22817383 -0.10289307 16.00322266 -0.10812988 16.80175781 -0.11352539 C19 0 19 0 23 1 C23 17.5 23 34 23 51 C20.89516254 47.84274381 20.7527941 47.12625389 20.77294922 43.52856445 C20.77310028 42.62785721 20.77325134 41.72714996 20.77340698 40.79914856 C20.78372955 39.83031235 20.79405212 38.86147614 20.8046875 37.86328125 C20.8075174 36.86870407 20.81034729 35.87412689 20.81326294 34.84941101 C20.82446511 31.6703187 20.84956986 28.49150728 20.875 25.3125 C20.88502975 23.15820719 20.89415561 21.00390997 20.90234375 18.84960938 C20.92270367 13.56621075 20.96185256 8.28342011 21 3 C14.07 3 7.14 3 0 3 C0 2.01 0 1.02 0 0 Z " fill="#CACCCC" transform="translate(39,189)"/>
<path d="M0 0 C5.57597563 -0.26599177 9.73130572 0.86634335 14.1484375 4.20703125 C20.01581182 10.43155009 21.21758809 15.38259134 21.7109375 23.76953125 C21.75412109 24.44177734 21.79730469 25.11402344 21.84179688 25.80664062 C22.01734284 28.61258969 22.1484375 31.39490122 22.1484375 34.20703125 C20.67578125 33.1328125 20.67578125 33.1328125 19.1484375 31.20703125 C18.77734375 28.0625 18.77734375 28.0625 18.7109375 24.39453125 C18.42709134 18.53039031 17.88250112 15.6412318 14.1484375 11.20703125 C14.0040625 10.46453125 13.8596875 9.72203125 13.7109375 8.95703125 C13.5253125 8.37953125 13.3396875 7.80203125 13.1484375 7.20703125 C10.65809364 5.91042691 10.65809364 5.91042691 8.1484375 5.20703125 C8.1484375 4.54703125 8.1484375 3.88703125 8.1484375 3.20703125 C-5.7115625 2.71203125 -5.7115625 2.71203125 -19.8515625 2.20703125 C-19.8515625 1.87703125 -19.8515625 1.54703125 -19.8515625 1.20703125 C-14.87255918 0.88691163 -9.89330459 0.58916318 -4.91113281 0.32275391 C-3.27314077 0.23071879 -1.63626878 0.1187976 0 0 Z " fill="#DCDEE0" transform="translate(331.8515625,65.79296875)"/>
<path d="M0 0 C0.33 0 0.66 0 1 0 C1.33 2.97 1.66 5.94 2 9 C2.33 9 2.66 9 3 9 C3 20.88 3 32.76 3 45 C2.34 45 1.68 45 1 45 C1 47.31 1 49.62 1 52 C0.67 52 0.34 52 0 52 C0 34.84 0 17.68 0 0 Z " fill="#E4E7E9" transform="translate(165,112)"/>
<path d="M0 0 C1.24132187 0.00222061 2.48264374 0.00444122 3.76158142 0.00672913 C4.44447739 0.0065831 5.12737335 0.00643707 5.83096313 0.00628662 C8.09815092 0.00698575 10.36525752 0.01477811 12.63243103 0.02259827 C14.20041865 0.02446245 15.76840685 0.02588635 17.33639526 0.02688599 C21.47103981 0.03071117 25.60564944 0.04054146 29.74028015 0.05158997 C33.95627876 0.06180407 38.172283 0.0663836 42.38829041 0.07142639 C50.66630125 0.08216373 58.94428368 0.09924015 67.22227478 0.12025452 C66.89227478 0.78025452 66.56227478 1.44025452 66.22227478 2.12025452 C65.42936035 2.11581329 64.63644592 2.11137207 63.81950378 2.10679626 C56.34495564 2.0667127 48.87045966 2.03626665 41.39583206 2.01663017 C37.55310224 2.00619548 33.71046128 1.99204206 29.86778259 1.96937561 C26.15899025 1.94763595 22.45028334 1.93568352 18.74143219 1.93050003 C17.32685247 1.92680629 15.91227739 1.91959332 14.49773407 1.9087944 C12.51566126 1.89426542 10.53350238 1.89343747 8.55137634 1.89320374 C7.42330566 1.88876251 6.29523499 1.88432129 5.13298035 1.87974548 C1.91483141 1.9639429 1.91483141 1.9639429 -1.77772522 4.12025452 C-2.10772522 9.73025452 -2.43772522 15.34025452 -2.77772522 21.12025452 C-3.10772522 21.12025452 -3.43772522 21.12025452 -3.77772522 21.12025452 C-3.80660668 17.80777265 -3.82448321 14.49532284 -3.84022522 11.18275452 C-3.84860413 10.23722717 -3.85698303 9.29169983 -3.86561584 8.31752014 C-3.8688385 7.41839905 -3.87206116 6.51927795 -3.87538147 5.59291077 C-3.88061829 4.76025696 -3.8858551 3.92760315 -3.89125061 3.06971741 C-3.70909911 -0.05819606 -3.16499528 0.13702038 0 0 Z " fill="#FDFEFE" transform="translate(64.77772521972656,91.87974548339844)"/>
<path d="M0 0 C5.10647138 1.15163428 8.80976848 3.8714651 12 8 C12.8125 11.8125 12.8125 11.8125 13 15 C12.34 15 11.68 15 11 15 C10.81566406 14.45730469 10.63132812 13.91460937 10.44140625 13.35546875 C9.17837023 10.23997989 8.09464043 7.71692933 5.22265625 5.8359375 C-1.53465661 3.34441432 -8.87470436 3.29393111 -16 3 C-12.22702344 -2.02177866 -5.63800512 -0.4970705 0 0 Z " fill="#EAEBED" transform="translate(372,97)"/>
<path d="M0 0 C5.14113816 -0.0993309 10.28171025 -0.17168514 15.42358398 -0.21972656 C17.17042784 -0.23976622 18.91720525 -0.26700587 20.66381836 -0.30175781 C23.18359832 -0.35061582 25.70248685 -0.37304486 28.22265625 -0.390625 C28.99585709 -0.41127014 29.76905792 -0.43191528 30.56568909 -0.45318604 C36.15862915 -0.45546876 39.35089625 0.88803478 44 4 C43.01 4.66 42.02 5.32 41 6 C39.31683646 5.3761549 37.65250931 4.7010244 36 4 C33.72830784 3.72203358 31.44519268 3.53063679 29.16015625 3.40234375 C27.84982422 3.32306641 26.53949219 3.24378906 25.18945312 3.16210938 C23.8138289 3.08674838 22.43817746 3.01188284 21.0625 2.9375 C18.36560095 2.78429244 15.66915194 2.62517593 12.97265625 2.46484375 C11.77906494 2.399021 10.58547363 2.33319824 9.35571289 2.26538086 C6.18743319 2.01482284 3.12425161 1.57380571 0 1 C0 0.67 0 0.34 0 0 Z " fill="#E7EBEC" transform="translate(298,70)"/>
<path d="M0 0 C2 4 2 4 2.8125 6 C5.6725487 10.81692412 11.00382723 13.22423249 15.8125 15.75 C16.97394531 16.36359375 18.13539063 16.9771875 19.33203125 17.609375 C20.21246094 18.06828125 21.09289062 18.5271875 22 19 C21.34 19.66 20.68 20.32 20 21 C13.51827481 20.4006624 6.83795776 16.71034082 2.17578125 12.2578125 C-0.0352249 9.40694497 -0.97682288 7.20859408 -1.375 3.625 C-1 1 -1 1 0 0 Z " fill="#EBEDEF" transform="translate(255,121)"/>
<path d="M0 0 C5.86406048 0.53701623 11.7422814 0.72995615 17.625 0.95703125 C18.71031006 1.00053711 19.79562012 1.04404297 20.91381836 1.08886719 C23.50498032 1.19253855 26.09619895 1.29440768 28.6875 1.39453125 C28.6875 1.72453125 28.6875 2.05453125 28.6875 2.39453125 C27.51767578 2.40387695 26.34785156 2.41322266 25.14257812 2.42285156 C20.773711 2.46293187 16.40553477 2.52873984 12.03710938 2.60205078 C10.15178346 2.63015622 8.26634201 2.65142231 6.38085938 2.66552734 C3.659559 2.68710214 0.93963269 2.73382474 -1.78125 2.78515625 C-2.61491089 2.78638489 -3.44857178 2.78761353 -4.30749512 2.78887939 C-10.95032541 2.95256756 -16.52495518 4.60698643 -21.3125 9.39453125 C-22.3025 9.06453125 -23.2925 8.73453125 -24.3125 8.39453125 C-16.14287132 0.72153653 -11.17580548 -1.0251999 0 0 Z " fill="#E0E1E5" transform="translate(51.3125,65.60546875)"/>
<path d="M0 0 C0.55945313 0.26554688 1.11890625 0.53109375 1.6953125 0.8046875 C8.90958131 3.9826773 16.13431572 5.46082003 24 6 C24.66 5.67 25.32 5.34 26 5 C26.99 5.33 27.98 5.66 29 6 C29 9.63 29 13.26 29 17 C27.53867783 14.07735566 26.65900754 12.07536854 26 9 C25.07380859 9.03480469 25.07380859 9.03480469 24.12890625 9.0703125 C14.55399879 9.27434401 7.44256337 8.33409649 0 2 C0 1.34 0 0.68 0 0 Z " fill="#E0E3E6" transform="translate(28,189)"/>
<path d="M0 0 C0.99 0.33 1.98 0.66 3 1 C3 1.66 3 2.32 3 3 C3.66 3.33 4.32 3.66 5 4 C9 8.58823529 9 8.58823529 9 11 C9.66 11 10.32 11 11 11 C14.51647805 14.75899378 17.66951441 18.71223057 18 24 C17.01 24 16.02 24 15 24 C13.39013672 22.33520508 13.39013672 22.33520508 11.6796875 20.01953125 C11.06222656 19.18486328 10.44476563 18.35019531 9.80859375 17.49023438 C9.17050781 16.60658203 8.53242188 15.72292969 7.875 14.8125 C7.22917969 13.94818359 6.58335937 13.08386719 5.91796875 12.19335938 C0.70883348 5.06765547 0.70883348 5.06765547 0 0 Z " fill="#E5E8E8" transform="translate(319,234)"/>
<path d="M0 0 C0.66 0 1.32 0 2 0 C2 6.6 2 13.2 2 20 C-0.64 20 -3.28 20 -6 20 C-6.66 19.01 -7.32 18.02 -8 17 C-6.02 16.67 -4.04 16.34 -2 16 C-1.34 10.72 -0.68 5.44 0 0 Z " fill="#EEF2F4" transform="translate(130,99)"/>
<path d="M0 0 C2.5 1.3125 2.5 1.3125 5 3 C5.9075 3.598125 6.815 4.19625 7.75 4.8125 C10.50579204 7.49174226 10.74317902 9.23329225 11 13 C8.5625 11.75 8.5625 11.75 6 10 C5.33984375 7.890625 5.33984375 7.890625 5 6 C4.38511719 5.90203125 3.77023437 5.8040625 3.13671875 5.703125 C-3.54716981 4.46655232 -3.54716981 4.46655232 -6.0625 1.875 C-6.371875 1.25625 -6.68125 0.6375 -7 0 C-4.24779828 -1.37610086 -2.93781238 -0.81985462 0 0 Z " fill="#EBEEF0" transform="translate(299,123)"/>
<path d="M0 0 C1.32 0.99 2.64 1.98 4 3 C-0.62 3 -5.24 3 -10 3 C-10 16.2 -10 29.4 -10 43 C-10.33 43 -10.66 43 -11 43 C-11 29.47 -11 15.94 -11 2 C-7.7 1.67 -4.4 1.34 -1 1 C-0.67 0.67 -0.34 0.34 0 0 Z " fill="#FEFEFE" transform="translate(122,117)"/>
<path d="M0 0 C3.12482562 -0.08687496 6.24934246 -0.14034568 9.375 -0.1875 C10.70917969 -0.22520508 10.70917969 -0.22520508 12.0703125 -0.26367188 C13.34648438 -0.27817383 13.34648438 -0.27817383 14.6484375 -0.29296875 C15.82672119 -0.31653442 15.82672119 -0.31653442 17.02880859 -0.34057617 C17.67930176 -0.22818604 18.32979492 -0.1157959 19 0 C19.66 0.99 20.32 1.98 21 3 C14.07 3 7.14 3 0 3 C0 2.01 0 1.02 0 0 Z " fill="#D3D3D3" transform="translate(39,189)"/>
<path d="M0 0 C0.33 0.99 0.66 1.98 1 3 C-0.14453125 4.9375 -0.14453125 4.9375 -1.8125 7 C-3.64945001 9.30382329 -5.36184039 11.54276059 -7 14 C-8 13 -8 13 -8.375 10.3125 C-7.85372126 5.70787116 -6.25503845 4.25503845 -3 1 C-2.01 0.67 -1.02 0.34 0 0 Z " fill="#ECEFF1" transform="translate(262,98)"/>
<path d="M0 0 C1.03060547 0.63228516 1.03060547 0.63228516 2.08203125 1.27734375 C2.98308594 1.82519531 3.88414062 2.37304688 4.8125 2.9375 C5.70582031 3.48277344 6.59914063 4.02804688 7.51953125 4.58984375 C10.00703562 6.11009578 10.00703562 6.11009578 13 7 C13 7.66 13 8.32 13 9 C13.66 9 14.32 9 15 9 C15 9.66 15 10.32 15 11 C10.24583878 10.50506533 7.44779417 9.27876594 3.625 6.4375 C2.75101563 5.79683594 1.87703125 5.15617188 0.9765625 4.49609375 C-0.00183594 3.75552734 -0.00183594 3.75552734 -1 3 C-0.67 2.01 -0.34 1.02 0 0 Z " fill="#D5D9D8" transform="translate(251,158)"/>
<path d="M0 0 C2.13604308 3.20406462 2.24208908 3.99600747 2.1953125 7.66796875 C2.18886719 8.56064453 2.18242187 9.45332031 2.17578125 10.37304688 C2.15902344 11.30181641 2.14226562 12.23058594 2.125 13.1875 C2.11597656 14.12787109 2.10695313 15.06824219 2.09765625 16.03710938 C2.07409056 18.35832968 2.04119116 20.67903644 2 23 C1.01 23 0.02 23 -1 23 C-1.09510042 18.14987841 -0.95241562 13.76207809 0 9 C0.08664364 5.99805262 0.05886908 3.00232301 0 0 Z " fill="#E7EAEA" transform="translate(352,245)"/>
<path d="M0 0 C0 5.61 0 11.22 0 17 C-0.99 17.33 -1.98 17.66 -3 18 C-3 12.39 -3 6.78 -3 1 C-1 0 -1 0 0 0 Z " fill="#DFE2E3" transform="translate(209,148)"/>
<path d="M0 0 C4.78947368 3.43859649 4.78947368 3.43859649 5.65625 5.75 C6.09296591 8.60850415 6.09392066 11.35929974 6.0625 14.25 C6.05347656 15.32765625 6.04445313 16.4053125 6.03515625 17.515625 C6.02355469 18.33546875 6.01195312 19.1553125 6 20 C5.34 20.33 4.68 20.66 4 21 C3.97421875 20.20335938 3.9484375 19.40671875 3.921875 18.5859375 C3.57000466 12.01235982 2.99588199 8.19464659 -1 3 C-0.67 2.01 -0.34 1.02 0 0 Z " fill="#E3E4E6" transform="translate(342,75)"/>
<path d="M0 0 C2 4 2 4 2.8125 5.9375 C4.43924048 8.76289137 6.64519537 10.76913245 9 13 C7.35 13.33 5.7 13.66 4 14 C-0.87626031 8.1136572 -0.87626031 8.1136572 -1.375 3.625 C-1 1 -1 1 0 0 Z " fill="#E4E8EA" transform="translate(255,121)"/>
<path d="M0 0 C3.96724509 0.44080501 6.79232313 1.63644863 10 4 C11.875 6.5 11.875 6.5 13 9 C12.67 9.99 12.34 10.98 12 12 C11.34 11.67 10.68 11.34 10 11 C10 10.34 10 9.68 10 9 C9.34 8.67 8.68 8.34 8 8 C8 7.34 8 6.68 8 6 C6.329375 5.5978125 6.329375 5.5978125 4.625 5.1875 C1 4 1 4 -1 1 C-0.67 0.67 -0.34 0.34 0 0 Z " fill="#EAEEEF" transform="translate(299,94)"/>
<path d="M0 0 C0.70125 0.33773437 1.4025 0.67546875 2.125 1.0234375 C7.71673215 3.65215941 12.94817969 5.74396182 19 7 C19 7.33 19 7.66 19 8 C12.61194641 8.5323378 7.21326244 8.0505924 2 4 C0.77734375 1.859375 0.77734375 1.859375 0 0 Z " fill="#C1C4C4" transform="translate(28,189)"/>
<path d="M0 0 C1.41702513 0.14230808 2.8336096 0.28900746 4.25 0.4375 C5.43335938 0.55931641 5.43335938 0.55931641 6.640625 0.68359375 C8.82364639 0.97634993 10.8773182 1.42064419 13 2 C13 3.32 13 4.64 13 6 C8.31261335 5.09276387 3.65806256 4.0452733 -1 3 C-0.67 2.01 -0.34 1.02 0 0 Z " fill="#ECEEF2" transform="translate(287,113)"/>
<path d="M0 0 C0.33 0.66 0.66 1.32 1 2 C1.66 2 2.32 2 3 2 C1.88059018 6.85077588 0.8665284 9.777893 -3 13 C-3.66 12.67 -4.32 12.34 -5 12 C-4.39246975 8.59783062 -3.04845528 6.73127371 -1 4 C-0.29485154 1.85266073 -0.29485154 1.85266073 0 0 Z " fill="#EAECED" transform="translate(345,176)"/>
<path d="M0 0 C2.56780471 3.8415976 2.22688882 7.8139175 2.125 12.25 C2.11597656 12.99507812 2.10695313 13.74015625 2.09765625 14.5078125 C2.07418358 16.33868059 2.03831525 18.16938238 2 20 C1.34 20 0.68 20 0 20 C-1.41030314 13.26188501 -0.66561666 6.80977041 0 0 Z " fill="#D6DAD9" transform="translate(346,158)"/>
<path d="M0 0 C0.66 0 1.32 0 2 0 C2 3.96 2 7.92 2 12 C3.65 12.33 5.3 12.66 7 13 C6.34 13.66 5.68 14.32 5 15 C3.35 14.67 1.7 14.34 0 14 C0 9.38 0 4.76 0 0 Z " fill="#E9ECED" transform="translate(206,112)"/>
<path d="M0 0 C0.33 0 0.66 0 1 0 C1.22333047 2.54113858 1.42902091 5.08172584 1.625 7.625 C1.68945312 8.33785156 1.75390625 9.05070313 1.8203125 9.78515625 C2.15497142 14.34488399 1.78239103 17.68688582 0 22 C-0.33 22 -0.66 22 -1 22 C-1.02903577 18.89585298 -1.0468107 15.79174091 -1.0625 12.6875 C-1.07087891 11.80642578 -1.07925781 10.92535156 -1.08789062 10.01757812 C-1.09111328 9.17001953 -1.09433594 8.32246094 -1.09765625 7.44921875 C-1.10289307 6.66893311 -1.10812988 5.88864746 -1.11352539 5.0847168 C-1 3 -1 3 0 0 Z " fill="#E1E5E6" transform="translate(347,122)"/>
<path d="M0 0 C3.625 0.125 3.625 0.125 6.625 1.125 C6.625 1.785 6.625 2.445 6.625 3.125 C0.025 3.125 -6.575 3.125 -13.375 3.125 C-13.375 2.795 -13.375 2.465 -13.375 2.125 C-12.41787109 2.03412109 -12.41787109 2.03412109 -11.44140625 1.94140625 C-10.20197266 1.81572266 -10.20197266 1.81572266 -8.9375 1.6875 C-8.11378906 1.60628906 -7.29007813 1.52507812 -6.44140625 1.44140625 C-3.31825744 0.96319254 -3.65419955 0.13534072 0 0 Z " fill="#ECECEE" transform="translate(212.375,90.875)"/>
<path d="M0 0 C1 3 1 3 0 6 C-0.99 6 -1.98 6 -3 6 C-3.33 7.32 -3.66 8.64 -4 10 C-4.99 9.67 -5.98 9.34 -7 9 C-6.40112592 5.64630514 -5.27617653 3.53881228 -3 1 C-2.01 0.67 -1.02 0.34 0 0 Z " fill="#ECEFF0" transform="translate(99,201)"/>
<path d="M0 0 C0.66 0 1.32 0 2 0 C2 4.62 2 9.24 2 14 C1.01 14 0.02 14 -1 14 C-1.027193 12.41676312 -1.04648306 10.83338938 -1.0625 9.25 C-1.07410156 8.36828125 -1.08570313 7.4865625 -1.09765625 6.578125 C-1.00826198 4.2181162 -0.66912821 2.25501476 0 0 Z " fill="#E3E7E8" transform="translate(130,99)"/>
<path d="M0 0 C-2.01738489 1.01321573 -4.03746843 2.01809796 -6.0703125 3 C-6.74835937 3.33 -7.42640625 3.66 -8.125 4 C-8.80820312 4.33 -9.49140625 4.66 -10.1953125 5 C-12.16918065 5.98532608 -12.16918065 5.98532608 -14 8 C-14.99 7.67 -15.98 7.34 -17 7 C-15.92130607 6.03644756 -14.83681257 5.07938583 -13.75 4.125 C-12.84507813 3.32449219 -12.84507813 3.32449219 -11.921875 2.5078125 C-7.64925114 -0.84428671 -5.3417054 -1.21402395 0 0 Z " fill="#D3D5D5" transform="translate(44,67)"/>
<path d="M0 0 C3.28788824 3.11016455 5.83735988 6.01618925 8 10 C4.75777151 9.13540574 2.49887323 8.48278055 0.0625 6.125 C-1 4 -1 4 -0.6875 1.75 C-0.460625 1.1725 -0.23375 0.595 0 0 Z " fill="#E6E7E8" transform="translate(30,180)"/>
<path d="M0 0 C0.90105469 0.00902344 1.80210937 0.01804687 2.73046875 0.02734375 C3.41753906 0.03894531 4.10460937 0.05054687 4.8125 0.0625 C0.42184876 3.66186904 -3.57333479 4.0625 -9.1875 4.0625 C-8.8575 3.0725 -8.5275 2.0825 -8.1875 1.0625 C-5.17259443 0.05753148 -3.14568308 -0.04085303 0 0 Z " fill="#EAEBED" transform="translate(279.1875,90.9375)"/>
<path d="M0 0 C0.33 1.32 0.66 2.64 1 4 C0.01 4.495 0.01 4.495 -1 5 C-1.72159424 6.64363134 -2.39351421 8.31050386 -3 10 C-3.99 10 -4.98 10 -6 10 C-4.79157144 5.56909529 -3.48331435 3.01887244 0 0 Z " fill="#EAEDEE" transform="translate(254,149)"/>
<path d="M0 0 C0.66 0 1.32 0 2 0 C2.16808419 2.10405391 2.33441948 4.20824758 2.5 6.3125 C2.5928125 7.48425781 2.685625 8.65601562 2.78125 9.86328125 C2.92364989 11.905194 3 13.9531279 3 16 C0.73710461 14.20549962 0.05103219 13.24531901 -0.546875 10.37109375 C-0.61390625 9.40300781 -0.6809375 8.43492188 -0.75 7.4375 C-0.82734375 6.46683594 -0.9046875 5.49617188 -0.984375 4.49609375 C-1 2 -1 2 0 0 Z " fill="#E5E6E8" transform="translate(351,84)"/>
<path d="M0 0 C0.47050781 0.33773438 0.94101562 0.67546875 1.42578125 1.0234375 C2.35970703 1.69246094 2.35970703 1.69246094 3.3125 2.375 C4.23482422 3.03628906 4.23482422 3.03628906 5.17578125 3.7109375 C6.7652392 4.83410907 8.38062171 5.92041447 10 7 C9 8 9 8 6.4375 8.0625 C5.633125 8.041875 4.82875 8.02125 4 8 C3.67 7.01 3.34 6.02 3 5 C2.34 5 1.68 5 1 5 C0.67 3.35 0.34 1.7 0 0 Z " fill="#EBECED" transform="translate(340,262)"/>
<path d="M0 0 C0.99 0.33 1.98 0.66 3 1 C0.68116787 5.50884026 -2.06451569 7.93906776 -6 11 C-6 7.39426104 -5.18292538 6.58663434 -3 3.8125 C-2.443125 3.09707031 -1.88625 2.38164062 -1.3125 1.64453125 C-0.879375 1.10183594 -0.44625 0.55914062 0 0 Z " fill="#EDEEEF" transform="translate(89,211)"/>
<path d="M0 0 C2.39323804 2.39323804 2.44196109 3.73148638 3 7 C3.66868314 10.11332248 3.66868314 10.11332248 6.0625 11.1875 C6.701875 11.455625 7.34125 11.72375 8 12 C6 13 6 13 4.0625 13 C2 12 2 12 0.1875 8.75 C-0.96818526 5.10046759 -1.18361314 3.55083942 0 0 Z " fill="#DFE0E2" transform="translate(25,178)"/>
<path d="M0 0 C4.29 0.66 8.58 1.32 13 2 C12.67 2.66 12.34 3.32 12 4 C7.48382401 4.07654536 3.40914783 4.10228696 -1 3 C-0.67 2.01 -0.34 1.02 0 0 Z " fill="#E4E7E6" transform="translate(266,167)"/>
<path d="M0 0 C7.50769231 -0.36923077 7.50769231 -0.36923077 10 1.5 C10.495 2.2425 10.495 2.2425 11 3 C6.98195309 3.84098656 3.98196457 4.05404945 0 3 C0 2.01 0 1.02 0 0 Z " fill="#E9EAEC" transform="translate(286,91)"/>
<path d="M0 0 C-0.33 0.66 -0.66 1.32 -1 2 C-3.31 2 -5.62 2 -8 2 C-8.33 2.99 -8.66 3.98 -9 5 C-10.65 5.33 -12.3 5.66 -14 6 C-13 3 -13 3 -10.375 1.3125 C-6.67051902 -0.12813149 -3.93906235 -0.23634374 0 0 Z " fill="#E2E6E5" transform="translate(47,70)"/>
<path d="M0 0 C4.59817352 1.45205479 4.59817352 1.45205479 6.375 3.875 C7.09806909 6.3334349 6.85178626 7.61499846 6 10 C3.05114309 7.05114309 1.3157194 3.9471582 0 0 Z " fill="#ECEFF1" transform="translate(238,101)"/>
<path d="M0 0 C0 1.65 0 3.3 0 5 C-0.66 5 -1.32 5 -2 5 C-2.33 5.99 -2.66 6.98 -3 8 C-3.93423645 4.98968256 -4.04449911 4.13349732 -3 1 C-4.65 1 -6.3 1 -8 1 C-8 0.67 -8 0.34 -8 0 C-2.25 -1.125 -2.25 -1.125 0 0 Z " fill="#EBEFF1" transform="translate(132,94)"/>
<path d="M0 0 C5.37305699 -0.44041451 5.37305699 -0.44041451 8 0 C10 2.5 10 2.5 11 5 C9.53932801 4.54917531 8.08151968 4.08906463 6.625 3.625 C5.81289063 3.36976562 5.00078125 3.11453125 4.1640625 2.8515625 C2 2 2 2 0 0 Z " fill="#E2E4E6" transform="translate(370,99)"/>
<path d="M0 0 C4.67461851 -0.32613618 7.16674383 0.29417212 11 3 C10.01 3.66 9.02 4.32 8 5 C5.3125 4.125 5.3125 4.125 3 3 C3 2.34 3 1.68 3 1 C2.01 0.67 1.02 0.34 0 0 Z " fill="#DDE1E2" transform="translate(331,71)"/>
<path d="M0 0 C1.65 0.33 3.3 0.66 5 1 C5 1.66 5 2.32 5 3 C5.66 3 6.32 3 7 3 C7 3.66 7 4.32 7 5 C1.25 4.125 1.25 4.125 -1 3 C-0.67 2.01 -0.34 1.02 0 0 Z " fill="#DAE0E0" transform="translate(259,164)"/>
<path d="M0 0 C0.66 0 1.32 0 2 0 C1.67 1.65 1.34 3.3 1 5 C-1.31 5 -3.62 5 -6 5 C-6 4.34 -6 3.68 -6 3 C-4.02 3 -2.04 3 0 3 C0 2.01 0 1.02 0 0 Z " fill="#FCFCFD" transform="translate(166,165)"/>
<path d="M0 0 C0.66 0 1.32 0 2 0 C3.38232443 1.62626404 4.71937515 3.2925002 6 5 C4.125 5.625 4.125 5.625 2 6 C1.34 5.34 0.68 4.68 0 4 C0 2.68 0 1.36 0 0 Z " fill="#DFE1E3" transform="translate(57,242)"/>
<path d="M0 0 C0.99 0.495 0.99 0.495 2 1 C2.8125 3.875 2.8125 3.875 3 7 C2.01 7.99 1.02 8.98 0 10 C0 6.7 0 3.4 0 0 Z " fill="#ECEEEF" transform="translate(311,139)"/>
<path d="M0 0 C0.99 0.33 1.98 0.66 3 1 C2.34 2.32 1.68 3.64 1 5 C0.01 5 -0.98 5 -2 5 C-2 3.68 -2 2.36 -2 1 C-1.34 0.67 -0.68 0.34 0 0 Z " fill="#EDEEF2" transform="translate(303,116)"/>
<path d="M0 0 C0.99 0.33 1.98 0.66 3 1 C3.33 2.98 3.66 4.96 4 7 C3.01 6.67 2.02 6.34 1 6 C-0.1875 3.4375 -0.1875 3.4375 -1 1 C-0.67 0.67 -0.34 0.34 0 0 Z " fill="#CFD0D2" transform="translate(349,77)"/>
<path d="M0 0 C0.33 0.66 0.66 1.32 1 2 C-0.65 3.98 -2.3 5.96 -4 8 C-4.33 6.68 -4.66 5.36 -5 4 C-3.35 2.68 -1.7 1.36 0 0 Z " fill="#E0E5E7" transform="translate(81,224)"/>
<path d="M0 0 C1.9375 0.8125 1.9375 0.8125 4 2 C4.33 2.99 4.66 3.98 5 5 C3.02 4.34 1.04 3.68 -1 3 C-0.67 2.01 -0.34 1.02 0 0 Z " fill="#D7DEDD" transform="translate(33,185)"/>
<path d="M0 0 C2.64 0.33 5.28 0.66 8 1 C7.34 2.32 6.68 3.64 6 5 C5.67 4.34 5.34 3.68 5 3 C3.35636866 2.27840576 1.68949614 1.60648579 0 1 C0 0.67 0 0.34 0 0 Z " fill="#FAFBFC" transform="translate(270,146)"/>
</svg>
