<?xml version="1.0" encoding="UTF-8"?>
<svg version="1.1" xmlns="http://www.w3.org/2000/svg" width="362" height="347">
<path d="M0 0 C4.95215278 4.63538394 7.70488353 9.89590058 9.83203125 16.27734375 C9.80015604 18.67378018 9.73201091 21.06979241 9.64453125 23.46484375 C9.51711725 29.515624 10.20465149 34.82792718 11.83203125 40.65234375 C13.68657341 47.32660905 15.3697241 53.85647682 13.01953125 60.61328125 C12.07642895 63.41538327 11.63051265 65.30914268 11.83203125 68.27734375 C14.59638346 73.39496992 18.14785179 77.79483929 21.83203125 82.27734375 C30.31410826 92.7313686 30.31410826 92.7313686 30.58203125 98.15234375 C30.11566644 102.31261397 29.11590684 104.52805256 25.83203125 107.27734375 C22.98450476 108.58903234 20.13505338 109.78085872 17.1953125 110.87109375 C14.60449177 112.07079899 14.60449177 112.07079899 13.953125 114.77734375 C13.69111634 117.31228492 13.69111634 117.31228492 14.58203125 119.77734375 C14.66453125 120.60234375 14.74703125 121.42734375 14.83203125 122.27734375 C12.38690818 125.19790742 9.99859216 127.16630314 6.83203125 129.27734375 C7.82203125 129.79296875 8.81203125 130.30859375 9.83203125 130.83984375 C12.83203125 133.27734375 12.83203125 133.27734375 13.45703125 136.52734375 C12.9096072 139.81188802 12.44999877 141.19075217 10.88671875 143.94140625 C8.25071112 149.04609336 7.72315474 154.10258364 7.0546875 159.7421875 C6.17447506 166.12101098 4.14671182 170.23822039 -0.79296875 174.58984375 C-12.99015973 180.68843924 -31.20881172 176.59872318 -44.16796875 174.27734375 C-43.88409835 176.82009773 -43.59113453 179.36125929 -43.29296875 181.90234375 C-43.21433594 182.61519531 -43.13570312 183.32804688 -43.0546875 184.0625 C-42.54032159 188.37526031 -41.60432924 192.15819425 -40.16796875 196.27734375 C-39.91796875 200.02734375 -39.91796875 200.02734375 -40.16796875 203.27734375 C-42.81526945 205.92464445 -44.75784301 205.52271181 -48.35995483 205.54840088 C-49.22859161 205.54435242 -50.09722839 205.54030396 -50.9921875 205.53613281 C-52.36306015 205.54138977 -52.36306015 205.54138977 -53.7616272 205.54675293 C-56.7929842 205.55558024 -59.82410923 205.54971756 -62.85546875 205.54296875 C-64.95532272 205.54431511 -67.05517639 205.5462554 -69.1550293 205.54876709 C-73.56008873 205.55171971 -77.96506716 205.54741626 -82.37011719 205.53808594 C-88.02650906 205.52669136 -93.68271116 205.53325009 -99.33909607 205.54523087 C-103.67640624 205.55244573 -108.01367116 205.55016325 -112.35098267 205.54497528 C-114.43706281 205.54363775 -116.52314701 205.5452901 -118.60922241 205.54993439 C-121.52084289 205.55499348 -124.43215275 205.54729807 -127.34375 205.53613281 C-128.21238678 205.54018127 -129.08102356 205.54422974 -129.97598267 205.54840088 C-135.93944103 205.50587147 -135.93944103 205.50587147 -138.16796875 203.27734375 C-138.57866384 197.31900545 -137.65931333 192.163376 -136.23046875 186.40234375 C-134.73968676 180.02827847 -133.41873244 173.84081064 -133.16796875 167.27734375 C-133.12800781 166.31570312 -133.08804688 165.3540625 -133.046875 164.36328125 C-132.98143349 161.32217567 -133.04269792 158.31617165 -133.16796875 155.27734375 C-133.17699219 154.43171875 -133.18601563 153.58609375 -133.1953125 152.71484375 C-133.8164624 145.91488693 -137.53957691 142.46282829 -142.29125977 138.00415039 C-160.30331456 121.03387246 -170.46447175 96.22339948 -171.2890625 71.671875 C-171.82364135 46.87889312 -164.96648652 23.93637045 -147.6328125 5.73486328 C-132.95280994 -8.87173927 -111.43153551 -17.05394761 -91.16796875 -19.72265625 C-90.33652344 -19.83351562 -89.50507813 -19.944375 -88.6484375 -20.05859375 C-58.95193389 -23.35325832 -24.07458561 -19.12953559 0 0 Z M-137.16796875 12.27734375 C-137.84214844 12.84710938 -138.51632813 13.416875 -139.2109375 14.00390625 C-151.26358158 24.96085541 -158.41247939 42.47863922 -159.29345703 58.56933594 C-160.1947375 82.16567393 -155.40786115 105.90680091 -139.1081543 123.97509766 C-136.82340819 126.4376194 -134.50006191 128.85951187 -132.16796875 131.27734375 C-121.59733137 142.47992141 -120.65998945 153.32189278 -121.06152344 168.16503906 C-121.29048624 172.70858524 -121.94855089 177.18383532 -122.6328125 181.6796875 C-123.25522447 185.86393146 -123.70081214 190.07293429 -124.16796875 194.27734375 C-101.06796875 194.27734375 -77.96796875 194.27734375 -54.16796875 194.27734375 C-55.15796875 185.36734375 -55.15796875 185.36734375 -56.16796875 176.27734375 C-56.16796875 174.62734375 -56.16796875 172.97734375 -56.16796875 171.27734375 C-56.95042969 170.85582031 -57.73289062 170.43429688 -58.5390625 170 C-60.05693359 169.17822266 -60.05693359 169.17822266 -61.60546875 168.33984375 C-62.61480469 167.79457031 -63.62414062 167.24929687 -64.6640625 166.6875 C-67.16796875 165.27734375 -67.16796875 165.27734375 -68.16796875 164.27734375 C-67.8806682 161.93789639 -67.54860096 159.60342945 -67.16796875 157.27734375 C-63.62991896 156.00913869 -61.9059539 156.53980336 -58.54296875 158.08984375 C-54.09572684 160.0061887 -49.8683484 161.08710877 -45.1015625 161.8828125 C-43.16796875 162.27734375 -43.16796875 162.27734375 -42.16796875 163.27734375 C-31.77024085 165.06589991 -18.59101998 167.08871348 -8.16796875 165.27734375 C-5.3245393 162.60295045 -4.81539106 160.40439593 -4.66796875 156.58984375 C-4.35886819 152.13748035 -3.39054669 148.4382875 -1.7890625 144.28515625 C-0.97095396 141.99073355 -0.97095396 141.99073355 -1.16796875 138.27734375 C-3.30081327 136.46543899 -3.30081327 136.46543899 -6.04296875 135.02734375 C-6.94789063 134.5065625 -7.8528125 133.98578125 -8.78515625 133.44921875 C-11.02452071 132.1302372 -11.02452071 132.1302372 -13.16796875 132.27734375 C-13.53626311 125.77081005 -13.53626311 125.77081005 -11.97265625 123.67578125 C-9.79045892 121.98481449 -7.69704409 121.15758176 -5.10546875 120.21484375 C-1.27603809 118.8321102 -1.27603809 118.8321102 1.83203125 116.27734375 C2.13685092 114.68268527 2.37917103 113.07565051 2.58203125 111.46484375 C3.31390279 107.52748834 3.70644286 106.41461478 6.51953125 103.33984375 C9.92342117 101.22044059 13.0932619 99.6980761 16.83203125 98.27734375 C16.21147491 94.79442812 14.85684105 92.6475847 12.7421875 89.8359375 C12.12279297 89.00513672 11.50339844 88.17433594 10.86523438 87.31835938 C10.21490234 86.45919922 9.56457031 85.60003906 8.89453125 84.71484375 C7.61414601 83.00553583 6.33418015 81.29591366 5.0546875 79.5859375 C4.48500244 78.83111084 3.91531738 78.07628418 3.32836914 77.29858398 C0.00858798 72.81425241 -0.71783242 69.78655474 -0.16796875 64.27734375 C0.16203125 63.32859375 0.49203125 62.37984375 0.83203125 61.40234375 C3.44893109 53.22453176 1.42004509 46.20438738 -1.203125 38.26953125 C-2.95047918 32.85061101 -3.76101384 29.46343392 -1.16796875 24.27734375 C-1.37342719 18.83269509 -3.00766114 14.6619428 -6.16796875 10.27734375 C-38.97728429 -18.12407206 -105.19204707 -16.15949533 -137.16796875 12.27734375 Z " fill="#F6F8F9" transform="translate(237.16796875,73.72265625)"/>
<path d="M0 0 C2.77268432 2.68214769 4.49204476 4.39800928 5.7265625 8.1015625 C5.0665625 8.7615625 4.4065625 9.4215625 3.7265625 10.1015625 C2.7365625 8.1215625 2.7365625 8.1215625 1.7265625 6.1015625 C1.0665625 6.1015625 0.4065625 6.1015625 -0.2734375 6.1015625 C-2.71126371 3.79204293 -5.00787286 1.39202382 -7.2734375 -1.0859375 C-9.54696989 -3.14632623 -11.31915531 -4.0860099 -14.2734375 -4.8984375 C-16.51584532 -4.61103825 -16.51584532 -4.61103825 -18.2734375 -3.8984375 C-18.2734375 -2.9084375 -18.2734375 -1.9184375 -18.2734375 -0.8984375 C-17.68175781 -0.57230469 -17.09007812 -0.24617188 -16.48046875 0.08984375 C-14.07438094 1.42045348 -11.6738991 2.76083646 -9.2734375 4.1015625 C-7.7575 4.936875 -7.7575 4.936875 -6.2109375 5.7890625 C-5.5715625 6.2221875 -4.9321875 6.6553125 -4.2734375 7.1015625 C-4.2734375 7.7615625 -4.2734375 8.4215625 -4.2734375 9.1015625 C-3.6134375 9.1015625 -2.9534375 9.1015625 -2.2734375 9.1015625 C-0.8518056 12.4187036 0.11665359 15.54376054 0.7265625 19.1015625 C-1.0859375 18.4765625 -1.0859375 18.4765625 -3.2734375 17.1015625 C-3.68851563 16.17601562 -4.10359375 15.25046875 -4.53125 14.296875 C-9.81588409 4.60442951 -23.70180266 0.3008875 -33.73828125 -2.68359375 C-64.15171175 -11.11407449 -96.91354791 -10.54206703 -125.1484375 4.28125 C-129.55836423 6.85003232 -133.46500062 9.71205367 -137.2734375 13.1015625 C-138.20929688 13.91560547 -138.20929688 13.91560547 -139.1640625 14.74609375 C-143.36724908 18.64774738 -146.036731 22.88411312 -148.8515625 27.85546875 C-150.58181832 30.58870252 -152.56534354 32.34926641 -155.2734375 34.1015625 C-155.6034375 33.4415625 -155.9334375 32.7815625 -156.2734375 32.1015625 C-155.6134375 32.1015625 -154.9534375 32.1015625 -154.2734375 32.1015625 C-154.1703125 31.1940625 -154.0671875 30.2865625 -153.9609375 29.3515625 C-153.25524648 26.01556859 -152.45576909 24.63306714 -150.2734375 22.1015625 C-149.6134375 21.1115625 -148.9534375 20.1215625 -148.2734375 19.1015625 C-147.6134375 19.1015625 -146.9534375 19.1015625 -146.2734375 19.1015625 C-145.9640625 18.4828125 -145.6546875 17.8640625 -145.3359375 17.2265625 C-144.6484375 15.8515625 -143.9609375 14.4765625 -143.2734375 13.1015625 C-142.6134375 13.1015625 -141.9534375 13.1015625 -141.2734375 13.1015625 C-140.9434375 12.4415625 -140.6134375 11.7815625 -140.2734375 11.1015625 C-138.8359375 8.9765625 -138.8359375 8.9765625 -137.2734375 7.1015625 C-136.6134375 7.1015625 -135.9534375 7.1015625 -135.2734375 7.1015625 C-135.2734375 6.4415625 -135.2734375 5.7815625 -135.2734375 5.1015625 C-123.2734375 -0.8984375 -123.2734375 -0.8984375 -119.9296875 -2.4296875 C-117.01781413 -3.64535407 -117.01781413 -3.64535407 -116.3984375 -6.5859375 C-116.3571875 -7.3490625 -116.3159375 -8.1121875 -116.2734375 -8.8984375 C-121.14756921 -7.4299491 -125.29345844 -6.16770601 -129.2734375 -2.8984375 C-130.93416599 -2.21711299 -132.6012045 -1.55101623 -134.2734375 -0.8984375 C-138.57632307 1.19784009 -141.03764998 3.97521587 -143.94140625 7.67578125 C-144.38097656 8.14628906 -144.82054687 8.61679688 -145.2734375 9.1015625 C-145.9334375 9.1015625 -146.5934375 9.1015625 -147.2734375 9.1015625 C-147.5621875 9.7409375 -147.8509375 10.3803125 -148.1484375 11.0390625 C-149.2734375 13.1015625 -149.2734375 13.1015625 -151.2734375 14.1015625 C-152.84510881 16.9829599 -154.17598669 19.84360448 -155.3359375 22.9140625 C-156.2734375 25.1015625 -156.2734375 25.1015625 -158.2734375 26.1015625 C-159.6483524 29.00416061 -160.2734375 30.86294955 -160.2734375 34.1015625 C-159.9434375 34.7615625 -159.6134375 35.4215625 -159.2734375 36.1015625 C-157.9534375 36.1015625 -156.6334375 36.1015625 -155.2734375 36.1015625 C-156.9234375 42.7015625 -158.5734375 49.3015625 -160.2734375 56.1015625 C-162.63296844 53.74203156 -162.76485163 52.32260633 -163.2734375 49.1015625 C-164.7584375 50.0915625 -164.7584375 50.0915625 -166.2734375 51.1015625 C-166.44010417 54.6015625 -166.44010417 54.6015625 -166.2734375 58.1015625 C-166.7684375 59.0915625 -166.7684375 59.0915625 -167.2734375 60.1015625 C-167.37156949 62.59238326 -167.41249298 65.04890039 -167.3984375 67.5390625 C-167.40230469 68.22033203 -167.40617187 68.90160156 -167.41015625 69.60351562 C-167.4040749 72.70804296 -167.26234062 75.13485315 -166.2734375 78.1015625 C-166.54914889 80.11031692 -166.87579487 82.11334937 -167.2734375 84.1015625 C-167.6034375 84.1015625 -167.9334375 84.1015625 -168.2734375 84.1015625 C-169.51799405 77.54215801 -169.5689717 71.02535951 -169.62353516 64.3737793 C-169.63995698 62.91658402 -169.66706123 61.45946456 -169.70556641 60.00268555 C-170.23456985 39.79245385 -162.8359679 22.12852581 -149.2109375 7.10546875 C-134.38421788 -8.46357006 -112.30807326 -17.12817919 -91.2734375 -19.8984375 C-90.44199219 -20.00929687 -89.61054688 -20.12015625 -88.75390625 -20.234375 C-59.42400849 -23.48836666 -23.45480384 -19.58597021 0 0 Z " fill="#F3F6F7" transform="translate(237.2734375,73.8984375)"/>
<path d="M0 0 C3.36193755 0.38791587 4.80578344 0.96938003 7.02734375 3.51953125 C15.22927856 15.96655692 18.14523524 32.73170151 15.55859375 47.2578125 C13.64775484 56.12254 11.13232015 66.94509561 4.2265625 73.2109375 C2.25 74.375 2.25 74.375 -0.375 74.1875 C-2.75 73.375 -2.75 73.375 -4.75 71.375 C-5.46707986 67.17496082 -4.55956615 64.7718628 -2.4375 61.25 C4.91635483 48.73591182 4.7114168 34.09418371 1.25390625 20.34765625 C0.01756342 16.68673448 -1.7869885 13.65704262 -3.8046875 10.3828125 C-5.37410623 7.04941899 -4.76170258 4.84369457 -3.75 1.375 C-2.75 0.375 -2.75 0.375 0 0 Z " fill="#F5F8F9" transform="translate(298.75,170.625)"/>
<path d="M0 0 C7.86695544 8.24157237 9.61978161 19.26706486 9.54711914 30.265625 C9.18209764 39.60384435 6.29375685 47.98766461 0 55 C-2.5 56.0625 -2.5 56.0625 -5 56 C-7.67265497 54.12191813 -8.8053607 52.90020674 -9.5 49.6875 C-8.93503213 46.65079771 -7.62323066 44.56271668 -6.0234375 41.953125 C-1.59200137 33.49618582 -2.59720294 24.35403548 -5.1328125 15.515625 C-6.08640288 12.7493538 -7.46730335 10.48150886 -9 8 C-9.41507041 5.09450714 -9.42687961 3.68775048 -7.875 1.1875 C-4.97157125 -0.65133821 -3.36422788 -0.67284558 0 0 Z " fill="#F5F7F8" transform="translate(289,180)"/>
<path d="M0 0 C2.15266842 2.15266842 2.93474462 3.84773744 4.125 6.625 C4.47820312 7.44226563 4.83140625 8.25953125 5.1953125 9.1015625 C5.46085937 9.72804687 5.72640625 10.35453125 6 11 C6.99 11 7.98 11 9 11 C9.66 11 10.32 11 11 11 C11.33 10.34 11.66 9.68 12 9 C15.16820879 11.90134023 17.07047398 14.7095464 19.0625 18.5 C23.11741211 25.6505977 28.33576254 31.12751852 34 37 C35.34559032 38.42603321 36.68083978 39.86198273 38 41.3125 C38.515625 41.86550781 39.03125 42.41851562 39.5625 42.98828125 C44.21409484 49.49798599 44.31713442 54.69801139 43.6875 62.4375 C43.62626953 63.35982422 43.56503906 64.28214844 43.50195312 65.23242188 C43.34990065 67.48981627 43.1822611 69.74487794 43 72 C42.67 72 42.34 72 42 72 C41.94392578 70.86111328 41.94392578 70.86111328 41.88671875 69.69921875 C41.82097656 68.70535156 41.75523438 67.71148437 41.6875 66.6875 C41.62949219 65.70136719 41.57148437 64.71523437 41.51171875 63.69921875 C40.95377187 60.75615543 40.31459868 59.81817001 38 58 C38.33 57.67 38.66 57.34 39 57 C38.91015699 55.14227838 38.75388139 53.28752015 38.5625 51.4375 C38.40974609 49.91962891 38.40974609 49.91962891 38.25390625 48.37109375 C38.17011719 47.58863281 38.08632812 46.80617187 38 46 C37.34 46 36.68 46 36 46 C35.34 44.35 34.68 42.7 34 41 C33.34 41 32.68 41 32 41 C32 40.34 32 39.68 32 39 C28.71303767 38.20046862 27.28976808 37.90341064 24 39 C26.189632 42.62131446 27.70471608 44.77558422 31.125 47.375 C35.19657093 51.09252129 35.78952906 55.17991042 36.18603516 60.49267578 C36.2667753 63.12341736 36.27318759 65.74320902 36.25 68.375 C36.26160156 69.72658203 36.26160156 69.72658203 36.2734375 71.10546875 C36.27085938 71.96527344 36.26828125 72.82507813 36.265625 73.7109375 C36.26336914 74.48743652 36.26111328 75.26393555 36.25878906 76.06396484 C36 78 36 78 34 80 C33.92483154 79.23856689 33.84966309 78.47713379 33.7722168 77.69262695 C33.42330226 74.23117319 33.05560594 70.77196327 32.6875 67.3125 C32.51057617 65.51522461 32.51057617 65.51522461 32.33007812 63.68164062 C32.20439453 62.52470703 32.07871094 61.36777344 31.94921875 60.17578125 C31.78425903 58.58117065 31.78425903 58.58117065 31.6159668 56.9543457 C30.46810959 51.4489077 27.46469805 48.29234474 23.4375 44.5625 C12.20331269 33.49207636 0.58268469 17.97178641 -0.02734375 1.66015625 C-0.01832031 1.11230469 -0.00929688 0.56445312 0 0 Z " fill="#F1F4F5" transform="translate(72,168)"/>
<path d="M0 0 C3.48868657 0.35598843 3.89743635 0.73782972 6.0625 3.3125 C10.71947929 10.36805724 11.15851675 18.09237438 10.0625 26.3125 C8.344563 31.43352595 6.60679141 35.2829724 2.0625 38.3125 C-1.25990324 37.9883631 -2.54526303 37.70473697 -4.9375 35.3125 C-5.38855848 31.52360879 -4.84949112 28.87347013 -3.375 25.4375 C-1.55943551 20.96710065 -1.9199819 18.00873737 -2.9375 13.3125 C-3.288125 12.631875 -3.63875 11.95125 -4 11.25 C-5.45162734 8.24997016 -5.17969179 5.58208915 -4.9375 2.3125 C-2.9375 0.3125 -2.9375 0.3125 0 0 Z " fill="#F7F9FA" transform="translate(271.9375,188.6875)"/>
<path d="M0 0 C-2.49632407 1.24816203 -4.81128471 1.2751178 -7.56054688 1.4934082 C-22.38481216 2.73658235 -37.03104083 6.57014454 -50 14 C-51.093125 14.53625 -52.18625 15.0725 -53.3125 15.625 C-54.6428125 16.305625 -54.6428125 16.305625 -56 17 C-56.825 17.4125 -57.65 17.825 -58.5 18.25 C-61.46806349 20.32764445 -63.4423489 22.73787472 -65.66796875 25.57421875 C-66.10753906 26.04472656 -66.54710938 26.51523438 -67 27 C-67.66 27 -68.32 27 -69 27 C-69.28875 27.639375 -69.5775 28.27875 -69.875 28.9375 C-71 31 -71 31 -73 32 C-74.13350534 34.01669827 -74.13350534 34.01669827 -75 36 C-75.66 35.67 -76.32 35.34 -77 35 C-74.04892353 24.50728367 -63.04212333 17.17063203 -54.14990234 11.90429688 C-41.47278758 4.79659885 -13.59065919 -9.06043946 0 0 Z " fill="#E9EAEC" transform="translate(159,56)"/>
<path d="M0 0 C4.64150888 1.8528604 9.05593623 3.02501605 13.9765625 3.85546875 C15.875 4.25 15.875 4.25 16.875 5.25 C19.56362664 5.64993686 22.23852217 6.00134543 24.9375 6.3125 C25.69611328 6.40337891 26.45472656 6.49425781 27.23632812 6.58789062 C29.1154301 6.8124374 30.99516095 7.03170978 32.875 7.25 C33.37 8.735 33.37 8.735 33.875 10.25 C30.52576556 10.01399697 27.17678627 9.775282 23.828125 9.53125 C21.31852543 9.35270141 18.80812951 9.18477648 16.296875 9.03125 C1.94318182 8.09659091 1.94318182 8.09659091 -1.875 4.6875 C-2.49375 3.9759375 -2.49375 3.9759375 -3.125 3.25 C-4.115 2.92 -5.105 2.59 -6.125 2.25 C-5.135 3.57 -4.145 4.89 -3.125 6.25 C-3.455 6.58 -3.785 6.91 -4.125 7.25 C-0.825 8.9 2.475 10.55 5.875 12.25 C5.875 16.87 5.875 21.49 5.875 26.25 C3.66586 22.93629 3.65018447 21.9053979 3.75 18.0625 C3.76804688 17.16144531 3.78609375 16.26039063 3.8046875 15.33203125 C3.82789063 14.64496094 3.85109375 13.95789063 3.875 13.25 C2.84375 13.1675 1.8125 13.085 0.75 13 C-3.69741695 12.13920962 -6.89686157 10.47813843 -10.125 7.25 C-9.9375 3.8125 -9.9375 3.8125 -9.125 0.25 C-5.7199964 -2.37100729 -3.77078675 -1.60505792 0 0 Z " fill="#EEF1F2" transform="translate(178.125,230.75)"/>
<path d="M0 0 C0.66 0 1.32 0 2 0 C2.103125 0.639375 2.20625 1.27875 2.3125 1.9375 C2.539375 2.618125 2.76625 3.29875 3 4 C3.99 4.33 4.98 4.66 6 5 C9 9.33333333 9 9.33333333 9 12 C9.99 12.33 10.98 12.66 12 13 C12 13.99 12 14.98 12 16 C12.556875 16.226875 13.11375 16.45375 13.6875 16.6875 C16.6469509 18.36718835 18.66126784 20.54133285 21 23 C21.556875 23.433125 22.11375 23.86625 22.6875 24.3125 C26.87822833 29.70057928 26.30704705 37.90016016 26.25 44.375 C26.25773437 45.27605469 26.26546875 46.17710937 26.2734375 47.10546875 C26.27085938 47.96527344 26.26828125 48.82507813 26.265625 49.7109375 C26.26336914 50.48743652 26.26111328 51.26393555 26.25878906 52.06396484 C26 54 26 54 24 56 C23.92483154 55.23856689 23.84966309 54.47713379 23.7722168 53.69262695 C23.42330226 50.23117319 23.05560594 46.77196327 22.6875 43.3125 C22.56955078 42.11431641 22.45160156 40.91613281 22.33007812 39.68164062 C22.20439453 38.52470703 22.07871094 37.36777344 21.94921875 36.17578125 C21.78425903 34.58117065 21.78425903 34.58117065 21.6159668 32.9543457 C20.45568121 27.3892978 17.35965434 24.17436938 13.3125 20.375 C8.25687013 15.41587995 3.53124979 10.17475523 0 4 C0 2.68 0 1.36 0 0 Z " fill="#EAEBED" transform="translate(82,192)"/>
<path d="M0 0 C3.25 0.375 3.25 0.375 5.875 2.3125 C10.48475578 8.25665876 12.89221863 13.82893113 12.25 21.375 C11.59 20.715 10.93 20.055 10.25 19.375 C10.25 18.055 10.25 16.735 10.25 15.375 C9.59 15.375 8.93 15.375 8.25 15.375 C6.8283681 12.0578589 5.85990891 8.93280196 5.25 5.375 C4.59 5.375 3.93 5.375 3.25 5.375 C2.92 6.035 2.59 6.695 2.25 7.375 C1.59 8.035 0.93 8.695 0.25 9.375 C1.24 10.86 1.24 10.86 2.25 12.375 C4.67665665 17.83497746 6.6155849 23.34284914 6.25 29.375 C4.25 26.375 4.25 26.375 4.25 24.375 C3.59 24.375 2.93 24.375 2.25 24.375 C1.86908203 23.27091797 1.86908203 23.27091797 1.48046875 22.14453125 C1.13628906 21.16871094 0.79210937 20.19289062 0.4375 19.1875 C0.10105469 18.22457031 -0.23539062 17.26164062 -0.58203125 16.26953125 C-1.66681869 13.33552882 -1.66681869 13.33552882 -3.40234375 10.74609375 C-5.32229752 7.36808813 -4.60125304 5.06376315 -3.75 1.375 C-2.75 0.375 -2.75 0.375 0 0 Z " fill="#F2F5F5" transform="translate(298.75,170.625)"/>
<path d="M0 0 C13.29180279 0.90625928 27.68544568 8.93764173 36.79296875 18.421875 C38 20 38 20 39 23 C38.34 23.66 37.68 24.32 37 25 C36.34 23.68 35.68 22.36 35 21 C34.34 21 33.68 21 33 21 C30.56217379 18.69048043 28.26556464 16.29046132 26 13.8125 C23.03191158 11.12266987 20.46881044 9.92835071 16.4375 10.125 C14 10 14 10 12.3125 8.1875 C8.81159318 4.87583139 4.5958316 4.15772857 0 3 C0 2.01 0 1.02 0 0 Z " fill="#E8E9EC" transform="translate(204,59)"/>
<path d="M0 0 C0.66 0.33 1.32 0.66 2 1 C2 1.66 2 2.32 2 3 C0.22949028 4.2492429 -1.59420631 5.42338592 -3.4375 6.5625 C-12.33166329 12.37670568 -18.48375285 18.54798347 -23.6484375 27.82421875 C-25.33662425 30.54190667 -27.32459189 32.26885357 -30 34 C-30.33 33.34 -30.66 32.68 -31 32 C-30.34 32 -29.68 32 -29 32 C-28.896875 31.0925 -28.79375 30.185 -28.6875 29.25 C-27.98180898 25.91400609 -27.18233159 24.53150464 -25 22 C-24.34 21.01 -23.68 20.02 -23 19 C-22.34 19 -21.68 19 -21 19 C-20.690625 18.38125 -20.38125 17.7625 -20.0625 17.125 C-19.375 15.75 -18.6875 14.375 -18 13 C-17.34 13 -16.68 13 -16 13 C-15.67 12.34 -15.34 11.68 -15 11 C-13.5625 8.875 -13.5625 8.875 -12 7 C-11.34 7 -10.68 7 -10 7 C-10 6.34 -10 5.68 -10 5 C-8.38007835 4.13624104 -6.75388139 3.28424146 -5.125 2.4375 C-4.22007813 1.96183594 -3.31515625 1.48617187 -2.3828125 0.99609375 C-1.59648438 0.66738281 -0.81015625 0.33867188 0 0 Z " fill="#EDEFEF" transform="translate(112,74)"/>
<path d="M0 0 C0 0.99 0 1.98 0 3 C-1.57421875 4.31640625 -1.57421875 4.31640625 -3.6875 5.5625 C-4.4196875 5.99433594 -5.151875 6.42617187 -5.90625 6.87109375 C-8.21195565 8.11428206 -10.55151634 9.07354672 -13 10 C-17.30288557 12.09627759 -19.76421248 14.87365337 -22.66796875 18.57421875 C-23.10753906 19.04472656 -23.54710938 19.51523438 -24 20 C-24.66 20 -25.32 20 -26 20 C-26.28875 20.639375 -26.5775 21.27875 -26.875 21.9375 C-28 24 -28 24 -30 25 C-31.13350534 27.01669827 -31.13350534 27.01669827 -32 29 C-32.66 28.67 -33.32 28.34 -34 28 C-30.90679204 17.00192724 -19.030175 9.64354246 -9.8515625 4.09765625 C-2.50470588 0 -2.50470588 0 0 0 Z " fill="#E1E4E6" transform="translate(116,63)"/>
<path d="M0 0 C1.01126953 -0.00386719 2.02253906 -0.00773437 3.06445312 -0.01171875 C8.33866829 -0.00483784 13.36690276 0.20426125 18.5625 1.125 C18.5625 2.115 18.5625 3.105 18.5625 4.125 C13.75703321 4.19905295 8.9518971 4.25355497 4.14599609 4.28979492 C2.51052059 4.30489911 0.87508571 4.32538389 -0.76025391 4.35131836 C-3.10850024 4.38763145 -5.45621205 4.40470932 -7.8046875 4.41796875 C-8.90476639 4.44119453 -8.90476639 4.44119453 -10.02706909 4.46488953 C-12.08935547 4.46557617 -12.08935547 4.46557617 -15.4375 4.125 C-16.0975 3.135 -16.7575 2.145 -17.4375 1.125 C-11.63435642 -0.12490785 -5.9040913 -0.02249178 0 0 Z " fill="#EBEFF0" transform="translate(164.4375,61.875)"/>
<path d="M0 0 C9.93761907 -0.41342945 21.85344064 -0.57327968 31 4 C30.67 4.99 30.34 5.98 30 7 C28.35 7 26.7 7 25 7 C25 6.34 25 5.68 25 5 C24.12859375 4.95101562 23.2571875 4.90203125 22.359375 4.8515625 C14.46096843 4.35577507 6.77657787 3.46701011 -1 2 C-0.67 1.34 -0.34 0.68 0 0 Z " fill="#EBECEE" transform="translate(172,54)"/>
<path d="M0 0 C0.33 1.32 0.66 2.64 1 4 C1.66 3.34 2.32 2.68 3 2 C4.32 2.99 5.64 3.98 7 5 C6.34 6.65 5.68 8.3 5 10 C5.99 9.67 6.98 9.34 8 9 C7.375 10.9375 7.375 10.9375 6 13 C3.0625 13.9375 3.0625 13.9375 0 14 C-1.875 12.9375 -1.875 12.9375 -3 11 C-3.60643498 6.35066514 -2.67716504 3.79265048 0 0 Z " fill="#F7FAFA" transform="translate(297,231)"/>
<path d="M0 0 C2.90877977 2.90877977 2.30050485 5.1371374 2.3125 9.1875 C2.28290387 16.53082267 1.07501784 20.88747323 -3 27 C-3.0272415 25.58344207 -3.04650467 24.16672955 -3.0625 22.75 C-3.07410156 21.96109375 -3.08570313 21.1721875 -3.09765625 20.359375 C-3 18 -3 18 -2.52734375 16.12109375 C-1.52880407 12.10474525 -1.5378383 7.91993981 -1.28125 3.80078125 C-1 1 -1 1 0 0 Z " fill="#E7EBEB" transform="translate(240,118)"/>
<path d="M0 0 C0.66 0 1.32 0 2 0 C3.2266256 5.02916494 2.62509319 8.12472042 1 13 C0.45374626 14.81112282 -0.08776205 16.62368236 -0.625 18.4375 C-1.08287786 19.95847052 -1.54105193 21.47935206 -2 23 C-4.61980461 15.14058618 -2.15589749 7.69963391 0 0 Z " fill="#EAEDF0" transform="translate(104,249)"/>
<path d="M0 0 C0.66 0.33 1.32 0.66 2 1 C2.55353075 17.8929385 2.55353075 17.8929385 -1 25 C-1.66 24.67 -2.32 24.34 -3 24 C-3 23.01 -3 22.02 -3 21 C-2.34 21 -1.68 21 -1 21 C-1.01160156 19.73542969 -1.02320313 18.47085938 -1.03515625 17.16796875 C-1.04453566 15.50781398 -1.0536357 13.84765761 -1.0625 12.1875 C-1.07087891 11.35412109 -1.07925781 10.52074219 -1.08789062 9.66210938 C-1.09111328 8.85966797 -1.09433594 8.05722656 -1.09765625 7.23046875 C-1.10289307 6.49207764 -1.10812988 5.75368652 -1.11352539 4.99291992 C-1 3 -1 3 0 0 Z " fill="#F2F7F6" transform="translate(271,198)"/>
<path d="M0 0 C1.875 0.125 1.875 0.125 4 1 C6.08950895 5.3879688 6.08706028 9.21168474 6 14 C6.28520405 15.67557379 6.59955696 17.34817245 7 19 C6.01 19 5.02 19 4 19 C3.79503906 17.96359375 3.59007812 16.9271875 3.37890625 15.859375 C3.10682231 14.48957311 2.83468404 13.11978201 2.5625 11.75 C2.42779297 11.06808594 2.29308594 10.38617188 2.15429688 9.68359375 C1.50779289 6.43530542 0.84997305 3.20184022 0 0 Z " fill="#EEF0F2" transform="translate(243,105)"/>
<path d="M0 0 C0.33 0 0.66 0 1 0 C0.51030705 6.61085476 -1.33442742 11.94977014 -4 18 C-4.66 17.34 -5.32 16.68 -6 16 C-5.78117826 10.52945651 -4.02483508 4.02483508 0 0 Z " fill="#EDF0F0" transform="translate(246,214)"/>
<path d="M0 0 C-1.28062485 1.7074998 -2.61767557 3.37373596 -4 5 C-4.66 5 -5.32 5 -6 5 C-6.28875 5.639375 -6.5775 6.27875 -6.875 6.9375 C-8 9 -8 9 -10 10 C-11.13350534 12.01669827 -11.13350534 12.01669827 -12 14 C-12.66 13.67 -13.32 13.34 -14 13 C-12.12206004 6.32288015 -7.41393036 -0.75287761 0 0 Z " fill="#E3E5E6" transform="translate(96,78)"/>
<path d="M0 0 C0 0.99 0 1.98 0 3 C-0.78375 2.95875 -1.5675 2.9175 -2.375 2.875 C-5.16116119 2.71271266 -5.16116119 2.71271266 -7 5 C-6.6814823 7.10820797 -6.6814823 7.10820797 -6 9 C-5.01 9 -4.02 9 -3 9 C-3 10.32 -3 11.64 -3 13 C-2.67 13.99 -2.34 14.98 -2 16 C-2.99 16 -3.98 16 -5 16 C-9.85357846 7.26789232 -9.85357846 7.26789232 -9 3 C-6.71619742 -0.67945972 -4.04424788 -0.26961653 0 0 Z " fill="#FBFCFD" transform="translate(289,180)"/>
<path d="M0 0 C1.859375 0.2421875 1.859375 0.2421875 4 1 C7.44278426 5.95165884 8.50271042 11.09315256 8 17 C7.34 16.34 6.68 15.68 6 15 C6 13.68 6 12.36 6 11 C5.34 11 4.68 11 4 11 C2.50859979 7.37802806 1.2125738 3.72433382 0 0 Z " fill="#E7E9EA" transform="translate(303,175)"/>
<path d="M0 0 C0.33 0 0.66 0 1 0 C1.19491452 1.45736087 1.38069358 2.91594593 1.5625 4.375 C1.66691406 5.18710938 1.77132812 5.99921875 1.87890625 6.8359375 C2 9 2 9 1 11 C0.90186801 13.49082076 0.86094452 15.94733789 0.875 18.4375 C0.87113281 19.11876953 0.86726563 19.80003906 0.86328125 20.50195312 C0.8693626 23.60648046 1.01109688 26.03329065 2 29 C1.72428861 31.00875442 1.39764263 33.01178687 1 35 C0.67 35 0.34 35 0 35 C-0.75168618 30.97881486 -1.12815617 27.17486471 -1.1328125 23.0859375 C-1.13474609 21.45011719 -1.13474609 21.45011719 -1.13671875 19.78125 C-1.13285156 18.6571875 -1.12898438 17.533125 -1.125 16.375 C-1.12886719 15.24320313 -1.13273437 14.11140625 -1.13671875 12.9453125 C-1.13542969 11.85734375 -1.13414063 10.769375 -1.1328125 9.6484375 C-1.13168457 8.66020996 -1.13055664 7.67198242 -1.12939453 6.65380859 C-1.01347858 4.27643796 -0.67833736 2.27212701 0 0 Z " fill="#EDEEF0" transform="translate(69,123)"/>
<path d="M0 0 C2.21307301 6.91585315 0.87026954 12.59709103 -2 19 C-2.66 19.33 -3.32 19.66 -4 20 C-3.71657321 17.60293301 -3.42356312 15.20768917 -3.125 12.8125 C-3.04636719 12.13896484 -2.96773438 11.46542969 -2.88671875 10.77148438 C-2.39528587 6.89672516 -1.64019099 3.54915277 0 0 Z " fill="#EDEDEF" transform="translate(313,209)"/>
<path d="M0 0 C0.66 0 1.32 0 2 0 C2 0.66 2 1.32 2 2 C2.556875 2.226875 3.11375 2.45375 3.6875 2.6875 C6.64176591 4.36424552 8.66847851 6.54576685 11 9 C11.66 9.66 12.32 10.32 13 11 C12.67 11.99 12.34 12.98 12 14 C3.07288247 6.48128693 3.07288247 6.48128693 0 2 C0 1.34 0 0.68 0 0 Z " fill="#E4E7E7" transform="translate(92,206)"/>
<path d="M0 0 C0.66 0 1.32 0 2 0 C3.32229189 2.64458379 3.09677194 4.67761301 3.0625 7.625 C3.05347656 8.62789062 3.04445313 9.63078125 3.03515625 10.6640625 C3.02355469 11.43492187 3.01195312 12.20578125 3 13 C2.34 13 1.68 13 1 13 C1 13.99 1 14.98 1 16 C0.34 16 -0.32 16 -1 16 C-0.67 10.72 -0.34 5.44 0 0 Z " fill="#F0F2F4" transform="translate(295,204)"/>
<path d="M0 0 C0.33 0.66 0.66 1.32 1 2 C1.99 1.67 2.98 1.34 4 1 C4.33 1.99 4.66 2.98 5 4 C3.23494565 4.86604534 1.46271926 5.71748642 -0.3125 6.5625 C-1.79169922 7.27599609 -1.79169922 7.27599609 -3.30078125 8.00390625 C-6 9 -6 9 -9 8 C-6.66784896 4.50177344 -4.70480373 3.81298906 -1 2 C-0.67 1.34 -0.34 0.68 0 0 Z " fill="#F0F2F3" transform="translate(122,67)"/>
<path d="M0 0 C-3.19379125 2.25902308 -6.08846837 4.11061378 -9.75 5.5 C-13.06847841 6.68425582 -13.06847841 6.68425582 -14.4375 9.1875 C-14.623125 9.785625 -14.80875 10.38375 -15 11 C-15.66 10.67 -16.32 10.34 -17 10 C-14.70844237 4.88806374 -12.1363241 2.80196592 -6.9375 0.75 C-6.05964844 0.39421875 -5.18179687 0.0384375 -4.27734375 -0.328125 C-2 -1 -2 -1 0 0 Z " fill="#FDFEFE" transform="translate(265,179)"/>
<path d="M0 0 C-1.72078041 0.8709379 -3.45206323 1.72114558 -5.1875 2.5625 C-6.15042969 3.03816406 -7.11335937 3.51382813 -8.10546875 4.00390625 C-11.27718777 5.0953885 -12.83698225 4.96567452 -16 4 C-15 2 -15 2 -13.0625 1.3125 C-11 1 -11 1 -9 2 C-9 1.34 -9 0.68 -9 0 C-5.5657338 -0.85856655 -3.38317487 -0.97591583 0 0 Z " fill="#ECEEED" transform="translate(143,65)"/>
<path d="M0 0 C1.98 0.99 3.96 1.98 6 3 C6 7.62 6 12.24 6 17 C3.79086 13.68629 3.77518447 12.6553979 3.875 8.8125 C3.89304688 7.91144531 3.91109375 7.01039063 3.9296875 6.08203125 C3.95289063 5.39496094 3.97609375 4.70789063 4 4 C2.35 4 0.7 4 -1 4 C-0.67 2.68 -0.34 1.36 0 0 Z " fill="#EDEEF0" transform="translate(178,240)"/>
<path d="M0 0 C1.859375 0.21484375 1.859375 0.21484375 4 1 C5.265625 3.06640625 5.265625 3.06640625 6.25 5.5625 C6.58515625 6.38878906 6.9203125 7.21507812 7.265625 8.06640625 C7.50796875 8.70449219 7.7503125 9.34257812 8 10 C7.01 10 6.02 10 5 10 C1.93193534 6.84169815 0.50057152 4.38000076 0 0 Z " fill="#ECEFF0" transform="translate(88,187)"/>
<path d="M0 0 C0.66 0.66 1.32 1.32 2 2 C1 3 1 3 -1.94140625 3.09765625 C-3.73384766 3.08025391 -3.73384766 3.08025391 -5.5625 3.0625 C-7.35880859 3.04896484 -7.35880859 3.04896484 -9.19140625 3.03515625 C-10.11824219 3.02355469 -11.04507813 3.01195312 -12 3 C-11.67 2.34 -11.34 1.68 -11 1 C-7.33288186 -0.04774804 -3.79781076 -0.25318738 0 0 Z " fill="#EFF2F3" transform="translate(228,239)"/>
<path d="M0 0 C0.99 0 1.98 0 3 0 C3 3.3 3 6.6 3 10 C1.68 9.67 0.36 9.34 -1 9 C-0.67 6.03 -0.34 3.06 0 0 Z " fill="#EBEEEE" transform="translate(239,183)"/>
<path d="M0 0 C0.33 0.99 0.66 1.98 1 3 C0.030625 3.61875 -0.93875 4.2375 -1.9375 4.875 C-5.02835362 6.65678846 -5.02835362 6.65678846 -6 9 C-7.32 8.67 -8.64 8.34 -10 8 C-8.89764064 7.03958829 -7.79303376 6.08175593 -6.6875 5.125 C-5.76517578 4.32449219 -5.76517578 4.32449219 -4.82421875 3.5078125 C-3 2 -3 2 0 0 Z " fill="#D6D6D8" transform="translate(103,69)"/>
<path d="M0 0 C1.74627478 2.61941217 2.38722388 4.03824877 3 7 C2.34 7 1.68 7 1 7 C1 8.32 1 9.64 1 11 C0.34 11 -0.32 11 -1 11 C-1.33 7.7 -1.66 4.4 -2 1 C-1.34 0.67 -0.68 0.34 0 0 Z " fill="#F1F1F2" transform="translate(105,218)"/>
<path d="M0 0 C-3.00419641 1.0013988 -5.87709365 1.51421457 -9 2 C-9.33 3.65 -9.66 5.3 -10 7 C-10.33 7 -10.66 7 -11 7 C-10.51693667 0.47864507 -10.51693667 0.47864507 -8.3125 -1.5625 C-5.10311092 -2.16968172 -2.97549576 -1.21724827 0 0 Z " fill="#FBFBFD" transform="translate(179,231)"/>
<path d="M0 0 C0.33 0 0.66 0 1 0 C0.52060632 4.71403788 0.03165952 8.66579301 -2 13 C-2.66 12.67 -3.32 12.34 -4 12 C-4 11.01 -4 10.02 -4 9 C-3.34 9 -2.68 9 -2 9 C-2 6.69 -2 4.38 -2 2 C-1.34 2 -0.68 2 0 2 C0 1.34 0 0.68 0 0 Z " fill="#EAEEEF" transform="translate(272,210)"/>
<path d="M0 0 C0.66 0 1.32 0 2 0 C3.38766322 6.05525768 2.49118146 9.32010626 0 15 C-1.09651823 11.58860997 -0.94215473 8.79344419 -0.5625 5.25 C-0.46066406 4.26515625 -0.35882813 3.2803125 -0.25390625 2.265625 C-0.17011719 1.51796875 -0.08632812 0.7703125 0 0 Z " fill="#EEF2F1" transform="translate(112,245)"/>
<path d="M0 0 C1.9375 0.75 1.9375 0.75 4 2 C4.75 4.125 4.75 4.125 5 6 C4.01 6.33 3.02 6.66 2 7 C0 4 0 4 0 0 Z " fill="#EFF1F2" transform="translate(250,147)"/>
<path d="M0 0 C0.66 0 1.32 0 2 0 C2.33 1.98 2.66 3.96 3 6 C2.01 6.33 1.02 6.66 0 7 C-1.125 2.25 -1.125 2.25 0 0 Z " fill="#F0F1F3" transform="translate(104,249)"/>
<path d="M0 0 C0.66 0 1.32 0 2 0 C3.31223496 3.93670488 2.24296256 6.12488144 1 10 C0.67 10 0.34 10 0 10 C0 6.7 0 3.4 0 0 Z " fill="#EAEDEE" transform="translate(295,204)"/>
<path d="M0 0 C1.32 0.33 2.64 0.66 4 1 C4.33 2.98 4.66 4.96 5 7 C4.01 6.67 3.02 6.34 2 6 C0.8125 2.9375 0.8125 2.9375 0 0 Z " fill="#DCDFE0" transform="translate(303,175)"/>
<path d="M0 0 C3.34373475 0.55728913 6.03312999 1.35173889 9 3 C8.67 3.66 8.34 4.32 8 5 C5.03 4.01 2.06 3.02 -1 2 C-0.67 1.34 -0.34 0.68 0 0 Z " fill="#EBECEE" transform="translate(173,231)"/>
<path d="M0 0 C1.125 1.5625 1.125 1.5625 2 4 C1.125 7.75 1.125 7.75 0 11 C-0.33 11 -0.66 11 -1 11 C-1.0270043 9.54176788 -1.04639787 8.08339325 -1.0625 6.625 C-1.07410156 5.81289062 -1.08570313 5.00078125 -1.09765625 4.1640625 C-1 2 -1 2 0 0 Z " fill="#DFE1E0" transform="translate(238,134)"/>
<path d="M0 0 C0 0.99 0 1.98 0 3 C-2.64 3.66 -5.28 4.32 -8 5 C-8 4.34 -8 3.68 -8 3 C-2.25 0 -2.25 0 0 0 Z " fill="#D7DADB" transform="translate(116,63)"/>
</svg>
