<?xml version="1.0" encoding="UTF-8"?>
<svg version="1.1" xmlns="http://www.w3.org/2000/svg" width="447" height="558">
<path d="M0 0 C0.66 0 1.32 0 2 0 C10.71158024 35.13194654 0.95850609 73.85663272 -6.14453125 108.5234375 C-6.28551805 109.21246847 -6.42650486 109.90149944 -6.57176399 110.61141014 C-7.99964849 117.58583556 -9.43662373 124.55811901 -10.9082613 131.52345467 C-16.79384772 159.42645473 -20.99832687 186.99559714 -21.125 215.5625 C-21.12983398 216.53598389 -21.13466797 217.50946777 -21.13964844 218.51245117 C-21.12338924 225.77624787 -20.83640808 233.01026076 -20.5078125 240.265625 C-19.99395126 251.85140737 -19.78125598 263.42255676 -19.75976562 275.01928711 C-19.74996961 278.19736048 -19.7187207 281.37480843 -19.6875 284.55273438 C-19.49729014 321.45825229 -27.45147056 360.1484023 -54.21484375 387.2421875 C-59.33263376 392.00919753 -64.86167772 395.67109984 -71 399 C-71.69480469 399.38414062 -72.38960937 399.76828125 -73.10546875 400.1640625 C-75 401 -75 401 -78 401 C-77.3730695 397.44196585 -75.89142915 395.2358507 -73.8125 392.3125 C-57.30321872 366.60132424 -59.43587125 334.24790601 -60 305 C-60.34914963 305.80396713 -60.34914963 305.80396713 -60.70535278 306.62417603 C-70.74201681 329.69449864 -82.20324433 351.94464332 -96 373 C-96.81815186 374.25296875 -96.81815186 374.25296875 -97.65283203 375.53125 C-104.49759937 385.94606476 -111.71120766 395.690481 -120 405 C-120.52190918 405.60513428 -121.04381836 406.21026855 -121.58154297 406.83374023 C-133.67458577 420.83901909 -146.82284651 433.39491669 -162 444 C-162.88800293 444.62310059 -162.88800293 444.62310059 -163.79394531 445.25878906 C-176.13025476 453.79931099 -189.59481877 461.642823 -203.9375 466.1875 C-204.59347168 466.39600586 -205.24944336 466.60451172 -205.92529297 466.81933594 C-209.26249621 467.78539161 -211.71090035 468.29420713 -215 467 C-213.33424841 465.47816445 -211.66734329 463.9575915 -210 462.4375 C-209.49307617 461.97496826 -208.98615234 461.51243652 -208.46386719 461.03588867 C-205.76417206 458.57940547 -203.03753357 456.16833589 -200.25 453.8125 C-141.20353441 402.16199828 -115.86529918 317.56622422 -110.68359375 241.50390625 C-110.02344223 231.34142303 -109.49117898 221.17190231 -109 211 C-125.20183384 217.33909703 -138.66285509 224.718317 -152 236 C-152.68449219 236.55042969 -153.36898437 237.10085938 -154.07421875 237.66796875 C-158.95192974 241.70238197 -162.87004928 246.25215344 -166.79296875 251.2109375 C-168.1372467 252.90972414 -169.50863184 254.58807332 -170.92578125 256.2265625 C-179.82539259 266.65550664 -186.24833674 279.12028774 -193 291 C-193.66 291 -194.32 291 -195 291 C-196.33721484 253.2112992 -184.14920508 215.54338524 -158.25 187.5 C-156.50170876 185.6650371 -154.751893 183.8315245 -153 182 C-151.78235653 180.61228082 -150.57284423 179.21734496 -149.375 177.8125 C-143.10850427 170.62533428 -136.33252601 164.2798183 -128.890625 158.32421875 C-125.86287958 155.88974777 -122.9013744 153.38669356 -119.9375 150.875 C-114.82540563 146.59821517 -109.54023289 142.70166003 -104 139 C-105.46759766 138.58041016 -105.46759766 138.58041016 -106.96484375 138.15234375 C-119.88747293 134.27984494 -128.00445518 128.91833562 -135 117 C-139.39131742 107.61854914 -138.51196521 96.48068761 -135.2890625 86.8828125 C-131.13612366 77.39582377 -123.89031991 70.64555541 -114.3828125 66.83984375 C-105.33917874 63.65233349 -94.96692284 63.58183882 -86.203125 67.74609375 C-77.29577018 72.81570527 -69.37963178 80.05958499 -66.421875 90.1953125 C-65.4379655 96.73648861 -65.8118443 103.4075817 -66 110 C-66 110.99 -66 111.98 -66 113 C-30.03170254 84.69035142 -9.84908694 44.06170473 0 0 Z " fill="#315E3A" transform="translate(215,90)"/>
<path d="M0 0 C0.66 0 1.32 0 2 0 C2.13462646 0.60134766 2.26925293 1.20269531 2.40795898 1.82226562 C10.73572308 38.41049943 25.47860825 71.94818041 52 99 C52.97415448 100.01283221 53.94811017 101.02585566 54.921875 102.0390625 C59.35591206 106.5934172 63.61776467 110.60565596 69 114 C68.84015625 113.50886719 68.6803125 113.01773438 68.515625 112.51171875 C66.43676344 102.38514314 66.87394253 90.4947201 72.4765625 81.67578125 C78.40180436 73.49137184 86.05864073 67.40148895 96 65 C106.97310334 63.70833657 116.22614113 65.24700902 125.34375 71.64453125 C132.73444682 77.75288702 138.23818432 85.14604313 139.18457031 94.90283203 C139.96299792 106.9516593 138.50460496 116.57459588 130.66796875 126.19140625 C123.73310002 133.71094775 115.5582979 136.18727171 106 139 C106.44690186 139.33620361 106.89380371 139.67240723 107.35424805 140.01879883 C149.33208282 171.67007551 185.6335368 207.5001828 195.3125 261.375 C196.59966595 271.16526226 196.68912377 281.13915767 197 291 C196.01 291 195.02 291 194 291 C193.41734375 289.82566406 192.8346875 288.65132813 192.234375 287.44140625 C183.84429768 270.84013342 174.00115262 256.31729007 161 243 C160.27554688 242.21367187 159.55109375 241.42734375 158.8046875 240.6171875 C147.58181706 228.73171216 133.51767785 220.76833703 118.6484375 214.32421875 C117.91069092 214.00304077 117.17294434 213.68186279 116.4128418 213.35095215 C114.60915094 212.565945 112.8046572 211.78278307 111 211 C114.83468978 300.28903691 135.13093521 390.26058873 201.90917969 454.09228516 C205.95817387 457.78668503 210.29615431 461.03385307 214.75390625 464.21484375 C215.49511719 464.80394531 216.23632812 465.39304687 217 466 C217 466.66 217 467.32 217 468 C208.2439444 467.69276998 200.88341117 464.51269011 193 461 C191.86304688 460.4946875 190.72609375 459.989375 189.5546875 459.46875 C168.05772822 449.29385512 149.38396813 434.06140632 133 417 C132.17242187 416.17371094 131.34484375 415.34742188 130.4921875 414.49609375 C121.63128282 405.62130051 114.02978159 396.36324305 107 386 C106.1970752 384.82920898 106.1970752 384.82920898 105.37792969 383.63476562 C94.01570659 367.04373856 83.99691732 350.00356426 74.6875 332.1875 C73.82511719 330.54273682 73.82511719 330.54273682 72.9453125 328.86474609 C68.90949071 321.05177904 65.36581767 313.11899594 62 305 C60.99461229 335.2064569 60.99461229 335.2064569 65 365 C65.17160645 365.73605469 65.34321289 366.47210938 65.52001953 367.23046875 C67.91716179 377.18749933 71.17732817 389.33685343 78.7109375 396.6640625 C80 398 80 398 80 401 C67.13809731 399.4956839 56.55143375 388.31703867 48.4375 378.9375 C36.98729014 364.41232212 30.40999676 347.86696974 26.25 330 C26.05116211 329.14712402 25.85232422 328.29424805 25.64746094 327.41552734 C22.27489596 311.99602144 21.70516598 296.99394006 21.79418945 281.2668457 C21.81233484 277.96753054 21.81469896 274.66850038 21.81445312 271.36914062 C21.8356143 258.87186117 22.17157177 246.41951066 22.77075195 233.93725586 C24.7233341 193.15908395 18.0157692 154.1759801 9.33349609 114.55053711 C6.85682158 103.21483241 4.57618124 91.8647503 2.5625 80.4375 C2.44293945 79.76805359 2.32337891 79.09860718 2.20019531 78.40887451 C-0.61571982 62.56097117 -2.34399361 47.12943659 -2.26074219 31.03149414 C-2.24990052 28.53963505 -2.26077992 26.04847983 -2.2734375 23.55664062 C-2.27947918 15.4417633 -2.02880121 7.91393488 0 0 Z " fill="#315E3A" transform="translate(229,90)"/>
<path d="M0 0 C6.8270152 0.5969743 12.93048949 2.89066212 19.35546875 5.18359375 C21.1242614 5.80694359 21.1242614 5.80694359 22.92878723 6.44288635 C26.04752455 7.54374854 29.16409341 8.65049238 32.27984619 9.75976562 C34.82227076 10.66301574 37.36707671 11.55944157 39.91198254 12.45567226 C42.95675149 13.52852035 45.99985485 14.6060617 49.04296875 15.68359375 C50.18154831 16.08573593 51.32012787 16.48787811 52.49320984 16.90220642 C53.55143448 17.27922195 54.60965912 17.65623749 55.69995117 18.04467773 C56.62925949 18.37475327 57.55856781 18.7048288 58.51603699 19.04490662 C62.76403632 20.67827879 65.18797564 21.65846111 67.33984375 25.76171875 C67.7565332 26.53966797 68.17322266 27.31761719 68.60253906 28.11914062 C69.26334473 29.39047852 69.26334473 29.39047852 69.9375 30.6875 C70.90867075 32.50470093 71.88139138 34.3210742 72.85546875 36.13671875 C73.36513184 37.09239746 73.87479492 38.04807617 74.39990234 39.03271484 C77.1119376 44.0620216 79.93114737 49.03001427 82.75 54 C83.30002686 54.97324219 83.85005371 55.94648438 84.41674805 56.94921875 C87.81103345 62.94426692 91.25881764 68.90007763 94.828125 74.79296875 C95.93738463 76.88207438 96.5533987 78.68724325 97 81 C96.38253906 80.80019531 95.76507813 80.60039062 95.12890625 80.39453125 C92.13599295 79.71577313 90.04040995 79.47987424 87 80 C81.26626222 84.8475341 77.53943509 91.4656583 74 98 C73.54753906 98.40863281 73.09507812 98.81726563 72.62890625 99.23828125 C70.20480079 101.8600356 68.84462737 104.99850003 67.3125 108.1875 C66.99216797 108.84169922 66.67183594 109.49589844 66.34179688 110.16992188 C65.55571708 111.77727907 64.77711317 113.38828858 64 115 C60.60807637 114.40716379 58.7892243 113.23256811 56.25 110.9375 C55.63640625 110.38964844 55.0228125 109.84179688 54.390625 109.27734375 C53.70226562 108.64505859 53.70226562 108.64505859 53 108 C53.09765625 106.28125 53.09765625 106.28125 54 104 C56.12406619 102.35854477 58.17443583 100.91834824 60.4375 99.5 C64.30585591 97.05989606 67.06300635 95.25237676 69 91 C69.60457031 90.7009375 70.20914063 90.401875 70.83203125 90.09375 C73.93791086 88.52681975 75.53366835 86.20563976 77.6875 83.5 C78.47511719 82.5203125 79.26273437 81.540625 80.07421875 80.53125 C81.98858831 78.17753007 81.98858831 78.17753007 83 76 C82.67 75.34 82.34 74.68 82 74 C81.67 74.66 81.34 75.32 81 76 C80.35675781 75.68160156 79.71351563 75.36320312 79.05078125 75.03515625 C75.60782232 73.81219366 73.64160029 73.40598009 70 74 C63.83689579 78.64193959 59.24136065 85.63795903 55 92 C54.01 91.67 53.02 91.34 52 91 C52.04640625 90.28457031 52.0928125 89.56914062 52.140625 88.83203125 C52.55141867 77.4911917 50.01802038 67.84087372 43.171875 58.70703125 C42 57 42 57 42 55 C41.443125 54.7525 40.88625 54.505 40.3125 54.25 C38 53 38 53 35.875 51.1875 C24.05391319 42.19319482 11.38308597 41.25802232 -3 43 C-1.68180513 39.0861843 -0.13022856 36.81244032 2.875 34 C3.58140625 33.31164062 4.2878125 32.62328125 5.015625 31.9140625 C5.67046875 31.28242188 6.3253125 30.65078125 7 30 C9.63841993 27.58703489 9.63841993 27.58703489 11 25 C9.57467971 18.98693003 6.21252672 13.92107665 3.1015625 8.65820312 C2.70453125 7.97306641 2.3075 7.28792969 1.8984375 6.58203125 C1.53411621 5.96561768 1.16979492 5.3492041 0.79443359 4.71411133 C0 3 0 3 0 0 Z " fill="#325E3A" transform="translate(322,107)"/>
<path d="M0 0 C-0.64683803 3.16212031 -1.76279445 5.60665777 -3.35546875 8.40625 C-4.04092773 9.64568359 -4.04092773 9.64568359 -4.74023438 10.91015625 C-5.7078797 12.6417321 -6.68451967 14.36831104 -7.66992188 16.08984375 C-8.12302734 16.91613281 -8.57613281 17.74242188 -9.04296875 18.59375 C-9.46602295 19.34333984 -9.88907715 20.09292969 -10.32495117 20.86523438 C-11.23728115 23.00585634 -11.23728115 23.00585634 -10.25097656 25.12304688 C-8.57185917 27.64237836 -6.62180357 29.78176824 -4.5625 32 C3 40.17298188 3 40.17298188 3 43 C2.12859375 42.90460938 1.2571875 42.80921875 0.359375 42.7109375 C-13.92595618 41.3813504 -25.91729776 42.9542786 -37.54296875 51.97265625 C-45.00285246 58.85774155 -50.91746712 68.73397984 -52 79 C-52.14046792 83.33945536 -52.11907529 87.66036722 -52 92 C-52.99 92 -53.98 92 -55 92 C-57.05078125 89.83984375 -57.05078125 89.83984375 -59.3125 86.9375 C-60.11558594 85.94234375 -60.91867188 84.9471875 -61.74609375 83.921875 C-64 81 -64 81 -65.53515625 78.640625 C-66.93118549 76.60559695 -67.87230454 75.26331918 -70 74 C-73.86849356 74.03223745 -77.31904944 74.85379653 -81 76 C-81.33 75.34 -81.66 74.68 -82 74 C-82.33 74.99 -82.66 75.98 -83 77 C-82.37351562 77.68707031 -81.74703125 78.37414062 -81.1015625 79.08203125 C-80.28429687 79.98308594 -79.46703125 80.88414062 -78.625 81.8125 C-77.81289062 82.70582031 -77.00078125 83.59914063 -76.1640625 84.51953125 C-74 87 -74 87 -72 90 C-71.01 90.4640625 -71.01 90.4640625 -70 90.9375 C-68 92 -68 92 -67.2890625 93.76953125 C-65.39779558 97.04199614 -62.46711929 98.7216226 -59.375 100.75 C-58.45847656 101.36681641 -58.45847656 101.36681641 -57.5234375 101.99609375 C-56.02104672 103.00551256 -54.51123091 104.0038647 -53 105 C-53.56793322 108.47575128 -54.66168245 110.02496366 -57.3125 112.3125 C-57.90675781 112.84488281 -58.50101563 113.37726563 -59.11328125 113.92578125 C-61 115 -61 115 -63.02734375 115.06640625 C-66.15920733 113.3733394 -66.8510813 110.82555643 -68.25 107.625 C-68.77078125 106.46226562 -69.2915625 105.29953125 -69.828125 104.1015625 C-71 101 -71 101 -71 98 C-71.598125 97.95875 -72.19625 97.9175 -72.8125 97.875 C-76.08922468 96.56431013 -76.47402533 94.12181323 -78 91 C-80.62634817 86.91281159 -83.32357675 83.19889097 -87 80 C-90.32840635 79.37749263 -92.8430505 79.84319817 -96 81 C-95.4094835 77.265326 -94.35638291 74.41977675 -92.55078125 71.10546875 C-91.78302368 69.68899048 -91.78302368 69.68899048 -90.99975586 68.24389648 C-90.44296143 67.23528564 -89.88616699 66.2266748 -89.3125 65.1875 C-88.45313843 63.61560913 -88.45313843 63.61560913 -87.57641602 62.01196289 C-81.75736734 51.43366519 -75.68042318 41.00700924 -69.53295898 30.61694336 C-67.86951242 27.92273532 -67.86951242 27.92273532 -66.578125 24.47998047 C-63.47395675 19.09212475 -57.34227322 18.01800815 -51.75390625 16.23046875 C-49.94900978 15.61985344 -49.94900978 15.61985344 -48.10765076 14.99690247 C-44.91748923 13.92241604 -41.72171552 12.87012568 -38.52087402 11.82824707 C-35.27303674 10.76560929 -32.03428349 9.67603677 -28.79492188 8.58789062 C-23.09114804 6.67492623 -17.3803401 4.78481058 -11.66236877 2.91471863 C-8.98548918 2.03218971 -8.98548918 2.03218971 -6.40293884 0.88374329 C-4 0 -4 0 0 0 Z " fill="#325F3B" transform="translate(124,107)"/>
<path d="M0 0 C0.66 0 1.32 0 2 0 C2.15855469 0.89460938 2.31710938 1.78921875 2.48046875 2.7109375 C4.63904805 13.89738714 7.56551323 23.90679212 17 31 C25.27692193 36.33319523 33.26628764 38.164859 43 39 C43 39.99 43 40.98 43 42 C42.03320312 42.15855469 41.06640625 42.31710938 40.0703125 42.48046875 C27.15310794 44.65987764 27.15310794 44.65987764 16.359375 51.65625 C15 53 15 53 13 53 C12.731875 53.55816406 12.46375 54.11632813 12.1875 54.69140625 C11 57 11 57 9.5625 59.33984375 C5.76584807 65.65177759 4.15372646 71.02042911 3.421875 78.34765625 C3 81 3 81 1 83 C0.85304687 82.04480469 0.70609375 81.08960937 0.5546875 80.10546875 C-1.477988 68.38837951 -4.98976546 57.38206485 -15 50 C-22.78256199 45.36088324 -31.16340405 43.58671723 -40 42 C-40 41.34 -40 40.68 -40 40 C-39.10539063 39.84144531 -38.21078125 39.68289062 -37.2890625 39.51953125 C-25.88108852 37.31820578 -14.57374295 33.89740146 -7.56640625 23.96875 C-3.16485029 16.55010375 -0.92735356 8.53165273 0 0 Z " fill="#325E3A" transform="translate(221,0)"/>
<path d="M0 0 C0.8971875 0.99 0.8971875 0.99 1.8125 2 C3.87501834 4.3373846 3.87501834 4.3373846 7 4 C6.814375 4.598125 6.62875 5.19625 6.4375 5.8125 C5.77906313 8.16408762 5.77906313 8.16408762 7 11 C6.01 11 5.02 11 4 11 C4.350625 11.78375 4.70125 12.5675 5.0625 13.375 C5.5265625 14.674375 5.5265625 14.674375 6 16 C5.67 16.66 5.34 17.32 5 18 C6.32 18.33 7.64 18.66 9 19 C7.02 19.33 5.04 19.66 3 20 C2.67 19.34 2.34 18.68 2 18 C1.67 18.99 1.34 19.98 1 21 C1.62648438 21.68707031 2.25296875 22.37414062 2.8984375 23.08203125 C4.12433594 24.43361328 4.12433594 24.43361328 5.375 25.8125 C6.59316406 27.15248047 6.59316406 27.15248047 7.8359375 28.51953125 C10 31 10 31 12 34 C12.66 34.309375 13.32 34.61875 14 34.9375 C16 36 16 36 16.7109375 37.76953125 C18.60220442 41.04199614 21.53288071 42.7216226 24.625 44.75 C25.54152344 45.36681641 25.54152344 45.36681641 26.4765625 45.99609375 C27.97895328 47.00551256 29.48876909 48.0038647 31 49 C30.43206678 52.47575128 29.33831755 54.02496366 26.6875 56.3125 C26.09324219 56.84488281 25.49898437 57.37726563 24.88671875 57.92578125 C23 59 23 59 20.97265625 59.06640625 C17.84079267 57.3733394 17.1489187 54.82555643 15.75 51.625 C15.22921875 50.46226562 14.7084375 49.29953125 14.171875 48.1015625 C13 45 13 45 13 42 C12.401875 41.95875 11.80375 41.9175 11.1875 41.875 C7.91077532 40.56431013 7.52597467 38.12181323 6 35 C3.37365183 30.91281159 0.67642325 27.19889097 -3 24 C-6.32840635 23.37749263 -8.8430505 23.84319817 -12 25 C-11.4133247 21.24936435 -10.35059992 18.440724 -8.49609375 15.13671875 C-7.75649414 13.80737305 -7.75649414 13.80737305 -7.00195312 12.45117188 C-6.48568359 11.53916016 -5.96941406 10.62714844 -5.4375 9.6875 C-4.91736328 8.75615234 -4.39722656 7.82480469 -3.86132812 6.86523438 C-2.58023026 4.57336205 -1.29297895 2.28518387 0 0 Z " fill="#406847" transform="translate(40,163)"/>
<path d="M0 0 C0.33 0.66 0.66 1.32 1 2 C0 5 0 5 -2 6 C0.31 6.33 2.62 6.66 5 7 C5.495 8.98 5.495 8.98 6 11 C7.32 11.33 8.64 11.66 10 12 C10 11.34 10 10.68 10 10 C10.66 10 11.32 10 12 10 C10.79963263 13.60110212 10.11119953 13.79038124 6.87109375 15.5234375 C6.00798584 15.98524414 5.14487793 16.44705078 4.25561523 16.92285156 C2.86064819 17.64166504 2.86064819 17.64166504 1.4375 18.375 C0.49398682 18.86452148 -0.44952637 19.35404297 -1.42163086 19.85839844 C-21.06511133 29.79211696 -21.06511133 29.79211696 -28.43359375 28.609375 C-28.95050781 28.40828125 -29.46742187 28.2071875 -30 28 C-28.33424841 26.47816445 -26.66734329 24.9575915 -25 23.4375 C-24.49597656 22.97786865 -23.99195313 22.5182373 -23.47265625 22.04467773 C-20.68316049 19.50760295 -17.86697627 17.01137556 -15 14.5625 C-9.72843758 9.99381257 -4.88896437 4.96984797 0 0 Z " fill="#365E3C" transform="translate(30,529)"/>
<path d="M0 0 C1.125 1.75 1.125 1.75 2 4 C0.29509296 8.48256457 -3.10240865 11.91761043 -6.125 15.5625 C-8.01221339 17.85542759 -8.01221339 17.85542759 -9.0625 20.125 C-10 22 -10 22 -11.39453125 23.30078125 C-13.83149911 25.8800538 -15.16571197 29.02002052 -16.6875 32.1875 C-17.00783203 32.84169922 -17.32816406 33.49589844 -17.65820312 34.16992188 C-18.44428292 35.77727907 -19.22288683 37.38828858 -20 39 C-23.39192363 38.40716379 -25.2107757 37.23256811 -27.75 34.9375 C-28.36359375 34.38964844 -28.9771875 33.84179688 -29.609375 33.27734375 C-30.06828125 32.85582031 -30.5271875 32.43429688 -31 32 C-30.90234375 30.28125 -30.90234375 30.28125 -30 28 C-27.87593381 26.35854477 -25.82556417 24.91834824 -23.5625 23.5 C-19.69414409 21.05989606 -16.93699365 19.25237676 -15 15 C-14.39414062 14.7009375 -13.78828125 14.401875 -13.1640625 14.09375 C-10.06831433 12.52911194 -8.50716739 10.20977795 -6.375 7.5 C-2.08860759 2.08860759 -2.08860759 2.08860759 0 0 Z " fill="#305D37" transform="translate(406,183)"/>
<path d="M0 0 C1.32 0.66 2.64 1.32 4 2 C4.33 1.67 4.66 1.34 5 1 C5.33 1.99 5.66 2.98 6 4 C6.66 4 7.32 4 8 4 C8.66 2.68 9.32 1.36 10 0 C11.91047805 1.91047805 12.69888649 3.19753342 13.83984375 5.58984375 C14.3512793 6.64268555 14.3512793 6.64268555 14.87304688 7.71679688 C15.58043036 9.19256755 16.28617098 10.66912687 16.99023438 12.14648438 C17.50360352 13.20125977 17.50360352 13.20125977 18.02734375 14.27734375 C18.48741821 15.24015259 18.48741821 15.24015259 18.95678711 16.22241211 C19.94023916 18.08530039 19.94023916 18.08530039 21.62329102 19.54516602 C23 21 23 21 23 24 C12.45144127 22.77988852 4.44134306 15.07386933 -3 8 C-2.01 7.34 -1.02 6.68 0 6 C0.2502157 2.91634129 0.2502157 2.91634129 0 0 Z " fill="#396340" transform="translate(286,467)"/>
<path d="M0 0 C0.8971875 0.99 0.8971875 0.99 1.8125 2 C3.87501834 4.3373846 3.87501834 4.3373846 7 4 C6.814375 4.598125 6.62875 5.19625 6.4375 5.8125 C5.77906313 8.16408762 5.77906313 8.16408762 7 11 C6.01 11 5.02 11 4 11 C4.350625 11.78375 4.70125 12.5675 5.0625 13.375 C5.5265625 14.674375 5.5265625 14.674375 6 16 C5.67 16.66 5.34 17.32 5 18 C6.32 18.33 7.64 18.66 9 19 C7.02 19.33 5.04 19.66 3 20 C2.67 19.34 2.34 18.68 2 18 C1.67 18.66 1.34 19.32 1 20 C0.34 20 -0.32 20 -1 20 C-1.33 20.99 -1.66 21.98 -2 23 C-3.32 22.67 -4.64 22.34 -6 22 C-6 22.66 -6 23.32 -6 24 C-7.98 24.33 -9.96 24.66 -12 25 C-11.4133247 21.24936435 -10.35059992 18.440724 -8.49609375 15.13671875 C-7.75649414 13.80737305 -7.75649414 13.80737305 -7.00195312 12.45117188 C-6.48568359 11.53916016 -5.96941406 10.62714844 -5.4375 9.6875 C-4.91736328 8.75615234 -4.39722656 7.82480469 -3.86132812 6.86523438 C-2.58023026 4.57336205 -1.29297895 2.28518387 0 0 Z " fill="#3D6444" transform="translate(40,163)"/>
<path d="M0 0 C0.8971875 0.5259375 0.8971875 0.5259375 1.8125 1.0625 C4.13258252 2.32409061 4.13258252 2.32409061 7.25 1.125 C8.1575 0.75375 9.065 0.3825 10 0 C10.99 2.31 11.98 4.62 13 7 C16.79547921 6.03223902 16.79547921 6.03223902 20 4 C20.33 3.34 20.66 2.68 21 2 C21.556875 2.50789062 22.11375 3.01578125 22.6875 3.5390625 C27.14955677 7.56395831 31.63656778 11.33312137 36.56640625 14.7734375 C37.03949219 15.17820312 37.51257813 15.58296875 38 16 C38 16.66 38 17.32 38 18 C25.73930359 17.56980013 7.33966878 10.62693235 -1.890625 2.29296875 C-2.25671875 1.86628906 -2.6228125 1.43960938 -3 1 C-2.01 0.67 -1.02 0.34 0 0 Z " fill="#496A4D" transform="translate(408,540)"/>
<path d="M0 0 C6.05885808 0.58368918 11.27358046 2.38738261 16.9375 4.5625 C17.81212891 4.89185547 18.68675781 5.22121094 19.58789062 5.56054688 C21.72774809 6.36737838 23.86491864 7.18063181 26 8 C25.01 8.495 25.01 8.495 24 9 C23.67 9.66 23.34 10.32 23 11 C22.38125 10.79375 21.7625 10.5875 21.125 10.375 C20.42375 10.25125 19.7225 10.1275 19 10 C18.34 10.66 17.68 11.32 17 12 C16.01 12 15.02 12 14 12 C13.731875 12.969375 13.46375 13.93875 13.1875 14.9375 C12.795625 15.948125 12.40375 16.95875 12 18 C11.01 18.33 10.02 18.66 9 19 C7.49212623 16.40011448 5.99354539 13.79559803 4.5 11.1875 C4.07074219 10.44951172 3.64148438 9.71152344 3.19921875 8.95117188 C2.79316406 8.23896484 2.38710938 7.52675781 1.96875 6.79296875 C1.40317383 5.81106567 1.40317383 5.81106567 0.82617188 4.80932617 C0 3 0 3 0 0 Z " fill="#3B6143" transform="translate(322,107)"/>
<path d="M0 0 C0.8971875 0.5259375 0.8971875 0.5259375 1.8125 1.0625 C4.13258252 2.32409061 4.13258252 2.32409061 7.25 1.125 C8.1575 0.75375 9.065 0.3825 10 0 C10.99 2.31 11.98 4.62 13 7 C14.98 6.34 16.96 5.68 19 5 C20.42944945 7.35438733 21.08661261 8.48032433 20.625 11.25 C20.315625 12.11625 20.315625 12.11625 20 13 C15.38798839 11.58037621 11.11502085 9.72523994 6.8125 7.5625 C6.19697266 7.26279297 5.58144531 6.96308594 4.94726562 6.65429688 C1.8500355 5.10735962 -0.75478862 3.66976045 -3 1 C-2.01 0.67 -1.02 0.34 0 0 Z " fill="#456C4D" transform="translate(408,540)"/>
<path d="M0 0 C-0.89818082 2.84423926 -1.47391464 4.59666789 -3.875 6.4375 C-6 7 -6 7 -8.25 6.125 C-8.8275 5.75375 -9.405 5.3825 -10 5 C-10.33 5.33 -10.66 5.66 -11 6 C-12.4555937 6.09858603 -13.91607919 6.12972143 -15.375 6.125 C-16.16648438 6.12757812 -16.95796875 6.13015625 -17.7734375 6.1328125 C-20 6 -20 6 -23 5 C-23 4.34 -23 3.68 -23 3 C-19.73172393 2.29994196 -16.46007824 1.61713756 -13.1875 0.9375 C-11.7943457 0.63875977 -11.7943457 0.63875977 -10.37304688 0.33398438 C-9.0340332 0.05844727 -9.0340332 0.05844727 -7.66796875 -0.22265625 C-6.84578857 -0.39547119 -6.0236084 -0.56828613 -5.17651367 -0.74633789 C-3 -1 -3 -1 0 0 Z " fill="#2E5A36" transform="translate(204,37)"/>
<path d="M0 0 C2.42468325 2.2722331 4.27464789 4.68056834 6.125 7.4375 C6.64320313 8.19933594 7.16140625 8.96117187 7.6953125 9.74609375 C8.92757114 11.87487589 9.5513055 13.59784285 10 16 C3.69785303 15.66830805 -0.85216936 12.32676012 -6 9 C-3.77810176 6.77810176 -1.91517292 6.07401108 1 5 C0.67 3.35 0.34 1.7 0 0 Z " fill="#486C4D" transform="translate(299,475)"/>
<path d="M0 0 C0.66 0 1.32 0 2 0 C3.32 5.94 4.64 11.88 6 18 C4.02 17.67 2.04 17.34 0 17 C-0.33 18.32 -0.66 19.64 -1 21 C-2.59301843 19.40698157 -2.17030943 17.76633118 -2.1875 15.5625 C-2.14881484 10.200737 -1.2396087 5.20192937 0 0 Z " fill="#2F5C38" transform="translate(229,90)"/>
<path d="M0 0 C0.33 0 0.66 0 1 0 C1.06058594 0.69867188 1.12117187 1.39734375 1.18359375 2.1171875 C1.26738281 3.02726562 1.35117188 3.93734375 1.4375 4.875 C1.51871094 5.77992187 1.59992188 6.68484375 1.68359375 7.6171875 C1.86989285 10.01110861 1.86989285 10.01110861 3 12 C3.06969941 14.17810643 2.99758509 16.33754056 2.9375 18.515625 C3.01054704 21.41924491 3.50170298 24.13927321 4 27 C4.25925809 29.20500311 4.4881275 31.4137777 4.6875 33.625 C4.79449219 34.73101562 4.90148437 35.83703125 5.01171875 36.9765625 C4.99964809 40.09079368 4.46433939 41.3460861 3 44 C0.84470782 29.24159861 -0.44553088 14.91703393 0 0 Z " fill="#738D79" transform="translate(227,118)"/>
<path d="M0 0 C4.24483639 3.35638226 7.73193589 6.67462104 11 11 C11 11.66 11 12.32 11 13 C10.01 13.495 10.01 13.495 9 14 C8.67 14.66 8.34 15.32 8 16 C6.51814875 14.37744772 5.03959744 12.75188112 3.5625 11.125 C2.73878906 10.22007812 1.91507813 9.31515625 1.06640625 8.3828125 C-1 6 -1 6 -2 4 C-2.99 3.34 -3.98 2.68 -5 2 C-3.68 2 -2.36 2 -1 2 C-0.67 1.34 -0.34 0.68 0 0 Z " fill="#557C5C" transform="translate(39,183)"/>
<path d="M0 0 C0.33 0.66 0.66 1.32 1 2 C0.67 2.99 0.34 3.98 0 5 C-0.99 5 -1.98 5 -3 5 C-3.0928125 5.804375 -3.0928125 5.804375 -3.1875 6.625 C-5.32621522 12.8766291 -9.4077425 15.20387125 -15 18 C-15.96044102 20.07690578 -15.96044102 20.07690578 -16 22 C-17.65 21.67 -19.3 21.34 -21 21 C-14 14 -7 7 0 0 Z " fill="#62896B" transform="translate(30,529)"/>
<path d="M0 0 C1 2 1 2 0.3046875 4.32421875 C-1.11628829 7.23849544 -2.73665325 9.37962625 -4.875 11.8125 C-5.55304688 12.60269531 -6.23109375 13.39289063 -6.9296875 14.20703125 C-9 16 -9 16 -13 16 C-11.64321859 12.02807513 -9.88322256 9.40636515 -7.0625 6.3125 C-6.02802734 5.16201172 -6.02802734 5.16201172 -4.97265625 3.98828125 C-3 2 -3 2 0 0 Z " fill="#41674B" transform="translate(313,160)"/>
<path d="M0 0 C0.66 0.99 1.32 1.98 2 3 C1.67 3.66 1.34 4.32 1 5 C2.65 5.99 4.3 6.98 6 8 C6.99 7.01 7.98 6.02 9 5 C9.33 5.66 9.66 6.32 10 7 C9.06553465 9.03144641 8.06775224 11.03533587 7 13 C3.60807637 12.40716379 1.7892243 11.23256811 -0.75 8.9375 C-1.36359375 8.38964844 -1.9771875 7.84179688 -2.609375 7.27734375 C-3.06828125 6.85582031 -3.5271875 6.43429688 -4 6 C-3.6875 4.125 -3.6875 4.125 -3 2 C-2.01 1.34 -1.02 0.68 0 0 Z " fill="#618066" transform="translate(379,209)"/>
<path d="M0 0 C2.16874252 0.50603992 3.99967627 0.99983813 6 2 C6.66 1.34 7.32 0.68 8 0 C9.125 3.75 9.125 3.75 8 6 C8.99 6 9.98 6 11 6 C11.66 4.68 12.32 3.36 13 2 C13.33 5.96 13.66 9.92 14 14 C13.01 14 12.02 14 11 14 C8.80859375 11.69921875 8.80859375 11.69921875 6.4375 8.6875 C5.65246094 7.70136719 4.86742187 6.71523437 4.05859375 5.69921875 C2.64427799 3.84477436 1.29368324 1.94052486 0 0 Z " fill="#4F7655" transform="translate(58,185)"/>
<path d="M0 0 C6.93 0.495 6.93 0.495 14 1 C14 1.99 14 2.98 14 4 C11.56318413 4.50354867 9.12564561 5.00296756 6.6875 5.5 C5.99720703 5.64308594 5.30691406 5.78617188 4.59570312 5.93359375 C1.67475227 6.52625044 -1.01108122 7 -4 7 C-4 6.34 -4 5.68 -4 5 C-2.35 5 -0.7 5 1 5 C0.67 3.35 0.34 1.7 0 0 Z " fill="#46694E" transform="translate(250,38)"/>
<path d="M0 0 C0.99 0.33 1.98 0.66 3 1 C-1.55615501 6.59756187 -6.26150154 11.57315833 -12 16 C-11.625 13.5625 -11.625 13.5625 -11 11 C-10.34 10.67 -9.68 10.34 -9 10 C-8.5359375 9.01 -8.5359375 9.01 -8.0625 8 C-7 6 -7 6 -4 5 C-3.67 4.01 -3.34 3.02 -3 2 C-2.01 2 -1.02 2 0 2 C0 1.34 0 0.68 0 0 Z " fill="#57775E" transform="translate(59,325)"/>
<path d="M0 0 C2 4 2 4 1.4375 5.9375 C-0.42651085 8.61195035 -2.63819195 10.76249764 -5 13 C-6.32 12.01 -7.64 11.02 -9 10 C-6.03 6.7 -3.06 3.4 0 0 Z " fill="#5A7E5E" transform="translate(406,183)"/>
<path d="M0 0 C0.33 0 0.66 0 1 0 C1.33 2.31 1.66 4.62 2 7 C3.32 6.34 4.64 5.68 6 5 C5.53680089 9.72463088 4.90108294 13.17057052 2 17 C1.34 17 0.68 17 0 17 C0 11.39 0 5.78 0 0 Z " fill="#6B8972" transform="translate(20,364)"/>
<path d="M0 0 C0.66 0 1.32 0 2 0 C2.66 3.96 3.32 7.92 4 12 C3.01 12 2.02 12 1 12 C0.34 13.98 -0.32 15.96 -1 18 C-1.66 18 -2.32 18 -3 18 C-3.33 18.66 -3.66 19.32 -4 20 C-2.66666667 13.33333333 -1.33333333 6.66666667 0 0 Z " fill="#4C6650" transform="translate(221,0)"/>
<path d="M0 0 C0.33 1.32 0.66 2.64 1 4 C2.32 4.33 3.64 4.66 5 5 C5 7 5 7 3.6875 8.4375 C3.130625 8.953125 2.57375 9.46875 2 10 C1.443125 10.556875 0.88625 11.11375 0.3125 11.6875 C-0.3371875 12.3371875 -0.3371875 12.3371875 -1 13 C-1.33 12.34 -1.66 11.68 -2 11 C-2.66 11 -3.32 11 -4 11 C-4 10.34 -4 9.68 -4 9 C-3.34 9 -2.68 9 -2 9 C-2 8.34 -2 7.68 -2 7 C-3.65 7.66 -5.3 8.32 -7 9 C-6.21625 8.2575 -5.4325 7.515 -4.625 6.75 C-2.43495469 4.45566682 -1.17268614 2.87841142 0 0 Z " fill="#4D7353" transform="translate(391,198)"/>
<path d="M0 0 C0.66 0.66 1.32 1.32 2 2 C1.67 2.99 1.34 3.98 1 5 C1.99 5.33 2.98 5.66 4 6 C2.73308493 6.67408308 1.46129251 7.33900497 0.1875 8 C-0.52019531 8.37125 -1.22789062 8.7425 -1.95703125 9.125 C-4 10 -4 10 -7 10 C-6.38722388 7.03824877 -5.74627478 5.61941217 -4 3 C-3.01 3 -2.02 3 -1 3 C-0.67 2.01 -0.34 1.02 0 0 Z " fill="#507055" transform="translate(144,481)"/>
<path d="M0 0 C4.75126904 3.2893401 4.75126904 3.2893401 5.875 6.5 C5.99669295 8.93385908 5.76681968 10.69954095 5 13 C2.525 12.01 2.525 12.01 0 11 C0 7.33333333 0 3.66666667 0 0 Z " fill="#3D6144" transform="translate(428,542)"/>
<path d="M0 0 C5 2 5 2 8 4 C8.1875 7.625 8.1875 7.625 8 11 C7.01 11 6.02 11 5 11 C3.35 7.37 1.7 3.74 0 0 Z " fill="#537258" transform="translate(418,370)"/>
<path d="M0 0 C2.0078125 1.6484375 2.0078125 1.6484375 4 4 C4.2421875 6.7265625 4.2421875 6.7265625 3.875 9.625 C3.76929688 10.58664063 3.66359375 11.54828125 3.5546875 12.5390625 C3 15 3 15 1 17 C0.09586327 13.16275828 -0.10576898 9.62497726 -0.0625 5.6875 C-0.05347656 4.61886719 -0.04445312 3.55023438 -0.03515625 2.44921875 C-0.02355469 1.64097656 -0.01195312 0.83273438 0 0 Z " fill="#3C6443" transform="translate(221,66)"/>
<path d="M0 0 C0.99 0 1.98 0 3 0 C1.50829734 4.9723422 -0.60457417 9.41845739 -3 14 C-3.66 14 -4.32 14 -5 14 C-4.74279326 12.41439607 -4.46861201 10.83154076 -4.1875 9.25 C-3.96126953 7.92742187 -3.96126953 7.92742187 -3.73046875 6.578125 C-2.93087389 3.75602548 -2.03340713 2.10725969 0 0 Z " fill="#46654D" transform="translate(141,417)"/>
<path d="M0 0 C0.33 0 0.66 0 1 0 C1 1.65 1 3.3 1 5 C1.99 5.33 2.98 5.66 4 6 C3.67 7.65 3.34 9.3 3 11 C2.34 11 1.68 11 1 11 C0.67 12.32 0.34 13.64 0 15 C-2.52281134 5.42999664 -2.52281134 5.42999664 -1 1 C-0.67 0.67 -0.34 0.34 0 0 Z " fill="#658A6C" transform="translate(243,212)"/>
<path d="M0 0 C-0.969375 0.639375 -1.93875 1.27875 -2.9375 1.9375 C-5.76036269 3.6965259 -5.76036269 3.6965259 -7 5 C-8.52519276 4.91062197 -10.04681929 4.75462854 -11.5625 4.5625 C-12.80193359 4.40974609 -12.80193359 4.40974609 -14.06640625 4.25390625 C-14.70449219 4.17011719 -15.34257812 4.08632813 -16 4 C-16 3.34 -16 2.68 -16 2 C-13.71022755 1.47090114 -11.41810812 0.95194981 -9.125 0.4375 C-7.84882813 0.14746094 -6.57265625 -0.14257812 -5.2578125 -0.44140625 C-2 -1 -2 -1 0 0 Z " fill="#577C5E" transform="translate(197,38)"/>
<path d="M0 0 C2.875 -0.125 2.875 -0.125 6 0 C8 2 8 2 8 6 C10.475 6.99 10.475 6.99 13 8 C12.01 8.495 12.01 8.495 11 9 C10.67 9.66 10.34 10.32 10 11 C9.52949219 10.45730469 9.05898437 9.91460937 8.57421875 9.35546875 C7.95160156 8.64003906 7.32898438 7.92460938 6.6875 7.1875 C6.07261719 6.47980469 5.45773438 5.77210937 4.82421875 5.04296875 C3.26665665 3.29863261 1.67341125 1.63221959 0 0 Z " fill="#516F55" transform="translate(204,48)"/>
<path d="M0 0 C-1.32 0.33 -2.64 0.66 -4 1 C-3.87625 2.13501953 -3.87625 2.13501953 -3.75 3.29296875 C-4 6 -4 6 -5.75 7.80078125 C-6.4925 8.29964844 -7.235 8.79851562 -8 9.3125 C-8.7425 9.82425781 -9.485 10.33601562 -10.25 10.86328125 C-10.8275 11.23839844 -11.405 11.61351562 -12 12 C-10.4274017 7.67535468 -8.4611743 3.87821405 -6 0 C-3 -1 -3 -1 0 0 Z " fill="#4E7055" transform="translate(66,128)"/>
<path d="M0 0 C2.875 0.1875 2.875 0.1875 6 1 C6.66 2.65 7.32 4.3 8 6 C4.37 5.67 0.74 5.34 -3 5 C-3 4.34 -3 3.68 -3 3 C-2.01 2.67 -1.02 2.34 0 2 C0 1.34 0 0.68 0 0 Z " fill="#416F46" transform="translate(411,182)"/>
<path d="M0 0 C0.66 0 1.32 0 2 0 C2 0.66 2 1.32 2 2 C2.66 2.33 3.32 2.66 4 3 C3.67 4.32 3.34 5.64 3 7 C1.02 7.33 -0.96 7.66 -3 8 C-2.45276317 4.62537285 -1.9451 2.91765 0 0 Z " fill="#496E4D" transform="translate(31,180)"/>
<path d="M0 0 C0.33 1.32 0.66 2.64 1 4 C0.360625 4.4125 -0.27875 4.825 -0.9375 5.25 C-3.27029901 7.22934462 -3.43831927 8.09798291 -4 11 C-4.66 11.66 -5.32 12.32 -6 13 C-8.125 12.625 -8.125 12.625 -10 12 C-9.52949219 11.46890625 -9.05898437 10.9378125 -8.57421875 10.390625 C-7.95160156 9.68421875 -7.32898438 8.9778125 -6.6875 8.25 C-6.07261719 7.55390625 -5.45773438 6.8578125 -4.82421875 6.140625 C-3.12685266 4.14885494 -1.54522191 2.11101085 0 0 Z " fill="#6A856F" transform="translate(181,170)"/>
<path d="M0 0 C2 1 2 1 3.125 3.25 C4.00513321 6.01613295 4.1645438 8.12048351 4 11 C1 10 1 10 -0.8125 7.75 C-2 5 -2 5 -1.1875 2.1875 C-0.795625 1.465625 -0.40375 0.74375 0 0 Z " fill="#45664C" transform="translate(363,173)"/>
<path d="M0 0 C-1.07401108 2.91517292 -1.77810176 4.77810176 -4 7 C-6.31 6.01 -8.62 5.02 -11 4 C-7.61125486 1.74083657 -4.15175481 0 0 0 Z " fill="#3B6044" transform="translate(117,109)"/>
<path d="M0 0 C0 4.07063858 -1.58126053 5.57277449 -4.19921875 8.546875 C-6 10 -6 10 -9.875 10.4375 C-10.90625 10.293125 -11.9375 10.14875 -13 10 C-12.43796875 9.58105469 -11.8759375 9.16210938 -11.296875 8.73046875 C-8.92968468 6.94702434 -6.58763522 5.13448039 -4.25 3.3125 C-3.45078125 2.68988281 -2.6515625 2.06726563 -1.828125 1.42578125 C-1.22484375 0.95527344 -0.6215625 0.48476563 0 0 Z " fill="#657F6A" transform="translate(211,27)"/>
<path d="M0 0 C0.33 0 0.66 0 1 0 C1.02693575 2.12493141 1.04636628 4.24995912 1.0625 6.375 C1.07410156 7.55835938 1.08570313 8.74171875 1.09765625 9.9609375 C1 13 1 13 0 15 C-0.66 15 -1.32 15 -2 15 C-2.33 15.99 -2.66 16.98 -3 18 C-4.66285211 14.67429578 -2.98079852 11.31639055 -2.0625 7.875 C-1.86720703 7.12089844 -1.67191406 6.36679687 -1.47070312 5.58984375 C-0.98676642 3.72491694 -0.49419231 1.86223541 0 0 Z " fill="#7D9681" transform="translate(153,449)"/>
<path d="M0 0 C3 1 3 1 4.0625 3 C4.371875 3.66 4.68125 4.32 5 5 C5.66 5.33 6.32 5.66 7 6 C7 6.66 7 7.32 7 8 C6.34 8 5.68 8 5 8 C5 8.66 5 9.32 5 10 C5.66 10.33 6.32 10.66 7 11 C6.01 12.485 6.01 12.485 5 14 C4.16235732 12.04350603 3.33000941 10.08474444 2.5 8.125 C2.0359375 7.03445313 1.571875 5.94390625 1.09375 4.8203125 C0 2 0 2 0 0 Z " fill="#607F64" transform="translate(261,437)"/>
<path d="M0 0 C1 2 1 2 0.1875 4.5625 C-1 7 -1 7 -3 8 C-3.33 7.67 -3.66 7.34 -4 7 C-4.33 7.66 -4.66 8.32 -5 9 C-6.32 8.67 -7.64 8.34 -9 8 C-6.03 5.36 -3.06 2.72 0 0 Z " fill="#668870" transform="translate(313,160)"/>
<path d="M0 0 C0.99 0.99 1.98 1.98 3 3 C0.66153846 8.66153846 0.66153846 8.66153846 -2.6875 10.375 C-3.450625 10.58125 -4.21375 10.7875 -5 11 C-3.55049545 7.2089881 -1.84827434 3.6125362 0 0 Z " fill="#486A50" transform="translate(196,145)"/>
<path d="M0 0 C1.32 0.33 2.64 0.66 4 1 C3.0919838 2.13199353 2.17316174 3.25532363 1.25 4.375 C0.73953125 5.00148437 0.2290625 5.62796875 -0.296875 6.2734375 C-2.08199481 8.08312318 -3.67949644 9.00117455 -6 10 C-5.42680175 6.67545017 -4.45672125 5.26018355 -2 3 C-1.34 2.01 -0.68 1.02 0 0 Z " fill="#57715D" transform="translate(358,212)"/>
<path d="M0 0 C-4.455 3.465 -4.455 3.465 -9 7 C-9.66 6.01 -10.32 5.02 -11 4 C-7.20983177 -0.05155914 -5.67910927 -1.41977732 0 0 Z " fill="#54735A" transform="translate(77,315)"/>
<path d="M0 0 C0.33 0.66 0.66 1.32 1 2 C1.66 2 2.32 2 3 2 C2.39009109 5.55780196 1.4216319 8.6828589 0 12 C-0.66 11.67 -1.32 11.34 -2 11 C-1.85892253 9.54119891 -1.71197585 8.08296449 -1.5625 6.625 C-1.48128906 5.81289062 -1.40007812 5.00078125 -1.31640625 4.1640625 C-1 2 -1 2 0 0 Z " fill="#436348" transform="translate(299,177)"/>
<path d="M0 0 C0.9075 0.309375 1.815 0.61875 2.75 0.9375 C5.16563338 1.7272263 7.52780285 2.42949297 10 3 C10.33 4.32 10.66 5.64 11 7 C9.58208592 6.54554036 8.16571954 6.08625056 6.75 5.625 C5.96109375 5.36976562 5.1721875 5.11453125 4.359375 4.8515625 C2.13372042 4.04826333 0.09068328 3.10288338 -2 2 C-1.34 2 -0.68 2 0 2 C0 1.34 0 0.68 0 0 Z " fill="#537357" transform="translate(193,41)"/>
<path d="M0 0 C3 1 3 1 4.1875 3.0625 C4.455625 3.701875 4.72375 4.34125 5 5 C2.03 4.505 2.03 4.505 -1 4 C-0.67 4.99 -0.34 5.98 0 7 C-1.32 7 -2.64 7 -4 7 C-4.33 7.66 -4.66 8.32 -5 9 C-5.33 8.34 -5.66 7.68 -6 7 C-4.11192137 4.30274481 -2.80175356 2.86783571 0 1 C0 0.67 0 0.34 0 0 Z " fill="#2D5533" transform="translate(412,178)"/>
<path d="M0 0 C-0.33 1.32 -0.66 2.64 -1 4 C-1.66 4 -2.32 4 -3 4 C-3.2475 4.639375 -3.495 5.27875 -3.75 5.9375 C-5 8 -5 8 -7.125 8.75 C-8.053125 8.87375 -8.053125 8.87375 -9 9 C-7.45665977 5.21180126 -4.44676575 0 0 0 Z " fill="#698770" transform="translate(94,161)"/>
<path d="M0 0 C1.29608947 0.93137592 2.58671632 1.8703566 3.875 2.8125 C4.59429687 3.33457031 5.31359375 3.85664063 6.0546875 4.39453125 C8 6 8 6 10 9 C8.68 9 7.36 9 6 9 C5.34 7.35 4.68 5.7 4 4 C2.68 4.33 1.36 4.66 0 5 C0 3.35 0 1.7 0 0 Z " fill="#44664A" transform="translate(356,246)"/>
<path d="M0 0 C0.33 1.32 0.66 2.64 1 4 C0.0409375 4.37125 0.0409375 4.37125 -0.9375 4.75 C-3.18741541 5.81562433 -3.18741541 5.81562433 -3.75 8.125 C-3.8325 8.74375 -3.915 9.3625 -4 10 C-5.65 9.67 -7.3 9.34 -9 9 C-6 6 -3 3 0 0 Z " fill="#57795D" transform="translate(18,541)"/>
<path d="M0 0 C0.66 0 1.32 0 2 0 C2 0.66 2 1.32 2 2 C3.32 1.67 4.64 1.34 6 1 C7.53445094 4.06890187 6.54984289 6.70094266 6 10 C3.25722422 6.80009492 1.3697164 3.99500618 0 0 Z " fill="#426649" transform="translate(312,437)"/>
<path d="M0 0 C0.66 1.32 1.32 2.64 2 4 C0.02 4.66 -1.96 5.32 -4 6 C-4 6.99 -4 7.98 -4 9 C-5.65 9.33 -7.3 9.66 -9 10 C-8.06409496 8.8944811 -7.12620142 7.79064547 -6.1875 6.6875 C-5.66542969 6.07261719 -5.14335938 5.45773437 -4.60546875 4.82421875 C-3.12827531 3.14575321 -1.59960869 1.56117966 0 0 Z " fill="#53735B" transform="translate(77,256)"/>
<path d="M0 0 C0 3 0 3 -2.25 5.5 C-6.94117647 9.76470588 -6.94117647 9.76470588 -9 11 C-9.99 10.67 -10.98 10.34 -12 10 C-8.04 6.7 -4.08 3.4 0 0 Z " fill="#536E58" transform="translate(97,239)"/>
<path d="M0 0 C3 2 3 2 3.8125 4.3125 C4.02945279 7.4221566 3.34886782 9.2229192 2 12 C1.01 11.67 0.02 11.34 -1 11 C-0.67 7.37 -0.34 3.74 0 0 Z " fill="#6E8875" transform="translate(375,187)"/>
<path d="M0 0 C-0.50603992 2.16874252 -0.99983813 3.99967627 -2 6 C-3.65 5.67 -5.3 5.34 -7 5 C-7 4.01 -7 3.02 -7 2 C-4 0 -4 0 0 0 Z " fill="#43644A" transform="translate(124,107)"/>
<path d="M0 0 C4.29 0.33 8.58 0.66 13 1 C13 1.99 13 2.98 13 4 C10.69 4 8.38 4 6 4 C5.67 3.01 5.34 2.02 5 1 C3.35 1 1.7 1 0 1 C0 0.67 0 0.34 0 0 Z " fill="#819A89" transform="translate(251,38)"/>
<path d="M0 0 C2.97 0.495 2.97 0.495 6 1 C6 1.66 6 2.32 6 3 C6.99 3.33 7.98 3.66 9 4 C9 5.65 9 7.3 9 9 C7.87105124 8.06725891 6.74699124 7.12859878 5.625 6.1875 C4.99851562 5.66542969 4.37203125 5.14335937 3.7265625 4.60546875 C2 3 2 3 0 0 Z " fill="#69846D" transform="translate(382,324)"/>
<path d="M0 0 C0 0.66 0 1.32 0 2 C-0.66 2 -1.32 2 -2 2 C-2 3.32 -2 4.64 -2 6 C-3.32 6.33 -4.64 6.66 -6 7 C-6.66 5.68 -7.32 4.36 -8 3 C-2.25 0 -2.25 0 0 0 Z " fill="#355F3E" transform="translate(389,205)"/>
<path d="M0 0 C0.99 1.32 1.98 2.64 3 4 C2.34 5.32 1.68 6.64 1 8 C-0.65 8 -2.3 8 -4 8 C-2.68 5.36 -1.36 2.72 0 0 Z " fill="#62816A" transform="translate(40,163)"/>
<path d="M0 0 C1.98 0.66 3.96 1.32 6 2 C5.01 2.33 4.02 2.66 3 3 C2.67 3.99 2.34 4.98 2 6 C0.35 5.67 -1.3 5.34 -3 5 C-1.125 1.125 -1.125 1.125 0 0 Z " fill="#466C4D" transform="translate(348,159)"/>
<path d="M0 0 C0.66 0 1.32 0 2 0 C2.66 4.29 3.32 8.58 4 13 C3.34 13 2.68 13 2 13 C0.875 8.25 0.875 8.25 2 6 C1.34 6 0.68 6 0 6 C-0.38218767 4.34385343 -0.71395102 2.67542976 -1 1 C-0.67 0.67 -0.34 0.34 0 0 Z " fill="#304E36" transform="translate(420,341)"/>
<path d="M0 0 C1.32 1.32 2.64 2.64 4 4 C3.34 4 2.68 4 2 4 C2.33 5.65 2.66 7.3 3 9 C2.236875 8.21625 1.47375 7.4325 0.6875 6.625 C-1.90891805 3.92742283 -1.90891805 3.92742283 -5 2 C-3.68 2 -2.36 2 -1 2 C-0.67 1.34 -0.34 0.68 0 0 Z " fill="#729479" transform="translate(39,183)"/>
<path d="M0 0 C1.65 1.65 3.3 3.3 5 5 C3.02 5.99 3.02 5.99 1 7 C0.01 6.01 -0.98 5.02 -2 4 C-1.34 2.68 -0.68 1.36 0 0 Z " fill="#4B7055" transform="translate(139,166)"/>
<path d="M0 0 C0.33 0.99 0.66 1.98 1 3 C1.66 3.33 2.32 3.66 3 4 C2.67 4.99 2.34 5.98 2 7 C0.68 7 -0.64 7 -2 7 C-2.66 8.32 -3.32 9.64 -4 11 C-3.39301257 6.87248551 -1.96189209 3.6678852 0 0 Z " fill="#67846D" transform="translate(35,310)"/>
<path d="M0 0 C1.32 0.99 2.64 1.98 4 3 C1.69 4.65 -0.62 6.3 -3 8 C-3.66 6.68 -4.32 5.36 -5 4 C-4.34 3.67 -3.68 3.34 -3 3 C-2.34 3.33 -1.68 3.66 -1 4 C-0.67 2.68 -0.34 1.36 0 0 Z " fill="#4F7257" transform="translate(88,152)"/>
<path d="M0 0 C3.53372712 1.96318174 6.24479785 4.04070881 9 7 C5.20696275 5.99806563 2.28463659 5.18975773 -1 3 C-0.67 2.01 -0.34 1.02 0 0 Z " fill="#43634B" transform="translate(347,239)"/>
<path d="M0 0 C1.65 0.99 3.3 1.98 5 3 C4.67 3.99 4.34 4.98 4 6 C2.35 6 0.7 6 -1 6 C-1.625 4.125 -1.625 4.125 -2 2 C-1.34 1.34 -0.68 0.68 0 0 Z " fill="#4B6E53" transform="translate(291,200)"/>
<path d="M0 0 C2.16874252 0.50603992 3.99967627 0.99983813 6 2 C6.66 1.34 7.32 0.68 8 0 C8.33 1.32 8.66 2.64 9 4 C7.02 4.99 7.02 4.99 5 6 C3.35 4.02 1.7 2.04 0 0 Z " fill="#507356" transform="translate(58,185)"/>
<path d="M0 0 C0.33 0 0.66 0 1 0 C1.59332061 4.37573952 2.13827236 8.57528444 2 13 C1.01 13.33 0.02 13.66 -1 14 C-0.67 9.38 -0.34 4.76 0 0 Z " fill="#6E8B71" transform="translate(155,435)"/>
<path d="M0 0 C1.65 1.65 3.3 3.3 5 5 C3.6875 6.5 3.6875 6.5 2 8 C1.01 8 0.02 8 -1 8 C-0.67 5.36 -0.34 2.72 0 0 Z M5 3 C7 4 7 4 7 4 Z " fill="#3A5D41" transform="translate(97,384)"/>
<path d="M0 0 C4.95 0 9.9 0 15 0 C15 0.33 15 0.66 15 1 C14.21625 1.12375 13.4325 1.2475 12.625 1.375 C9.85942178 1.79117993 9.85942178 1.79117993 8 4 C7.01 3.67 6.02 3.34 5 3 C5.33 2.67 5.66 2.34 6 2 C3.03 1.505 3.03 1.505 0 1 C0 0.67 0 0.34 0 0 Z " fill="#8BA891" transform="translate(325,155)"/>
<path d="M0 0 C2.3431213 0.25561323 4.67843403 0.59270772 7 1 C7.33 1.66 7.66 2.32 8 3 C7.34 3.66 6.68 4.32 6 5 C5.67 5.66 5.34 6.32 5 7 C0 1.125 0 1.125 0 0 Z " fill="#6A8770" transform="translate(349,492)"/>
<path d="M0 0 C2.31 0.66 4.62 1.32 7 2 C6.01 2.495 6.01 2.495 5 3 C5.33 4.98 5.66 6.96 6 9 C2.91910327 6.22719294 1.31224548 3.93673644 0 0 Z " fill="#5A7E5F" transform="translate(408,353)"/>
<path d="M0 0 C2.03833424 1.2739589 4.03852126 2.61061923 6 4 C6 4.66 6 5.32 6 6 C0.25 5.25 0.25 5.25 -2 3 C-1.34 2.01 -0.68 1.02 0 0 Z " fill="#416746" transform="translate(397,177)"/>
<path d="M0 0 C0.99 0.66 1.98 1.32 3 2 C0.6875 4.0625 0.6875 4.0625 -2 6 C-2.99 5.67 -3.98 5.34 -5 5 C-5 4.34 -5 3.68 -5 3 C-2.5 1.375 -2.5 1.375 0 0 Z " fill="#6C8A71" transform="translate(54,529)"/>
<path d="M0 0 C0.66 1.32 1.32 2.64 2 4 C0.68 5.32 -0.64 6.64 -2 8 C-2.99 7.67 -3.98 7.34 -5 7 C-3.35 4.69 -1.7 2.38 0 0 Z " fill="#6E8673" transform="translate(187,161)"/>
<path d="M0 0 C1 2 2 4 3 6 C2.01 6.99 1.02 7.98 0 9 C-0.66 8.67 -1.32 8.34 -2 8 C-1.47731534 5.23723823 -0.89130413 2.6739124 0 0 Z " fill="#3F6044" transform="translate(204,127)"/>
<path d="M0 0 C3.23475448 1.61737724 4.70572021 2.47629223 7 5 C6.67 5.99 6.34 6.98 6 8 C5.34 8 4.68 8 4 8 C2.68 5.36 1.36 2.72 0 0 Z " fill="#516F58" transform="translate(327,118)"/>
<path d="M0 0 C0.66 0 1.32 0 2 0 C3.35015859 4.05047576 2.62084998 6.7920168 2 11 C1.34 10.67 0.68 10.34 0 10 C0 6.7 0 3.4 0 0 Z " fill="#799881" transform="translate(227,100)"/>
<path d="M0 0 C2.475 0.99 2.475 0.99 5 2 C5 1.34 5 0.68 5 0 C5.66 0 6.32 0 7 0 C6 3 6 3 2.9375 4.6875 C1.968125 5.120625 0.99875 5.55375 0 6 C0 4.02 0 2.04 0 0 Z " fill="#627E67" transform="translate(35,539)"/>
<path d="M0 0 C2.31 0 4.62 0 7 0 C5.25 3.875 5.25 3.875 3 5 C1 3 1 3 0 0 Z " fill="#517658" transform="translate(68,514)"/>
<path d="M0 0 C6.625 -0.125 6.625 -0.125 10 1 C10 1.99 10 2.98 10 4 C5.78087253 3.5205537 3.20336822 2.83374881 0 0 Z " fill="#5C735F" transform="translate(299,487)"/>
<path d="M0 0 C0.66 0 1.32 0 2 0 C2 2.31 2 4.62 2 7 C0.02 7.99 0.02 7.99 -2 9 C-1.34 6.03 -0.68 3.06 0 0 Z " fill="#45644D" transform="translate(85,430)"/>
<path d="M0 0 C1.98 0 3.96 0 6 0 C6.33 0.99 6.66 1.98 7 3 C8.65 2.67 10.3 2.34 12 2 C12.33 2.66 12.66 3.32 13 4 C10.31143576 5.00821159 8.58296785 5.22736824 5.88671875 4.17578125 C3.89205069 3.16604698 1.9353228 2.11893353 0 1 C0 0.67 0 0.34 0 0 Z " fill="#587964" transform="translate(354,306)"/>
<path d="M0 0 C0.33 0.99 0.66 1.98 1 3 C1.66 3.33 2.32 3.66 3 4 C2 6 2 6 -1.0625 7.125 C-2.031875 7.41375 -3.00125 7.7025 -4 8 C-2.87548273 5.0280615 -1.77706209 2.66559313 0 0 Z " fill="#65826A" transform="translate(46,291)"/>
<path d="M0 0 C0.99 0 1.98 0 3 0 C3.33 2.31 3.66 4.62 4 7 C3.34 7 2.68 7 2 7 C1.67 7.66 1.34 8.32 1 9 C0.67 6.03 0.34 3.06 0 0 Z " fill="#628166" transform="translate(244,227)"/>
<path d="M0 0 C2.64 0.33 5.28 0.66 8 1 C7.01 2.32 6.02 3.64 5 5 C3.68 4.67 2.36 4.34 1 4 C0.67 2.68 0.34 1.36 0 0 Z " fill="#728B76" transform="translate(58,217)"/>
<path d="M0 0 C-0.33 0.99 -0.66 1.98 -1 3 C-2.98 3.33 -4.96 3.66 -7 4 C-7.33 3.34 -7.66 2.68 -8 2 C-4.91190305 0.23537317 -3.76687864 0 0 0 Z " fill="#67846D" transform="translate(325,156)"/>
<path d="M0 0 C0.66 0 1.32 0 2 0 C2.33 1.65 2.66 3.3 3 5 C2.34 5 1.68 5 1 5 C0.67 6.32 0.34 7.64 0 9 C-0.33 9 -0.66 9 -1 9 C-1.125 2.25 -1.125 2.25 0 0 Z " fill="#4F6D51" transform="translate(229,90)"/>
<path d="M0 0 C1.5 1.375 1.5 1.375 3 3 C3 3.66 3 4.32 3 5 C1.35 5.33 -0.3 5.66 -2 6 C-1.125 1.125 -1.125 1.125 0 0 Z " fill="#2B5C33" transform="translate(16,545)"/>
<path d="M0 0 C2.0625 1.375 2.0625 1.375 4 3 C4.66 3.33 5.32 3.66 6 4 C6 4.66 6 5.32 6 6 C2.22454612 4.90931332 -0.47043472 4.0916909 -3 1 C-2.01 0.67 -1.02 0.34 0 0 Z " fill="#7B967F" transform="translate(408,540)"/>
<path d="M0 0 C5.75 0.75 5.75 0.75 8 3 C8 3.99 8 4.98 8 6 C4.63408134 4.55746343 2.48952921 2.66735273 0 0 Z " fill="#809D82" transform="translate(385,527)"/>
<path d="M0 0 C2.15377564 2.62198774 3.40072174 4.64404172 4 8 C3.34 8 2.68 8 2 8 C2 7.01 2 6.02 2 5 C1.01 5.33 0.02 5.66 -1 6 C-1 2 -1 2 0 0 Z " fill="#527258" transform="translate(371,460)"/>
<path d="M0 0 C0.33 0.66 0.66 1.32 1 2 C1.66 2.33 2.32 2.66 3 3 C0.25 8.875 0.25 8.875 -2 10 C-1.34 6.7 -0.68 3.4 0 0 Z " fill="#426349" transform="translate(93,403)"/>
<path d="M0 0 C0.33 0 0.66 0 1 0 C1.19477739 1.62414378 1.38059458 3.24936423 1.5625 4.875 C1.66691406 5.77992188 1.77132812 6.68484375 1.87890625 7.6171875 C2 10 2 10 1 12 C0.34 12 -0.32 12 -1 12 C-0.67 8.04 -0.34 4.08 0 0 Z " fill="#3C5D42" transform="translate(101,361)"/>
<path d="M0 0 C2.475 0.99 2.475 0.99 5 2 C3.8125 3.5625 3.8125 3.5625 2 5 C-0.6875 4.6875 -0.6875 4.6875 -3 4 C-2.01 2.68 -1.02 1.36 0 0 Z " fill="#476A4D" transform="translate(59,275)"/>
<path d="M0 0 C0.99 0.33 1.98 0.66 3 1 C1.68 3.31 0.36 5.62 -1 8 C-1.33 8 -1.66 8 -2 8 C-2 5.69 -2 3.38 -2 1 C-1.34 0.67 -0.68 0.34 0 0 Z " fill="#648169" transform="translate(77,165)"/>
<path d="M0 0 C0.33 1.32 0.66 2.64 1 4 C0.01 4.495 0.01 4.495 -1 5 C-1 5.99 -1 6.98 -1 8 C-2.32 8 -3.64 8 -5 8 C-3.8141763 4.62496331 -2.72426311 2.35277269 0 0 Z " fill="#657B6A" transform="translate(324,142)"/>
<path d="M0 0 C1.32 0.33 2.64 0.66 4 1 C4 2.65 4 4.3 4 6 C4.66 6.33 5.32 6.66 6 7 C5.01 7 4.02 7 3 7 C0 2.77777778 0 2.77777778 0 0 Z " fill="#617E68" transform="translate(268,453)"/>
<path d="M0 0 C0.99 0.33 1.98 0.66 3 1 C1.25 4.875 1.25 4.875 -1 6 C-1 5.34 -1 4.68 -1 4 C-1.66 3.67 -2.32 3.34 -3 3 C-2.01 2.01 -1.02 1.02 0 0 Z " fill="#466B4D" transform="translate(405,186)"/>
<path d="M0 0 C2.66735273 2.48952921 4.55746343 4.63408134 6 8 C4.35 8 2.7 8 1 8 C1.33 6.35 1.66 4.7 2 3 C1.34 3 0.68 3 0 3 C0 2.01 0 1.02 0 0 Z " fill="#658269" transform="translate(393,143)"/>
<path d="M0 0 C4 2 4 2 4.875 4.4375 C5 7 5 7 3 10 C2.01 6.7 1.02 3.4 0 0 Z " fill="#44664C" transform="translate(217,62)"/>
<path d="M0 0 C-2.31 1.65 -4.62 3.3 -7 5 C-7 3.35 -7 1.7 -7 0 C-2.25 -1.125 -2.25 -1.125 0 0 Z " fill="#7B9480" transform="translate(66,524)"/>
<path d="M0 0 C0.99 0.33 1.98 0.66 3 1 C1.35 2.98 -0.3 4.96 -2 7 C-2.66 6.01 -3.32 5.02 -4 4 C-3.67 3.01 -3.34 2.02 -3 1 C-2.34 1.33 -1.68 1.66 -1 2 C-0.67 1.34 -0.34 0.68 0 0 Z " fill="#778F7E" transform="translate(96,490)"/>
<path d="M0 0 C1 4 1 4 0.0625 6.25 C-0.4634375 7.11625 -0.4634375 7.11625 -1 8 C-1.99 8 -2.98 8 -4 8 C-2.68 5.36 -1.36 2.72 0 0 Z " fill="#749278" transform="translate(69,470)"/>
<path d="M0 0 C-2.6465335 2.6465335 -5.56221264 3.59941997 -9 5 C-8.625 3.0625 -8.625 3.0625 -8 1 C-5.29120665 -0.35439668 -2.99066732 -0.06501451 0 0 Z " fill="#5E7B61" transform="translate(92,306)"/>
<path d="M0 0 C0 2.33333333 0 4.66666667 0 7 C-1.65 7.33 -3.3 7.66 -5 8 C-1.125 1.125 -1.125 1.125 0 0 Z " fill="#65816B" transform="translate(52,283)"/>
<path d="M0 0 C0.33 0 0.66 0 1 0 C1 2.64 1 5.28 1 8 C0.01 7.34 -0.98 6.68 -2 6 C-1.125 1.125 -1.125 1.125 0 0 Z " fill="#507557" transform="translate(243,212)"/>
<path d="M0 0 C0.33 0 0.66 0 1 0 C1.33 3.96 1.66 7.92 2 12 C1.01 12 0.02 12 -1 12 C-1.33 11.01 -1.66 10.02 -2 9 C-1.34 9 -0.68 9 0 9 C0 6.03 0 3.06 0 0 Z " fill="#86A089" transform="translate(70,187)"/>
<path d="M0 0 C0.33 0.66 0.66 1.32 1 2 C0.67 2.66 0.34 3.32 0 4 C-0.66 4 -1.32 4 -2 4 C-2 4.99 -2 5.98 -2 7 C-3.32 6.67 -4.64 6.34 -6 6 C-4.02 4.02 -2.04 2.04 0 0 Z " fill="#5B795E" transform="translate(6,551)"/>
<path d="M0 0 C0.99 0.33 1.98 0.66 3 1 C0.03 3.475 0.03 3.475 -3 6 C-3.33 5.01 -3.66 4.02 -4 3 C-3.34 2.34 -2.68 1.68 -2 1 C-1.34 1.33 -0.68 1.66 0 2 C0 1.34 0 0.68 0 0 Z " fill="#5B7860" transform="translate(161,473)"/>
<path d="M0 0 C1.32 0.33 2.64 0.66 4 1 C4 3.31 4 5.62 4 8 C1.84622436 5.37801226 0.59927826 3.35595828 0 0 Z " fill="#516E59" transform="translate(299,411)"/>
<path d="M0 0 C1.65 0 3.3 0 5 0 C5.33 1.98 5.66 3.96 6 6 C3.97945196 4.35830472 1.97956942 2.69088222 0 1 C0 0.67 0 0.34 0 0 Z " fill="#6F8774" transform="translate(391,333)"/>
<path d="M0 0 C0.33 1.32 0.66 2.64 1 4 C-0.98 5.32 -2.96 6.64 -5 8 C-3.62845496 5.04590299 -2.01136276 2.55991624 0 0 Z " fill="#7C9481" transform="translate(181,170)"/>
</svg>
