<?xml version="1.0" encoding="UTF-8"?>
<!DOCTYPE svg PUBLIC "-//W3C//DTD SVG 1.1//EN" "http://www.w3.org/Graphics/SVG/1.1/DTD/svg11.dtd">
<svg xmlns="http://www.w3.org/2000/svg" version="1.1" width="98px" height="197px" style="shape-rendering:geometricPrecision; text-rendering:geometricPrecision; image-rendering:optimizeQuality; fill-rule:evenodd; clip-rule:evenodd" xmlns:xlink="http://www.w3.org/1999/xlink">
<g><path style="opacity:1" fill="#6cc215" d="M 94.5,47.5 C 89.0779,52.5846 84.4113,58.2512 80.5,64.5C 79.7565,61.4115 78.0898,60.7449 75.5,62.5C 72.6879,62.2331 70.3545,61.2331 68.5,59.5C 70.4024,60.5109 72.4024,60.6776 74.5,60C 75.2524,59.3292 75.5858,58.4959 75.5,57.5C 76.675,57.719 77.675,57.3857 78.5,56.5C 79.3195,54.0262 80.3195,51.6929 81.5,49.5C 83.6142,47.2129 86.1142,45.5463 89,44.5C 91.0828,45.2311 92.9161,46.2311 94.5,47.5 Z"/></g>
<g><path style="opacity:1" fill="#acd774" d="M 97.5,47.5 C 97.5,49.1667 97.5,50.8333 97.5,52.5C 96.8333,53.1667 96.1667,53.8333 95.5,54.5C 95.8016,51.9407 95.4682,49.6074 94.5,47.5C 92.9161,46.2311 91.0828,45.2311 89,44.5C 86.1142,45.5463 83.6142,47.2129 81.5,49.5C 83.0512,46.4372 85.2179,43.7705 88,41.5C 91.4481,43.1359 94.6148,45.1359 97.5,47.5 Z"/></g>
<g><path style="opacity:1" fill="#a2ec59" d="M 63.5,57.5 C 48.2314,56.2531 35.2314,60.9197 24.5,71.5C 22.2901,71.894 20.9568,73.2273 20.5,75.5C 17.8938,76.1359 15.3938,76.1359 13,75.5C 11.9827,77.3759 11.1494,79.3759 10.5,81.5C 9.81654,81.1373 9.14987,80.8039 8.5,80.5C 8.83333,79.1667 9.16667,77.8333 9.5,76.5C 11.5869,75.4154 12.9202,73.7488 13.5,71.5C 17.1422,68.0134 21.1422,65.0134 25.5,62.5C 35.4351,57.0247 46.1018,54.5247 57.5,55C 59.6115,55.8447 61.6115,56.678 63.5,57.5 Z"/></g>
<g><path style="opacity:1" fill="#93cb60" d="M 81.5,49.5 C 80.3195,51.6929 79.3195,54.0262 78.5,56.5C 77.675,57.3857 76.675,57.719 75.5,57.5C 77.016,54.4669 79.016,51.8003 81.5,49.5 Z"/></g>
<g><path style="opacity:0.953" fill="#c5ee97" d="M 75.5,57.5 C 75.5858,58.4959 75.2524,59.3292 74.5,60C 72.4024,60.6776 70.4024,60.5109 68.5,59.5C 66.8333,58.8333 65.1667,58.1667 63.5,57.5C 61.6115,56.678 59.6115,55.8447 57.5,55C 46.1018,54.5247 35.4351,57.0247 25.5,62.5C 25.8333,61.8333 26.1667,61.1667 26.5,60.5C 37.5563,53.059 49.5563,51.2256 62.5,55C 65.6061,56.6365 68.7728,58.1365 72,59.5C 73.3026,59.0217 74.4693,58.355 75.5,57.5 Z"/></g>
<g><path style="opacity:1" fill="#b5e581" d="M 95.5,54.5 C 94.2262,57.7598 92.5595,60.7598 90.5,63.5C 90.4769,59.5317 92.1436,56.5317 95.5,54.5 Z"/></g>
<g><path style="opacity:1" fill="#79dd16" d="M 47.5,68.5 C 44.0504,69.9095 40.3837,70.5762 36.5,70.5C 36.5,71.5 36.5,72.5 36.5,73.5C 33.6915,73.6933 31.0248,74.36 28.5,75.5C 28.5,77.1667 28.5,78.8333 28.5,80.5C 27.1266,80.3433 25.7932,80.51 24.5,81C 25.3402,82.6665 24.8402,82.8331 23,81.5C 22.51,82.7932 22.3433,84.1266 22.5,85.5C 21.5,85.5 20.5,85.5 19.5,85.5C 17.6558,84.7961 17.1558,83.4628 18,81.5C 18.7387,78.8975 20.4054,77.2309 23,76.5C 23.3519,74.7525 23.8519,73.0858 24.5,71.5C 25.552,71.6495 26.552,71.4828 27.5,71C 32.0323,67.8187 36.699,64.8187 41.5,62C 46.4509,61.2368 51.2842,60.0702 56,58.5C 58.8953,58.5316 61.3953,59.5316 63.5,61.5C 66.6154,60.071 68.2821,61.2377 68.5,65C 68.1667,65.5 67.8333,66 67.5,66.5C 64.01,66.9272 60.3434,66.9272 56.5,66.5C 53.0866,66.517 50.0866,67.1836 47.5,68.5 Z"/></g>
<g><path style="opacity:1" fill="#7fdc27" d="M 63.5,57.5 C 65.1667,58.1667 66.8333,58.8333 68.5,59.5C 70.3545,61.2331 72.6879,62.2331 75.5,62.5C 74.1911,65.7777 72.3578,68.7777 70,71.5C 68.9887,70.6634 67.8221,70.33 66.5,70.5C 65.0101,68.7202 63.0101,68.0535 60.5,68.5C 57.5,68.5 54.5,68.5 51.5,68.5C 50.1667,68.5 48.8333,68.5 47.5,68.5C 50.0866,67.1836 53.0866,66.517 56.5,66.5C 60.3434,66.9272 64.01,66.9272 67.5,66.5C 67.8333,66 68.1667,65.5 68.5,65C 68.2821,61.2377 66.6154,60.071 63.5,61.5C 61.3953,59.5316 58.8953,58.5316 56,58.5C 51.2842,60.0702 46.4509,61.2368 41.5,62C 36.699,64.8187 32.0323,67.8187 27.5,71C 26.552,71.4828 25.552,71.6495 24.5,71.5C 35.2314,60.9197 48.2314,56.2531 63.5,57.5 Z"/></g>
<g><path style="opacity:0.694" fill="#d6f5b3" d="M 26.5,60.5 C 26.1667,61.1667 25.8333,61.8333 25.5,62.5C 21.1422,65.0134 17.1422,68.0134 13.5,71.5C 14.2026,69.2843 15.5359,67.451 17.5,66C 20.2223,63.6422 23.2223,61.8089 26.5,60.5 Z"/></g>
<g><path style="opacity:1" fill="#7adc1a" d="M 94.5,47.5 C 95.4682,49.6074 95.8016,51.9407 95.5,54.5C 92.1436,56.5317 90.4769,59.5317 90.5,63.5C 90.6716,64.4916 90.3382,65.1583 89.5,65.5C 88.5,65.5 87.5,65.5 86.5,65.5C 86.1667,68.1667 85.8333,70.8333 85.5,73.5C 82.3372,77.1559 79.6705,81.1559 77.5,85.5C 76.5,85.5 75.5,85.5 74.5,85.5C 74.6602,87.1992 74.4935,88.8659 74,90.5C 72.2687,94.0671 70.7687,97.7338 69.5,101.5C 69.5,101.833 69.5,102.167 69.5,102.5C 68.8333,102.5 68.1667,102.5 67.5,102.5C 66.9729,99.7686 66.1396,97.1019 65,94.5C 63.6439,93.6198 62.1439,93.2865 60.5,93.5C 62.3448,91.1437 63.6782,88.4771 64.5,85.5C 69.805,78.5218 75.1384,71.5218 80.5,64.5C 84.4113,58.2512 89.0779,52.5846 94.5,47.5 Z"/></g>
<g><path style="opacity:1" fill="#b3dd86" d="M 60.5,68.5 C 63.0101,68.0535 65.0101,68.7202 66.5,70.5C 65.8724,72.6616 64.539,74.3282 62.5,75.5C 63.6298,73.6854 64.2964,71.6854 64.5,69.5C 62.901,69.7678 61.5676,69.4345 60.5,68.5 Z"/></g>
<g><path style="opacity:0.792" fill="#d4f4a9" d="M 13.5,71.5 C 12.9202,73.7488 11.5869,75.4154 9.5,76.5C 10.0798,74.2512 11.4131,72.5846 13.5,71.5 Z"/></g>
<g><path style="opacity:1" fill="#a2d570" d="M 89.5,65.5 C 88.3914,67.5544 87.3914,69.7211 86.5,72C 88.4379,73.4314 89.7712,75.2647 90.5,77.5C 89.8333,77.1667 89.1667,76.8333 88.5,76.5C 87.0998,75.8999 86.0998,74.8999 85.5,73.5C 85.8333,70.8333 86.1667,68.1667 86.5,65.5C 87.5,65.5 88.5,65.5 89.5,65.5 Z"/></g>
<g><path style="opacity:1" fill="#9ee15c" d="M 47.5,68.5 C 48.8333,68.5 50.1667,68.5 51.5,68.5C 40.7283,70.6088 32.395,76.2755 26.5,85.5C 24.7376,86.2623 23.7376,87.5956 23.5,89.5C 22.6618,89.8417 22.3284,90.5084 22.5,91.5C 20.2494,94.9258 18.5827,98.5925 17.5,102.5C 17.5,101.833 17.5,101.167 17.5,100.5C 17.3379,98.4727 17.5045,96.4727 18,94.5C 20.747,91.9256 21.247,88.9256 19.5,85.5C 20.5,85.5 21.5,85.5 22.5,85.5C 22.3433,84.1266 22.51,82.7932 23,81.5C 24.8402,82.8331 25.3402,82.6665 24.5,81C 25.7932,80.51 27.1266,80.3433 28.5,80.5C 28.5,78.8333 28.5,77.1667 28.5,75.5C 31.0248,74.36 33.6915,73.6933 36.5,73.5C 36.5,72.5 36.5,71.5 36.5,70.5C 40.3837,70.5762 44.0504,69.9095 47.5,68.5 Z"/></g>
<g><path style="opacity:1" fill="#a2ec59" d="M 20.5,75.5 C 18.1975,77.978 16.0308,80.6447 14,83.5C 13.2264,87.0487 11.893,90.382 10,93.5C 9.04673,96.4318 8.54673,99.4318 8.5,102.5C 7.3467,108.653 7.18003,114.986 8,121.5C 9.55583,127.332 11.3892,132.999 13.5,138.5C 12.1667,138.167 10.8333,137.833 9.5,137.5C 9.5,137.167 9.5,136.833 9.5,136.5C 8.24111,132.975 6.24111,129.975 3.5,127.5C 2.95845,120.406 1.95845,113.406 0.5,106.5C 1.08162,102.182 1.41495,97.8485 1.5,93.5C 1.5,93.1667 1.5,92.8333 1.5,92.5C 4.34337,88.8155 6.67671,84.8155 8.5,80.5C 9.14987,80.8039 9.81654,81.1373 10.5,81.5C 11.1494,79.3759 11.9827,77.3759 13,75.5C 15.3938,76.1359 17.8938,76.1359 20.5,75.5 Z"/></g>
<g><path style="opacity:1" fill="#69c213" d="M 80.5,64.5 C 75.1384,71.5218 69.805,78.5218 64.5,85.5C 64.189,84.5222 63.5223,83.8555 62.5,83.5C 61.5753,86.9052 60.5753,90.2386 59.5,93.5C 56.6907,93.043 54.024,93.043 51.5,93.5C 53.2251,90.5901 55.3918,87.9234 58,85.5C 59.8011,82.2366 61.3011,78.9033 62.5,75.5C 64.539,74.3282 65.8724,72.6616 66.5,70.5C 67.8221,70.33 68.9887,70.6634 70,71.5C 72.3578,68.7777 74.1911,65.7777 75.5,62.5C 78.0898,60.7449 79.7565,61.4115 80.5,64.5 Z"/></g>
<g><path style="opacity:1" fill="#68be13" d="M 85.5,73.5 C 86.0998,74.8999 87.0998,75.8999 88.5,76.5C 85.9986,79.3573 84.332,82.6907 83.5,86.5C 83.196,89.5219 82.696,92.5219 82,95.5C 81.0528,90.4518 80.5528,90.7851 80.5,96.5C 80.6667,98.1667 80.8333,99.8333 81,101.5C 81.3678,100.09 82.2011,99.09 83.5,98.5C 84.4763,101.497 84.3097,104.497 83,107.5C 81.5861,106.587 80.0861,106.587 78.5,107.5C 80.0761,100.016 79.7428,92.6826 77.5,85.5C 79.6705,81.1559 82.3372,77.1559 85.5,73.5 Z"/></g>
<g><path style="opacity:1" fill="#96ce60" d="M 62.5,75.5 C 61.3011,78.9033 59.8011,82.2366 58,85.5C 55.3918,87.9234 53.2251,90.5901 51.5,93.5C 50.205,94.4884 48.8717,95.4884 47.5,96.5C 52.1192,89.2163 57.1192,82.2163 62.5,75.5 Z"/></g>
<g><path style="opacity:0.906" fill="#cdf1aa" d="M 37.5,89.5 C 34.5494,89.2938 31.8827,88.2938 29.5,86.5C 27.5056,88.16 25.5056,89.8267 23.5,91.5C 23.5,90.8333 23.5,90.1667 23.5,89.5C 25.2624,88.7377 26.2624,87.4044 26.5,85.5C 30.7959,84.8028 34.4625,86.1362 37.5,89.5 Z"/></g>
<g><path style="opacity:1" fill="#bfeb90" d="M 9.5,76.5 C 9.16667,77.8333 8.83333,79.1667 8.5,80.5C 6.67671,84.8155 4.34337,88.8155 1.5,92.5C 3.13182,86.5696 5.79849,81.2363 9.5,76.5 Z"/></g>
<g><path style="opacity:1" fill="#a3e95f" d="M 37.5,89.5 C 39.914,90.9108 41.5806,92.9108 42.5,95.5C 41.5,94.8333 40.5,94.1667 39.5,93.5C 38.0077,91.0784 36.0077,90.4117 33.5,91.5C 31.5936,94.64 30.2603,97.9734 29.5,101.5C 28.5,101.5 27.5,101.5 26.5,101.5C 25.828,100.733 24.9947,100.066 24,99.5C 23.5026,96.854 23.3359,94.1873 23.5,91.5C 25.5056,89.8267 27.5056,88.16 29.5,86.5C 31.8827,88.2938 34.5494,89.2938 37.5,89.5 Z"/></g>
<g><path style="opacity:1" fill="#6ac312" d="M 64.5,85.5 C 63.6782,88.4771 62.3448,91.1437 60.5,93.5C 57.2822,96.5549 54.6155,100.055 52.5,104C 51.5,104.667 50.5,104.667 49.5,104C 47.9368,102.264 46.2701,100.764 44.5,99.5C 46.5,99.5 47.5,98.5 47.5,96.5C 48.8717,95.4884 50.205,94.4884 51.5,93.5C 54.024,93.043 56.6907,93.043 59.5,93.5C 60.5753,90.2386 61.5753,86.9052 62.5,83.5C 63.5223,83.8555 64.189,84.5222 64.5,85.5 Z"/></g>
<g><path style="opacity:1" fill="#7bdd1e" d="M 88.5,76.5 C 89.1667,76.8333 89.8333,77.1667 90.5,77.5C 91.3382,77.8417 91.6716,78.5084 91.5,79.5C 91.7366,82.6473 92.5699,85.6473 94,88.5C 94.4997,96.1594 94.6664,103.826 94.5,111.5C 94.7678,113.099 94.4345,114.432 93.5,115.5C 92.0687,116.78 91.4021,118.447 91.5,120.5C 90.5,121.167 89.5,121.833 88.5,122.5C 88.133,118.933 87.133,115.6 85.5,112.5C 88.9389,107.256 89.2723,101.922 86.5,96.5C 85.9198,92.9594 84.9198,89.6261 83.5,86.5C 84.332,82.6907 85.9986,79.3573 88.5,76.5 Z"/></g>
<g><path style="opacity:1" fill="#7add1a" d="M 24.5,71.5 C 23.8519,73.0858 23.3519,74.7525 23,76.5C 20.4054,77.2309 18.7387,78.8975 18,81.5C 17.1558,83.4628 17.6558,84.7961 19.5,85.5C 21.247,88.9256 20.747,91.9256 18,94.5C 17.5045,96.4727 17.3379,98.4727 17.5,100.5C 16.8485,101.091 16.1818,101.757 15.5,102.5C 13.4202,108.753 11.5868,115.086 10,121.5C 8.54459,115.347 8.04459,109.014 8.5,102.5C 8.54673,99.4318 9.04673,96.4318 10,93.5C 11.893,90.382 13.2264,87.0487 14,83.5C 16.0308,80.6447 18.1975,77.978 20.5,75.5C 20.9568,73.2273 22.2901,71.894 24.5,71.5 Z"/></g>
<g><path style="opacity:1" fill="#79dd17" d="M 39.5,93.5 C 39.733,97.6216 41.733,100.622 45.5,102.5C 42.607,103.68 39.607,103.013 36.5,100.5C 35.7379,101.628 35.0712,102.795 34.5,104C 38.0836,105.073 41.7502,105.74 45.5,106C 45.9574,106.414 46.2907,106.914 46.5,107.5C 44.9223,108.298 43.2556,108.798 41.5,109C 44.5685,108.952 46.9018,110.119 48.5,112.5C 47.3493,113.731 46.1827,113.731 45,112.5C 42.6218,113.524 41.2885,114.858 41,116.5C 40.0979,116.257 39.2646,115.923 38.5,115.5C 36.3118,110.312 33.3118,105.645 29.5,101.5C 30.2603,97.9734 31.5936,94.64 33.5,91.5C 36.0077,90.4117 38.0077,91.0784 39.5,93.5 Z"/></g>
<g><path style="opacity:1" fill="#79dc19" d="M 39.5,93.5 C 40.5,94.1667 41.5,94.8333 42.5,95.5C 42.7329,97.0618 43.3995,98.3951 44.5,99.5C 46.2701,100.764 47.9368,102.264 49.5,104C 50.5,104.667 51.5,104.667 52.5,104C 54.6155,100.055 57.2822,96.5549 60.5,93.5C 62.1439,93.2865 63.6439,93.6198 65,94.5C 66.1396,97.1019 66.9729,99.7686 67.5,102.5C 66.8855,104.723 65.5522,106.389 63.5,107.5C 62.7084,110.973 61.7084,114.306 60.5,117.5C 60.6716,118.492 60.3382,119.158 59.5,119.5C 58.5,119.5 57.5,119.5 56.5,119.5C 56.5,120.833 56.5,122.167 56.5,123.5C 53.7702,123.473 51.2702,124.14 49,125.5C 46.2951,124.564 43.7951,123.231 41.5,121.5C 40.044,119.716 39.044,117.716 38.5,115.5C 39.2646,115.923 40.0979,116.257 41,116.5C 41.2885,114.858 42.6218,113.524 45,112.5C 46.1827,113.731 47.3493,113.731 48.5,112.5C 46.9018,110.119 44.5685,108.952 41.5,109C 43.2556,108.798 44.9223,108.298 46.5,107.5C 46.2907,106.914 45.9574,106.414 45.5,106C 41.7502,105.74 38.0836,105.073 34.5,104C 35.0712,102.795 35.7379,101.628 36.5,100.5C 39.607,103.013 42.607,103.68 45.5,102.5C 41.733,100.622 39.733,97.6216 39.5,93.5 Z"/></g>
<g><path style="opacity:0.992" fill="#b5e784" d="M 42.5,95.5 C 43.935,97.4011 45.6017,97.7345 47.5,96.5C 47.5,98.5 46.5,99.5 44.5,99.5C 43.3995,98.3951 42.7329,97.0618 42.5,95.5 Z"/></g>
<g><path style="opacity:1" fill="#b0e376" d="M 91.5,79.5 C 96.691,89.794 97.691,100.461 94.5,111.5C 94.6664,103.826 94.4997,96.1594 94,88.5C 92.5699,85.6473 91.7366,82.6473 91.5,79.5 Z"/></g>
<g><path style="opacity:1" fill="#9cd068" d="M 22.5,91.5 C 22.8333,91.5 23.1667,91.5 23.5,91.5C 23.3359,94.1873 23.5026,96.854 24,99.5C 24.9947,100.066 25.828,100.733 26.5,101.5C 28.0349,104.676 30.2016,108.009 33,111.5C 36.2896,113.499 37.7896,116.499 37.5,120.5C 32.5299,114.015 27.6965,107.348 23,100.5C 21.3024,97.6037 21.1357,94.6037 22.5,91.5 Z"/></g>
<g><path style="opacity:1" fill="#a8e26d" d="M 67.5,102.5 C 68.1667,102.5 68.8333,102.5 69.5,102.5C 66.737,107.701 63.737,112.701 60.5,117.5C 61.7084,114.306 62.7084,110.973 63.5,107.5C 65.5522,106.389 66.8855,104.723 67.5,102.5 Z"/></g>
<g><path style="opacity:1" fill="#6dc415" d="M 26.5,101.5 C 27.5,101.5 28.5,101.5 29.5,101.5C 33.3118,105.645 36.3118,110.312 38.5,115.5C 39.044,117.716 40.044,119.716 41.5,121.5C 40.1667,121.167 38.8333,120.833 37.5,120.5C 37.7896,116.499 36.2896,113.499 33,111.5C 30.2016,108.009 28.0349,104.676 26.5,101.5 Z"/></g>
<g><path style="opacity:1" fill="#98d05d" d="M 77.5,85.5 C 79.7428,92.6826 80.0761,100.016 78.5,107.5C 78.3059,110.33 77.6392,112.996 76.5,115.5C 75.3634,116.789 74.0301,117.789 72.5,118.5C 77.5816,109.012 79.0816,99.0125 77,88.5C 74.9783,93.2232 72.4783,97.5566 69.5,101.5C 70.7687,97.7338 72.2687,94.0671 74,90.5C 74.4935,88.8659 74.6602,87.1992 74.5,85.5C 75.5,85.5 76.5,85.5 77.5,85.5 Z"/></g>
<g><path style="opacity:1" fill="#69c411" d="M 83.5,86.5 C 84.9198,89.6261 85.9198,92.9594 86.5,96.5C 86.6257,107.269 83.6257,116.935 77.5,125.5C 77.8957,122.956 77.229,120.789 75.5,119C 76.3366,117.989 76.67,116.822 76.5,115.5C 77.6392,112.996 78.3059,110.33 78.5,107.5C 80.0861,106.587 81.5861,106.587 83,107.5C 84.3097,104.497 84.4763,101.497 83.5,98.5C 82.2011,99.09 81.3678,100.09 81,101.5C 80.8333,99.8333 80.6667,98.1667 80.5,96.5C 80.5528,90.7851 81.0528,90.4518 82,95.5C 82.696,92.5219 83.196,89.5219 83.5,86.5 Z"/></g>
<g><path style="opacity:0.275" fill="#dffac4" d="M -0.5,113.5 C 0.768202,115.905 1.43487,118.572 1.5,121.5C 0.833333,120.5 0.166667,119.5 -0.5,118.5C -0.5,116.833 -0.5,115.167 -0.5,113.5 Z"/></g>
<g><path style="opacity:1" fill="#baee85" d="M 1.5,93.5 C 1.41495,97.8485 1.08162,102.182 0.5,106.5C 1.95845,113.406 2.95845,120.406 3.5,127.5C 2.26162,125.786 1.59495,123.786 1.5,121.5C 1.43487,118.572 0.768202,115.905 -0.5,113.5C -0.5,108.167 -0.5,102.833 -0.5,97.5C 0.166667,96.1667 0.833333,94.8333 1.5,93.5 Z"/></g>
<g><path style="opacity:0.498" fill="#cdf0aa" d="M 93.5,115.5 C 93.5979,117.553 92.9313,119.22 91.5,120.5C 91.4021,118.447 92.0687,116.78 93.5,115.5 Z"/></g>
<g><path style="opacity:1" fill="#7adc18" d="M 86.5,96.5 C 89.2723,101.922 88.9389,107.256 85.5,112.5C 87.133,115.6 88.133,118.933 88.5,122.5C 86.9417,125.729 85.6084,129.062 84.5,132.5C 83.0937,132.973 82.427,133.973 82.5,135.5C 79.0336,132.594 77.3669,133.594 77.5,138.5C 76.209,138.263 75.209,138.596 74.5,139.5C 70.904,138.006 70.5706,135.839 73.5,133C 75.0948,133.617 76.4281,133.284 77.5,132C 76.244,131.583 75.5774,130.75 75.5,129.5C 75.7329,127.938 76.3995,126.605 77.5,125.5C 83.6257,116.935 86.6257,107.269 86.5,96.5 Z"/></g>
<g><path style="opacity:1" fill="#81dd29" d="M 17.5,100.5 C 17.5,101.167 17.5,101.833 17.5,102.5C 17.5,107.833 17.5,113.167 17.5,118.5C 17.804,121.522 18.304,124.522 19,127.5C 19.6708,128.252 20.5041,128.586 21.5,128.5C 21.427,130.027 22.0937,131.027 23.5,131.5C 24.075,133.411 25.075,135.078 26.5,136.5C 24.8828,135.962 23.2161,135.629 21.5,135.5C 21.0573,139.529 22.8906,141.529 27,141.5C 27.1805,143.488 27.0138,145.488 26.5,147.5C 25.8333,147.5 25.1667,147.5 24.5,147.5C 21.6689,146.921 19.3356,145.588 17.5,143.5C 16.396,141.611 15.0627,139.945 13.5,138.5C 11.3892,132.999 9.55583,127.332 8,121.5C 7.18003,114.986 7.3467,108.653 8.5,102.5C 8.04459,109.014 8.54459,115.347 10,121.5C 11.5868,115.086 13.4202,108.753 15.5,102.5C 16.1818,101.757 16.8485,101.091 17.5,100.5 Z"/></g>
<g><path style="opacity:1" fill="#9ad55f" d="M 59.5,119.5 C 56.2312,127.977 50.5646,129.811 42.5,125C 40.3825,123.951 38.7158,122.451 37.5,120.5C 38.8333,120.833 40.1667,121.167 41.5,121.5C 43.7951,123.231 46.2951,124.564 49,125.5C 51.2702,124.14 53.7702,123.473 56.5,123.5C 56.5,122.167 56.5,120.833 56.5,119.5C 57.5,119.5 58.5,119.5 59.5,119.5 Z"/></g>
<g><path style="opacity:1" fill="#a4e268" d="M 91.5,120.5 C 91.5086,122.308 91.0086,123.975 90,125.5C 88.629,128.266 86.7957,130.599 84.5,132.5C 85.6084,129.062 86.9417,125.729 88.5,122.5C 89.5,121.833 90.5,121.167 91.5,120.5 Z"/></g>
<g><path style="opacity:1" fill="#9fe066" d="M 17.5,118.5 C 19.0086,121.678 20.342,125.011 21.5,128.5C 20.5041,128.586 19.6708,128.252 19,127.5C 18.304,124.522 17.804,121.522 17.5,118.5 Z"/></g>
<g><path style="opacity:1" fill="#6dc21b" d="M 76.5,115.5 C 76.67,116.822 76.3366,117.989 75.5,119C 77.229,120.789 77.8957,122.956 77.5,125.5C 76.3995,126.605 75.7329,127.938 75.5,129.5C 73.8333,130.833 72.1667,132.167 70.5,133.5C 70.2089,132.351 69.3756,131.684 68,131.5C 66.276,131.955 64.776,132.788 63.5,134C 64.6956,134.654 64.6956,135.154 63.5,135.5C 59.7594,134.358 56.7594,135.524 54.5,139C 55.5,139.333 56.5,139.667 57.5,140C 54.4929,140.301 51.4929,140.135 48.5,139.5C 50.0419,138.837 51.7086,138.17 53.5,137.5C 53.8627,136.817 54.1961,136.15 54.5,135.5C 55.8993,134.11 57.5659,133.11 59.5,132.5C 63.7671,131.232 66.7671,128.565 68.5,124.5C 69.4486,122.223 70.7819,120.223 72.5,118.5C 74.0301,117.789 75.3634,116.789 76.5,115.5 Z"/></g>
<g><path style="opacity:0.984" fill="#a3d478" d="M 68.5,124.5 C 66.7671,128.565 63.7671,131.232 59.5,132.5C 62.4744,129.862 65.4744,127.195 68.5,124.5 Z"/></g>
<g><path style="opacity:0.38" fill="#d4f3af" d="M 3.5,127.5 C 6.24111,129.975 8.24111,132.975 9.5,136.5C 6.72316,134.049 4.72316,131.049 3.5,127.5 Z"/></g>
<g><path style="opacity:0.439" fill="#c9f1a5" d="M 21.5,128.5 C 22.9063,128.973 23.573,129.973 23.5,131.5C 22.0937,131.027 21.427,130.027 21.5,128.5 Z"/></g>
<g><path style="opacity:0.953" fill="#bced89" d="M 23.5,131.5 C 25.8333,133.167 27.8333,135.167 29.5,137.5C 28.391,137.443 27.391,137.11 26.5,136.5C 25.075,135.078 24.075,133.411 23.5,131.5 Z"/></g>
<g><path style="opacity:0.055" fill="#cdf1a2" d="M 84.5,132.5 C 84.573,134.027 83.9063,135.027 82.5,135.5C 82.427,133.973 83.0937,132.973 84.5,132.5 Z"/></g>
<g><path style="opacity:1" fill="#7cdb1e" d="M 75.5,129.5 C 75.5774,130.75 76.244,131.583 77.5,132C 76.4281,133.284 75.0948,133.617 73.5,133C 70.5706,135.839 70.904,138.006 74.5,139.5C 73.032,140.779 72.3653,142.446 72.5,144.5C 72.0269,145.906 71.0269,146.573 69.5,146.5C 64.5648,147.674 59.8981,149.341 55.5,151.5C 55.7214,150.265 56.3881,149.265 57.5,148.5C 57.1667,147.833 56.8333,147.167 56.5,146.5C 53.8976,145.868 51.5643,144.868 49.5,143.5C 54.3402,142.498 59.0069,140.998 63.5,139C 65.9025,137.147 68.2359,135.314 70.5,133.5C 72.1667,132.167 73.8333,130.833 75.5,129.5 Z"/></g>
<g><path style="opacity:1" fill="#90c857" d="M 54.5,135.5 C 54.1961,136.15 53.8627,136.817 53.5,137.5C 51.7086,138.17 50.0419,138.837 48.5,139.5C 44.2648,140.436 39.9315,140.769 35.5,140.5C 33.0326,140.245 31.0326,139.245 29.5,137.5C 38.0363,139.205 46.3696,138.539 54.5,135.5 Z"/></g>
<g><path style="opacity:0.882" fill="#c9ee9d" d="M 9.5,137.5 C 10.8333,137.833 12.1667,138.167 13.5,138.5C 15.0627,139.945 16.396,141.611 17.5,143.5C 14.4669,141.984 11.8003,139.984 9.5,137.5 Z"/></g>
<g><path style="opacity:1" fill="#6ac511" d="M 70.5,133.5 C 68.2359,135.314 65.9025,137.147 63.5,139C 59.0069,140.998 54.3402,142.498 49.5,143.5C 44.3599,144.09 39.6932,143.09 35.5,140.5C 39.9315,140.769 44.2648,140.436 48.5,139.5C 51.4929,140.135 54.4929,140.301 57.5,140C 56.5,139.667 55.5,139.333 54.5,139C 56.7594,135.524 59.7594,134.358 63.5,135.5C 64.6956,135.154 64.6956,134.654 63.5,134C 64.776,132.788 66.276,131.955 68,131.5C 69.3756,131.684 70.2089,132.351 70.5,133.5 Z"/></g>
<g><path style="opacity:1" fill="#95de4d" d="M 82.5,135.5 C 79.7689,139.234 76.4356,142.234 72.5,144.5C 72.3653,142.446 73.032,140.779 74.5,139.5C 75.209,138.596 76.209,138.263 77.5,138.5C 77.3669,133.594 79.0336,132.594 82.5,135.5 Z"/></g>
<g><path style="opacity:1" fill="#79dd17" d="M 26.5,136.5 C 27.391,137.11 28.391,137.443 29.5,137.5C 31.0326,139.245 33.0326,140.245 35.5,140.5C 39.6932,143.09 44.3599,144.09 49.5,143.5C 51.5643,144.868 53.8976,145.868 56.5,146.5C 56.8333,147.167 57.1667,147.833 57.5,148.5C 56.3881,149.265 55.7214,150.265 55.5,151.5C 51.1412,151.887 46.9746,151.22 43,149.5C 37.8441,150.669 32.6774,150.669 27.5,149.5C 27.1667,148.833 26.8333,148.167 26.5,147.5C 27.0138,145.488 27.1805,143.488 27,141.5C 22.8906,141.529 21.0573,139.529 21.5,135.5C 23.2161,135.629 24.8828,135.962 26.5,136.5 Z"/></g>
<g><path style="opacity:0.341" fill="#cef2a9" d="M 24.5,147.5 C 25.1667,147.5 25.8333,147.5 26.5,147.5C 26.8333,148.167 27.1667,148.833 27.5,149.5C 25.9731,149.573 24.9731,148.906 24.5,147.5 Z"/></g>
<g><path style="opacity:1" fill="#b0e578" d="M 69.5,146.5 C 65.4903,149.843 60.8236,151.843 55.5,152.5C 55.5,152.167 55.5,151.833 55.5,151.5C 59.8981,149.341 64.5648,147.674 69.5,146.5 Z"/></g>
<g><path style="opacity:1" fill="#92df4a" d="M 27.5,149.5 C 32.6774,150.669 37.8441,150.669 43,149.5C 46.9746,151.22 51.1412,151.887 55.5,151.5C 55.5,151.833 55.5,152.167 55.5,152.5C 50.359,154.347 45.0257,154.681 39.5,153.5C 37.4855,152.076 35.1522,151.41 32.5,151.5C 30.4471,151.598 28.7804,150.931 27.5,149.5 Z"/></g>
<g><path style="opacity:1" fill="#bee78c" d="M 32.5,151.5 C 35.1522,151.41 37.4855,152.076 39.5,153.5C 36.8478,153.59 34.5145,152.924 32.5,151.5 Z"/></g>
</svg>
