<svg xmlns="http://www.w3.org/2000/svg" xmlns:xlink="http://www.w3.org/1999/xlink" width="443" zoomAndPan="magnify" viewBox="0 0 332.25 208.499994" height="278" preserveAspectRatio="xMidYMid meet" version="1.0"><defs><clipPath id="04ff3737e3"><path d="M 0.0234375 0 L 331.476562 0 L 331.476562 208 L 0.0234375 208 Z M 0.0234375 0 " clip-rule="nonzero"/></clipPath><clipPath id="d564dd1f5d"><path d="M 250 18 L 325.863281 18 L 325.863281 166 L 250 166 Z M 250 18 " clip-rule="nonzero"/></clipPath><clipPath id="04fd208271"><path d="M 186 15.332031 L 264 15.332031 L 264 185 L 186 185 Z M 186 15.332031 " clip-rule="nonzero"/></clipPath><clipPath id="d5bc675146"><path d="M 183 15.332031 L 267 15.332031 L 267 185.171875 L 183 185.171875 Z M 183 15.332031 " clip-rule="nonzero"/></clipPath><clipPath id="d9fbe303f2"><path d="M 5.628906 36 L 193 36 L 193 181 L 5.628906 181 Z M 5.628906 36 " clip-rule="nonzero"/></clipPath></defs><g clip-path="url(#04ff3737e3)"><path fill="#ffffff" d="M 0.0234375 0 L 331.476562 0 L 331.476562 208 L 0.0234375 208 Z M 0.0234375 0 " fill-opacity="1" fill-rule="nonzero"/></g><g clip-path="url(#d564dd1f5d)"><path fill="#c1272d" d="M 250.34375 18.902344 C 250.378906 19.300781 250.414062 19.699219 250.453125 20.097656 C 252.742188 45.082031 255.015625 70.066406 257.253906 95.054688 C 259.308594 118.003906 261.328125 140.953125 263.296875 163.910156 C 263.335938 163.890625 263.378906 163.871094 263.417969 163.855469 C 264.234375 163.449219 264.558594 163.609375 265.070312 164.507812 C 265.652344 165.527344 266.195312 165.765625 267.492188 165.289062 C 268.535156 164.90625 269.304688 164.332031 269.546875 163.175781 C 269.644531 162.710938 269.847656 162.25 270.078125 161.828125 C 270.585938 160.890625 271.203125 160.066406 272.414062 160.027344 C 273.03125 160.007812 273.378906 159.585938 273.761719 159.171875 C 275.15625 157.675781 276.132812 157.496094 277.980469 158.339844 C 279.464844 159.015625 279.679688 159.050781 280.664062 157.898438 C 281.492188 156.929688 282.472656 156.691406 283.625 156.84375 C 284.308594 156.933594 284.988281 157.085938 285.660156 157.242188 C 287.007812 157.554688 288.347656 157.898438 289.691406 158.207031 C 290.09375 158.300781 290.5 158.351562 290.90625 158.386719 C 291.027344 158.394531 291.191406 158.320312 291.265625 158.222656 C 291.332031 158.140625 291.351562 157.929688 291.296875 157.863281 C 289.792969 156.238281 289.175781 154.148438 288.476562 152.152344 C 287.542969 149.496094 287.96875 148.550781 290.097656 147.253906 C 291.496094 146.402344 292.589844 145.285156 293.3125 143.816406 C 294.007812 142.410156 294.972656 141.289062 296.421875 140.601562 C 297.636719 140.027344 298.328125 139.039062 298.472656 137.683594 C 298.503906 137.339844 298.558594 136.996094 298.644531 136.664062 C 298.828125 135.960938 299.105469 135.730469 299.835938 135.820312 C 300.792969 135.941406 301.75 136.105469 302.691406 136.300781 C 303.851562 136.546875 304.878906 136.300781 305.839844 135.636719 C 306.652344 135.078125 306.78125 134.617188 306.332031 133.699219 C 306.179688 133.390625 305.972656 133.109375 305.808594 132.804688 C 305.449219 132.113281 305.503906 131.824219 306.089844 131.410156 C 306.257812 131.289062 306.464844 131.226562 306.632812 131.109375 C 307.476562 130.519531 307.578125 130.421875 307.246094 129.398438 C 307 128.644531 307.0625 128.058594 307.585938 127.492188 C 307.679688 127.390625 307.753906 127.269531 307.820312 127.148438 C 308.371094 126.152344 308.210938 125.40625 307.246094 124.878906 C 306.707031 124.585938 306.097656 124.40625 305.503906 124.230469 C 304.863281 124.042969 304.332031 123.699219 304.140625 123.070312 C 303.738281 121.726562 303.46875 120.445312 304.652344 119.210938 C 305.804688 118.011719 305.621094 115.789062 304.460938 114.519531 C 303.894531 113.90625 303.371094 113.277344 302.964844 112.542969 C 302.042969 110.902344 302.144531 110.492188 303.804688 109.699219 C 304.238281 109.492188 304.710938 109.359375 305.160156 109.183594 C 306.125 108.800781 307.097656 108.441406 308.046875 108.023438 C 309.417969 107.421875 310.285156 106.457031 310.246094 104.835938 C 310.226562 103.851562 310.460938 102.9375 311.175781 102.164062 C 311.933594 101.351562 311.878906 100.375 311.421875 99.449219 C 310.722656 98.023438 309.953125 96.628906 309.207031 95.222656 C 308.65625 94.179688 307.847656 93.699219 306.648438 94.007812 C 306.113281 94.148438 305.542969 94.339844 305.015625 94.109375 C 303.714844 93.542969 302.363281 93.386719 300.964844 93.390625 C 300.527344 93.394531 300.296875 92.960938 300.355469 92.492188 C 300.449219 91.722656 300.949219 91.257812 301.535156 90.871094 C 302.6875 90.113281 303.507812 89.144531 303.632812 87.710938 C 303.695312 86.972656 304.203125 86.617188 304.820312 86.429688 C 305.207031 86.308594 305.648438 86.25 306.042969 86.304688 C 307.566406 86.511719 309.035156 86.875 310.09375 88.152344 C 310.355469 88.46875 310.683594 88.734375 311 89.003906 C 312.003906 89.867188 313.136719 90.050781 314.253906 89.335938 C 315.167969 88.753906 316.027344 88.722656 317.003906 89.070312 C 317.925781 89.398438 318.898438 89.53125 319.863281 89.296875 C 321.476562 88.910156 323.085938 88.507812 324.683594 88.042969 C 325.554688 87.789062 325.867188 87.179688 325.609375 86.257812 C 325.40625 85.53125 325.089844 84.828125 324.765625 84.140625 C 324.082031 82.683594 323.679688 81.152344 323.550781 79.550781 C 323.503906 78.933594 323.425781 78.277344 323.777344 77.722656 C 324.726562 76.207031 325.171875 74.605469 324.804688 72.816406 C 324.765625 72.617188 324.847656 72.402344 324.835938 72.195312 C 324.746094 70.675781 324.664062 69.152344 324.542969 67.636719 C 324.46875 66.710938 324.171875 65.820312 323.398438 65.277344 C 322.683594 64.777344 322.453125 64.148438 322.425781 63.351562 C 322.40625 62.9375 322.339844 62.519531 322.257812 62.113281 C 322.019531 61.003906 321.421875 60.351562 320.273438 60.351562 C 318.546875 60.355469 317.4375 59.386719 316.472656 58.1875 C 315.960938 57.554688 315.464844 56.800781 315.273438 56.03125 C 314.699219 53.679688 313.457031 51.726562 311.992188 49.867188 C 311.824219 49.652344 311.726562 49.382812 311.578125 49.148438 C 311.273438 48.667969 310.867188 48.351562 310.308594 48.148438 C 309.171875 47.734375 309.125 47.648438 309.261719 46.527344 C 309.390625 45.5 309.714844 44.488281 309.746094 43.457031 C 309.816406 41.132812 310.394531 38.910156 311.304688 36.835938 C 312.03125 35.1875 311.976562 33.785156 311.117188 32.308594 C 310.980469 32.070312 310.867188 31.816406 310.730469 31.574219 C 310.089844 30.445312 309.78125 29.285156 310.261719 28 C 310.378906 27.6875 310.386719 27.316406 310.394531 26.972656 C 310.445312 25.40625 309.589844 24.382812 308.027344 24.066406 C 306.753906 23.808594 305.507812 23.898438 304.40625 24.558594 C 303.46875 25.125 302.597656 25.105469 301.644531 24.734375 C 301.328125 24.605469 300.988281 24.511719 300.652344 24.449219 C 299.648438 24.257812 298.890625 23.835938 298.429688 22.816406 C 298.050781 21.972656 297.292969 21.328125 296.296875 21.417969 C 295.058594 21.527344 293.992188 21.105469 292.898438 20.667969 C 292.382812 20.460938 291.773438 20.21875 291.304688 20.5625 C 290.570312 21.101562 289.953125 20.910156 289.199219 20.652344 C 287.796875 20.167969 287.09375 20.730469 287.078125 22.207031 C 287.074219 22.34375 287.105469 22.484375 287.105469 22.621094 C 287.117188 24.3125 286.882812 24.625 285.234375 25.070312 C 284.96875 25.144531 284.695312 25.207031 284.421875 25.238281 C 281.878906 25.535156 279.339844 25.894531 276.773438 25.890625 C 275.878906 25.890625 274.976562 25.867188 274.085938 25.769531 C 271.425781 25.484375 269 24.519531 266.730469 23.128906 C 265.609375 22.441406 264.492188 21.746094 263.367188 21.070312 C 262.089844 20.304688 260.789062 20.101562 259.460938 20.957031 C 259.285156 21.066406 259.09375 21.152344 258.917969 21.265625 C 257.621094 22.105469 256.328125 21.976562 254.984375 21.339844 C 253.421875 20.601562 251.867188 19.84375 250.398438 18.921875 C 250.375 18.921875 250.363281 18.914062 250.34375 18.902344 Z M 250.34375 18.902344 " fill-opacity="1" fill-rule="nonzero"/></g><g clip-path="url(#04fd208271)"><path fill="#ffffff" d="M 194.253906 45.851562 C 193.457031 45.683594 192.738281 45.4375 192.113281 45.082031 C 191.28125 65.871094 190.464844 86.660156 189.640625 107.449219 C 188.6875 131.496094 187.722656 155.539062 186.722656 179.582031 C 187.828125 179.621094 188.929688 179.75 190.023438 179.992188 C 191.515625 180.320312 193.027344 180.449219 194.554688 180.371094 C 196.144531 180.285156 197.734375 180.21875 199.324219 180.144531 C 199.875 180.117188 200.429688 180.035156 200.960938 180.265625 C 202.667969 181.003906 204.457031 181.054688 206.261719 180.839844 C 207.226562 180.726562 208.03125 180.96875 208.710938 181.667969 C 209.570312 182.554688 210.667969 182.894531 211.851562 183.121094 C 213.375 183.40625 214.882812 183.300781 216.394531 183.105469 C 217.769531 182.9375 219.140625 182.757812 220.515625 182.617188 C 221.347656 182.53125 222.25 182.484375 222.925781 183 C 224.097656 183.890625 225.328125 183.910156 226.660156 183.597656 C 227.382812 183.429688 228.027344 183.625 228.539062 184.191406 C 228.632812 184.292969 228.71875 184.410156 228.824219 184.492188 C 229.5625 185.09375 230.03125 184.953125 230.328125 184.007812 C 230.515625 183.417969 230.621094 182.800781 230.796875 182.203125 C 231.242188 180.691406 231.984375 179.414062 233.539062 178.78125 C 234.121094 178.542969 234.691406 178.238281 235.0625 177.734375 C 235.773438 176.773438 236.714844 176.324219 237.878906 176.195312 C 239.121094 176.0625 239.851562 175.300781 240.1875 174.121094 C 240.246094 173.921875 240.34375 173.730469 240.375 173.53125 C 240.632812 171.753906 241.527344 170.324219 242.652344 168.957031 C 243.367188 168.085938 243.84375 167.117188 245.234375 167.722656 C 245.484375 167.832031 245.90625 167.632812 246.214844 167.492188 C 246.65625 167.296875 247.066406 167.039062 247.484375 166.789062 C 249.074219 165.835938 250.785156 165.417969 252.640625 165.554688 C 253.328125 165.605469 254.042969 165.664062 254.707031 165.539062 C 257.546875 165.007812 260.511719 165.195312 263.21875 163.9375 C 262.199219 152.066406 261.167969 140.195312 260.125 128.328125 C 257.929688 103.332031 255.679688 78.34375 253.40625 53.363281 C 252.359375 41.855469 251.304688 30.347656 250.246094 18.84375 C 248.578125 17.824219 246.734375 17.164062 244.972656 16.34375 C 244.238281 16.007812 243.375 15.917969 242.558594 15.800781 C 240.332031 15.476562 238.425781 15.929688 237.277344 18.121094 C 237.019531 18.605469 236.636719 19.019531 236.164062 19.332031 C 235.835938 19.550781 235.492188 19.507812 235.296875 19.160156 C 235.128906 18.863281 234.996094 18.542969 234.863281 18.226562 C 234.394531 17.089844 233.507812 16.488281 232.328125 16.351562 C 231.300781 16.230469 230.269531 16.09375 229.226562 16.230469 C 226.410156 16.597656 224.851562 18.8125 225.585938 21.589844 C 226.21875 23.960938 226.226562 26.390625 226.46875 28.792969 C 226.609375 30.1875 225.976562 30.800781 224.5625 30.976562 C 223.738281 31.082031 222.90625 31.105469 222.082031 31.199219 C 221.253906 31.300781 220.660156 31.742188 220.429688 32.5625 C 219.894531 34.476562 218.964844 36.132812 217.457031 37.453125 C 216.78125 38.046875 216.59375 38.839844 216.710938 39.722656 C 216.835938 40.683594 216.976562 41.644531 217.054688 42.609375 C 217.160156 43.890625 216.464844 44.394531 215.253906 43.953125 C 215.0625 43.882812 214.867188 43.796875 214.699219 43.679688 C 213.75 43.003906 212.757812 43 211.769531 43.542969 C 211.144531 43.890625 210.585938 43.785156 210.015625 43.445312 C 209.300781 43.023438 208.601562 42.570312 207.855469 42.210938 C 206.753906 41.675781 206.292969 41.839844 205.617188 42.890625 C 205.46875 43.121094 205.34375 43.375 205.210938 43.613281 C 204.566406 44.777344 203.554688 45.453125 202.28125 45.738281 C 199.609375 46.335938 196.953125 46.425781 194.253906 45.851562 Z M 194.253906 45.851562 " fill-opacity="1" fill-rule="nonzero"/></g><g clip-path="url(#d5bc675146)"><path stroke-linecap="butt" transform="matrix(0.243504, 0, 0, 0.243672, -17.721413, -75.460147)" fill="none" stroke-linejoin="miter" d="M 870.521049 497.849058 C 867.248515 497.159734 864.296817 496.149794 861.730124 494.690992 C 858.313213 580.006872 854.96047 665.322751 851.575643 750.63863 C 847.661436 849.324191 843.699103 947.993721 839.592393 1046.663251 C 844.132232 1046.823559 848.656029 1047.352575 853.147743 1048.346484 C 859.275723 1049.693071 865.483913 1050.222087 871.75627 1049.901471 C 878.285296 1049.548793 884.814323 1049.27627 891.343349 1048.971685 C 893.605248 1048.859469 895.883188 1048.522823 898.064878 1049.46864 C 905.075159 1052.498459 912.422319 1052.70686 919.833646 1051.825166 C 923.795979 1051.360273 927.100597 1052.354182 929.891876 1055.223694 C 933.421079 1058.862684 937.928835 1060.257363 942.78951 1061.187149 C 949.045826 1062.357397 955.237973 1061.924566 961.446163 1061.123026 C 967.092889 1060.433702 972.723572 1059.696285 978.370298 1059.119177 C 981.787208 1058.766499 985.492872 1058.57413 988.268109 1060.690194 C 993.080659 1064.345215 998.133837 1064.425369 1003.604102 1063.142906 C 1006.571842 1062.453582 1009.218744 1063.255121 1011.320225 1065.579586 C 1011.705229 1065.996387 1012.058149 1066.477311 1012.491278 1066.813957 C 1015.523185 1069.282699 1017.448205 1068.705591 1018.667384 1064.826139 C 1019.437393 1062.405489 1019.870522 1059.872624 1020.592405 1057.419913 C 1022.421174 1051.215996 1025.469122 1045.973927 1031.853772 1043.376938 C 1034.244005 1042.39906 1036.586113 1041.148658 1038.110087 1039.080686 C 1041.029701 1035.137111 1044.895783 1033.29357 1049.676249 1032.764553 C 1054.777552 1032.219506 1057.777375 1029.093502 1059.156973 1024.252202 C 1059.397601 1023.434632 1059.798646 1022.649123 1059.926981 1021.831553 C 1060.985742 1014.537542 1064.659322 1008.670272 1069.27937 1003.059494 C 1072.215026 999.484627 1074.17213 995.508991 1079.883022 997.993764 C 1080.9097 998.442626 1082.642218 997.625055 1083.909523 997.047947 C 1085.72225 996.246407 1087.406643 995.188375 1089.123119 994.162404 C 1095.652145 990.250891 1102.678468 988.535596 1110.298339 989.096674 C 1113.121702 989.305074 1116.057358 989.545536 1118.78447 989.032551 C 1130.446883 986.852363 1142.622635 987.621841 1153.739626 982.459925 C 1149.552707 933.742346 1145.317663 885.024767 1141.034493 836.323218 C 1132.018983 733.742175 1122.778886 631.193193 1113.442539 528.676273 C 1109.143327 481.449557 1104.812032 434.222842 1100.464695 387.012157 C 1093.614832 382.82812 1086.043087 380.118916 1078.80822 376.752449 C 1075.792355 375.373801 1072.24711 375.005093 1068.894366 374.524169 C 1059.750521 373.193613 1051.922106 375.053185 1047.205807 384.04646 C 1046.147046 386.034278 1044.574946 387.733542 1042.633884 389.016006 C 1041.28637 389.91373 1039.874689 389.737391 1039.072597 388.310651 C 1038.382798 387.092311 1037.837376 385.777786 1037.291954 384.479291 C 1035.366934 379.814331 1031.725437 377.345589 1026.880803 376.784511 C 1022.661801 376.287556 1018.426757 375.726479 1014.143587 376.287556 C 1002.577425 377.794451 996.176733 386.88391 999.192598 398.281804 C 1001.791375 408.012495 1001.823459 417.983648 1002.818053 427.842586 C 1003.395559 433.565579 1000.796782 436.082414 994.989638 436.803799 C 991.604811 437.236631 988.1879 437.332815 984.803073 437.717554 C 981.402204 438.134355 978.963846 439.945835 978.017377 443.312301 C 975.819646 451.16739 972.00169 457.964446 965.809542 463.382854 C 963.034305 465.819534 962.264297 469.073785 962.745552 472.696744 C 963.25889 476.640319 963.836396 480.583894 964.157233 484.5435 C 964.590363 489.8016 961.734916 491.869573 956.761948 490.058093 C 955.975898 489.769539 955.173806 489.416861 954.484007 488.935937 C 950.585842 486.16261 946.511216 486.14658 942.452632 488.37486 C 939.885938 489.8016 937.591956 489.368769 935.249848 487.97409 C 932.314193 486.242764 929.442705 484.383192 926.378714 482.908359 C 921.854917 480.712141 919.961981 481.385434 917.186744 485.697717 C 916.577154 486.643534 916.063815 487.685536 915.518393 488.663414 C 912.87149 493.44059 908.716655 496.213917 903.487017 497.384165 C 892.514403 499.836877 881.605956 500.205585 870.521049 497.849058 Z M 870.521049 497.849058 " stroke="#c1272d" stroke-width="1" stroke-opacity="1" stroke-miterlimit="10"/></g><g clip-path="url(#d9fbe303f2)"><path fill="#c1272d" d="M 7.148438 153.085938 C 8.144531 153.621094 8.640625 154.476562 8.621094 155.628906 C 8.605469 156.359375 8.867188 156.992188 9.453125 157.449219 C 10.03125 157.902344 10.105469 158.449219 9.871094 159.113281 C 9.734375 159.503906 9.644531 159.914062 9.570312 160.320312 C 9.265625 161.964844 9.800781 162.652344 11.503906 162.722656 C 12.261719 162.75 13.023438 162.664062 13.78125 162.59375 C 14.683594 162.507812 15.578125 162.523438 16.472656 162.683594 C 17.609375 162.886719 18.558594 163.390625 19.179688 164.40625 C 19.875 165.539062 20.734375 166.523438 21.824219 167.296875 C 22.113281 167.503906 22.328125 167.757812 22.445312 168.101562 C 22.898438 169.40625 23.957031 170.035156 25.167969 170.4375 C 26.019531 170.71875 26.886719 170.960938 27.773438 171.109375 C 28.621094 171.253906 29.363281 171.566406 30.035156 172.074219 C 30.585938 172.492188 31.164062 172.886719 31.652344 173.371094 C 32.695312 174.414062 33.800781 174.402344 35.066406 173.8125 C 36.417969 173.179688 37.523438 172.273438 38.464844 171.148438 C 39.320312 170.125 40.277344 169.257812 41.53125 168.746094 C 42.714844 168.261719 43.378906 167.394531 43.492188 166.058594 C 43.554688 165.25 44.125 164.855469 44.882812 164.820312 C 46.117188 164.773438 46.9375 165.375 46.847656 166.667969 C 46.757812 167.90625 47.296875 168.539062 48.160156 169.195312 C 48.867188 169.738281 49.449219 170.445312 50.097656 171.070312 C 50.59375 171.554688 51.101562 172.023438 51.613281 172.492188 C 52.753906 173.546875 54.054688 173.683594 55.464844 173.136719 C 55.914062 172.964844 56.355469 172.769531 56.800781 172.574219 C 57.722656 172.175781 58.574219 172.339844 59.324219 172.953125 C 59.859375 173.390625 60.355469 173.878906 60.820312 174.390625 C 61.847656 175.523438 63.132812 176.164062 64.628906 176.285156 C 66.351562 176.421875 68.085938 176.453125 69.8125 176.234375 C 71.394531 176.027344 72.683594 175.300781 73.683594 174.046875 C 74.332031 173.230469 74.855469 172.335938 75.3125 171.398438 C 75.765625 170.464844 76.210938 169.527344 76.671875 168.597656 C 77.542969 166.824219 78.804688 165.382812 80.3125 164.121094 C 82.28125 162.484375 84.480469 161.734375 87.050781 162.152344 C 88.792969 162.4375 90.488281 162.179688 92.140625 161.542969 C 93.234375 161.125 94.347656 160.742188 95.472656 160.394531 C 96.945312 159.941406 98.445312 159.765625 99.976562 160.109375 C 100.71875 160.273438 101.464844 160.417969 102.214844 160.535156 C 104.875 160.941406 107.3125 160.328125 109.503906 158.824219 C 110.183594 158.359375 111.109375 157.957031 111 156.808594 C 110.984375 156.625 111.28125 156.355469 111.496094 156.21875 C 112.144531 155.808594 112.851562 155.515625 113.625 155.453125 C 114.835938 155.359375 115.875 154.855469 116.902344 154.253906 C 117.734375 153.765625 118.621094 153.375 119.484375 152.9375 C 120.046875 152.652344 120.65625 152.515625 121.28125 152.472656 C 121.609375 152.449219 121.996094 152.367188 122.160156 152.792969 C 122.304688 153.160156 122.132812 153.472656 121.898438 153.734375 C 121.484375 154.199219 121.042969 154.640625 120.621094 155.09375 C 119.992188 155.765625 119.542969 156.53125 119.367188 157.445312 C 119.050781 159.117188 119.25 160.746094 119.800781 162.347656 C 120.058594 163.09375 120.597656 163.464844 121.308594 163.617188 C 121.710938 163.703125 122.136719 163.664062 122.546875 163.71875 C 123.296875 163.824219 124.058594 163.894531 124.792969 164.082031 C 125.820312 164.34375 126.46875 165.015625 126.597656 166.109375 C 126.640625 166.453125 126.71875 166.796875 126.722656 167.140625 C 126.734375 168.707031 127.535156 169.753906 128.878906 170.417969 C 130.617188 171.273438 131.90625 172.574219 132.828125 174.261719 C 133.675781 175.804688 135.007812 176.746094 136.648438 177.261719 C 137.367188 177.488281 138.113281 177.660156 138.855469 177.800781 C 140.511719 178.121094 142.171875 178.003906 143.808594 177.699219 C 145.210938 177.441406 146.539062 177.570312 147.875 178.066406 C 149.902344 178.824219 152.023438 179.121094 154.179688 179.144531 C 156.191406 179.164062 158.167969 179.40625 160.117188 179.964844 C 162.070312 180.523438 164.050781 180.601562 166.0625 180.09375 C 167.605469 179.703125 169.179688 179.488281 170.789062 179.636719 C 175.210938 180.042969 179.632812 179.972656 184.054688 179.648438 C 184.933594 179.585938 185.804688 179.5625 186.667969 179.585938 C 187.175781 167.441406 187.671875 155.292969 188.160156 143.144531 C 189.253906 116.066406 190.3125 88.988281 191.386719 61.914062 C 191.609375 56.289062 191.828125 50.664062 192.050781 45.042969 C 191.109375 44.480469 190.390625 43.660156 189.957031 42.4375 C 189.679688 41.644531 189.257812 40.902344 188.585938 40.390625 C 187.15625 39.300781 185.722656 38.199219 184.214844 37.234375 C 182.882812 36.386719 181.324219 36.761719 180.3125 37.976562 C 179.757812 38.632812 179.472656 39.421875 179.355469 40.242188 C 179.222656 41.128906 179.171875 42.035156 179.148438 42.929688 C 179.109375 44.3125 179.148438 45.699219 179.109375 47.085938 C 179.070312 48.402344 178.972656 49.714844 178.609375 50.984375 C 178.28125 52.144531 177.652344 52.605469 176.476562 52.519531 C 175.09375 52.421875 173.726562 52.203125 172.460938 51.585938 C 171.964844 51.339844 171.480469 51.070312 170.96875 50.867188 C 170.1875 50.558594 169.480469 50.636719 168.953125 51.390625 C 168.71875 51.726562 168.519531 52.136719 168.070312 52.21875 C 167.011719 52.410156 166.625 53.238281 166.324219 54.089844 C 166.003906 54.996094 165.726562 55.933594 165.578125 56.882812 C 165.367188 58.246094 165.265625 59.632812 165.160156 61.007812 C 164.972656 63.417969 164.226562 65.597656 162.671875 67.484375 C 161.484375 68.925781 160.035156 69.917969 158.179688 70.257812 C 157.230469 70.429688 156.269531 70.574219 155.304688 70.675781 C 153.859375 70.832031 152.664062 71.453125 151.6875 72.511719 C 151.03125 73.222656 150.394531 73.957031 149.753906 74.679688 C 148.367188 76.234375 146.871094 77.632812 144.972656 78.597656 C 143.332031 79.433594 142.195312 80.859375 141.257812 82.425781 C 140.902344 83.023438 140.667969 83.667969 140.515625 84.351562 C 140.21875 85.683594 140.496094 86.804688 141.582031 87.699219 C 142.28125 88.269531 142.949219 88.871094 143.617188 89.476562 C 144.285156 90.082031 145.011719 90.691406 145.320312 91.539062 C 145.871094 93.046875 146.914062 94.097656 148.113281 95.070312 C 149.425781 96.132812 150.328125 97.527344 151.140625 98.980469 C 151.550781 99.714844 151.589844 100.398438 150.976562 101.078125 C 150.324219 101.800781 149.816406 102.625 149.503906 103.5625 C 149.085938 104.804688 148.644531 106.046875 148.253906 107.296875 C 147.894531 108.464844 148.132812 109.109375 149.109375 109.804688 C 149.808594 110.304688 150.585938 110.5625 151.449219 110.429688 C 152.0625 110.335938 152.671875 110.175781 153.285156 110.078125 C 154.636719 109.867188 155.367188 110.207031 155.988281 111.449219 C 156.816406 113.097656 157.230469 114.855469 156.691406 116.671875 C 156.214844 118.277344 155.902344 119.882812 155.921875 121.566406 C 155.941406 123.527344 154.667969 124.03125 152.976562 123.601562 C 152.515625 123.484375 152.066406 123.261719 151.65625 123.011719 C 150.476562 122.296875 149.25 121.628906 148.160156 120.785156 C 145.710938 118.890625 146.058594 119.339844 146.007812 116.503906 C 146.003906 116.230469 146.035156 115.953125 146.023438 115.671875 C 145.996094 115.039062 145.816406 114.453125 145.378906 113.964844 C 145.007812 113.550781 144.660156 113.121094 144.3125 112.691406 C 143.761719 112.011719 143.027344 111.652344 142.1875 111.5 C 141.644531 111.402344 141.09375 111.3125 140.546875 111.261719 C 138.667969 111.101562 136.980469 111.554688 135.589844 112.898438 C 135.195312 113.28125 134.800781 113.675781 134.382812 114.039062 C 133.964844 114.402344 133.488281 114.691406 132.945312 114.84375 C 131.605469 115.214844 130.695312 114.867188 129.929688 113.691406 C 129.855469 113.578125 129.808594 113.445312 129.75 113.320312 C 129.300781 112.421875 128.542969 112.058594 127.570312 111.976562 C 126.796875 111.914062 126.054688 111.953125 125.320312 112.214844 C 124.410156 112.53125 123.5 112.867188 122.582031 113.171875 C 122.078125 113.339844 121.828125 113.082031 121.933594 112.519531 C 122.023438 112.046875 122.175781 111.578125 122.226562 111.097656 C 122.277344 110.621094 122.28125 110.132812 122.226562 109.660156 C 122.167969 109.152344 121.550781 108.859375 121.113281 109.09375 C 120.875 109.222656 120.597656 109.359375 120.453125 109.570312 C 119.75 110.613281 118.84375 111.441406 117.921875 112.277344 C 116.8125 113.285156 116.851562 114.421875 117.835938 115.5625 C 118.195312 115.976562 118.585938 116.371094 118.914062 116.808594 C 119.179688 117.164062 119.1875 117.578125 118.933594 117.976562 C 118.691406 118.363281 118.328125 118.523438 117.886719 118.507812 C 117.679688 118.5 117.472656 118.472656 117.273438 118.421875 C 115.019531 117.859375 112.734375 118.039062 110.460938 118.15625 C 108.570312 118.25 106.746094 118.71875 105.09375 119.621094 C 103.285156 120.609375 101.375 121.082031 99.347656 121.203125 C 98.65625 121.242188 97.96875 121.328125 97.28125 121.40625 C 94.308594 121.75 94.003906 122.027344 93.34375 124.957031 C 93.039062 126.300781 92.628906 126.722656 91.28125 126.886719 C 90.046875 127.039062 88.804688 127.097656 87.5625 127.207031 C 86.445312 127.300781 85.8125 127.941406 85.554688 128.992188 C 85.488281 129.257812 85.488281 129.542969 85.453125 129.816406 C 85.359375 130.503906 85.007812 131.003906 84.308594 131.101562 C 82.742188 131.324219 81.660156 132.207031 80.738281 133.613281 C 80.277344 134.257812 79.871094 134.703125 79.199219 134.832031 C 78.617188 134.941406 78.101562 134.832031 77.609375 134.53125 C 76.664062 133.953125 75.769531 134.132812 74.894531 134.710938 C 74.375 135.050781 73.847656 135.382812 73.296875 135.679688 C 72.691406 136.011719 72.074219 136.335938 71.433594 136.582031 C 70.378906 136.988281 69.664062 136.660156 69.3125 135.625 C 69.140625 135.105469 69.054688 134.550781 68.9375 134.011719 C 68.71875 132.988281 68.09375 132.28125 67.175781 131.832031 C 66.679688 131.59375 66.144531 131.433594 65.628906 131.238281 C 65.113281 131.039062 64.570312 130.875 64.324219 130.238281 C 64.453125 130.03125 64.601562 129.804688 64.75 129.574219 C 64.898438 129.339844 65.070312 129.121094 65.191406 128.871094 C 65.5625 128.117188 65.175781 127.511719 64.320312 127.441406 C 63.742188 127.398438 63.230469 127.578125 62.71875 127.792969 C 62.078125 128.058594 61.441406 128.328125 60.792969 128.570312 C 59.796875 128.9375 58.890625 128.746094 58.101562 128.035156 C 57.742188 127.710938 57.398438 127.363281 57.023438 127.058594 C 56.703125 126.804688 56.371094 126.519531 55.996094 126.386719 C 53.742188 125.582031 51.535156 125.519531 49.429688 126.871094 C 49.023438 127.132812 48.578125 127.335938 48.132812 127.527344 C 47.886719 127.632812 47.605469 127.691406 47.332031 127.714844 C 47.125 127.734375 46.929688 127.621094 46.933594 127.371094 C 46.9375 127.09375 46.992188 126.820312 47.007812 126.546875 C 47.074219 125.582031 46.777344 125.253906 45.882812 125.289062 C 45.675781 125.296875 45.464844 125.3125 45.261719 125.34375 C 44.148438 125.503906 43.839844 125.824219 43.808594 126.964844 C 43.777344 128.070312 43.777344 129.179688 43.96875 130.277344 C 44.175781 131.507812 44.375 132.738281 44.523438 133.976562 C 44.6875 135.304688 44.582031 136.621094 43.859375 137.789062 C 42.617188 139.792969 41.210938 141.679688 39.664062 143.453125 C 39.019531 144.1875 38.203125 144.71875 37.234375 144.96875 C 36.882812 145.054688 36.527344 144.828125 36.46875 144.476562 C 36.339844 143.714844 36.449219 142.957031 36.554688 142.203125 C 36.644531 141.507812 36.65625 140.816406 36.457031 140.144531 C 36.121094 138.976562 35.238281 138.507812 34.054688 138.851562 C 33.65625 138.964844 33.28125 139.160156 32.875 139.246094 C 31.917969 139.445312 31.25 139.035156 30.996094 138.082031 C 30.875 137.617188 30.824219 137.128906 30.785156 136.648438 C 30.703125 135.542969 30.199219 134.691406 29.359375 133.988281 C 28.722656 133.453125 28.109375 132.894531 27.535156 132.300781 C 26.214844 130.921875 24.628906 130.234375 22.710938 130.296875 C 22.089844 130.316406 21.46875 130.316406 20.851562 130.257812 C 19.957031 130.167969 19.289062 129.761719 19.027344 128.820312 C 18.902344 128.355469 18.71875 127.902344 18.507812 127.464844 C 17.992188 126.398438 16.738281 126.214844 15.96875 127.109375 C 15.65625 127.46875 15.421875 127.902344 15.207031 128.332031 C 14.746094 129.261719 14.308594 130.199219 13.890625 131.148438 C 13.628906 131.742188 13.285156 132.28125 12.683594 132.507812 C 12.082031 132.730469 11.867188 133.195312 11.636719 133.707031 C 11.507812 133.996094 11.402344 134.359375 10.984375 134.332031 C 10.472656 134.101562 10.445312 133.523438 10.097656 133.1875 C 9.535156 132.652344 8.816406 132.617188 8.238281 133.121094 C 7.6875 133.597656 7.691406 134.390625 8.28125 134.9375 C 8.683594 135.3125 9.136719 135.632812 9.546875 136.003906 C 10.648438 137.007812 10.941406 138.148438 10.191406 139.523438 C 9.628906 140.554688 9.167969 141.636719 8.65625 142.699219 C 7.550781 145.015625 6.652344 147.40625 5.992188 149.886719 C 5.644531 151.210938 5.792969 152.359375 7.148438 153.085938 Z M 7.148438 153.085938 " fill-opacity="1" fill-rule="nonzero"/></g></svg>