<svg xmlns="http://www.w3.org/2000/svg" xmlns:xlink="http://www.w3.org/1999/xlink" width="443" zoomAndPan="magnify" viewBox="0 0 332.25 213" height="284" preserveAspectRatio="xMidYMid meet" version="1.0"><defs><clipPath id="d3b8272b66"><path d="M 0 0.238281 L 331.5 0.238281 L 331.5 212.757812 L 0 212.757812 Z M 0 0.238281 " clip-rule="nonzero"/></clipPath></defs><g clip-path="url(#d3b8272b66)"><path fill="#ffffff" d="M 0 0.238281 L 331.5 0.238281 L 331.5 212.761719 L 0 212.761719 Z M 0 0.238281 " fill-opacity="1" fill-rule="nonzero"/></g><path fill="#393778" d="M 238.164062 195.554688 C 236.550781 195.613281 235.40625 195.886719 233.824219 196.363281 C 232.695312 196.703125 230.730469 197.917969 229.464844 197.472656 C 228.929688 197.285156 228.253906 195.929688 227.578125 195.535156 C 226.84375 195.105469 225.441406 194.941406 224.601562 194.78125 C 222.972656 194.476562 220.949219 194.140625 219.667969 195.25 C 221.105469 197.367188 223.742188 198.578125 224.109375 201.242188 C 224.394531 203.292969 221.957031 205.316406 224.84375 206.347656 C 220.441406 206.136719 226.929688 211.691406 228.667969 211.828125 C 232.722656 212.144531 229.492188 206.753906 234.59375 208.273438 C 234.660156 207.023438 234.152344 204.734375 234.84375 203.675781 C 235.515625 202.640625 236.496094 203.171875 237.351562 202.332031 C 239.058594 200.664062 238.011719 198.472656 237.664062 196.394531 C 237.890625 196.402344 238.179688 196.359375 238.402344 196.308594 C 238.457031 196.011719 238.117188 195.75 238.164062 195.554688 " fill-opacity="1" fill-rule="nonzero"/><path fill="#393778" d="M 238.980469 188.753906 C 238.980469 188.753906 238.0625 188.839844 238.011719 189.621094 C 237.960938 190.402344 239.746094 192.144531 240.648438 190.402344 C 241.554688 188.664062 239.09375 189.46875 238.980469 188.753906 " fill-opacity="1" fill-rule="nonzero"/><path fill="#393778" d="M 219.667969 185.324219 L 219.164062 185.496094 C 218.304688 186.433594 218.28125 188.199219 219.9375 188.167969 C 220.570312 186.699219 220.828125 185.324219 219.667969 185.324219 " fill-opacity="1" fill-rule="nonzero"/><path fill="#393778" d="M 186.019531 158.152344 C 185.828125 158.238281 185.636719 158.984375 185.328125 159.191406 C 184.851562 159.511719 184.324219 159.25 183.875 159.457031 C 182.226562 160.199219 183.570312 161.257812 184.929688 161.578125 C 185.960938 161.820312 186.402344 161.484375 187.28125 161.304688 C 187.828125 161.195312 188.074219 161.402344 189.015625 161.15625 C 189.949219 160.90625 190.136719 160.113281 189.164062 159.730469 C 188.480469 158.867188 187.011719 157.714844 186.019531 158.152344 " fill-opacity="1" fill-rule="nonzero"/><path fill="#393778" d="M 244.34375 108.84375 L 240.503906 105.671875 L 236.664062 108.84375 L 238.308594 104.082031 L 234.285156 101.53125 L 239.148438 101.507812 L 240.503906 97.015625 L 241.859375 101.507812 L 246.722656 101.53125 L 242.695312 104.082031 Z M 232.542969 141.796875 L 234.097656 150.027344 L 228.730469 143.632812 L 223.363281 150.027344 L 224.914062 141.796875 L 216.667969 141.632812 L 223.972656 137.667969 L 219.058594 131.167969 L 226.613281 134.355469 L 228.730469 126.511719 L 230.847656 134.355469 L 238.402344 131.167969 L 233.488281 137.667969 L 240.789062 141.632812 Z M 223.972656 56.273438 L 219.058594 49.777344 L 226.613281 52.960938 L 228.730469 45.117188 L 230.847656 52.960938 L 238.402344 49.777344 L 233.488281 56.273438 L 240.789062 60.242188 L 232.542969 60.402344 L 234.097656 68.636719 L 228.730469 62.242188 L 223.363281 68.636719 L 224.914062 60.402344 L 216.667969 60.242188 Z M 204.152344 93.507812 L 205.703125 101.738281 L 200.335938 95.347656 L 194.96875 101.738281 L 196.523438 93.507812 L 188.277344 93.347656 L 195.578125 89.378906 L 190.664062 82.878906 L 198.21875 86.066406 L 200.335938 78.222656 L 202.453125 86.066406 L 210.007812 82.878906 L 205.097656 89.378906 L 212.394531 93.347656 Z M 277.257812 111.636719 C 277.199219 110.503906 276.886719 109.523438 277.046875 108.335938 C 277.265625 106.695312 278.585938 105.445312 278.28125 103.777344 C 277.964844 102.027344 275.535156 98.820312 274.597656 97.203125 C 273.3125 94.988281 271.453125 92.636719 270.46875 90.535156 C 269.507812 88.472656 269.003906 86.070312 268.257812 83.960938 C 267.785156 82.625 265.4375 77.226562 263.914062 80.179688 C 264.21875 80.316406 264.589844 80.601562 264.992188 80.746094 C 264.917969 82.304688 262.515625 81.523438 261.691406 80.867188 C 262.347656 81.292969 262.289062 78.832031 262.179688 77.332031 L 259.5 80.878906 L 266.804688 84.847656 L 258.554688 85.007812 L 260.113281 93.238281 L 254.742188 86.84375 L 249.375 93.238281 L 250.925781 85.007812 L 242.683594 84.847656 L 249.984375 80.878906 L 245.070312 74.378906 L 252.625 77.566406 L 254.742188 69.71875 L 256.859375 77.566406 L 262.019531 75.390625 C 261.902344 73.59375 261.839844 72.058594 260.425781 70.671875 C 259.527344 69.789062 257.816406 69.65625 257.09375 68.835938 C 256.335938 67.980469 256.542969 66.394531 256.09375 65.292969 C 254.902344 62.363281 252.695312 60.722656 250.113281 59.578125 C 246.804688 58.117188 245.636719 57.566406 244.664062 54.351562 C 244.289062 53.109375 244.394531 52.394531 243.25 50.898438 C 242.230469 49.566406 241.53125 48.589844 240.894531 47.035156 C 239.324219 43.210938 241.179688 39.640625 240.125 35.695312 C 239.226562 32.328125 237.621094 29.234375 234.839844 27.570312 C 232.535156 26.195312 229.875 24.699219 227.53125 23.703125 C 229.882812 20.679688 228.167969 17.015625 227.035156 13.902344 C 226.210938 11.632812 227.453125 6.421875 225.691406 4.9375 C 220.808594 0.828125 220.507812 11.832031 219.976562 13.644531 C 218.707031 17.976562 215.589844 22.3125 215.890625 27.21875 C 216.097656 30.539062 218.15625 32.167969 215.691406 35.300781 C 214.238281 37.152344 213.132812 37.265625 212.917969 39.761719 C 212.773438 41.445312 214.300781 43.894531 213.671875 45.40625 C 212.652344 47.855469 207.753906 45.964844 205.839844 45.203125 C 203.191406 44.152344 201.027344 40.960938 198.523438 39.164062 C 195.976562 37.335938 193.707031 34.816406 190.949219 33.53125 C 187.664062 32 182.597656 30.386719 180.578125 27.207031 C 180.839844 27.082031 181.246094 26.625 181.605469 26.476562 C 180.25 24.53125 177.855469 24.113281 179.25 22.054688 C 180.136719 20.742188 181.765625 21.140625 182.242188 18.816406 C 182.78125 16.183594 181.601562 16.367188 183.847656 15.273438 C 186.21875 14.113281 189.574219 14.28125 188.988281 10.15625 C 187.261719 9.382812 185.914062 9.753906 184.140625 9.84375 C 181.933594 9.957031 181.265625 9.390625 179.550781 8.699219 C 177.832031 8 175.445312 6.6875 173.515625 6.835938 C 172.320312 6.929688 171.820312 7.75 171.054688 7.902344 C 168.289062 8.445312 167.960938 7.15625 166.234375 5.773438 C 164.796875 4.621094 162.882812 3.335938 161.410156 5.5 C 160.519531 6.808594 161.585938 9.59375 159.921875 10.621094 C 158.976562 11.207031 157.378906 10.132812 156.492188 10.3125 C 155.179688 10.582031 155.613281 11.097656 154.484375 11.746094 C 152.683594 12.777344 151.378906 12.421875 149.164062 13.148438 C 148.726562 14.976562 148.40625 17.277344 147.296875 18.816406 C 145.472656 21.339844 143.152344 21.222656 142.097656 24.734375 C 143.582031 24.613281 146.207031 25.398438 145.269531 27.4375 C 144.605469 28.875 142.1875 28.160156 141.742188 30.175781 C 139.96875 29.785156 139.097656 28.152344 137.203125 28.617188 C 136.855469 30.457031 135.726562 32.894531 133.410156 32.335938 C 133.34375 30.808594 134.214844 26.027344 133.335938 24.769531 C 131.910156 22.714844 127.414062 23.53125 125.566406 24.183594 C 124.570312 24.535156 123.167969 25.425781 122.238281 25.609375 C 121 25.851562 119.554688 24.519531 118.710938 24.75 C 116.367188 25.394531 115.464844 29.980469 114.390625 31.539062 C 108.210938 29.429688 108.285156 35.890625 113.464844 35.078125 C 113.019531 35.339844 112.761719 35.917969 112.433594 36.183594 C 113.355469 36.839844 114.386719 37.628906 114.339844 38.867188 C 113.4375 38.457031 112.421875 38.222656 111.429688 38.390625 C 111.414062 38.640625 111.386719 38.902344 111.367188 39.160156 L 123.242188 39.160156 L 123.242188 57.472656 L 157.6875 39.160156 L 171.015625 39.160156 L 171.015625 46.222656 L 145.863281 59.59375 L 171.015625 59.59375 L 171.015625 79.847656 L 145.367188 79.847656 L 171.015625 93.550781 L 171.015625 100.285156 L 157.105469 100.285156 L 123.242188 82.191406 L 123.242188 100.285156 L 103.523438 100.285156 L 103.523438 82.105469 L 69.335938 100.285156 L 55.75 100.285156 L 55.75 93.355469 L 81.15625 79.847656 L 59.050781 79.847656 C 57.464844 81.644531 55.84375 83.96875 53.882812 84.746094 C 53.503906 83.671875 53.472656 82.417969 53.527344 81.277344 C 50.492188 82.03125 52.210938 85.878906 52.40625 87.832031 C 52.613281 89.898438 51.445312 92.714844 51.605469 95.421875 C 51.808594 98.914062 53.332031 100.234375 55.253906 103.171875 C 56.277344 104.734375 56.53125 104.71875 56.550781 106.765625 C 56.566406 108.121094 55.660156 109.636719 57.074219 110.351562 C 56.257812 111.132812 54.609375 110.808594 53.335938 110.878906 C 52.132812 113.664062 54.136719 113.605469 56.238281 114.140625 C 56.023438 116.117188 55.070312 118.003906 56.550781 119.523438 C 57.894531 120.898438 59.5 120.554688 60.625 122.777344 C 61.546875 124.589844 61.5625 126.472656 63.0625 127.878906 C 64.863281 129.566406 65.957031 129.496094 66.800781 132.28125 C 67.394531 134.253906 67.375 135.953125 68.429688 137.714844 C 69.421875 139.375 71.53125 140.523438 72.3125 142.316406 C 73.097656 144.121094 72.3125 146.523438 72.296875 148.300781 C 72.277344 150.171875 72.976562 151.890625 72.792969 153.683594 C 70.40625 154.929688 66.144531 153.132812 65.835938 155.085938 C 65.300781 158.492188 69.003906 159.429688 71.441406 159.472656 C 71.523438 162.195312 75.300781 162.367188 77.25 162.894531 C 80.632812 163.820312 81.4375 165.199219 84.800781 163.023438 C 86.921875 161.644531 89.320312 160.632812 91.300781 159.167969 C 93.214844 157.75 95.1875 155.378906 97.546875 154.480469 C 99.839844 153.601562 102.3125 154.449219 104.664062 154.226562 C 106.972656 154.011719 110.089844 153.828125 112.488281 153.398438 C 118.210938 152.378906 115.386719 146.105469 119.386719 143.792969 L 114.3125 137.742188 L 104.710938 149.179688 L 107.484375 134.457031 L 92.742188 134.171875 L 105.800781 127.074219 L 97.015625 115.457031 L 110.519531 121.15625 L 114.308594 107.128906 L 118.097656 121.15625 L 131.601562 115.457031 L 122.816406 127.074219 L 135.871094 134.171875 L 121.128906 134.457031 L 122.757812 143.089844 C 123.804688 143.171875 124.871094 143.34375 125.777344 142.890625 C 127.234375 142.164062 128.015625 139.898438 129.5625 139.132812 C 132.347656 137.753906 135.859375 138.445312 138.8125 137.375 C 141.8125 136.285156 142.363281 132.851562 145.59375 132.269531 C 148.308594 131.777344 151.554688 133.167969 154.339844 133.035156 C 156.804688 132.925781 159.761719 131.785156 162.160156 133.289062 C 163.34375 134.027344 163.511719 135.445312 164.585938 136.371094 C 166.242188 137.804688 167.792969 137.433594 169.738281 137.714844 C 172.875 138.164062 172.582031 138.855469 173.285156 141.785156 C 173.796875 143.9375 173.25 143.15625 174.871094 144.710938 C 175.542969 145.355469 176.820312 145.953125 177.300781 146.726562 C 178.742188 149.046875 178.546875 152.519531 178.441406 155.085938 C 178.371094 156.75 177.800781 158.085938 180.082031 158.339844 C 181.671875 158.515625 181.949219 157.199219 182.726562 155.640625 C 183.953125 153.164062 185.441406 150.84375 186.527344 148.300781 C 187.644531 145.679688 189.984375 143.367188 189.890625 140.445312 C 192.636719 143.199219 190.417969 146.132812 189.566406 148.84375 C 188.425781 152.457031 189.570312 153.773438 185.730469 155.632812 C 189.582031 159.136719 190.824219 151.757812 193.324219 151.609375 C 193.9375 152.550781 194.671875 154.445312 194.1875 155.632812 C 193.613281 157.023438 191.316406 156.625 191.785156 158.578125 C 193.378906 158.835938 194.921875 157.890625 196.160156 158.875 C 196.960938 159.511719 198.054688 162.8125 198.265625 163.777344 C 199.210938 168.105469 196.953125 170.40625 202.554688 171.425781 C 203.722656 175.585938 205.574219 175.339844 209.175781 176.746094 C 210.769531 177.367188 211.234375 178.734375 212.648438 179.542969 C 213.960938 180.289062 215.710938 179.699219 217.0625 180.265625 C 220.59375 181.742188 220.46875 183.117188 222.144531 178.972656 C 222.640625 177.738281 223.171875 176.28125 224.585938 175.984375 C 226.8125 175.527344 227.261719 177.203125 226.324219 178.941406 C 227.390625 178.839844 228.539062 178.976562 229.230469 179.796875 C 228.699219 180.386719 228.640625 180.84375 227.898438 181.199219 C 227.417969 183.148438 232.292969 185.820312 233.617188 185.242188 C 235.707031 184.335938 234.929688 180.75 237.34375 179.589844 C 238.457031 179.058594 239.476562 179.546875 240.609375 179.25 C 241.863281 178.921875 242.363281 178.164062 243.597656 177.894531 C 244.625 177.667969 246.113281 177.832031 247.125 177.683594 C 248.285156 177.511719 249.070312 177.027344 250.335938 177.039062 C 251.015625 175.136719 250.429688 173.136719 251.734375 171.433594 C 253.679688 168.882812 254.757812 168.257812 255.539062 164.789062 C 256.140625 162.121094 256.441406 159.136719 258.191406 156.972656 C 259.648438 155.179688 263.699219 153.570312 263.179688 150.777344 C 264.5625 150.785156 267.046875 149.882812 268.089844 148.914062 C 269.5 147.609375 269.476562 145.386719 270.378906 143.769531 C 271.402344 141.921875 273.492188 140.691406 274.289062 138.738281 C 274.773438 137.554688 274.023438 136.375 274.25 135.265625 C 274.554688 133.753906 275.699219 132.734375 276.109375 131.183594 C 276.839844 128.425781 276.832031 127.585938 278.625 125.292969 C 280.953125 122.324219 278.394531 122.34375 277.460938 119.253906 C 276.769531 116.960938 277.375 114.039062 277.257812 111.636719 " fill-opacity="1" fill-rule="nonzero"/><path fill="#393778" d="M 103.523438 42.652344 C 103.105469 42.207031 102.710938 41.828125 102.332031 41.699219 C 98.1875 40.28125 97.429688 47.519531 97.816406 50.296875 C 98.035156 51.871094 98.367188 53.277344 98.105469 54.597656 L 103.523438 57.488281 L 103.523438 42.652344 " fill-opacity="1" fill-rule="nonzero"/><path fill="#393778" d="M 110.394531 39.160156 C 108.9375 38.632812 106.714844 37.53125 106.332031 39.160156 L 110.394531 39.160156 " fill-opacity="1" fill-rule="nonzero"/><path fill="#e5dae0" d="M 81.15625 79.847656 L 55.75 93.355469 L 55.75 100.285156 L 56.84375 100.285156 L 95.28125 79.847656 L 81.15625 79.847656 " fill-opacity="1" fill-rule="nonzero"/><path fill="#e5dae0" d="M 65.097656 100.285156 L 69.335938 100.285156 L 103.523438 82.105469 L 103.523438 79.855469 L 65.097656 100.285156 " fill-opacity="1" fill-rule="nonzero"/><path fill="#e5dae0" d="M 145.863281 59.59375 L 171.015625 46.222656 L 171.015625 39.265625 L 132.785156 59.59375 L 145.863281 59.59375 " fill-opacity="1" fill-rule="nonzero"/><path fill="#e5dae0" d="M 124.535156 59.59375 L 162.96875 39.160156 L 157.6875 39.160156 L 123.242188 57.472656 L 123.242188 59.59375 L 124.535156 59.59375 " fill-opacity="1" fill-rule="nonzero"/><path fill="#eee4e5" d="M 103.523438 59.59375 L 103.523438 57.488281 L 98.105469 54.597656 C 97.941406 55.425781 97.550781 56.222656 96.742188 57.007812 C 96.070312 57.65625 95.015625 58.492188 93.871094 59.296875 L 94.429688 59.59375 L 103.523438 59.59375 " fill-opacity="1" fill-rule="nonzero"/><path fill="#eee4e5" d="M 171.015625 95.808594 L 171.015625 93.550781 L 145.367188 79.847656 L 141.148438 79.847656 L 171.015625 95.808594 " fill-opacity="1" fill-rule="nonzero"/><path fill="#eee4e5" d="M 123.242188 79.847656 L 123.242188 82.191406 L 157.105469 100.285156 L 171.015625 100.285156 L 171.015625 100.199219 L 132.929688 79.847656 L 123.242188 79.847656 " fill-opacity="1" fill-rule="nonzero"/><path fill="#e2222d" d="M 107.527344 100.285156 L 119.234375 100.285156 L 119.234375 75.574219 L 171.015625 75.574219 L 171.015625 63.867188 L 119.234375 63.867188 L 119.234375 39.160156 L 111.367188 39.160156 C 111.359375 39.238281 111.351562 39.320312 111.347656 39.394531 C 111.121094 39.402344 110.78125 39.300781 110.394531 39.160156 L 107.527344 39.160156 L 107.527344 40.367188 C 108.382812 41.492188 108.402344 43.644531 107.527344 44.460938 L 107.527344 63.867188 L 85.140625 63.867188 C 84.472656 64.375 83.808594 64.90625 83.097656 65.164062 C 79.921875 66.332031 75.847656 65.359375 73.429688 68.207031 C 71.433594 70.558594 71.605469 72.378906 68.78125 73.847656 C 67.5625 74.480469 66.371094 75.019531 65.210938 75.574219 L 107.527344 75.574219 L 107.527344 100.285156 " fill-opacity="1" fill-rule="nonzero"/><path fill="#ece6e7" d="M 106.332031 39.160156 C 106.296875 39.304688 106.273438 39.472656 106.273438 39.667969 C 106.796875 39.691406 107.21875 39.964844 107.527344 40.367188 L 107.527344 39.160156 L 106.332031 39.160156 " fill-opacity="1" fill-rule="nonzero"/><path fill="#ece6e7" d="M 107.527344 44.460938 C 107.460938 44.519531 107.394531 44.578125 107.320312 44.621094 C 105.84375 45.5 104.609375 43.824219 103.523438 42.652344 L 103.523438 59.59375 L 93.4375 59.59375 C 92.097656 60.511719 90.6875 61.347656 89.675781 61.761719 C 88.496094 62.25 87.492188 62.398438 86.414062 62.992188 C 85.980469 63.234375 85.5625 63.546875 85.140625 63.867188 L 107.527344 63.867188 L 107.527344 44.460938 " fill-opacity="1" fill-rule="nonzero"/><path fill="#ece6e7" d="M 171.015625 63.867188 L 171.015625 59.59375 L 123.242188 59.59375 L 123.242188 39.160156 L 119.234375 39.160156 L 119.234375 63.867188 L 171.015625 63.867188 " fill-opacity="1" fill-rule="nonzero"/><path fill="#ece6e7" d="M 95.28125 79.847656 L 103.523438 79.847656 L 103.523438 100.285156 L 107.527344 100.285156 L 107.527344 75.574219 L 65.210938 75.574219 C 63.496094 76.394531 61.863281 77.257812 60.359375 78.527344 C 59.921875 78.898438 59.488281 79.355469 59.050781 79.847656 L 95.28125 79.847656 " fill-opacity="1" fill-rule="nonzero"/><path fill="#ece6e7" d="M 119.234375 100.285156 L 123.242188 100.285156 L 123.242188 79.847656 L 171.015625 79.847656 L 171.015625 75.574219 L 119.234375 75.574219 L 119.234375 100.285156 " fill-opacity="1" fill-rule="nonzero"/><path fill="#e2222d" d="M 93.871094 59.296875 C 93.730469 59.394531 93.585938 59.496094 93.4375 59.59375 L 94.429688 59.59375 L 93.871094 59.296875 " fill-opacity="1" fill-rule="nonzero"/><path fill="#e2222d" d="M 103.523438 79.847656 L 95.28125 79.847656 L 56.84375 100.285156 L 65.097656 100.285156 L 103.523438 79.855469 L 103.523438 79.847656 " fill-opacity="1" fill-rule="nonzero"/><path fill="#e2222d" d="M 132.929688 79.847656 L 171.015625 100.199219 L 171.015625 95.808594 L 141.148438 79.847656 L 132.929688 79.847656 " fill-opacity="1" fill-rule="nonzero"/><path fill="#e2222d" d="M 132.785156 59.59375 L 171.015625 39.265625 L 171.015625 39.160156 L 162.96875 39.160156 L 124.535156 59.59375 L 132.785156 59.59375 " fill-opacity="1" fill-rule="nonzero"/><path fill="#ece2e4" d="M 223.363281 68.636719 L 228.730469 62.242188 L 234.097656 68.636719 L 232.542969 60.402344 L 240.789062 60.242188 L 233.488281 56.273438 L 238.402344 49.777344 L 230.847656 52.960938 L 228.730469 45.117188 L 226.613281 52.960938 L 219.058594 49.777344 L 223.972656 56.273438 L 216.667969 60.242188 L 224.914062 60.402344 L 223.363281 68.636719 " fill-opacity="1" fill-rule="nonzero"/><path fill="#ece2e4" d="M 254.742188 69.71875 L 252.625 77.566406 L 245.070312 74.378906 L 249.984375 80.878906 L 242.683594 84.847656 L 250.925781 85.007812 L 249.375 93.238281 L 254.742188 86.84375 L 260.113281 93.238281 L 258.554688 85.007812 L 266.804688 84.847656 L 259.5 80.878906 L 262.179688 77.332031 C 262.160156 77.03125 262.132812 76.761719 262.113281 76.570312 C 262.070312 76.164062 262.042969 75.769531 262.019531 75.390625 L 256.859375 77.566406 L 254.742188 69.71875 " fill-opacity="1" fill-rule="nonzero"/><path fill="#ece2e4" d="M 210.007812 82.878906 L 202.453125 86.066406 L 200.335938 78.222656 L 198.21875 86.066406 L 190.664062 82.878906 L 195.578125 89.378906 L 188.277344 93.347656 L 196.523438 93.507812 L 194.96875 101.738281 L 200.335938 95.347656 L 205.703125 101.738281 L 204.152344 93.507812 L 212.394531 93.347656 L 205.097656 89.378906 L 210.007812 82.878906 " fill-opacity="1" fill-rule="nonzero"/><path fill="#ece2e4" d="M 238.402344 131.167969 L 230.847656 134.355469 L 228.730469 126.511719 L 226.613281 134.355469 L 219.058594 131.167969 L 223.972656 137.667969 L 216.667969 141.632812 L 224.914062 141.796875 L 223.363281 150.027344 L 228.730469 143.632812 L 234.097656 150.027344 L 232.542969 141.796875 L 240.789062 141.632812 L 233.488281 137.667969 L 238.402344 131.167969 " fill-opacity="1" fill-rule="nonzero"/><path fill="#ece2e4" d="M 135.871094 134.171875 L 122.816406 127.074219 L 131.601562 115.457031 L 118.097656 121.15625 L 114.308594 107.128906 L 110.519531 121.15625 L 97.015625 115.457031 L 105.800781 127.074219 L 92.742188 134.171875 L 107.484375 134.457031 L 104.710938 149.179688 L 114.3125 137.742188 L 119.386719 143.792969 C 119.882812 143.507812 120.480469 143.277344 121.214844 143.128906 C 121.707031 143.03125 122.230469 143.050781 122.757812 143.089844 L 121.128906 134.457031 L 135.871094 134.171875 " fill-opacity="1" fill-rule="nonzero"/><path fill="#ece2e4" d="M 241.859375 101.507812 L 240.503906 97.015625 L 239.148438 101.507812 L 234.285156 101.53125 L 238.308594 104.082031 L 236.664062 108.84375 L 240.503906 105.671875 L 244.34375 108.84375 L 242.695312 104.082031 L 246.722656 101.53125 L 241.859375 101.507812 " fill-opacity="1" fill-rule="nonzero"/></svg>