<svg version="1.2" xmlns="http://www.w3.org/2000/svg" viewBox="0 0 406 126" width="406" height="126">
	<title>footerlogo-svg</title>
	<defs>
		<clipPath clipPathUnits="userSpaceOnUse" id="cp1">
			<path d="m1 0.02h404.76v125.96h-404.76z"/>
		</clipPath>
		<clipPath clipPathUnits="userSpaceOnUse" id="cp2">
			<path d="m207 28h38v24h-38z"/>
		</clipPath>
		<clipPath clipPathUnits="userSpaceOnUse" id="cp3">
			<path d="m177.25 0.75l69.11 21.38-16.95 54.79-69.11-21.38z"/>
		</clipPath>
		<clipPath clipPathUnits="userSpaceOnUse" id="cp4">
			<path d="m177.25 0.75l69.11 21.38-16.95 54.79-69.11-21.38z"/>
		</clipPath>
		<clipPath clipPathUnits="userSpaceOnUse" id="cp5">
			<path d="m171 47h36v11h-36z"/>
		</clipPath>
		<clipPath clipPathUnits="userSpaceOnUse" id="cp6">
			<path d="m177.25 0.75l69.11 21.38-16.95 54.79-69.11-21.38z"/>
		</clipPath>
		<clipPath clipPathUnits="userSpaceOnUse" id="cp7">
			<path d="m177.25 0.75l69.11 21.38-16.95 54.79-69.11-21.38z"/>
		</clipPath>
		<clipPath clipPathUnits="userSpaceOnUse" id="cp8">
			<path d="m177 9h52v19h-52z"/>
		</clipPath>
		<clipPath clipPathUnits="userSpaceOnUse" id="cp9">
			<path d="m177.25 0.75l69.11 21.38-16.95 54.79-69.11-21.38z"/>
		</clipPath>
		<clipPath clipPathUnits="userSpaceOnUse" id="cp10">
			<path d="m177.25 0.75l69.11 21.38-16.95 54.79-69.11-21.38z"/>
		</clipPath>
		<clipPath clipPathUnits="userSpaceOnUse" id="cp11">
			<path d="m173 28h7v25h-7z"/>
		</clipPath>
		<clipPath clipPathUnits="userSpaceOnUse" id="cp12">
			<path d="m177.25 0.75l69.11 21.38-16.95 54.79-69.11-21.38z"/>
		</clipPath>
		<clipPath clipPathUnits="userSpaceOnUse" id="cp13">
			<path d="m177.25 0.75l69.11 21.38-16.95 54.79-69.11-21.38z"/>
		</clipPath>
		<clipPath clipPathUnits="userSpaceOnUse" id="cp14">
			<path d="m179 52h49v16h-49z"/>
		</clipPath>
		<clipPath clipPathUnits="userSpaceOnUse" id="cp15">
			<path d="m177.25 0.75l69.11 21.38-16.95 54.79-69.11-21.38z"/>
		</clipPath>
		<clipPath clipPathUnits="userSpaceOnUse" id="cp16">
			<path d="m177.25 0.75l69.11 21.38-16.95 54.79-69.11-21.38z"/>
		</clipPath>
		<clipPath clipPathUnits="userSpaceOnUse" id="cp17">
			<path d="m171 18h32v21h-32z"/>
		</clipPath>
		<clipPath clipPathUnits="userSpaceOnUse" id="cp18">
			<path d="m177.25 0.75l69.11 21.38-16.95 54.79-69.11-21.38z"/>
		</clipPath>
		<clipPath clipPathUnits="userSpaceOnUse" id="cp19">
			<path d="m177.25 0.75l69.11 21.38-16.95 54.79-69.11-21.38z"/>
		</clipPath>
	</defs>
	<style>
		.s0 { fill: #06891e } 
	</style>
	<g id="Clip-Path" clip-path="url(#cp1)">
		<g id="Layer">
		</g>
	</g>
	<g id="Clip-Path" clip-path="url(#cp2)">
		<g id="Layer">
			<g id="Clip-Path" clip-path="url(#cp3)">
				<g id="Layer">
					<g id="Clip-Path" clip-path="url(#cp4)">
						<g id="Layer">
							<path id="Layer" class="s0" d="m207.4 46.6q0.4-0.6 0.8-1.1c3.5-4.6 8.1-4.1 9.4-3.8q0.1 0 0.2 0.1 0.1 0 0.1 0c1.5 0.5 3.1 1.9 3.1 1.9 1.3-2.4-2.1-4.4-2.1-4.4 0 0 2.4-5.5-4.4-5.5 6-4.2 15.4-7.2 30-4.9 0 0-0.5 1.1-1.3 2.8-1.1 2.1-3.1 3.4-5.4 3.5l-5.3 0.2 7.4 2.1q-0.2 0.4-0.4 0.7c-1.5 2.2-4.1 3.3-6.7 2.7-2.4-0.6-4.4-1.1-4.4-1.1l7 3.8q0 0 0 0c-1.8 2.1-4.7 2.7-7.2 1.6l-5.5-2.4 8.3 5.1q-0.1 0.1-0.2 0.2c-1.8 1.4-4.1 1.7-6.2 0.9l-7.7-2.9 8.6 5.2c0 0-5 1.7-11.6-2.3-2.8-1.7-4.9-2.3-6.5-2.4z"/>
						</g>
					</g>
				</g>
			</g>
		</g>
	</g>
	<g id="Clip-Path" clip-path="url(#cp5)">
		<g id="Layer">
			<g id="Clip-Path" clip-path="url(#cp6)">
				<g id="Layer">
					<g id="Clip-Path" clip-path="url(#cp7)">
						<g id="Layer">
							<path id="Layer" class="s0" d="m206.2 47.8q0 0-0.4 0.3-0.1 0.1-0.4 0.3-0.2 0.2-0.5 0.5-0.3 0.2-0.7 0.5-0.2 0.1-0.4 0.3-0.2 0.2-0.4 0.3-0.8 0.7-1.9 1.4-1.1 0.7-2.5 1.4-1.3 0.7-2.8 1.2-0.7 0.3-1.5 0.5-0.4 0-0.8 0.1-0.4 0.1-0.8 0.1h-0.1c0 0 0 0 0 0l-0.1 0.1h-0.2-0.3-0.1-0.1q-0.4 0-0.8 0-0.2 0-0.4 0h-0.4q-0.2 0-0.5 0l-0.4-0.1c-1.1 0-2.3-0.2-3.4-0.4q-0.5 0-0.9-0.1-0.4-0.1-0.9-0.1-0.8-0.1-1.7-0.2-0.2 0-0.4 0-0.2-0.1-0.4-0.1-0.3 0-0.5 0-0.2 0-0.4 0-0.4 0-0.8 0-0.4 0-0.8 0-1.6 0.2-3 0.6-1.4 0.4-2.3 0.9-0.3 0.2-0.5 0.3-0.1 0.1-0.2 0.2-0.1 0.1-0.2 0.1-0.2 0.2-0.4 0.3-0.1 0.2-0.3 0.3-0.3 0.3-0.5 0.5-0.1 0.2-0.2 0.3 0 0.1-0.1 0.2-0.2 0.3-0.2 0.3 0 0 0.3-0.3 0.1 0 0.2-0.1 0.1-0.1 0.2-0.2 0.2-0.2 0.6-0.4 0.1-0.1 0.3-0.2 0.2-0.1 0.4-0.2 0.1 0 0.2-0.1 0.1 0 0.2-0.1 0.2-0.1 0.5-0.2 0.2 0 0.5-0.1 0.3-0.1 0.6-0.2 0 0 0.1 0 0.1 0 0.1 0 0.2-0.1 0.3-0.1 0.3-0.1 0.7-0.1 1.2-0.2 2.7-0.2 0.8 0.1 1.5 0.1 0.2 0.1 0.4 0.1 0.2 0 0.4 0 0.2 0.1 0.4 0.1 0.2 0 0.4 0.1 0.8 0.1 1.6 0.2 0.5 0.1 0.9 0.2 0.4 0.1 0.9 0.2 1.7 0.3 3.6 0.4l0.4 0.1q0.3 0 0.5 0h0.5q0.2 0 0.4 0 0.5 0 1 0h0.1l0.7-0.1h0.1q0.5-0.1 0.9-0.2 0.5-0.1 0.9-0.2 0.2-0.1 0.5-0.1 0.2-0.1 0.4-0.2h0.2l0.2-0.1q0.2-0.1 0.4-0.2c1.1-0.4 2.1-1 3-1.6q1.3-0.9 2.4-1.8 1-0.9 1.7-1.7 0.2-0.2 0.4-0.4 0.2-0.2 0.3-0.4 0.3-0.3 0.6-0.7 0.2-0.3 0.4-0.5 0.2-0.3 0.3-0.4 0.3-0.4 0.3-0.4z"/>
						</g>
					</g>
				</g>
			</g>
		</g>
	</g>
	<g id="Clip-Path" clip-path="url(#cp8)">
		<g id="Layer">
			<g id="Clip-Path" clip-path="url(#cp9)">
				<g id="Layer">
					<g id="Clip-Path" clip-path="url(#cp10)">
						<g id="Layer">
							<path id="Layer" class="s0" d="m226 27.6c-3-6.7-8.7-12.1-16.2-14.4-12.2-3.8-25.1 1.7-31 12.5q-0.1 0-0.2-0.1l-0.6-0.6-0.2-0.1-0.2-0.3h-0.1q-0.2-0.2-0.4-0.5c6.5-11.4 20.3-17.1 33.3-13.1 8.4 2.6 14.8 8.7 17.9 16.2q-1.1 0.1-2.3 0.4z"/>
						</g>
					</g>
				</g>
			</g>
		</g>
	</g>
	<g id="Clip-Path" clip-path="url(#cp11)">
		<g id="Layer">
			<g id="Clip-Path" clip-path="url(#cp12)">
				<g id="Layer">
					<g id="Clip-Path" clip-path="url(#cp13)">
						<g id="Layer">
							<path id="Layer" class="s0" d="m175.7 28.8c0.4 0.3 0.8 0.7 1.3 1.1q-0.1 0.4-0.2 0.7c-2.4 7.7-1.1 15.6 2.8 21.9q-0.1 0-0.2 0-1.2 0.1-2.2 0.3c-3.9-6.7-5.1-14.9-2.6-22.9q0.3-0.8 0.6-1.7z"/>
						</g>
					</g>
				</g>
			</g>
		</g>
	</g>
	<g id="Clip-Path" clip-path="url(#cp14)">
		<g id="Layer">
			<g id="Clip-Path" clip-path="url(#cp15)">
				<g id="Layer">
					<g id="Clip-Path" clip-path="url(#cp16)">
						<g id="Layer">
							<path id="Layer" class="s0" d="m180.9 56.8q0.1 0 0.2 0h0.2l0.3 0.1c0 0 0.5 0 0.6 0q0.1 0.1 0.2 0.1h0.3q0.3 0.1 0.7 0.2c2.9 2.8 6.6 5.1 10.8 6.4 11.4 3.5 23.5-1.1 29.8-10.6 1.1-0.2 1.8-0.4 1.9-0.4l1.2-0.4c-6.4 11.7-20.4 17.7-33.6 13.6-5.5-1.7-10.1-5-13.6-9.1q0.5 0 1 0.1z"/>
						</g>
					</g>
				</g>
			</g>
		</g>
	</g>
	<g id="Clip-Path" clip-path="url(#cp17)">
		<g id="Layer">
			<g id="Clip-Path" clip-path="url(#cp18)">
				<g id="Layer">
					<g id="Clip-Path" clip-path="url(#cp19)">
						<g id="Layer">
							<path id="Layer" class="s0" d="m202.4 38.5q0 0-0.2-0.4-0.1-0.1-0.1-0.2-0.1-0.1-0.2-0.2-0.1-0.2-0.2-0.3-0.1-0.2-0.2-0.3-0.5-0.7-1.3-1.5-0.9-0.8-2.1-1.5-1.3-0.7-2.8-1.3-0.4-0.1-0.8-0.3-0.2 0-0.4-0.1-0.2 0-0.4-0.1-0.1 0-0.2-0.1h-0.1-0.1q-0.2-0.1-0.4-0.1-0.4-0.1-0.8-0.2-0.9-0.2-1.7-0.4-0.9-0.2-1.8-0.3c-1.1-0.3-2.3-0.5-3.4-0.8q-0.9-0.2-1.7-0.5l-0.4-0.2h-0.1c0.1 0 0 0 0 0h-0.1l-0.2-0.1q-0.2-0.1-0.4-0.2l-0.2-0.1q-0.1 0-0.2-0.1-0.4-0.1-0.7-0.3-0.4-0.2-0.8-0.4-0.2-0.1-0.3-0.2-0.2-0.2-0.4-0.3-0.2-0.1-0.3-0.2-0.2-0.1-0.4-0.2c-0.4-0.3-0.8-0.7-1.2-1q-0.3-0.2-0.6-0.5-0.1-0.1-0.2-0.1 0-0.1-0.1-0.2-0.1-0.1-0.3-0.2c-0.3-0.4-0.6-0.7-1-1.1q-0.2-0.3-0.4-0.5-0.1-0.1-0.2-0.3-0.1-0.1-0.2-0.2-0.2-0.3-0.4-0.6-0.2-0.2-0.4-0.5-0.2-0.2-0.3-0.5-0.2-0.2-0.3-0.5c-0.2-0.3-0.4-0.6-0.5-0.8q-0.1-0.3-0.2-0.4-0.1-0.2-0.2-0.4-0.1-0.2-0.2-0.4 0-0.1-0.1-0.3-0.1-0.3-0.2-0.5-0.2-0.4-0.2-0.4 0 0 0.1 0.5 0 0.2 0.1 0.5 0 0.3 0.1 0.7 0.1 0.2 0.1 0.4 0.1 0.2 0.2 0.5 0.1 0.5 0.3 1 0.1 0.2 0.2 0.5 0.1 0.3 0.3 0.6 0.1 0.3 0.2 0.6 0.2 0.3 0.4 0.6 0.1 0.2 0.2 0.3 0.1 0.2 0.2 0.3 0.2 0.3 0.4 0.6 0.2 0.4 0.4 0.7 0.3 0.3 0.5 0.6 0.2 0.2 0.3 0.3 0.1 0.1 0.1 0.2 0.1 0.1 0.2 0.1 0.3 0.3 0.6 0.6 0.6 0.6 1.3 1.2 0.1 0.1 0.3 0.3 0.2 0.1 0.4 0.3 0.2 0.1 0.4 0.2 0.1 0.2 0.3 0.3 0.4 0.2 0.8 0.5 0.5 0.2 0.9 0.4 0.1 0.1 0.2 0.1l0.2 0.1q0.2 0.1 0.4 0.2l0.3 0.1 0.1 0.1h0.1l0.4 0.2q0.9 0.3 1.8 0.5 1.9 0.5 3.7 0.8 0.9 0.1 1.7 0.3 0.9 0.1 1.7 0.2 0.4 0.1 0.8 0.2 0.3 0 0.5 0h0.1l0.1 0.1h0.1q0.2 0 0.4 0.1 0.2 0 0.4 0.1 0.4 0.1 0.8 0.1 1.4 0.4 2.7 0.9 1.2 0.5 2.1 1.1 0.9 0.6 1.5 1.1 0.2 0.2 0.3 0.3 0.1 0.1 0.2 0.2 0.1 0.1 0.2 0.2 0.1 0.1 0.2 0.2 0.3 0.3 0.3 0.3z"/>
						</g>
					</g>
				</g>
			</g>
		</g>
	</g>
	<g id="Layer">
		<g id="Layer">
			<g id="Layer">
				<path id="Layer" fill-rule="evenodd" class="s0" d="m76.8 112.2q-3.2 0-4.8-1.8-1.7-1.8-1.7-5.2 0-3.6 1.9-5.5 1.8-1.9 5.2-1.9 3.2 0 4.8 1.7 1.6 1.7 1.6 5.1 0 3.7-1.8 5.7-1.9 1.9-5.2 1.9zm0.4-2.7q0.9 0 1.3-0.8 0.4-0.8 0.4-2.7 0-2-0.2-3.1-0.2-1.2-0.6-1.7-0.4-0.5-1.2-0.5-0.9 0-1.2 0.8-0.4 0.8-0.4 2.7 0 2 0.1 3.1 0.2 1.2 0.6 1.7 0.5 0.5 1.2 0.5z"/>
			</g>
		</g>
	</g>
	<g id="Layer">
		<g id="Layer">
			<g id="Layer">
				<path id="Layer" class="s0" d="m91.9 112.3q-0.2-1-0.9-3.8-0.6-2.9-0.9-3.7-0.2-0.6-0.4-0.8-0.3-0.3-0.8-0.3v-0.1l0.1-1.9q0.3 0 0.9 0.1 0.7 0 1.5 0 0.9 0 2-0.1 1 0 1.3-0.1l0.1 0.1-0.3 1.9q-0.3 0.1-0.5 0.2-0.2 0-0.2 0.1-0.1 0.1-0.1 0.3 0 0.4 0.3 2.2 0.4 1.8 0.5 2.5h0.4q0.4-1.7 0.8-3.1 0.3-1.5 0.3-1.8 0-0.2-0.1-0.2 0-0.1-0.3-0.1h-0.4l-0.1-0.1 0.3-1.9q0.2 0 0.9 0.1 0.7 0 1.5 0h2.2l-0.2 1.9q-0.5 0.1-0.7 0.2-0.1 0.1-0.3 0.6l-2.2 7.5z"/>
			</g>
		</g>
	</g>
	<g id="Layer">
		<g id="Layer">
			<g id="Layer">
				<path id="Layer" fill-rule="evenodd" class="s0" d="m110.4 112.2q-2.6 0-4-1.3-1.3-1.4-1.3-3.9 0-1.6 0.6-2.9 0.7-1.2 2-1.9 1.2-0.7 2.9-0.7 4.1 0 4.1 4.4 0 0.6-0.2 1.4l-0.2 0.2h-5.1q0 0.9 0.6 1.4 0.5 0.5 1.5 0.5 1.1 0 2.5-0.6l0.2 0.1 0.5 1.6q-0.8 0.7-2 1.2-1.2 0.5-2.1 0.5zm0.4-6.5q0.2 0 0.3-0.1 0-0.1 0-0.3 0-1.4-0.9-1.4-0.6 0-0.9 0.5-0.3 0.4-0.3 1.5z"/>
			</g>
		</g>
	</g>
	<g id="Layer">
		<g id="Layer">
			<g id="Layer">
				<path id="Layer" class="s0" d="m120.7 110.2q0.6 0 0.8-0.3 0.3-0.2 0.3-0.8v-3.7q0-0.8-0.2-1.1-0.2-0.2-0.9-0.2h-0.3l-0.1-0.2 0.2-1.6q1.5-0.2 3.1-0.4 1.5-0.3 2-0.4l0.2 0.3q0 0.1-0.1 0.7-0.1 0.6-0.1 1.1l0.1 0.1q0.7-1 1.5-1.5 0.7-0.5 1.5-0.5 0.3 0 0.6 0.1 0.2 0 0.3 0l0.1 0.3q-0.1 0.4-0.3 2-0.2 1.5-0.2 2.9l-2.1 0.1q0-1.2-0.1-1.6-0.1-0.4-0.5-0.4-0.4 0-0.8 0.4 0 0.5-0.1 1.8-0.1 1.3-0.1 2.1 0 0.6 0.6 0.6 0.3 0 0.7 0 0.4-0.1 0.5-0.1l0.1 0.2-0.3 2q-0.3 0-1.5-0.1-1.2 0-2 0-0.8 0-1.8 0-1.1 0.1-1.4 0.1z"/>
			</g>
		</g>
	</g>
	<g id="Layer">
		<g id="Layer">
			<g id="Layer">
				<path id="Layer" class="s0" d="m138.4 112.2q-0.9 0-1.6-0.1-0.7-0.2-1.1-0.4-0.5-0.1-0.6-0.2l-0.2-0.3q0.2-1.4 0.3-2.8l1.8-0.1q0 0.7 0.5 1.2 0.4 0.5 1.1 0.5 0.4 0 0.7-0.1 0.2-0.2 0.2-0.5 0-0.3-0.3-0.5-0.4-0.3-1.4-0.7-1.4-0.5-2-1.3-0.6-0.7-0.6-1.8 0-1.6 1.3-2.6 1.4-1 3.7-1 0.8 0 1.3 0.1 0.7 0.1 1 0.2 0.3 0.1 0.4 0.2l0.2 0.3q0 0.3-0.2 1.2-0.1 0.9-0.2 1.8l-1.7 0.1v-0.1q0-0.7-0.3-1.1-0.3-0.3-0.9-0.3-0.4 0-0.6 0.1-0.2 0.2-0.2 0.5 0 0.3 0.2 0.5 0.2 0.2 0.8 0.5 1.3 0.5 2.1 1 0.7 0.5 1 1 0.2 0.6 0.2 1.4 0 0.9-0.6 1.7-0.6 0.8-1.8 1.2-1.1 0.4-2.5 0.4z"/>
			</g>
		</g>
	</g>
	<g id="Layer">
		<g id="Layer">
			<g id="Layer">
				<path id="Layer" fill-rule="evenodd" class="s0" d="m154.3 112.2q-2.5 0-3.9-1.3-1.4-1.4-1.4-3.9 0-1.6 0.7-2.9 0.7-1.2 1.9-1.9 1.3-0.7 2.9-0.7 4.1 0 4.1 4.4 0 0.6-0.1 1.4l-0.3 0.2h-5.1q0.1 0.9 0.6 1.4 0.6 0.5 1.5 0.5 1.1 0 2.6-0.6l0.2 0.1 0.5 1.6q-0.9 0.7-2.1 1.2-1.1 0.5-2.1 0.5zm0.5-6.5q0.2 0 0.2-0.1 0-0.1 0-0.3 0-1.4-0.8-1.4-0.7 0-0.9 0.5-0.3 0.4-0.3 1.5z"/>
			</g>
		</g>
	</g>
	<g id="Layer">
		<g id="Layer">
			<g id="Layer">
				<path id="Layer" fill-rule="evenodd" class="s0" d="m172.6 112.2q-1.1 0-1.8-0.4-0.6-0.4-0.7-1.1l-0.2-0.1q-0.7 0.6-1.3 1.1-0.7 0.4-1.1 0.4-0.9 0-1.6-0.4-0.8-0.5-1.2-1.4-0.4-0.8-0.4-1.8 0-0.7 0.4-1.2 0.4-0.6 1-0.7l4.2-0.8q0-0.7-0.5-1.1-0.4-0.4-1.3-0.4-0.5 0-1.2 0.3-0.7 0.2-1.2 0.6l-0.3-0.1-0.5-1.8q1.2-0.6 2.6-1.2 1.3-0.6 1.8-0.6 2.3 0 3.3 0.9 1 0.9 1 2.3 0 0.4-0.2 2-0.2 1.5-0.2 1.8 0 0.3 0.1 0.5 0.2 0.2 0.5 0.2 0.3 0 0.7-0.2l0.4 0.6q-0.5 0.9-1.2 1.7-0.6 0.8-1.1 0.9zm-3.8-2.8q0.4 0 1-0.1l0.1-1.9-1.6 0.3q-0.2 0.1-0.3 0.2-0.1 0.1-0.1 0.3 0 0.5 0.3 0.9 0.2 0.3 0.6 0.3z"/>
			</g>
		</g>
	</g>
	<g id="Layer">
		<g id="Layer">
			<g id="Layer">
				<path id="Layer" class="s0" d="m183.6 112.2q-0.9 0-1.6-0.1-0.7-0.2-1.2-0.4-0.4-0.1-0.5-0.2l-0.2-0.3q0.2-1.4 0.3-2.8l1.7-0.1q0.1 0.7 0.6 1.2 0.4 0.5 1.1 0.5 0.4 0 0.7-0.1 0.2-0.2 0.2-0.5 0-0.3-0.4-0.5-0.3-0.3-1.4-0.7-1.3-0.5-1.9-1.3-0.6-0.7-0.6-1.8 0-1.6 1.3-2.6 1.4-1 3.7-1 0.7 0 1.3 0.1 0.6 0.1 1 0.2 0.3 0.1 0.4 0.2l0.2 0.3q0 0.3-0.2 1.2-0.1 0.9-0.2 1.8l-1.7 0.1v-0.1q0-0.7-0.3-1.1-0.3-0.3-0.9-0.3-0.4 0-0.6 0.1-0.2 0.2-0.2 0.5 0 0.3 0.2 0.5 0.2 0.2 0.8 0.5 1.3 0.5 2.1 1 0.7 0.5 1 1 0.2 0.6 0.2 1.4 0 0.9-0.6 1.7-0.6 0.8-1.8 1.2-1.1 0.4-2.5 0.4z"/>
			</g>
		</g>
	</g>
	<g id="Layer">
		<g id="Layer">
			<g id="Layer">
			</g>
		</g>
	</g>
	<g id="Layer">
		<g id="Layer">
			<g id="Layer">
				<path id="Layer" class="s0" d="m214.7 107.3q-0.3 1.9-0.6 4.5l-0.3 0.3q-3.6-0.1-6.9-0.1-2.2 0-4.6 0.2l0.2-2q0.8-0.1 1.1-0.5 0.3-0.4 0.3-1.4v-7.2q0-0.7-0.1-1-0.1-0.2-0.5-0.2-0.3 0-0.5 0.1l-0.3-0.4 0.2-1.7q0.5 0 0.7 0.1 2.6 0 4.3 0 2.1 0 3.9-0.1 1.9 0 2.8-0.1l0.3 0.3q-0.2 0.9-0.3 2.1-0.2 1.2-0.2 2.2l-3 0.2 0.1-0.8q0-0.5-0.2-0.7-0.2-0.3-0.6-0.4-0.4-0.1-1.3-0.1-0.5 0-0.6 0.1-0.2 0.1-0.2 0.5l-0.1 2.4h1.8q0.8 0 2.3-0.1l0.3 0.3-0.3 2.5q-2.1-0.1-2.6-0.1-0.5 0-1.6 0.2v1.8q0 0.6 0 0.9 0.1 0.2 0.3 0.3 0.2 0.1 0.7 0.1 1 0 1.4-0.2 0.5-0.1 0.7-0.6 0.3-0.5 0.4-1.5l2.8-0.2z"/>
			</g>
		</g>
	</g>
	<g id="Layer">
		<g id="Layer">
			<g id="Layer">
				<path id="Layer" fill-rule="evenodd" class="s0" d="m229.2 112.2q-1 0-1.7-0.4-0.6-0.4-0.7-1.1l-0.1-0.1q-2 1.5-2.3 1.5-1.9 0-3-1.2-1.1-1.3-1.1-3.7 0-2.6 1.5-4.1 1.5-1.5 4.1-1.5 0.5 0 0.6 0.1v-1.8q0-0.8-0.2-1-0.2-0.3-0.8-0.3-0.2 0-0.3 0-0.2 0-0.2 0l0.2-1.8q1.7-0.2 3.4-0.5 1.6-0.2 2.1-0.3l0.3 0.4q-0.4 0.5-0.6 3.8-0.2 3.4-0.2 8.3 0 0.3 0.2 0.5 0.1 0.2 0.3 0.2 0.2 0 0.4-0.1 0.2 0 0.3-0.1l0.3 0.6q0 0.1-0.4 0.7-0.3 0.6-0.9 1.1-0.5 0.6-1.2 0.8zm-3.5-2.8q0.3 0 0.6-0.1 0.2-0.1 0.2-0.1v-4.9q-0.1 0-0.3-0.1-0.3-0.1-0.7-0.1-1.1 0-1.1 2.2 0 1.6 0.3 2.4 0.3 0.7 1 0.7z"/>
			</g>
		</g>
	</g>
	<g id="Layer">
		<g id="Layer">
			<g id="Layer">
				<path id="Layer" class="s0" d="m237.8 105q0-0.6-0.1-0.7-0.1-0.2-0.5-0.2h-0.6l0.2-1.8q1.5-0.2 3-0.4 1.5-0.3 1.9-0.4l0.3 0.5q-0.3 0.5-0.4 2.2-0.2 1.6-0.2 3.5 0 1.4 0.9 1.4 0.4 0 1-0.4v-3.7q0-0.6-0.1-0.7-0.1-0.2-0.7-0.2h-0.2l0.3-1.8q1.4-0.2 2.9-0.4 1.5-0.2 1.9-0.3l0.3 0.5q-0.3 0.5-0.5 2.3-0.2 1.8-0.2 4.1 0 0.3 0.2 0.5 0.2 0.2 0.5 0.2 0.2 0 0.4-0.1 0.2 0 0.3-0.1l0.3 0.6q0 0-0.4 0.6-0.4 0.6-1 1.2-0.6 0.6-1.2 0.8-2.3 0-2.6-1.5l-0.2-0.2q-0.6 0.8-1.1 1.3-0.4 0.4-0.6 0.4-2 0-3-0.7-1-0.8-1-2.2z"/>
			</g>
		</g>
	</g>
	<g id="Layer">
		<g id="Layer">
			<g id="Layer">
				<path id="Layer" class="s0" d="m258.9 112.2q-2.4 0-3.7-1.3-1.3-1.4-1.3-3.9 0-1.6 0.6-2.9 0.7-1.2 2-1.9 1.3-0.7 2.9-0.7 0.9 0 1.5 0.1 0.7 0.1 1.1 0.3 0.3 0.1 0.4 0.1l0.1 0.2q0 0.4-0.2 1.5-0.2 1.1-0.3 2.3l-2 0.1v-0.8q0-0.7-0.2-0.9-0.2-0.3-0.6-0.3-1.3 0-1.3 2 0 1.6 0.5 2.4 0.4 0.8 1.3 0.8 0.5 0 1-0.2 0.5-0.1 0.7-0.2 0.3-0.1 0.4-0.2l0.2 0.1 0.5 1.6q0 0.1-0.7 0.5-0.6 0.5-1.4 0.9-0.8 0.4-1.5 0.4z"/>
			</g>
		</g>
	</g>
	<g id="Layer">
		<g id="Layer">
			<g id="Layer">
				<path id="Layer" fill-rule="evenodd" class="s0" d="m276.6 112.2q-1.1 0-1.7-0.4-0.7-0.4-0.8-1.1l-0.2-0.1q-0.7 0.6-1.3 1.1-0.7 0.4-1.1 0.4-0.9 0-1.6-0.4-0.8-0.5-1.2-1.4-0.4-0.8-0.4-1.8 0-0.7 0.4-1.2 0.4-0.6 1-0.7l4.2-0.8q0-0.7-0.5-1.1-0.4-0.4-1.3-0.4-0.5 0-1.2 0.3-0.7 0.2-1.2 0.6l-0.3-0.1-0.5-1.8q1.2-0.6 2.6-1.2 1.3-0.6 1.9-0.6 2.2 0 3.2 0.9 1 0.9 1 2.3 0 0.4-0.2 2-0.2 1.5-0.2 1.8 0 0.3 0.2 0.5 0.1 0.2 0.4 0.2 0.3 0 0.7-0.2l0.4 0.6q-0.5 0.9-1.2 1.7-0.6 0.8-1.1 0.9zm-3.8-2.8q0.4 0 1.1-0.1v-1.9l-1.6 0.3q-0.2 0.1-0.3 0.2-0.1 0.1-0.1 0.3 0 0.5 0.3 0.9 0.2 0.3 0.6 0.3z"/>
			</g>
		</g>
	</g>
	<g id="Layer">
		<g id="Layer">
			<g id="Layer">
				<path id="Layer" class="s0" d="m288.4 112.2q-1.6 0-2.5-0.6-0.8-0.7-0.8-2.1v-4.2q0-0.8-0.2-1-0.2-0.2-0.9-0.2l-0.4-0.2 0.2-1.6q1.1-0.5 2.1-1.1 1.1-0.6 1.8-1 0.7-0.5 0.9-0.6l0.8 0.5q0 0.1-0.2 0.7-0.1 0.6-0.2 1.4h1.9l0.1 0.1-0.3 1.9-1.8-0.1q-0.1 1.8-0.1 3.8 0 1.5 1 1.5 0.3 0 0.6-0.1 0.3-0.1 0.5-0.1l0.3 0.8q-0.1 0.2-0.7 0.7-0.5 0.6-1.1 1.1-0.7 0.4-1 0.4z"/>
			</g>
		</g>
	</g>
	<g id="Layer">
		<g id="Layer">
			<g id="Layer">
				<path id="Layer" class="s0" d="m296.6 110.3q0.6-0.1 0.9-0.4 0.3-0.3 0.3-0.9v-3.7q0-0.7-0.2-1-0.2-0.2-0.8-0.2-0.2 0-0.3 0-0.2 0-0.2 0l0.1-1.8q1.7-0.2 3.3-0.4 1.6-0.3 2-0.4l0.3 0.5q-0.5 1-0.5 7.5 0 0.4 0.1 0.5 0.1 0.2 0.4 0.2 0.2 0 0.3-0.1 0.2 0 0.2 0l0.1 0.1-0.3 1.9q-0.3-0.1-1.1-0.1-0.9 0-1.8 0-0.8 0-1.8 0.1-1 0-1.3 0.1zm2.9-9.7q-1 0-1.6-0.6-0.5-0.5-0.5-1.5 0-1 0.6-1.6 0.6-0.6 1.6-0.6 1 0 1.5 0.5 0.5 0.5 0.5 1.5 0 1.1-0.5 1.7-0.6 0.6-1.6 0.6z"/>
			</g>
		</g>
	</g>
	<g id="Layer">
		<g id="Layer">
			<g id="Layer">
				<path id="Layer" fill-rule="evenodd" class="s0" d="m313.3 112.2q-2.3 0-3.6-1.3-1.4-1.4-1.4-3.8 0-2.6 1.5-4.1 1.4-1.5 4-1.5 2.4 0 3.6 1.4 1.3 1.3 1.3 3.7 0 2.7-1.4 4.2-1.5 1.4-4 1.4zm0.3-2.3q0.5 0 0.7-0.4 0.3-0.5 0.3-1.6 0-1.5-0.1-2.3-0.1-0.8-0.4-1.1-0.2-0.4-0.7-0.4-0.5 0-0.7 0.5-0.3 0.4-0.3 1.5 0 1.5 0.1 2.3 0.1 0.8 0.4 1.2 0.2 0.3 0.7 0.3z"/>
			</g>
		</g>
	</g>
	<g id="Layer">
		<g id="Layer">
			<g id="Layer">
				<path id="Layer" class="s0" d="m331 110.2q0.4-0.1 0.6-0.3 0.2-0.2 0.2-0.7v-3.1q0.1-0.8-0.1-1.1-0.3-0.3-0.8-0.3-0.4 0-0.9 0.4-0.3 3.9-0.3 4.3 0 0.4 0.1 0.6 0.1 0.1 0.4 0.1h0.3l0.1 0.1-0.2 1.9q-0.3-0.1-1.1-0.1-0.8 0-1.6 0-0.8 0-1.8 0-1 0.1-1.2 0.1l0.2-1.9q0.6 0 0.9-0.3 0.2-0.2 0.2-0.8v-3.7q0-0.8-0.2-1-0.2-0.3-0.8-0.3h-0.4l-0.1-0.2 0.2-1.6q1.6-0.2 3.1-0.4 1.5-0.3 2-0.4l0.3 0.3q-0.1 0.1-0.2 0.6-0.1 0.5-0.1 1l0.2 0.1q1.8-2 2.3-2 1.7 0 2.6 0.8 1 0.7 1 2 0 0.4-0.1 1.4-0.1 0.9-0.2 1.3-0.2 1.8-0.2 2.4 0 0.4 0.1 0.6 0.1 0.2 0.5 0.2h0.5v0.1l-0.2 1.8q-0.3-0.1-1.2-0.1-0.8 0-1.6 0-0.7 0-1.5 0-0.8 0-1.1 0z"/>
			</g>
		</g>
	</g>
	<g id="Layer">
		<g id="Layer">
			<g id="Layer">
				<path id="Layer" class="s0" d="m55.5 85.4h3.7c0-0.8 0.2-2.5 1.1-4.6l7.2-16.1c1-2.3 1.9-3.8 4.5-4.3v-1.6h-10.1v1.6c2.9 0.4 3.9 1.7 2.9 3.9l-5.4 12.3c-0.3 0.6-0.5 0.6-0.8-0.1l-5.8-12.5c-0.9-1.9-0.8-3.2 1.7-3.6v-1.6h-12.1v1.5c2.2 0.6 2.6 2.2 4.1 5.5z"/>
			</g>
		</g>
	</g>
	<g id="Layer">
		<g id="Layer">
			<g id="Layer">
				<path id="Layer" fill-rule="evenodd" class="s0" d="m76.2 81c0-3.5 3.1-5.5 11-6.8 1.4-0.2 1.7-0.5 1.7-1.8v-0.4c0-3.1-0.9-4.5-3.1-4.5-2 0-2.5 1.4-2.5 3 0 1.9-1.6 2.8-3.1 2.8-1.8 0-2.7-1.2-2.7-2.6 0-3.1 5-5 9.9-5 4.9 0 7.3 1.7 7.3 8.1v7.5c0 1.4 0.7 1.9 2.2 1.6v1.8c-0.8 0.6-2.5 0.9-3.9 0.9-2.7 0-3.8-1.5-4-2.8 0-0.6-0.4-0.7-0.8-0.2-1.1 1.4-3.1 3.1-6.3 3.1-3 0-5.7-1.4-5.7-4.7zm12.7-3.1v-0.8c0-1-0.4-1.3-1.7-1.2-4.2 0.3-5.1 2.6-5.1 4 0 1.5 0.7 2.6 2.6 2.6 2.5 0 4.2-2 4.2-4.6z"/>
			</g>
		</g>
	</g>
	<g id="Layer">
		<g id="Layer">
			<g id="Layer">
				<path id="Layer" class="s0" d="m107.2 85.6c1.4 0 3-0.3 4.3-1.1v-1.8c-1.9 0.5-2.6 0-2.6-1.3v-22.4c0-1.2-0.7-1.8-2.1-1.6l-6.5 1.1v1.8c1.8-0.2 2.8 0.2 2.8 2.2v19.4c0 2.3 1.4 3.7 4.1 3.7z"/>
			</g>
		</g>
	</g>
	<g id="Layer">
		<g id="Layer">
			<g id="Layer">
				<path id="Layer" class="s0" d="m121.6 85.6c1.4 0 3-0.3 4.3-1.1v-1.8c-1.9 0.5-2.6 0-2.6-1.3v-22.4c0-1.2-0.7-1.8-2.1-1.6l-6.5 1.1v1.8c1.8-0.2 2.8 0.2 2.8 2.2v19.4c0 2.3 1.4 3.7 4.1 3.7z"/>
			</g>
		</g>
	</g>
	<g id="Layer">
		<g id="Layer">
			<g id="Layer">
				<path id="Layer" fill-rule="evenodd" class="s0" d="m147.9 80.3l1.1 1.1c-0.8 1.6-3.6 4.3-8.5 4.3-5.3 0-10.5-3.2-10.5-9.9 0-6.9 5.5-10.1 10.9-10.1 4.6 0 8.4 2.4 8.4 6.3 0 3.7-3 4-7.2 4.2l-4.6 0.2c-0.7 0.1-0.9 0.8-0.6 1.7 1.1 2.8 3.4 4.4 6.3 4.4 1.6 0 3.1-0.4 4.7-2.2zm-11.7-7c0.1 0.9 0.5 1.4 1.6 1.4l1.7 0.1c3.5 0 4.6-1.2 4.6-3.2 0-1.9-1.4-4-3.8-4-2.8 0-4 2.4-4.1 5.7z"/>
			</g>
		</g>
	</g>
	<g id="Layer">
		<g id="Layer">
			<g id="Layer">
				<path id="Layer" class="s0" d="m159.5 93.9c3.2 0 5-1.6 6.8-6.2l6.3-16.4c0.8-2.1 1.5-2.9 4.1-3.5v-1.7h-8.7v1.7c2.7 0.6 3.5 1.5 1.2 7.6l-1.7 4.4c-0.4 1.1-1 1.1-1.3 0l-3.4-8.5c-0.9-2.2-0.9-2.9 1.3-3.5v-1.7h-10.7v1.7c1.9 0.6 2.7 1.4 3.5 3.5l5.5 14.2c0.8 1.9 0.9 3.5 0.4 5-0.3 0.9-0.9 1.6-1.8 1.6-2.1 0-0.3-4.2-3.7-4.2-2 0-2.7 1.3-2.7 2.6 0 2.1 2.1 3.4 4.9 3.4z"/>
			</g>
		</g>
	</g>
	<g id="Layer">
		<g id="Layer">
			<g id="Layer">
			</g>
		</g>
	</g>
	<g id="Layer">
		<g id="Layer">
			<g id="Layer">
				<path id="Layer" class="s0" d="m195.5 85.9c3.8 0 8.9-1.6 8.9-7.4v-15.4c0-1.6 1.2-2.5 3.2-2.7v-1.6h-13.2v1.6c2.4 0.2 3.5 1.1 3.5 2.7v18.1c0 2.2-0.7 2.9-1.7 2.9-1.2 0-2-1-2-3.1 0-1.5-0.6-3.2-2.7-3.2-1.7 0-3.2 1-3.2 3.3 0 3.2 3.3 4.8 7.2 4.8z"/>
			</g>
		</g>
	</g>
	<g id="Layer">
		<g id="Layer">
			<g id="Layer">
				<path id="Layer" fill-rule="evenodd" class="s0" d="m212.3 75.6c0-6.8 5.1-9.9 10.4-9.9 5.3 0 10.4 3.3 10.4 10.1 0 6.8-5.1 9.9-10.4 9.9-5.3 0-10.4-3.3-10.4-10.1zm14.6 1.8c0-5.3-2.1-9.9-5-9.9-2.1 0-3.4 2.2-3.4 6.5 0 5.3 2.1 9.9 5 9.9 2 0 3.4-2.2 3.4-6.5z"/>
			</g>
		</g>
	</g>
	<g id="Layer">
		<g id="Layer">
			<g id="Layer">
				<path id="Layer" class="s0" d="m246.6 85.7c3.5 0 5.3-1.7 6.4-3.1q0.3-0.4 0.7-0.4c0.3 0 0.4 0.3 0.5 0.7 0.3 1 0.9 2.7 3.8 2.7 1.4 0 3.1-0.3 3.8-0.9v-1.8c-1.4 0.3-2.1-0.2-2.1-1.6v-13.9c0-1.2-0.7-1.8-2.1-1.6l-6.5 1.1v1.7c1.8-0.1 2.8 0.3 2.8 2.3v5.8c0 3.2-1.5 5.2-4.1 5.2-2.5 0-3.6-2-3.6-5.2v-9.3c0-1.2-0.7-1.8-2.1-1.6l-6.5 1.1v1.7c1.8-0.1 2.8 0.3 2.8 2.3v7c0 6.4 3.1 7.8 6.2 7.8z"/>
			</g>
		</g>
	</g>
	<g id="Layer">
		<g id="Layer">
			<g id="Layer">
				<path id="Layer" class="s0" d="m266.1 85.4h11.5v-1.6c-2.2-0.2-2.9-0.9-2.9-2.8v-5.9c0-4.2 1.6-6.5 3.6-6.5 1 0 1.7 0.8 1.7 2 0 1.5 1.2 2.4 2.8 2.4 1.8 0 3.1-1.2 3.1-3.3 0-2.4-2.1-4.1-4.7-4.1-2.4 0-4.3 1.4-5.4 2.6-0.5 0.7-1.1 0.5-1.1-1.1 0-0.9-0.7-1.5-2.1-1.3l-6.5 1.1v1.7c1.8-0.1 2.8 0.3 2.8 2.3v10.1c0 1.9-0.8 2.6-2.8 2.8z"/>
			</g>
		</g>
	</g>
	<g id="Layer">
		<g id="Layer">
			<g id="Layer">
				<path id="Layer" class="s0" d="m310 85.6c1.3 0 3.2-0.3 3.9-0.9v-1.8c-1.4 0.3-2.1-0.2-2.1-1.6v-8c0-6.3-3.1-7.7-6.3-7.7-3.2 0-4.9 1.5-5.9 2.7-0.6 0.7-1.4 0.4-1.4-1.2 0-0.9-0.6-1.5-2-1.3l-6.5 1.1v1.7c1.8-0.1 2.8 0.3 2.8 2.3v10.1c0 1.9-0.8 2.6-2.8 2.8v1.6h11.2v-1.6c-1.9-0.2-2.7-0.9-2.7-2.8v-6.5c0-3.1 1.5-5.1 4.2-5.1 2.4 0 3.6 2 3.6 5.1v7.3c0 2.4 1.4 3.8 4 3.8z"/>
			</g>
		</g>
	</g>
	<g id="Layer">
		<g id="Layer">
			<g id="Layer">
				<path id="Layer" fill-rule="evenodd" class="s0" d="m336.1 80.3l1.1 1.1c-0.8 1.6-3.5 4.3-8.5 4.3-5.3 0-10.5-3.2-10.5-9.9 0-6.9 5.5-10.1 11-10.1 4.5 0 8.4 2.4 8.4 6.3 0 3.7-3 4-7.2 4.2l-4.7 0.2c-0.7 0.1-0.9 0.8-0.6 1.7 1.1 2.8 3.4 4.4 6.3 4.4 1.6 0 3.2-0.4 4.7-2.2zm-11.7-7c0.1 0.9 0.5 1.4 1.6 1.4l1.7 0.1c3.5 0 4.6-1.2 4.6-3.2 0-1.9-1.4-4-3.8-4-2.8 0-4 2.4-4.1 5.7z"/>
			</g>
		</g>
	</g>
	<g id="Layer">
		<g id="Layer">
			<g id="Layer">
				<path id="Layer" class="s0" d="m347.7 93.9c3.2 0 5-1.6 6.8-6.2l6.3-16.4c0.9-2.1 1.5-2.9 4.1-3.5v-1.7h-8.6v1.7c2.6 0.6 3.4 1.5 1.1 7.6l-1.7 4.4c-0.4 1.1-0.9 1.1-1.3 0l-3.4-8.5c-0.9-2.2-0.9-2.9 1.4-3.5v-1.7h-10.8v1.7c1.9 0.6 2.7 1.4 3.5 3.5l5.5 14.2c0.8 1.9 0.9 3.5 0.4 5-0.3 0.9-0.9 1.6-1.7 1.6-2.1 0-0.4-4.2-3.8-4.2-1.9 0-2.7 1.3-2.7 2.6 0 2.1 2.1 3.4 4.9 3.4z"/>
			</g>
		</g>
	</g>
</svg>