<svg xmlns="http://www.w3.org/2000/svg" xmlns:xlink="http://www.w3.org/1999/xlink" width="443" zoomAndPan="magnify" viewBox="0 0 332.25 208.499994" height="278" preserveAspectRatio="xMidYMid meet" version="1.0"><defs><clipPath id="fcf144e0bb"><path d="M 0.0234375 0 L 331.476562 0 L 331.476562 208 L 0.0234375 208 Z M 0.0234375 0 " clip-rule="nonzero"/></clipPath><clipPath id="e948b13a51"><path d="M 101 75 L 246.726562 75 L 246.726562 142 L 101 142 Z M 101 75 " clip-rule="nonzero"/></clipPath><clipPath id="2099bd3b1d"><path d="M 106 141 L 231 141 L 231 205.617188 L 106 205.617188 Z M 106 141 " clip-rule="nonzero"/></clipPath></defs><g clip-path="url(#fcf144e0bb)"><path fill="#ffffff" d="M 0.0234375 0 L 331.476562 0 L 331.476562 208 L 0.0234375 208 Z M 0.0234375 0 " fill-opacity="1" fill-rule="nonzero"/></g><path fill="#040606" d="M 238.875 68.515625 C 237.8125 66.285156 233.675781 65.933594 232.164062 63.953125 C 230.390625 61.632812 230.914062 60.554688 231.503906 58.269531 C 232.125 55.859375 231.609375 54.355469 231.488281 51.875 C 231.273438 47.542969 234.847656 42.027344 229.363281 40.703125 C 228.613281 40.523438 226.128906 40.71875 225.699219 40.050781 C 224.535156 38.257812 226.960938 38.472656 226.957031 36.992188 C 226.949219 34.246094 224.246094 35.253906 222.109375 35.109375 C 222.984375 34.328125 224.015625 33.449219 223.851562 32.179688 C 221.300781 31.089844 217.652344 33.777344 215.085938 32.082031 C 212.28125 30.226562 214.503906 25.730469 212.078125 23.640625 C 210.859375 22.585938 206.484375 21.351562 204.992188 22.632812 C 204.257812 23.261719 204.894531 25.242188 204.25 26.074219 C 203.546875 26.988281 202.589844 26.785156 201.75 27.28125 C 199.714844 28.492188 197.855469 30.226562 195.367188 30.980469 C 192.308594 31.902344 191.917969 32.15625 189.683594 34.34375 C 187.566406 36.414062 186.5625 36.019531 184.203125 35.101562 C 183.8125 34.949219 183.839844 33.757812 183.234375 33.625 C 182.644531 33.496094 182.402344 34.394531 182.085938 34.335938 C 181.257812 34.183594 180.816406 35.199219 179.660156 34.183594 C 177.148438 31.980469 180.667969 30.089844 182.078125 28.867188 C 184.859375 26.46875 183.617188 26.566406 182.882812 23.375 C 179.898438 23.703125 180.378906 26.234375 176.859375 24.839844 C 175.382812 24.253906 174.824219 23.429688 173.210938 23.996094 C 171.625 24.550781 171.609375 26.460938 169.910156 26.613281 C 170.363281 25.25 171.203125 23.648438 170.417969 22.152344 C 169.097656 22.636719 165.65625 24.75 165.367188 22.160156 C 167.332031 22.160156 169.511719 20.710938 168.914062 18.515625 C 164.570312 18.382812 166.71875 18.003906 165.25 15.132812 C 164.003906 12.691406 162.070312 13.269531 160.167969 14.222656 C 157.449219 15.574219 157.628906 16.765625 155.015625 14.152344 C 152.921875 12.054688 152.804688 10.417969 149.589844 11.84375 C 149.609375 15.1875 150.597656 15.066406 152.570312 16.921875 C 155.296875 19.480469 155.214844 21.296875 151.28125 21.816406 C 149.75 22.019531 143.660156 21.25 145.972656 24.777344 C 147.085938 26.484375 150.449219 24.804688 152.007812 26.058594 C 150.113281 26.601562 149.492188 27.878906 149.882812 29.964844 C 150.867188 30.195312 151.875 30.542969 152.820312 30.972656 C 152.8125 31.234375 152.539062 31.960938 152.570312 32.121094 C 152.808594 33.371094 150.933594 33.796875 152.175781 35.261719 C 152.546875 35.699219 154.96875 35.679688 155.609375 35.792969 C 158.457031 36.320312 160.820312 37.917969 162.898438 40.265625 C 165.191406 42.859375 163.417969 44.929688 159.535156 44.289062 C 156.671875 43.8125 155.613281 39.859375 153.261719 38.214844 C 152.148438 37.441406 146.925781 36.191406 145.507812 37.511719 C 143.675781 39.210938 146.417969 43.210938 146.5 45.207031 C 146.566406 46.796875 145.8125 52.800781 142.84375 50.984375 C 140.597656 49.609375 144.109375 45.535156 141.945312 43.636719 C 141.539062 43.9375 141.253906 44.722656 141.042969 44.882812 C 140.371094 45.402344 137.027344 51 135.636719 46.414062 C 134.847656 43.832031 139.496094 42.207031 135.558594 39.960938 C 133.253906 38.648438 134.058594 40.058594 131.933594 41.246094 C 129.417969 42.648438 130.777344 41.707031 128.289062 41.320312 C 126.121094 40.984375 123.507812 41.761719 122.515625 44.652344 C 121.203125 48.464844 125.132812 48.464844 125.558594 51.261719 C 125.695312 52.191406 124.800781 53.863281 124.632812 54.910156 C 124.445312 56.046875 124.695312 57.003906 124.34375 58.234375 C 123.96875 59.554688 123.238281 60.269531 123.128906 61.59375 C 123.023438 62.894531 123.941406 63.65625 123.746094 64.929688 C 122.953125 70.042969 119.890625 66.421875 117.414062 66.191406 C 116.476562 68.230469 116.332031 70.082031 118.265625 71.382812 C 119.535156 72.234375 122.089844 71.234375 122.839844 72.507812 C 122.863281 72.546875 122.511719 73.917969 122.144531 75.246094 L 237.03125 75.246094 C 236.738281 72.527344 240.042969 70.972656 238.875 68.515625 " fill-opacity="1" fill-rule="nonzero"/><g clip-path="url(#e948b13a51)"><path fill="#ed1c24" d="M 121.390625 77.699219 C 120.539062 79.191406 117.617188 79.589844 117.105469 81.019531 C 116.386719 83.015625 119.664062 83.757812 117.605469 85.515625 C 116.886719 86.132812 113.222656 85.765625 112.1875 86.121094 C 109.894531 86.90625 110.894531 87.289062 108.242188 87.105469 C 106.667969 87 105.074219 86.496094 103.453125 87.152344 C 102.726562 89.894531 111.785156 99.230469 104.917969 100.761719 L 104.707031 101.617188 C 104.917969 103.277344 103.691406 103.824219 103.097656 105.015625 C 102.335938 106.546875 103.441406 107.824219 101.023438 108.40625 C 100.839844 111.203125 103.632812 109.6875 104.570312 111.375 C 105.382812 112.847656 104.003906 114.792969 104.84375 116.636719 C 106.21875 119.65625 108.84375 121.007812 108.5625 124.753906 C 108.203125 129.496094 100.894531 128.460938 102.46875 132.648438 C 102.746094 133.386719 104.167969 134.976562 104.613281 135.691406 C 105.003906 136.320312 104.882812 137.160156 105.441406 137.816406 C 106.410156 138.957031 108.144531 139.550781 109.417969 139.066406 C 109.582031 140.183594 109.054688 140.894531 108.375 141.542969 L 208.472656 141.542969 L 208.441406 141.457031 C 207.796875 140.003906 205.394531 139.988281 204.207031 138.71875 C 205.96875 136.667969 207.183594 135.410156 205.09375 132.878906 C 204.699219 132.398438 203.792969 131.753906 202.921875 131.019531 L 202.890625 131.105469 C 202.726562 130.96875 202.597656 130.8125 202.488281 130.640625 C 201.097656 129.378906 200.082031 127.910156 201.992188 126.597656 C 202.027344 127.917969 201.824219 129.585938 202.488281 130.640625 C 202.632812 130.769531 202.777344 130.894531 202.921875 131.019531 C 203.785156 128.933594 202.777344 128.132812 204.777344 126.878906 C 205.570312 126.378906 206.753906 126.742188 207.503906 126.277344 C 208.15625 125.878906 208.53125 125.070312 209.027344 124.769531 C 210.019531 124.164062 209.765625 123.933594 211.148438 123.539062 C 211.996094 123.296875 213.03125 123.753906 213.882812 123.539062 C 216.402344 122.898438 215.550781 121.730469 217.441406 120.410156 C 218.773438 119.488281 220.527344 119.675781 222.078125 118.445312 C 223.539062 117.285156 224.804688 115.90625 226.324219 114.792969 C 227.980469 113.578125 229.914062 112.757812 231.789062 111.984375 C 232.726562 111.597656 233.765625 112.109375 234.542969 111.09375 C 235.101562 110.363281 234.394531 109.296875 234.828125 108.65625 C 235.824219 107.191406 235.285156 107.105469 237.5625 107.136719 C 238.277344 107.140625 240.007812 107.570312 240.597656 108.113281 C 242.773438 110.113281 241.75 114.523438 244.300781 110.179688 C 245.519531 108.101562 246.742188 105.375 246.359375 102.886719 C 245.867188 99.71875 242.414062 99.667969 241.789062 97.132812 C 241.207031 94.75 244.128906 92.832031 243.324219 89.832031 C 242.691406 87.484375 241.542969 85.054688 240.589844 82.855469 C 239.648438 80.671875 237.894531 78.203125 237.171875 75.929688 C 237.097656 75.691406 237.054688 75.464844 237.03125 75.246094 L 122.144531 75.246094 C 121.828125 76.394531 121.5 77.511719 121.390625 77.699219 " fill-opacity="1" fill-rule="nonzero"/></g><path fill="#ed1c24" d="M 104.613281 101.976562 L 104.707031 101.617188 C 104.6875 101.464844 104.660156 101.304688 104.613281 101.136719 C 104.613281 101.414062 104.613281 101.699219 104.613281 101.976562 " fill-opacity="1" fill-rule="nonzero"/><path fill="#ed1c24" d="M 202.890625 131.105469 L 202.921875 131.019531 C 202.777344 130.894531 202.632812 130.769531 202.488281 130.640625 C 202.597656 130.8125 202.726562 130.96875 202.890625 131.105469 " fill-opacity="1" fill-rule="nonzero"/><g clip-path="url(#2099bd3b1d)"><path fill="#fbc819" d="M 106.195312 146.28125 C 109.433594 144.96875 110.203125 147.082031 110.304688 149.339844 C 110.421875 151.921875 110.535156 154.320312 113.070312 155.679688 C 112.308594 154.035156 113.167969 152.242188 115.246094 152.378906 C 116.777344 152.484375 117.84375 154.839844 119.125 155.378906 C 119.164062 155.207031 119.203125 155.039062 119.234375 154.867188 C 122.320312 154.375 121.585938 155.800781 123.667969 156.957031 C 124.945312 157.667969 126.527344 157.605469 127.988281 158.15625 C 129.421875 158.699219 130.410156 159.664062 131.929688 159.984375 C 133.675781 160.351562 134.742188 159.179688 136.226562 160.878906 C 134.816406 162.394531 133.714844 164.859375 132.828125 166.601562 C 131.925781 168.371094 131.585938 171.023438 130.339844 172.738281 C 129.75 173.546875 128.402344 173.925781 127.996094 174.546875 C 127.355469 175.527344 127.527344 176.222656 127.3125 177.589844 C 127.027344 179.363281 126.917969 183.144531 124.691406 183.40625 C 124.425781 188.847656 120.832031 197.058594 128.835938 196.105469 C 129.019531 196.082031 130.210938 195.480469 130.480469 195.421875 C 130.828125 195.351562 131.945312 195.890625 132.539062 195.816406 C 133.738281 195.667969 134.675781 194.488281 135.863281 194.277344 C 138.886719 193.734375 140.191406 196.585938 143.417969 195.453125 C 143.453125 195.066406 143.453125 194.734375 143.417969 194.34375 C 141.757812 193.746094 135.421875 192.964844 139.816406 190.03125 C 143.664062 187.460938 143.988281 192.328125 145.667969 193.640625 C 147.230469 191.984375 151.933594 194.488281 153.851562 195.136719 C 156.628906 196.078125 157.832031 199.382812 161.015625 198.792969 C 161.527344 197.789062 162.113281 196.828125 162.898438 196.078125 C 164.589844 197.246094 166.042969 199.109375 167.4375 200.375 C 169.105469 201.886719 169.121094 203.238281 170.253906 205.480469 C 174.75 203.511719 171.351562 199.476562 172.65625 196.167969 C 174.976562 196.441406 179.082031 195.742188 181.117188 197.566406 C 183.578125 199.773438 182.238281 202.023438 186.566406 200.667969 C 189.308594 199.8125 190.976562 199.410156 193.253906 197.574219 C 196.480469 194.960938 198.605469 197.488281 201.6875 196.0625 C 201.390625 193.390625 202.625 192.027344 205.382812 192.472656 C 208.378906 192.953125 207.992188 194.414062 210.484375 192.507812 C 210.628906 194.898438 211.738281 194.089844 212.972656 194.898438 C 213.40625 195.183594 214.300781 194.851562 214.800781 195.253906 C 215.40625 195.753906 215.082031 197.074219 215.394531 197.328125 C 216.988281 198.628906 221.25 198.171875 220.574219 194.597656 C 219.882812 190.914062 215.089844 195.5625 214.78125 191.25 C 214.6875 189.941406 216.816406 189.3125 216.316406 187.308594 C 215.921875 185.730469 214.519531 185.023438 213.023438 184.828125 C 212.660156 183.296875 213.382812 181.664062 214.777344 180.917969 C 216.902344 179.773438 216.824219 181.300781 218.367188 179.34375 C 218.78125 178.820312 218.402344 177.730469 218.953125 177.203125 C 219.597656 176.582031 220.746094 177.074219 221.171875 176.6875 C 222.832031 175.171875 222.234375 174.664062 222.6875 172.429688 C 223.789062 166.941406 226.082031 173.332031 229.066406 170.3125 C 230.554688 168.804688 230.578125 162.273438 227.59375 162.355469 C 227.054688 160.519531 224.808594 160.332031 223.285156 159.597656 C 222.699219 159.316406 221.609375 158.84375 221.160156 158.382812 C 220.820312 158.035156 220.335938 156.6875 220.265625 156.632812 C 219.203125 155.789062 217.632812 155.976562 216.328125 155.117188 C 214.554688 153.957031 215.3125 153.171875 214.488281 151.480469 C 213.175781 148.792969 207.796875 149.371094 207.125 145.789062 C 206.886719 144.523438 209.144531 143.542969 208.519531 141.675781 L 108.230469 141.675781 C 107.042969 142.761719 105.503906 143.738281 106.195312 146.28125 " fill-opacity="1" fill-rule="nonzero"/></g><path fill="#fbc819" d="M 108.230469 141.675781 L 208.519531 141.675781 L 208.472656 141.542969 L 108.375 141.542969 L 108.230469 141.675781 " fill-opacity="1" fill-rule="nonzero"/></svg>