<svg xmlns="http://www.w3.org/2000/svg" xmlns:xlink="http://www.w3.org/1999/xlink" width="443" zoomAndPan="magnify" viewBox="0 0 332.25 208.499994" height="278" preserveAspectRatio="xMidYMid meet" version="1.0"><defs><clipPath id="cd97f69158"><path d="M 0.0234375 0 L 331.476562 0 L 331.476562 208 L 0.0234375 208 Z M 0.0234375 0 " clip-rule="nonzero"/></clipPath><clipPath id="f1addf5445"><path d="M 44 11.5 L 287.152344 11.5 L 287.152344 198.550781 L 44 198.550781 Z M 44 11.5 " clip-rule="nonzero"/></clipPath></defs><g clip-path="url(#cd97f69158)"><path fill="#ffffff" d="M 0.0234375 0 L 331.476562 0 L 331.476562 208 L 0.0234375 208 Z M 0.0234375 0 " fill-opacity="1" fill-rule="nonzero"/></g><path fill="#fdb913" d="M 52.402344 73.308594 L 52.496094 71.496094 C 52.496094 71.464844 52.496094 71.433594 52.496094 71.433594 L 52.902344 70.058594 L 52.808594 68.871094 L 52.464844 66.964844 C 52.464844 66.902344 52.464844 66.871094 52.464844 66.808594 L 52.808594 65.808594 C 52.839844 65.683594 52.996094 65.621094 53.121094 65.589844 C 53.246094 65.589844 53.371094 65.683594 53.433594 65.808594 L 54.183594 68.308594 L 55.121094 72.339844 L 55.40625 73.402344 L 277.644531 73.402344 L 277.707031 73.246094 L 278.394531 71.152344 L 277.519531 66.246094 L 273.765625 66.089844 C 273.734375 66.089844 273.671875 66.089844 273.640625 66.058594 C 273.453125 65.964844 268.761719 63.652344 268.167969 63.246094 C 267.636719 62.871094 265.132812 61.308594 265.101562 61.308594 L 263.476562 60.371094 C 263.414062 60.339844 263.382812 60.277344 263.351562 60.214844 L 261.847656 56.871094 L 261.035156 55.277344 L 247.554688 43.933594 L 244.863281 41.339844 L 243.613281 40.464844 C 243.582031 40.433594 243.550781 40.402344 243.519531 40.371094 L 241.957031 37.964844 L 240.234375 35.589844 L 238.921875 33.496094 L 238.484375 33.089844 L 217.183594 31.152344 L 216.460938 30.964844 C 216.429688 30.964844 216.367188 30.933594 216.335938 30.902344 L 214.117188 29.058594 L 213.460938 28.558594 C 213.398438 28.527344 213.367188 28.464844 213.367188 28.402344 L 208.078125 14.777344 L 206.453125 12.621094 L 205.921875 12.246094 L 205.234375 12.558594 L 202.761719 14.402344 L 199.445312 16.433594 L 197.851562 18.558594 L 194.597656 22.371094 L 193.066406 23.902344 C 193.035156 23.933594 193.003906 23.964844 192.972656 23.964844 L 191.6875 24.589844 L 190.1875 25.371094 L 189.1875 25.714844 C 189.09375 25.746094 189 25.746094 188.90625 25.683594 L 188.46875 25.402344 L 186.121094 23.777344 L 183.933594 22.589844 L 176.488281 26.152344 C 176.394531 26.183594 176.300781 26.183594 176.207031 26.152344 L 160.441406 19.339844 L 159.222656 18.871094 L 150.996094 20.871094 C 150.933594 20.871094 150.871094 20.871094 150.808594 20.839844 L 142.863281 17.433594 L 137.230469 18.777344 L 136.449219 20.214844 L 134.574219 22.777344 C 134.480469 22.902344 134.292969 22.933594 134.167969 22.871094 L 131.882812 21.714844 C 131.820312 21.683594 131.789062 21.652344 131.757812 21.589844 L 128.503906 16.277344 L 127.160156 14.246094 L 120.277344 17.808594 C 120.214844 17.839844 120.152344 17.839844 120.089844 17.839844 L 105.453125 15.339844 L 95.472656 13.558594 L 72.140625 22.964844 L 64.476562 25.964844 L 63.535156 26.464844 L 60.003906 32.183594 L 57.4375 37.183594 C 57.375 37.277344 57.28125 37.371094 57.15625 37.371094 L 51.214844 37.433594 L 51.558594 39.527344 C 51.558594 39.558594 51.558594 39.558594 51.558594 39.589844 L 51.402344 42.339844 L 51.527344 43.339844 L 51.652344 44.746094 C 51.652344 44.777344 51.652344 44.839844 51.652344 44.871094 L 50.804688 47.714844 L 50.367188 48.808594 L 50.429688 50.589844 L 50.492188 51.183594 L 50.429688 53.621094 L 50.335938 54.558594 L 50.617188 55.152344 C 50.648438 55.183594 50.648438 55.246094 50.648438 55.277344 L 50.710938 58.027344 C 50.710938 58.058594 50.710938 58.089844 50.710938 58.089844 C 50.710938 58.089844 50.554688 58.746094 50.804688 59.527344 C 51.085938 60.371094 51.496094 61.246094 51.527344 61.277344 C 51.558594 61.339844 51.558594 61.402344 51.558594 61.433594 L 51.464844 62.714844 L 51.871094 63.402344 C 51.902344 63.464844 51.902344 63.496094 51.902344 63.558594 L 51.621094 73.433594 L 52.464844 73.433594 Z M 52.402344 73.308594 " fill-opacity="1" fill-rule="nonzero"/><path fill="#006a44" d="M 285.277344 92.460938 L 273.734375 91.460938 L 272.890625 91.335938 C 272.796875 91.335938 272.734375 91.273438 272.671875 91.210938 L 271.953125 90.210938 C 271.890625 90.117188 271.890625 90.023438 271.921875 89.929688 L 277.675781 73.433594 L 55.40625 73.433594 L 55.6875 74.464844 L 55.875 75.339844 C 55.875 75.402344 55.875 75.433594 55.875 75.496094 C 55.6875 76.121094 55.5 76.871094 55.5 77.152344 C 55.84375 77.277344 56.5625 77.621094 56.5625 78.058594 C 56.5625 78.152344 56.5625 78.339844 56.59375 78.558594 C 56.625 78.871094 56.65625 79.277344 56.65625 79.558594 C 56.65625 79.902344 56.875 80.714844 56.96875 81.089844 L 57.25 81.464844 C 57.28125 81.496094 57.28125 81.527344 57.3125 81.558594 C 57.34375 81.683594 58.28125 84.304688 57.03125 86.585938 C 55.875 88.742188 54.933594 89.992188 54.902344 90.054688 L 54.558594 90.648438 L 54.652344 90.679688 L 55.71875 89.867188 C 55.75 89.867188 55.75 89.835938 55.78125 89.835938 C 55.875 89.804688 56 89.679688 56.03125 89.617188 C 56.125 89.304688 56.5625 88.867188 56.6875 88.742188 C 56.75 88.679688 56.84375 88.648438 56.9375 88.648438 C 57.03125 88.648438 57.125 88.710938 57.1875 88.804688 L 57.59375 89.460938 C 57.625 89.523438 57.65625 89.585938 57.65625 89.617188 L 57.65625 90.367188 L 57.75 90.898438 C 57.78125 91.023438 57.71875 91.148438 57.59375 91.210938 L 57.5 91.273438 L 58.25 92.085938 C 58.28125 92.117188 58.3125 92.179688 58.34375 92.242188 L 58.75 94.429688 C 58.75 94.492188 58.75 94.554688 58.71875 94.617188 L 58.375 95.335938 C 58.34375 95.398438 58.3125 95.429688 58.25 95.460938 L 57.84375 95.710938 L 57.625 96.679688 L 57.6875 97.054688 L 59.125 96.398438 L 60.253906 95.335938 C 60.285156 95.304688 60.316406 95.304688 60.316406 95.273438 L 61.660156 94.617188 C 61.722656 94.585938 61.816406 94.585938 61.878906 94.585938 L 62.535156 94.742188 C 62.628906 94.773438 62.722656 94.835938 62.753906 94.960938 L 63.160156 96.210938 L 64.507812 97.398438 C 64.539062 97.429688 64.570312 97.492188 64.601562 97.554688 L 64.851562 98.398438 C 64.882812 98.710938 64.976562 99.242188 65.070312 99.429688 C 65.195312 99.679688 65.632812 100.273438 65.789062 100.460938 L 66.414062 100.992188 L 67.414062 101.617188 L 68.355469 101.242188 C 68.449219 101.210938 68.511719 101.210938 68.605469 101.242188 L 70.824219 102.242188 L 72.953125 102.554688 C 73.046875 102.554688 73.109375 102.617188 73.171875 102.679688 C 73.640625 103.273438 74.421875 104.210938 74.671875 104.367188 C 75.109375 104.617188 75.921875 105.179688 75.953125 105.210938 C 75.988281 105.242188 76.050781 105.273438 76.050781 105.335938 C 76.269531 105.773438 76.550781 106.210938 76.644531 106.273438 C 76.863281 106.335938 78.550781 107.023438 78.738281 107.117188 C 78.738281 107.117188 79.488281 107.367188 80.179688 107.710938 C 80.804688 108.023438 81.398438 108.773438 81.585938 108.992188 L 82.929688 109.617188 L 83.992188 110.179688 L 85.402344 110.398438 L 86.308594 110.242188 L 86.933594 109.929688 C 87.089844 109.867188 87.808594 109.585938 88.277344 109.835938 C 88.4375 109.929688 88.59375 110.085938 88.65625 110.429688 C 88.71875 111.117188 88.5625 111.992188 88.5 112.242188 L 88.5625 112.773438 C 88.5625 112.804688 88.78125 113.992188 89.84375 114.273438 C 90.84375 114.554688 92.125 113.898438 92.40625 113.742188 L 93.222656 112.773438 C 93.253906 112.742188 93.285156 112.710938 93.347656 112.679688 L 94.441406 112.179688 L 95.753906 111.835938 C 95.785156 111.835938 95.816406 111.835938 95.847656 111.835938 L 96.503906 111.835938 L 97.851562 111.679688 L 98.476562 111.367188 C 98.539062 111.335938 98.632812 111.335938 98.695312 111.335938 L 101.292969 111.929688 L 101.917969 112.023438 C 101.949219 112.023438 102.011719 112.054688 102.042969 112.054688 L 102.730469 112.460938 L 103.324219 112.179688 C 103.386719 112.148438 103.480469 112.148438 103.542969 112.179688 L 104.699219 112.523438 C 104.730469 112.523438 104.761719 112.554688 104.792969 112.585938 L 105.453125 113.085938 C 105.453125 113.085938 105.984375 113.367188 106.453125 113.148438 C 107.109375 112.835938 108.921875 111.742188 108.953125 111.742188 C 108.984375 111.742188 108.984375 111.710938 109.015625 111.710938 L 110.863281 111.117188 C 110.925781 111.085938 110.988281 111.085938 111.050781 111.117188 L 112.738281 111.617188 C 112.863281 111.648438 112.925781 111.742188 112.957031 111.867188 L 114.742188 119.492188 L 117.683594 119.648438 C 117.777344 119.648438 117.839844 119.679688 117.902344 119.773438 L 123.1875 125.960938 C 123.25 126.023438 123.28125 126.117188 123.25 126.179688 L 123 131.960938 C 123 132.054688 122.96875 132.117188 122.90625 132.179688 L 118.558594 136.585938 L 244.082031 136.585938 L 243.832031 134.210938 L 243.269531 131.679688 C 243.238281 131.554688 243.300781 131.429688 243.394531 131.335938 L 245.867188 129.710938 L 245.332031 125.429688 C 245.332031 125.335938 245.363281 125.242188 245.425781 125.179688 L 247.648438 122.679688 L 249.996094 119.898438 C 250.027344 119.867188 250.027344 119.867188 250.058594 119.835938 L 251.121094 119.117188 C 251.152344 119.085938 251.183594 119.085938 251.246094 119.054688 C 253.308594 118.648438 258.722656 117.617188 258.941406 117.554688 L 260.785156 117.085938 L 265.539062 104.617188 C 265.601562 104.492188 265.695312 104.398438 265.851562 104.398438 L 279.960938 105.054688 L 281.835938 97.929688 C 281.867188 97.835938 281.898438 97.773438 281.992188 97.742188 L 286.371094 95.242188 Z M 285.277344 92.460938 " fill-opacity="1" fill-rule="nonzero"/><path fill="#006a44" d="M 51.746094 77.339844 L 52.652344 75.058594 L 52.433594 73.402344 L 51.589844 73.402344 L 51.496094 75.652344 L 51.339844 76.746094 L 50.617188 79.902344 C 50.585938 80.089844 49.648438 84.867188 48.898438 86.085938 C 48.242188 87.117188 45.300781 92.554688 44.707031 93.648438 L 44.863281 93.867188 L 46.144531 94.304688 L 46.363281 94.179688 C 46.425781 93.710938 46.582031 92.773438 46.832031 92.429688 C 47.085938 92.117188 47.804688 91.617188 48.085938 91.398438 L 48.273438 90.867188 L 48.367188 89.585938 C 48.367188 89.554688 48.367188 89.523438 48.398438 89.492188 L 48.742188 88.648438 C 48.773438 88.554688 48.867188 88.492188 48.960938 88.460938 L 49.179688 88.398438 L 49.398438 88.117188 L 49.710938 87.242188 C 49.742188 87.179688 49.773438 87.148438 49.804688 87.117188 L 50.304688 86.710938 L 50.367188 86.085938 C 50.367188 86.054688 50.398438 85.992188 50.398438 85.960938 L 50.835938 85.179688 L 50.648438 84.617188 C 50.460938 84.398438 49.960938 83.648438 50.460938 82.558594 C 50.867188 81.683594 51.527344 80.964844 51.839844 80.652344 L 51.558594 79.402344 C 51.558594 79.371094 51.558594 79.339844 51.558594 79.308594 L 51.714844 77.464844 C 51.714844 77.402344 51.746094 77.371094 51.746094 77.339844 Z M 51.746094 77.339844 " fill-opacity="1" fill-rule="nonzero"/><path fill="#c1272d" d="M 118.308594 136.867188 L 116.148438 155.398438 L 119.746094 162.832031 L 120.152344 162.644531 L 120.464844 162.019531 L 120.527344 161.082031 C 120.527344 160.960938 120.621094 160.835938 120.746094 160.804688 L 121.8125 160.460938 L 122.875 160.179688 C 122.90625 160.179688 122.9375 160.179688 122.96875 160.179688 L 123.53125 160.179688 C 123.59375 160.179688 123.65625 160.179688 123.6875 160.210938 C 124.25 160.523438 125.816406 161.394531 126.191406 161.519531 C 126.628906 161.675781 127.378906 161.675781 127.378906 161.675781 L 128.316406 161.613281 C 128.441406 161.613281 128.566406 161.675781 128.628906 161.769531 L 129.785156 163.894531 L 131.351562 164.050781 C 131.445312 164.050781 131.539062 164.113281 131.570312 164.175781 C 131.632812 164.238281 131.632812 164.332031 131.632812 164.425781 L 131.414062 165.425781 C 131.414062 165.457031 131.414062 165.488281 131.382812 165.488281 L 130.882812 166.425781 L 131.632812 167.300781 L 132.601562 167.644531 L 133.414062 167.644531 L 133.882812 167.363281 C 133.914062 167.363281 133.945312 167.332031 133.945312 167.332031 L 134.730469 167.113281 C 134.886719 167.082031 135.042969 167.144531 135.105469 167.269531 L 135.480469 167.988281 L 135.886719 168.457031 L 136.167969 168.550781 L 136.792969 168.644531 C 136.824219 168.644531 136.855469 168.644531 136.855469 168.675781 L 137.230469 168.832031 C 137.292969 168.863281 137.355469 168.894531 137.386719 168.957031 L 138.671875 171.050781 L 139.265625 171.269531 L 140.296875 171.363281 L 141.359375 171.519531 C 141.390625 171.519531 141.421875 171.519531 141.421875 171.550781 L 142.109375 171.863281 L 142.800781 171.769531 C 142.925781 171.738281 143.019531 171.800781 143.113281 171.894531 L 144.457031 173.582031 L 145.457031 174.613281 C 145.488281 174.644531 145.519531 174.707031 145.550781 174.769531 L 145.769531 175.613281 L 146.269531 176.550781 L 148.304688 177.550781 C 148.367188 177.582031 148.429688 177.644531 148.460938 177.738281 C 148.523438 177.957031 150.210938 183.113281 150.304688 183.800781 C 150.429688 184.457031 150.746094 186.769531 150.746094 186.769531 L 150.746094 188.207031 C 150.746094 188.269531 150.714844 188.332031 150.683594 188.394531 L 149.835938 189.519531 L 149.023438 190.332031 C 149.117188 190.769531 149.242188 191.238281 149.335938 191.300781 C 149.679688 191.582031 149.898438 192.207031 149.929688 192.332031 C 149.960938 192.425781 150.179688 192.832031 150.179688 193.113281 C 150.179688 193.269531 150.117188 193.550781 150.054688 193.769531 L 153.308594 194.582031 L 162.941406 194.457031 L 174.953125 194.175781 L 177.082031 192.738281 L 177.457031 192.332031 C 177.519531 192.238281 177.644531 192.207031 177.769531 192.238281 L 180.835938 192.957031 C 180.929688 192.988281 180.992188 193.019531 181.054688 193.113281 L 182.679688 195.957031 L 183.023438 196.769531 C 183.023438 196.800781 183.023438 196.800781 183.054688 196.832031 L 183.117188 197.144531 L 185.496094 197.300781 L 187.433594 197.738281 L 188.40625 197.238281 L 195.972656 191.113281 L 197.164062 190.207031 C 197.226562 190.175781 197.289062 190.144531 197.382812 190.144531 L 198.539062 190.207031 L 200.195312 190.425781 L 204.042969 190.800781 L 205.890625 190.894531 C 206.296875 189.019531 206.515625 188.457031 206.640625 188.269531 C 206.640625 187.925781 206.265625 186.519531 205.890625 185.332031 L 204.984375 181.457031 C 204.953125 181.363281 204.984375 181.269531 205.046875 181.207031 C 205.109375 181.144531 205.171875 181.082031 205.265625 181.082031 L 207.890625 180.863281 L 210.925781 180.300781 L 213.242188 179.957031 L 214.929688 179.457031 L 216.460938 179.175781 C 216.648438 179.050781 217.058594 178.863281 217.308594 178.832031 C 217.527344 178.738281 218.433594 178.082031 219.183594 177.488281 L 220.089844 176.175781 L 220.839844 175.300781 L 221.9375 171.363281 L 222.34375 170.082031 C 222.375 169.957031 222.5 169.863281 222.65625 169.863281 L 230.320312 169.863281 L 232.445312 167.144531 C 232.507812 167.082031 232.601562 167.019531 232.695312 167.019531 L 235.167969 166.894531 C 235.292969 166.894531 235.386719 166.957031 235.449219 167.050781 L 238.140625 171.738281 C 238.203125 171.863281 238.203125 171.988281 238.109375 172.113281 L 235.761719 174.957031 L 235.511719 176.050781 L 235.917969 176.832031 L 236.824219 178.238281 L 240.078125 178.519531 L 242.113281 178.457031 L 246.960938 176.582031 L 247.242188 172.332031 L 247.492188 170.769531 L 242.988281 164.894531 L 238.640625 166.644531 C 238.484375 166.707031 238.328125 166.644531 238.234375 166.519531 L 236.386719 163.457031 C 236.324219 163.363281 236.324219 163.269531 236.355469 163.175781 L 239.859375 152.523438 L 240.421875 151.210938 C 240.421875 151.179688 240.453125 151.148438 240.484375 151.117188 L 241.707031 149.710938 C 241.738281 149.679688 241.738281 149.679688 241.769531 149.648438 L 243.613281 148.460938 L 244.988281 146.273438 L 244.894531 143.648438 L 244.457031 140.554688 L 244.394531 138.835938 L 244.144531 136.429688 L 118.558594 136.429688 Z M 118.308594 136.867188 " fill-opacity="1" fill-rule="nonzero"/><g clip-path="url(#f1addf5445)"><path fill="#000000" d="M 287.089844 95.335938 L 285.808594 92.054688 C 285.777344 91.929688 285.652344 91.867188 285.527344 91.835938 L 273.796875 90.835938 L 273.109375 90.742188 L 272.578125 89.992188 L 278.332031 73.464844 L 278.332031 73.433594 L 278.832031 71.933594 L 279.054688 71.308594 C 279.085938 71.246094 279.085938 71.183594 279.054688 71.152344 L 278.113281 65.902344 C 278.082031 65.746094 277.957031 65.652344 277.800781 65.652344 L 273.859375 65.496094 C 272.484375 64.808594 268.980469 63.058594 268.542969 62.746094 C 267.980469 62.339844 265.570312 60.839844 265.445312 60.777344 L 263.914062 59.871094 L 262.445312 56.589844 L 261.597656 54.902344 C 261.566406 54.871094 261.535156 54.839844 261.503906 54.808594 L 247.992188 43.433594 L 245.269531 40.839844 L 244.050781 39.996094 L 242.519531 37.621094 L 240.796875 35.246094 L 239.453125 33.121094 C 239.421875 33.089844 239.421875 33.058594 239.390625 33.058594 L 238.828125 32.558594 C 238.765625 32.527344 238.703125 32.496094 238.640625 32.464844 L 217.308594 30.527344 L 216.710938 30.371094 L 214.523438 28.558594 L 213.929688 28.121094 L 208.675781 14.527344 C 208.675781 14.496094 208.644531 14.464844 208.644531 14.464844 L 206.953125 12.214844 C 206.921875 12.183594 206.921875 12.152344 206.890625 12.152344 L 206.171875 11.652344 C 206.078125 11.589844 205.953125 11.589844 205.859375 11.621094 L 204.953125 12.027344 C 204.921875 12.027344 204.921875 12.058594 204.890625 12.058594 L 202.386719 13.871094 L 199.039062 15.933594 C 199.007812 15.964844 198.976562 15.996094 198.945312 16.027344 L 197.351562 18.183594 L 194.128906 21.964844 L 192.660156 23.433594 L 191.40625 24.027344 L 189.9375 24.777344 L 189.125 25.058594 L 186.433594 23.246094 L 184.089844 21.964844 C 183.996094 21.902344 183.902344 21.902344 183.808594 21.964844 L 176.332031 25.527344 L 160.691406 18.777344 L 159.347656 18.277344 C 159.285156 18.246094 159.222656 18.246094 159.160156 18.277344 L 150.964844 20.214844 L 143.019531 16.808594 C 142.957031 16.777344 142.894531 16.777344 142.832031 16.777344 L 136.949219 18.183594 C 136.855469 18.214844 136.792969 18.277344 136.730469 18.339844 L 135.917969 19.871094 L 134.230469 22.152344 L 132.257812 21.152344 L 129.066406 15.933594 L 127.566406 13.652344 C 127.472656 13.527344 127.285156 13.464844 127.160156 13.558594 L 120.089844 17.183594 L 105.578125 14.683594 L 95.535156 12.902344 C 95.472656 12.902344 95.410156 12.902344 95.347656 12.933594 L 71.890625 22.433594 L 64.195312 25.464844 L 63.160156 25.964844 C 63.097656 25.996094 63.066406 26.027344 63.035156 26.089844 L 59.441406 31.871094 L 56.96875 36.714844 L 50.835938 36.777344 C 50.742188 36.777344 50.648438 36.808594 50.585938 36.902344 C 50.523438 36.964844 50.492188 37.058594 50.523438 37.152344 L 50.898438 39.558594 L 50.742188 42.308594 L 50.960938 44.683594 L 50.148438 47.433594 L 49.710938 48.558594 C 49.679688 48.589844 49.679688 48.652344 49.679688 48.683594 L 49.742188 50.558594 L 49.804688 51.121094 L 49.742188 53.496094 L 49.617188 54.496094 C 49.617188 54.558594 49.617188 54.621094 49.648438 54.683594 L 49.960938 55.277344 L 50.023438 57.089844 L 50.023438 57.902344 C 49.992188 58.089844 49.898438 58.808594 50.148438 59.652344 C 50.398438 60.402344 50.742188 61.152344 50.867188 61.402344 L 50.773438 62.714844 C 50.773438 62.777344 50.773438 62.839844 50.804688 62.902344 L 51.214844 63.621094 L 50.960938 73.433594 L 50.929688 74.464844 L 50.867188 75.589844 L 50.710938 76.621094 L 49.992188 79.746094 C 49.742188 81.089844 48.929688 84.804688 48.367188 85.710938 C 47.648438 86.867188 44.207031 93.210938 44.050781 93.492188 C 43.988281 93.617188 43.988281 93.742188 44.082031 93.835938 L 44.457031 94.273438 C 44.488281 94.335938 44.550781 94.367188 44.613281 94.367188 L 46.113281 94.867188 C 46.207031 94.898438 46.269531 94.898438 46.363281 94.835938 L 46.863281 94.585938 C 46.957031 94.523438 47.023438 94.429688 47.054688 94.335938 C 47.117188 93.679688 47.304688 92.898438 47.398438 92.742188 C 47.554688 92.523438 48.210938 92.054688 48.585938 91.804688 C 48.648438 91.773438 48.679688 91.710938 48.710938 91.648438 L 48.960938 90.992188 C 48.960938 90.960938 48.992188 90.929688 48.992188 90.898438 L 49.085938 89.617188 L 49.335938 88.992188 L 49.523438 88.960938 C 49.585938 88.929688 49.648438 88.898438 49.710938 88.835938 L 50.054688 88.429688 C 50.085938 88.398438 50.085938 88.367188 50.117188 88.335938 L 50.429688 87.492188 L 50.960938 87.054688 C 51.023438 86.992188 51.054688 86.929688 51.085938 86.835938 L 51.152344 86.148438 L 51.371094 85.773438 L 51.621094 85.273438 C 51.652344 85.210938 51.652344 85.117188 51.652344 85.023438 L 51.402344 84.273438 C 51.402344 84.242188 51.371094 84.179688 51.339844 84.148438 C 51.308594 84.117188 50.835938 83.621094 51.246094 82.746094 C 51.714844 81.746094 52.589844 80.933594 52.589844 80.933594 C 52.683594 80.839844 52.714844 80.746094 52.683594 80.621094 L 52.371094 79.246094 L 52.464844 78.214844 L 52.558594 77.496094 L 53.464844 75.183594 C 53.496094 75.121094 53.496094 75.089844 53.496094 75.027344 L 53.277344 73.371094 L 53.246094 73.246094 L 53.339844 71.527344 L 53.746094 70.152344 C 53.746094 70.121094 53.746094 70.089844 53.746094 70.027344 L 53.652344 68.746094 L 53.371094 67.089844 L 53.777344 68.464844 L 54.714844 72.496094 L 54.964844 73.402344 L 55.28125 74.558594 L 55.246094 75.339844 C 54.589844 77.496094 54.902344 77.589844 55.152344 77.683594 C 55.40625 77.777344 55.84375 77.996094 55.9375 78.089844 C 55.9375 78.214844 55.96875 78.371094 55.96875 78.589844 C 56 78.902344 56.03125 79.277344 56.03125 79.558594 C 56.03125 80.089844 56.34375 81.183594 56.375 81.308594 C 56.375 81.339844 56.40625 81.402344 56.4375 81.433594 L 56.75 81.808594 C 56.875 82.152344 57.5 84.398438 56.5 86.273438 C 55.34375 88.398438 54.433594 89.648438 54.402344 89.710938 L 53.808594 90.710938 C 53.746094 90.804688 53.746094 90.898438 53.777344 90.992188 C 53.808594 91.085938 53.902344 91.148438 53.996094 91.179688 L 54.652344 91.335938 C 54.746094 91.367188 54.839844 91.335938 54.933594 91.273438 L 56.09375 90.367188 C 56.21875 90.304688 56.53125 90.117188 56.625 89.773438 C 56.65625 89.710938 56.75 89.585938 56.84375 89.460938 L 57 89.679688 L 57 90.398438 L 57.0625 90.773438 L 56.8125 90.929688 C 56.71875 90.992188 56.6875 91.054688 56.65625 91.148438 C 56.65625 91.242188 56.6875 91.335938 56.75 91.398438 L 57.6875 92.429688 L 58.0625 94.398438 L 57.8125 94.960938 L 57.375 95.242188 C 57.3125 95.273438 57.25 95.367188 57.25 95.429688 L 57 96.617188 C 57 96.648438 57 96.710938 57 96.742188 L 57.15625 97.585938 C 57.1875 97.679688 57.25 97.773438 57.3125 97.804688 C 57.40625 97.835938 57.5 97.835938 57.59375 97.804688 L 59.441406 96.960938 C 59.472656 96.960938 59.503906 96.929688 59.535156 96.898438 L 60.660156 95.835938 L 61.847656 95.242188 L 62.222656 95.335938 L 62.597656 96.492188 C 62.628906 96.554688 62.660156 96.585938 62.691406 96.648438 L 64.039062 97.835938 L 64.257812 98.523438 C 64.257812 98.617188 64.351562 99.335938 64.539062 99.710938 C 64.726562 100.054688 65.257812 100.773438 65.382812 100.898438 L 66.101562 101.523438 L 67.289062 102.273438 C 67.382812 102.335938 67.476562 102.335938 67.570312 102.304688 L 68.542969 101.929688 L 70.667969 102.867188 C 70.699219 102.867188 70.730469 102.898438 70.761719 102.898438 L 72.828125 103.210938 C 73.140625 103.617188 74.015625 104.710938 74.421875 104.960938 C 74.765625 105.148438 75.390625 105.585938 75.578125 105.742188 C 75.921875 106.429688 76.238281 106.835938 76.488281 106.929688 C 76.675781 106.992188 78.050781 107.554688 78.582031 107.773438 C 78.582031 107.773438 79.332031 108.023438 79.957031 108.335938 C 80.554688 108.617188 81.179688 109.492188 81.179688 109.492188 C 81.210938 109.523438 81.242188 109.585938 81.304688 109.585938 L 82.710938 110.242188 L 83.804688 110.835938 C 83.835938 110.867188 83.867188 110.867188 83.898438 110.867188 L 85.402344 111.117188 C 85.433594 111.117188 85.464844 111.117188 85.496094 111.117188 L 86.496094 110.960938 C 86.527344 110.960938 86.558594 110.960938 86.589844 110.929688 L 87.246094 110.617188 C 87.496094 110.492188 87.871094 110.429688 88.027344 110.523438 C 88.027344 110.523438 88.058594 110.554688 88.058594 110.617188 C 88.121094 111.304688 87.902344 112.242188 87.902344 112.273438 C 87.902344 112.304688 87.902344 112.367188 87.902344 112.398438 L 87.996094 112.992188 C 87.996094 113.054688 88.308594 114.617188 89.75 114.992188 C 91.125 115.367188 92.785156 114.429688 92.847656 114.367188 C 92.878906 114.335938 92.910156 114.335938 92.941406 114.304688 L 93.722656 113.367188 L 94.691406 112.929688 L 95.910156 112.617188 L 96.566406 112.617188 L 98.007812 112.460938 C 98.039062 112.460938 98.070312 112.460938 98.101562 112.429688 L 98.664062 112.148438 L 101.167969 112.710938 L 101.761719 112.773438 L 102.542969 113.242188 C 102.636719 113.304688 102.730469 113.304688 102.824219 113.273438 L 103.480469 112.992188 L 104.480469 113.273438 L 105.140625 113.742188 C 105.171875 113.773438 105.984375 114.242188 106.796875 113.835938 C 107.421875 113.523438 109.046875 112.585938 109.300781 112.429688 L 111.019531 111.898438 L 112.425781 112.304688 L 114.242188 119.992188 C 114.273438 120.117188 114.398438 120.242188 114.523438 120.242188 L 117.558594 120.398438 L 122.65625 126.398438 L 122.40625 131.929688 L 117.714844 136.523438 C 117.683594 136.554688 117.652344 136.585938 117.652344 136.617188 C 117.652344 136.648438 117.621094 136.679688 117.621094 136.710938 L 115.429688 155.460938 C 115.429688 155.523438 115.429688 155.585938 115.460938 155.648438 L 119.246094 163.425781 C 119.308594 163.582031 119.496094 163.644531 119.652344 163.582031 L 120.464844 163.238281 C 120.527344 163.207031 120.589844 163.144531 120.621094 163.082031 L 121.027344 162.300781 C 121.058594 162.269531 121.058594 162.207031 121.058594 162.175781 L 121.089844 161.394531 L 121.9375 161.144531 L 122.96875 160.863281 L 123.40625 160.863281 C 123.8125 161.082031 125.46875 162.019531 125.972656 162.175781 C 126.503906 162.363281 127.316406 162.363281 127.378906 162.363281 L 128.128906 162.332031 L 129.253906 164.425781 C 129.316406 164.519531 129.410156 164.582031 129.503906 164.582031 L 130.882812 164.707031 L 130.757812 165.332031 L 130.445312 165.925781 L 130.164062 166.363281 C 130.101562 166.488281 130.101562 166.644531 130.195312 166.738281 L 131.132812 167.863281 C 131.164062 167.894531 131.226562 167.925781 131.257812 167.957031 L 132.382812 168.332031 C 132.414062 168.332031 132.445312 168.363281 132.476562 168.363281 L 133.414062 168.363281 C 133.476562 168.363281 133.539062 168.332031 133.570312 168.332031 L 134.105469 168.019531 L 134.605469 167.863281 L 134.917969 168.425781 L 135.417969 169.050781 C 135.449219 169.113281 135.511719 169.144531 135.574219 169.144531 L 136.011719 169.269531 L 136.636719 169.363281 L 136.886719 169.488281 L 138.171875 171.582031 C 138.203125 171.644531 138.265625 171.675781 138.328125 171.707031 L 139.046875 171.988281 C 139.078125 171.988281 139.109375 172.019531 139.140625 172.019531 L 140.171875 172.144531 L 141.203125 172.300781 L 141.953125 172.613281 C 142.015625 172.644531 142.078125 172.644531 142.140625 172.644531 L 142.738281 172.550781 L 143.988281 174.113281 L 144.925781 175.113281 L 145.113281 175.925781 C 145.113281 175.957031 145.144531 175.988281 145.144531 175.988281 L 145.707031 177.050781 C 145.738281 177.113281 145.800781 177.144531 145.832031 177.175781 L 147.835938 178.175781 C 148.335938 179.738281 149.523438 183.519531 149.617188 184.019531 C 149.742188 184.675781 150.054688 186.925781 150.054688 186.925781 L 150.054688 188.207031 L 149.304688 189.207031 L 148.398438 190.113281 C 148.335938 190.175781 148.304688 190.300781 148.304688 190.394531 C 148.367188 190.769531 148.523438 191.675781 148.867188 191.925781 C 148.992188 192.050781 149.179688 192.425781 149.273438 192.707031 C 149.367188 192.894531 149.460938 193.144531 149.460938 193.238281 C 149.460938 193.332031 149.367188 193.738281 149.242188 194.019531 C 149.210938 194.113281 149.210938 194.207031 149.273438 194.269531 C 149.304688 194.363281 149.398438 194.394531 149.492188 194.425781 L 153.121094 195.332031 C 153.152344 195.332031 153.183594 195.332031 153.214844 195.332031 L 162.878906 195.207031 L 173.390625 194.988281 L 175.015625 194.925781 C 175.078125 194.925781 175.140625 194.894531 175.171875 194.863281 L 177.394531 193.363281 C 177.425781 193.332031 177.425781 193.332031 177.457031 193.300781 L 177.707031 192.988281 L 180.460938 193.644531 L 181.992188 196.332031 L 182.304688 197.082031 L 182.398438 197.613281 C 182.429688 197.769531 182.554688 197.863281 182.679688 197.863281 L 185.246094 198.019531 L 187.246094 198.457031 C 187.277344 198.457031 187.277344 198.457031 187.308594 198.457031 C 187.371094 198.457031 187.402344 198.457031 187.464844 198.425781 L 188.59375 197.863281 C 188.625 197.863281 188.625 197.832031 188.65625 197.832031 L 196.257812 191.707031 L 197.351562 190.894531 L 198.382812 190.957031 L 200.007812 191.175781 L 203.886719 191.582031 L 206.015625 191.707031 C 206.171875 191.707031 206.328125 191.613281 206.359375 191.457031 C 206.609375 190.332031 206.921875 189.019531 207.015625 188.863281 C 207.203125 188.738281 207.421875 188.550781 206.421875 185.363281 L 205.609375 181.863281 L 207.890625 181.675781 L 210.957031 181.113281 L 213.304688 180.769531 L 214.992188 180.269531 L 216.554688 179.988281 C 216.585938 179.988281 216.617188 179.957031 216.648438 179.957031 C 216.902344 179.800781 217.183594 179.675781 217.277344 179.675781 C 217.371094 179.675781 217.621094 179.675781 219.527344 178.144531 C 219.558594 178.113281 219.558594 178.113281 219.589844 178.082031 L 220.527344 176.769531 L 221.3125 175.863281 C 221.34375 175.832031 221.375 175.769531 221.375 175.738281 L 222.5 171.738281 L 222.8125 170.675781 L 230.382812 170.675781 C 230.476562 170.675781 230.570312 170.644531 230.632812 170.550781 L 232.789062 167.832031 L 234.917969 167.738281 L 237.386719 172.050781 L 235.136719 174.769531 C 235.105469 174.800781 235.074219 174.863281 235.074219 174.894531 L 234.792969 176.175781 C 234.761719 176.238281 234.792969 176.332031 234.824219 176.394531 L 235.292969 177.332031 L 236.292969 178.894531 C 236.355469 178.988281 236.449219 179.019531 236.542969 179.050781 L 239.984375 179.332031 L 242.113281 179.269531 C 242.144531 179.269531 242.175781 179.269531 242.207031 179.238281 L 247.304688 177.269531 C 247.429688 177.238281 247.492188 177.113281 247.523438 176.988281 L 247.804688 172.550781 L 248.085938 170.863281 C 248.085938 170.769531 248.085938 170.675781 248.023438 170.613281 L 243.269531 164.425781 C 243.175781 164.300781 243.019531 164.269531 242.894531 164.332031 L 238.578125 166.082031 L 236.949219 163.363281 L 240.421875 152.867188 L 240.953125 151.617188 L 242.113281 150.304688 L 243.988281 149.085938 C 244.019531 149.054688 244.050781 149.023438 244.082031 148.992188 L 245.519531 146.648438 C 245.550781 146.585938 245.582031 146.523438 245.582031 146.460938 L 245.457031 143.679688 L 245.019531 140.585938 L 244.957031 138.898438 L 244.707031 136.554688 L 244.457031 134.054688 L 243.957031 131.710938 L 246.398438 130.117188 C 246.492188 130.054688 246.554688 129.929688 246.554688 129.804688 L 246.023438 125.492188 L 248.179688 123.085938 L 250.496094 120.335938 L 251.464844 119.679688 C 252.496094 119.492188 258.910156 118.242188 259.128906 118.179688 L 261.128906 117.679688 C 261.222656 117.648438 261.316406 117.585938 261.347656 117.492188 L 266.070312 105.085938 L 280.210938 105.742188 C 280.335938 105.742188 280.492188 105.648438 280.523438 105.492188 L 282.429688 98.242188 L 286.933594 95.679688 C 287.089844 95.648438 287.152344 95.492188 287.089844 95.335938 Z M 281.992188 97.804688 C 281.929688 97.835938 281.867188 97.929688 281.835938 97.992188 L 279.960938 105.117188 L 265.851562 104.460938 C 265.695312 104.460938 265.570312 104.523438 265.539062 104.679688 L 260.785156 117.148438 L 258.941406 117.617188 C 258.722656 117.679688 253.308594 118.710938 251.246094 119.117188 C 251.214844 119.117188 251.152344 119.148438 251.121094 119.179688 L 250.058594 119.898438 C 250.027344 119.929688 250.027344 119.929688 249.996094 119.960938 L 247.648438 122.742188 L 245.425781 125.242188 C 245.363281 125.304688 245.332031 125.398438 245.332031 125.492188 L 245.867188 129.773438 L 243.394531 131.398438 C 243.269531 131.460938 243.238281 131.617188 243.269531 131.742188 L 243.832031 134.273438 L 244.082031 136.648438 L 244.332031 139.054688 L 244.394531 140.773438 L 244.832031 143.867188 L 244.925781 146.492188 L 243.550781 148.679688 L 241.707031 149.867188 C 241.671875 149.898438 241.640625 149.898438 241.640625 149.929688 L 240.421875 151.335938 C 240.390625 151.367188 240.390625 151.398438 240.359375 151.429688 L 239.796875 152.742188 L 236.292969 163.394531 C 236.261719 163.488281 236.261719 163.582031 236.324219 163.675781 L 238.171875 166.738281 C 238.265625 166.863281 238.421875 166.925781 238.578125 166.863281 L 242.925781 165.113281 L 247.429688 170.988281 L 247.179688 172.550781 L 246.898438 176.800781 L 242.050781 178.675781 L 240.015625 178.738281 L 236.761719 178.457031 L 235.855469 177.050781 L 235.449219 176.269531 L 235.699219 175.175781 L 238.046875 172.332031 C 238.140625 172.238281 238.140625 172.082031 238.078125 171.957031 L 235.386719 167.269531 C 235.324219 167.175781 235.230469 167.113281 235.105469 167.113281 L 232.632812 167.238281 C 232.539062 167.238281 232.445312 167.300781 232.382812 167.363281 L 230.257812 170.082031 L 222.59375 170.082031 C 222.4375 170.082031 222.3125 170.175781 222.28125 170.300781 L 221.875 171.582031 L 220.777344 175.519531 L 220.027344 176.394531 L 219.121094 177.707031 C 218.371094 178.300781 217.464844 178.957031 217.246094 179.050781 C 216.996094 179.082031 216.585938 179.269531 216.398438 179.394531 L 214.867188 179.675781 L 213.179688 180.175781 L 210.863281 180.519531 L 207.828125 181.082031 L 205.203125 181.300781 C 205.109375 181.300781 205.015625 181.363281 204.984375 181.425781 C 204.921875 181.488281 204.921875 181.582031 204.921875 181.675781 L 205.828125 185.550781 C 206.203125 186.738281 206.578125 188.144531 206.578125 188.488281 C 206.453125 188.675781 206.234375 189.238281 205.828125 191.113281 L 203.980469 191.019531 L 200.132812 190.644531 L 198.476562 190.425781 L 197.320312 190.363281 C 197.257812 190.363281 197.164062 190.394531 197.101562 190.425781 L 195.910156 191.332031 L 188.34375 197.457031 L 187.371094 197.957031 L 185.433594 197.519531 L 183.054688 197.363281 L 182.992188 197.050781 C 182.992188 197.019531 182.992188 197.019531 182.960938 196.988281 L 182.617188 196.175781 L 180.992188 193.332031 C 180.960938 193.269531 180.867188 193.207031 180.773438 193.175781 L 177.707031 192.457031 C 177.582031 192.425781 177.457031 192.457031 177.394531 192.550781 L 177.019531 192.957031 L 174.890625 194.394531 L 162.878906 194.675781 L 153.246094 194.800781 L 149.992188 193.988281 C 150.054688 193.769531 150.117188 193.488281 150.117188 193.332031 C 150.117188 193.050781 149.929688 192.644531 149.867188 192.550781 C 149.835938 192.425781 149.585938 191.769531 149.273438 191.519531 C 149.179688 191.425781 149.054688 190.988281 148.960938 190.550781 L 149.773438 189.738281 L 150.617188 188.613281 C 150.652344 188.550781 150.683594 188.488281 150.683594 188.425781 L 150.683594 186.988281 C 150.683594 186.988281 150.335938 184.707031 150.242188 184.019531 C 150.117188 183.332031 148.460938 178.175781 148.398438 177.957031 C 148.367188 177.863281 148.304688 177.800781 148.242188 177.769531 L 146.207031 176.769531 L 145.707031 175.832031 L 145.488281 174.988281 C 145.488281 174.925781 145.457031 174.894531 145.394531 174.832031 L 144.394531 173.800781 L 143.050781 172.113281 C 142.988281 172.019531 142.863281 171.988281 142.738281 171.988281 L 142.046875 172.082031 L 141.359375 171.769531 C 141.328125 171.769531 141.296875 171.738281 141.296875 171.738281 L 140.234375 171.582031 L 139.203125 171.488281 L 138.609375 171.269531 L 137.324219 169.175781 C 137.292969 169.113281 137.230469 169.082031 137.167969 169.050781 L 136.886719 168.769531 C 136.855469 168.769531 136.824219 168.738281 136.824219 168.738281 L 136.199219 168.644531 L 135.917969 168.550781 L 135.511719 168.082031 L 135.136719 167.363281 C 135.074219 167.238281 134.917969 167.175781 134.761719 167.207031 L 133.980469 167.425781 C 133.945312 167.425781 133.914062 167.457031 133.914062 167.457031 L 133.445312 167.738281 L 132.632812 167.738281 L 131.664062 167.394531 L 130.914062 166.519531 L 131.414062 165.582031 C 131.414062 165.550781 131.445312 165.519531 131.445312 165.519531 L 131.664062 164.519531 C 131.695312 164.425781 131.664062 164.332031 131.601562 164.269531 C 131.539062 164.207031 131.476562 164.144531 131.382812 164.144531 L 129.816406 163.988281 L 128.660156 161.863281 C 128.597656 161.738281 128.472656 161.675781 128.347656 161.707031 L 127.410156 161.769531 C 127.410156 161.769531 126.660156 161.769531 126.222656 161.617188 C 125.847656 161.492188 124.28125 160.617188 123.71875 160.304688 C 123.65625 160.273438 123.625 160.273438 123.5625 160.273438 L 123 160.273438 C 122.96875 160.273438 122.9375 160.273438 122.90625 160.273438 L 121.84375 160.554688 L 120.777344 160.898438 C 120.652344 160.929688 120.558594 161.054688 120.558594 161.179688 L 120.496094 162.113281 L 120.183594 162.738281 L 119.777344 162.925781 L 116.179688 155.492188 L 118.339844 136.960938 L 118.621094 136.679688 L 123.03125 132.335938 C 123.09375 132.273438 123.125 132.210938 123.125 132.117188 L 123.375 126.335938 C 123.375 126.242188 123.34375 126.179688 123.3125 126.117188 L 118.027344 119.929688 C 117.964844 119.867188 117.902344 119.835938 117.808594 119.804688 L 114.867188 119.648438 L 113.082031 112.023438 C 113.050781 111.898438 112.957031 111.835938 112.863281 111.773438 L 111.175781 111.273438 C 111.113281 111.242188 111.050781 111.242188 110.988281 111.273438 L 109.144531 111.867188 C 109.109375 111.867188 109.109375 111.898438 109.078125 111.898438 C 109.046875 111.898438 107.234375 112.992188 106.578125 113.304688 C 106.109375 113.554688 105.578125 113.242188 105.578125 113.242188 L 104.917969 112.742188 C 104.886719 112.710938 104.855469 112.710938 104.824219 112.679688 L 103.667969 112.335938 C 103.605469 112.304688 103.511719 112.335938 103.449219 112.335938 L 102.855469 112.617188 L 102.167969 112.210938 C 102.136719 112.179688 102.074219 112.179688 102.042969 112.179688 L 101.417969 112.085938 L 98.820312 111.492188 C 98.757812 111.460938 98.664062 111.492188 98.601562 111.523438 L 97.976562 111.835938 L 96.628906 111.992188 L 95.972656 111.992188 C 95.941406 111.992188 95.910156 111.992188 95.878906 111.992188 L 94.566406 112.335938 L 93.472656 112.835938 C 93.441406 112.867188 93.378906 112.898438 93.347656 112.929688 L 92.53125 113.898438 C 92.28125 114.054688 90.96875 114.679688 89.96875 114.429688 C 88.9375 114.148438 88.71875 112.960938 88.6875 112.929688 L 88.625 112.398438 C 88.6875 112.148438 88.875 111.273438 88.78125 110.585938 C 88.75 110.242188 88.5625 110.085938 88.402344 109.992188 C 87.933594 109.710938 87.214844 109.992188 87.058594 110.085938 L 86.433594 110.398438 L 85.527344 110.554688 L 84.117188 110.335938 L 83.054688 109.773438 L 81.710938 109.148438 C 81.523438 108.929688 80.929688 108.179688 80.304688 107.867188 C 79.613281 107.523438 78.863281 107.273438 78.863281 107.273438 C 78.675781 107.210938 76.988281 106.523438 76.769531 106.429688 C 76.675781 106.367188 76.394531 105.929688 76.175781 105.492188 C 76.144531 105.429688 76.113281 105.398438 76.082031 105.367188 C 76.050781 105.335938 75.234375 104.773438 74.796875 104.523438 C 74.546875 104.367188 73.765625 103.460938 73.296875 102.835938 C 73.234375 102.773438 73.171875 102.742188 73.078125 102.710938 L 70.949219 102.398438 L 68.730469 101.398438 C 68.667969 101.367188 68.574219 101.367188 68.480469 101.398438 L 67.539062 101.773438 L 66.539062 101.148438 L 65.914062 100.617188 C 65.757812 100.429688 65.320312 99.835938 65.195312 99.585938 C 65.101562 99.367188 65.007812 98.867188 64.976562 98.554688 L 64.726562 97.710938 C 64.695312 97.648438 64.664062 97.617188 64.632812 97.554688 L 63.285156 96.367188 L 62.878906 95.117188 C 62.847656 95.023438 62.753906 94.929688 62.660156 94.898438 L 62.003906 94.742188 C 61.941406 94.710938 61.847656 94.742188 61.785156 94.773438 L 60.441406 95.429688 C 60.410156 95.429688 60.378906 95.460938 60.378906 95.492188 L 59.25 96.554688 L 57.8125 97.210938 L 57.75 96.835938 L 57.96875 95.867188 L 58.375 95.617188 C 58.4375 95.585938 58.46875 95.523438 58.5 95.492188 L 58.84375 94.742188 C 58.875 94.679688 58.875 94.617188 58.875 94.554688 L 58.46875 92.367188 C 58.46875 92.304688 58.4375 92.242188 58.375 92.210938 L 57.625 91.398438 L 57.71875 91.335938 C 57.84375 91.273438 57.875 91.148438 57.875 91.023438 L 57.78125 90.492188 L 57.78125 89.742188 C 57.78125 89.679688 57.75 89.617188 57.71875 89.585938 L 57.3125 88.929688 C 57.25 88.835938 57.1875 88.804688 57.0625 88.773438 C 56.96875 88.773438 56.875 88.804688 56.8125 88.867188 C 56.6875 88.992188 56.25 89.460938 56.15625 89.742188 C 56.125 89.835938 56 89.929688 55.90625 89.960938 C 55.875 89.960938 55.875 89.992188 55.84375 89.992188 L 54.777344 90.804688 L 54.683594 90.773438 L 55.027344 90.179688 C 55.058594 90.117188 55.96875 88.867188 57.15625 86.710938 C 58.375 84.429688 57.46875 81.808594 57.4375 81.683594 C 57.4375 81.652344 57.40625 81.621094 57.375 81.589844 L 57.09375 81.214844 C 57 80.871094 56.78125 80.027344 56.78125 79.683594 C 56.78125 79.371094 56.75 78.996094 56.71875 78.683594 C 56.6875 78.464844 56.6875 78.277344 56.6875 78.183594 C 56.6875 77.746094 55.96875 77.402344 55.625 77.277344 C 55.65625 76.964844 55.8125 76.214844 56 75.621094 C 56 75.558594 56.03125 75.527344 56 75.464844 L 55.8125 74.589844 L 55.53125 73.558594 L 55.246094 72.496094 L 54.308594 68.464844 L 53.558594 65.964844 C 53.527344 65.839844 53.402344 65.746094 53.246094 65.746094 C 53.121094 65.777344 52.996094 65.839844 52.933594 65.964844 L 52.589844 66.964844 C 52.558594 67.027344 52.558594 67.058594 52.589844 67.121094 L 52.933594 69.027344 L 53.027344 70.214844 L 52.621094 71.589844 C 52.621094 71.621094 52.621094 71.652344 52.621094 71.652344 L 52.527344 73.464844 L 52.527344 73.558594 L 52.746094 75.214844 L 51.839844 77.496094 C 51.839844 77.527344 51.808594 77.558594 51.808594 77.589844 L 51.652344 79.433594 C 51.652344 79.464844 51.652344 79.496094 51.652344 79.527344 L 51.933594 80.777344 C 51.652344 81.058594 50.992188 81.777344 50.554688 82.683594 C 50.054688 83.777344 50.554688 84.523438 50.742188 84.742188 L 50.929688 85.304688 L 50.492188 86.085938 C 50.460938 86.117188 50.460938 86.179688 50.460938 86.210938 L 50.398438 86.835938 L 49.898438 87.242188 C 49.867188 87.273438 49.835938 87.335938 49.804688 87.367188 L 49.492188 88.242188 L 49.273438 88.523438 L 49.054688 88.585938 C 48.960938 88.617188 48.867188 88.679688 48.835938 88.773438 L 48.492188 89.617188 C 48.492188 89.648438 48.460938 89.679688 48.460938 89.710938 L 48.367188 90.992188 L 48.179688 91.523438 C 47.898438 91.710938 47.179688 92.210938 46.925781 92.554688 C 46.675781 92.867188 46.519531 93.835938 46.457031 94.304688 L 46.238281 94.429688 L 44.957031 93.992188 L 44.800781 93.773438 C 45.394531 92.679688 48.335938 87.273438 48.992188 86.210938 C 49.742188 84.992188 50.679688 80.214844 50.710938 80.027344 L 51.433594 76.871094 L 51.496094 75.652344 L 51.558594 73.402344 L 51.839844 63.527344 C 51.839844 63.464844 51.839844 63.402344 51.808594 63.371094 L 51.402344 62.683594 L 51.496094 61.402344 C 51.496094 61.339844 51.496094 61.277344 51.464844 61.246094 C 51.464844 61.246094 51.023438 60.371094 50.742188 59.496094 C 50.492188 58.714844 50.648438 58.058594 50.648438 58.058594 C 50.648438 58.027344 50.648438 57.996094 50.648438 57.996094 L 50.585938 55.246094 C 50.585938 55.214844 50.585938 55.152344 50.554688 55.121094 L 50.273438 54.527344 L 50.367188 53.589844 L 50.429688 51.152344 L 50.367188 50.558594 L 50.304688 48.777344 L 50.742188 47.683594 L 51.589844 44.839844 C 51.589844 44.808594 51.589844 44.777344 51.589844 44.714844 L 51.464844 43.308594 L 51.339844 42.308594 L 51.496094 39.558594 C 51.496094 39.527344 51.496094 39.496094 51.496094 39.496094 L 51.152344 37.402344 L 57.09375 37.339844 C 57.21875 37.339844 57.3125 37.277344 57.375 37.152344 L 59.941406 32.152344 L 63.472656 26.464844 L 64.414062 25.964844 L 72.140625 22.964844 L 95.503906 13.527344 L 105.484375 15.308594 L 120.121094 17.808594 C 120.183594 17.808594 120.246094 17.808594 120.308594 17.777344 L 127.191406 14.214844 L 128.535156 16.246094 L 131.789062 21.558594 C 131.820312 21.621094 131.851562 21.652344 131.914062 21.683594 L 134.199219 22.839844 C 134.324219 22.902344 134.511719 22.871094 134.605469 22.746094 L 136.480469 20.183594 L 137.261719 18.746094 L 142.894531 17.402344 L 150.839844 20.808594 C 150.902344 20.839844 150.964844 20.839844 151.027344 20.839844 L 159.253906 18.839844 L 160.472656 19.308594 L 176.238281 26.121094 C 176.332031 26.152344 176.425781 26.152344 176.519531 26.121094 L 183.964844 22.558594 L 186.152344 23.746094 L 188.5 25.371094 L 188.9375 25.652344 C 189.03125 25.714844 189.125 25.714844 189.21875 25.683594 L 190.21875 25.339844 L 191.71875 24.558594 L 193.003906 23.933594 C 193.035156 23.902344 193.066406 23.902344 193.097656 23.871094 L 194.628906 22.339844 L 197.882812 18.527344 L 199.476562 16.402344 L 202.761719 14.402344 L 205.234375 12.589844 L 205.921875 12.277344 L 206.453125 12.652344 L 208.078125 14.808594 L 213.367188 28.433594 C 213.398438 28.496094 213.429688 28.527344 213.460938 28.589844 L 214.117188 29.089844 L 216.335938 30.933594 C 216.367188 30.964844 216.429688 30.996094 216.460938 30.996094 L 217.183594 31.183594 L 238.484375 33.121094 L 238.921875 33.527344 L 240.234375 35.621094 L 241.957031 37.996094 L 243.519531 40.402344 C 243.550781 40.433594 243.582031 40.464844 243.613281 40.496094 L 244.863281 41.371094 L 247.554688 43.964844 L 261.035156 55.308594 L 261.847656 56.902344 L 263.351562 60.246094 C 263.382812 60.308594 263.414062 60.371094 263.476562 60.402344 L 265.101562 61.339844 C 265.132812 61.371094 267.605469 62.902344 268.167969 63.277344 C 268.730469 63.683594 273.421875 65.996094 273.640625 66.089844 C 273.671875 66.121094 273.734375 66.121094 273.765625 66.121094 L 277.519531 66.277344 L 278.394531 71.183594 L 277.707031 73.277344 L 277.644531 73.433594 L 271.890625 89.929688 C 271.859375 90.023438 271.859375 90.148438 271.921875 90.210938 L 272.640625 91.210938 C 272.703125 91.273438 272.765625 91.335938 272.859375 91.335938 L 273.703125 91.460938 L 285.246094 92.460938 L 286.339844 95.304688 Z M 281.992188 97.804688 " fill-opacity="1" fill-rule="nonzero"/></g></svg>