<svg xmlns="http://www.w3.org/2000/svg" xmlns:xlink="http://www.w3.org/1999/xlink" width="443" zoomAndPan="magnify" viewBox="0 0 332.25 208.499994" height="278" preserveAspectRatio="xMidYMid meet" version="1.0"><defs><clipPath id="918085a3d2"><path d="M 0.0234375 0 L 331.476562 0 L 331.476562 208 L 0.0234375 208 Z M 0.0234375 0 " clip-rule="nonzero"/></clipPath><clipPath id="781706a237"><path d="M 9.898438 94.738281 L 254.699219 94.738281 L 254.699219 194.101562 L 9.898438 194.101562 Z M 9.898438 94.738281 " clip-rule="nonzero"/></clipPath></defs><g clip-path="url(#918085a3d2)"><path fill="#ffffff" d="M 0.0234375 0 L 331.476562 0 L 331.476562 208 L 0.0234375 208 Z M 0.0234375 0 " fill-opacity="1" fill-rule="nonzero"/></g><path fill="#ec1b24" d="M 277.023438 48.15625 C 276.765625 49.027344 276.765625 50.417969 277.191406 51.292969 C 277.628906 51.988281 276.671875 55.476562 278.503906 55.476562 C 280.765625 55.5625 280.421875 55.996094 281.804688 54.082031 C 282.847656 52.683594 280.066406 50.417969 279.628906 49.285156 C 279.023438 47.632812 277.023438 48.242188 277.023438 48.15625 Z M 282.421875 49.636719 C 291.898438 39.699219 289.296875 52.597656 294.171875 43.535156 C 295.652344 40.832031 299.472656 48.328125 302.347656 44.40625 C 305.746094 39.789062 310.003906 45.015625 313.933594 46.671875 C 316.277344 47.71875 325.671875 54.34375 321.234375 57.390625 C 317.152344 60.003906 310.359375 63.316406 307.660156 67.5 C 306.183594 69.855469 302.433594 64.191406 297.996094 68.023438 C 293.558594 72.03125 296.691406 65.757812 291.816406 67.589844 C 288.253906 68.980469 290.160156 62.792969 288.421875 64.367188 C 287.035156 63.75 281.023438 58.613281 284.160156 57.824219 C 284.421875 56.953125 282.328125 56.347656 284.503906 54.863281 C 285.722656 53.992188 282.941406 51.292969 282.421875 49.636719 Z M 231.417969 51.378906 C 227.40625 53.382812 229.9375 46.671875 221.929688 46.671875 C 219.136719 46.671875 219.40625 46.234375 217.3125 47.542969 C 216.4375 48.070312 214.179688 45.714844 214.875 50.855469 C 214.96875 51.640625 216.4375 51.8125 217.667969 53.035156 C 220.1875 55.5625 221.3125 51.550781 224.011719 55.5625 C 226.105469 58.613281 228.023438 54.429688 230.28125 58.613281 C 232.023438 61.75 235.242188 62.011719 238.292969 63.578125 C 242.816406 65.84375 241.074219 60.617188 243.597656 60.703125 C 248.648438 60.964844 246.128906 60.089844 247.691406 59.21875 C 249.605469 58.085938 250.386719 62.011719 252.480469 59.484375 C 254.566406 57.042969 255.003906 60.179688 257.355469 59.21875 C 257.617188 59.132812 260.136719 53.558594 257.355469 53.558594 C 254.386719 53.558594 257.355469 51.292969 255.347656 50.246094 C 253.441406 49.113281 252.128906 52.164062 251.003906 50.855469 C 248.910156 48.503906 244.472656 50.246094 241.855469 50.335938 C 239.949219 50.503906 237.242188 51.03125 235.074219 50.945312 C 234.898438 50.945312 231.585938 51.292969 231.417969 51.378906 Z M 39.410156 56.691406 C 39.585938 55.476562 41.9375 53.816406 42.632812 48.503906 C 43.675781 40.398438 46.636719 46.0625 53.773438 39.875 C 54.210938 39.523438 62.824219 35.085938 65.085938 33.6875 C 68.570312 31.421875 84.757812 28.980469 84.757812 38.046875 C 84.757812 39.089844 83.800781 47.542969 83.105469 48.328125 C 77.886719 54.429688 81.625 51.902344 71.878906 54.429688 C 68.832031 55.214844 64.566406 53.558594 62.914062 55.996094 C 68.308594 56.691406 72.222656 54.167969 74.488281 62.445312 C 74.921875 64.191406 73.789062 70.113281 74.578125 67.066406 C 75.359375 64.015625 81.714844 66.28125 81.800781 66.457031 C 82.234375 66.542969 89.371094 75.515625 83.539062 66.890625 C 79.1875 60.265625 85.015625 59.917969 85.453125 58.175781 C 87.453125 50.335938 86.757812 52.597656 91.023438 46.847656 C 93.027344 44.230469 88.066406 32.121094 97.378906 36.824219 C 104.082031 40.226562 109.128906 38.570312 112.4375 31.6875 C 113.917969 28.546875 125.84375 19.746094 129.9375 17.917969 C 134.019531 16.171875 136.28125 11.988281 141.675781 16.347656 C 142.199219 16.699219 145.167969 16.785156 146.550781 17.042969 C 147.949219 18.875 156.386719 22.621094 159 23.402344 C 164.398438 24.972656 156.042969 26.457031 156.042969 29.332031 C 156.042969 33.777344 163.960938 27.238281 163.960938 31.421875 C 163.960938 34.039062 163.09375 35.78125 167.011719 34.734375 C 168.835938 34.296875 167.699219 43.625 165.09375 46.933594 C 159.4375 54.167969 163.53125 50.679688 153.960938 53.648438 C 153.605469 53.730469 148.207031 59.746094 157.179688 59.746094 C 161.523438 59.746094 160.21875 58.699219 164.917969 55.910156 C 169.09375 53.472656 171.710938 49.285156 174.667969 49.285156 C 184.335938 49.285156 174.667969 51.640625 185.804688 51.292969 C 187.378906 51.207031 190.855469 54.949219 187.554688 58.613281 C 187.554688 58.613281 183.105469 65.757812 183.105469 65.933594 C 183.105469 67.238281 180.667969 70.726562 187.636719 68.804688 C 193.472656 67.238281 187.378906 62.707031 197.730469 58 C 202.605469 55.734375 199.824219 49.546875 208.617188 51.117188 C 211.398438 51.550781 207.480469 67.671875 206.617188 68.804688 C 204.085938 72.46875 202.347656 73.335938 200.167969 78.566406 C 197.816406 84.40625 198.074219 87.191406 203.304688 79.960938 C 206.878906 74.90625 209.398438 73.335938 214.617188 70.289062 C 219.929688 67.238281 218.535156 76.042969 228.285156 75.429688 C 228.285156 75.429688 233.421875 78.828125 234.546875 76.738281 C 250.128906 79.609375 243.597656 68.804688 255.347656 68.804688 C 262.578125 68.804688 263.183594 67.414062 265.621094 74.558594 C 266.402344 76.738281 266.140625 84.929688 262.140625 85.890625 C 259.621094 86.410156 256.390625 90.941406 254.484375 94.773438 L 20.003906 94.773438 C 19.738281 93.640625 19.738281 91.902344 20.699219 91.550781 C 27.3125 89.460938 24.007812 92.769531 25.660156 86.496094 C 26.878906 81.53125 30.972656 85.1875 32.972656 83.097656 C 33.839844 82.316406 35.582031 80.746094 36.976562 81.359375 C 37.0625 81.445312 37.148438 86.234375 40.632812 81.359375 C 41.328125 80.484375 39.324219 77.957031 43.941406 77.957031 C 44.460938 77.261719 44.460938 75.953125 42.71875 75.777344 C 39.933594 75.515625 39.148438 76.042969 36.191406 76.042969 C 33.839844 76.042969 34.015625 76.210938 32.710938 74.46875 C 32.535156 74.296875 32.621094 73.511719 32.621094 73.335938 C 32.621094 73.335938 32.277344 70.636719 33.578125 70.636719 C 34.625 70.550781 33.753906 62.621094 36.105469 60.179688 C 36.976562 59.308594 37.933594 57.742188 38.976562 56.691406 L 39.410156 56.691406 " fill-opacity="1" fill-rule="evenodd"/><g clip-path="url(#781706a237)"><path fill="#dbddd9" d="M 163.789062 185.058594 C 163.4375 185.582031 163.53125 187.585938 164.3125 188.105469 C 164.738281 188.367188 165.53125 189.671875 166.914062 189.585938 C 168.394531 189.585938 168.226562 188.628906 168.226562 187.324219 C 168.226562 185.144531 167.09375 183.578125 164.832031 183.746094 C 164.65625 183.839844 163.957031 184.621094 163.695312 184.800781 Z M 159.4375 186.363281 C 158.914062 186.707031 156.039062 185.144531 156.039062 188.199219 C 155.957031 188.980469 158.65625 191.851562 159.4375 192.289062 C 160.394531 192.808594 162.476562 193.164062 163.53125 192.726562 C 163.957031 190.285156 160.300781 190.902344 160.300781 187.929688 C 160.300781 187.582031 160.039062 186.101562 159.4375 186.363281 Z M 154.039062 179.398438 C 153.425781 180.09375 152.726562 179.835938 152.5625 181.742188 C 152.382812 184.007812 153.082031 183.316406 155.257812 183.484375 C 156.476562 183.484375 156.300781 181.484375 156.300781 180.617188 C 156.300781 180 154.039062 179.398438 154.039062 179.398438 Z M 147.25 160.394531 C 147.164062 162.574219 152.820312 167.015625 152.5625 161.09375 C 152.46875 159.433594 148.46875 159.789062 147.25 159.789062 Z M 134.457031 163.878906 C 132.894531 163.53125 131.058594 160.488281 136.371094 160.488281 C 141.851562 160.488281 140.632812 161.875 144.289062 163.878906 C 147.332031 165.535156 150.644531 163.179688 153.425781 169.71875 C 155.082031 173.640625 149.6875 175.820312 148.90625 174.597656 C 148.207031 173.460938 143.6875 167.453125 142.289062 167.796875 C 140.371094 168.152344 140.726562 165.273438 134.457031 163.878906 Z M 98.769531 191.328125 C 98.769531 190.203125 98.683594 190.023438 100.160156 190.109375 C 100.511719 190.109375 103.644531 191.589844 103.644531 192.203125 C 103.554688 193.507812 102.597656 193.425781 101.292969 193.769531 C 100.335938 194.03125 96.59375 194.726562 97.640625 192.726562 C 97.722656 192.546875 98.769531 191.589844 98.769531 191.328125 Z M 101.03125 183.222656 C 100.25 182.796875 99.464844 182.441406 100.769531 181.484375 C 101.988281 180.523438 101.816406 180.785156 103.554688 180.785156 C 108.867188 180.785156 108.085938 183.222656 107.039062 183.222656 C 104.859375 183.402344 106.777344 185.925781 104.339844 184.527344 C 103.382812 183.839844 102.164062 183.746094 101.207031 183.222656 Z M 105.386719 179.125 C 105.035156 179.125 103.121094 179.398438 103.121094 179.125 C 103.207031 178.261719 103.121094 175.734375 102.6875 174.859375 C 102.078125 173.460938 104.253906 173.378906 106.082031 175.476562 C 107.824219 177.5625 107.996094 176.777344 109.390625 177.914062 C 110.082031 178.605469 111.476562 180.617188 111.5625 181.660156 C 111.5625 182.527344 112.257812 183.484375 110.691406 183.316406 C 108.867188 183.058594 110.171875 180.355469 106.34375 179.304688 C 105.992188 179.125 106.082031 179.042969 105.648438 179.042969 Z M 75.878906 146.71875 C 75.269531 147.410156 73.964844 149.410156 74.050781 150.464844 C 74.050781 150.890625 75.355469 152.46875 76.316406 151.683594 C 77.707031 150.546875 78.839844 148.804688 78.925781 146.980469 C 78.925781 146.449219 77.011719 145.40625 76.140625 146.625 C 76.140625 146.71875 75.964844 146.625 75.878906 146.71875 Z M 66.480469 153.59375 C 66.480469 154.03125 68.308594 157.871094 69.003906 158.214844 C 70.308594 158.914062 72.222656 157.085938 73.351562 158.390625 C 74.140625 159.257812 76.140625 158.734375 77.097656 157.871094 C 77.792969 157.253906 78.839844 156.554688 78.230469 155.429688 C 77.183594 153.511719 74.140625 155.25 73.351562 154.207031 C 72.832031 153.332031 70.746094 151.332031 69.613281 151.332031 C 68.046875 151.152344 66.566406 150.808594 66.652344 152.8125 C 66.742188 152.988281 66.480469 153.164062 66.566406 153.332031 Z M 57.425781 159.871094 C 58.382812 158.566406 60.300781 159.351562 61.78125 158.734375 C 61.867188 158.734375 63.171875 158.472656 63.171875 159.089844 C 63.171875 161.09375 63.34375 160.832031 60.820312 161.699219 C 60.300781 161.875 58.558594 162.136719 58.121094 161.699219 C 57.339844 161.09375 56.46875 161.007812 57.425781 159.871094 Z M 63.433594 139.824219 C 62.5625 141.828125 62.476562 142.265625 62.914062 144.445312 C 63.257812 145.925781 64.738281 147.929688 66.480469 147.847656 C 68.476562 147.847656 66.652344 147.0625 69.4375 146.367188 C 71.089844 145.84375 72.222656 145.582031 71.960938 143.488281 C 71.785156 142.445312 69.179688 141.921875 68.308594 141.128906 C 67.957031 140.703125 65 139.042969 64.128906 139.480469 C 64.042969 139.566406 63.433594 139.824219 63.433594 139.824219 Z M 57.601562 147.410156 C 57.777344 148.546875 55.339844 152.382812 54.378906 152.8125 C 51.855469 154.03125 53.683594 155.34375 56.210938 155.34375 C 59.515625 155.34375 59.429688 155.25 62.300781 154.46875 C 63.777344 154.125 66.128906 152.988281 64.566406 151.246094 C 62.648438 149.066406 61.953125 148.105469 60.476562 145.75 C 59.6875 144.625 58.296875 146.1875 57.863281 146.886719 C 57.777344 147.0625 57.601562 147.242188 57.601562 147.410156 Z M 48.722656 142.265625 C 48.636719 143.046875 48.460938 147.410156 48.984375 147.929688 C 50.375 149.148438 51.160156 144.539062 51.335938 144.363281 C 53.597656 142.789062 51.769531 144.625 53.597656 142.183594 C 54.292969 141.222656 56.378906 140.347656 53.511719 139.742188 C 51.855469 139.304688 50.289062 140.523438 49.160156 141.660156 C 49.070312 141.746094 48.722656 142.183594 48.722656 142.265625 Z M 254.480469 94.773438 C 253.605469 96.519531 253.003906 98.085938 252.824219 99.21875 C 251.261719 107.847656 239.074219 113.421875 234.023438 120.832031 C 229.9375 126.757812 218.96875 127.976562 212.4375 127.976562 C 208.179688 127.976562 197.90625 127.539062 195.988281 131.816406 C 192.074219 140.960938 187.292969 136.34375 178.0625 137.644531 C 172.3125 138.429688 175.800781 137.824219 172.050781 136.425781 C 172.050781 133.558594 177.449219 138 176.925781 127.632812 C 176.84375 125.539062 174.0625 126.757812 172.488281 130.761719 C 171.09375 134.257812 168.488281 132.160156 166.75 137.644531 C 164.832031 144.007812 161.957031 142.003906 161.4375 150.285156 C 161.351562 150.890625 165.09375 153.070312 162.300781 153.425781 C 159 153.949219 157.695312 154.90625 157.695312 158.390625 C 156.382812 158.390625 152.125 155.773438 152.125 154.824219 C 152.207031 152.382812 149.425781 158.914062 144.726562 158.914062 C 143.332031 158.914062 129.144531 158.652344 128.882812 158.046875 C 127.058594 154.824219 126.445312 151.851562 121.746094 152.121094 C 119.394531 152.289062 116.871094 155.25 116.269531 150.632812 C 116.089844 148.972656 110.171875 141.484375 107.734375 140.085938 C 105.296875 138.78125 98.945312 134.601562 98.59375 131.460938 C 98.25 128.59375 86.847656 120.21875 88.414062 127.195312 C 88.933594 129.28125 95.285156 129.199219 88.675781 131.722656 C 83.714844 133.558594 84.929688 127.71875 79.878906 127.894531 C 73.789062 127.976562 81.015625 122.660156 81.015625 116.214844 C 81.015625 111.421875 83.714844 106.625 75.53125 103.925781 C 74.398438 103.578125 71.441406 101.921875 74.75 105.320312 C 81.277344 112.203125 77.273438 106.976562 77.96875 115.082031 C 78.316406 118.476562 80.320312 117.867188 76.140625 120.050781 C 72.917969 121.699219 81.277344 132.679688 71.265625 126.414062 C 65.261719 122.753906 67.695312 131.023438 63.695312 131.023438 C 59.949219 131.023438 59.605469 126.496094 54.988281 129.898438 C 53.335938 131.117188 45.503906 130.324219 45.503906 131.722656 C 45.503906 132.421875 45.242188 133.820312 44.371094 132.765625 C 39.496094 130.679688 42.371094 134.078125 39.84375 135.726562 C 39.496094 135.988281 37.84375 135.382812 36.800781 136.082031 C 36.1875 136.519531 33.835938 137.824219 33.140625 136.957031 C 30.007812 133.285156 29.578125 134.777344 29.578125 128.9375 C 29.578125 126.757812 27.484375 127.371094 26.613281 124.671875 C 26.003906 122.753906 22.699219 125.882812 21.132812 122.492188 C 20.261719 120.574219 19.914062 121.617188 19.390625 119.613281 C 18.957031 117.867188 15.386719 118.304688 14.601562 115.863281 C 13.210938 111.332031 9.730469 114.382812 9.90625 110.199219 C 9.90625 108.371094 15.128906 108.71875 16.953125 109.675781 C 17.214844 109.851562 20.871094 111.160156 19.652344 109.417969 C 18.871094 108.371094 17.390625 107.582031 17.039062 106.449219 C 16.167969 105.929688 12.078125 104.101562 15.824219 103.664062 C 24.351562 102.792969 23.046875 106.105469 24.527344 106.191406 C 26.269531 106.28125 27.050781 105.058594 25.046875 103.578125 C 22.265625 101.660156 24.007812 101.835938 21.828125 99.304688 C 19.738281 96.867188 21.738281 97.476562 20.261719 95.734375 C 20.171875 95.644531 20.085938 95.300781 20.003906 94.773438 L 254.480469 94.773438 " fill-opacity="1" fill-rule="evenodd"/></g><path fill="#ffffff" d="M 135.238281 74.296875 L 136.277344 77.519531 L 139.589844 77.433594 L 136.894531 79.441406 L 137.933594 82.578125 L 135.238281 80.65625 L 132.539062 82.578125 L 133.582031 79.441406 L 130.882812 77.433594 L 134.195312 77.519531 Z M 122.445312 74.296875 L 123.488281 77.519531 L 126.800781 77.433594 L 124.101562 79.441406 L 125.144531 82.578125 L 122.445312 80.65625 L 119.832031 82.578125 L 120.789062 79.441406 L 118.089844 77.433594 L 121.488281 77.519531 Z M 138.457031 62.707031 L 139.496094 65.84375 L 142.8125 65.84375 L 140.113281 67.847656 L 141.152344 70.984375 L 138.457031 69.066406 L 135.757812 70.984375 L 136.800781 67.847656 L 134.101562 65.84375 L 137.496094 65.84375 Z M 118.789062 62.707031 L 119.832031 65.84375 L 123.144531 65.84375 L 120.445312 67.847656 L 121.488281 70.984375 L 118.789062 69.066406 L 116.089844 70.984375 L 117.132812 67.847656 L 114.433594 65.84375 L 117.832031 65.84375 Z M 128.363281 55.125 L 129.402344 58.347656 L 132.714844 58.347656 L 130.019531 60.265625 L 131.058594 63.488281 L 128.363281 61.484375 L 125.664062 63.488281 L 126.707031 60.265625 L 124.007812 58.347656 L 127.320312 58.347656 Z M 118.269531 51.207031 C 119.050781 51.207031 119.832031 51.207031 120.527344 51.292969 C 113.742188 54.949219 109.214844 62.097656 109.214844 70.375 C 109.214844 78.566406 113.742188 85.714844 120.527344 89.371094 C 119.832031 89.460938 119.050781 89.460938 118.269531 89.460938 C 107.734375 89.460938 99.121094 80.921875 99.121094 70.375 C 99.121094 59.746094 107.734375 51.207031 118.269531 51.207031 " fill-opacity="1" fill-rule="evenodd"/></svg>