<svg xmlns="http://www.w3.org/2000/svg" xmlns:xlink="http://www.w3.org/1999/xlink" width="443" zoomAndPan="magnify" viewBox="0 0 332.25 208.499994" height="278" preserveAspectRatio="xMidYMid meet" version="1.0"><defs><clipPath id="9a31de6e65"><path d="M 0.0234375 0 L 331.476562 0 L 331.476562 208 L 0.0234375 208 Z M 0.0234375 0 " clip-rule="nonzero"/></clipPath><clipPath id="65d100134c"><path d="M 27 5.417969 L 137 5.417969 L 137 96 L 27 96 Z M 27 5.417969 " clip-rule="nonzero"/></clipPath><clipPath id="1975037a9c"><path d="M 47 182 L 114 182 L 114 207.433594 L 47 207.433594 Z M 47 182 " clip-rule="nonzero"/></clipPath><clipPath id="1223dbe25d"><path d="M 266 31 L 303.644531 31 L 303.644531 46 L 266 46 Z M 266 31 " clip-rule="nonzero"/></clipPath></defs><g clip-path="url(#9a31de6e65)"><path fill="#ffffff" d="M 0.0234375 0 L 331.476562 0 L 331.476562 208 L 0.0234375 208 Z M 0.0234375 0 " fill-opacity="1" fill-rule="nonzero"/></g><path fill="#f8f3f0" d="M 40.597656 22 L 41.152344 18.734375 L 50.421875 12.824219 L 51.746094 10.328125 L 55.710938 8.582031 L 69.335938 12.007812 L 76.46875 12.449219 L 79.046875 12.972656 L 88.121094 16.320312 L 94.128906 16.140625 L 102.074219 17.578125 L 117.433594 30.542969 L 78.28125 35.488281 L 36.746094 45.660156 L 35.277344 41.253906 L 37.628906 34.933594 L 41.085938 29.757812 L 39.914062 26.671875 L 40.402344 22.753906 Z M 40.597656 22 " fill-opacity="1" fill-rule="nonzero"/><g clip-path="url(#65d100134c)"><path fill="#2c5077" d="M 32.765625 94.789062 C 32.144531 92.996094 30.789062 91.296875 32.09375 89.253906 C 32.46875 88.667969 32.09375 88.257812 31.734375 87.867188 C 30.839844 86.871094 30.414062 85.710938 30.542969 84.355469 C 30.691406 82.789062 29.761719 81.628906 28.976562 80.453125 C 28.261719 79.394531 27.902344 78.363281 28.195312 77.027344 C 28.441406 75.898438 28.519531 74.625 28.242188 73.53125 C 27.769531 71.671875 28.652344 70.757812 30.085938 70.023438 C 30.265625 69.941406 30.414062 69.792969 30.609375 69.664062 C 30.464844 69.546875 30.398438 69.464844 30.332031 69.449219 C 29.515625 69.238281 28.308594 70.101562 27.867188 69.042969 C 27.214844 67.425781 26.808594 65.628906 27.949219 63.996094 C 29.011719 62.445312 30.070312 60.925781 30.234375 58.984375 C 30.9375 58.019531 31.574219 58.773438 32.128906 59.113281 C 32.945312 59.621094 33.777344 60.175781 33.582031 61.367188 C 33.480469 61.988281 33.140625 62.558594 33.105469 63.359375 C 34.070312 63.035156 34.511719 61.742188 35.652344 61.988281 C 36.664062 62.21875 37.398438 62.953125 38.199219 63.605469 C 37.054688 60.648438 37.054688 60.648438 40.191406 58.347656 C 37.578125 58.671875 35.570312 58.363281 35.75 55.015625 C 35.34375 55.734375 35.277344 56.191406 35.128906 56.601562 C 34.542969 58.234375 32.960938 58.917969 31.3125 58.265625 C 30.820312 58.070312 30.722656 57.742188 30.707031 57.269531 C 30.691406 56.746094 30.855469 56.207031 30.5625 55.703125 C 29.859375 52.992188 30.480469 50.625 32.078125 48.339844 C 33.285156 46.609375 34.054688 44.582031 34.738281 42.558594 C 35.390625 40.617188 35.636719 40.566406 37.203125 41.808594 C 37.613281 42.132812 38.019531 42.460938 38.589844 42.933594 C 38.6875 41.890625 38.265625 41.171875 37.96875 40.4375 C 37.613281 39.519531 37.660156 38.867188 38.671875 38.378906 C 39.488281 37.96875 40.207031 37.332031 41.25 36.597656 C 39.992188 36.597656 39.113281 36.566406 38.230469 36.613281 C 37.300781 36.664062 37.1875 36.335938 37.464844 35.472656 C 38.132812 33.398438 39.144531 31.4375 39.554688 29.285156 C 39.683594 28.613281 39.832031 27.929688 39.847656 27.242188 C 39.863281 26.492188 40.125 26.132812 40.90625 26.246094 C 41.136719 26.394531 41.398438 26.460938 41.625 26.589844 C 44.351562 28.207031 44.351562 28.207031 43.488281 31.339844 C 44.402344 30.980469 44.9375 30.019531 45.886719 29.96875 C 46.898438 29.90625 47.46875 30.753906 48.578125 31.617188 C 47.191406 29.070312 47.941406 27.554688 50.226562 26.507812 C 48.285156 26.378906 46.046875 26.851562 46.164062 23.503906 C 45.214844 24.582031 45.363281 26.003906 44.15625 26.246094 C 43.109375 26.441406 42.050781 26.523438 40.988281 26.230469 C 41.398438 25.121094 42.703125 25.5625 43.371094 24.792969 C 43.0625 24.125 42.34375 24.449219 41.855469 24.222656 C 41.347656 23.992188 40.613281 24.109375 40.46875 23.355469 C 40.320312 22.574219 40.53125 21.871094 41.121094 21.316406 C 42.195312 20.304688 45.691406 19.832031 47.0625 20.484375 C 49.621094 21.691406 51.746094 20.367188 51.710938 17.5625 C 51.710938 16.988281 51.710938 16.417969 51.710938 15.847656 C 55.449219 16.761719 53.605469 19.175781 53.148438 21.285156 C 53.832031 21.25 54.078125 20.808594 54.421875 20.546875 C 56.445312 18.949219 56.445312 18.949219 58.402344 20.582031 C 58.648438 20.777344 58.894531 20.972656 59.203125 21.21875 C 59.59375 20.402344 59.171875 19.765625 58.941406 19.210938 C 58.453125 18.035156 58.582031 17.21875 59.804688 16.613281 C 60.492188 16.269531 61.078125 15.75 61.714844 15.308594 C 61.601562 15.160156 61.570312 15.078125 61.554688 15.09375 C 58.730469 15.488281 56.492188 15.046875 56.789062 11.210938 C 56.054688 11.699219 56.019531 12.207031 55.855469 12.613281 C 54.976562 14.898438 54.992188 14.898438 52.382812 14.703125 C 52.398438 13.234375 53.394531 11.601562 51.777344 10.359375 C 51.695312 10.292969 51.761719 9.953125 51.824219 9.757812 C 52.363281 8.304688 52.578125 6.882812 51.5 5.445312 C 54.535156 6.34375 57.585938 7.242188 60.621094 8.15625 C 65.601562 9.65625 70.609375 11.0625 75.703125 12.222656 C 76.304688 12.351562 76.957031 12.449219 76.617188 13.300781 C 76.339844 13.96875 76.761719 15.191406 75.308594 15.011719 C 74.316406 14.898438 73.320312 14.882812 72.113281 14.816406 C 72.550781 15.683594 73.238281 16.042969 73.824219 16.367188 C 75.113281 17.101562 75.636719 17.953125 74.835938 19.371094 C 74.542969 19.894531 74.511719 20.582031 74.347656 21.203125 C 74.511719 21.234375 74.625 21.300781 74.675781 21.25 C 75.652344 20.546875 76.46875 19.128906 77.578125 19.242188 C 78.542969 19.324219 79.390625 20.53125 80.402344 21.332031 C 80.550781 19.863281 79.261719 18.6875 79.734375 17.542969 C 80.207031 16.402344 81.871094 16.253906 82.703125 15.113281 C 81.722656 14.703125 80.777344 14.996094 79.863281 15.078125 C 79.0625 15.160156 78.589844 14.980469 78.378906 14.097656 C 78.132812 13.101562 78.132812 12.761719 79.359375 13.054688 C 84.105469 14.195312 88.890625 15.257812 93.71875 16.074219 C 93.882812 16.109375 94.03125 16.125 94.191406 16.171875 C 96.511719 16.90625 96.738281 17.347656 96.070312 19.683594 C 95.921875 20.1875 95.792969 20.695312 95.660156 21.234375 C 95.808594 21.234375 95.921875 21.285156 95.972656 21.25 C 96.949219 20.515625 97.914062 19.195312 98.875 19.210938 C 99.824219 19.226562 100.753906 20.597656 101.8125 21.445312 C 101.894531 20.367188 101.503906 19.535156 101.226562 18.71875 C 100.898438 17.757812 101.144531 17.445312 102.140625 17.609375 C 104.507812 18 106.875 18.378906 109.238281 18.71875 C 116.519531 19.78125 123.8125 20.613281 131.125 21.203125 C 132.773438 21.332031 134.421875 21.429688 136.070312 21.542969 C 136.609375 22.082031 136.65625 22.769531 136.65625 23.472656 C 136.65625 26.019531 136.707031 28.566406 136.625 31.113281 C 136.691406 35.796875 136.707031 40.484375 136.625 45.171875 C 136.691406 48.796875 136.691406 52.4375 136.625 56.0625 C 136.691406 60.714844 136.691406 65.367188 136.625 70.039062 C 136.949219 73.746094 136.511719 77.433594 136.625 81.140625 C 136.722656 85.125 136.65625 89.09375 136.65625 93.078125 C 136.65625 93.714844 136.640625 94.367188 136.214844 94.886719 C 135.515625 95.394531 134.699219 95.3125 133.898438 95.3125 C 101.03125 95.328125 68.164062 95.3125 35.292969 95.3125 C 34.363281 95.296875 33.515625 95.265625 32.765625 94.789062 Z M 32.765625 94.789062 " fill-opacity="1" fill-rule="nonzero"/></g><path fill="#bf3245" d="M 43.992188 119.96875 C 41.96875 118.546875 40.386719 116.277344 37.464844 116.539062 C 36.761719 116.605469 36.519531 116.113281 36.5 115.542969 C 36.484375 115.019531 36.46875 114.449219 36.648438 113.976562 C 37.300781 112.292969 37.054688 110.777344 36.140625 109.257812 C 35.570312 108.308594 35.128906 107.28125 34.625 106.285156 C 34.820312 105.535156 35.472656 105.566406 36.027344 105.5 C 36.761719 105.421875 37.511719 105.453125 38.265625 105.453125 C 73.710938 105.453125 109.15625 105.519531 144.605469 105.386719 C 150.773438 105.355469 156.960938 105.761719 163.113281 105.386719 C 169.558594 105.011719 176.003906 105.042969 182.453125 105.175781 C 214.585938 105.828125 246.71875 105.257812 278.855469 105.453125 C 279.816406 105.453125 280.78125 105.421875 281.660156 105.925781 C 282.296875 106.695312 282.3125 107.3125 281.515625 108.066406 C 281.023438 108.523438 280.550781 109.175781 280.714844 110.023438 C 281.351562 110.105469 281.824219 109.84375 282.25 109.566406 C 283.308594 108.863281 284.042969 109.191406 284.566406 110.21875 C 285.105469 111.265625 284.695312 112.847656 283.71875 113.175781 C 283.097656 113.386719 282.738281 113.664062 282.574219 114.320312 C 282.25 115.527344 281.480469 115.773438 280.386719 115.183594 C 279.898438 114.921875 279.328125 114.320312 278.851562 115.003906 C 278.414062 115.640625 278.773438 116.34375 279.230469 116.898438 C 279.785156 117.585938 280.535156 117.765625 281.367188 117.648438 C 281.726562 117.601562 282.183594 117.355469 282.394531 117.730469 C 282.605469 118.105469 282.296875 118.53125 282.085938 118.890625 C 281.742188 119.445312 281.269531 119.871094 280.664062 120.113281 C 279.015625 120.621094 277.304688 120.589844 275.605469 120.589844 C 199.898438 120.589844 124.207031 120.589844 48.496094 120.589844 C 46.960938 120.570312 45.445312 120.539062 43.992188 119.96875 Z M 43.992188 119.96875 " fill-opacity="1" fill-rule="nonzero"/><path fill="#be3245" d="M 269.84375 131.886719 C 268.800781 133.03125 268.605469 134.566406 267.984375 135.902344 C 267.265625 137.472656 266.484375 139.054688 265.015625 139.953125 C 263.382812 140.964844 262.535156 142.648438 261.164062 143.855469 C 260.65625 144.3125 260.589844 144.964844 260.476562 145.601562 C 259.953125 146.042969 259.335938 146.15625 258.683594 146.175781 C 257.929688 146.191406 257.195312 146.191406 256.445312 146.191406 C 199.929688 146.191406 143.429688 146.191406 86.914062 146.191406 C 84.417969 146.191406 81.902344 146.355469 79.457031 145.734375 C 75.75 143.871094 72.226562 141.734375 68.667969 139.609375 C 66.824219 138.5 68.996094 138.011719 68.976562 137.046875 C 64.214844 136.636719 59.429688 136.199219 54.648438 135.839844 C 52.804688 135.691406 52.789062 135.773438 53.3125 133.960938 C 53.539062 133.160156 53.457031 132.394531 53.230469 131.609375 C 53.671875 131.121094 54.273438 131.121094 54.863281 131.085938 C 55.398438 131.054688 55.921875 131.070312 56.460938 131.070312 C 126.929688 131.070312 197.417969 131.070312 267.886719 131.101562 C 268.554688 131.070312 269.730469 130.386719 269.84375 131.886719 Z M 269.84375 131.886719 " fill-opacity="1" fill-rule="nonzero"/><path fill="#fbeee9" d="M 281.644531 105.910156 C 272.683594 105.894531 263.742188 105.84375 254.78125 105.84375 C 232.179688 105.828125 209.574219 105.828125 186.988281 105.828125 C 136.835938 105.828125 86.667969 105.84375 36.519531 105.878906 C 35.882812 105.878906 35.113281 105.5 34.625 106.269531 C 34.378906 103.558594 33.203125 100.980469 33.417969 98.1875 C 33.5 96.996094 33.238281 95.867188 32.78125 94.789062 C 51.792969 94.773438 70.804688 94.757812 89.820312 94.742188 C 104.734375 94.742188 119.636719 94.742188 134.550781 94.757812 C 135.089844 94.757812 135.613281 94.726562 136.152344 94.710938 C 136.984375 94.054688 137.980469 94.25 138.925781 94.25 C 155.605469 94.234375 172.300781 94.25 188.980469 94.234375 C 217.769531 94.21875 246.539062 94.269531 275.328125 94.21875 C 275.65625 94.21875 275.964844 94.203125 276.273438 94.121094 C 276.699219 95.425781 277.449219 96.570312 278.296875 97.632812 C 278.871094 98.332031 279.375 98.96875 278.445312 99.785156 C 278.019531 100.164062 278.019531 100.816406 278.542969 100.980469 C 280.957031 101.777344 280.976562 104.03125 281.644531 105.910156 Z M 281.644531 105.910156 " fill-opacity="1" fill-rule="nonzero"/><path fill="#fbefe9" d="M 269.84375 131.886719 C 269.761719 131.167969 269.226562 131.480469 268.867188 131.480469 C 224.214844 131.480469 179.5625 131.496094 134.925781 131.511719 C 108.292969 131.511719 81.644531 131.511719 55.007812 131.527344 C 54.421875 131.527344 53.832031 131.578125 53.261719 131.59375 C 52.382812 129.667969 51.433594 127.820312 49.246094 126.972656 C 48.398438 126.644531 48.644531 125.535156 48.546875 124.816406 C 48.414062 123.804688 47.941406 123.152344 47.238281 122.5625 C 46.179688 121.683594 45.070312 120.832031 43.976562 119.984375 C 44.546875 120.050781 45.136719 120.179688 45.707031 120.179688 C 122.851562 120.179688 199.996094 120.179688 277.140625 120.179688 C 278.316406 120.179688 279.488281 120.148438 280.648438 120.132812 C 278.558594 121.960938 276.292969 123.65625 275.476562 126.515625 C 275.328125 127.023438 275.117188 127.609375 274.609375 127.820312 C 272.570312 128.621094 271.230469 130.285156 269.84375 131.886719 Z M 269.84375 131.886719 " fill-opacity="1" fill-rule="nonzero"/><path fill="#bf3245" d="M 276.242188 94.121094 C 276.210938 95.132812 275.425781 94.757812 274.953125 94.757812 C 271.117188 94.789062 267.28125 94.757812 263.429688 94.757812 C 221.472656 94.757812 179.515625 94.757812 137.554688 94.742188 C 137.082031 94.742188 136.59375 94.710938 136.117188 94.691406 C 136.152344 90.121094 136.167969 85.53125 136.199219 80.960938 C 136.917969 80.324219 137.800781 80.472656 138.648438 80.472656 C 144.296875 80.453125 149.941406 80.453125 155.605469 80.453125 C 197.5 80.453125 239.40625 80.453125 281.300781 80.472656 C 282.378906 80.472656 283.570312 80.113281 284.46875 81.109375 C 284.386719 81.238281 284.273438 81.371094 284.222656 81.5 C 283.816406 82.527344 283.699219 83.898438 282.949219 84.519531 C 282.148438 85.191406 281.074219 83.949219 280.042969 83.882812 C 279.898438 83.867188 279.734375 83.898438 279.457031 83.898438 C 279.847656 85.46875 280.714844 86.726562 281.5625 87.964844 C 281.96875 88.570312 281.953125 88.832031 281.15625 89.011719 C 280.125 89.238281 279.132812 89.632812 277.921875 90.023438 C 279.03125 90.808594 280.144531 91.148438 281.203125 91.425781 C 282.296875 91.703125 282.445312 92.261719 282.085938 93.15625 C 282.035156 93.304688 282.019531 93.46875 281.953125 93.613281 C 281.59375 94.414062 281.613281 95.738281 280.679688 95.785156 C 279.914062 95.835938 279.636719 94.511719 279.523438 93.792969 C 279.34375 92.734375 278.363281 92.816406 278.039062 92.816406 C 276.292969 92.832031 276.160156 91.460938 275.933594 90.414062 C 275.621094 88.996094 275.636719 87.507812 275.507812 86.054688 C 275.261719 84.847656 276.828125 84.324219 276.570312 82.839844 C 275.71875 84.292969 274.347656 85.109375 273.988281 86.691406 C 273.613281 87.65625 272.75 88.539062 273.417969 89.730469 C 273.5 89.875 273.140625 90.25 272.996094 90.527344 C 272.699219 92.339844 272.816406 92.539062 274.5625 93.175781 C 275.117188 93.535156 275.671875 93.828125 276.242188 94.121094 Z M 276.242188 94.121094 " fill-opacity="1" fill-rule="nonzero"/><path fill="#bf3245" d="M 253.132812 171.628906 C 252.398438 169.375 251.0625 167.875 248.546875 167.726562 C 248.007812 167.695312 247.617188 167.335938 247.421875 166.910156 C 246.621094 165.164062 244.941406 164.851562 243.390625 164.347656 C 241.90625 163.875 240.402344 164.65625 240.0625 166.109375 C 239.734375 167.464844 238.558594 167.285156 237.695312 167.660156 C 236.421875 168.214844 235.214844 168.625 234.542969 166.714844 C 234.21875 165.765625 233.058594 165.585938 232.179688 165.210938 C 228.734375 163.710938 225.324219 163.480469 221.847656 165.210938 C 219.921875 166.160156 219.890625 166.078125 219.121094 164.070312 C 218.960938 163.628906 218.878906 163.121094 218.273438 162.714844 C 218.109375 165.472656 216.28125 165.179688 214.292969 165.277344 C 212.269531 165.375 210.03125 165.75 208.953125 168.003906 C 208.742188 168.429688 208.382812 168.917969 208.972656 169.230469 C 209.445312 169.488281 209.789062 169.03125 209.902344 168.625 C 210.144531 167.742188 210.636719 167.675781 211.320312 168.085938 C 212.105469 168.542969 211.46875 168.96875 211.257812 169.375 C 211.207031 169.472656 211.125 169.554688 211.078125 169.636719 C 209.789062 171.644531 209.867188 171.875 212.136719 172.722656 C 212.429688 172.835938 212.757812 172.902344 213.035156 173.050781 C 213.476562 173.277344 214.339844 173.246094 213.917969 174.160156 C 213.558594 174.910156 213.101562 174.878906 212.382812 174.46875 C 210.980469 173.652344 209.347656 173.210938 208.238281 171.808594 C 207.386719 172.851562 208.742188 174.585938 206.832031 175.007812 C 206.75 174.503906 207.242188 173.734375 206.328125 173.488281 C 205.738281 173.328125 205.332031 173.523438 204.890625 173.929688 C 203.339844 175.417969 203.324219 175.402344 201.382812 173.914062 C 201.59375 173.6875 201.824219 173.457031 202.019531 173.210938 C 202.523438 172.558594 202.507812 172.136719 201.53125 172.152344 C 200.679688 172.167969 199.832031 172.136719 198.96875 172.152344 C 198.167969 172.167969 197.53125 172.117188 197.402344 171.058594 C 197.285156 170.160156 196.632812 170.144531 196.289062 170.878906 C 195.6875 172.214844 194.660156 172.101562 193.5 172.035156 C 191.851562 171.957031 190.234375 171.839844 188.667969 171.1875 C 187.445312 170.683594 186.171875 170.828125 184.914062 171.21875 C 184.101562 171.464844 183.265625 171.660156 182.453125 171.875 C 181.71875 172.394531 180.867188 172.414062 180.003906 172.414062 C 168.953125 172.414062 157.890625 172.414062 146.839844 172.414062 C 145.976562 172.414062 145.144531 172.378906 144.394531 171.890625 C 144.296875 171.855469 144.148438 171.839844 144.097656 171.777344 C 142.726562 169.703125 140.410156 170.160156 138.453125 169.75 C 136.640625 169.375 134.945312 170.730469 134.242188 172.851562 C 133.734375 174.421875 132.21875 175.171875 130.765625 174.40625 C 128.398438 173.148438 125.96875 171.972656 124.1875 169.816406 C 123.40625 168.871094 122.933594 167.9375 122.933594 166.679688 C 122.933594 163.953125 121.886719 161.75 119.359375 160.429688 C 117.792969 159.613281 116.84375 158.175781 115.816406 156.820312 C 115.980469 156.148438 116.550781 156.117188 117.074219 156.050781 C 117.59375 155.96875 118.132812 156.003906 118.671875 156.003906 C 164.289062 156.003906 209.886719 156.003906 255.5 156.019531 C 256.578125 156.019531 257.785156 155.691406 258.550781 156.886719 C 259.515625 162.453125 262.5 166.910156 266.253906 170.941406 C 266.695312 172.316406 265.652344 172.332031 264.835938 172.363281 C 262.238281 172.460938 259.628906 172.394531 257.015625 172.414062 C 256.265625 172.414062 255.53125 172.429688 254.78125 172.394531 C 254.160156 172.347656 253.558594 172.214844 253.132812 171.628906 Z M 253.132812 171.628906 " fill-opacity="1" fill-rule="nonzero"/><path fill="#faeee8" d="M 258.585938 156.867188 C 257.929688 156.167969 257.082031 156.460938 256.316406 156.460938 C 214.339844 156.445312 172.367188 156.460938 130.390625 156.460938 C 126.082031 156.460938 121.757812 156.445312 117.449219 156.476562 C 116.910156 156.476562 116.257812 156.183594 115.847656 156.820312 C 114.609375 154.972656 113.289062 153.179688 112.160156 151.269531 C 111.492188 150.125 110.382812 150.371094 109.484375 150.222656 C 107.558594 149.914062 105.585938 149.914062 103.625 149.796875 C 102.761719 149.75 102.125 149.976562 102.171875 151.007812 C 102.238281 152.214844 101.519531 152.476562 100.542969 152.363281 C 98.027344 152.050781 95.5 151.824219 93 151.351562 C 89.3125 150.632812 85.625 149.945312 82.441406 147.660156 C 81.480469 146.972656 80.664062 146.011719 79.457031 145.714844 C 97 145.714844 114.527344 145.699219 132.070312 145.699219 C 174.242188 145.699219 216.398438 145.699219 258.566406 145.683594 C 259.203125 145.683594 259.839844 145.636719 260.476562 145.601562 C 258.699219 148.671875 258.550781 152.101562 258.355469 155.496094 C 258.339844 155.953125 258.503906 156.410156 258.585938 156.867188 Z M 258.585938 156.867188 " fill-opacity="1" fill-rule="nonzero"/><path fill="#fbefe9" d="M 284.453125 81.125 C 283.847656 80.8125 283.195312 80.945312 282.558594 80.945312 C 233.761719 80.945312 184.980469 80.960938 136.183594 80.976562 C 136.199219 77.335938 136.199219 73.695312 136.214844 70.054688 C 136.527344 69.417969 137.113281 69.367188 137.703125 69.320312 C 138.453125 69.253906 139.1875 69.285156 139.9375 69.285156 C 162.394531 69.285156 184.867188 69.285156 207.324219 69.285156 C 208.007812 69.285156 208.710938 69.269531 209.378906 69.484375 C 210.261719 71.539062 210.210938 73.808594 210.847656 75.914062 C 211.304688 77.417969 212.039062 78.578125 213.65625 78.707031 C 215.15625 78.839844 216.28125 77.941406 217.035156 76.730469 C 218.519531 74.347656 218.453125 71.71875 218.011719 69.074219 C 222.828125 69.546875 227.640625 69.1875 232.457031 69.304688 C 233.289062 69.320312 234.167969 69.171875 234.886719 69.777344 C 234.167969 71.246094 233.46875 72.714844 232.71875 74.152344 C 232.308594 74.953125 232.324219 75.457031 233.371094 75.558594 C 233.679688 75.589844 234.023438 75.605469 234.300781 75.734375 C 238.378906 77.648438 241.351562 75.636719 244.289062 73.109375 C 245.625 71.949219 246.769531 70.511719 248.433594 69.761719 C 249.136719 69.304688 249.933594 69.285156 250.734375 69.285156 C 261.308594 69.269531 271.867188 69.304688 282.445312 69.269531 C 282.917969 69.269531 283.40625 69.238281 283.847656 69.484375 C 283.75 70.675781 284.109375 70.917969 285.085938 70.152344 C 285.5625 69.777344 286.066406 69.335938 286.785156 69.515625 C 286.71875 70.300781 286.035156 70.496094 285.511719 70.820312 C 284.679688 71.359375 283.996094 71.980469 283.570312 72.878906 C 283.488281 73.777344 283.601562 74.59375 284.027344 75.476562 C 284.925781 77.253906 284.433594 79.230469 284.453125 81.125 Z M 284.453125 81.125 " fill-opacity="1" fill-rule="nonzero"/><path fill="#be3245" d="M 209.394531 69.484375 C 208.988281 70.136719 208.335938 69.824219 207.796875 69.824219 C 184.457031 69.84375 161.105469 69.824219 137.765625 69.84375 C 137.261719 69.84375 136.691406 69.628906 136.25 70.070312 C 136.054688 65.382812 136.039062 60.699219 136.234375 56.011719 C 136.851562 55.457031 137.621094 55.523438 138.355469 55.523438 C 160.941406 55.507812 183.527344 55.507812 206.132812 55.554688 C 207.519531 55.554688 208.9375 55.621094 210.292969 56.09375 C 210 58.265625 209.6875 60.421875 209.394531 62.59375 C 209.214844 63.898438 209.035156 65.203125 208.953125 66.527344 C 208.855469 67.523438 208.90625 68.550781 209.394531 69.484375 Z M 209.394531 69.484375 " fill-opacity="1" fill-rule="nonzero"/><path fill="#be3245" d="M 136.199219 45.105469 C 136.039062 40.417969 135.988281 35.75 136.25 31.0625 C 136.851562 30.476562 137.621094 30.558594 138.355469 30.558594 C 155.652344 30.574219 172.9375 30.492188 190.234375 30.589844 C 191.671875 30.589844 193.109375 30.476562 194.542969 30.574219 C 195.179688 30.621094 195.996094 30.441406 196.226562 31.375 C 194.070312 32.273438 192.210938 33.464844 190.953125 35.554688 C 190.074219 37.023438 188.765625 38.148438 187.496094 39.292969 C 187.167969 39.585938 186.546875 39.863281 186.972656 40.4375 C 187.296875 40.894531 187.871094 40.714844 188.292969 40.535156 C 189.617188 39.960938 190.890625 39.308594 192.226562 38.769531 C 192.617188 38.605469 193.15625 38.199219 193.550781 38.65625 C 193.890625 39.0625 193.371094 39.40625 193.207031 39.78125 C 192.796875 40.714844 193.058594 41.21875 194.070312 41.300781 C 194.382812 41.332031 194.773438 41.414062 195.019531 41.269531 C 197.238281 39.945312 199.945312 39.519531 201.726562 37.449219 C 202.574219 36.46875 203.519531 35.636719 204.566406 34.882812 C 205.183594 34.425781 205.855469 34.117188 206.636719 34.703125 C 205.640625 35.929688 204.304688 36.8125 203.652344 38.246094 C 203.472656 38.65625 203.0625 39.164062 203.488281 39.570312 C 203.910156 40.011719 204.367188 39.554688 204.777344 39.359375 C 206.71875 38.363281 206.851562 38.394531 208.007812 40.058594 C 209.101562 41.644531 211.648438 42.148438 213.34375 40.796875 C 215.335938 39.195312 217.667969 38.902344 220.070312 38.394531 C 220.199219 39.128906 219.433594 39.945312 220.117188 40.484375 C 220.722656 40.957031 221.570312 40.828125 222.289062 40.679688 C 223.902344 40.355469 225.09375 40.566406 225.421875 42.492188 C 225.488281 42.917969 225.894531 43.292969 226.222656 43.816406 C 224.457031 43.882812 222.828125 44.355469 221.128906 43.863281 C 220.117188 43.570312 219.1875 43.800781 218.226562 44.304688 C 217.050781 44.925781 215.921875 45.757812 214.421875 45.644531 C 213.898438 45.613281 214.046875 46.378906 213.816406 46.753906 C 211.761719 45.007812 209.214844 45.515625 206.851562 45.351562 C 202.753906 45.074219 198.671875 45.808594 194.5625 45.578125 C 187.167969 45.1875 179.757812 45.300781 172.347656 45.300781 C 165.527344 45.300781 158.707031 45.269531 151.882812 45.316406 C 147.527344 45.351562 143.167969 45.808594 138.796875 45.628906 C 137.898438 45.628906 136.96875 45.742188 136.199219 45.105469 Z M 136.199219 45.105469 " fill-opacity="1" fill-rule="nonzero"/><path fill="#faeee8" d="M 136.199219 45.105469 C 140.671875 45.054688 145.144531 44.976562 149.617188 44.976562 C 166.246094 44.976562 182.859375 45.007812 199.488281 45.039062 C 203.375 45.039062 207.273438 45.089844 211.15625 45.039062 C 212.511719 45.023438 213.6875 45.054688 213.800781 46.789062 C 213.082031 47.441406 212.234375 47.75 211.273438 47.703125 C 210.554688 47.667969 210.066406 48.027344 210.03125 48.664062 C 209.917969 50.671875 208.9375 52.386719 208.285156 54.214844 C 208.121094 54.691406 207.730469 55.277344 208.398438 55.585938 C 208.972656 55.847656 209.152344 55.210938 209.445312 54.835938 C 209.933594 54.214844 210.210938 53.351562 211.191406 52.976562 C 211.140625 54.199219 210.144531 54.984375 210.226562 56.078125 C 209.640625 56.046875 209.070312 55.980469 208.480469 55.980469 C 184.378906 55.980469 160.273438 55.980469 136.167969 55.996094 C 136.214844 52.371094 136.199219 48.730469 136.199219 45.105469 Z M 136.199219 45.105469 " fill-opacity="1" fill-rule="nonzero"/><path fill="#bf3245" d="M 283.863281 69.484375 C 283.570312 69.761719 283.242188 69.84375 282.851562 69.84375 C 271.394531 69.808594 259.921875 69.792969 248.464844 69.761719 C 249.96875 67.636719 252.105469 66.070312 253.378906 63.71875 C 253.949219 62.675781 254.015625 62.117188 252.953125 61.597656 C 252.039062 61.140625 252.121094 60.714844 252.855469 60.128906 C 254.242188 59.015625 255.746094 58.363281 257.574219 58.59375 C 260.183594 58.917969 262.402344 58.167969 264.050781 56.027344 C 264.898438 55.667969 265.765625 55.507812 266.695312 55.507812 C 274.675781 55.523438 282.65625 55.507812 290.636719 55.523438 C 291.535156 55.523438 292.628906 55.261719 293.132812 56.4375 C 294.277344 57.597656 295.335938 58.835938 296.59375 59.882812 C 297.492188 60.632812 298.46875 59.605469 299.808594 59.488281 C 298.488281 60.78125 297.769531 62.296875 295.792969 61.792969 C 295.171875 61.628906 294.832031 62.101562 294.503906 62.542969 C 293.933594 63.328125 293.542969 63.132812 293.167969 62.347656 C 292.839844 61.660156 292.609375 60.863281 291.859375 60.46875 C 291.746094 60.601562 291.617188 60.683594 291.632812 60.730469 C 292.121094 63.457031 290.75 64.765625 288.320312 65.710938 C 286.476562 66.398438 284.613281 67.394531 283.863281 69.484375 Z M 283.863281 69.484375 " fill-opacity="1" fill-rule="nonzero"/><path fill="#faeee9" d="M 196.226562 31.390625 C 195.734375 30.753906 195.050781 31.078125 194.460938 31.078125 C 175.058594 31.0625 155.652344 31.0625 136.234375 31.0625 C 135.972656 27.878906 136.363281 24.679688 135.988281 21.496094 C 136.394531 21.59375 136.820312 21.804688 137.210938 21.773438 C 140.363281 21.578125 143.460938 22.132812 146.597656 22.132812 C 153.566406 22.132812 160.515625 22.636719 167.503906 22.441406 C 168.1875 22.425781 168.855469 22.34375 169.558594 22.246094 C 170.539062 22.082031 171.304688 21.921875 171.371094 20.710938 C 171.386719 20.320312 171.679688 19.894531 172.21875 19.910156 C 172.839844 19.929688 173.019531 20.417969 173.117188 20.875 C 173.28125 21.707031 173.230469 22.558594 173.394531 23.40625 C 173.621094 24.53125 174.242188 24.972656 175.238281 24.988281 C 176.347656 25.007812 177.308594 25.285156 178.222656 25.921875 C 179.007812 26.476562 179.839844 26.3125 180.65625 25.96875 C 182.386719 25.25 183.886719 25.675781 185.175781 26.949219 C 186.597656 28.335938 188.683594 28.550781 190.121094 30.003906 C 190.710938 30.605469 191.722656 29.804688 192.457031 29.414062 C 193.515625 28.84375 195.769531 28.972656 196.585938 29.773438 C 197.382812 30.492188 196.878906 30.964844 196.226562 31.390625 Z M 196.226562 31.390625 " fill-opacity="1" fill-rule="nonzero"/><path fill="#be3346" d="M 59.984375 171.824219 C 60.476562 170.535156 59.398438 169.636719 59.136719 168.542969 C 59.203125 168.492188 59.25 168.445312 59.300781 168.445312 C 60.589844 168.332031 61.894531 167.335938 62.957031 167.613281 C 63.855469 167.839844 64.492188 169.277344 65.519531 169.898438 C 65.976562 170.175781 66.351562 170.582031 66.890625 170.664062 C 67.574219 170.761719 68.40625 170.925781 68.75 170.191406 C 69.109375 169.410156 68.195312 169.292969 67.753906 169.03125 C 66.023438 168.019531 67.574219 167.1875 68 166.078125 C 64.554688 166.421875 65.289062 163.136719 63.96875 161.570312 C 63.558594 161.097656 64.214844 161.015625 64.539062 160.96875 C 66.382812 160.707031 67.964844 160.230469 69.320312 158.632812 C 70.953125 156.6875 73.335938 155.96875 75.964844 156.230469 C 77.496094 156.378906 79.046875 156.230469 80.597656 156.230469 C 81.871094 156.230469 82.703125 156.671875 82.621094 158.175781 C 82.554688 159.496094 83.421875 158.714844 83.714844 158.484375 C 84.824219 157.601562 85.429688 158.140625 86.359375 158.925781 C 88.414062 160.640625 90.992188 161.488281 93.589844 161.863281 C 95.449219 162.125 95.9375 162.828125 95.824219 164.589844 C 95.660156 167.089844 95.757812 169.605469 95.742188 172.101562 C 95.203125 172.804688 94.421875 172.722656 93.6875 172.722656 C 86.179688 172.738281 78.671875 172.851562 71.164062 172.671875 C 68.082031 172.59375 64.996094 172.445312 61.910156 172.414062 C 61.210938 172.394531 60.523438 172.347656 59.984375 171.824219 Z M 59.984375 171.824219 " fill-opacity="1" fill-rule="nonzero"/><g clip-path="url(#1975037a9c)"><path fill="#be3346" d="M 95.757812 183.433594 C 95.757812 184.398438 95.710938 185.359375 95.777344 186.308594 C 95.875 187.875 95.757812 189.378906 94.878906 190.765625 C 94.667969 191.089844 94.324219 191.546875 94.683594 191.925781 C 94.992188 192.25 95.5 192.105469 95.90625 192.003906 C 96.3125 191.90625 96.691406 191.679688 97.082031 191.515625 C 97.71875 191.238281 98.125 191.335938 98.042969 192.152344 C 97.945312 193.246094 98.417969 193.851562 99.53125 194.03125 C 99.808594 194.078125 100.183594 194.308594 100.296875 194.554688 C 101.277344 196.5625 102.15625 195.582031 102.972656 194.472656 C 103.902344 193.214844 104.605469 193.3125 105.664062 194.4375 C 107.347656 196.234375 109.058594 197.964844 110.121094 200.234375 C 110.644531 201.363281 111.589844 202.078125 112.78125 202.339844 C 113.890625 202.585938 114.183594 203.140625 113.859375 204.152344 C 113.761719 204.464844 113.777344 204.789062 113.644531 205.085938 C 113.351562 205.800781 113.320312 206.699219 112.421875 207.011719 C 111.328125 207.402344 111.425781 206.210938 110.921875 205.835938 C 110.039062 205.183594 109.84375 203.890625 108.621094 203.371094 C 108.195312 204.691406 109.140625 205.820312 109.09375 207.027344 C 108.945312 207.027344 108.878906 207.042969 108.847656 207.027344 C 107.769531 206.113281 107.214844 204.808594 106.074219 203.828125 C 104.734375 202.652344 103.480469 200.984375 102.46875 199.320312 C 100.476562 196.054688 97.539062 194.097656 93.949219 193 C 91.957031 192.398438 89.949219 191.84375 88.742188 189.882812 C 88.433594 189.394531 87.777344 189.261719 87.191406 189.164062 C 86.554688 189.066406 85.933594 188.902344 85.527344 188.332031 C 85.070312 187.695312 84.480469 187.289062 83.78125 187.859375 C 83.128906 188.398438 82.199219 188.953125 82.574219 190.015625 C 82.703125 190.40625 82.851562 190.652344 82.394531 190.617188 C 80.957031 190.519531 80.238281 191.613281 79.277344 192.332031 C 78.882812 192.625 78.542969 193.261719 77.921875 192.757812 C 77.285156 192.25 77.9375 191.875 78.101562 191.402344 C 78.589844 189.882812 79.40625 188.59375 80.484375 187.417969 C 80.746094 187.140625 81.085938 186.648438 80.695312 186.292969 C 80.320312 185.949219 79.929688 186.371094 79.554688 186.535156 C 77.773438 187.335938 76.632812 188.953125 75.050781 189.996094 C 74.953125 190.0625 74.835938 190.324219 74.871094 190.371094 C 75.996094 191.664062 74.476562 192.070312 74.019531 192.773438 C 73.664062 193.328125 72.992188 193.65625 72.960938 194.472656 C 72.945312 194.894531 72.601562 195.304688 72.160156 195.371094 C 70.136719 195.664062 68.71875 197.539062 66.578125 197.492188 C 66.480469 197.492188 66.285156 197.558594 66.285156 197.589844 C 66.285156 198.976562 65.453125 198.976562 64.328125 199.027344 C 63.429688 199.058594 62.644531 199.925781 61.617188 199.890625 C 61.40625 199.890625 60.28125 199.792969 61.113281 200.726562 C 61.535156 201.183594 60.949219 201.246094 60.71875 201.230469 C 58.46875 200.984375 56.214844 201.882812 53.964844 201.230469 C 52.738281 200.871094 51.53125 201.101562 50.355469 201.492188 C 49.328125 201.835938 48.398438 201.867188 47.550781 200.824219 C 48.839844 200.464844 50.0625 200.347656 51.238281 200.105469 C 53.425781 199.648438 55.660156 199.859375 57.78125 199.222656 C 60.214844 198.488281 62.679688 197.949219 64.996094 196.824219 C 66.546875 196.070312 67.527344 194.929688 68.324219 193.523438 C 68.800781 192.707031 68.570312 192.234375 67.65625 192.039062 C 66.972656 191.890625 66.285156 191.90625 65.894531 190.976562 C 65.683594 190.453125 64.652344 190.699219 64 190.945312 C 62.222656 191.613281 62.15625 191.515625 61.75 189.703125 C 61.488281 188.511719 60.3125 187.613281 60.507812 186.210938 C 60.523438 186.128906 60.082031 185.882812 59.855469 185.882812 C 58.222656 185.898438 57.667969 184.855469 57.421875 183.484375 C 57.960938 182.796875 58.746094 182.878906 59.480469 182.878906 C 70.871094 182.863281 82.246094 182.863281 93.636719 182.878906 C 94.40625 182.894531 95.171875 182.863281 95.757812 183.433594 Z M 95.757812 183.433594 " fill-opacity="1" fill-rule="nonzero"/></g><path fill="#fbefe9" d="M 95.757812 183.433594 C 92.460938 183.417969 89.167969 183.386719 85.871094 183.386719 C 77.089844 183.386719 68.308594 183.402344 59.511719 183.417969 C 58.828125 183.417969 58.125 183.484375 57.441406 183.515625 C 56.640625 181.410156 57.144531 180.019531 58.910156 179.304688 C 59.804688 178.945312 60.589844 178.992188 61.210938 179.742188 C 62.042969 180.757812 62.742188 180.625 63.542969 179.710938 C 63.835938 179.367188 64.328125 179.15625 64.75 178.945312 C 65.601562 178.519531 65.828125 177.816406 65.699219 176.953125 C 65.550781 176.070312 64.949219 175.808594 64.097656 175.726562 C 62.464844 175.5625 60.148438 173.3125 59.984375 171.824219 C 60.34375 171.890625 60.703125 172.019531 61.078125 172.019531 C 72.632812 172.054688 84.1875 172.085938 95.742188 172.117188 C 95.742188 175.875 95.757812 179.660156 95.757812 183.433594 Z M 95.757812 183.433594 " fill-opacity="1" fill-rule="nonzero"/><path fill="#fbefe9" d="M 144.410156 171.890625 C 147.429688 171.855469 150.464844 171.808594 153.484375 171.792969 C 162.460938 171.777344 171.433594 171.777344 180.410156 171.777344 C 181.097656 171.777344 181.78125 171.839844 182.46875 171.875 C 181.113281 173.195312 179.613281 174.40625 178.421875 175.839844 C 176.363281 178.308594 173.816406 180.136719 171.289062 182.03125 C 170.667969 182.488281 170.179688 183.140625 169.640625 183.710938 C 163.257812 184.039062 156.878906 184.003906 150.496094 183.726562 C 149.273438 181.753906 148.390625 179.628906 147.609375 177.457031 C 146.855469 175.402344 146.007812 173.441406 144.410156 171.890625 Z M 144.410156 171.890625 " fill-opacity="1" fill-rule="nonzero"/><path fill="#faeee8" d="M 293.101562 56.453125 C 292.726562 55.964844 292.1875 55.996094 291.664062 55.996094 C 282.460938 56.011719 273.253906 56.027344 264.035156 56.027344 C 265.683594 54.265625 265.75 52.78125 264.183594 50.917969 C 263.757812 50.410156 263.578125 49.921875 263.886719 49.316406 C 264.671875 47.816406 265.472656 46.328125 266.253906 44.828125 C 266.777344 44.746094 267.300781 44.632812 267.835938 44.648438 C 275.214844 44.875 282.589844 44.109375 289.984375 44.355469 C 291.242188 44.386719 292.398438 44.222656 293.425781 43.472656 C 293.625 45.105469 292.921875 46.574219 292.53125 48.09375 C 292.074219 49.855469 291.664062 51.507812 293.167969 53.089844 C 294.0625 54.070312 292.890625 55.308594 293.101562 56.453125 Z M 293.101562 56.453125 " fill-opacity="1" fill-rule="nonzero"/><g clip-path="url(#1223dbe25d)"><path fill="#bd3345" d="M 293.410156 43.472656 C 293.378906 44.648438 292.789062 44.976562 291.597656 44.976562 C 283.601562 44.941406 275.621094 45.023438 267.625 45.039062 C 267.167969 45.039062 266.664062 45.203125 266.253906 44.828125 C 267.378906 42.933594 269.046875 41.855469 271.152344 41.269531 C 274.789062 40.257812 278.398438 39.144531 282.003906 38.085938 C 282.703125 37.871094 283.375 37.691406 283.128906 36.730469 C 283.046875 36.386719 283.082031 36.027344 283.421875 35.914062 C 285.316406 35.359375 285.429688 33.742188 285.609375 32.207031 C 285.707031 31.257812 286.082031 30.980469 287.011719 31 C 290.570312 31.0625 294.144531 31.046875 297.703125 31.03125 C 298.488281 31.03125 298.992188 31.210938 299.253906 32.042969 C 299.515625 32.910156 300.117188 33.285156 301.097656 33.089844 C 301.882812 32.941406 302.859375 32.550781 303.269531 33.726562 C 303.644531 34.800781 303.105469 35.292969 302.125 35.765625 C 301.390625 36.109375 300.984375 37.007812 299.90625 36.859375 C 299.464844 36.792969 299.320312 37.511719 299.222656 37.988281 C 298.945312 39.242188 298.46875 40.140625 297.066406 38.753906 C 296.855469 40.417969 296.855469 41.953125 295.566406 43.195312 C 294.976562 42.460938 294.40625 41.742188 293.722656 40.894531 C 293.3125 41.839844 293.378906 42.65625 293.410156 43.472656 Z M 293.410156 43.472656 " fill-opacity="1" fill-rule="nonzero"/></g><path fill="#bf3246" d="M 234.921875 69.777344 C 229.679688 69.792969 224.441406 69.792969 219.203125 69.84375 C 218.566406 69.84375 218.226562 69.644531 218.027344 69.074219 C 218.011719 67.292969 217.050781 65.839844 216.414062 64.273438 C 216.023438 63.292969 215.449219 62.347656 216.234375 61.269531 C 216.398438 61.058594 216.378906 60.617188 216.28125 60.355469 C 215.761719 58.835938 216.070312 57.417969 216.691406 56.027344 C 217.210938 55.585938 217.847656 55.539062 218.503906 55.539062 C 221.796875 55.523438 225.078125 55.488281 228.375 55.554688 C 229.109375 55.570312 230.203125 55.308594 230.203125 56.664062 C 229.761719 57.5625 229.304688 58.460938 228.539062 59.164062 C 228.03125 59.621094 227.789062 60.257812 228.261719 60.878906 C 228.785156 61.546875 229.5 61.402344 230.136719 61.058594 C 230.953125 60.601562 231.394531 59.785156 231.917969 59.050781 C 232.847656 57.726562 233.988281 57.726562 234.691406 59.210938 C 235.933594 61.890625 236.503906 64.746094 236.519531 67.703125 C 236.519531 67.898438 236.421875 68.078125 236.371094 68.273438 C 234.625 67.574219 235.441406 69.320312 234.921875 69.777344 Z M 234.921875 69.777344 " fill-opacity="1" fill-rule="nonzero"/><path fill="#c03245" d="M 150.496094 183.726562 C 150.496094 183.285156 150.757812 183.269531 151.132812 183.269531 C 157.171875 183.269531 163.210938 183.269531 169.230469 183.238281 C 169.640625 183.238281 169.640625 183.433594 169.640625 183.710938 C 169.035156 184.25 168.121094 184.496094 168.023438 185.539062 C 167.976562 186.03125 167.519531 185.996094 167.144531 186.011719 C 166.523438 186.046875 166.359375 186.390625 166.734375 186.828125 C 167.207031 187.386719 167.078125 187.90625 166.816406 188.445312 C 165.675781 190.730469 166.097656 193 166.898438 195.253906 C 167.289062 196.347656 167.699219 197.460938 168.058594 198.570312 C 168.21875 199.058594 168.105469 199.5 167.632812 199.828125 C 167.109375 200.203125 166.703125 199.957031 166.359375 199.613281 C 165.101562 198.390625 163.375 198.355469 161.886719 197.769531 C 159.996094 197.019531 157.726562 196.542969 156.421875 194.910156 C 155.179688 193.34375 153.726562 191.695312 153.90625 189.394531 C 153.957031 188.789062 153.664062 188.25 153.335938 187.761719 C 152.355469 186.4375 151.425781 185.082031 150.496094 183.726562 Z M 150.496094 183.726562 " fill-opacity="1" fill-rule="nonzero"/><path fill="#faefe8" d="M 253.132812 171.628906 C 257.195312 172.054688 261.277344 171.710938 265.355469 171.824219 C 265.519531 171.824219 265.683594 171.824219 265.832031 171.792969 C 266.367188 171.710938 266.253906 171.285156 266.269531 170.925781 C 266.84375 172.183594 266.53125 173.621094 267.121094 174.894531 C 268.277344 177.390625 269.371094 179.941406 271.132812 182.09375 C 271.445312 182.453125 271.65625 182.894531 271.6875 183.402344 C 271.132812 183.90625 270.433594 183.90625 269.730469 183.90625 C 266.007812 183.921875 262.289062 183.90625 258.566406 183.921875 C 257.75 183.921875 256.984375 183.761719 256.25 183.417969 C 255.253906 182.535156 254.75 181.605469 255.582031 180.28125 C 255.808594 179.90625 256.234375 179.304688 255.792969 178.828125 C 255.335938 178.355469 254.796875 178.730469 254.339844 178.976562 C 253.621094 179.351562 253.3125 179.058594 253.066406 178.371094 C 252.789062 177.605469 252.644531 176.789062 252.839844 176.039062 C 253.265625 174.566406 253.117188 173.097656 253.132812 171.628906 Z M 253.132812 171.628906 " fill-opacity="1" fill-rule="nonzero"/><path fill="#be3346" d="M 256.300781 183.417969 C 261.441406 183.253906 266.582031 183.285156 271.722656 183.402344 C 272.636719 186.09375 272.585938 188.917969 272.277344 191.613281 C 272.082031 193.3125 271.902344 195.710938 269.09375 195.859375 C 268.390625 195.890625 267.722656 196.398438 267.023438 196.707031 C 266.53125 196.023438 266.710938 195.207031 266.613281 194.4375 C 266.449219 193.132812 265.960938 192.21875 264.425781 192.285156 C 263.347656 192.332031 262.613281 191.777344 262.273438 190.730469 C 262.257812 190.683594 262.222656 190.632812 262.191406 190.585938 C 261.441406 189.019531 259.5625 187.484375 262.335938 185.980469 C 261.703125 185.574219 261.246094 185.574219 260.984375 185.734375 C 258.648438 187.15625 257.734375 185.394531 256.675781 183.890625 C 256.542969 183.761719 256.414062 183.597656 256.300781 183.417969 Z M 256.300781 183.417969 " fill-opacity="1" fill-rule="nonzero"/><path fill="#be3344" d="M 298.960938 30.019531 C 294.78125 30.019531 290.621094 30.019531 286.441406 30.019531 C 285.757812 30.019531 285.527344 29.707031 285.480469 29.054688 C 285.234375 25.902344 285.984375 22.933594 287.0625 20.027344 C 287.257812 19.503906 287.667969 18.621094 288.382812 19.585938 C 289.003906 20.433594 289.414062 20.125 290.015625 19.601562 C 292.136719 17.742188 292.9375 17.902344 294.210938 20.402344 C 294.992188 21.921875 295.417969 23.570312 295.808594 25.234375 C 296.265625 27.144531 296.578125 29.167969 299.222656 29.5625 C 299.140625 29.707031 299.042969 29.871094 298.960938 30.019531 Z M 298.960938 30.019531 " fill-opacity="1" fill-rule="nonzero"/><path fill="#faeee6" d="M 230.1875 56.664062 C 230.203125 55.785156 229.550781 56.011719 229.0625 55.996094 C 224.933594 55.996094 220.804688 55.996094 216.675781 56.011719 C 216.789062 55.554688 216.96875 55.097656 216.984375 54.640625 C 217.035156 53.433594 217.328125 52.746094 218.796875 53.105469 C 220.070312 53.417969 220.445312 52.421875 220.507812 51.390625 C 220.574219 50.347656 220.460938 49.285156 221.113281 48.355469 C 223.804688 48.597656 226.515625 48.679688 229.207031 48.355469 C 230.074219 50.28125 231.230469 52.125 230.792969 54.429688 C 230.644531 55.195312 230.660156 55.996094 230.1875 56.664062 Z M 230.1875 56.664062 " fill-opacity="1" fill-rule="nonzero"/><path fill="#2e4e74" d="M 41.285156 7.128906 C 42 8.007812 42.753906 8.628906 43.714844 9.019531 C 46.113281 9.984375 47.972656 11.910156 50.421875 12.808594 C 50.863281 12.972656 50.699219 13.316406 50.585938 13.59375 C 50.339844 14.230469 50.046875 14.867188 49.800781 15.503906 C 48.546875 18.851562 48.1875 19.078125 44.660156 18.636719 C 44.007812 18.554688 43.535156 18.753906 43.0625 19.144531 C 42.539062 19.601562 41.9375 19.503906 41.414062 19.210938 C 40.808594 18.867188 41.332031 18.34375 41.382812 17.9375 C 41.445312 17.480469 41.675781 17.039062 41.871094 16.613281 C 42.148438 16.042969 42.246094 15.519531 41.804688 14.980469 C 39.832031 12.53125 40.828125 9.835938 41.285156 7.128906 Z M 41.285156 7.128906 " fill-opacity="1" fill-rule="nonzero"/><path fill="#f7f1ec" d="M 30.527344 55.6875 C 30.578125 55.765625 30.675781 55.867188 30.691406 55.945312 C 30.789062 56.566406 30.707031 57.613281 30.984375 57.710938 C 31.800781 58.003906 32.746094 57.921875 33.644531 58.003906 C 34.234375 58.054688 34.28125 57.660156 34.414062 57.21875 C 34.707031 56.226562 35.082031 55.246094 35.441406 54.25 C 35.832031 54.609375 35.882812 55.03125 35.996094 55.441406 C 36.777344 58.085938 36.796875 58.085938 39.554688 58.035156 C 39.960938 58.019531 40.386719 58.035156 41.21875 58.035156 C 40.171875 58.789062 39.4375 59.441406 38.589844 59.898438 C 37.726562 60.371094 37.511719 60.878906 37.953125 61.792969 C 38.3125 62.542969 38.460938 63.375 38.722656 64.207031 C 38.492188 64.207031 38.378906 64.242188 38.3125 64.207031 C 37.316406 63.554688 36.519531 62.117188 35.34375 62.332031 C 34.347656 62.511719 33.53125 63.671875 32.601562 64.421875 C 32.226562 63.6875 32.632812 63.179688 32.796875 62.65625 C 33.382812 60.648438 32.714844 59.277344 30.722656 58.625 C 30.609375 58.59375 30.398438 58.835938 30.21875 58.953125 C 30.5625 57.890625 30.511719 56.78125 30.527344 55.6875 Z M 30.527344 55.6875 " fill-opacity="1" fill-rule="nonzero"/><path fill="#f8f4ef" d="M 40.957031 26.199219 C 41.007812 26.183594 41.054688 26.132812 41.105469 26.132812 C 43.535156 26.214844 45.59375 25.773438 45.542969 22.523438 C 46.40625 23.046875 46.488281 23.617188 46.539062 24.171875 C 46.652344 25.675781 47.339844 26.34375 48.921875 26.035156 C 49.621094 25.886719 50.390625 26.019531 51.53125 26.019531 C 50.503906 26.753906 49.800781 27.339844 49.019531 27.796875 C 48.054688 28.351562 47.828125 28.988281 48.316406 30.003906 C 48.628906 30.65625 48.757812 31.40625 49.050781 32.335938 C 48.039062 31.976562 47.550781 31.292969 46.960938 30.753906 C 46.34375 30.183594 45.835938 29.921875 45.117188 30.6875 C 44.515625 31.324219 43.714844 31.78125 42.898438 32.386719 C 42.898438 32.074219 42.851562 31.894531 42.898438 31.78125 C 44.171875 29.429688 43.648438 27.714844 41.121094 26.703125 C 40.957031 26.640625 40.726562 26.492188 40.890625 26.230469 C 40.875 26.230469 40.957031 26.199219 40.957031 26.199219 Z M 40.957031 26.199219 " fill-opacity="1" fill-rule="nonzero"/><path fill="#bb344a" d="M 229.207031 48.355469 C 229.207031 48.714844 229.09375 48.957031 228.667969 48.957031 C 226.351562 48.957031 224.035156 48.957031 221.699219 48.941406 C 221.308594 48.941406 221.144531 48.699219 221.113281 48.355469 C 221.144531 48.320312 221.195312 48.273438 221.210938 48.242188 C 222.582031 45.351562 222.8125 45.285156 225.765625 46.722656 C 226.921875 47.277344 228.066406 47.816406 229.207031 48.355469 Z M 229.207031 48.355469 " fill-opacity="1" fill-rule="nonzero"/><path fill="#ad344a" d="M 283.601562 72.863281 C 283.375 71.753906 284.175781 71.296875 284.910156 70.804688 C 285.542969 70.363281 286.179688 69.941406 286.816406 69.515625 C 287.894531 69.140625 288.695312 68.355469 289.625 67.753906 C 290.113281 67.441406 290.683594 66.542969 291.175781 67.148438 C 291.597656 67.6875 290.703125 68.210938 290.261719 68.617188 C 288.320312 70.460938 286.117188 71.914062 283.601562 72.863281 Z M 283.601562 72.863281 " fill-opacity="1" fill-rule="nonzero"/><path fill="#ae3d4c" d="M 70.9375 200.625 C 70.886719 200.023438 71.261719 199.597656 71.003906 198.945312 C 70.742188 198.277344 74.25 195.628906 74.933594 195.90625 C 75.523438 196.152344 75.734375 196.527344 75.308594 197.132812 C 74.789062 197.882812 74.199219 198.570312 73.351562 198.960938 C 72.472656 199.386719 71.589844 199.777344 70.9375 200.625 Z M 70.9375 200.625 " fill-opacity="1" fill-rule="nonzero"/><path fill="#fbeee9" d="M 273.988281 86.757812 C 274.136719 84.929688 275.574219 82.96875 277.320312 82.332031 C 277.15625 83.867188 276.371094 85.011719 275.507812 86.105469 C 274.332031 84.75 274.445312 86.445312 273.988281 86.757812 Z M 273.988281 86.757812 " fill-opacity="1" fill-rule="nonzero"/><path fill="#b35564" d="M 39.457031 201.800781 C 41.007812 200.742188 42.554688 200.90625 44.105469 200.789062 C 43.289062 202.472656 42.230469 202.714844 39.457031 201.800781 Z M 39.457031 201.800781 " fill-opacity="1" fill-rule="nonzero"/><path fill="#aa5c65" d="M 85.820312 190.472656 C 85.671875 190.960938 85.460938 191.515625 84.957031 191.648438 C 84.449219 191.792969 84.417969 191.125 84.417969 190.894531 C 84.433594 190.371094 84.824219 189.933594 85.316406 189.800781 C 85.65625 189.703125 85.738281 190.160156 85.820312 190.472656 Z M 85.820312 190.472656 " fill-opacity="1" fill-rule="nonzero"/><path fill="#fbeee9" d="M 274.5625 93.238281 C 272.636719 92.847656 272.308594 92.292969 272.996094 90.59375 C 272.683594 91.964844 273.550781 92.652344 274.5625 93.238281 Z M 274.5625 93.238281 " fill-opacity="1" fill-rule="nonzero"/><path fill="#f6f2ee" d="M 119.914062 54.25 C 120.550781 55.066406 120.695312 56.027344 120.875 56.941406 C 121.070312 57.839844 121.445312 58.199219 122.378906 58.101562 C 123.308594 58.019531 124.269531 58.085938 125.609375 58.085938 C 124.5625 58.851562 123.828125 59.488281 122.980469 59.980469 C 122.179688 60.4375 121.953125 60.894531 122.378906 61.742188 C 122.753906 62.496094 123.015625 63.3125 123.03125 64.175781 C 122.914062 64.207031 122.800781 64.273438 122.738281 64.242188 C 121.742188 63.605469 121.023438 62.101562 119.816406 62.332031 C 118.804688 62.527344 117.972656 63.652344 116.992188 64.421875 C 116.796875 63.390625 117.285156 62.625 117.5625 61.859375 C 117.90625 60.894531 117.792969 60.289062 116.859375 59.769531 C 116.09375 59.34375 115.425781 58.753906 114.300781 57.921875 C 115.179688 57.921875 115.570312 57.921875 115.964844 57.921875 C 118.6875 57.90625 118.6875 57.890625 119.519531 55.328125 C 119.636719 55 119.765625 54.640625 119.914062 54.25 Z M 119.914062 54.25 " fill-opacity="1" fill-rule="nonzero"/><path fill="#f8f1ec" d="M 93.164062 36.664062 C 93.554688 36.535156 93.671875 36.453125 93.753906 36.46875 C 96.671875 37.054688 98.566406 36.222656 98.453125 33.171875 C 98.796875 32.828125 98.84375 32.859375 98.910156 33.007812 C 99.429688 34.148438 99.203125 35.863281 100.265625 36.433594 C 101.210938 36.941406 102.648438 36.550781 104.132812 36.550781 C 103.480469 37.496094 102.648438 37.953125 101.878906 38.394531 C 100.980469 38.917969 100.703125 39.441406 101.175781 40.4375 C 101.519531 41.136719 101.652344 41.9375 101.894531 42.722656 C 101.683594 42.738281 101.554688 42.785156 101.519531 42.753906 C 99.546875 40.46875 97.621094 40.515625 95.742188 43.34375 C 95.695312 43.179688 95.644531 43 95.597656 42.835938 C 95.824219 42.050781 95.972656 41.21875 96.296875 40.484375 C 96.789062 39.390625 96.476562 38.753906 95.464844 38.214844 C 94.714844 37.808594 94.0625 37.269531 93.164062 36.664062 Z M 93.164062 36.664062 " fill-opacity="1" fill-rule="nonzero"/><path fill="#f8f3ee" d="M 125.542969 36.613281 C 124.628906 37.285156 124.027344 37.886719 123.292969 38.246094 C 122.082031 38.851562 121.902344 39.636719 122.460938 40.796875 C 122.753906 41.398438 122.867188 42.085938 123.09375 42.851562 C 122.050781 42.640625 121.625 41.890625 121.054688 41.382812 C 120.320312 40.714844 119.699219 40.5 118.917969 41.316406 C 118.347656 41.921875 117.628906 42.394531 116.8125 43.066406 C 116.78125 42.035156 117.089844 41.269531 117.417969 40.550781 C 117.90625 39.472656 117.644531 38.785156 116.632812 38.214844 C 115.898438 37.808594 115.246094 37.285156 114.316406 36.632812 C 115.425781 36.289062 116.273438 36.417969 117.039062 36.582031 C 118.25 36.828125 118.804688 36.402344 119.015625 35.242188 C 119.164062 34.425781 119.472656 33.644531 119.734375 32.777344 C 119.914062 32.925781 119.996094 32.972656 120.027344 33.039062 C 120.632812 34.183594 120.253906 35.976562 121.496094 36.535156 C 122.558594 36.992188 123.976562 36.613281 125.542969 36.613281 Z M 125.542969 36.613281 " fill-opacity="1" fill-rule="nonzero"/><path fill="#f7f2ed" d="M 83.03125 58.019531 C 82.066406 58.707031 81.445312 59.277344 80.710938 59.652344 C 79.554688 60.257812 79.488281 61.042969 79.960938 62.136719 C 80.253906 62.789062 80.613281 63.472656 80.433594 64.324219 C 79.195312 63.882812 78.640625 62.070312 77.367188 62.316406 C 76.304688 62.511719 75.425781 63.636719 74.398438 64.386719 C 74.199219 62.902344 75.765625 61.695312 75.03125 60.519531 C 74.398438 59.523438 73.089844 58.933594 72.0625 58.152344 C 72.339844 57.757812 72.730469 57.9375 73.074219 57.9375 C 76.0625 57.90625 76.0625 57.921875 76.976562 54.949219 C 77.058594 54.707031 77.203125 54.476562 77.398438 54.054688 C 77.710938 55.03125 78.070312 55.816406 78.199219 56.632812 C 78.378906 57.855469 79.03125 58.183594 80.15625 58.035156 C 80.988281 57.9375 81.820312 58.019531 83.03125 58.019531 Z M 83.03125 58.019531 " fill-opacity="1" fill-rule="nonzero"/><path fill="#f9f2ed" d="M 80.433594 42.753906 C 79.144531 42.328125 78.507812 40.648438 77.367188 40.828125 C 76.355469 40.992188 75.507812 42.132812 74.398438 42.984375 C 74.265625 41.890625 74.691406 41.089844 74.984375 40.320312 C 75.375 39.34375 75.148438 38.785156 74.25 38.28125 C 73.464844 37.855469 72.765625 37.285156 72.03125 36.777344 C 72.160156 36.632812 72.210938 36.5 72.273438 36.484375 C 73.53125 36.304688 75.097656 37.023438 75.980469 36.257812 C 76.746094 35.570312 76.796875 34.050781 77.234375 32.664062 C 77.90625 33.675781 78.085938 34.589844 78.28125 35.472656 C 78.476562 36.371094 78.917969 36.664062 79.832031 36.582031 C 80.761719 36.484375 81.722656 36.566406 83.113281 36.566406 C 82.019531 37.332031 81.265625 37.988281 80.417969 38.410156 C 79.503906 38.882812 79.390625 39.421875 79.78125 40.304688 C 80.09375 41.039062 80.5 41.757812 80.433594 42.753906 Z M 80.433594 42.753906 " fill-opacity="1" fill-rule="nonzero"/><path fill="#f8f2ed" d="M 61.992188 58.347656 C 58.714844 59.390625 57.945312 61.382812 59.660156 64.503906 C 57.441406 61.644531 55.464844 61.890625 53.671875 64.40625 C 53.082031 64.027344 53.425781 63.71875 53.492188 63.472656 C 54.453125 60.160156 54.925781 60.828125 51.777344 58.707031 C 51.53125 58.542969 51.171875 58.476562 51.125 58.085938 C 51.5 57.808594 51.941406 57.9375 52.332031 57.921875 C 55.089844 57.875 55.089844 57.890625 55.921875 55.164062 C 56.019531 54.851562 56.117188 54.558594 56.25 54.132812 C 56.949219 54.933594 57 55.898438 57.195312 56.746094 C 57.421875 57.777344 57.863281 58.183594 58.925781 58.070312 C 59.804688 57.972656 60.703125 58.054688 61.601562 58.054688 C 61.730469 58.136719 61.863281 58.234375 61.992188 58.347656 Z M 61.992188 58.347656 " fill-opacity="1" fill-rule="nonzero"/><path fill="#f8f2ef" d="M 106.21875 32.515625 C 108.066406 29.25 106.972656 27.339844 103.578125 26.214844 C 104.6875 25.691406 105.371094 25.804688 105.992188 25.9375 C 107.558594 26.28125 108.503906 25.886719 108.652344 24.125 C 108.703125 23.519531 109.027344 22.933594 109.257812 22.296875 C 109.386719 22.394531 109.5 22.425781 109.5 22.476562 C 109.84375 25.707031 111.621094 26.851562 114.933594 25.742188 C 114.902344 25.886719 114.871094 26.050781 114.835938 26.199219 C 114.054688 26.769531 113.320312 27.421875 112.488281 27.878906 C 111.539062 28.386719 111.410156 28.988281 111.785156 29.921875 C 112.078125 30.640625 112.503906 31.359375 112.339844 32.207031 C 110.367188 30.34375 108.390625 29.578125 106.21875 32.515625 Z M 106.21875 32.515625 " fill-opacity="1" fill-rule="nonzero"/><path fill="#f7f2ee" d="M 87.992188 22.425781 C 88.464844 22.574219 88.382812 22.882812 88.464844 23.113281 C 89.410156 25.984375 89.410156 25.984375 92.460938 25.96875 C 92.773438 25.96875 93.066406 25.96875 93.882812 25.96875 C 92.820312 26.753906 92.183594 27.390625 91.417969 27.734375 C 90.160156 28.320312 90.0625 29.070312 90.585938 30.230469 C 90.863281 30.820312 91.222656 31.457031 91.058594 32.304688 C 90.78125 32.125 90.570312 31.996094 90.375 31.847656 C 88.039062 30.050781 88.039062 30.050781 85.804688 31.894531 C 85.609375 32.058594 85.394531 32.191406 85.117188 32.386719 C 84.957031 31.683594 85.183594 31.113281 85.429688 30.640625 C 86.308594 28.957031 85.722656 27.929688 84.140625 27.175781 C 83.648438 26.933594 83.226562 26.539062 82.378906 25.921875 C 83.632812 25.921875 84.480469 25.804688 85.28125 25.953125 C 86.472656 26.164062 87.027344 25.789062 87.222656 24.582031 C 87.355469 23.832031 87.730469 23.144531 87.992188 22.425781 Z M 87.992188 22.425781 " fill-opacity="1" fill-rule="nonzero"/><path fill="#f8f1ed" d="M 93.554688 57.90625 C 93.933594 57.90625 94.289062 57.90625 94.667969 57.90625 C 97.554688 57.9375 97.554688 57.9375 98.355469 55.082031 C 98.4375 54.769531 98.5 54.460938 98.875 54.25 C 99.039062 54.707031 99.203125 55.148438 99.332031 55.585938 C 100.117188 58.035156 100.117188 58.035156 102.726562 57.988281 C 103.136719 57.988281 103.527344 57.988281 103.902344 57.988281 C 103.9375 58.152344 103.96875 58.234375 103.953125 58.25 C 101.734375 59.652344 99.742188 61.140625 102.417969 64.324219 C 101.277344 64.128906 100.933594 63.734375 100.558594 63.425781 C 98.714844 61.859375 98.730469 61.859375 97 63.492188 C 96.671875 63.800781 96.414062 64.242188 95.890625 64.273438 C 95.855469 64.175781 95.808594 64.128906 95.808594 64.09375 C 97.113281 61.320312 96.429688 59.3125 93.164062 58.296875 C 93.296875 58.152344 93.425781 58.035156 93.554688 57.90625 Z M 93.554688 57.90625 " fill-opacity="1" fill-rule="nonzero"/><path fill="#f8f3f0" d="M 60.898438 26.148438 C 61.570312 25.96875 61.617188 25.953125 61.667969 25.9375 C 62.90625 25.757812 64.457031 26.476562 65.339844 25.675781 C 66.105469 24.972656 66.1875 23.503906 66.613281 22.246094 C 67.25 23.046875 67.429688 23.945312 67.589844 24.792969 C 67.804688 25.886719 68.324219 26.148438 69.355469 26.035156 C 70.25 25.9375 71.164062 26.019531 72.257812 26.019531 C 71.558594 26.898438 70.691406 27.390625 69.859375 27.863281 C 68.914062 28.402344 68.75 28.972656 69.191406 29.921875 C 69.515625 30.621094 69.695312 31.40625 69.957031 32.191406 C 69.730469 32.191406 69.632812 32.222656 69.550781 32.191406 C 68.472656 31.683594 67.917969 30.003906 66.644531 30.3125 C 65.632812 30.558594 64.832031 31.652344 63.625 32.402344 C 65.4375 29.269531 64.277344 27.375 60.898438 26.148438 Z M 60.898438 26.148438 " fill-opacity="1" fill-rule="nonzero"/><path fill="#f8f2ee" d="M 114.625 47.605469 C 114.070312 48.042969 113.597656 48.566406 113.007812 48.84375 C 111.574219 49.546875 111.34375 50.492188 112.046875 51.863281 C 112.273438 52.289062 112.570312 52.8125 112.324219 53.382812 C 111.132812 52.992188 110.429688 51.375 109.386719 51.488281 C 108.375 51.605469 107.460938 52.8125 106.433594 53.578125 C 106.367188 53.269531 106.269531 53.089844 106.320312 52.992188 C 107.851562 50.363281 106.5625 48.84375 104.261719 47.703125 C 104.148438 47.652344 104.082031 47.472656 103.886719 47.226562 C 104.898438 47.082031 105.761719 47.144531 106.628906 47.308594 C 107.609375 47.488281 108.195312 47.308594 108.40625 46.167969 C 108.570312 45.253906 108.765625 44.289062 109.371094 43.421875 C 109.550781 43.980469 109.714844 44.484375 109.875 44.992188 C 110.660156 47.425781 110.660156 47.425781 113.304688 47.375 C 113.710938 47.390625 114.152344 47.226562 114.625 47.605469 Z M 114.625 47.605469 " fill-opacity="1" fill-rule="nonzero"/><path fill="#f7f2ed" d="M 69.988281 75.636719 C 68.539062 75.132812 67.949219 73.320312 66.675781 73.613281 C 65.601562 73.875 64.71875 74.984375 63.707031 75.753906 C 63.65625 75.589844 63.59375 75.457031 63.625 75.410156 C 65.289062 72.585938 64.3125 70.691406 61.503906 69.285156 C 62.417969 69.285156 63.332031 69.171875 64.230469 69.320312 C 65.144531 69.464844 65.601562 69.320312 65.78125 68.324219 C 65.941406 67.457031 66.316406 66.640625 66.628906 65.761719 C 66.808594 65.875 66.90625 65.90625 66.9375 65.972656 C 67.492188 67.097656 67.25 68.847656 68.359375 69.351562 C 69.386719 69.808594 70.839844 69.351562 72.308594 69.285156 C 71.753906 70.121094 71.050781 70.480469 70.367188 70.820312 C 69.042969 71.476562 68.570312 72.324219 69.355469 73.726562 C 69.648438 74.21875 69.746094 74.855469 69.988281 75.636719 Z M 69.988281 75.636719 " fill-opacity="1" fill-rule="nonzero"/><path fill="#f8f2ed" d="M 126.996094 75.703125 C 128.988281 72.699219 127.941406 70.738281 124.957031 69.5625 C 125.496094 69.042969 125.871094 69.207031 126.195312 69.222656 C 129.085938 69.351562 129.085938 69.351562 129.949219 66.558594 C 130.015625 66.363281 130.082031 66.152344 130.179688 65.839844 C 131.011719 66.429688 131.058594 67.34375 131.191406 68.078125 C 131.402344 69.1875 131.859375 69.628906 133 69.449219 C 133.835938 69.320312 134.699219 69.320312 135.742188 69.253906 C 135.335938 70.101562 134.648438 70.445312 134.078125 70.757812 C 132.578125 71.539062 132.398438 72.570312 133.164062 73.972656 C 133.425781 74.460938 133.71875 74.984375 133.589844 75.65625 C 132.347656 75.164062 131.628906 73.5 130.441406 73.664062 C 129.394531 73.792969 128.480469 74.96875 127.5 75.6875 C 127.339844 75.6875 127.175781 75.703125 126.996094 75.703125 Z M 126.996094 75.703125 " fill-opacity="1" fill-rule="nonzero"/><path fill="#f9f3ef" d="M 51.011719 36.664062 C 54.078125 36.941406 56.214844 36.320312 56.003906 32.632812 C 56.332031 32.875 56.460938 32.925781 56.460938 32.992188 C 56.820312 36.15625 58.5 37.429688 61.894531 36.304688 C 61.847656 36.46875 61.78125 36.632812 61.730469 36.792969 C 61.015625 37.300781 60.34375 37.90625 59.5625 38.28125 C 58.5 38.804688 58.4375 39.488281 58.828125 40.46875 C 59.105469 41.1875 59.511719 41.90625 59.496094 42.820312 C 59.171875 42.625 58.875 42.492188 58.648438 42.3125 C 56.445312 40.617188 56.460938 40.617188 54.226562 42.394531 C 53.996094 42.574219 53.71875 42.722656 53.195312 42.917969 C 55.171875 39.832031 53.929688 37.96875 51.011719 36.664062 Z M 51.011719 36.664062 " fill-opacity="1" fill-rule="nonzero"/><path fill="#f9f4ef" d="M 42.492188 53.546875 C 44.402344 50.640625 43.632812 48.617188 40.222656 47.539062 C 40.351562 47.40625 40.46875 47.292969 40.597656 47.164062 C 41.183594 47.164062 41.839844 47.015625 42.375 47.195312 C 44.269531 47.816406 44.875 46.769531 45.199219 45.203125 C 45.3125 44.664062 45.511719 44.140625 45.691406 43.503906 C 46.390625 44.320312 46.503906 45.253906 46.683594 46.101562 C 46.914062 47.144531 47.386719 47.503906 48.429688 47.390625 C 49.296875 47.292969 50.175781 47.375 51.269531 47.488281 C 48.449219 48.761719 47.042969 50.511719 49.3125 53.578125 C 48.367188 53.480469 47.972656 53.074219 47.695312 52.730469 C 46.472656 51.210938 45.332031 51.390625 44.089844 52.714844 C 43.78125 53.074219 43.40625 53.53125 42.492188 53.546875 Z M 42.492188 53.546875 " fill-opacity="1" fill-rule="nonzero"/><path fill="#f7f3ed" d="M 71.835938 80.046875 C 75.050781 80.535156 77.253906 80.097656 77.171875 76.40625 C 77.496094 76.714844 77.628906 76.78125 77.644531 76.863281 C 78.070312 79.898438 79.601562 81.222656 83.0625 79.785156 C 82.3125 81.171875 81.347656 81.566406 80.53125 82.023438 C 79.570312 82.578125 79.488281 83.148438 79.929688 84.046875 C 80.238281 84.699219 80.550781 85.386719 80.566406 86.1875 C 79.863281 86.285156 79.457031 85.777344 79.128906 85.386719 C 78.019531 84.03125 77.039062 84.160156 75.964844 85.402344 C 75.589844 85.828125 75.066406 86.121094 74.640625 86.464844 C 74.296875 86.285156 74.445312 86.089844 74.496094 85.910156 C 75.390625 82.742188 75.390625 82.742188 72.75 80.832031 C 72.519531 80.667969 72.339844 80.488281 71.835938 80.046875 Z M 71.835938 80.046875 " fill-opacity="1" fill-rule="nonzero"/><path fill="#f8f1ec" d="M 93.3125 47.390625 C 90.878906 48.84375 89.117188 50.363281 91.613281 53.53125 C 90.292969 53.367188 89.851562 52.648438 89.3125 52.175781 C 88.480469 51.457031 87.828125 51.34375 87.011719 52.222656 C 86.488281 52.78125 85.886719 53.351562 84.761719 53.742188 C 86.621094 50.691406 85.753906 48.679688 82.605469 47.472656 C 83.648438 47.113281 84.53125 47.144531 85.378906 47.324219 C 86.488281 47.570312 87.0625 47.195312 87.242188 46.050781 C 87.371094 45.269531 87.679688 44.519531 87.941406 43.652344 C 88.789062 44.355469 88.789062 45.367188 89.003906 46.214844 C 89.246094 47.179688 89.640625 47.554688 90.652344 47.425781 C 91.515625 47.308594 92.414062 47.390625 93.3125 47.390625 Z M 93.3125 47.390625 " fill-opacity="1" fill-rule="nonzero"/><path fill="#f8f3ee" d="M 50.960938 80.128906 C 51.304688 80.078125 51.351562 80.078125 51.402344 80.0625 C 52.640625 79.851562 54.160156 80.734375 55.042969 79.933594 C 55.824219 79.214844 55.890625 77.726562 56.332031 76.4375 C 57.082031 77.335938 57.164062 78.363281 57.375 79.296875 C 57.570312 80.144531 57.945312 80.453125 58.792969 80.308594 C 59.757812 80.144531 60.753906 80.046875 62.222656 80.257812 C 61.0625 81.011719 60.328125 81.582031 59.511719 81.988281 C 58.597656 82.464844 58.484375 83.035156 58.875 83.917969 C 59.203125 84.636719 59.398438 85.402344 59.757812 86.398438 C 58.679688 85.988281 58.058594 85.351562 57.441406 84.78125 C 56.738281 84.128906 56.265625 84.144531 55.597656 84.832031 C 55.023438 85.433594 54.273438 85.875 53.652344 86.367188 C 53.246094 86.234375 53.441406 86.023438 53.492188 85.84375 C 54.308594 82.691406 54.308594 82.691406 51.566406 80.667969 C 51.402344 80.585938 51.269531 80.4375 50.960938 80.128906 Z M 50.960938 80.128906 " fill-opacity="1" fill-rule="nonzero"/><path fill="#f6f2ee" d="M 82.835938 69.253906 C 83.863281 69.253906 84.808594 69.15625 85.707031 69.285156 C 86.636719 69.417969 87.0625 69.222656 87.207031 68.242188 C 87.339844 67.425781 87.730469 66.65625 87.992188 65.921875 C 88.300781 65.777344 88.316406 65.988281 88.382812 66.121094 C 88.9375 67.179688 88.59375 68.847656 89.738281 69.335938 C 90.78125 69.777344 92.136719 69.433594 93.410156 69.433594 C 92.9375 70.199219 92.105469 70.691406 91.320312 71.148438 C 90.421875 71.671875 90.160156 72.175781 90.601562 73.171875 C 90.914062 73.875 91.304688 74.609375 91.238281 75.605469 C 90.457031 75.378906 89.980469 74.820312 89.523438 74.316406 C 88.660156 73.351562 87.894531 73.367188 87.011719 74.265625 C 86.507812 74.789062 85.871094 75.179688 84.988281 75.507812 C 85.136719 75 85.199219 74.445312 85.460938 73.988281 C 86.375 72.324219 85.851562 71.277344 84.222656 70.511719 C 83.746094 70.25 83.160156 70.039062 82.835938 69.253906 Z M 82.835938 69.253906 " fill-opacity="1" fill-rule="nonzero"/><path fill="#f8f2ef" d="M 109.273438 65.433594 C 109.515625 65.957031 109.632812 66.136719 109.695312 66.332031 C 110.96875 69.695312 110.96875 69.695312 114.773438 69.304688 C 114.398438 70.054688 113.726562 70.398438 113.15625 70.707031 C 111.671875 71.476562 111.230469 72.453125 112.097656 73.957031 C 112.339844 74.398438 112.570312 74.917969 112.324219 75.539062 C 111.214844 75 110.511719 73.402344 109.386719 73.582031 C 108.34375 73.746094 107.445312 74.902344 106.417969 75.6875 C 106.269531 74.691406 106.628906 73.957031 106.953125 73.269531 C 107.476562 72.160156 107.132812 71.523438 106.140625 70.984375 C 105.40625 70.59375 104.75 70.039062 103.804688 69.367188 C 104.929688 69.074219 105.8125 69.105469 106.628906 69.335938 C 107.886719 69.679688 108.359375 69.125 108.585938 68.011719 C 108.734375 67.246094 108.980469 66.496094 109.273438 65.433594 Z M 109.273438 65.433594 " fill-opacity="1" fill-rule="nonzero"/><path fill="#f7f2ee" d="M 124.859375 25.984375 C 126.066406 25.984375 126.945312 25.902344 127.8125 26.003906 C 128.855469 26.132812 129.378906 25.804688 129.558594 24.761719 C 129.6875 23.992188 129.984375 23.257812 130.226562 22.425781 C 131.074219 23.097656 131.109375 23.992188 131.207031 24.746094 C 131.351562 25.984375 131.972656 26.164062 133.050781 26.082031 C 133.835938 26.019531 135.007812 25.445312 135.320312 26.28125 C 135.546875 26.898438 134.339844 27.390625 133.65625 27.734375 C 132.542969 28.289062 132.445312 28.988281 132.902344 30.035156 C 133.179688 30.6875 133.605469 31.359375 133.457031 32.273438 C 132.429688 31.554688 131.515625 30.410156 130.488281 30.296875 C 129.378906 30.164062 128.675781 31.734375 127.484375 32.289062 C 127.289062 31.277344 127.828125 30.492188 128.105469 29.691406 C 128.382812 28.875 128.335938 28.335938 127.5 27.863281 C 126.652344 27.375 125.886719 26.71875 124.859375 25.984375 Z M 124.859375 25.984375 " fill-opacity="1" fill-rule="nonzero"/><path fill="#f8f2ed" d="M 122.914062 86.886719 C 120.941406 83.785156 119.082031 84.277344 117.238281 86.367188 C 117.1875 86.414062 117.039062 86.367188 116.941406 86.367188 C 118.101562 83.574219 117.628906 81.433594 114.136719 80.488281 C 114.28125 80.375 114.414062 80.273438 114.558594 80.160156 C 115.425781 80.160156 116.324219 79.996094 117.121094 80.195312 C 118.3125 80.488281 118.753906 80.046875 119 78.96875 C 119.164062 78.203125 119.488281 77.46875 119.800781 76.570312 C 120.417969 77.386719 120.550781 78.25 120.730469 79.050781 C 120.957031 80.0625 121.414062 80.488281 122.476562 80.324219 C 123.339844 80.195312 124.222656 80.210938 125.234375 80.519531 C 124.515625 81.027344 123.863281 81.628906 123.078125 82.007812 C 122.003906 82.527344 121.9375 83.199219 122.394531 84.175781 C 122.6875 84.832031 123.046875 85.515625 122.914062 86.886719 Z M 122.914062 86.886719 " fill-opacity="1" fill-rule="nonzero"/><path fill="#f8f2ec" d="M 104.195312 80.144531 C 104.097656 80.40625 104.097656 80.535156 104.015625 80.585938 C 103.054688 81.320312 101.699219 81.84375 101.195312 82.824219 C 100.671875 83.820312 101.929688 85.027344 101.894531 86.269531 C 101.4375 86.367188 101.242188 85.972656 100.980469 85.777344 C 98.84375 84.242188 98.84375 84.226562 96.804688 85.808594 C 96.511719 86.039062 96.265625 86.332031 95.824219 86.347656 C 95.660156 85.566406 96.054688 84.894531 96.363281 84.242188 C 96.917969 83.035156 96.59375 82.285156 95.449219 81.695312 C 94.765625 81.335938 94.03125 81.011719 93.441406 80.175781 C 94.46875 79.917969 95.417969 79.996094 96.3125 80.144531 C 97.292969 80.292969 97.78125 80.03125 97.980469 79.035156 C 98.140625 78.21875 98.453125 77.417969 98.761719 76.40625 C 98.992188 76.945312 99.152344 77.253906 99.269531 77.582031 C 100.214844 80.40625 100.214844 80.40625 103.136719 80.226562 C 103.445312 80.210938 103.757812 80.175781 104.195312 80.144531 Z M 104.195312 80.144531 " fill-opacity="1" fill-rule="nonzero"/><path fill="#f9f2ed" d="M 133.636719 53.644531 C 131.433594 51.046875 129.476562 51.261719 127.324219 53.726562 C 128.855469 50.671875 128.136719 48.699219 125.167969 47.75 C 125.445312 47.113281 125.820312 47.261719 126.097656 47.261719 C 129.117188 47.195312 129.117188 47.195312 130.0625 44.191406 C 130.128906 43.996094 130.242188 43.816406 130.339844 43.636719 C 130.699219 43.585938 130.683594 43.882812 130.699219 44.011719 C 131.011719 46.445312 131.875 48.160156 134.8125 47.292969 C 134.960938 47.246094 135.238281 47.359375 135.351562 47.488281 C 135.515625 47.683594 135.367188 47.914062 135.171875 48.011719 C 132.691406 49.171875 132.070312 50.902344 133.636719 53.644531 Z M 133.636719 53.644531 " fill-opacity="1" fill-rule="nonzero"/><path fill="#f8f4ee" d="M 41.054688 80.0625 C 40.027344 81.371094 38.3125 81.597656 37.839844 82.742188 C 37.382812 83.851562 38.65625 85.027344 38.785156 86.300781 C 38.640625 86.316406 38.574219 86.347656 38.558594 86.332031 C 36.582031 84.113281 34.625 83.867188 32.765625 86.496094 C 32.191406 85.828125 32.648438 85.433594 32.78125 85.042969 C 33.710938 82.480469 33.875 82.871094 31.671875 81.386719 C 31.230469 81.089844 30.839844 80.75 30.21875 80.273438 C 31.199219 79.933594 31.996094 80.03125 32.714844 80.175781 C 33.988281 80.421875 34.542969 79.949219 34.738281 78.722656 C 34.851562 78.003906 35.179688 77.304688 35.457031 76.519531 C 36.242188 77.222656 36.339844 78.152344 36.46875 78.984375 C 36.664062 80.273438 37.332031 80.519531 38.460938 80.324219 C 39.210938 80.160156 40.011719 80.144531 41.054688 80.0625 Z M 41.054688 80.0625 " fill-opacity="1" fill-rule="nonzero"/><path fill="#f9f4ef" d="M 61.488281 47.226562 C 62.824219 47.066406 64.410156 47.898438 65.257812 47.144531 C 66.074219 46.429688 66.15625 44.859375 66.695312 43.277344 C 67.070312 44.484375 67.410156 45.316406 67.558594 46.199219 C 67.722656 47.210938 68.226562 47.503906 69.191406 47.40625 C 70.070312 47.324219 70.984375 47.390625 71.882812 47.390625 C 71.867188 47.503906 71.898438 47.667969 71.851562 47.683594 C 69.417969 48.941406 67.851562 50.511719 70.316406 53.695312 C 68.898438 53.203125 68.34375 52.550781 67.769531 52.011719 C 67.085938 51.375 66.628906 51.34375 65.941406 52.027344 C 65.371094 52.617188 64.621094 53.039062 63.933594 53.53125 C 63.59375 53.089844 63.789062 52.746094 63.886719 52.402344 C 64.652344 49.675781 64.652344 49.695312 62.367188 48.175781 C 62.058594 47.945312 61.570312 47.863281 61.488281 47.226562 Z M 61.488281 47.226562 " fill-opacity="1" fill-rule="nonzero"/><path fill="#f7f2ed" d="M 51.289062 69.53125 C 50.570312 70.039062 49.898438 70.625 49.132812 71.050781 C 48.121094 71.605469 47.8125 72.273438 48.351562 73.351562 C 48.660156 74.003906 48.808594 74.742188 49.019531 75.441406 C 48.824219 75.492188 48.675781 75.558594 48.644531 75.523438 C 46.652344 72.960938 44.710938 73.417969 42.703125 76.160156 C 42.785156 74.265625 44.105469 72.976562 43.585938 71.867188 C 43.109375 70.839844 41.691406 70.265625 40.695312 69.484375 C 40.679688 69.464844 40.695312 69.386719 40.695312 69.304688 C 40.941406 69.027344 41.265625 69.207031 41.5625 69.207031 C 44.5625 69.285156 44.5625 69.285156 45.527344 66.363281 C 45.59375 66.183594 45.640625 65.988281 45.722656 65.742188 C 46.34375 66.28125 46.488281 66.984375 46.570312 67.636719 C 46.78125 69.304688 47.695312 69.695312 49.199219 69.402344 C 49.835938 69.269531 50.519531 69.304688 51.171875 69.269531 C 51.207031 69.367188 51.238281 69.449219 51.289062 69.53125 Z M 51.289062 69.53125 " fill-opacity="1" fill-rule="nonzero"/><path fill="#f0f3f4" d="M 46.015625 13.28125 C 46.570312 14.066406 46.945312 14.574219 47.273438 15.09375 C 47.617188 15.632812 47.632812 16.1875 47.222656 16.726562 C 46.945312 17.085938 46.539062 17.101562 46.210938 16.90625 C 45.65625 16.566406 45.136719 16.109375 45.296875 15.371094 C 45.414062 14.753906 45.691406 14.179688 46.015625 13.28125 Z M 46.015625 13.28125 " fill-opacity="1" fill-rule="nonzero"/></svg>