<svg version="1.2" xmlns="http://www.w3.org/2000/svg" viewBox="0 0 328 168" width="328" height="168">
	<title>Copy of Copy of Black And Red Modern Car Detailing Service Banner (32 x 83 in) (2)-svg</title>
	<defs>
		<clipPath clipPathUnits="userSpaceOnUse" id="cp1">
			<path d="m0.37 1h326.76v166h-326.76z"/>
		</clipPath>
		<clipPath clipPathUnits="userSpaceOnUse" id="cp2">
			<path d="m240 66h29.59v30h-29.59z"/>
		</clipPath>
	</defs>
	<style>
		.s0 { fill: #413f4d } 
	</style>
	<g id="Clip-Path" clip-path="url(#cp1)">
		<g id="Layer">
		</g>
	</g>
	<path id="Layer" class="s0" d="m59.2 80.7q0-1.4 0.3-2.8 0.2-1.4 0.8-2.7 0.5-1.4 1.3-2.5 0.8-1.2 1.8-2.2 1-1.1 2.1-1.9 1.2-0.8 2.5-1.3 1.3-0.6 2.7-0.9 1.4-0.2 2.9-0.2 1.4-0.1 2.8 0.2 1.4 0.3 2.7 0.8 1.3 0.6 2.5 1.3 1.2 0.8 2.2 1.8 1 1 1.8 2.2 0.8 1.2 1.3 2.5 0.6 1.3 0.9 2.7 0.2 1.4 0.2 2.8 0.1 1.4-0.2 2.8-0.3 1.4-0.8 2.7-0.6 1.4-1.4 2.5-0.8 1.2-1.8 2.2-1 1-2.1 1.8-1.2 0.8-2.5 1.4-1.3 0.5-2.7 0.8-1.4 0.3-2.9 0.3-1.4 0-2.8-0.3-1.3-0.3-2.7-0.8-1.3-0.5-2.4-1.3-1.2-0.8-2.2-1.8-1-1-1.8-2.1-0.8-1.2-1.4-2.5-0.5-1.3-0.8-2.7-0.3-1.4-0.3-2.8z"/>
	<path id="Layer" class="s0" d="m133.3 80.7q0 1.4-0.3 2.8-0.3 1.4-0.8 2.7-0.5 1.3-1.3 2.5-0.8 1.2-1.8 2.2-1 1.1-2.1 1.8-1.2 0.8-2.5 1.4-1.3 0.6-2.7 0.8-1.4 0.3-2.9 0.3-1.4 0-2.8-0.2-1.4-0.3-2.7-0.8-1.3-0.6-2.5-1.3-1.2-0.8-2.2-1.8-1-1-1.8-2.2-0.8-1.2-1.3-2.5-0.6-1.3-0.9-2.7-0.2-1.4-0.3-2.8 0-1.4 0.3-2.8 0.3-1.4 0.8-2.7 0.6-1.4 1.4-2.5 0.7-1.2 1.8-2.2 1-1 2.1-1.8 1.2-0.8 2.5-1.4 1.3-0.5 2.7-0.8 1.4-0.3 2.9-0.3 1.4 0 2.8 0.3 1.3 0.3 2.6 0.8 1.4 0.5 2.5 1.3 1.2 0.8 2.2 1.8 1 1 1.8 2.1 0.8 1.2 1.3 2.5 0.6 1.3 0.9 2.7 0.3 1.4 0.3 2.8z"/>
	<path id="Layer" class="s0" d="m178.5 80.7q0 1.4-0.2 2.8-0.3 1.4-0.8 2.7-0.6 1.3-1.3 2.5-0.8 1.2-1.8 2.2-1 1.1-2.2 1.8-1.2 0.8-2.5 1.4-1.3 0.6-2.7 0.8-1.4 0.3-2.8 0.3-1.4 0-2.8-0.2-1.4-0.3-2.7-0.8-1.3-0.6-2.5-1.3-1.2-0.8-2.2-1.8-1-1-1.8-2.2-0.8-1.2-1.4-2.5-0.5-1.3-0.8-2.7-0.3-1.4-0.3-2.8 0-1.4 0.3-2.8 0.3-1.4 0.8-2.7 0.5-1.4 1.3-2.5 0.8-1.2 1.8-2.2 1-1 2.2-1.8 1.2-0.8 2.5-1.4 1.3-0.5 2.7-0.8 1.4-0.3 2.8-0.3 1.4 0 2.8 0.3 1.4 0.3 2.7 0.8 1.3 0.5 2.5 1.3 1.2 0.8 2.2 1.8 1 1 1.8 2.1 0.8 1.2 1.3 2.5 0.6 1.3 0.8 2.7 0.3 1.4 0.3 2.8z"/>
	<path id="Layer" class="s0" d="m223.8 80.7q0 1.4-0.3 2.8-0.2 1.4-0.8 2.7-0.5 1.3-1.3 2.5-0.8 1.2-1.8 2.2-1 1.1-2.1 1.8-1.2 0.8-2.5 1.4-1.3 0.6-2.7 0.8-1.4 0.3-2.8 0.3-1.5 0-2.9-0.2-1.4-0.3-2.7-0.8-1.3-0.6-2.5-1.3-1.2-0.8-2.2-1.8-1-1-1.8-2.2-0.8-1.2-1.3-2.5-0.6-1.3-0.9-2.7-0.2-1.4-0.2-2.8 0-1.4 0.2-2.8 0.3-1.4 0.8-2.7 0.6-1.4 1.4-2.5 0.8-1.2 1.8-2.2 1-1 2.1-1.8 1.2-0.8 2.5-1.4 1.4-0.5 2.7-0.8 1.4-0.3 2.9-0.3 1.4 0 2.8 0.3 1.3 0.3 2.7 0.8 1.3 0.5 2.4 1.3 1.2 0.8 2.2 1.8 1 1 1.8 2.1 0.8 1.2 1.4 2.5 0.5 1.3 0.8 2.7 0.3 1.4 0.3 2.8z"/>
	<g id="Clip-Path" clip-path="url(#cp2)">
		<g id="Layer">
			<path id="Layer" class="s0" d="m269 80.7q0 1.4-0.2 2.8-0.3 1.4-0.8 2.7-0.6 1.3-1.3 2.5-0.8 1.2-1.8 2.2-1 1.1-2.2 1.8-1.2 0.8-2.5 1.4-1.3 0.6-2.7 0.8-1.4 0.3-2.8 0.3-1.4 0-2.8-0.2-1.4-0.3-2.7-0.8-1.4-0.6-2.5-1.3-1.2-0.8-2.2-1.8-1-1-1.8-2.2-0.8-1.2-1.4-2.5-0.5-1.3-0.8-2.7-0.3-1.4-0.3-2.8 0-1.4 0.3-2.8 0.2-1.4 0.8-2.7 0.5-1.4 1.3-2.5 0.8-1.2 1.8-2.2 1-1 2.2-1.8 1.2-0.8 2.5-1.4 1.3-0.5 2.7-0.8 1.4-0.3 2.8-0.3 1.4 0 2.8 0.3 1.4 0.3 2.7 0.8 1.3 0.5 2.5 1.3 1.2 0.8 2.2 1.8 1 1 1.8 2.1 0.7 1.2 1.3 2.5 0.5 1.3 0.8 2.7 0.3 1.4 0.3 2.8z"/>
		</g>
	</g>
</svg>