<svg xmlns="http://www.w3.org/2000/svg" xmlns:xlink="http://www.w3.org/1999/xlink" width="276" zoomAndPan="magnify" viewBox="0 0 206.87999 228.749995" height="305" preserveAspectRatio="xMidYMid meet" version="1.0"><defs><clipPath id="2260369d9c"><path d="M 0.0546875 0 L 206.707031 0 L 206.707031 228.5 L 0.0546875 228.5 Z M 0.0546875 0 " clip-rule="nonzero"/></clipPath><clipPath id="9625185947"><path d="M 0.664062 10.265625 L 180.457031 10.265625 L 180.457031 219.339844 L 0.664062 219.339844 Z M 0.664062 10.265625 " clip-rule="nonzero"/></clipPath><clipPath id="ce489dc8cd"><path d="M 148.878906 0.585938 L 206.691406 0.585938 L 206.691406 52.539062 L 148.878906 52.539062 Z M 148.878906 0.585938 " clip-rule="nonzero"/></clipPath><clipPath id="4a99419d35"><path d="M 15 215.011719 L 31.734375 215.011719 L 31.734375 219.339844 L 15 219.339844 Z M 15 215.011719 " clip-rule="nonzero"/></clipPath></defs><g clip-path="url(#2260369d9c)"><path fill="#ffffff" d="M 0.0546875 0 L 206.828125 0 L 206.828125 228.5 L 0.0546875 228.5 Z M 0.0546875 0 " fill-opacity="1" fill-rule="nonzero"/></g><path fill="#2b202a" d="M 191.703125 140.847656 C 191.703125 140.847656 172.746094 149.4375 155.410156 147.828125 C 155.410156 147.828125 113.960938 119.433594 93.417969 117.351562 C 93.417969 117.351562 63.382812 126.429688 56.027344 127.039062 L 29.210938 139.148438 C 29.210938 139.148438 18.355469 155.609375 10.90625 162.515625 C 10.90625 162.515625 14.878906 174.03125 28.621094 167.222656 L 31.023438 163.5 C 31.023438 163.5 19.324219 170.636719 14.214844 161.542969 C 14.214844 161.542969 21.277344 153.824219 32.335938 141.34375 L 57.460938 129.433594 C 57.460938 129.433594 73.46875 129.492188 92.980469 123.121094 C 92.980469 123.121094 128.230469 133.410156 154.726562 151.625 C 154.726562 151.625 168.121094 153.710938 191.703125 140.847656 " fill-opacity="1" fill-rule="nonzero"/><path fill="#2b202a" d="M 95.988281 144.753906 C 95.988281 144.753906 93.757812 157.785156 80.421875 162.453125 C 80.421875 162.453125 63.613281 166.78125 57 167.199219 C 57 167.199219 42.191406 162.90625 33.753906 167.167969 C 25.320312 171.429688 29.515625 179.300781 32.605469 181.210938 C 35.691406 183.125 36.921875 186.972656 77.144531 180.945312 C 117.367188 174.925781 128.785156 201.535156 152.976562 171.738281 C 152.976562 171.738281 143.746094 196.101562 125.398438 190.902344 C 107.054688 185.695312 87.574219 182.15625 64.484375 184.960938 C 41.402344 187.761719 29.988281 186.453125 27.824219 174.902344 L 38.363281 158.039062 C 38.363281 158.039062 39.917969 162.992188 47.847656 162.410156 C 55.773438 161.828125 66.128906 159.238281 62.820312 152.402344 C 62.820312 152.402344 64.132812 160.050781 70.835938 160.382812 C 77.542969 160.710938 89.164062 157.585938 95.988281 144.753906 " fill-opacity="1" fill-rule="nonzero"/><path fill="#2b202a" d="M 82.144531 159.386719 C 82.144531 159.386719 88.089844 150.289062 84.644531 136.042969 C 84.644531 136.042969 90.277344 147.925781 86.46875 157.335938 L 82.144531 159.386719 " fill-opacity="1" fill-rule="nonzero"/><path fill="#2b202a" d="M 86.296875 146.503906 C 86.296875 146.503906 77.570312 153.085938 63.382812 146.046875 C 63.382812 146.046875 45.691406 155.625 40.765625 154.316406 L 41.949219 151.511719 C 41.949219 151.511719 50.082031 152.613281 59.808594 141.722656 C 59.808594 141.722656 66.726562 150.027344 86.21875 142.703125 L 86.296875 146.503906 " fill-opacity="1" fill-rule="nonzero"/><path fill="#2b202a" d="M 89.496094 163.449219 C 89.496094 163.449219 96.542969 160.308594 99.792969 149.433594 C 99.792969 149.433594 100.902344 161.683594 89.496094 163.449219 " fill-opacity="1" fill-rule="nonzero"/><path fill="#2b202a" d="M 32.257812 173.636719 C 32.257812 173.636719 32.105469 169.273438 37.316406 168.261719 C 42.527344 167.246094 47.304688 168.949219 47.304688 168.949219 C 47.304688 168.949219 48.878906 175.617188 46.554688 181.617188 C 46.554688 181.617188 47.269531 173.339844 45.46875 171.082031 C 45.46875 171.082031 34.949219 167.59375 32.257812 173.636719 " fill-opacity="1" fill-rule="nonzero"/><path fill="#2b202a" d="M 23.496094 150.125 L 27.65625 154.574219 C 27.65625 154.574219 21.554688 162.363281 16.796875 160.84375 C 16.796875 160.84375 21.511719 160.460938 25.566406 154.636719 L 21.804688 151.855469 L 23.496094 150.125 " fill-opacity="1" fill-rule="nonzero"/><path fill="#2b202a" d="M 28.578125 176.105469 L 21.808594 187.785156 C 21.808594 187.785156 27.695312 193.929688 34.160156 182.855469 C 34.160156 182.855469 29.308594 182.109375 28.578125 176.105469 " fill-opacity="1" fill-rule="nonzero"/><path fill="#2b202a" d="M 49.875 185.398438 C 49.875 185.398438 51.695312 194.128906 51.511719 200.441406 C 51.511719 200.441406 66.757812 206.78125 64.847656 183.207031 L 61.933594 184.316406 C 61.933594 184.316406 64.046875 203.300781 52.832031 198.757812 C 52.832031 198.757812 53.238281 189.5625 51.332031 184.847656 L 49.875 185.398438 " fill-opacity="1" fill-rule="nonzero"/><path fill="#2b202a" d="M 54.167969 184.683594 C 54.167969 184.683594 58.597656 199.199219 51.859375 195.449219 L 51.992188 196.570312 C 51.992188 196.570312 59.976562 201.128906 55.484375 184.527344 L 54.167969 184.683594 " fill-opacity="1" fill-rule="nonzero"/><path fill="#2b202a" d="M 63.382812 193.089844 C 63.382812 193.089844 70.65625 198.113281 71.296875 182.992188 L 63.4375 184.132812 L 63.382812 193.089844 " fill-opacity="1" fill-rule="nonzero"/><g clip-path="url(#9625185947)"><path fill="#2b202a" d="M 0.664062 219.378906 C 11.890625 202.015625 17.148438 201.375 17.148438 201.375 C 20.914062 192.9375 24.800781 184.832031 28.785156 177.042969 L 27.824219 174.902344 C 23.53125 183.097656 19.40625 191.363281 16.265625 198.429688 C 16.265625 198.429688 15.460938 197.675781 11.667969 201.707031 C 11.667969 201.707031 35.167969 150.566406 50.335938 134.296875 C 50.335938 134.296875 39.226562 153.652344 29.984375 170.804688 L 34.519531 166.171875 C 97.558594 50.128906 180.261719 10.527344 180.261719 10.527344 C 65.253906 61.058594 0.664062 219.378906 0.664062 219.378906 " fill-opacity="1" fill-rule="nonzero"/></g><path fill="#2b202a" d="M 145.914062 181.40625 C 145.914062 181.40625 151 179.789062 160.597656 182.34375 C 170.191406 184.886719 170.640625 182.691406 173.492188 181.492188 C 173.492188 181.492188 168.957031 186.464844 161.292969 184.535156 C 153.632812 182.613281 144.9375 183.953125 141.433594 185.671875 L 145.914062 181.40625 " fill-opacity="1" fill-rule="nonzero"/><path fill="#2b202a" d="M 55.835938 124.679688 C 55.835938 124.679688 43.128906 109.460938 53.226562 85.945312 C 53.226562 85.945312 54.054688 91.179688 55.3125 93.695312 C 55.3125 93.695312 58.070312 83.453125 62.199219 76.664062 C 62.199219 76.664062 62.445312 80.253906 63.136719 82.839844 C 63.136719 82.839844 66.210938 75.230469 71.417969 69.453125 C 71.417969 69.453125 64.058594 81.015625 64.871094 89.296875 C 64.871094 89.296875 62.070312 86.585938 60.996094 84.050781 C 60.996094 84.050781 56.722656 92.761719 57.957031 101.375 C 57.957031 101.375 53.75 96.550781 53.0625 93.96875 C 53.0625 93.96875 51.101562 110.777344 58.925781 120.300781 L 55.835938 124.679688 " fill-opacity="1" fill-rule="nonzero"/><path fill="#2b202a" d="M 61.035156 120.425781 C 61.035156 120.425781 73.25 120.65625 84.773438 112.023438 C 96.296875 103.386719 95.296875 101.410156 100.980469 99.582031 C 100.980469 99.582031 94.25 99.0625 87.625 102.535156 C 87.625 102.535156 96.53125 97.449219 100.339844 94.324219 C 104.152344 91.191406 115.628906 82.183594 123.574219 83.308594 C 131.523438 84.441406 126.484375 90.007812 125.589844 90.496094 C 125.589844 90.496094 129.394531 88.890625 129.292969 84.90625 C 129.191406 80.917969 122.582031 78.289062 115.65625 80.84375 C 108.730469 83.398438 86.074219 102.339844 77.101562 106.859375 L 84.867188 106.488281 C 84.867188 106.488281 75.613281 116.558594 62.496094 118.347656 L 61.035156 120.425781 " fill-opacity="1" fill-rule="nonzero"/><path fill="#2b202a" d="M 108.714844 80.160156 C 108.714844 80.160156 138.054688 67.648438 137.167969 79.183594 C 137.167969 79.183594 146.589844 61.089844 108.714844 80.160156 " fill-opacity="1" fill-rule="nonzero"/><path fill="#2b202a" d="M 75.839844 58.820312 C 75.839844 58.820312 79.808594 50.71875 82.261719 47.375 L 82.195312 53.097656 C 82.195312 53.097656 89.078125 42.359375 99.976562 31.703125 L 98.542969 38.734375 C 98.542969 38.734375 109.765625 29.179688 119.40625 22.292969 C 119.40625 22.292969 118.578125 24.871094 118.3125 25.855469 C 118.3125 25.855469 126.613281 20.46875 135.234375 16.179688 C 135.234375 16.179688 120.636719 26.144531 114.671875 33.535156 L 115.511719 27.910156 C 115.511719 27.910156 104.75 34.929688 95.320312 48.265625 C 95.320312 48.265625 94.210938 43.832031 94.613281 40.921875 C 94.613281 40.921875 88.171875 47.421875 81.226562 60.835938 L 80.621094 52.714844 L 75.839844 58.820312 " fill-opacity="1" fill-rule="nonzero"/><g clip-path="url(#ce489dc8cd)"><path fill="#2b202a" d="M 168.007812 0.585938 L 165.4375 6.039062 C 165.4375 6.039062 186.113281 0.671875 199.40625 1.914062 L 193.734375 6.984375 C 193.734375 6.984375 202.082031 8.257812 206.730469 13.59375 C 206.730469 13.59375 185.535156 17.882812 171.777344 28.507812 L 181.839844 29.761719 C 181.839844 29.761719 166.191406 37.378906 163.105469 40.226562 L 169.671875 40.957031 C 169.671875 40.957031 159.902344 43.660156 148.964844 52.417969 C 148.964844 52.417969 157.363281 44.734375 161.601562 41.9375 L 154.402344 40.710938 C 154.402344 40.710938 162.890625 35.300781 174.066406 31.65625 L 165.773438 29.238281 C 165.773438 29.238281 181.546875 17.984375 197.589844 12.042969 C 197.589844 12.042969 192.058594 10.425781 186.613281 11.085938 L 191.117188 4.253906 C 191.117188 4.253906 177.261719 3.078125 160.839844 10.597656 L 168.007812 0.585938 " fill-opacity="1" fill-rule="nonzero"/></g><path fill="#2b202a" d="M 73.179688 101.238281 C 73.179688 101.238281 67.449219 90.125 75.097656 76.242188 C 75.097656 76.242188 69.726562 90.039062 74.972656 98.734375 L 73.179688 101.238281 " fill-opacity="1" fill-rule="nonzero"/><path fill="#2b202a" d="M 78.128906 94.921875 C 78.128906 94.921875 74.613281 87.921875 77.835938 78.390625 C 77.835938 78.390625 75.71875 86.070312 79.46875 93.425781 L 78.128906 94.921875 " fill-opacity="1" fill-rule="nonzero"/><path fill="#2b202a" d="M 101.402344 71.714844 C 101.402344 71.714844 131.640625 57.191406 139.894531 64 C 139.894531 64 131.207031 55.148438 105.574219 66.828125 L 101.402344 71.714844 " fill-opacity="1" fill-rule="nonzero"/><path fill="#2b202a" d="M 114.445312 58.324219 C 114.445312 58.324219 130.578125 53.128906 138.769531 56.328125 C 138.769531 56.328125 130.609375 51.792969 116.285156 56.195312 L 114.445312 58.324219 " fill-opacity="1" fill-rule="nonzero"/><path fill="#2b202a" d="M 122.820312 51.976562 C 122.820312 51.976562 131.195312 50.386719 136.988281 51.015625 C 136.988281 51.015625 128.597656 49.367188 124.09375 49.917969 L 122.820312 51.976562 " fill-opacity="1" fill-rule="nonzero"/><path fill="#2b202a" d="M 130.847656 42.808594 C 130.847656 42.808594 133.675781 31.609375 140.773438 22.558594 C 140.773438 22.558594 133.21875 35.664062 133.457031 40.777344 L 130.847656 42.808594 " fill-opacity="1" fill-rule="nonzero"/><path fill="#2b202a" d="M 139.691406 35.640625 C 139.691406 35.640625 142.042969 28.308594 145.480469 23.699219 C 145.480469 23.699219 142.105469 30.398438 141.265625 34.496094 L 139.691406 35.640625 " fill-opacity="1" fill-rule="nonzero"/><g clip-path="url(#4a99419d35)"><path fill="#2b202a" d="M 31.578125 217.25 C 31.578125 218.484375 27.90625 219.484375 23.382812 219.484375 C 18.855469 219.484375 15.191406 218.484375 15.191406 217.25 C 15.191406 216.015625 18.855469 215.015625 23.382812 215.015625 C 27.90625 215.015625 31.578125 216.015625 31.578125 217.25 " fill-opacity="1" fill-rule="nonzero"/></g><path fill="#2b202a" d="M 49.6875 212.265625 C 49.6875 213.128906 47.121094 213.828125 43.953125 213.828125 C 40.785156 213.828125 38.21875 213.128906 38.21875 212.265625 C 38.21875 211.398438 40.785156 210.699219 43.953125 210.699219 C 47.121094 210.699219 49.6875 211.398438 49.6875 212.265625 " fill-opacity="1" fill-rule="nonzero"/></svg>