<?xml version="1.0" encoding="UTF-8"?>
<!DOCTYPE svg PUBLIC "-//W3C//DTD SVG 1.1//EN" "http://www.w3.org/Graphics/SVG/1.1/DTD/svg11.dtd">
<svg xmlns="http://www.w3.org/2000/svg" version="1.1" width="276px" height="305px" style="shape-rendering:geometricPrecision; text-rendering:geometricPrecision; image-rendering:optimizeQuality; fill-rule:evenodd; clip-rule:evenodd" xmlns:xlink="http://www.w3.org/1999/xlink">
<g><path style="opacity:0.62" fill="#928e92" d="M 248.5,2.5 C 254.013,1.18429 259.68,1.18429 265.5,2.5C 265.145,3.5223 264.478,4.18897 263.5,4.5C 261.721,2.65649 259.388,1.98983 256.5,2.5C 253.833,2.5 251.167,2.5 248.5,2.5 Z"/></g>
<g><path style="opacity:0.997" fill="#332c32" d="M 256.5,2.5 C 259.388,1.98983 261.721,2.65649 263.5,4.5C 263.027,5.90632 262.027,6.57298 260.5,6.5C 258.459,6.14595 256.626,6.14595 255,6.5C 254.722,5.5842 254.222,4.91753 253.5,4.5C 254.5,3.83333 255.5,3.16667 256.5,2.5 Z"/></g>
<g><path style="opacity:0.51" fill="#bbb9bb" d="M 221.5,5.5 C 221.5,4.83333 221.167,4.5 220.5,4.5C 220.685,2.80422 221.519,1.47088 223,0.5C 223.203,2.3908 222.703,4.05747 221.5,5.5 Z"/></g>
<g><path style="opacity:0.96" fill="#464144" d="M 248.5,2.5 C 251.167,2.5 253.833,2.5 256.5,2.5C 255.5,3.16667 254.5,3.83333 253.5,4.5C 250.287,4.19 247.287,4.52333 244.5,5.5C 242.052,6.47307 239.385,6.8064 236.5,6.5C 234.821,6.71481 233.821,6.04814 233.5,4.5C 238.362,3.1002 243.362,2.43353 248.5,2.5 Z"/></g>
<g><path style="opacity:0.936" fill="#666165" d="M 233.5,4.5 C 233.821,6.04814 234.821,6.71481 236.5,6.5C 233.063,7.94484 229.397,8.94484 225.5,9.5C 228.338,7.69409 228.005,6.69409 224.5,6.5C 227.219,5.08699 230.219,4.42032 233.5,4.5 Z"/></g>
<g><path style="opacity:0.4" fill="#b1abb1" d="M 219.5,5.5 C 219.573,7.02694 218.906,8.02694 217.5,8.5C 217.427,6.97306 218.094,5.97306 219.5,5.5 Z"/></g>
<g><path style="opacity:0.958" fill="#504b50" d="M 220.5,4.5 C 221.167,4.5 221.5,4.83333 221.5,5.5C 222.209,6.40397 223.209,6.73731 224.5,6.5C 228.005,6.69409 228.338,7.69409 225.5,9.5C 223.064,10.871 220.397,11.871 217.5,12.5C 216.508,12.6716 215.842,12.3382 215.5,11.5C 215.427,9.97306 216.094,8.97306 217.5,8.5C 218.906,8.02694 219.573,7.02694 219.5,5.5C 219.5,4.83333 219.833,4.5 220.5,4.5 Z"/></g>
<g><path style="opacity:0.991" fill="#493f47" d="M 244.5,5.5 C 247.287,4.52333 250.287,4.19 253.5,4.5C 254.222,4.91753 254.722,5.5842 255,6.5C 256.626,6.14595 258.459,6.14595 260.5,6.5C 260.5,7.16667 260.167,7.5 259.5,7.5C 258.167,8.16667 258.167,8.83333 259.5,9.5C 256.87,9.51855 254.204,9.51855 251.5,9.5C 251.511,7.98261 252.177,6.81595 253.5,6C 250.518,5.50204 247.518,5.33537 244.5,5.5 Z"/></g>
<g><path style="opacity:0.016" fill="#d6d2d6" d="M 259.5,7.5 C 260.167,8.16667 260.833,8.83333 261.5,9.5C 260.833,9.5 260.167,9.5 259.5,9.5C 258.167,8.83333 258.167,8.16667 259.5,7.5 Z"/></g>
<g><path style="opacity:0.549" fill="#908f91" d="M 251.5,9.5 C 251.573,11.0269 250.906,12.0269 249.5,12.5C 249.427,10.9731 250.094,9.97306 251.5,9.5 Z"/></g>
<g><path style="opacity:0.565" fill="#bebebe" d="M 215.5,11.5 C 215.842,12.3382 216.508,12.6716 217.5,12.5C 216.469,13.2485 215.302,13.9152 214,14.5C 213.415,13.0024 213.915,12.0024 215.5,11.5 Z"/></g>
<g><path style="opacity:1" fill="#322931" d="M 259.5,9.5 C 260.167,9.5 260.833,9.5 261.5,9.5C 264.912,10.0421 267.912,11.3754 270.5,13.5C 268.888,14.4523 267.388,14.7856 266,14.5C 265.085,13.6721 264.419,12.6721 264,11.5C 263.5,12 263,12.5 262.5,13C 263.791,14.2917 263.791,15.4583 262.5,16.5C 261.365,14.7868 259.698,14.1201 257.5,14.5C 256.5,14.5 255.5,14.5 254.5,14.5C 252.833,13.8333 251.167,13.1667 249.5,12.5C 250.906,12.0269 251.573,11.0269 251.5,9.5C 254.204,9.51855 256.87,9.51855 259.5,9.5 Z"/></g>
<g><path style="opacity:0.553" fill="#8d868b" d="M 249.5,12.5 C 251.167,13.1667 252.833,13.8333 254.5,14.5C 252.143,14.6633 249.81,14.4966 247.5,14C 248.044,13.2828 248.711,12.7828 249.5,12.5 Z"/></g>
<g><path style="opacity:1" fill="#291f28" d="M 270.5,13.5 C 271.234,14.7079 271.567,16.0413 271.5,17.5C 268.923,17.4551 266.923,18.4551 265.5,20.5C 265.167,20.5 264.833,20.5 264.5,20.5C 258.658,19.5068 257.991,18.1734 262.5,16.5C 263.791,15.4583 263.791,14.2917 262.5,13C 263,12.5 263.5,12 264,11.5C 264.419,12.6721 265.085,13.6721 266,14.5C 267.388,14.7856 268.888,14.4523 270.5,13.5 Z"/></g>
<g><path style="opacity:0.169" fill="#d5d4d4" d="M 232.5,18.5 C 232.158,17.6618 231.492,17.3284 230.5,17.5C 233.535,15.4824 236.869,14.3157 240.5,14C 237.644,15.2587 234.977,16.7587 232.5,18.5 Z"/></g>
<g><path style="opacity:0.967" fill="#665f65" d="M 270.5,13.5 C 272.404,13.7376 273.738,14.7376 274.5,16.5C 273.833,17.1667 273.167,17.8333 272.5,18.5C 270.299,19.5664 267.965,20.233 265.5,20.5C 266.923,18.4551 268.923,17.4551 271.5,17.5C 271.567,16.0413 271.234,14.7079 270.5,13.5 Z"/></g>
<g><path style="opacity:0.125" fill="#c4c0c3" d="M 274.5,16.5 C 274.833,16.5 275.167,16.5 275.5,16.5C 275.5,17.1667 275.5,17.8333 275.5,18.5C 274.5,18.5 273.5,18.5 272.5,18.5C 273.167,17.8333 273.833,17.1667 274.5,16.5 Z"/></g>
<g><path style="opacity:0.996" fill="#585158" d="M 257.5,14.5 C 259.698,14.1201 261.365,14.7868 262.5,16.5C 257.991,18.1734 258.658,19.5068 264.5,20.5C 261.061,22.2043 257.395,23.5376 253.5,24.5C 254.517,22.5283 253.85,21.195 251.5,20.5C 254.16,18.5033 257.16,17.0033 260.5,16C 259.263,15.7679 258.263,15.2679 257.5,14.5 Z"/></g>
<g><path style="opacity:0.993" fill="#4b444a" d="M 251.5,20.5 C 253.85,21.195 254.517,22.5283 253.5,24.5C 251.351,25.7362 249.018,26.7362 246.5,27.5C 244.795,26.4647 243.128,26.4647 241.5,27.5C 240.537,27.0302 240.537,26.3635 241.5,25.5C 244.357,22.9986 247.691,21.332 251.5,20.5 Z"/></g>
<g><path style="opacity:0.706" fill="#949395" d="M 169.5,29.5 C 169.5,28.1667 168.833,27.5 167.5,27.5C 171.559,24.5635 175.893,22.3968 180.5,21C 176.957,24.0486 173.291,26.8819 169.5,29.5 Z"/></g>
<g><path style="opacity:0.941" fill="#7e7c7f" d="M 230.5,17.5 C 231.492,17.3284 232.158,17.6618 232.5,18.5C 227.334,21.2484 222.334,24.2484 217.5,27.5C 217.5,26.1667 216.833,25.5 215.5,25.5C 220.333,22.5824 225.333,19.9157 230.5,17.5 Z"/></g>
<g><path style="opacity:0.959" fill="#585157" d="M 241.5,25.5 C 240.537,26.3635 240.537,27.0302 241.5,27.5C 243.128,26.4647 244.795,26.4647 246.5,27.5C 242.539,29.4806 238.539,31.4806 234.5,33.5C 234.715,31.8212 234.048,30.8212 232.5,30.5C 235.008,28.0764 238.008,26.4097 241.5,25.5 Z"/></g>
<g><path style="opacity:0.973" fill="#5f5a5e" d="M 215.5,25.5 C 216.833,25.5 217.5,26.1667 217.5,27.5C 209.311,33.424 200.978,39.0907 192.5,44.5C 192.351,43.448 192.517,42.448 193,41.5C 193.654,42.6956 194.154,42.6956 194.5,41.5C 193.675,40.6143 192.675,40.281 191.5,40.5C 198.963,34.7162 206.963,29.7162 215.5,25.5 Z"/></g>
<g><path style="opacity:0.982" fill="#605b5f" d="M 167.5,27.5 C 168.833,27.5 169.5,28.1667 169.5,29.5C 167.754,31.2516 165.754,32.5849 163.5,33.5C 162.432,32.5655 161.099,32.2322 159.5,32.5C 161.822,30.336 164.489,28.6693 167.5,27.5 Z"/></g>
<g><path style="opacity:0.651" fill="#978e97" d="M 155.5,31.5 C 154.738,33.2624 153.404,34.2624 151.5,34.5C 152.262,32.7376 153.596,31.7376 155.5,31.5 Z"/></g>
<g><path style="opacity:0.994" fill="#2c232b" d="M 155.5,31.5 C 156.735,31.7214 157.735,32.3881 158.5,33.5C 159.107,33.3764 159.44,33.0431 159.5,32.5C 161.099,32.2322 162.432,32.5655 163.5,33.5C 163.167,34.5 162.5,35.1667 161.5,35.5C 158.191,35.3077 155.691,36.6411 154,39.5C 152.902,38.0325 151.402,37.1992 149.5,37C 150.381,36.2917 151.047,35.4584 151.5,34.5C 153.404,34.2624 154.738,33.2624 155.5,31.5 Z"/></g>
<g><path style="opacity:0.173" fill="#a7a1a5" d="M 159.5,32.5 C 159.44,33.0431 159.107,33.3764 158.5,33.5C 157.735,32.3881 156.735,31.7214 155.5,31.5C 156.145,30.1882 157.145,29.1882 158.5,28.5C 158.76,29.9049 159.093,31.2382 159.5,32.5 Z"/></g>
<g><path style="opacity:0.982" fill="#514950" d="M 232.5,30.5 C 234.048,30.8212 234.715,31.8212 234.5,33.5C 233.167,34.8333 231.833,36.1667 230.5,37.5C 228.345,38.5524 228.012,37.8857 229.5,35.5C 228.675,34.6143 227.675,34.281 226.5,34.5C 228.147,32.6736 230.147,31.3403 232.5,30.5 Z"/></g>
<g><path style="opacity:0.962" fill="#5e585e" d="M 151.5,34.5 C 151.047,35.4584 150.381,36.2917 149.5,37C 151.402,37.1992 152.902,38.0325 154,39.5C 155.691,36.6411 158.191,35.3077 161.5,35.5C 158.871,38.6306 156.038,41.6306 153,44.5C 152.667,42.5 152.333,40.5 152,38.5C 147.665,42.003 143.499,45.6697 139.5,49.5C 139.67,48.1779 139.337,47.0113 138.5,46C 139.71,44.9609 140.71,43.7942 141.5,42.5C 144.46,39.3552 147.793,36.6885 151.5,34.5 Z"/></g>
<g><path style="opacity:0.955" fill="#382e36" d="M 226.5,34.5 C 227.675,34.281 228.675,34.6143 229.5,35.5C 228.012,37.8857 228.345,38.5524 230.5,37.5C 231.919,38.4511 233.585,38.7845 235.5,38.5C 235.5,39.8333 235.5,41.1667 235.5,42.5C 234.486,43.6737 233.153,44.3404 231.5,44.5C 229.821,44.7148 228.821,44.0481 228.5,42.5C 228.938,42.5654 229.272,42.3988 229.5,42C 228.584,41.7216 227.918,41.2216 227.5,40.5C 225.5,39.5 223.5,38.5 221.5,37.5C 222.899,36.1103 224.566,35.1103 226.5,34.5 Z"/></g>
<g><path style="opacity:0.89" fill="#857f85" d="M 221.5,37.5 C 223.5,38.5 225.5,39.5 227.5,40.5C 224.941,40.6104 222.608,39.9438 220.5,38.5C 220.624,37.8933 220.957,37.56 221.5,37.5 Z"/></g>
<g><path style="opacity:0.984" fill="#655f64" d="M 230.5,37.5 C 234.534,37.6721 238.534,38.1721 242.5,39C 240.423,40.705 238.09,41.8717 235.5,42.5C 235.5,41.1667 235.5,39.8333 235.5,38.5C 233.585,38.7845 231.919,38.4511 230.5,37.5 Z"/></g>
<g><path style="opacity:0.843" fill="#898788" d="M 180.5,48.5 C 179.365,50.2132 177.698,50.8799 175.5,50.5C 177.771,42.624 181.604,35.624 187,29.5C 184.841,35.5036 182.341,41.5036 179.5,47.5C 179.624,48.1067 179.957,48.44 180.5,48.5 Z"/></g>
<g><path style="opacity:0.467" fill="#a5a2a5" d="M 191.5,40.5 C 190.713,42.1042 189.38,42.7709 187.5,42.5C 188.511,38.1438 190.344,34.1438 193,30.5C 192.81,33.5851 191.976,36.5851 190.5,39.5C 190.624,40.1067 190.957,40.44 191.5,40.5 Z"/></g>
<g><path style="opacity:0.992" fill="#271f27" d="M 191.5,40.5 C 192.675,40.281 193.675,40.6143 194.5,41.5C 194.154,42.6956 193.654,42.6956 193,41.5C 192.517,42.448 192.351,43.448 192.5,44.5C 190.278,44.178 188.444,44.8446 187,46.5C 186.805,45.1807 186.972,43.8474 187.5,42.5C 189.38,42.7709 190.713,42.1042 191.5,40.5 Z"/></g>
<g><path style="opacity:0.992" fill="#615a60" d="M 187.5,42.5 C 186.972,43.8474 186.805,45.1807 187,46.5C 188.444,44.8446 190.278,44.178 192.5,44.5C 190.249,47.2948 187.582,49.6281 184.5,51.5C 184.66,49.8008 184.494,48.1341 184,46.5C 183.184,47.8228 182.017,48.4894 180.5,48.5C 182.607,46.2733 184.94,44.2733 187.5,42.5 Z"/></g>
<g><path style="opacity:0.671" fill="#9b969a" d="M 132.5,48.5 C 132.167,48.5 131.833,48.5 131.5,48.5C 131.657,47.1266 131.49,45.7932 131,44.5C 129.296,46.3734 127.463,48.0401 125.5,49.5C 127.071,46.2559 129.405,43.5892 132.5,41.5C 133.057,43.7175 133.057,46.0509 132.5,48.5 Z"/></g>
<g><path style="opacity:0.987" fill="#676065" d="M 141.5,42.5 C 140.71,43.7942 139.71,44.9609 138.5,46C 139.337,47.0113 139.67,48.1779 139.5,49.5C 138.167,51.5 136.5,53.1667 134.5,54.5C 134.5,53.5 134.5,52.5 134.5,51.5C 138.532,47.1683 137.865,46.5016 132.5,49.5C 132.5,49.1667 132.5,48.8333 132.5,48.5C 135.518,46.4742 138.518,44.4742 141.5,42.5 Z"/></g>
<g><path style="opacity:0.995" fill="#5b5659" d="M 228.5,42.5 C 228.821,44.0481 229.821,44.7148 231.5,44.5C 228.534,46.9884 225.201,48.9884 221.5,50.5C 221.5,49.5 221.5,48.5 221.5,47.5C 219.833,47.5 218.167,47.5 216.5,47.5C 220.203,45.3213 224.203,43.6546 228.5,42.5 Z"/></g>
<g><path style="opacity:0.99" fill="#332a31" d="M 184.5,51.5 C 184.158,52.3382 183.492,52.6716 182.5,52.5C 181.883,52.3893 181.383,52.056 181,51.5C 179.287,53.1929 177.287,54.5262 175,55.5C 174.805,54.1807 174.972,52.8474 175.5,51.5C 175.5,51.1667 175.5,50.8333 175.5,50.5C 177.698,50.8799 179.365,50.2132 180.5,48.5C 182.017,48.4894 183.184,47.8228 184,46.5C 184.494,48.1341 184.66,49.8008 184.5,51.5 Z"/></g>
<g><path style="opacity:1" fill="#30252f" d="M 131.5,48.5 C 131.5,49.1667 131.833,49.5 132.5,49.5C 137.865,46.5016 138.532,47.1683 134.5,51.5C 132.767,52.0076 132.434,52.841 133.5,54C 132.5,54.3333 131.5,54.6667 130.5,55C 130.833,55.3333 131.167,55.6667 131.5,56C 130.128,56.4017 128.795,56.9017 127.5,57.5C 126.833,56.5 126.167,55.5 125.5,54.5C 124.893,54.6236 124.56,54.9569 124.5,55.5C 123.29,55.0679 122.29,54.4013 121.5,53.5C 122.5,51.8333 123.833,50.5 125.5,49.5C 127.463,48.0401 129.296,46.3734 131,44.5C 131.49,45.7932 131.657,47.1266 131.5,48.5 Z"/></g>
<g><path style="opacity:0.996" fill="#40383e" d="M 216.5,47.5 C 218.167,47.5 219.833,47.5 221.5,47.5C 221.5,48.5 221.5,49.5 221.5,50.5C 221.158,51.3382 220.492,51.6716 219.5,51.5C 217.067,52.5477 217.067,53.2144 219.5,53.5C 218.378,54.9473 216.878,55.9473 215,56.5C 213.599,54.8078 211.766,54.1412 209.5,54.5C 208.022,54.762 206.689,54.4287 205.5,53.5C 208.741,50.7131 212.407,48.7131 216.5,47.5 Z"/></g>
<g><path style="opacity:0.137" fill="#e0d9e0" d="M 219.5,51.5 C 219.833,52.1667 220.167,52.8333 220.5,53.5C 220.167,53.5 219.833,53.5 219.5,53.5C 217.067,53.2144 217.067,52.5477 219.5,51.5 Z"/></g>
<g><path style="opacity:1" fill="#4e454c" d="M 175.5,51.5 C 174.972,52.8474 174.805,54.1807 175,55.5C 177.287,54.5262 179.287,53.1929 181,51.5C 181.383,52.056 181.883,52.3893 182.5,52.5C 180.451,55.5497 177.784,57.883 174.5,59.5C 173.116,58.1991 171.616,58.1991 170,59.5C 169.7,57.9343 170.2,56.601 171.5,55.5C 172.5,53.8333 173.833,52.5 175.5,51.5 Z"/></g>
<g><path style="opacity:0.989" fill="#585157" d="M 121.5,53.5 C 122.29,54.4013 123.29,55.0679 124.5,55.5C 122.542,58.7915 120.209,61.7915 117.5,64.5C 117.657,63.1266 117.49,61.7932 117,60.5C 116.617,61.056 116.117,61.3893 115.5,61.5C 117.016,58.4669 119.016,55.8003 121.5,53.5 Z"/></g>
<g><path style="opacity:0.99" fill="#585056" d="M 134.5,51.5 C 134.5,52.5 134.5,53.5 134.5,54.5C 132.217,57.9563 129.717,61.2896 127,64.5C 125.926,61.5 125.093,58.5 124.5,55.5C 124.56,54.9569 124.893,54.6236 125.5,54.5C 126.167,55.5 126.833,56.5 127.5,57.5C 128.795,56.9017 130.128,56.4017 131.5,56C 131.167,55.6667 130.833,55.3333 130.5,55C 131.5,54.6667 132.5,54.3333 133.5,54C 132.434,52.841 132.767,52.0076 134.5,51.5 Z"/></g>
<g><path style="opacity:0.941" fill="#635d63" d="M 219.5,53.5 C 219.833,53.5 220.167,53.5 220.5,53.5C 222.527,53.3379 224.527,53.5045 226.5,54C 221.02,56.2407 215.687,58.7407 210.5,61.5C 209.508,61.6716 208.842,61.3382 208.5,60.5C 209.673,58.4959 211.34,56.9959 213.5,56C 211.942,55.79 210.609,55.29 209.5,54.5C 211.766,54.1412 213.599,54.8078 215,56.5C 216.878,55.9473 218.378,54.9473 219.5,53.5 Z"/></g>
<g><path style="opacity:1" fill="#5b535a" d="M 171.5,55.5 C 170.2,56.601 169.7,57.9343 170,59.5C 171.616,58.1991 173.116,58.1991 174.5,59.5C 173.415,61.5869 171.749,62.9202 169.5,63.5C 169.201,61.5447 168.201,60.2114 166.5,59.5C 167.585,57.4131 169.251,56.0798 171.5,55.5 Z"/></g>
<g><path style="opacity:0.69" fill="#a9a9a9" d="M 208.5,60.5 C 208.842,61.3382 209.508,61.6716 210.5,61.5C 206.646,64.021 202.812,66.6877 199,69.5C 198.383,68.5509 198.549,67.7175 199.5,67C 202.397,64.59 205.397,62.4233 208.5,60.5 Z"/></g>
<g><path style="opacity:0.863" fill="#7c727a" d="M 166.5,59.5 C 165.089,61.914 163.089,63.5806 160.5,64.5C 161.911,62.086 163.911,60.4194 166.5,59.5 Z"/></g>
<g><path style="opacity:1" fill="#544d54" d="M 117.5,64.5 C 116.331,67.5113 114.664,70.178 112.5,72.5C 112.175,68.8927 111.008,68.226 109,70.5C 108.802,68.6183 108.302,66.9516 107.5,65.5C 107.461,64.2438 107.961,63.2438 109,62.5C 109.333,64.1667 109.667,65.8333 110,67.5C 111.617,65.2368 113.45,63.2368 115.5,61.5C 116.117,61.3893 116.617,61.056 117,60.5C 117.49,61.7932 117.657,63.1266 117.5,64.5 Z"/></g>
<g><path style="opacity:1" fill="#4b4249" d="M 166.5,59.5 C 168.201,60.2114 169.201,61.5447 169.5,63.5C 169.5,64.1667 169.167,64.5 168.5,64.5C 167.711,64.7828 167.044,65.2828 166.5,66C 169.482,66.498 172.482,66.6646 175.5,66.5C 177.857,66.3367 180.19,66.5034 182.5,67C 176.842,67.7398 171.175,68.4065 165.5,69C 164.058,69.3768 163.058,70.2101 162.5,71.5C 162.167,71.5 161.833,71.5 161.5,71.5C 161.423,70.2502 160.756,69.4169 159.5,69C 160.712,67.8932 160.379,67.3932 158.5,67.5C 158.833,66.8333 159.167,66.1667 159.5,65.5C 159.5,64.8333 159.833,64.5 160.5,64.5C 163.089,63.5806 165.089,61.914 166.5,59.5 Z"/></g>
<g><path style="opacity:0.063" fill="#bdbbbc" d="M 168.5,64.5 C 170.833,65.1667 173.167,65.8333 175.5,66.5C 172.482,66.6646 169.482,66.498 166.5,66C 167.044,65.2828 167.711,64.7828 168.5,64.5 Z"/></g>
<g><path style="opacity:0.906" fill="#726871" d="M 159.5,65.5 C 159.167,66.1667 158.833,66.8333 158.5,67.5C 156.833,68.5 155.5,69.8333 154.5,71.5C 153.609,72.1098 152.609,72.4431 151.5,72.5C 153.569,69.4275 156.236,67.0941 159.5,65.5 Z"/></g>
<g><path style="opacity:1" fill="#2c2029" d="M 158.5,67.5 C 160.379,67.3932 160.712,67.8932 159.5,69C 160.756,69.4169 161.423,70.2502 161.5,71.5C 161.167,71.5 160.833,71.5 160.5,71.5C 158.859,72.147 157.526,73.147 156.5,74.5C 155.833,74.1667 155.167,73.8333 154.5,73.5C 154.5,72.8333 154.5,72.1667 154.5,71.5C 155.5,69.8333 156.833,68.5 158.5,67.5 Z"/></g>
<g><path style="opacity:0.959" fill="#413940" d="M 107.5,65.5 C 108.302,66.9516 108.802,68.6183 109,70.5C 111.008,68.226 112.175,68.8927 112.5,72.5C 111.784,75.5976 110.284,78.2643 108,80.5C 107.506,78.8659 107.34,77.1992 107.5,75.5C 107.532,72.9242 106.865,70.5909 105.5,68.5C 105.427,66.9731 106.094,65.9731 107.5,65.5 Z"/></g>
<g><path style="opacity:0.997" fill="#291f27" d="M 154.5,71.5 C 154.5,72.1667 154.5,72.8333 154.5,73.5C 152.511,76.1651 150.511,78.8318 148.5,81.5C 146.263,82.449 143.929,83.1156 141.5,83.5C 144.833,79.8333 148.167,76.1667 151.5,72.5C 152.609,72.4431 153.609,72.1098 154.5,71.5 Z"/></g>
<g><path style="opacity:0.987" fill="#645f63" d="M 160.5,71.5 C 161.167,72.8333 161.833,72.8333 162.5,71.5C 168.227,71.2598 173.894,71.5931 179.5,72.5C 179.5,72.8333 179.5,73.1667 179.5,73.5C 172.782,73.698 166.115,74.3647 159.5,75.5C 158.209,75.7373 157.209,75.404 156.5,74.5C 157.526,73.147 158.859,72.147 160.5,71.5 Z"/></g>
<g><path style="opacity:0.725" fill="#a09da2" d="M 105.5,68.5 C 106.865,70.5909 107.532,72.9242 107.5,75.5C 106.732,74.7375 106.232,73.7375 106,72.5C 104.333,74.5 102.667,76.5 101,78.5C 101.313,74.6708 102.813,71.3375 105.5,68.5 Z"/></g>
<g><path style="opacity:0.137" fill="#d9d9d9" d="M 179.5,72.5 C 185.959,74.2015 185.959,74.5349 179.5,73.5C 179.5,73.1667 179.5,72.8333 179.5,72.5 Z"/></g>
<g><path style="opacity:1" fill="#5b535a" d="M 154.5,73.5 C 155.167,73.8333 155.833,74.1667 156.5,74.5C 157.209,75.404 158.209,75.7373 159.5,75.5C 155.348,77.2926 151.681,79.9593 148.5,83.5C 148.5,82.8333 148.5,82.1667 148.5,81.5C 150.511,78.8318 152.511,76.1651 154.5,73.5 Z"/></g>
<g><path style="opacity:0.843" fill="#807a81" d="M 151.5,72.5 C 148.167,76.1667 144.833,79.8333 141.5,83.5C 140.609,84.1098 139.609,84.4431 138.5,84.5C 142.227,79.7703 146.56,75.7703 151.5,72.5 Z"/></g>
<g><path style="opacity:0.993" fill="#494649" d="M 180.5,81.5 C 180.158,82.3382 179.492,82.6716 178.5,82.5C 172.469,83.314 166.469,84.314 160.5,85.5C 158.396,85.7989 156.396,85.4656 154.5,84.5C 156.594,83.4824 158.594,82.4824 160.5,81.5C 167.167,80.1667 173.833,80.1667 180.5,81.5 Z"/></g>
<g><path style="opacity:0.188" fill="#d2d2d2" d="M 180.5,81.5 C 182.423,81.795 184.09,82.6283 185.5,84C 183.005,84.0683 180.672,83.5683 178.5,82.5C 179.492,82.6716 180.158,82.3382 180.5,81.5 Z"/></g>
<g><path style="opacity:0.995" fill="#352932" d="M 148.5,81.5 C 148.5,82.1667 148.5,82.8333 148.5,83.5C 146.895,84.0059 146.561,84.6726 147.5,85.5C 145.193,86.7633 143.859,88.7633 143.5,91.5C 141.5,91.5 139.5,91.5 137.5,91.5C 138.968,90.2209 139.635,88.5542 139.5,86.5C 138.5,86.5 137.5,86.5 136.5,86.5C 136.833,85.5 137.5,84.8333 138.5,84.5C 139.609,84.4431 140.609,84.1098 141.5,83.5C 143.929,83.1156 146.263,82.449 148.5,81.5 Z"/></g>
<g><path style="opacity:0.993" fill="#6e696f" d="M 160.5,81.5 C 158.594,82.4824 156.594,83.4824 154.5,84.5C 156.396,85.4656 158.396,85.7989 160.5,85.5C 157.018,87.062 153.352,88.3953 149.5,89.5C 150.023,87.2921 151.356,85.7921 153.5,85C 152.552,84.5172 151.552,84.3505 150.5,84.5C 153.505,82.7234 156.838,81.7234 160.5,81.5 Z"/></g>
<g><path style="opacity:0.059" fill="#e1dbdf" d="M 148.5,83.5 C 148.5,84.1667 148.833,84.5 149.5,84.5C 149.158,85.3382 148.492,85.6716 147.5,85.5C 146.561,84.6726 146.895,84.0059 148.5,83.5 Z"/></g>
<g><path style="opacity:0.997" fill="#383037" d="M 149.5,84.5 C 149.833,84.5 150.167,84.5 150.5,84.5C 151.552,84.3505 152.552,84.5172 153.5,85C 151.356,85.7921 150.023,87.2921 149.5,89.5C 147.579,90.3627 145.579,91.0293 143.5,91.5C 143.859,88.7633 145.193,86.7633 147.5,85.5C 148.492,85.6716 149.158,85.3382 149.5,84.5 Z"/></g>
<g><path style="opacity:1" fill="#352c34" d="M 136.5,86.5 C 137.5,86.5 138.5,86.5 139.5,86.5C 139.635,88.5542 138.968,90.2209 137.5,91.5C 134.94,92.2203 133.107,93.887 132,96.5C 131.25,95.8742 130.416,95.3742 129.5,95C 130.823,94.1841 131.489,93.0174 131.5,91.5C 132.833,89.5 134.5,87.8333 136.5,86.5 Z"/></g>
<g><path style="opacity:0.004" fill="#fefffe" d="M 94.5,91.5 C 95.8333,92.1667 95.8333,92.1667 94.5,91.5 Z"/></g>
<g><path style="opacity:1" fill="#4b4249" d="M 131.5,91.5 C 131.489,93.0174 130.823,94.1841 129.5,95C 130.416,95.3742 131.25,95.8742 132,96.5C 133.107,93.887 134.94,92.2203 137.5,91.5C 139.5,91.5 141.5,91.5 143.5,91.5C 137.948,94.379 133.282,98.379 129.5,103.5C 129.803,100.412 128.47,98.7458 125.5,98.5C 125.5,98.1667 125.5,97.8333 125.5,97.5C 127.167,95.1667 129.167,93.1667 131.5,91.5 Z"/></g>
<g><path style="opacity:1" fill="#4f484e" d="M 183.5,103.5 C 182.833,102.833 182.167,102.167 181.5,101.5C 180.711,101.217 180.044,100.717 179.5,100C 175.179,99.501 170.846,99.3343 166.5,99.5C 165.127,99.6567 163.793,99.49 162.5,99C 164.32,98.7996 165.653,97.9663 166.5,96.5C 171.332,94.6834 176.332,94.1834 181.5,95C 184.518,97.2543 185.185,100.088 183.5,103.5 Z"/></g>
<g><path style="opacity:0.565" fill="#a59fa2" d="M 125.5,97.5 C 125.5,97.8333 125.5,98.1667 125.5,98.5C 124.5,100.167 123.167,101.5 121.5,102.5C 122.08,100.251 123.413,98.5846 125.5,97.5 Z"/></g>
<g><path style="opacity:0.631" fill="#8b8a8b" d="M 166.5,96.5 C 165.653,97.9663 164.32,98.7996 162.5,99C 163.793,99.49 165.127,99.6567 166.5,99.5C 159.27,101.965 151.937,104.132 144.5,106C 151.506,101.995 158.839,98.8286 166.5,96.5 Z"/></g>
<g><path style="opacity:1" fill="#352b33" d="M 125.5,98.5 C 128.47,98.7458 129.803,100.412 129.5,103.5C 127.5,106.167 125.167,108.5 122.5,110.5C 121.078,110.291 119.745,109.791 118.5,109C 118.587,107.25 119.254,105.417 120.5,103.5C 120.5,102.833 120.833,102.5 121.5,102.5C 123.167,101.5 124.5,100.167 125.5,98.5 Z"/></g>
<g><path style="opacity:0.208" fill="#c8c4c8" d="M 81.5,102.5 C 81.56,101.957 81.8933,101.624 82.5,101.5C 83.4656,103.396 83.7989,105.396 83.5,107.5C 82.8333,105.833 82.1667,104.167 81.5,102.5 Z"/></g>
<g><path style="opacity:0.004" fill="#dedede" d="M 181.5,101.5 C 182.167,102.167 182.833,102.833 183.5,103.5C 183.631,104.376 183.298,105.043 182.5,105.5C 181.571,104.311 181.238,102.978 181.5,101.5 Z"/></g>
<g><path style="opacity:0.996" fill="#767376" d="M 94.5,92.5 C 92.1281,97.9016 89.7947,103.235 87.5,108.5C 87.1959,106.204 86.1959,105.871 84.5,107.5C 86.5961,101.631 89.9295,96.6312 94.5,92.5 Z"/></g>
<g><path style="opacity:0.42" fill="#b3b3b3" d="M 97.5,109.5 C 97.6716,108.508 97.3382,107.842 96.5,107.5C 97.0447,105.407 97.878,103.407 99,101.5C 99.4326,104.419 98.9326,107.086 97.5,109.5 Z"/></g>
<g><path style="opacity:1" fill="#514850" d="M 120.5,103.5 C 119.254,105.417 118.587,107.25 118.5,109C 119.745,109.791 121.078,110.291 122.5,110.5C 121.557,113.109 119.89,115.109 117.5,116.5C 116.993,115.141 115.993,114.141 114.5,113.5C 115.381,112.029 116.714,111.196 118.5,111C 118.167,110.667 117.833,110.333 117.5,110C 115.565,110.058 113.898,110.891 112.5,112.5C 114.43,108.9 117.097,105.9 120.5,103.5 Z"/></g>
<g><path style="opacity:0.997" fill="#473e46" d="M 168.5,107.5 C 167.656,109.759 165.989,110.759 163.5,110.5C 161.565,111.15 159.565,111.483 157.5,111.5C 156.737,110.732 155.737,110.232 154.5,110C 155.305,108.887 155.972,107.721 156.5,106.5C 157.793,105.842 159.293,105.508 161,105.5C 163.821,105.408 166.321,106.074 168.5,107.5 Z"/></g>
<g><path style="opacity:0.986" fill="#413b41" d="M 81.5,102.5 C 82.1667,104.167 82.8333,105.833 83.5,107.5C 83.8333,107.5 84.1667,107.5 84.5,107.5C 84.6068,109.379 84.1068,109.712 83,108.5C 81.583,109.078 80.7496,110.078 80.5,111.5C 80.44,112.043 80.1067,112.376 79.5,112.5C 78.6143,111.675 78.281,110.675 78.5,109.5C 78.9255,106.881 79.9255,104.547 81.5,102.5 Z"/></g>
<g><path style="opacity:0.953" fill="#6d696c" d="M 168.5,107.5 C 172.36,109.402 173.36,112.402 171.5,116.5C 170.833,115.5 170.167,114.5 169.5,113.5C 167.588,112.201 165.588,111.201 163.5,110.5C 165.989,110.759 167.656,109.759 168.5,107.5 Z"/></g>
<g><path style="opacity:0.957" fill="#3f373e" d="M 87.5,108.5 C 87.7678,110.099 87.4345,111.432 86.5,112.5C 85.9779,114.219 84.9779,115.552 83.5,116.5C 82.6618,116.158 82.3284,115.492 82.5,114.5C 83.6736,112.632 83.0069,111.632 80.5,111.5C 80.7496,110.078 81.583,109.078 83,108.5C 84.1068,109.712 84.6068,109.379 84.5,107.5C 86.1959,105.871 87.1959,106.204 87.5,108.5 Z"/></g>
<g><path style="opacity:0.998" fill="#3d353c" d="M 156.5,106.5 C 155.972,107.721 155.305,108.887 154.5,110C 155.737,110.232 156.737,110.732 157.5,111.5C 155.579,112.363 153.579,113.029 151.5,113.5C 149.134,113.344 146.801,113.011 144.5,112.5C 146.027,112.573 147.027,111.906 147.5,110.5C 149.835,107.835 152.835,106.502 156.5,106.5 Z"/></g>
<g><path style="opacity:0.094" fill="#d8d8d8" d="M 103.5,116.5 C 102.833,113.833 102.167,111.167 101.5,108.5C 101.892,106.821 102.392,105.154 103,103.5C 103.499,107.821 103.666,112.154 103.5,116.5 Z"/></g>
<g><path style="opacity:0.737" fill="#999097" d="M 147.5,110.5 C 147.027,111.906 146.027,112.573 144.5,112.5C 144.973,111.094 145.973,110.427 147.5,110.5 Z"/></g>
<g><path style="opacity:0.978" fill="#767075" d="M 78.5,109.5 C 78.281,110.675 78.6143,111.675 79.5,112.5C 80.1067,112.376 80.44,112.043 80.5,111.5C 83.0069,111.632 83.6736,112.632 82.5,114.5C 81.8826,114.389 81.3826,114.056 81,113.5C 80.2432,115.315 79.4098,116.981 78.5,118.5C 78.9227,116.219 78.256,114.552 76.5,113.5C 76.6596,111.847 77.3263,110.514 78.5,109.5 Z"/></g>
<g><path style="opacity:0.987" fill="#575056" d="M 144.5,112.5 C 146.801,113.011 149.134,113.344 151.5,113.5C 147.37,116.403 143.037,119.07 138.5,121.5C 138.167,120.167 137.833,118.833 137.5,117.5C 139.296,115.1 141.63,113.433 144.5,112.5 Z"/></g>
<g><path style="opacity:0.2" fill="#c2c2c2" d="M 71.5,117.5 C 70.8333,117.167 70.1667,116.833 69.5,116.5C 69.281,115.325 69.6143,114.325 70.5,113.5C 71.4287,114.689 71.762,116.022 71.5,117.5 Z"/></g>
<g><path style="opacity:0.478" fill="#8d888c" d="M 86.5,112.5 C 86.7989,114.604 86.4656,116.604 85.5,118.5C 84.4777,118.145 83.811,117.478 83.5,116.5C 84.9779,115.552 85.9779,114.219 86.5,112.5 Z"/></g>
<g><path style="opacity:0.69" fill="#a29da4" d="M 108.5,116.5 C 108.262,118.404 107.262,119.738 105.5,120.5C 105.738,118.596 106.738,117.262 108.5,116.5 Z"/></g>
<g><path style="opacity:1" fill="#291e27" d="M 117.5,116.5 C 115.089,116.137 113.589,117.137 113,119.5C 112.617,118.944 112.117,118.611 111.5,118.5C 111.062,118.565 110.728,118.399 110.5,118C 111.464,116.275 112.131,114.441 112.5,112.5C 113.898,110.891 115.565,110.058 117.5,110C 117.833,110.333 118.167,110.667 118.5,111C 116.714,111.196 115.381,112.029 114.5,113.5C 115.993,114.141 116.993,115.141 117.5,116.5 Z"/></g>
<g><path style="opacity:0.942" fill="#646062" d="M 96.5,107.5 C 97.3382,107.842 97.6716,108.508 97.5,109.5C 96.8949,114.587 96.8949,119.587 97.5,124.5C 96.7784,124.082 96.2784,123.416 96,122.5C 95.6174,123.056 95.1174,123.389 94.5,123.5C 93.7368,118.154 94.4035,112.82 96.5,107.5 Z"/></g>
<g><path style="opacity:0.997" fill="#605b5e" d="M 137.5,117.5 C 137.833,118.833 138.167,120.167 138.5,121.5C 137.738,123.262 136.404,124.262 134.5,124.5C 135.658,123.05 135.158,122.05 133,121.5C 132.329,122.252 131.496,122.586 130.5,122.5C 132.296,120.1 134.63,118.433 137.5,117.5 Z"/></g>
<g><path style="opacity:0.282" fill="#bcb9bb" d="M 169.5,113.5 C 170.167,114.5 170.833,115.5 171.5,116.5C 170.438,118.757 168.772,119.923 166.5,120C 168.451,118.266 169.451,116.099 169.5,113.5 Z"/></g>
<g><path style="opacity:0.976" fill="#524d52" d="M 101.5,108.5 C 102.167,111.167 102.833,113.833 103.5,116.5C 103.66,118.153 104.326,119.486 105.5,120.5C 105.167,121.167 104.833,121.833 104.5,122.5C 103.833,123.833 102.833,124.833 101.5,125.5C 101.669,120.014 101.669,114.347 101.5,108.5 Z"/></g>
<g><path style="opacity:1" fill="#544b52" d="M 117.5,116.5 C 114.179,121.152 110.513,125.485 106.5,129.5C 106.5,128.167 106.5,126.833 106.5,125.5C 107.427,123.424 109.093,122.257 111.5,122C 110.829,121.014 110.829,119.847 111.5,118.5C 112.117,118.611 112.617,118.944 113,119.5C 113.589,117.137 115.089,116.137 117.5,116.5 Z"/></g>
<g><path style="opacity:0.991" fill="#3f353d" d="M 69.5,116.5 C 70.1667,116.833 70.8333,117.167 71.5,117.5C 72.2341,118.708 72.5674,120.041 72.5,121.5C 72.4088,123.698 73.0755,124.031 74.5,122.5C 72.8427,125.089 72.5094,127.756 73.5,130.5C 72.0937,130.027 71.427,129.027 71.5,127.5C 71.2893,125.576 70.6226,125.243 69.5,126.5C 68.5,126.5 67.5,126.5 66.5,126.5C 66.7234,122.838 67.7234,119.505 69.5,116.5 Z"/></g>
<g><path style="opacity:1" fill="#2f262e" d="M 112.5,112.5 C 112.131,114.441 111.464,116.275 110.5,118C 110.728,118.399 111.062,118.565 111.5,118.5C 110.829,119.847 110.829,121.014 111.5,122C 109.093,122.257 107.427,123.424 106.5,125.5C 105.402,124.603 105.402,123.77 106.5,123C 105.906,122.536 105.239,122.369 104.5,122.5C 104.833,121.833 105.167,121.167 105.5,120.5C 107.262,119.738 108.262,118.404 108.5,116.5C 109.5,114.833 110.833,113.5 112.5,112.5 Z"/></g>
<g><path style="opacity:0.271" fill="#cfc6cd" d="M 74.5,120.5 C 74.5,121.167 74.5,121.833 74.5,122.5C 73.0755,124.031 72.4088,123.698 72.5,121.5C 73.1667,121.167 73.8333,120.833 74.5,120.5 Z"/></g>
<g><path style="opacity:0.965" fill="#393439" d="M 76.5,113.5 C 78.256,114.552 78.9227,116.219 78.5,118.5C 78.7678,120.099 78.4345,121.432 77.5,122.5C 76.8333,126.167 76.1667,129.833 75.5,133.5C 74.0937,133.027 73.427,132.027 73.5,130.5C 72.5094,127.756 72.8427,125.089 74.5,122.5C 74.5,121.833 74.5,121.167 74.5,120.5C 74.767,118.035 75.4336,115.701 76.5,113.5 Z"/></g>
<g><path style="opacity:1" fill="#443c43" d="M 134.5,124.5 C 133.738,126.262 132.404,127.262 130.5,127.5C 128.62,127.771 127.287,127.104 126.5,125.5C 127.262,123.738 128.596,122.738 130.5,122.5C 131.496,122.586 132.329,122.252 133,121.5C 135.158,122.05 135.658,123.05 134.5,124.5 Z"/></g>
<g><path style="opacity:1" fill="#292028" d="M 104.5,122.5 C 105.239,122.369 105.906,122.536 106.5,123C 105.402,123.77 105.402,124.603 106.5,125.5C 106.5,126.833 106.5,128.167 106.5,129.5C 105.292,130.234 103.959,130.567 102.5,130.5C 101.909,129.849 101.243,129.182 100.5,128.5C 101.167,128.167 101.833,127.833 102.5,127.5C 102.137,126.817 101.804,126.15 101.5,125.5C 102.833,124.833 103.833,123.833 104.5,122.5 Z"/></g>
<g><path style="opacity:0.999" fill="#2a2026" d="M 66.5,126.5 C 67.5,126.5 68.5,126.5 69.5,126.5C 69.5,130.167 69.5,133.833 69.5,137.5C 69.2533,139.975 68.5866,139.975 67.5,137.5C 68.8549,136.325 68.6883,135.325 67,134.5C 66.5026,131.854 66.3359,129.187 66.5,126.5 Z"/></g>
<g><path style="opacity:0.98" fill="#554d53" d="M 126.5,125.5 C 127.287,127.104 128.62,127.771 130.5,127.5C 128.853,129.326 126.853,130.66 124.5,131.5C 124.167,131.5 123.833,131.5 123.5,131.5C 122.432,130.566 121.099,130.232 119.5,130.5C 121.55,128.453 123.883,126.786 126.5,125.5 Z"/></g>
<g><path style="opacity:1" fill="#483e46" d="M 97.5,124.5 C 98.0617,128.068 99.395,128.402 101.5,125.5C 101.804,126.15 102.137,126.817 102.5,127.5C 101.833,127.833 101.167,128.167 100.5,128.5C 101.243,129.182 101.909,129.849 102.5,130.5C 101.167,131.167 100.167,132.167 99.5,133.5C 98.4415,132.4 97.6082,131.066 97,129.5C 96.9386,132.277 95.772,134.277 93.5,135.5C 93.7031,133.956 94.3698,132.622 95.5,131.5C 94.6072,128.916 94.2739,126.249 94.5,123.5C 95.1174,123.389 95.6174,123.056 96,122.5C 96.2784,123.416 96.7784,124.082 97.5,124.5 Z"/></g>
<g><path style="opacity:0.504" fill="#7f757b" d="M 71.5,127.5 C 70.5206,130.625 70.1872,133.958 70.5,137.5C 70.1667,137.5 69.8333,137.5 69.5,137.5C 69.5,133.833 69.5,130.167 69.5,126.5C 70.6226,125.243 71.2893,125.576 71.5,127.5 Z"/></g>
<g><path style="opacity:0.063" fill="#d0ced1" d="M 77.5,122.5 C 77.6657,126.846 77.499,131.179 77,135.5C 76.2828,134.956 75.7828,134.289 75.5,133.5C 76.1667,129.833 76.8333,126.167 77.5,122.5 Z"/></g>
<g><path style="opacity:0.995" fill="#504850" d="M 106.5,129.5 C 104.542,132.792 102.209,135.792 99.5,138.5C 99.0269,137.094 98.0269,136.427 96.5,136.5C 97.9002,135.9 98.9002,134.9 99.5,133.5C 100.167,132.167 101.167,131.167 102.5,130.5C 103.959,130.567 105.292,130.234 106.5,129.5 Z"/></g>
<g><path style="opacity:0.729" fill="#969196" d="M 119.5,130.5 C 119.027,131.906 118.027,132.573 116.5,132.5C 116.973,131.094 117.973,130.427 119.5,130.5 Z"/></g>
<g><path style="opacity:0.184" fill="#ded8da" d="M 128.5,132.5 C 130.288,131.378 132.288,131.211 134.5,132C 133.956,132.717 133.289,133.217 132.5,133.5C 131.432,132.566 130.099,132.232 128.5,132.5 Z"/></g>
<g><path style="opacity:0.959" fill="#3a3239" d="M 119.5,130.5 C 121.099,130.232 122.432,130.566 123.5,131.5C 122.4,132.558 121.066,133.392 119.5,134C 119.728,134.399 120.062,134.565 120.5,134.5C 118.855,136.774 117.355,136.774 116,134.5C 113.701,136.728 111.534,139.061 109.5,141.5C 107.585,141.784 105.919,141.451 104.5,140.5C 104.842,139.662 105.508,139.328 106.5,139.5C 108.027,139.573 109.027,138.906 109.5,137.5C 111.531,135.478 113.865,133.811 116.5,132.5C 118.027,132.573 119.027,131.906 119.5,130.5 Z"/></g>
<g><path style="opacity:0.51" fill="#afa5ad" d="M 123.5,131.5 C 123.833,131.5 124.167,131.5 124.5,131.5C 124.842,132.338 125.508,132.672 126.5,132.5C 125.167,133.167 123.833,133.833 122.5,134.5C 121.833,134.5 121.167,134.5 120.5,134.5C 120.062,134.565 119.728,134.399 119.5,134C 121.066,133.392 122.4,132.558 123.5,131.5 Z"/></g>
<g><path style="opacity:0.991" fill="#4e484d" d="M 126.5,132.5 C 127.167,132.5 127.833,132.5 128.5,132.5C 130.099,132.232 131.432,132.566 132.5,133.5C 129.214,135.451 126.214,137.785 123.5,140.5C 123.5,139.833 123.5,139.167 123.5,138.5C 123.567,137.041 123.234,135.708 122.5,134.5C 123.833,133.833 125.167,133.167 126.5,132.5 Z"/></g>
<g><path style="opacity:0.993" fill="#4d454b" d="M 66.5,126.5 C 66.3359,129.187 66.5026,131.854 67,134.5C 68.6883,135.325 68.8549,136.325 67.5,137.5C 68.5866,139.975 69.2533,139.975 69.5,137.5C 69.8333,137.5 70.1667,137.5 70.5,137.5C 71.5403,143.66 73.207,149.66 75.5,155.5C 73.9519,155.179 73.2852,154.179 73.5,152.5C 70.9664,152.259 69.2998,153.259 68.5,155.5C 64.4316,146.037 63.765,136.37 66.5,126.5 Z"/></g>
<g><path style="opacity:0.994" fill="#2c2229" d="M 99.5,133.5 C 98.9002,134.9 97.9002,135.9 96.5,136.5C 97.2341,137.708 97.5674,139.041 97.5,140.5C 95.6776,140.831 94.0109,141.498 92.5,142.5C 93.6602,140.797 92.9935,140.131 90.5,140.5C 91.1098,139.609 91.4431,138.609 91.5,137.5C 91.8333,136.5 92.5,135.833 93.5,135.5C 95.772,134.277 96.9386,132.277 97,129.5C 97.6082,131.066 98.4415,132.4 99.5,133.5 Z"/></g>
<g><path style="opacity:0.706" fill="#9f9b9e" d="M 91.5,137.5 C 91.4431,138.609 91.1098,139.609 90.5,140.5C 90.1667,140.5 89.8333,140.5 89.5,140.5C 89.427,138.973 90.0937,137.973 91.5,137.5 Z"/></g>
<g><path style="opacity:0.776" fill="#908b8f" d="M 109.5,137.5 C 109.027,138.906 108.027,139.573 106.5,139.5C 106.973,138.094 107.973,137.427 109.5,137.5 Z"/></g>
<g><path style="opacity:0.99" fill="#2a1f29" d="M 120.5,134.5 C 121.167,134.5 121.833,134.5 122.5,134.5C 123.234,135.708 123.567,137.041 123.5,138.5C 121.952,138.821 121.285,139.821 121.5,141.5C 120.448,141.351 119.448,141.517 118.5,142C 115.824,143.742 113.491,145.908 111.5,148.5C 110.351,146.075 109.684,146.075 109.5,148.5C 108.624,148.631 107.957,148.298 107.5,147.5C 108.193,146.482 108.859,145.482 109.5,144.5C 109.5,143.833 109.833,143.5 110.5,143.5C 113.186,142.012 112.853,141.345 109.5,141.5C 111.534,139.061 113.701,136.728 116,134.5C 117.355,136.774 118.855,136.774 120.5,134.5 Z"/></g>
<g><path style="opacity:0.11" fill="#cdc6cc" d="M 104.5,140.5 C 105.919,141.451 107.585,141.784 109.5,141.5C 112.853,141.345 113.186,142.012 110.5,143.5C 107.972,142.834 105.306,142.168 102.5,141.5C 102.957,140.702 103.624,140.369 104.5,140.5 Z"/></g>
<g><path style="opacity:1" fill="#332931" d="M 89.5,140.5 C 89.8333,140.5 90.1667,140.5 90.5,140.5C 92.9935,140.131 93.6602,140.797 92.5,142.5C 92.6107,143.117 92.944,143.617 93.5,144C 92.0325,145.098 91.1992,146.598 91,148.5C 90.6174,147.944 90.1174,147.611 89.5,147.5C 88.2264,146.811 88.2264,145.977 89.5,145C 88.552,144.517 87.552,144.351 86.5,144.5C 86.7376,142.596 87.7376,141.262 89.5,140.5 Z"/></g>
<g><path style="opacity:0.992" fill="#5e565d" d="M 123.5,138.5 C 123.5,139.167 123.5,139.833 123.5,140.5C 119.432,144.899 114.765,148.565 109.5,151.5C 109.5,150.5 109.5,149.5 109.5,148.5C 109.684,146.075 110.351,146.075 111.5,148.5C 113.491,145.908 115.824,143.742 118.5,142C 119.448,141.517 120.448,141.351 121.5,141.5C 121.285,139.821 121.952,138.821 123.5,138.5 Z"/></g>
<g><path style="opacity:0.996" fill="#595158" d="M 96.5,136.5 C 98.0269,136.427 99.0269,137.094 99.5,138.5C 95.8777,144.122 91.8777,149.455 87.5,154.5C 87.4606,153.417 87.1272,152.417 86.5,151.5C 87.9095,150.431 88.9095,149.097 89.5,147.5C 90.1174,147.611 90.6174,147.944 91,148.5C 91.1992,146.598 92.0325,145.098 93.5,144C 92.944,143.617 92.6107,143.117 92.5,142.5C 94.0109,141.498 95.6776,140.831 97.5,140.5C 97.5674,139.041 97.2341,137.708 96.5,136.5 Z"/></g>
<g><path style="opacity:1" fill="#281d27" d="M 86.5,144.5 C 87.552,144.351 88.552,144.517 89.5,145C 88.2264,145.977 88.2264,146.811 89.5,147.5C 88.9095,149.097 87.9095,150.431 86.5,151.5C 87.1272,152.417 87.4606,153.417 87.5,154.5C 86.8333,154.5 86.5,154.833 86.5,155.5C 85.371,157.275 84.371,158.942 83.5,160.5C 82.8333,160.5 82.1667,160.5 81.5,160.5C 81.5858,159.504 81.2524,158.671 80.5,158C 81.5,157.667 82.5,157.333 83.5,157C 82.0439,156.577 81.5439,155.744 82,154.5C 83.5,152.333 85.3333,150.5 87.5,149C 86.6919,148.692 86.0253,148.192 85.5,147.5C 86.1272,146.583 86.4606,145.583 86.5,144.5 Z"/></g>
<g><path style="opacity:0.992" fill="#534950" d="M 109.5,144.5 C 108.859,145.482 108.193,146.482 107.5,147.5C 107.957,148.298 108.624,148.631 109.5,148.5C 109.5,149.5 109.5,150.5 109.5,151.5C 105.595,154.284 101.262,156.284 96.5,157.5C 97.0283,156.279 97.695,155.113 98.5,154C 96.5753,154.135 94.5753,154.302 92.5,154.5C 98.2909,151.436 103.958,148.102 109.5,144.5 Z"/></g>
<g><path style="opacity:0.973" fill="#7d767e" d="M 87.5,154.5 C 88.9989,155.494 90.6656,155.494 92.5,154.5C 91.8658,155.947 90.6991,156.613 89,156.5C 87.9302,156.472 87.0968,156.139 86.5,155.5C 86.5,154.833 86.8333,154.5 87.5,154.5 Z"/></g>
<g><path style="opacity:1" fill="#3d333c" d="M 75.5,155.5 C 75.8333,156.833 76.1667,158.167 76.5,159.5C 73.715,158.916 72.0483,159.916 71.5,162.5C 69.7073,160.574 68.7073,158.241 68.5,155.5C 69.2998,153.259 70.9664,152.259 73.5,152.5C 73.2852,154.179 73.9519,155.179 75.5,155.5 Z"/></g>
<g><path style="opacity:1" fill="#392e37" d="M 86.5,144.5 C 86.4606,145.583 86.1272,146.583 85.5,147.5C 86.0253,148.192 86.6919,148.692 87.5,149C 85.3333,150.5 83.5,152.333 82,154.5C 81.5439,155.744 82.0439,156.577 83.5,157C 82.5,157.333 81.5,157.667 80.5,158C 81.2524,158.671 81.5858,159.504 81.5,160.5C 80.8333,160.5 80.1667,160.5 79.5,160.5C 78.7784,160.082 78.2784,159.416 78,158.5C 77.6174,159.056 77.1174,159.389 76.5,159.5C 76.1667,158.167 75.8333,156.833 75.5,155.5C 76.1174,155.611 76.6174,155.944 77,156.5C 79.6499,152.025 82.8166,148.025 86.5,144.5 Z"/></g>
<g><path style="opacity:0.957" fill="#484248" d="M 96.5,157.5 C 92.4251,159.118 88.0918,160.118 83.5,160.5C 84.371,158.942 85.371,157.275 86.5,155.5C 87.0968,156.139 87.9302,156.472 89,156.5C 90.6991,156.613 91.8658,155.947 92.5,154.5C 94.5753,154.302 96.5753,154.135 98.5,154C 97.695,155.113 97.0283,156.279 96.5,157.5 Z"/></g>
<g><path style="opacity:0.855" fill="#959095" d="M 127.5,156.5 C 124.482,156.704 121.482,157.037 118.5,157.5C 121.373,155.518 124.373,155.185 127.5,156.5 Z"/></g>
<g><path style="opacity:0.999" fill="#2a1e28" d="M 131.5,157.5 C 131.082,158.222 130.416,158.722 129.5,159C 130.833,159.333 132.167,159.667 133.5,160C 133.167,160.333 132.833,160.667 132.5,161C 128.461,161.365 124.794,162.531 121.5,164.5C 117.427,163.991 113.427,163.158 109.5,162C 110.416,161.722 111.082,161.222 111.5,160.5C 113.468,159.181 115.468,159.181 117.5,160.5C 118.517,157.972 119.684,157.972 121,160.5C 122.667,157.833 124.333,157.833 126,160.5C 126.928,157.965 128.762,156.965 131.5,157.5 Z"/></g>
<g><path style="opacity:1" fill="#433a42" d="M 127.5,156.5 C 129.415,156.216 131.081,156.549 132.5,157.5C 132.167,157.5 131.833,157.5 131.5,157.5C 128.762,156.965 126.928,157.965 126,160.5C 124.333,157.833 122.667,157.833 121,160.5C 119.684,157.972 118.517,157.972 117.5,160.5C 115.468,159.181 113.468,159.181 111.5,160.5C 110.5,160.5 109.5,160.5 108.5,160.5C 111.55,158.899 114.884,157.899 118.5,157.5C 121.482,157.037 124.482,156.704 127.5,156.5 Z"/></g>
<g><path style="opacity:1" fill="#352c35" d="M 79.5,160.5 C 79.9175,161.222 80.5842,161.722 81.5,162C 80.9056,162.464 80.2389,162.631 79.5,162.5C 78.2397,162.201 77.073,162.201 76,162.5C 74.2437,165.073 72.7437,167.74 71.5,170.5C 70.7784,170.082 70.2784,169.416 70,168.5C 69.6174,169.056 69.1174,169.389 68.5,169.5C 69.758,167.313 70.758,164.98 71.5,162.5C 72.0483,159.916 73.715,158.916 76.5,159.5C 77.1174,159.389 77.6174,159.056 78,158.5C 78.2784,159.416 78.7784,160.082 79.5,160.5 Z"/></g>
<g><path style="opacity:1" fill="#31272f" d="M 138.5,159.5 C 138.833,159.5 139.167,159.5 139.5,159.5C 139.351,160.552 139.517,161.552 140,162.5C 141.356,161.62 142.856,161.286 144.5,161.5C 147.912,162.075 150.912,163.408 153.5,165.5C 152.402,166.397 152.402,167.23 153.5,168C 151.685,168.757 150.019,169.59 148.5,170.5C 147.167,170.5 145.833,170.5 144.5,170.5C 143.674,168.736 142.341,167.402 140.5,166.5C 139.571,165.685 138.571,164.852 137.5,164C 137.833,163.667 138.167,163.333 138.5,163C 137.004,162.493 135.837,162.993 135,164.5C 134.005,163.934 133.172,163.267 132.5,162.5C 134.012,160.683 136.012,159.683 138.5,159.5 Z"/></g>
<g><path style="opacity:1" fill="#40363e" d="M 108.5,160.5 C 109.5,160.5 110.5,160.5 111.5,160.5C 111.082,161.222 110.416,161.722 109.5,162C 113.427,163.158 117.427,163.991 121.5,164.5C 116.497,166.706 111.164,168.039 105.5,168.5C 105.167,168.5 104.833,168.5 104.5,168.5C 104.649,167.448 104.483,166.448 104,165.5C 103.667,165.833 103.333,166.167 103,166.5C 101.259,165.242 99.4258,164.242 97.5,163.5C 100.907,161.926 104.573,160.926 108.5,160.5 Z"/></g>
<g><path style="opacity:1" fill="#433a42" d="M 131.5,157.5 C 131.833,157.5 132.167,157.5 132.5,157.5C 134.786,157.595 136.786,158.262 138.5,159.5C 136.012,159.683 134.012,160.683 132.5,162.5C 131.063,163.722 129.563,163.722 128,162.5C 126.97,162.836 126.47,163.503 126.5,164.5C 126.167,164.5 125.833,164.5 125.5,164.5C 124.167,164.5 122.833,164.5 121.5,164.5C 124.794,162.531 128.461,161.365 132.5,161C 132.833,160.667 133.167,160.333 133.5,160C 132.167,159.667 130.833,159.333 129.5,159C 130.416,158.722 131.082,158.222 131.5,157.5 Z"/></g>
<g><path style="opacity:1" fill="#766c74" d="M 139.5,159.5 C 141.403,159.796 143.07,160.463 144.5,161.5C 142.856,161.286 141.356,161.62 140,162.5C 139.517,161.552 139.351,160.552 139.5,159.5 Z"/></g>
<g><path style="opacity:1" fill="#291d28" d="M 79.5,162.5 C 78.4019,163.397 78.4019,164.23 79.5,165C 78.552,165.483 77.552,165.649 76.5,165.5C 76.4729,167.199 75.8062,168.533 74.5,169.5C 73.609,170.11 72.609,170.443 71.5,170.5C 72.7437,167.74 74.2437,165.073 76,162.5C 77.073,162.201 78.2397,162.201 79.5,162.5 Z"/></g>
<g><path style="opacity:0.902" fill="#847f82" d="M 97.5,163.5 C 95.1617,165.04 92.4951,165.706 89.5,165.5C 91.9052,164.232 94.5718,163.565 97.5,163.5 Z"/></g>
<g><path style="opacity:0.996" fill="#3a3039" d="M 97.5,163.5 C 99.4258,164.242 101.259,165.242 103,166.5C 103.333,166.167 103.667,165.833 104,165.5C 104.483,166.448 104.649,167.448 104.5,168.5C 101.881,168.768 99.3806,168.435 97,167.5C 96.4867,168.527 95.9867,169.527 95.5,170.5C 92.6085,171.403 89.6085,171.736 86.5,171.5C 86.2132,168.516 84.5465,167.183 81.5,167.5C 83.9052,166.232 86.5718,165.565 89.5,165.5C 92.4951,165.706 95.1617,165.04 97.5,163.5 Z"/></g>
<g><path style="opacity:1" fill="#292028" d="M 132.5,162.5 C 133.172,163.267 134.005,163.934 135,164.5C 135.837,162.993 137.004,162.493 138.5,163C 138.167,163.333 137.833,163.667 137.5,164C 138.571,164.852 139.571,165.685 140.5,166.5C 139.903,167.139 139.07,167.472 138,167.5C 134.364,165.937 130.531,164.937 126.5,164.5C 126.47,163.503 126.97,162.836 128,162.5C 129.563,163.722 131.063,163.722 132.5,162.5 Z"/></g>
<g><path style="opacity:0.987" fill="#4f484f" d="M 125.5,164.5 C 125.833,164.5 126.167,164.5 126.5,164.5C 130.531,164.937 134.364,165.937 138,167.5C 139.07,167.472 139.903,167.139 140.5,166.5C 142.341,167.402 143.674,168.736 144.5,170.5C 144.167,170.5 143.833,170.5 143.5,170.5C 137.216,169.072 131.216,167.072 125.5,164.5 Z"/></g>
<g><path style="opacity:0.974" fill="#6f696d" d="M 104.5,168.5 C 104.833,168.5 105.167,168.5 105.5,168.5C 102.411,169.785 99.0781,170.451 95.5,170.5C 95.9867,169.527 96.4867,168.527 97,167.5C 99.3806,168.435 101.881,168.768 104.5,168.5 Z"/></g>
<g><path style="opacity:1" fill="#4d444c" d="M 79.5,160.5 C 80.1667,160.5 80.8333,160.5 81.5,160.5C 82.1667,160.5 82.8333,160.5 83.5,160.5C 82.3918,162.781 81.0585,164.948 79.5,167C 80.0944,167.464 80.7611,167.631 81.5,167.5C 79.5739,168.486 77.5739,169.486 75.5,170.5C 75.5,169.833 75.1667,169.5 74.5,169.5C 75.8062,168.533 76.4729,167.199 76.5,165.5C 77.552,165.649 78.552,165.483 79.5,165C 78.4019,164.23 78.4019,163.397 79.5,162.5C 80.2389,162.631 80.9056,162.464 81.5,162C 80.5842,161.722 79.9175,161.222 79.5,160.5 Z"/></g>
<g><path style="opacity:0.999" fill="#282028" d="M 81.5,167.5 C 84.5465,167.183 86.2132,168.516 86.5,171.5C 86.1667,171.5 85.8333,171.5 85.5,171.5C 82.1667,171.5 78.8333,171.5 75.5,171.5C 75.5,171.167 75.5,170.833 75.5,170.5C 77.5739,169.486 79.5739,168.486 81.5,167.5 Z"/></g>
<g><path style="opacity:1" fill="#362c34" d="M 153.5,165.5 C 156.485,166.326 159.151,167.659 161.5,169.5C 160.732,170.263 160.232,171.263 160,172.5C 156.767,171.142 155.267,171.142 155.5,172.5C 155.083,173.124 154.416,173.457 153.5,173.5C 151.664,172.604 149.997,171.604 148.5,170.5C 150.019,169.59 151.685,168.757 153.5,168C 152.402,167.23 152.402,166.397 153.5,165.5 Z"/></g>
<g><path style="opacity:0.961" fill="#625b61" d="M 143.5,170.5 C 143.833,170.5 144.167,170.5 144.5,170.5C 145.833,170.5 147.167,170.5 148.5,170.5C 149.997,171.604 151.664,172.604 153.5,173.5C 154.416,173.457 155.083,173.124 155.5,172.5C 158.797,172.329 159.131,172.995 156.5,174.5C 156.863,175.183 157.196,175.85 157.5,176.5C 152.533,175.012 147.866,173.012 143.5,170.5 Z"/></g>
<g><path style="opacity:1" fill="#2a1e28" d="M 71.5,170.5 C 72.609,170.443 73.609,170.11 74.5,169.5C 75.1667,169.5 75.5,169.833 75.5,170.5C 75.5,170.833 75.5,171.167 75.5,171.5C 72.848,171.55 71.848,172.55 72.5,174.5C 72.0431,175.298 71.3764,175.631 70.5,175.5C 68.8967,175.688 67.5634,175.188 66.5,174C 67.5822,172.67 68.2488,171.17 68.5,169.5C 69.1174,169.389 69.6174,169.056 70,168.5C 70.2784,169.416 70.7784,170.082 71.5,170.5 Z"/></g>
<g><path style="opacity:1" fill="#2a1f29" d="M 161.5,169.5 C 161.859,171.371 162.859,172.871 164.5,174C 162.389,174.845 160.389,175.678 158.5,176.5C 158.167,176.5 157.833,176.5 157.5,176.5C 157.196,175.85 156.863,175.183 156.5,174.5C 159.131,172.995 158.797,172.329 155.5,172.5C 155.267,171.142 156.767,171.142 160,172.5C 160.232,171.263 160.732,170.263 161.5,169.5 Z"/></g>
<g><path style="opacity:1" fill="#483f46" d="M 161.5,169.5 C 165.655,170.742 169.322,172.742 172.5,175.5C 171.175,176.953 170.342,176.619 170,174.5C 167.034,176.933 167.2,178.433 170.5,179C 168.381,179.342 168.047,180.175 169.5,181.5C 165.503,180.397 161.836,178.731 158.5,176.5C 160.389,175.678 162.389,174.845 164.5,174C 162.859,172.871 161.859,171.371 161.5,169.5 Z"/></g>
<g><path style="opacity:1" fill="#3c343b" d="M 68.5,169.5 C 68.2488,171.17 67.5822,172.67 66.5,174C 67.5634,175.188 68.8967,175.688 70.5,175.5C 69.4058,177.359 68.5725,179.359 68,181.5C 67.6174,180.944 67.1174,180.611 66.5,180.5C 67.5063,179.604 67.5063,178.938 66.5,178.5C 64.9103,176.179 62.5769,175.179 59.5,175.5C 62.6351,173.761 65.6351,171.761 68.5,169.5 Z"/></g>
<g><path style="opacity:0.996" fill="#6a6369" d="M 75.5,171.5 C 78.8333,171.5 82.1667,171.5 85.5,171.5C 82.3586,172.321 79.0252,172.821 75.5,173C 72.9703,177.013 70.3036,180.846 67.5,184.5C 67.3678,181.993 66.3678,181.326 64.5,182.5C 64.5,182.167 64.5,181.833 64.5,181.5C 64.8417,180.662 65.5084,180.328 66.5,180.5C 67.1174,180.611 67.6174,180.944 68,181.5C 68.5725,179.359 69.4058,177.359 70.5,175.5C 71.3764,175.631 72.0431,175.298 72.5,174.5C 71.848,172.55 72.848,171.55 75.5,171.5 Z"/></g>
<g><path style="opacity:1" fill="#302730" d="M 59.5,175.5 C 62.5769,175.179 64.9103,176.179 66.5,178.5C 64.2646,178.205 62.2646,178.539 60.5,179.5C 59.8333,179.5 59.5,179.833 59.5,180.5C 59.1667,180.5 58.8333,180.5 58.5,180.5C 56.5956,180.262 55.2623,179.262 54.5,177.5C 55.9303,176.463 57.597,175.796 59.5,175.5 Z"/></g>
<g><path style="opacity:0.95" fill="#3c333a" d="M 60.5,179.5 C 62.2646,178.539 64.2646,178.205 66.5,178.5C 67.5063,178.938 67.5063,179.604 66.5,180.5C 65.5084,180.328 64.8417,180.662 64.5,181.5C 62.9373,182.945 61.604,184.611 60.5,186.5C 60.5,186.833 60.5,187.167 60.5,187.5C 60.1667,187.5 59.8333,187.5 59.5,187.5C 58.1667,187.5 57.5,186.833 57.5,185.5C 57.9321,184.29 58.5987,183.29 59.5,182.5C 60.2674,181.828 60.9341,180.995 61.5,180C 61.2716,179.601 60.9382,179.435 60.5,179.5 Z"/></g>
<g><path style="opacity:1" fill="#4d474d" d="M 54.5,177.5 C 55.2623,179.262 56.5956,180.262 58.5,180.5C 54.1511,183.341 49.4844,185.674 44.5,187.5C 43.7375,186.732 42.7375,186.232 41.5,186C 42.305,184.887 42.9717,183.721 43.5,182.5C 46.9789,180.597 50.6456,178.93 54.5,177.5 Z"/></g>
<g><path style="opacity:0.122" fill="#d3ccd2" d="M 60.5,179.5 C 60.9382,179.435 61.2716,179.601 61.5,180C 60.9341,180.995 60.2674,181.828 59.5,182.5C 59.5,181.833 59.5,181.167 59.5,180.5C 59.5,179.833 59.8333,179.5 60.5,179.5 Z"/></g>
<g><path style="opacity:1" fill="#352c34" d="M 172.5,175.5 C 177.024,177.043 181.024,179.377 184.5,182.5C 185.866,185.425 184.866,187.091 181.5,187.5C 179.798,184.475 177.131,183.141 173.5,183.5C 171.847,183.34 170.514,182.674 169.5,181.5C 168.047,180.175 168.381,179.342 170.5,179C 167.2,178.433 167.034,176.933 170,174.5C 170.342,176.619 171.175,176.953 172.5,175.5 Z"/></g>
<g><path style="opacity:0.294" fill="#ccc5cb" d="M 64.5,181.5 C 64.5,181.833 64.5,182.167 64.5,182.5C 63.9744,184.23 62.9744,185.564 61.5,186.5C 61.1667,186.5 60.8333,186.5 60.5,186.5C 61.604,184.611 62.9373,182.945 64.5,181.5 Z"/></g>
<g><path style="opacity:0.386" fill="#c3c2c3" d="M 114.5,185.5 C 113.662,185.842 113.328,186.508 113.5,187.5C 112.371,185.372 112.204,183.039 113,180.5C 113.608,182.154 114.108,183.821 114.5,185.5 Z"/></g>
<g><path style="opacity:0.957" fill="#6d646c" d="M 173.5,183.5 C 177.131,183.141 179.798,184.475 181.5,187.5C 178.515,186.674 175.849,185.341 173.5,183.5 Z"/></g>
<g><path style="opacity:0.961" fill="#3a3238" d="M 67.5,184.5 C 67.0679,185.71 66.4013,186.71 65.5,187.5C 64.5,187.5 63.5,187.5 62.5,187.5C 62.762,188.978 62.4287,190.311 61.5,191.5C 60.7025,191.043 60.3691,190.376 60.5,189.5C 60.5,188.833 60.5,188.167 60.5,187.5C 61.1667,187.5 61.5,187.167 61.5,186.5C 62.9744,185.564 63.9744,184.23 64.5,182.5C 66.3678,181.326 67.3678,181.993 67.5,184.5 Z"/></g>
<g><path style="opacity:1" fill="#4b434a" d="M 43.5,182.5 C 42.9717,183.721 42.305,184.887 41.5,186C 42.7375,186.232 43.7375,186.732 44.5,187.5C 43.7095,188.401 42.7095,189.068 41.5,189.5C 38.5941,189.903 36.7607,191.569 36,194.5C 35.5065,192.866 35.3398,191.199 35.5,189.5C 36.5813,185.422 39.248,183.089 43.5,182.5 Z"/></g>
<g><path style="opacity:0.993" fill="#50484f" d="M 184.5,182.5 C 187.76,183.774 190.76,185.44 193.5,187.5C 191.143,187.337 188.81,187.503 186.5,188C 185.944,188.383 185.611,188.883 185.5,189.5C 183.847,189.34 182.514,188.674 181.5,187.5C 184.866,187.091 185.866,185.425 184.5,182.5 Z"/></g>
<g><path style="opacity:0.369" fill="#c8c8c8" d="M 247.5,191.5 C 247.5,190.833 247.167,190.5 246.5,190.5C 249.197,189.07 252.031,187.737 255,186.5C 255.688,187.332 255.521,187.998 254.5,188.5C 252.261,189.788 249.928,190.788 247.5,191.5 Z"/></g>
<g><path style="opacity:1" fill="#40383f" d="M 193.5,187.5 C 192.85,189.435 192.517,191.435 192.5,193.5C 189.996,192.416 187.663,191.083 185.5,189.5C 185.611,188.883 185.944,188.383 186.5,188C 188.81,187.503 191.143,187.337 193.5,187.5 Z"/></g>
<g><path style="opacity:0.992" fill="#524a51" d="M 193.5,187.5 C 196.709,189.265 199.709,191.265 202.5,193.5C 201.504,193.414 200.671,193.748 200,194.5C 198.484,191.994 196.318,191.16 193.5,192C 194.252,192.671 194.586,193.504 194.5,194.5C 193.508,194.672 192.842,194.338 192.5,193.5C 192.517,191.435 192.85,189.435 193.5,187.5 Z"/></g>
<g><path style="opacity:1" fill="#61595f" d="M 35.5,189.5 C 35.3398,191.199 35.5065,192.866 36,194.5C 36.7607,191.569 38.5941,189.903 41.5,189.5C 39.883,192.784 37.5497,195.451 34.5,197.5C 34.8432,195.517 34.1765,194.183 32.5,193.5C 32.7376,191.596 33.7376,190.262 35.5,189.5 Z"/></g>
<g><path style="opacity:1" fill="#292027" d="M 80.5,189.5 C 80.4226,190.75 79.756,191.583 78.5,192C 79.3802,193.356 79.7135,194.856 79.5,196.5C 77.326,196.92 75.326,196.92 73.5,196.5C 74.8771,193.123 77.2104,190.789 80.5,189.5 Z"/></g>
<g><path style="opacity:0.953" fill="#5f595d" d="M 80.5,189.5 C 84.1495,191.171 87.8161,192.504 91.5,193.5C 88.4331,193.121 87.4331,194.121 88.5,196.5C 86.8297,196.249 85.3297,195.582 84,194.5C 83.1841,195.823 82.0174,196.489 80.5,196.5C 80.1667,196.5 79.8333,196.5 79.5,196.5C 79.7135,194.856 79.3802,193.356 78.5,192C 79.756,191.583 80.4226,190.75 80.5,189.5 Z"/></g>
<g><path style="opacity:0.706" fill="#787778" d="M 246.5,190.5 C 247.167,190.5 247.5,190.833 247.5,191.5C 245.491,193.065 243.157,194.065 240.5,194.5C 239.432,193.566 238.099,193.232 236.5,193.5C 239.619,192.13 242.952,191.13 246.5,190.5 Z"/></g>
<g><path style="opacity:0.994" fill="#403a40" d="M 103.5,192.5 C 102.737,193.268 101.737,193.768 100.5,194C 101.5,194.333 102.5,194.667 103.5,195C 101.142,196.276 98.8084,197.442 96.5,198.5C 93.6592,198.44 90.9925,197.774 88.5,196.5C 87.4331,194.121 88.4331,193.121 91.5,193.5C 95.5341,193.495 99.5341,193.162 103.5,192.5 Z"/></g>
<g><path style="opacity:0.957" fill="#413d40" d="M 236.5,193.5 C 238.099,193.232 239.432,193.566 240.5,194.5C 239.791,195.404 238.791,195.737 237.5,195.5C 236.127,195.657 234.793,195.49 233.5,195C 234.737,194.768 235.737,194.268 236.5,193.5 Z"/></g>
<g><path style="opacity:0.976" fill="#726e72" d="M 57.5,185.5 C 57.5,186.833 58.1667,187.5 59.5,187.5C 59.5,188.167 59.5,188.833 59.5,189.5C 58.8333,189.5 58.5,189.833 58.5,190.5C 57.6618,190.842 57.3284,191.508 57.5,192.5C 55.8333,194.5 54.1667,196.5 52.5,198.5C 52.631,197.761 52.4643,197.094 52,196.5C 51.2917,197.381 50.4584,198.047 49.5,198.5C 51.4176,193.657 54.0843,189.323 57.5,185.5 Z"/></g>
<g><path style="opacity:0.953" fill="#656165" d="M 65.5,187.5 C 63.2217,191.466 60.8884,195.466 58.5,199.5C 60.0948,200.434 61.7615,200.434 63.5,199.5C 63.5,199.833 63.5,200.167 63.5,200.5C 61.283,201.369 58.9496,201.702 56.5,201.5C 57.5,199.167 56.8333,198.5 54.5,199.5C 55.758,197.313 56.758,194.98 57.5,192.5C 58.3382,192.158 58.6716,191.492 58.5,190.5C 59.1667,190.5 59.5,190.167 59.5,189.5C 59.8333,189.5 60.1667,189.5 60.5,189.5C 60.3691,190.376 60.7025,191.043 61.5,191.5C 62.4287,190.311 62.762,188.978 62.5,187.5C 63.5,187.5 64.5,187.5 65.5,187.5 Z"/></g>
<g><path style="opacity:1" fill="#4b4349" d="M 202.5,193.5 C 207.078,196.133 212.078,197.133 217.5,196.5C 217.5,196.833 217.5,197.167 217.5,197.5C 212.672,197.711 208.005,197.711 203.5,197.5C 201.279,197.439 200.946,198.105 202.5,199.5C 199.489,198.331 196.822,196.664 194.5,194.5C 194.586,193.504 194.252,192.671 193.5,192C 196.318,191.16 198.484,191.994 200,194.5C 200.671,193.748 201.504,193.414 202.5,193.5 Z"/></g>
<g><path style="opacity:0.971" fill="#757074" d="M 236.5,193.5 C 235.737,194.268 234.737,194.768 233.5,195C 234.793,195.49 236.127,195.657 237.5,195.5C 235.208,197.267 232.542,198.267 229.5,198.5C 232.04,196.334 231.373,195.334 227.5,195.5C 230.273,194.343 233.273,193.676 236.5,193.5 Z"/></g>
<g><path style="opacity:1" fill="#382f36" d="M 111.5,196.5 C 106.743,198.792 101.743,199.459 96.5,198.5C 98.8084,197.442 101.142,196.276 103.5,195C 102.5,194.667 101.5,194.333 100.5,194C 101.737,193.768 102.737,193.268 103.5,192.5C 104.167,192.5 104.833,192.5 105.5,192.5C 108.244,191.795 110.911,191.795 113.5,192.5C 112.91,193.799 111.91,194.632 110.5,195C 111.056,195.383 111.389,195.883 111.5,196.5 Z"/></g>
<g><path style="opacity:0.993" fill="#676266" d="M 80.5,189.5 C 77.2104,190.789 74.8771,193.123 73.5,196.5C 75.326,196.92 77.326,196.92 79.5,196.5C 79.8333,196.5 80.1667,196.5 80.5,196.5C 77.6865,198.07 74.6865,199.403 71.5,200.5C 71.5,199.5 71.5,198.5 71.5,197.5C 70.5,197.5 69.5,197.5 68.5,197.5C 71.6043,194.899 74.6043,192.066 77.5,189C 78.7494,188.26 79.7494,188.427 80.5,189.5 Z"/></g>
<g><path style="opacity:0.98" fill="#534b50" d="M 227.5,195.5 C 231.373,195.334 232.04,196.334 229.5,198.5C 225.143,200.419 220.477,201.419 215.5,201.5C 216.568,200.566 217.901,200.232 219.5,200.5C 219.715,198.821 219.048,197.821 217.5,197.5C 217.5,197.167 217.5,196.833 217.5,196.5C 220.764,195.676 224.098,195.342 227.5,195.5 Z"/></g>
<g><path style="opacity:0.988" fill="#474146" d="M 32.5,193.5 C 34.1765,194.183 34.8432,195.517 34.5,197.5C 34.0472,198.458 33.3805,199.292 32.5,200C 33.305,201.113 33.9717,202.279 34.5,203.5C 34.631,204.239 34.4643,204.906 34,205.5C 33.3292,204.748 32.4959,204.414 31.5,204.5C 30.8333,204.5 30.5,204.167 30.5,203.5C 29.0998,202.9 28.0998,201.9 27.5,200.5C 28.7859,197.883 30.4525,195.55 32.5,193.5 Z"/></g>
<g><path style="opacity:0.369" fill="#b1aeb1" d="M 125.5,199.5 C 125.591,197.302 124.925,196.969 123.5,198.5C 124.391,196.391 125.558,194.391 127,192.5C 127.588,195.139 127.088,197.473 125.5,199.5 Z"/></g>
<g><path style="opacity:0.98" fill="#3a3038" d="M 217.5,197.5 C 219.048,197.821 219.715,198.821 219.5,200.5C 217.901,200.232 216.568,200.566 215.5,201.5C 212.064,202.782 208.731,202.782 205.5,201.5C 205.027,200.094 204.027,199.427 202.5,199.5C 200.946,198.105 201.279,197.439 203.5,197.5C 208.005,197.711 212.672,197.711 217.5,197.5 Z"/></g>
<g><path style="opacity:0.98" fill="#666366" d="M 52.5,198.5 C 50.8627,202.118 48.8627,205.451 46.5,208.5C 46.8693,206.007 46.2027,205.34 44.5,206.5C 45.6693,203.489 47.336,200.822 49.5,198.5C 50.4584,198.047 51.2917,197.381 52,196.5C 52.4643,197.094 52.631,197.761 52.5,198.5 Z"/></g>
<g><path style="opacity:0.989" fill="#473f45" d="M 114.5,185.5 C 116.553,191.889 117.553,198.223 117.5,204.5C 118.552,204.351 119.552,204.517 120.5,205C 119.244,205.417 118.577,206.25 118.5,207.5C 117.883,207.389 117.383,207.056 117,206.5C 116.51,207.793 116.343,209.127 116.5,210.5C 114.833,210.5 113.167,210.5 111.5,210.5C 111.5,209.167 111.5,207.833 111.5,206.5C 111.901,203.252 112.568,200.085 113.5,197C 112.906,196.536 112.239,196.369 111.5,196.5C 111.389,195.883 111.056,195.383 110.5,195C 111.91,194.632 112.91,193.799 113.5,192.5C 110.911,191.795 108.244,191.795 105.5,192.5C 107.562,191.224 109.896,190.39 112.5,190C 113.252,189.329 113.586,188.496 113.5,187.5C 113.328,186.508 113.662,185.842 114.5,185.5 Z"/></g>
<g><path style="opacity:1" fill="#534e54" d="M 68.5,197.5 C 69.5,197.5 70.5,197.5 71.5,197.5C 71.5,198.5 71.5,199.5 71.5,200.5C 69.4907,202.065 67.1573,203.065 64.5,203.5C 64.4142,202.504 64.7476,201.671 65.5,201C 64.9056,200.536 64.2389,200.369 63.5,200.5C 63.5,200.167 63.5,199.833 63.5,199.5C 65.0495,198.559 66.7162,197.893 68.5,197.5 Z"/></g>
<g><path style="opacity:0.529" fill="#988c96" d="M 202.5,199.5 C 204.027,199.427 205.027,200.094 205.5,201.5C 203.973,201.573 202.973,200.906 202.5,199.5 Z"/></g>
<g><path style="opacity:0.975" fill="#363034" d="M 63.5,200.5 C 64.2389,200.369 64.9056,200.536 65.5,201C 64.7476,201.671 64.4142,202.504 64.5,203.5C 63.2921,204.234 61.9587,204.567 60.5,204.5C 58.146,204.162 55.8127,203.662 53.5,203C 54.7375,202.768 55.7375,202.268 56.5,201.5C 58.9496,201.702 61.283,201.369 63.5,200.5 Z"/></g>
<g><path style="opacity:0.985" fill="#4e474d" d="M 56.5,201.5 C 55.7375,202.268 54.7375,202.768 53.5,203C 55.8127,203.662 58.146,204.162 60.5,204.5C 58.0259,205.105 55.6926,206.105 53.5,207.5C 52.1667,207.5 51.5,206.833 51.5,205.5C 51.9925,203.181 52.9925,201.181 54.5,199.5C 56.8333,198.5 57.5,199.167 56.5,201.5 Z"/></g>
<g><path style="opacity:0.991" fill="#635e64" d="M 125.5,199.5 C 123.938,203.392 121.605,206.725 118.5,209.5C 118.5,208.833 118.5,208.167 118.5,207.5C 118.577,206.25 119.244,205.417 120.5,205C 119.552,204.517 118.552,204.351 117.5,204.5C 119.167,202.167 121.167,200.167 123.5,198.5C 124.925,196.969 125.591,197.302 125.5,199.5 Z"/></g>
<g><path style="opacity:0.725" fill="#9c999a" d="M 131.5,207.5 C 131.869,205.007 131.203,204.34 129.5,205.5C 130.128,202.91 131.295,200.577 133,198.5C 133.32,201.72 132.82,204.72 131.5,207.5 Z"/></g>
<g><path style="opacity:0.055" fill="#d6d6d6" d="M 85.5,207.5 C 84.8333,207.5 84.1667,207.5 83.5,207.5C 83.6051,202.34 84.2717,202.34 85.5,207.5 Z"/></g>
<g><path style="opacity:0.957" fill="#605b5f" d="M 27.5,200.5 C 28.0998,201.9 29.0998,202.9 30.5,203.5C 26.7881,206.211 23.7881,209.544 21.5,213.5C 20.8333,213.833 20.1667,214.167 19.5,214.5C 19.5,213.167 18.8333,212.5 17.5,212.5C 20.4864,208.183 23.8197,204.183 27.5,200.5 Z"/></g>
<g><path style="opacity:0.976" fill="#5a575a" d="M 46.5,208.5 C 44.1974,213.446 41.5307,218.113 38.5,222.5C 37.0821,220.692 35.0821,220.025 32.5,220.5C 33.8775,219.766 35.3775,219.099 37,218.5C 39.2746,214.268 41.7746,210.268 44.5,206.5C 46.2027,205.34 46.8693,206.007 46.5,208.5 Z"/></g>
<g><path style="opacity:0.999" fill="#5a535a" d="M 111.5,206.5 C 111.5,207.833 111.5,209.167 111.5,210.5C 113.167,210.5 114.833,210.5 116.5,210.5C 116.343,209.127 116.51,207.793 117,206.5C 117.383,207.056 117.883,207.389 118.5,207.5C 118.5,208.167 118.5,208.833 118.5,209.5C 115.839,212.502 112.505,214.502 108.5,215.5C 108.577,214.25 109.244,213.417 110.5,213C 109.167,212.333 109.167,211.667 110.5,211C 109.906,210.536 109.239,210.369 108.5,210.5C 109.512,209.128 110.512,207.795 111.5,206.5 Z"/></g>
<g><path style="opacity:1" fill="#524e50" d="M 131.5,207.5 C 130.99,210.674 129.323,213.008 126.5,214.5C 125.761,214.631 125.094,214.464 124.5,214C 125.252,213.329 125.586,212.496 125.5,211.5C 126.846,209.463 128.18,207.463 129.5,205.5C 131.203,204.34 131.869,205.007 131.5,207.5 Z"/></g>
<g><path style="opacity:0.808" fill="#828082" d="M 34.5,203.5 C 35.6946,203.866 36.3613,204.699 36.5,206C 33.001,212.097 28.001,214.597 21.5,213.5C 26.0892,212.42 29.7558,209.92 32.5,206C 31.944,205.617 31.6107,205.117 31.5,204.5C 32.4959,204.414 33.3292,204.748 34,205.5C 34.4643,204.906 34.631,204.239 34.5,203.5 Z"/></g>
<g><path style="opacity:0.969" fill="#585156" d="M 51.5,205.5 C 51.5,206.833 52.1667,207.5 53.5,207.5C 53.2671,209.062 52.6005,210.395 51.5,211.5C 50.0689,211.881 49.2355,212.881 49,214.5C 48.2303,213.402 47.397,213.402 46.5,214.5C 47.4097,211.008 49.0764,208.008 51.5,205.5 Z"/></g>
<g><path style="opacity:1" fill="#463e45" d="M 83.5,207.5 C 84.1667,207.5 84.8333,207.5 85.5,207.5C 86.9301,209.386 88.5968,211.053 90.5,212.5C 88.8166,212.619 87.15,212.952 85.5,213.5C 84.7611,213.631 84.0944,213.464 83.5,213C 84.6956,212.346 84.6956,211.846 83.5,211.5C 81.9291,212.309 80.2624,212.643 78.5,212.5C 80.4727,211.194 82.1394,209.527 83.5,207.5 Z"/></g>
<g><path style="opacity:0.974" fill="#3a3038" d="M 51.5,211.5 C 54.6271,214.227 58.2937,215.56 62.5,215.5C 67.9457,215.011 73.2791,214.011 78.5,212.5C 75.2966,214.263 72.2966,216.263 69.5,218.5C 67.5976,217.489 65.5976,217.322 63.5,218C 64.056,218.383 64.3893,218.883 64.5,219.5C 58.5,219.5 52.5,219.5 46.5,219.5C 46.5,218.5 46.5,217.5 46.5,216.5C 46.5,215.833 46.5,215.167 46.5,214.5C 47.397,213.402 48.2303,213.402 49,214.5C 49.2355,212.881 50.0689,211.881 51.5,211.5 Z"/></g>
<g><path style="opacity:1" fill="#413940" d="M 108.5,210.5 C 109.239,210.369 109.906,210.536 110.5,211C 109.167,211.667 109.167,212.333 110.5,213C 109.244,213.417 108.577,214.25 108.5,215.5C 103.503,217.749 98.1698,219.083 92.5,219.5C 92.5,218.833 92.5,218.167 92.5,217.5C 94.1754,217.868 95.8421,217.202 97.5,215.5C 98.4776,215.977 99.3109,216.643 100,217.5C 101.438,216.1 102.271,214.433 102.5,212.5C 104.214,211.262 106.214,210.595 108.5,210.5 Z"/></g>
<g><path style="opacity:1" fill="#2c1f2a" d="M 85.5,213.5 C 87.9248,213.684 87.9248,214.351 85.5,215.5C 86.2427,216.182 86.9094,216.849 87.5,217.5C 84.4547,217.704 81.6213,217.704 79,217.5C 78.6121,218.428 77.9454,219.095 77,219.5C 74.5661,218.678 72.0661,218.344 69.5,218.5C 72.2966,216.263 75.2966,214.263 78.5,212.5C 80.2624,212.643 81.9291,212.309 83.5,211.5C 84.6956,211.846 84.6956,212.346 83.5,213C 84.0944,213.464 84.7611,213.631 85.5,213.5 Z"/></g>
<g><path style="opacity:1" fill="#3b2f39" d="M 85.5,213.5 C 87.15,212.952 88.8166,212.619 90.5,212.5C 94.5,212.5 98.5,212.5 102.5,212.5C 102.271,214.433 101.438,216.1 100,217.5C 99.3109,216.643 98.4776,215.977 97.5,215.5C 95.8421,217.202 94.1754,217.868 92.5,217.5C 90.8333,217.5 89.1667,217.5 87.5,217.5C 86.9094,216.849 86.2427,216.182 85.5,215.5C 87.9248,214.351 87.9248,213.684 85.5,213.5 Z"/></g>
<g><path style="opacity:0.733" fill="#898789" d="M 125.5,211.5 C 125.586,212.496 125.252,213.329 124.5,214C 125.094,214.464 125.761,214.631 126.5,214.5C 124.375,216.818 121.709,217.652 118.5,217C 120.996,215.334 123.329,213.5 125.5,211.5 Z"/></g>
<g><path style="opacity:0.975" fill="#4d454d" d="M 17.5,212.5 C 18.8333,212.5 19.5,213.167 19.5,214.5C 20.1355,216.795 21.4689,218.461 23.5,219.5C 20.9899,219.054 18.9899,219.72 17.5,221.5C 12.4113,218.375 12.4113,215.375 17.5,212.5 Z"/></g>
<g><path style="opacity:0.322" fill="#ada9ae" d="M 46.5,214.5 C 46.5,215.167 46.5,215.833 46.5,216.5C 45.8333,216.833 45.1667,217.167 44.5,217.5C 44.427,215.973 45.0937,214.973 46.5,214.5 Z"/></g>
<g><path style="opacity:0.998" fill="#322730" d="M 69.5,218.5 C 72.0661,218.344 74.5661,218.678 77,219.5C 77.9454,219.095 78.6121,218.428 79,217.5C 81.6213,217.704 84.4547,217.704 87.5,217.5C 89.1667,217.5 90.8333,217.5 92.5,217.5C 92.5,218.167 92.5,218.833 92.5,219.5C 89.513,219.348 86.8464,219.015 84.5,218.5C 80.2893,220.035 75.956,221.035 71.5,221.5C 69.0504,221.702 66.717,221.369 64.5,220.5C 64.5,220.167 64.5,219.833 64.5,219.5C 64.3893,218.883 64.056,218.383 63.5,218C 65.5976,217.322 67.5976,217.489 69.5,218.5 Z"/></g>
<g><path style="opacity:0.969" fill="#5c555b" d="M 46.5,216.5 C 46.5,217.5 46.5,218.5 46.5,219.5C 52.5,219.5 58.5,219.5 64.5,219.5C 64.5,219.833 64.5,220.167 64.5,220.5C 57.204,219.85 50.204,220.85 43.5,223.5C 42.6618,223.158 42.3284,222.492 42.5,221.5C 42.6596,219.847 43.3263,218.514 44.5,217.5C 45.1667,217.167 45.8333,216.833 46.5,216.5 Z"/></g>
<g><path style="opacity:0.973" fill="#534d53" d="M 92.5,219.5 C 85.6484,222.214 78.6484,222.88 71.5,221.5C 75.956,221.035 80.2893,220.035 84.5,218.5C 86.8464,219.015 89.513,219.348 92.5,219.5 Z"/></g>
<g><path style="opacity:1" fill="#3e353c" d="M 23.5,219.5 C 24.4916,219.328 25.1583,219.662 25.5,220.5C 27.2922,221.309 29.2922,221.809 31.5,222C 32.2524,222.671 32.5858,223.504 32.5,224.5C 32.5,224.833 32.5,225.167 32.5,225.5C 28.8183,225.665 25.1516,225.499 21.5,225C 19.6763,224.34 18.343,223.173 17.5,221.5C 18.9899,219.72 20.9899,219.054 23.5,219.5 Z"/></g>
<g><path style="opacity:1" fill="#474047" d="M 25.5,220.5 C 27.8333,220.5 30.1667,220.5 32.5,220.5C 35.0821,220.025 37.0821,220.692 38.5,222.5C 38.6716,223.492 38.3382,224.158 37.5,224.5C 36.1667,224.5 34.8333,224.5 33.5,224.5C 33.1667,224.5 32.8333,224.5 32.5,224.5C 32.5858,223.504 32.2524,222.671 31.5,222C 29.2922,221.809 27.2922,221.309 25.5,220.5 Z"/></g>
<g><path style="opacity:0.824" fill="#949193" d="M 42.5,221.5 C 42.3284,222.492 42.6618,223.158 43.5,223.5C 40.4847,226.532 38.818,230.199 38.5,234.5C 37.5,234.5 36.5,234.5 35.5,234.5C 37.0594,229.712 39.3927,225.379 42.5,221.5 Z"/></g>
<g><path style="opacity:0.985" fill="#4d474d" d="M 62.5,224.5 C 60.3647,226.369 57.6981,227.036 54.5,226.5C 51.7938,226.575 49.1272,226.908 46.5,227.5C 45.7611,227.631 45.0944,227.464 44.5,227C 45.3805,226.292 46.0472,225.458 46.5,224.5C 51.8115,222.042 57.1448,222.042 62.5,224.5 Z"/></g>
<g><path style="opacity:0.944" fill="#706b6f" d="M 62.5,224.5 C 63.8784,230.405 63.7117,236.405 62,242.5C 61.8113,237.749 61.1447,233.083 60,228.5C 58.0517,227.891 56.2184,227.224 54.5,226.5C 57.6981,227.036 60.3647,226.369 62.5,224.5 Z"/></g>
<g><path style="opacity:0.965" fill="#605a60" d="M 37.5,224.5 C 35.7505,228.335 33.7505,232.001 31.5,235.5C 31.573,233.973 30.9063,232.973 29.5,232.5C 30.242,230.02 31.242,227.687 32.5,225.5C 33.1667,225.5 33.5,225.167 33.5,224.5C 34.8333,224.5 36.1667,224.5 37.5,224.5 Z"/></g>
<g><path style="opacity:0.51" fill="#a6a3a5" d="M 46.5,224.5 C 46.0472,225.458 45.3805,226.292 44.5,227C 45.0944,227.464 45.7611,227.631 46.5,227.5C 44.8564,228.316 43.6897,229.65 43,231.5C 42.0796,228.006 43.2463,225.673 46.5,224.5 Z"/></g>
<g><path style="opacity:0.961" fill="#837f83" d="M 199.5,236.5 C 199.631,235.761 199.464,235.094 199,234.5C 196.894,237.118 194.394,239.118 191.5,240.5C 195.13,236.369 198.963,232.369 203,228.5C 203.204,231.76 202.037,234.427 199.5,236.5 Z"/></g>
<g><path style="opacity:0.986" fill="#575055" d="M 29.5,232.5 C 30.9063,232.973 31.573,233.973 31.5,235.5C 30.3411,239.151 28.6744,242.485 26.5,245.5C 24.8235,244.817 24.1568,243.483 24.5,241.5C 25.9166,238.331 27.5832,235.331 29.5,232.5 Z"/></g>
<g><path style="opacity:0.897" fill="#5e555d" d="M 38.5,234.5 C 39.8202,236.463 41.1535,238.463 42.5,240.5C 41.8826,240.611 41.3826,240.944 41,241.5C 39.6054,239.86 38.1054,238.36 36.5,237C 37.3805,236.292 38.0472,235.458 38.5,234.5 Z"/></g>
<g><path style="opacity:0.989" fill="#50484f" d="M 132.5,240.5 C 127.5,240.5 122.5,240.5 117.5,240.5C 114.603,240.125 111.937,240.625 109.5,242C 112.483,244.079 115.817,244.913 119.5,244.5C 119.5,244.833 119.5,245.167 119.5,245.5C 111.167,245.5 102.833,245.5 94.5,245.5C 94.7947,247.735 94.4614,249.735 93.5,251.5C 94.2436,248.05 92.9103,246.384 89.5,246.5C 89.6495,245.448 89.4828,244.448 89,243.5C 88.5814,244.672 87.9147,245.672 87,246.5C 85.3833,245.461 84.2166,244.461 83.5,243.5C 82.8333,243.5 82.1667,243.5 81.5,243.5C 98.3581,239.72 115.358,238.72 132.5,240.5 Z"/></g>
<g><path style="opacity:0.999" fill="#2a1f28" d="M 117.5,240.5 C 119.292,241.309 121.292,241.809 123.5,242C 121.843,242.231 120.509,243.065 119.5,244.5C 115.817,244.913 112.483,244.079 109.5,242C 111.937,240.625 114.603,240.125 117.5,240.5 Z"/></g>
<g><path style="opacity:1" fill="#2b212a" d="M 117.5,240.5 C 122.5,240.5 127.5,240.5 132.5,240.5C 132.833,240.5 133.167,240.5 133.5,240.5C 133.5,240.833 133.5,241.167 133.5,241.5C 131.233,242.423 128.9,243.256 126.5,244C 127.056,244.383 127.389,244.883 127.5,245.5C 125.833,245.5 124.167,245.5 122.5,245.5C 121.5,245.5 120.5,245.5 119.5,245.5C 119.5,245.167 119.5,244.833 119.5,244.5C 120.509,243.065 121.843,242.231 123.5,242C 121.292,241.809 119.292,241.309 117.5,240.5 Z"/></g>
<g><path style="opacity:1" fill="#332a31" d="M 199.5,236.5 C 199.672,237.492 199.338,238.158 198.5,238.5C 197.522,238.811 196.855,239.478 196.5,240.5C 197.689,241.429 199.022,241.762 200.5,241.5C 199.486,242.674 198.153,243.34 196.5,243.5C 193.618,242.72 190.952,242.387 188.5,242.5C 188.973,241.094 189.973,240.427 191.5,240.5C 194.394,239.118 196.894,237.118 199,234.5C 199.464,235.094 199.631,235.761 199.5,236.5 Z"/></g>
<g><path style="opacity:0.749" fill="#7e757d" d="M 198.5,238.5 C 201.548,240.119 204.881,241.119 208.5,241.5C 205.833,241.5 203.167,241.5 200.5,241.5C 199.022,241.762 197.689,241.429 196.5,240.5C 196.855,239.478 197.522,238.811 198.5,238.5 Z"/></g>
<g><path style="opacity:0.996" fill="#2d282d" d="M 200.5,241.5 C 203.167,241.5 205.833,241.5 208.5,241.5C 208.833,241.5 209.167,241.5 209.5,241.5C 213.231,243.528 212.565,244.528 207.5,244.5C 204.833,244.5 202.167,244.5 199.5,244.5C 198.209,244.737 197.209,244.404 196.5,243.5C 198.153,243.34 199.486,242.674 200.5,241.5 Z"/></g>
<g><path style="opacity:1" fill="#2a1f28" d="M 35.5,234.5 C 36.5,234.5 37.5,234.5 38.5,234.5C 38.0472,235.458 37.3805,236.292 36.5,237C 38.1054,238.36 39.6054,239.86 41,241.5C 41.3826,240.944 41.8826,240.611 42.5,240.5C 42.5,242.833 42.5,245.167 42.5,247.5C 41.4168,247.461 40.4168,247.127 39.5,246.5C 38.6143,247.325 38.281,248.325 38.5,249.5C 36.7988,249.034 35.2988,249.034 34,249.5C 32.8118,248.437 32.3118,247.103 32.5,245.5C 31.7194,243.337 32.5528,243.004 35,244.5C 35.6924,243.975 36.1924,243.308 36.5,242.5C 35.4179,242.251 34.0846,242.085 32.5,242C 33.8333,241.333 35.1667,240.667 36.5,240C 35.8333,239.667 35.1667,239.333 34.5,239C 35.3802,237.644 35.7135,236.144 35.5,234.5 Z"/></g>
<g><path style="opacity:0.998" fill="#291e28" d="M 133.5,241.5 C 135.516,243.013 137.849,243.847 140.5,244C 136.23,245.075 131.897,245.575 127.5,245.5C 127.389,244.883 127.056,244.383 126.5,244C 128.9,243.256 131.233,242.423 133.5,241.5 Z"/></g>
<g><path style="opacity:0.991" fill="#524a52" d="M 146.5,242.5 C 150.025,243.21 153.358,244.21 156.5,245.5C 153.881,245.232 151.381,245.565 149,246.5C 148.333,247.167 148.333,247.833 149,248.5C 150.302,249.085 151.469,249.751 152.5,250.5C 149.273,250.324 146.273,249.657 143.5,248.5C 143.562,247.105 143.562,245.605 143.5,244C 144.737,243.768 145.737,243.268 146.5,242.5 Z"/></g>
<g><path style="opacity:1" fill="#4f444c" d="M 188.5,242.5 C 190.952,242.387 193.618,242.72 196.5,243.5C 197.209,244.404 198.209,244.737 199.5,244.5C 197.708,245.309 195.708,245.809 193.5,246C 192.211,247.802 190.544,248.969 188.5,249.5C 187.911,246.215 186.744,245.882 185,248.5C 184.667,247.5 184.333,246.5 184,245.5C 182.989,246.337 181.822,246.67 180.5,246.5C 180.167,246.5 179.833,246.5 179.5,246.5C 182.314,244.93 185.314,243.597 188.5,242.5 Z"/></g>
<g><path style="opacity:0.973" fill="#868084" d="M 209.5,241.5 C 212.428,241.565 215.095,242.232 217.5,243.5C 215.517,243.157 214.183,243.824 213.5,245.5C 211.265,245.795 209.265,245.461 207.5,244.5C 212.565,244.528 213.231,243.528 209.5,241.5 Z"/></g>
<g><path style="opacity:0.322" fill="#a6a4a5" d="M 224.5,245.5 C 222.5,244.833 220.5,244.167 218.5,243.5C 222.996,243.562 227.329,243.062 231.5,242C 229.423,243.705 227.09,244.872 224.5,245.5 Z"/></g>
<g><path style="opacity:0.998" fill="#3f393f" d="M 81.5,243.5 C 82.1667,243.5 82.8333,243.5 83.5,243.5C 83.4431,244.609 83.1098,245.609 82.5,246.5C 80.5,246.5 78.5,246.5 76.5,246.5C 74.8561,246.714 73.3561,246.38 72,245.5C 71.5357,246.094 71.369,246.761 71.5,247.5C 71.1667,247.5 70.8333,247.5 70.5,247.5C 68.4482,248.053 68.1148,249.053 69.5,250.5C 70.3242,253.764 70.6576,257.098 70.5,260.5C 70.0276,258.469 69.0276,256.802 67.5,255.5C 66.5386,253.735 66.2053,251.735 66.5,249.5C 63.6627,247.598 60.3293,246.931 56.5,247.5C 55.8333,247.5 55.1667,247.5 54.5,247.5C 54.3893,246.883 54.056,246.383 53.5,246C 58.0195,245.825 62.3528,245.325 66.5,244.5C 71.4725,243.836 76.4725,243.503 81.5,243.5 Z"/></g>
<g><path style="opacity:1" fill="#534a52" d="M 133.5,241.5 C 133.5,241.167 133.5,240.833 133.5,240.5C 137.924,240.652 142.257,241.319 146.5,242.5C 145.737,243.268 144.737,243.768 143.5,244C 143.562,245.605 143.562,247.105 143.5,248.5C 136.326,247.761 129.326,246.761 122.5,245.5C 124.167,245.5 125.833,245.5 127.5,245.5C 131.897,245.575 136.23,245.075 140.5,244C 137.849,243.847 135.516,243.013 133.5,241.5 Z"/></g>
<g><path style="opacity:0.95" fill="#494347" d="M 217.5,243.5 C 217.833,243.5 218.167,243.5 218.5,243.5C 220.5,244.167 222.5,244.833 224.5,245.5C 220.935,246.787 217.268,246.787 213.5,245.5C 214.183,243.824 215.517,243.157 217.5,243.5 Z"/></g>
<g><path style="opacity:0.988" fill="#4b444b" d="M 35.5,234.5 C 35.7135,236.144 35.3802,237.644 34.5,239C 35.1667,239.333 35.8333,239.667 36.5,240C 35.1667,240.667 33.8333,241.333 32.5,242C 34.0846,242.085 35.4179,242.251 36.5,242.5C 36.1924,243.308 35.6924,243.975 35,244.5C 32.5528,243.004 31.7194,243.337 32.5,245.5C 31.71,246.609 31.21,247.942 31,249.5C 30.3292,248.748 29.4959,248.414 28.5,248.5C 30.3255,243.516 32.6589,238.849 35.5,234.5 Z"/></g>
<g><path style="opacity:0.982" fill="#6b656a" d="M 42.5,240.5 C 45.2357,242.196 48.2357,243.362 51.5,244C 56.4889,244.499 61.4889,244.666 66.5,244.5C 62.3528,245.325 58.0195,245.825 53.5,246C 54.056,246.383 54.3893,246.883 54.5,247.5C 51.3992,247.308 48.3992,246.642 45.5,245.5C 44.4822,246.193 43.4822,246.859 42.5,247.5C 42.5,245.167 42.5,242.833 42.5,240.5 Z"/></g>
<g><path style="opacity:1" fill="#2a2029" d="M 89.5,246.5 C 92.9103,246.384 94.2436,248.05 93.5,251.5C 93.5,251.833 93.5,252.167 93.5,252.5C 92.5,252.5 91.5,252.5 90.5,252.5C 90.7373,253.791 90.404,254.791 89.5,255.5C 89.4225,252.399 89.4225,249.399 89.5,246.5 Z"/></g>
<g><path style="opacity:0.999" fill="#534b52" d="M 156.5,245.5 C 160.387,245.646 164.054,246.313 167.5,247.5C 164.351,247.211 161.351,247.711 158.5,249C 159.252,249.671 159.586,250.504 159.5,251.5C 158.833,251.5 158.167,251.5 157.5,251.5C 155.585,251.784 153.919,251.451 152.5,250.5C 154.973,250.396 155.639,249.396 154.5,247.5C 155.243,246.818 155.909,246.151 156.5,245.5 Z"/></g>
<g><path style="opacity:0.98" fill="#666065" d="M 24.5,241.5 C 24.1568,243.483 24.8235,244.817 26.5,245.5C 25.6743,248.485 24.341,251.151 22.5,253.5C 22.8432,251.517 22.1765,250.183 20.5,249.5C 21.3257,246.515 22.659,243.849 24.5,241.5 Z"/></g>
<g><path style="opacity:0.243" fill="#d3ced3" d="M 56.5,247.5 C 60.3293,246.931 63.6627,247.598 66.5,249.5C 63.0588,248.903 59.7254,248.237 56.5,247.5 Z"/></g>
<g><path style="opacity:0.997" fill="#3d353c" d="M 89.5,255.5 C 90.404,254.791 90.7373,253.791 90.5,252.5C 91.5,252.5 92.5,252.5 93.5,252.5C 92.8364,257.163 90.1697,259.163 85.5,258.5C 83.478,259.507 82.1447,261.174 81.5,263.5C 81.0798,261.674 81.0798,259.674 81.5,257.5C 81.5,256.833 81.5,256.167 81.5,255.5C 82.4682,253.393 82.8016,251.059 82.5,248.5C 83.397,247.402 84.2303,247.402 85,248.5C 85.7203,250.112 85.5536,251.612 84.5,253C 85.3567,253.689 86.0233,254.522 86.5,255.5C 87.4246,256.562 88.4246,256.562 89.5,255.5 Z"/></g>
<g><path style="opacity:1" fill="#291f28" d="M 156.5,245.5 C 155.909,246.151 155.243,246.818 154.5,247.5C 155.639,249.396 154.973,250.396 152.5,250.5C 151.469,249.751 150.302,249.085 149,248.5C 148.333,247.833 148.333,247.167 149,246.5C 151.381,245.565 153.881,245.232 156.5,245.5 Z"/></g>
<g><path style="opacity:0.998" fill="#332832" d="M 179.5,246.5 C 179.833,246.5 180.167,246.5 180.5,246.5C 180.414,247.496 180.748,248.329 181.5,249C 177.577,249.793 173.744,249.626 170,248.5C 169.3,250.032 168.134,251.032 166.5,251.5C 164.997,250.948 163.331,250.948 161.5,251.5C 160.833,251.5 160.167,251.5 159.5,251.5C 159.586,250.504 159.252,249.671 158.5,249C 161.351,247.711 164.351,247.211 167.5,247.5C 171.519,247.354 175.519,247.021 179.5,246.5 Z"/></g>
<g><path style="opacity:0.996" fill="#362e35" d="M 32.5,245.5 C 32.3118,247.103 32.8118,248.437 34,249.5C 35.2988,249.034 36.7988,249.034 38.5,249.5C 38.281,248.325 38.6143,247.325 39.5,246.5C 40.4168,247.127 41.4168,247.461 42.5,247.5C 41.4154,249.587 39.7488,250.92 37.5,251.5C 34.8333,251.5 32.1667,251.5 29.5,251.5C 28.596,250.791 28.2627,249.791 28.5,248.5C 29.4959,248.414 30.3292,248.748 31,249.5C 31.21,247.942 31.71,246.609 32.5,245.5 Z"/></g>
<g><path style="opacity:0.141" fill="#ccc9cd" d="M 76.5,247.5 C 76.5,247.167 76.5,246.833 76.5,246.5C 78.5,246.5 80.5,246.5 82.5,246.5C 82.5,247.167 82.5,247.833 82.5,248.5C 82.8016,251.059 82.4682,253.393 81.5,255.5C 81.5,252.833 81.5,250.167 81.5,247.5C 79.8333,247.5 78.1667,247.5 76.5,247.5 Z"/></g>
<g><path style="opacity:1" fill="#2a1e29" d="M 83.5,243.5 C 84.2166,244.461 85.3833,245.461 87,246.5C 87.9147,245.672 88.5814,244.672 89,243.5C 89.4828,244.448 89.6495,245.448 89.5,246.5C 89.4225,249.399 89.4225,252.399 89.5,255.5C 88.4246,256.562 87.4246,256.562 86.5,255.5C 86.0233,254.522 85.3567,253.689 84.5,253C 85.5536,251.612 85.7203,250.112 85,248.5C 84.2303,247.402 83.397,247.402 82.5,248.5C 82.5,247.833 82.5,247.167 82.5,246.5C 83.1098,245.609 83.4431,244.609 83.5,243.5 Z"/></g>
<g><path style="opacity:1" fill="#281e27" d="M 188.5,249.5 C 185.728,251.434 183.895,250.767 183,247.5C 182.51,248.793 182.343,250.127 182.5,251.5C 176.463,252.258 170.463,252.592 164.5,252.5C 163.209,252.737 162.209,252.404 161.5,251.5C 163.331,250.948 164.997,250.948 166.5,251.5C 168.134,251.032 169.3,250.032 170,248.5C 173.744,249.626 177.577,249.793 181.5,249C 180.748,248.329 180.414,247.496 180.5,246.5C 181.822,246.67 182.989,246.337 184,245.5C 184.333,246.5 184.667,247.5 185,248.5C 186.744,245.882 187.911,246.215 188.5,249.5 Z"/></g>
<g><path style="opacity:0.553" fill="#a4a4a7" d="M 70.5,247.5 C 69.8902,248.391 69.5569,249.391 69.5,250.5C 68.1148,249.053 68.4482,248.053 70.5,247.5 Z"/></g>
<g><path style="opacity:0.522" fill="#a9a6a8" d="M 29.5,251.5 C 32.1667,251.5 34.8333,251.5 37.5,251.5C 34.9471,252.255 32.2804,252.922 29.5,253.5C 29.5,252.833 29.5,252.167 29.5,251.5 Z"/></g>
<g><path style="opacity:0.898" fill="#7f7a7f" d="M 157.5,251.5 C 158.167,251.5 158.833,251.5 159.5,251.5C 160.167,251.5 160.833,251.5 161.5,251.5C 162.209,252.404 163.209,252.737 164.5,252.5C 164.5,252.833 164.5,253.167 164.5,253.5C 161.848,253.59 159.515,252.924 157.5,251.5 Z"/></g>
<g><path style="opacity:1" fill="#4b4349" d="M 188.5,249.5 C 181.315,255.686 173.315,257.019 164.5,253.5C 164.5,253.167 164.5,252.833 164.5,252.5C 170.463,252.592 176.463,252.258 182.5,251.5C 182.343,250.127 182.51,248.793 183,247.5C 183.895,250.767 185.728,251.434 188.5,249.5 Z"/></g>
<g><path style="opacity:0.949" fill="#554f54" d="M 28.5,248.5 C 28.2627,249.791 28.596,250.791 29.5,251.5C 29.5,252.167 29.5,252.833 29.5,253.5C 28.1049,257.29 26.4383,260.957 24.5,264.5C 23.391,264.443 22.391,264.11 21.5,263.5C 23.0502,258.07 25.3836,253.07 28.5,248.5 Z"/></g>
<g><path style="opacity:1" fill="#4f4a4f" d="M 20.5,249.5 C 22.1765,250.183 22.8432,251.517 22.5,253.5C 21.1049,257.29 19.4383,260.957 17.5,264.5C 16.6618,264.842 16.3284,265.508 16.5,266.5C 16.1667,266.5 15.8333,266.5 15.5,266.5C 14.0413,266.433 12.7079,266.766 11.5,267.5C 13.9922,261.182 16.9922,255.182 20.5,249.5 Z"/></g>
<g><path style="opacity:0.804" fill="#5f5c60" d="M 76.5,246.5 C 76.5,246.833 76.5,247.167 76.5,247.5C 75.6236,247.369 74.9569,247.702 74.5,248.5C 75.6055,252.777 75.7722,257.11 75,261.5C 73.6439,262.38 72.1439,262.714 70.5,262.5C 70.5,261.833 70.5,261.167 70.5,260.5C 72.4387,259.986 73.4387,258.653 73.5,256.5C 72.9359,253.435 72.2692,250.435 71.5,247.5C 71.369,246.761 71.5357,246.094 72,245.5C 73.3561,246.38 74.8561,246.714 76.5,246.5 Z"/></g>
<g><path style="opacity:0.973" fill="#6d696d" d="M 81.5,257.5 C 81.0798,259.674 81.0798,261.674 81.5,263.5C 82.1447,261.174 83.478,259.507 85.5,258.5C 84.8949,263.401 82.2282,266.401 77.5,267.5C 77.8807,266.069 78.8807,265.236 80.5,265C 79.552,264.517 78.552,264.351 77.5,264.5C 79.1155,262.262 80.4488,259.929 81.5,257.5 Z"/></g>
<g><path style="opacity:0.043" fill="#e0d4e0" d="M 17.5,264.5 C 18.1667,264.5 18.8333,264.5 19.5,264.5C 18.7095,265.401 17.7095,266.068 16.5,266.5C 16.3284,265.508 16.6618,264.842 17.5,264.5 Z"/></g>
<g><path style="opacity:0.973" fill="#5d585c" d="M 67.5,255.5 C 69.0276,256.802 70.0276,258.469 70.5,260.5C 70.5,261.167 70.5,261.833 70.5,262.5C 72.2789,264.344 74.6122,265.01 77.5,264.5C 78.552,264.351 79.552,264.517 80.5,265C 78.8807,265.236 77.8807,266.069 77.5,267.5C 74.2186,268.628 70.8852,268.628 67.5,267.5C 67.5,263.5 67.5,259.5 67.5,255.5 Z"/></g>
<g><path style="opacity:0.961" fill="#544c53" d="M 21.5,263.5 C 22.391,264.11 23.391,264.443 24.5,264.5C 24.4606,265.583 24.1272,266.583 23.5,267.5C 20.5319,269.14 17.8652,271.14 15.5,273.5C 16.0818,271.002 16.0818,268.669 15.5,266.5C 15.8333,266.5 16.1667,266.5 16.5,266.5C 17.7095,266.068 18.7095,265.401 19.5,264.5C 19.8417,263.662 20.5084,263.328 21.5,263.5 Z"/></g>
<g><path style="opacity:1" fill="#3f353d" d="M 15.5,266.5 C 16.0818,268.669 16.0818,271.002 15.5,273.5C 15.5,274.167 15.1667,274.5 14.5,274.5C 14.0886,272.228 12.922,271.895 11,273.5C 9.97008,273.164 9.47008,272.497 9.5,271.5C 9.6596,269.847 10.3263,268.514 11.5,267.5C 12.7079,266.766 14.0413,266.433 15.5,266.5 Z"/></g>
<g><path style="opacity:0.996" fill="#554f55" d="M 9.5,271.5 C 9.47008,272.497 9.97008,273.164 11,273.5C 12.922,271.895 14.0886,272.228 14.5,274.5C 11.8046,277.526 9.13794,280.526 6.5,283.5C 5.07546,285.031 4.40879,284.698 4.5,282.5C 5.60273,278.503 7.2694,274.836 9.5,271.5 Z"/></g>
<g><path style="opacity:0.998" fill="#4f494d" d="M 57.5,279.5 C 69.1712,281.145 69.3379,283.145 58,285.5C 48.1985,283.613 48.0318,281.613 57.5,279.5 Z"/></g>
<g><path style="opacity:1" fill="#433b42" d="M 37.5,291.5 C 32.0698,291.839 26.7364,291.339 21.5,290C 22.7305,288.595 24.0639,287.429 25.5,286.5C 30.3783,285.31 35.3783,285.477 40.5,287C 42.9561,290.107 41.9561,291.607 37.5,291.5 Z"/></g>
<g><path style="opacity:1" fill="#706c70" d="M 25.5,286.5 C 24.0639,287.429 22.7305,288.595 21.5,290C 26.7364,291.339 32.0698,291.839 37.5,291.5C 31.9281,292.87 26.2614,292.703 20.5,291C 19.269,289.817 19.269,288.651 20.5,287.5C 22.0709,286.691 23.7376,286.357 25.5,286.5 Z"/></g>
<g><path style="opacity:0.282" fill="#acabac" d="M 4.5,282.5 C 4.40879,284.698 5.07546,285.031 6.5,283.5C 4.68893,286.444 2.85559,289.444 1,292.5C 0.877311,288.701 2.04398,285.367 4.5,282.5 Z"/></g>
</svg>
