<?xml version="1.0" encoding="UTF-8"?>
<svg version="1.1" xmlns="http://www.w3.org/2000/svg" width="500" height="500">
<path d="M0 0 C1.45916645 -0.00445668 1.45916645 -0.00445668 2.94781101 -0.0090034 C6.1986044 -0.01765611 9.44936081 -0.01919575 12.70016479 -0.02069092 C15.03475523 -0.02532153 17.36934491 -0.03034652 19.70393372 -0.03573608 C26.04096655 -0.04883896 32.3779888 -0.05530097 38.71503305 -0.05974674 C42.67728091 -0.06268098 46.6395259 -0.06678647 50.60177231 -0.07125092 C61.58747539 -0.08335556 72.57317596 -0.09373891 83.55888557 -0.09712601 C84.26112851 -0.09734557 84.96337144 -0.09756514 85.68689447 -0.09779136 C86.39074937 -0.09800964 87.09460426 -0.09822791 87.8197881 -0.09845281 C89.24589674 -0.09889626 90.67200538 -0.09934282 92.09811401 -0.09979248 C92.8055024 -0.10001391 93.51289078 -0.10023534 94.24171518 -0.10046348 C105.6944354 -0.1044084 117.14709187 -0.12185526 128.59978749 -0.145152 C140.37819365 -0.16891649 152.15656789 -0.18133018 163.93499839 -0.18249393 C170.54002142 -0.18340784 177.14497106 -0.18941096 183.7499733 -0.20731354 C189.9667104 -0.22383633 196.1832903 -0.22592922 202.40004158 -0.21717453 C204.67474731 -0.2164064 206.94946164 -0.22071709 209.22414589 -0.23063278 C230.39392233 -0.31746263 248.0347808 1.9306586 264.17233276 17.14044189 C275.79078615 29.29983541 280.50160024 44.00390943 280.43302917 60.4941864 C280.43685472 61.48727265 280.44068027 62.4803589 280.44462174 63.50353867 C280.45487552 66.80500615 280.45097415 70.10629724 280.44699097 73.40777588 C280.45134162 75.78546305 280.45652595 78.16314882 280.46247864 80.54083252 C280.47584085 86.98087206 280.47645046 93.42085281 280.47391534 99.8609035 C280.47262911 103.88764527 280.47525934 107.91437825 280.47890282 111.94111824 C280.47949801 112.61100017 280.48009319 113.2808821 280.48070642 113.97106348 C280.48191825 115.3322161 280.48313239 116.69336872 280.4843488 118.05452133 C280.49520741 130.79891891 280.49306965 143.54328998 280.48696395 156.28768904 C280.48179479 167.92910289 280.49305319 179.57043307 280.51206217 191.21183037 C280.53146509 203.18694939 280.53969237 215.16202887 280.53593892 227.1371637 C280.53403078 233.85162515 280.5367436 240.56600483 280.55065346 247.28045464 C280.56324596 253.59490652 280.56127404 259.90919107 280.54824257 266.22364044 C280.54588048 268.5362739 280.54859825 270.84891919 280.55686569 273.16153908 C280.56736563 276.32778987 280.55920619 279.49348251 280.54655457 282.65971375 C280.55392885 283.56635173 280.56130314 284.47298971 280.56890088 285.40710157 C280.43805213 301.06200722 273.64542268 315.59281118 262.84811401 326.73419189 C250.44732244 337.88585263 236.35207673 342.46453398 219.92816162 342.40786743 C218.94677031 342.41239854 217.96537899 342.41692966 216.95424855 342.42159808 C213.69209614 342.43417698 210.43011208 342.43262591 207.16793823 342.43096924 C204.8180673 342.43695861 202.46819832 342.4437651 200.11833191 342.45132446 C193.75233974 342.46895154 187.38640139 342.47367851 181.02038717 342.47495604 C176.36757368 342.47661965 171.71477205 342.48242481 167.06196276 342.48862899 C154.53532801 342.50522097 142.00872161 342.51271583 129.48207627 342.51128952 C128.41706378 342.51116965 128.41706378 342.51116965 127.33053589 342.51104736 C126.26420662 342.51092472 126.26420662 342.51092472 125.17633535 342.5107996 C113.66760692 342.50998751 102.15900962 342.52911001 90.65031908 342.5573241 C78.80286594 342.58613693 66.95547655 342.59985974 55.10798752 342.59813654 C48.46880151 342.59747546 41.82973624 342.60323895 35.19057846 342.62449265 C28.94091614 342.64395402 22.69154265 342.64394547 16.44186974 342.62945938 C14.15874621 342.62737987 11.87560422 342.63202048 9.59251213 342.6441803 C-11.59753357 342.7496555 -29.64616021 340.51216913 -45.80032349 325.29278564 C-57.81378639 312.53860827 -62.1617285 297.05214195 -62.08836365 279.86972046 C-62.09218919 278.89760868 -62.09601474 277.9254969 -62.09995621 276.92392719 C-62.1101918 273.69932989 -62.10631215 270.4749138 -62.10232544 267.25030518 C-62.10667713 264.92497596 -62.1118618 262.59964818 -62.11781311 260.27432251 C-62.1311648 253.98089705 -62.13178606 247.6875318 -62.12924981 241.39409494 C-62.12804165 235.46377816 -62.13426605 229.53347137 -62.13968327 223.60315762 C-62.15053814 211.13958481 -62.14840602 198.67603912 -62.14229842 186.21246479 C-62.13713066 174.83435918 -62.14838464 163.45633922 -62.16739664 152.07825054 C-62.186813 140.36751293 -62.19502443 128.65681577 -62.19127339 116.94606197 C-62.1894642 110.382459 -62.19206042 103.8189345 -62.20598793 97.25534439 C-62.21859972 91.08122447 -62.21659038 84.90727552 -62.20357704 78.73315811 C-62.20121906 76.47457826 -62.20391785 74.21598625 -62.21220016 71.95742035 C-62.28443773 50.71776419 -60.11687574 32.34328348 -44.95266724 16.13653564 C-32.04708691 4.11821396 -17.21089568 -0.01655743 0 0 Z M27.17233276 51.14044189 C25.87682495 51.54843018 25.87682495 51.54843018 24.55514526 51.96466064 C15.91114659 55.26971896 8.38452409 60.23800708 2.17233276 67.14044189 C1.70440308 67.61610596 1.23647339 68.09177002 0.75436401 68.58184814 C-8.02426017 77.94721842 -12.9324901 90.63444896 -12.96810913 103.36190796 C-12.97381927 104.58969467 -12.97952942 105.81748138 -12.9854126 107.08247375 C-12.98665773 108.43008413 -12.98778287 109.77769461 -12.98880005 111.12530518 C-12.99343322 112.55497871 -12.99845855 113.98465101 -13.00384521 115.4143219 C-13.01692527 119.28861526 -13.02340585 123.16289133 -13.02785587 127.03720331 C-13.0307944 129.46253724 -13.03490071 131.88786652 -13.03936005 134.31319809 C-13.05302492 141.91538251 -13.06269587 149.51755621 -13.06656194 157.11975205 C-13.07103692 165.86921837 -13.08856301 174.61852803 -13.11756253 183.36794674 C-13.13924699 190.14782021 -13.14926985 196.92764982 -13.15060306 203.70755756 C-13.15164648 207.74885716 -13.15745462 211.7900093 -13.17542267 215.83127213 C-13.19202031 219.63822501 -13.19400284 223.44492142 -13.18528366 227.25189781 C-13.18451943 228.64011896 -13.18877382 230.02835457 -13.19874191 231.41654015 C-13.31521757 248.66504752 -9.13837019 263.30831099 2.86618042 275.97662354 C12.68601046 285.89039958 24.98544513 292.63646187 39.15164948 293.27466297 C40.73105946 293.28107319 40.73105946 293.28107319 42.34237671 293.28761292 C43.55885895 293.29476822 44.77534119 293.30192352 46.02868652 293.30929565 C47.36367772 293.31213541 48.6986692 293.3148472 50.03366089 293.31744385 C51.45023767 293.32371574 52.86681283 293.33036318 54.28338623 293.33735657 C58.92344026 293.35831989 63.56349432 293.3687544 68.20358276 293.37872314 C69.80739865 293.38277414 71.41121436 293.38689116 73.01502991 293.39107323 C80.55527888 293.41011102 88.09551817 293.4243428 95.63578653 293.4326852 C104.30773956 293.44244076 112.97943621 293.46872209 121.651299 293.50918609 C128.37430285 293.53946757 135.09723373 293.55416556 141.82030439 293.55746621 C145.82595191 293.55980373 149.83132513 293.56859266 153.8368988 293.59392738 C157.61272286 293.61742389 161.3880962 293.62135615 165.16397476 293.611166 C167.18660634 293.61044443 169.20921615 293.62938429 171.23175049 293.64923096 C188.136477 293.5544937 202.79219648 287.93076921 215.14498901 276.29278564 C227.8542434 262.79991634 231.48118593 247.00620399 231.44699097 228.99859619 C231.45134592 227.5881829 231.45653166 226.17777198 231.46247864 224.7673645 C231.47579718 220.95933496 231.47645522 217.15140511 231.47391534 213.34335685 C231.47284054 210.15286688 231.47774206 206.96239667 231.48252076 203.77191097 C231.49359171 196.23791972 231.49406727 188.70397834 231.48800659 181.16998291 C231.4819713 173.42477527 231.49427202 165.6797495 231.51557666 157.93457288 C231.53325215 151.26078667 231.5391846 144.58705804 231.53593892 137.91324931 C231.53413503 133.93795718 231.53667189 129.96279474 231.55065346 125.98752403 C231.56332415 122.24535533 231.56120151 118.50346784 231.54824257 114.76130295 C231.54478855 112.75266012 231.55598687 110.74400834 231.56781006 108.73539734 C231.46855615 91.42203929 226.22802761 77.1566433 214.02389526 64.83575439 C203.80416679 55.17601105 191.2342584 49.02888062 177.00624084 49.00672913 C175.765634 49.00246414 174.52502716 48.99819916 173.24682617 48.99380493 C171.87979123 48.99415441 170.51275631 48.99461593 169.14572144 48.99517822 C167.69985365 48.99218461 166.25398667 48.98878161 164.80812073 48.98500061 C160.88651284 48.9761764 156.96492678 48.97382314 153.04330993 48.97318482 C150.59104356 48.97247336 148.13878271 48.9703372 145.68651772 48.96768761 C137.12506382 48.95843901 128.56362548 48.95435206 120.00216675 48.95513916 C112.0320629 48.95573964 104.06202681 48.94519238 96.0919401 48.9293955 C89.24081231 48.91630218 82.38970661 48.91095602 75.53856641 48.91159457 C71.45046787 48.91184905 67.36242953 48.90902529 63.27434349 48.89841652 C59.42723826 48.8887055 55.58025042 48.88867687 51.73314095 48.89593315 C50.32550764 48.89697531 48.9178669 48.89463813 47.51024628 48.88857269 C40.39262358 48.85990262 33.98147589 48.97762078 27.17233276 51.14044189 Z " fill="#BF5484" transform="translate(140.82766723632813,78.85955810546875)"/>
<path d="M0 0 C1.79346863 -0.00856522 1.79346863 -0.00856522 3.62316895 -0.01730347 C4.92663773 -0.01842133 6.23010651 -0.01953918 7.57307434 -0.02069092 C8.96643708 -0.0253228 10.35979855 -0.03034796 11.75315857 -0.03573608 C15.53233856 -0.04882796 19.3115008 -0.05529897 23.09069991 -0.05974674 C25.45520689 -0.06268317 27.81970908 -0.06678909 30.18421364 -0.07125092 C37.59204465 -0.08491852 44.99986465 -0.0945883 52.40770739 -0.09845281 C60.94043352 -0.10292935 69.47299911 -0.1204615 78.00567645 -0.1494534 C84.61310086 -0.17111934 91.22048028 -0.18115973 97.82793981 -0.18249393 C101.76858757 -0.18353861 105.70908429 -0.18937408 109.64969444 -0.20731354 C113.36059916 -0.22387907 117.07124066 -0.225909 120.78216934 -0.21717453 C122.77931901 -0.21604581 124.77646027 -0.22969816 126.77355957 -0.243927 C138.69578255 -0.18904214 147.17185801 2.54587699 157.03718567 9.14044189 C158.36749817 10.00669189 158.36749817 10.00669189 159.72468567 10.89044189 C167.34133036 18.30123132 173.62855413 29.03546422 174.17420006 39.85804558 C174.17977236 40.90545481 174.18534466 41.95286404 174.19108582 43.03201294 C174.19968628 44.2373317 174.20828674 45.44265045 174.21714783 46.68449402 C174.22353775 48.66371605 174.22353775 48.66371605 174.23005676 50.68292236 C174.23796249 52.08935242 174.24623173 53.49578047 174.25483704 54.90220642 C174.28101898 59.52066116 174.29636828 64.13912474 174.31062317 68.75762939 C174.31598582 70.35215383 174.32136334 71.94667821 174.32675552 73.54120255 C174.34838525 80.18097843 174.36711633 86.82075193 174.37837791 93.46055412 C174.39457861 102.94784856 174.42766031 112.43473095 174.48477876 121.92187011 C174.52363823 128.60661518 174.54302985 135.29125084 174.54829848 141.97610581 C174.55193226 145.96061602 174.56373947 149.94468642 174.59640121 153.92907333 C174.62676257 157.68688256 174.63269563 161.44399242 174.62101746 165.20189857 C174.62069597 167.21503435 174.6449773 169.22812879 174.6703949 171.24110413 C174.58348484 184.12867703 171.13124959 195.02932232 162.48249817 204.73419189 C151.26357243 215.77390156 139.08096864 218.75532994 123.66242981 218.65802002 C122.26304399 218.66345504 120.86366391 218.67058537 119.46429443 218.67926025 C115.69964383 218.6973347 111.93543679 218.6904923 108.17077947 218.67774391 C104.20773431 218.66753099 100.24472409 218.67703257 96.28167725 218.68328857 C89.62857837 218.69054192 82.97565779 218.68103929 76.32258606 218.66192627 C68.66189872 218.64017086 61.00163755 218.6472084 53.34096056 218.66923189 C46.73161617 218.68746296 40.12239907 218.68990654 33.51303762 218.67947721 C29.57965624 218.67328322 25.64647424 218.67229219 21.71310616 218.68562317 C18.01182848 218.69729385 14.31109277 218.68895501 10.60987282 218.66604614 C8.6265141 218.65835052 6.6431088 218.6700191 4.65977478 218.68255615 C-9.1446913 218.55410464 -20.29022357 214.92087094 -30.65031433 205.76544189 C-38.91082684 196.38864391 -44.05683042 186.9933063 -44.10998535 174.23577881 C-44.11714066 173.05288269 -44.12429596 171.86998657 -44.13166809 170.65124512 C-44.13435699 169.36184021 -44.1370459 168.0724353 -44.13981628 166.74395752 C-44.1460865 165.36531404 -44.15273379 163.98667222 -44.159729 162.60803223 C-44.18071376 158.08759729 -44.19112943 153.56716225 -44.20109558 149.04669189 C-44.20514589 147.48526492 -44.20926289 145.92383812 -44.21344566 144.3624115 C-44.23248883 137.02131937 -44.24671902 129.68023722 -44.25505763 122.33912516 C-44.26481271 113.89241101 -44.29109046 105.44596012 -44.33155853 96.99933863 C-44.36183087 90.45386372 -44.37653717 83.90846378 -44.37983865 77.36292028 C-44.38217739 73.46180358 -44.39098233 69.56096835 -44.41629982 65.65992737 C-44.43977987 61.9826092 -44.44373504 58.30575385 -44.43353844 54.62837982 C-44.43281609 52.65683491 -44.45176825 50.68531245 -44.47160339 48.71386719 C-44.39217721 34.92538962 -40.72786638 23.79563237 -31.58781433 13.45294189 C-22.18945856 5.173438 -12.78539344 0.03667758 0 0 Z M131.66218567 25.89044189 C130.37801678 30.5134499 130.40236177 34.55338215 132.16218567 38.95294189 C134.60872725 41.8072404 136.46655443 42.92777468 140.03718567 44.14044189 C144.32597766 44.3506768 147.27317647 43.62209987 150.91218567 41.32794189 C153.46910864 38.6958153 154.93026561 36.6729627 155.18952942 32.95684814 C154.77809449 28.64052172 154.41540503 26.60594265 151.59968567 23.14044189 C147.9860105 20.32001249 145.7732864 19.79630061 141.13874817 19.85528564 C137.01932 20.41424151 134.17555122 22.69161301 131.66218567 25.89044189 Z M8.03718567 54.14044189 C-6.42552768 69.74078666 -13.24657626 88.23448192 -13.40031433 109.32794189 C-13.41054626 110.40849854 -13.4207782 111.48905518 -13.43132019 112.60235596 C-13.20834894 133.07828906 -4.324006 150.09172973 9.03718567 165.14044189 C11.1382614 167.09110202 13.33738205 168.88062769 15.59968567 170.64044189 C16.21247375 171.11747559 16.82526184 171.59450928 17.45661926 172.08599854 C35.82239331 186.0205371 56.8223102 189.09207242 79.29792786 186.92218018 C99.95602658 183.88170988 117.32084497 169.93804976 130.03718567 154.14044189 C139.64162462 140.73788391 143.43924769 125.59448189 143.34968567 109.32794189 C143.34477112 108.27058838 143.33985657 107.21323486 143.33479309 106.12384033 C143.21880968 98.38923376 142.58175058 91.49710738 140.03718567 84.14044189 C139.69687317 83.14399658 139.35656067 82.14755127 139.00593567 81.12091064 C131.95324033 62.55993204 117.8872427 46.8997537 100.03718567 38.14044189 C68.30365818 24.36865853 32.97278025 29.28162472 8.03718567 54.14044189 Z " fill="#CB3A7B" transform="translate(184.9628143310547,140.85955810546875)"/>
<path d="M0 0 C12.84788011 12.48588158 19.84650694 28.81027442 20.24462891 46.76000977 C20.13596639 64.36751613 13.27750961 80.01150203 0.81103516 92.38110352 C-12.2636042 104.62774656 -27.93979014 110.84629146 -45.84130859 110.86547852 C-64.1687263 109.75655885 -79.62996266 102.15434312 -92.26318359 88.94360352 C-103.0610604 76.54128736 -108.27993158 60.21734359 -107.84130859 43.86547852 C-106.05245263 24.63883565 -97.69531439 8.30139035 -82.84130859 -4.13452148 C-74.10072224 -10.20582697 -65.28875352 -13.84503103 -54.84130859 -16.13452148 C-54.12716797 -16.29694336 -53.41302734 -16.45936523 -52.67724609 -16.62670898 C-34.00093818 -19.88512866 -13.76693652 -12.57454149 0 0 Z " fill="#D42574" transform="translate(293.84130859375,203.134521484375)"/>
<path d="M0 0 C0.33 0 0.66 0 1 0 C2.27273116 4.89810889 2.14515454 9.73007839 2.14044189 14.75247192 C2.14489858 16.23569311 2.14489858 16.23569311 2.1494453 17.74887836 C2.1581243 21.06582981 2.15963988 24.38274513 2.16113281 27.69970703 C2.16576159 30.07665585 2.17078633 32.45360393 2.17617798 34.83055115 C2.18929918 41.29153009 2.19578346 47.75250212 2.20018864 54.21349192 C2.20295449 58.25109265 2.20719251 62.28869101 2.21169281 66.32629013 C2.22388396 77.51436525 2.23418306 88.70243847 2.2375679 99.8905201 C2.23778747 100.60620684 2.23800703 101.32189359 2.23823325 102.05926781 C2.23845153 102.77662962 2.23866981 103.49399143 2.2388947 104.23309147 C2.23933816 105.68664432 2.23978472 107.14019716 2.24023438 108.59375 C2.2404558 109.31475647 2.24067723 110.03576293 2.24090537 110.77861808 C2.24485054 122.45267792 2.26229666 134.12667523 2.2855939 145.80071093 C2.30934262 157.79826648 2.32177138 169.7957907 2.32293582 181.79337013 C2.32385069 188.52467688 2.3295553 195.25590219 2.34775543 201.98718643 C2.36425409 208.32208166 2.36638277 214.65682257 2.35761642 220.99173164 C2.35684699 223.31242728 2.36117637 225.63313127 2.37107468 227.95380592 C2.38382877 231.13126162 2.37789826 234.30817364 2.36749268 237.48562622 C2.37957728 238.85069909 2.37957728 238.85069909 2.39190602 240.24334919 C2.27260636 255.90805825 -4.52017782 270.44542249 -15.32421875 281.59375 C-27.74775761 292.7658667 -41.85776033 297.34080466 -58.3114624 297.24723816 C-59.79413286 297.25085978 -59.79413286 297.25085978 -61.30675626 297.25455457 C-64.59226837 297.26015418 -67.8775828 297.25155689 -71.16308594 297.24291992 C-73.52918042 297.24399371 -75.89527465 297.24593382 -78.2613678 297.24867249 C-84.66802509 297.25350748 -91.07461242 297.24588259 -97.48126125 297.23571944 C-103.50971357 297.22692747 -109.53816915 297.22855752 -115.56662622 297.22899476 C-127.50813409 297.22949449 -139.4496151 297.22035685 -151.39111328 297.20581055 C-162.97087086 297.19171227 -174.55060481 297.1846404 -186.13037109 297.18530273 C-187.20114051 297.18536267 -187.20114051 297.18536267 -188.29354164 297.18542381 C-189.0061726 297.18546417 -189.71880356 297.18550452 -190.45302939 297.1855461 C-203.65249028 297.18623625 -216.85194116 297.18034581 -230.0513988 297.17139288 C-234.71395166 297.16837991 -239.37650127 297.16732472 -244.03905487 297.16686058 C-250.31322753 297.16585652 -256.58737537 297.15975464 -262.86153984 297.14969444 C-265.16498348 297.14677255 -267.46842997 297.14554345 -269.77187538 297.14612198 C-272.91343406 297.14661246 -276.05492318 297.14095906 -279.19647217 297.13371277 C-280.10989246 297.13526137 -281.02331275 297.13680997 -281.96441245 297.1384055 C-286.42432924 297.12139244 -290.60988069 296.90411332 -295 296 C-295 295.67 -295 295.34 -295 295 C-294.43811698 295.00092179 -293.87623396 295.00184359 -293.29732418 295.00279331 C-279.41392301 295.02519974 -265.53052465 295.04157823 -251.64710903 295.05181217 C-244.93229393 295.05689691 -238.21749365 295.06391786 -231.50268555 295.07543945 C-195.07456441 295.17798208 -195.07456441 295.17798208 -158.65625 294.46875 C-137.78705573 293.80667766 -116.93927842 294.09182512 -96.06506348 294.39489746 C-90.95425489 294.4674133 -85.84333561 294.5311076 -80.73242188 294.59570312 C-70.82149301 294.72218562 -60.91071596 294.85786583 -51 295 C-50.67 294.01 -50.34 293.02 -50 292 C-49.67 292.66 -49.34 293.32 -49 294 C-46.7058862 293.38304511 -44.41500322 292.75687956 -42.125 292.125 C-41.47402344 291.95097656 -40.82304687 291.77695312 -40.15234375 291.59765625 C-36.1931563 290.50470421 -36.1931563 290.50470421 -33 288 C-32.01 288.33 -31.02 288.66 -30 289 C-30 288.34 -30 287.68 -30 287 C-29.34 286.67 -28.68 286.34 -28 286 C-27.67 285.01 -27.34 284.02 -27 283 C-26.34 283 -25.68 283 -25 283 C-24.67 282.01 -24.34 281.02 -24 280 C-22.68 280 -21.36 280 -20 280 C-17.72404945 278.12568778 -16.25768802 276.51537605 -14.9375 273.875 C-14 272 -14 272 -11 270 C-11.33 269.34 -11.66 268.68 -12 268 C-11.01 267.67 -10.02 267.34 -9 267 C-7.29144978 263.99992729 -7.29144978 263.99992729 -6 261 C-5.34 261 -4.68 261 -4 261 C-3.95101563 260.41992188 -3.90203125 259.83984375 -3.8515625 259.2421875 C-3.73941406 258.07042969 -3.73941406 258.07042969 -3.625 256.875 C-3.55539062 256.10929687 -3.48578125 255.34359375 -3.4140625 254.5546875 C-3 252 -3 252 -1.98731995 249.60736084 C-0.53852981 244.31393106 -0.74754064 239.19071586 -0.78881836 233.72753906 C-0.7901326 232.4942688 -0.79144684 231.26099854 -0.7928009 229.99035645 C-0.79705975 227.31551237 -0.80494453 224.64097546 -0.81910515 221.96619415 C-0.84146248 217.7287462 -0.84947711 213.49134328 -0.85560608 209.25384521 C-0.86697445 202.54397261 -0.88768588 195.83416734 -0.91250378 189.12433219 C-0.95681439 177.12727603 -0.990124 165.13019771 -1.01274782 153.1330812 C-1.02110644 148.92929116 -1.03508231 144.7255695 -1.05372036 140.52181292 C-1.06696423 137.27789914 -1.07376658 134.03396932 -1.08178711 130.79003906 C-1.09189316 129.06276581 -1.09189316 129.06276581 -1.10220337 127.30059814 C-1.11015964 121.62029601 -0.86408247 116.10007793 -0.22738171 110.4577179 C0.18862989 105.96114178 0.13018244 101.46292489 0.11352539 96.95068359 C0.11374443 95.36841476 0.11374443 95.36841476 0.1139679 93.75418091 C0.11327679 90.30224478 0.10552229 86.85036408 0.09765625 83.3984375 C0.09578922 80.99134348 0.09436666 78.58424908 0.09336853 76.17715454 C0.08956583 69.86764461 0.07975488 63.558158 0.06866455 57.24865723 C0.05840196 50.79988928 0.05386055 44.35111753 0.04882812 37.90234375 C0.03813046 25.26821926 0.02127576 12.63411088 0 0 Z " fill="#F8CEAA" transform="translate(419,124)"/>
<path d="M0 0 C-1.70625501 2.78388975 -2.47626739 3.85384206 -5.6875 4.75 C-6.8321875 4.87375 -6.8321875 4.87375 -8 5 C-7.505 6.485 -7.505 6.485 -7 8 C-7.66 8 -8.32 8 -9 8 C-9 8.66 -9 9.32 -9 10 C-9.66 10 -10.32 10 -11 10 C-11.33 8.68 -11.66 7.36 -12 6 C-12.2475 6.763125 -12.495 7.52625 -12.75 8.3125 C-14.13563292 11.29161079 -15.11046627 12.47024685 -18 14 C-20.25 13.6875 -20.25 13.6875 -22 13 C-21.67 13.99 -21.34 14.98 -21 16 C-22.765625 18.6640625 -22.765625 18.6640625 -25.25 21.625 C-26.05953125 22.60726562 -26.8690625 23.58953125 -27.703125 24.6015625 C-30 27 -30 27 -33 28 C-33.98703952 30.06497387 -33.98703952 30.06497387 -34.625 32.5 C-35.92825112 36.92825112 -35.92825112 36.92825112 -37 38 C-36.979375 38.928125 -36.95875 39.85625 -36.9375 40.8125 C-37 44 -37 44 -37.98754919 45.93614841 C-39.11359859 48.23156743 -39.25369328 49.66953951 -39.26171303 52.20912552 C-39.26917852 53.04613786 -39.27664401 53.8831502 -39.28433573 54.74552655 C-39.282401 55.65992088 -39.28046626 56.57431521 -39.2784729 57.51641846 C-39.2842653 58.49172162 -39.2900577 59.46702478 -39.29602563 60.47188258 C-39.3130665 63.7485409 -39.31590568 67.02505872 -39.31884766 70.30175781 C-39.328143 72.64714912 -39.33831108 74.99253711 -39.34928894 77.33792114 C-39.37664732 83.71350695 -39.39175566 90.08907059 -39.40471697 96.46469975 C-39.41874166 102.4500652 -39.4418801 108.4353924 -39.46498732 114.42072806 C-39.51045847 126.2759094 -39.54707194 138.1311009 -39.578125 149.98632812 C-39.60830922 161.50262231 -39.6426589 173.01889165 -39.68261719 184.53515625 C-39.68507874 185.2450103 -39.68754028 185.95486436 -39.69007643 186.68622914 C-39.702451 190.2473558 -39.71490754 193.80848217 -39.72740483 197.3696084 C-39.83097746 226.91303634 -39.92003171 256.45649861 -40 286 C-40.66 285.67 -41.32 285.34 -42 285 C-42.06852741 254.90150904 -42.12157521 224.80302077 -42.15319599 194.70446895 C-42.15694784 191.14615951 -42.16083083 187.58785023 -42.16479492 184.02954102 C-42.16558185 183.32118474 -42.16636878 182.61282846 -42.16717956 181.88300683 C-42.18021189 170.43308018 -42.20385367 158.98319899 -42.23145839 147.53329924 C-42.25957322 135.77320025 -42.27618907 124.01312498 -42.28226548 112.25299376 C-42.28600233 105.6523307 -42.29532042 99.05175199 -42.31719017 92.45112038 C-42.33762787 86.23202324 -42.34381905 80.01307094 -42.33932304 73.79394341 C-42.34014499 71.51762733 -42.34606696 69.24130615 -42.35761642 66.96501923 C-42.46447064 44.80901462 -42.46447064 44.80901462 -39 34 C-38.7100777 33.09331983 -38.42015539 32.18663965 -38.12144756 31.25248432 C-33.3128823 17.12018571 -22.13026353 6.53214115 -9 0 C-5.16935183 -1.04472223 -3.74534117 -1.24844706 0 0 Z " fill="#A480CC" transform="translate(121,84)"/>
<path d="M0 0 C1.21009735 -0.00137466 2.4201947 -0.00274933 3.66696167 -0.00416565 C5.64573051 0.00122726 5.64573051 0.00122726 7.66447449 0.00672913 C9.07406106 0.00701134 10.48364777 0.0068526 11.89323425 0.00628662 C15.7130772 0.00599998 19.53288867 0.01187529 23.35272431 0.01886058 C27.34723898 0.02511618 31.34175438 0.02569966 35.33627319 0.02688599 C42.89742265 0.02999279 50.45855762 0.03819742 58.01970071 0.04823548 C66.62908254 0.05941681 75.23846506 0.06491216 83.84785235 0.06993091 C101.55520791 0.08038057 119.26254999 0.09796742 136.96989441 0.12025452 C136.96989441 0.45025452 136.96989441 0.78025452 136.96989441 1.12025452 C130.55343348 1.27591125 124.13673166 1.41853949 117.71989441 1.55775452 C116.16403122 1.59234772 116.16403122 1.59234772 114.57673645 1.62763977 C98.54077806 1.97739099 82.50760274 2.17190029 66.46837234 2.28188515 C63.34133312 2.30384584 60.21431498 2.32774748 57.08729553 2.35235596 C55.53145028 2.36455469 55.53145028 2.36455469 53.94417381 2.37699986 C51.84150324 2.3935146 49.73883321 2.41009785 47.63616371 2.42674923 C41.32033521 2.47540912 35.00459522 2.51038584 28.68863583 2.53650379 C24.68523891 2.55611094 20.68200288 2.58792704 16.67871284 2.6228199 C14.79037119 2.63663303 12.9019833 2.64520971 11.01359367 2.64831352 C8.40521825 2.65321719 5.79759883 2.67633333 3.18937683 2.70375061 C2.42554058 2.70074668 1.66170433 2.69774275 0.87472153 2.69464779 C-3.59902018 2.76466735 -6.42109683 3.44210291 -10.03010559 6.12025452 C-9.53510559 8.10025452 -9.53510559 8.10025452 -9.03010559 10.12025452 C-10.35010559 8.80025452 -11.67010559 7.48025452 -13.03010559 6.12025452 C-13.64885559 6.94525452 -14.26760559 7.77025452 -14.90510559 8.62025452 C-15.60635559 9.44525452 -16.30760559 10.27025452 -17.03010559 11.12025452 C-17.69010559 11.12025452 -18.35010559 11.12025452 -19.03010559 11.12025452 C-19.03010559 10.46025452 -19.03010559 9.80025452 -19.03010559 9.12025452 C-22.12598013 10.76702656 -22.12598013 10.76702656 -25.03010559 13.12025452 C-25.53251881 15.79065982 -25.53251881 15.79065982 -25.03010559 18.12025452 C-26.66979309 18.33681702 -26.66979309 18.33681702 -28.34260559 18.55775452 C-30.32299271 18.99797313 -30.32299271 18.99797313 -32.03010559 20.12025452 C-33.16177778 22.43523413 -33.76442381 24.61274659 -34.32698059 27.12416077 C-34.67502747 28.11222717 -34.67502747 28.11222717 -35.03010559 29.12025452 C-36.02010559 29.45025452 -37.01010559 29.78025452 -38.03010559 30.12025452 C-41.67663795 37.94606227 -41.44290013 46.6908818 -41.37068176 55.12879944 C-41.36983349 56.49986248 -41.37031452 57.87092688 -41.37200928 59.24198914 C-41.37286287 62.92935905 -41.3553415 66.61643054 -41.33428741 70.30373168 C-41.31541336 74.17007251 -41.31376177 78.03642172 -41.31021118 81.90280151 C-41.300922 89.20881454 -41.27635103 96.51469137 -41.24616271 103.82064468 C-41.21252078 112.14478499 -41.19610818 120.46893213 -41.18107641 128.7931236 C-41.14979831 145.90224575 -41.09709932 163.01123569 -41.03010559 180.12025452 C-42.02010559 180.12025452 -43.01010559 180.12025452 -44.03010559 180.12025452 C-44.12378964 161.83031492 -44.19420223 143.5404381 -44.23735428 125.25030994 C-44.2579283 116.75676232 -44.28594945 108.26336429 -44.3318634 99.76991272 C-44.37189002 92.36196892 -44.39757585 84.95413353 -44.40645957 77.54608458 C-44.41164772 73.62810852 -44.42373224 69.71044244 -44.45302582 65.7925663 C-44.48044604 62.09481675 -44.4884978 58.39750092 -44.48253632 54.69965935 C-44.48413859 52.71612346 -44.5055207 50.73263336 -44.52778625 48.7492218 C-44.46514277 34.93375299 -40.81371843 23.796448 -31.65510559 13.43275452 C-22.23670856 5.13559523 -12.81602532 -0.011252 0 0 Z " fill="#A876CA" transform="translate(185.0301055908203,140.87974548339844)"/>
<path d="M0 0 C2.48495171 0.11169233 4.96997828 0.22173189 7.45507812 0.33007812 C13.49188084 0.59683438 19.5274395 0.88398583 25.5625 1.1875 C25.5625 1.5175 25.5625 1.8475 25.5625 2.1875 C24.87282639 2.19336624 24.18315277 2.19923248 23.47257996 2.20527649 C16.92710857 2.26352741 10.38195259 2.33578479 3.83680248 2.42321491 C0.47301381 2.46766943 -2.89066067 2.50697763 -6.25463867 2.53393555 C-10.13489328 2.56771439 -14.01453724 2.62004342 -17.89453125 2.67578125 C-19.08456253 2.68217117 -20.27459381 2.6885611 -21.50068665 2.69514465 C-35.81815123 2.94366631 -48.71512796 7.02651239 -60.2109375 15.6015625 C-62.4375 17.1875 -62.4375 17.1875 -64.6015625 18.1484375 C-66.96276078 19.48477525 -67.34855966 20.73405073 -68.4375 23.1875 C-69.52501717 24.69961456 -70.63086777 26.19863228 -71.75 27.6875 C-81.01095938 40.82648612 -82.72942251 54.48851966 -82.75634766 70.19604492 C-82.76566832 71.56711402 -82.77584009 72.93817755 -82.78678894 74.30923462 C-82.81386234 77.99647046 -82.82917028 81.6836686 -82.84221697 85.37097716 C-82.85794779 89.23737728 -82.88470575 93.10370149 -82.9102478 96.970047 C-82.9568607 104.27596594 -82.9936889 111.58189943 -83.02692068 118.88789016 C-83.06526637 127.21209691 -83.11464352 135.53622709 -83.16490483 143.86036909 C-83.26796425 160.96935718 -83.35730837 178.07838975 -83.4375 195.1875 C-84.0975 195.1875 -84.7575 195.1875 -85.4375 195.1875 C-86.43009356 160.66955265 -86.44084068 126.21384564 -86 91.6875 C-85.98077925 90.18097366 -85.98077925 90.18097366 -85.9611702 88.64401245 C-85.80058536 76.15830207 -85.62576196 63.67282265 -85.4375 51.1875 C-84.7775 51.1875 -84.1175 51.1875 -83.4375 51.1875 C-83.458125 49.888125 -83.47875 48.58875 -83.5 47.25 C-83.52149454 45.89584367 -83.50898199 44.53993917 -83.4375 43.1875 C-82.9425 42.6925 -82.9425 42.6925 -82.4375 42.1875 C-82.44338717 40.62445563 -82.4924782 39.06148625 -82.5625 37.5 C-82.6078825 32.96823321 -82.03051879 30.02900931 -79.4375 26.1875 C-78.4475 25.5275 -77.4575 24.8675 -76.4375 24.1875 C-76.1075 24.8475 -75.7775 25.5075 -75.4375 26.1875 C-74.6021875 24.8571875 -74.6021875 24.8571875 -73.75 23.5 C-72.2258946 21.18943452 -70.83668225 19.60098744 -68.8125 17.625 C-66.32376636 15.38754012 -66.32376636 15.38754012 -65.4375 12.625 C-64.11967593 9.41280382 -62.27948402 8.10583921 -59.4375 6.1875 C-58.7775 6.1875 -58.1175 6.1875 -57.4375 6.1875 C-57.4375 5.5275 -57.4375 4.8675 -57.4375 4.1875 C-56.4475 4.414375 -55.4575 4.64125 -54.4375 4.875 C-50.73956443 5.39593934 -48.30492952 4.49332279 -44.84790039 3.08813477 C-30.28539353 -2.35307741 -15.2244549 -0.76634865 0 0 Z " fill="#763CB6" transform="translate(210.4375,124.8125)"/>
<path d="M0 0 C0.33 0 0.66 0 1 0 C1.11713287 18.66378993 1.20513418 37.3275046 1.25906086 55.99158669 C1.28477264 64.65890462 1.31978757 73.32599332 1.37719727 81.99316406 C1.42724874 89.55310524 1.459342 97.11288029 1.47044247 104.67298257 C1.47692474 108.67098792 1.49201025 112.66851826 1.52865028 116.66637039 C1.56295507 120.44051562 1.57298482 124.21399681 1.56553841 127.98828316 C1.56753886 130.01101853 1.59425144 132.033684 1.62210083 134.05622864 C1.55049905 146.96642365 -1.88995453 157.87094732 -10.5546875 167.59375 C-20.56861781 177.44771338 -31.66413202 181.43514547 -45.63146973 181.49768066 C-47.58651428 181.47610901 -47.58651428 181.47610901 -49.58105469 181.45410156 C-51.00152555 181.45297033 -52.42199874 181.45361231 -53.84246826 181.45587158 C-57.66002818 181.45700893 -61.47707486 181.43366072 -65.29451656 181.40557575 C-69.29830693 181.38039668 -73.30211191 181.3782072 -77.30596924 181.37347412 C-84.87053243 181.36109244 -92.43486157 181.32833674 -99.99932218 181.28807616 C-108.61850849 181.2432078 -117.23770658 181.22133372 -125.8569808 181.20129442 C-143.57145272 181.1595992 -161.28570747 181.0893418 -179 181 C-179 180.67 -179 180.34 -179 180 C-177.8972898 179.99641747 -177.8972898 179.99641747 -176.77230263 179.99276257 C-158.9044294 179.93368805 -141.03669521 179.85818677 -123.16897011 179.76428509 C-114.52834923 179.71927363 -105.88777005 179.67987146 -97.24707031 179.65356445 C-89.71793155 179.63062753 -82.1889242 179.59727816 -74.65988958 179.55129844 C-70.67139873 179.52730778 -66.6830385 179.50861746 -62.69447708 179.50238609 C-58.94337265 179.49636144 -55.19260267 179.47645776 -51.44162178 179.44572449 C-50.06213638 179.43690194 -48.68260735 179.43323035 -47.30309486 179.43499184 C-45.42513907 179.43663323 -43.54719707 179.41825092 -41.66934204 179.39872742 C-40.61665445 179.39411845 -39.56396687 179.38950949 -38.47937965 179.38476086 C-37.66118437 179.25778977 -36.84298908 179.13081869 -36 179 C-35.34 178.01 -34.68 177.02 -34 176 C-31.75 175.4375 -31.75 175.4375 -29 175 C-24.41794015 173.98537251 -24.41794015 173.98537251 -21.5 170.5625 C-21.005 169.716875 -20.51 168.87125 -20 168 C-18.96875 167.505 -17.9375 167.01 -16.875 166.5 C-13.78250253 165.29720116 -13.78250253 165.29720116 -13.0625 162.4375 C-12.80870706 159.99092493 -12.80870706 159.99092493 -14 158 C-12.02 158.33 -10.04 158.66 -8 159 C-5.59009896 152.11175931 -5.59009896 152.11175931 -4 145 C-3.34 145 -2.68 145 -2 145 C-2.00222061 144.19170746 -2.00444122 143.38341492 -2.00672913 142.55062866 C-2.02690019 134.87316288 -2.04205894 127.19571024 -2.05181217 119.51822472 C-2.0569952 115.57268503 -2.06400792 111.62716754 -2.07543945 107.68164062 C-2.08643329 103.86258354 -2.09231116 100.04354757 -2.09487724 96.22447586 C-2.09670216 94.77909641 -2.10026441 93.3337179 -2.10573006 91.88834763 C-2.13533017 83.72401337 -1.88622612 75.64720546 -1.23927307 67.50595093 C-0.81037432 61.22150794 -0.76245743 54.92954526 -0.68359375 48.6328125 C-0.66294835 47.21792094 -0.64195038 45.80303449 -0.62062073 44.38815308 C-0.56618113 40.71572076 -0.5164373 37.04324032 -0.46777344 33.37072754 C-0.41697706 29.60257837 -0.36159873 25.83449661 -0.30664062 22.06640625 C-0.20001894 14.71099503 -0.09837292 7.35552666 0 0 Z " fill="#F6B5A4" transform="translate(358,178)"/>
<path d="M0 0 C0.33 0 0.66 0 1 0 C1.22406751 20.10566388 1.4249976 40.2114321 1.59840012 60.31759834 C1.67945352 69.65328463 1.76807134 78.98878455 1.87451172 88.32421875 C1.96726806 96.46116933 2.04581664 104.59811195 2.10732102 112.73536098 C2.14038199 117.04385047 2.18054509 121.3520091 2.2377243 125.66025162 C2.29133502 129.71653753 2.32592542 133.77254408 2.34602928 137.82913017 C2.35673619 139.31668091 2.37434985 140.80420073 2.39944649 142.29157829 C2.43272312 144.3255231 2.43853534 146.35986151 2.4430542 148.39407349 C2.45411572 149.53156603 2.46517723 150.66905857 2.47657394 151.84102058 C1.89027953 155.72728421 0.32140752 157.87409869 -2 161 C-2.99842341 163.35357343 -2.99842341 163.35357343 -3.625 165.625 C-5.16794577 170.7984064 -6.89128163 174.15123752 -10.8125 177.9375 C-11.52277344 178.62714844 -12.23304688 179.31679688 -12.96484375 180.02734375 C-13.63644531 180.67832031 -14.30804688 181.32929688 -15 182 C-15.9600479 182.99835405 -16.91871467 183.99804134 -17.875 185 C-20 187 -20 187 -22 187 C-22 187.99 -22 188.98 -22 190 C-23.03125 190.103125 -24.0625 190.20625 -25.125 190.3125 C-29.00243875 191.00043268 -31.64530825 191.97158173 -35 194 C-35.66 194.99 -36.32 195.98 -37 197 C-40.71064269 197 -44.42070038 196.98650816 -48.13127136 196.96203613 C-49.41434677 196.95362198 -50.69742218 196.94520782 -52.01937866 196.9365387 C-53.44415284 196.92709533 -54.86892701 196.91765008 -56.29370117 196.90820312 C-57.79166152 196.89834256 -59.28962193 196.88849068 -60.7875824 196.87864685 C-64.85752347 196.85187659 -68.92746373 196.82498448 -72.99740386 196.79807091 C-77.24951491 196.76997327 -81.50162669 196.74198711 -85.7537384 196.71398926 C-93.80722998 196.66094437 -101.86072089 196.60779885 -109.91421157 196.5546174 C-119.08218364 196.49408133 -128.25015645 196.4336571 -137.41812932 196.37324238 C-156.27875371 196.24895292 -175.13937716 196.12452262 -194 196 C-194 195.67 -194 195.34 -194 195 C-193.26561392 194.99853344 -192.53122784 194.99706688 -191.77458763 194.99555588 C-173.85241405 194.95840071 -155.93043399 194.89927125 -138.00841331 194.81609726 C-129.34121797 194.77639613 -120.67411224 194.74395852 -112.00683594 194.72900391 C-104.44679328 194.71594087 -96.88694856 194.68885856 -89.32701743 194.64538693 C-85.32916342 194.62287597 -81.3315526 194.60708303 -77.33362961 194.60811615 C-73.55943395 194.60886896 -69.78577372 194.59067313 -66.01171684 194.55883217 C-63.98910614 194.54644476 -61.96640499 194.55334848 -59.94377136 194.56114197 C-43.61324825 194.37780951 -28.85528689 189.1802471 -16.8046875 177.9296875 C-4.1779784 164.42840115 -0.70805093 148.59245874 -0.68115234 130.66772461 C-0.67183861 129.23783816 -0.66166782 127.80795708 -0.65071106 126.37808228 C-0.62355967 122.52131153 -0.60830608 118.66457701 -0.59528303 114.80773616 C-0.579587 110.76782403 -0.55281762 106.72798516 -0.5272522 102.68812561 C-0.4805785 95.04922889 -0.4437794 87.41031822 -0.41057932 79.77135235 C-0.37227703 71.06993366 -0.32288826 62.36858875 -0.27259517 53.66723239 C-0.16944513 35.77820903 -0.08013 17.88914055 0 0 Z " fill="#FCD3C1" transform="translate(372,177)"/>
<path d="M0 0 C0 0.33 0 0.66 0 1 C-6.93 1 -13.86 1 -21 1 C-21.33 1.99 -21.66 2.98 -22 4 C-24.32206525 4.70491267 -26.65593068 5.37212429 -29 6 C-29.33 6.66 -29.66 7.32 -30 8 C-30.66 8 -31.32 8 -32 8 C-32 8.66 -32 9.32 -32 10 C-32.639375 10.12375 -33.27875 10.2475 -33.9375 10.375 C-34.618125 10.58125 -35.29875 10.7875 -36 11 C-36.33 11.66 -36.66 12.32 -37 13 C-37 12.34 -37 11.68 -37 11 C-41.08110856 13.0957044 -42.79901179 15.01725944 -45 19 C-45.66 19.33 -46.32 19.66 -47 20 C-47.66 19.01 -48.32 18.02 -49 17 C-49 17.66 -49 18.32 -49 19 C-49.61875 19.226875 -50.2375 19.45375 -50.875 19.6875 C-53.64563234 21.39877291 -54.14974239 22.90815414 -55 26 C-54.67 26.66 -54.34 27.32 -54 28 C-56.67478244 29.6627026 -58.9995144 30.99983813 -62 32 C-62.79953138 35.28696233 -63.09658936 36.71023192 -62 40 C-63.32 40.66 -64.64 41.32 -66 42 C-66 42.66 -66 43.32 -66 44 C-69.46153846 47 -69.46153846 47 -72 47 C-70.03365572 32.74400393 -61.04585464 20.79093165 -50 12 C-41.5026248 5.79721218 -32.26892822 2.25036966 -22 0 C-21.28585938 -0.16242188 -20.57171875 -0.32484375 -19.8359375 -0.4921875 C-13.30589063 -1.63147227 -6.5475731 -0.59774193 0 0 Z " fill="#BD5CB3" transform="translate(261,187)"/>
<path d="M0 0 C1.98 0.99 1.98 0.99 4 2 C4.57421875 4.49609375 4.57421875 4.49609375 4.6875 7.4375 C4.83553188 10.6138413 4.98878263 12.96634789 6 16 C6.11860021 17.39436984 6.18626929 18.79341401 6.22119141 20.19238281 C6.244319 21.05574753 6.26744659 21.91911224 6.29127502 22.80863953 C6.31116989 23.76381973 6.33106476 24.71899994 6.3515625 25.703125 C6.37512314 26.72876053 6.39868378 27.75439606 6.42295837 28.81111145 C6.49803771 32.29063193 6.5626933 35.77022819 6.625 39.25 C6.64779022 40.45187958 6.67058044 41.65375916 6.69406128 42.89205933 C7.39568711 81.92424408 6.5975191 120.97072124 6 160 C5.34 160.33 4.68 160.66 4 161 C4 113.48 4 65.96 4 17 C3.34 17 2.68 17 2 17 C1.34 11.39 0.68 5.78 0 0 Z " fill="#DE6258" transform="translate(369,160)"/>
<path d="M0 0 C52.8 0.33 105.6 0.66 160 1 C160 1.33 160 1.66 160 2 C152.99272898 3.06851242 146.09380695 3.17804183 139.01318359 3.22119141 C137.72752502 3.2326973 136.44186646 3.24420319 135.11724854 3.25605774 C131.6086548 3.28720555 128.10004227 3.31243249 124.59139204 3.3362546 C121.64966523 3.3567893 118.70796513 3.38029217 115.76626074 3.40379179 C108.81571794 3.45928431 101.86515178 3.51001382 94.91455078 3.55761719 C87.77778514 3.60656601 80.64110581 3.66290291 73.50442636 3.72303832 C67.35040954 3.77466294 61.19636971 3.82192571 55.04229224 3.86572587 C51.37882149 3.89182291 47.71537944 3.91941682 44.05195236 3.9510994 C39.95572442 3.98626942 35.85948449 4.01231126 31.76318359 4.03759766 C29.97803848 4.05466011 29.97803848 4.05466011 28.15682983 4.07206726 C21.0446484 4.10711709 14.05281072 3.77288456 6.96926308 3.11977196 C4.33654334 3.01357524 2.47892751 3.18352349 0 4 C0 2.68 0 1.36 0 0 Z " fill="#DB5C55" transform="translate(169,372)"/>
<path d="M0 0 C0.66 0 1.32 0 2 0 C3.04877236 3.14631709 3.12323224 5.33544291 3.12025452 8.63774109 C3.12162918 9.8114325 3.12300385 10.9851239 3.12442017 12.19438171 C3.12082489 13.48334854 3.11722961 14.77231537 3.11352539 16.1003418 C3.11324334 17.470225 3.1134016 18.84010834 3.1139679 20.20999146 C3.11425518 23.93078273 3.10836949 27.65154186 3.10139394 31.37232566 C3.09514904 35.26008171 3.0945557 39.14783847 3.09336853 43.03559875 C3.09025858 50.39848557 3.08204969 57.76135756 3.07201904 65.12423784 C3.0608475 73.50624987 3.05534483 81.88826261 3.05032361 90.27028024 C3.03986682 107.51352874 3.02227385 124.7567628 3 142 C2.01 142 1.02 142 0 142 C0 95.14 0 48.28 0 0 Z " fill="#B678C2" transform="translate(141,179)"/>
<path d="M0 0 C0.89203125 0.21269531 1.7840625 0.42539063 2.703125 0.64453125 C3.37859375 0.82371094 4.0540625 1.00289062 4.75 1.1875 C1.66094938 3.8646772 -1.5322447 5.97105512 -5.0625 8 C-21.66145127 17.9054303 -32.86872604 34.97700657 -37.83984375 53.4921875 C-37.97519531 54.05164063 -38.11054688 54.61109375 -38.25 55.1875 C-40.25 53.1875 -40.25 53.1875 -40.3671875 51.375 C-39.7651535 45.93727353 -38.27084075 41.50693654 -36.10546875 36.49609375 C-35.04825744 33.64307144 -34.93270151 31.20183567 -35.25 28.1875 C-34.46625 28.105 -33.6825 28.0225 -32.875 27.9375 C-30.17286608 27.48123672 -30.17286608 27.48123672 -29.1875 25.5 C-28.878125 24.736875 -28.56875 23.97375 -28.25 23.1875 C-24.81451613 17.46169355 -24.81451613 17.46169355 -22.0625 16.125 C-21.1653125 15.6609375 -21.1653125 15.6609375 -20.25 15.1875 C-19.43828772 12.63230079 -19.43828772 12.63230079 -19.25 10.1875 C-16.5760876 9.29619587 -14.01276177 8.71018466 -11.25 8.1875 C-11.0025 7.259375 -10.755 6.33125 -10.5 5.375 C-8.32660972 -0.16714522 -5.69265947 -1.42316487 0 0 Z " fill="#AB61BB" transform="translate(212.25,176.8125)"/>
<path d="M0 0 C-1.70625501 2.78388975 -2.47626739 3.85384206 -5.6875 4.75 C-6.8321875 4.87375 -6.8321875 4.87375 -8 5 C-7.505 6.485 -7.505 6.485 -7 8 C-7.66 8 -8.32 8 -9 8 C-9 8.66 -9 9.32 -9 10 C-9.66 10 -10.32 10 -11 10 C-11.33 8.68 -11.66 7.36 -12 6 C-12.2475 6.763125 -12.495 7.52625 -12.75 8.3125 C-14.13563292 11.29161079 -15.11046627 12.47024685 -18 14 C-20.25 13.6875 -20.25 13.6875 -22 13 C-21.67 13.99 -21.34 14.98 -21 16 C-22.765625 18.6640625 -22.765625 18.6640625 -25.25 21.625 C-26.05953125 22.60726562 -26.8690625 23.58953125 -27.703125 24.6015625 C-30 27 -30 27 -33 28 C-33.98703952 30.06497387 -33.98703952 30.06497387 -34.625 32.5 C-35.92825112 36.92825112 -35.92825112 36.92825112 -37 38 C-36.938125 38.94875 -36.87625 39.8975 -36.8125 40.875 C-36.874375 41.90625 -36.93625 42.9375 -37 44 C-39.01171875 45.6953125 -39.01171875 45.6953125 -41 47 C-40.69185265 32.76919501 -34.83816286 21.20089474 -25.05859375 10.96875 C-18.60967666 5.02792941 -9.18853636 -3.06284545 0 0 Z " fill="#5442CF" transform="translate(121,84)"/>
<path d="M0 0 C2.48495171 0.11169233 4.96997828 0.22173189 7.45507812 0.33007812 C13.49188084 0.59683438 19.5274395 0.88398583 25.5625 1.1875 C25.5625 1.5175 25.5625 1.8475 25.5625 2.1875 C24.87282639 2.19336624 24.18315277 2.19923248 23.47257996 2.20527649 C16.92710857 2.26352741 10.38195259 2.33578479 3.83680248 2.42321491 C0.47301381 2.46766943 -2.89066067 2.50697763 -6.25463867 2.53393555 C-10.13489328 2.56771439 -14.01453724 2.62004342 -17.89453125 2.67578125 C-19.08456253 2.68217117 -20.27459381 2.6885611 -21.50068665 2.69514465 C-37.36616876 2.9705367 -50.42340935 8.37948428 -63.4375 17.1875 C-64.4275 16.5275 -65.4175 15.8675 -66.4375 15.1875 C-65.09115543 10.7812814 -63.24375626 8.75672298 -59.4375 6.1875 C-58.7775 6.1875 -58.1175 6.1875 -57.4375 6.1875 C-57.4375 5.5275 -57.4375 4.8675 -57.4375 4.1875 C-56.4475 4.414375 -55.4575 4.64125 -54.4375 4.875 C-50.73956443 5.39593934 -48.30492952 4.49332279 -44.84790039 3.08813477 C-30.28539353 -2.35307741 -15.2244549 -0.76634865 0 0 Z " fill="#654ACF" transform="translate(210.4375,124.8125)"/>
<path d="M0 0 C2.05869235 -0.02300207 4.11730022 -0.03810434 6.1760788 -0.05093384 C8.01959427 -0.06537537 8.01959427 -0.06537537 9.90035248 -0.08010864 C12.97441864 0.02523804 12.97441864 0.02523804 15.97441864 1.02523804 C15.97441864 1.68523804 15.97441864 2.34523804 15.97441864 3.02523804 C5.17591313 3.04865257 -5.62258611 3.06629869 -16.42111206 3.07705021 C-21.43804079 3.08221651 -26.45495185 3.08919689 -31.47187042 3.10067749 C-74.10406813 3.1957721 -74.10406813 3.1957721 -94.02558136 2.02523804 C-94.02558136 1.69523804 -94.02558136 1.36523804 -94.02558136 1.02523804 C-92.96215012 1.02916565 -92.96215012 1.02916565 -91.87723541 1.03317261 C-72.8133351 1.09330689 -53.7645688 0.90080766 -34.70423126 0.56167603 C-29.87513704 0.47599322 -25.0460013 0.39276375 -20.21683502 0.31124878 C-17.67337481 0.26809913 -15.12993538 0.22369551 -12.58652496 0.17770386 C-8.39112107 0.10570214 -4.19568321 0.05227675 0 0 Z " fill="#99369D" transform="translate(306.0255813598633,123.97476196289063)"/>
<path d="M0 0 C0.33 0 0.66 0 1 0 C1 46.2 1 92.4 1 140 C0.34 140 -0.32 140 -1 140 C-1.16885149 132.1713783 -1.32862198 124.34260842 -1.48217773 116.51367188 C-1.53479319 113.85213912 -1.59075574 111.19073687 -1.64819336 108.52929688 C-1.73054544 104.69670285 -1.8054317 100.86402325 -1.87890625 97.03125 C-1.90594131 95.84760864 -1.93297638 94.66396729 -1.96083069 93.44445801 C-1.98092697 92.32390015 -2.00102325 91.20334229 -2.02172852 90.04882812 C-2.05170677 88.58322449 -2.05170677 88.58322449 -2.08229065 87.0880127 C-2.00092873 84.03485126 -1.64095727 81.07972155 -1.23509312 78.05500031 C-0.85680496 74.74830091 -0.82273367 71.43923726 -0.79467773 68.11523438 C-0.78477814 67.3727948 -0.77487854 66.63035522 -0.76467896 65.86541748 C-0.73340327 63.44155938 -0.70844266 61.01768176 -0.68359375 58.59375 C-0.66299481 56.9012403 -0.64199762 55.2087354 -0.62062073 53.51623535 C-0.56570341 49.08418697 -0.51616169 44.65209453 -0.46777344 40.2199707 C-0.41733539 35.68827441 -0.36176631 31.15664127 -0.30664062 26.625 C-0.19943076 17.75005409 -0.0979049 8.8750531 0 0 Z " fill="#8A3B9E" transform="translate(126,180)"/>
<path d="M0 0 C0.66 0.99 1.32 1.98 2 3 C1.484375 3.9075 0.96875 4.815 0.4375 5.75 C-1.06430721 9.14539022 -1.13578153 9.70623357 0 13 C-0.33 13.99 -0.66 14.98 -1 16 C-2.92578125 16.80859375 -2.92578125 16.80859375 -5.3125 17.4375 C-9.18406338 18.62969571 -11.57272798 19.60181917 -14 23 C-15.26784124 26.13350717 -15.26784124 26.13350717 -16 29 C-16.66 28.34 -17.32 27.68 -18 27 C-18.2371875 27.62648438 -18.474375 28.25296875 -18.71875 28.8984375 C-20.35716801 31.58584265 -21.50887435 31.81894991 -24.5 32.625 C-28.13021537 33.60483709 -28.13021537 33.60483709 -31 36 C-33.6015625 36.4140625 -33.6015625 36.4140625 -36.625 36.625 C-37.62789063 36.69976562 -38.63078125 36.77453125 -39.6640625 36.8515625 C-40.43492187 36.90054688 -41.20578125 36.94953125 -42 37 C-39.1937413 35.12916087 -36.48693152 33.7983331 -33.4375 32.375 C-27.2364715 29.28942799 -22.15043665 25.60739226 -17 21 C-16.22785156 20.31035156 -15.45570313 19.62070312 -14.66015625 18.91015625 C-8.70324852 13.27909646 -4.31282742 6.94517985 0 0 Z M-3 10 C-3.33 10.66 -3.66 11.32 -4 12 C-3.34 12 -2.68 12 -2 12 C-2.33 11.34 -2.66 10.68 -3 10 Z " fill="#EA7B76" transform="translate(319,287)"/>
<path d="M0 0 C0.33 0 0.66 0 1 0 C1.33 2.31 1.66 4.62 2 7 C1.67 7 1.34 7 1 7 C0.91835841 9.6881249 0.85920332 12.373723 0.8125 15.0625 C0.78736328 15.81466797 0.76222656 16.56683594 0.73632812 17.34179688 C0.6665128 22.71757681 1.67722225 26.16482998 4 31 C4.4054103 33.32189536 4.76072994 35.65515344 5 38 C7.31 38 9.62 38 12 38 C12 43.14729706 11.90276539 47.9219447 11 53 C2.21563565 45.26139331 -0.72888893 31.256641 -1.8125 20.125 C-2.20966916 13.22036683 -1.35893414 6.76097812 0 0 Z " fill="#CD63AB" transform="translate(188,234)"/>
<path d="M0 0 C0.33 0.66 0.66 1.32 1 2 C1.66 2 2.32 2 3 2 C3 2.66 3 3.32 3 4 C-40.56 4 -84.12 4 -129 4 C-129 3.67 -129 3.34 -129 3 C-101.33561192 2.03655767 -73.74101143 1.99307088 -46.06506348 2.39489746 C-40.95425489 2.4674133 -35.84333561 2.5311076 -30.73242188 2.59570312 C-20.82149301 2.72218562 -10.91071596 2.85786583 -1 3 C-0.67 2.01 -0.34 1.02 0 0 Z " fill="#EEB169" transform="translate(369,416)"/>
<path d="M0 0 C0.66 0.66 1.32 1.32 2 2 C1.38125 2.226875 0.7625 2.45375 0.125 2.6875 C-2.64563234 4.39877291 -3.14974239 5.90815414 -4 9 C-3.67 9.66 -3.34 10.32 -3 11 C-5.67478244 12.6627026 -7.9995144 13.99983813 -11 15 C-11.79953138 18.28696233 -12.09658936 19.71023192 -11 23 C-12.98 23.99 -12.98 23.99 -15 25 C-15 25.66 -15 26.32 -15 27 C-18.46153846 30 -18.46153846 30 -21 30 C-19.81668904 22.11126024 -16.93100297 15.33421424 -12 9 C-9.33203125 7.77734375 -9.33203125 7.77734375 -7 7 C-6.67 6.34 -6.34 5.68 -6 5 C-5.34 5 -4.68 5 -4 5 C-4 4.01 -4 3.02 -4 2 C-2.68 1.34 -1.36 0.68 0 0 Z " fill="#AF2BAC" transform="translate(210,204)"/>
<path d="M0 0 C0.99 0 1.98 0 3 0 C3.33 1.65 3.66 3.3 4 5 C5.65 5.33 7.3 5.66 9 6 C9.66 7.98 10.32 9.96 11 12 C9.68 12.33 8.36 12.66 7 13 C7.20625 13.763125 7.4125 14.52625 7.625 15.3125 C8 18 8 18 6 21 C5.61500109 22.65549531 5.27206865 24.3222433 5 26 C4.67 26 4.34 26 4 26 C4.01160156 25.39671875 4.02320313 24.7934375 4.03515625 24.171875 C4.04417969 23.37265625 4.05320312 22.5734375 4.0625 21.75 C4.07410156 20.96109375 4.08570313 20.1721875 4.09765625 19.359375 C4.00385306 17.09308998 3.63241063 15.1711105 3 13 C2.01 13 1.02 13 0 13 C0 12.34 0 11.68 0 11 C-1.32 10.67 -2.64 10.34 -4 10 C-2.35 9.34 -0.7 8.68 1 8 C0.67 5.36 0.34 2.72 0 0 Z " fill="#D5246E" transform="translate(336,149)"/>
<path d="M0 0 C1.04449911 3.13349732 0.93423645 3.98968256 0 7 C0.66 7.33 1.32 7.66 2 8 C0.35 8.33 -1.3 8.66 -3 9 C-3.18175781 9.63808594 -3.36351562 10.27617187 -3.55078125 10.93359375 C-3.80214844 11.75988281 -4.05351562 12.58617187 -4.3125 13.4375 C-4.55613281 14.26121094 -4.79976562 15.08492187 -5.05078125 15.93359375 C-5.36402344 16.61550781 -5.67726562 17.29742187 -6 18 C-6.99 18.33 -7.98 18.66 -9 19 C-10.02281518 21.09719872 -10.02281518 21.09719872 -10.6875 23.5625 C-11.06455078 24.80193359 -11.06455078 24.80193359 -11.44921875 26.06640625 C-11.63097656 26.70449219 -11.81273437 27.34257812 -12 28 C-12.66 27.67 -13.32 27.34 -14 27 C-13.62042171 17.13096444 -8.84092396 8.03094963 -2 1 C-1.34 0.67 -0.68 0.34 0 0 Z " fill="#845EC4" transform="translate(156,152)"/>
<path d="M0 0 C1.1650708 0.04722198 2.3301416 0.09444397 3.53051758 0.14309692 C7.22922929 0.29549283 10.92700886 0.46391271 14.625 0.6328125 C17.14188241 0.73934207 19.65880947 0.84482218 22.17578125 0.94921875 C28.32608982 1.20660209 34.47571335 1.47712336 40.625 1.7578125 C40.625 2.0878125 40.625 2.4178125 40.625 2.7578125 C19.505 3.0878125 -1.615 3.4178125 -23.375 3.7578125 C-16.11340841 -1.08324856 -8.37664458 -0.40511462 0 0 Z " fill="#72419F" transform="translate(195.375,124.2421875)"/>
<path d="M0 0 C-1.70625501 2.78388975 -2.47626739 3.85384206 -5.6875 4.75 C-6.8321875 4.87375 -6.8321875 4.87375 -8 5 C-7.67 5.99 -7.34 6.98 -7 8 C-7.66 8 -8.32 8 -9 8 C-9 8.66 -9 9.32 -9 10 C-9.66 10 -10.32 10 -11 10 C-11.33 8.68 -11.66 7.36 -12 6 C-12.2475 6.763125 -12.495 7.52625 -12.75 8.3125 C-14.12130672 11.26080945 -15.2351079 12.35834532 -18 14 C-18.66 14 -19.32 14 -20 14 C-19.73079965 10.14146168 -19.26710588 8.31904314 -16.75 5.3125 C-11.65049081 1.02427636 -6.78716185 -2.26238728 0 0 Z " fill="#8A7DD3" transform="translate(121,84)"/>
<path d="M0 0 C9.42361 0.54366981 18.54212133 4.1994277 26 10 C26 10.33 26 10.66 26 11 C23.36 11.33 20.72 11.66 18 12 C17.773125 11.360625 17.54625 10.72125 17.3125 10.0625 C16.14749104 7.72806339 16.14749104 7.72806339 13.375 7.25 C12.59125 7.1675 11.8075 7.085 11 7 C11 6.34 11 5.68 11 5 C9.7625 4.87625 8.525 4.7525 7.25 4.625 C4.1237803 4.24253695 1.71120763 3.69450477 -1 2 C-0.67 1.34 -0.34 0.68 0 0 Z " fill="#C74B92" transform="translate(261,188)"/>
<path d="M0 0 C0.4125 0.94875 0.825 1.8975 1.25 2.875 C3.0040131 6.00716624 3.70851757 6.86500606 7 8 C7 9.32 7 10.64 7 12 C7.66 12.66 8.32 13.32 9 14 C8.625 16.625 8.625 16.625 8 19 C5.34013125 16.446526 2.80646233 13.77712155 0.3125 11.0625 C-0.28949219 10.41410156 -0.89148438 9.76570312 -1.51171875 9.09765625 C-3.20239046 6.714741 -3.48591809 4.83946178 -4 2 C-4.66 1.67 -5.32 1.34 -6 1 C-3 0 -3 0 0 0 Z " fill="#D25488" transform="translate(356,136)"/>
<path d="M0 0 C2 1 2 1 3.11328125 3.32421875 C4.36411076 8.50937546 4.24992456 13.49984162 4.1875 18.8125 C4.18685547 19.87404297 4.18621094 20.93558594 4.18554688 22.02929688 C4.1404591 29.8595409 4.1404591 29.8595409 3 31 C2.87625 32.0725 2.7525 33.145 2.625 34.25 C2.00924443 37.94453343 1.24276166 40.0395546 -1 43 C-1.66 43 -2.32 43 -3 43 C-3.33 43.66 -3.66 44.32 -4 45 C-4.2025236 41.35457517 -3.84727108 39.15122713 -2 36 C-1.67 35.34 -1.34 34.68 -1 34 C-0.34 34.33 0.32 34.66 1 35 C0.98839844 34.36191406 0.97679687 33.72382813 0.96484375 33.06640625 C0.95582031 32.24011719 0.94679688 31.41382813 0.9375 30.5625 C0.92589844 29.73878906 0.91429687 28.91507812 0.90234375 28.06640625 C1 26 1 26 2 25 C2.23678716 22.30764224 2.42198025 19.63501844 2.5625 16.9375 C2.62727539 15.79958008 2.62727539 15.79958008 2.69335938 14.63867188 C2.79973633 12.75934562 2.90039934 10.87969756 3 9 C2.01 8.67 1.02 8.34 0 8 C-1.22393475 5.04215769 -0.96516243 3.00272755 0 0 Z " fill="#E92843" transform="translate(308,231)"/>
<path d="M0 0 C0.33 0 0.66 0 1 0 C1.16435547 1.03060547 1.16435547 1.03060547 1.33203125 2.08203125 C1.49058594 2.98308594 1.64914062 3.88414062 1.8125 4.8125 C1.96332031 5.70582031 2.11414063 6.59914062 2.26953125 7.51953125 C3.30044641 11.02023247 4.87077289 12.26457898 7.859375 14.2109375 C10.55397548 15.20420264 12.41601948 14.99789217 15.25 14.625 C16.14203125 14.51414063 17.0340625 14.40328125 17.953125 14.2890625 C18.62859375 14.19367188 19.3040625 14.09828125 20 14 C19.67 14.99 19.34 15.98 19 17 C14.64979239 18.4500692 10.27506902 19.03166496 6.02734375 17.10546875 C4.33895693 16.09100278 2.66847749 15.04688783 1 14 C0.01 14 -0.98 14 -2 14 C-2.33 12.68 -2.66 11.36 -3 10 C-2.34 10 -1.68 10 -1 10 C-0.67 6.7 -0.34 3.4 0 0 Z " fill="#D75B92" transform="translate(315,169)"/>
<path d="M0 0 C11.55 0.33 23.1 0.66 35 1 C34.67 1.66 34.34 2.32 34 3 C31.671875 3.44921875 31.671875 3.44921875 28.75 3.6875 C27.79609375 3.77386719 26.8421875 3.86023438 25.859375 3.94921875 C23.06574054 3.99883248 20.70681091 3.65694498 18 3 C17.67 3.66 17.34 4.32 17 5 C16.67 4.67 16.34 4.34 16 4 C14.14712498 3.92773498 12.29166122 3.9161878 10.4375 3.9375 C9.42558594 3.94652344 8.41367188 3.95554687 7.37109375 3.96484375 C6.58863281 3.97644531 5.80617187 3.98804688 5 4 C5 3.01 5 2.02 5 1 C3.35 1.33 1.7 1.66 0 2 C0 1.34 0 0.68 0 0 Z " fill="#D93048" transform="translate(230,328)"/>
<path d="M0 0 C0.66 0.99 1.32 1.98 2 3 C1.484375 3.9075 0.96875 4.815 0.4375 5.75 C-1.06430721 9.14539022 -1.13578153 9.70623357 0 13 C-0.33 13.99 -0.66 14.98 -1 16 C-3.31 16.33 -5.62 16.66 -8 17 C-7.84482717 9.86204983 -4.25790537 5.52527146 0 0 Z M-3 10 C-3.33 10.66 -3.66 11.32 -4 12 C-3.34 12 -2.68 12 -2 12 C-2.33 11.34 -2.66 10.68 -3 10 Z " fill="#EC807B" transform="translate(319,287)"/>
<path d="M0 0 C0.33 0 0.66 0 1 0 C1 20.79 1 41.58 1 63 C0.34 62.67 -0.32 62.34 -1 62 C-1 2 -1 2 0 0 Z " fill="#D2374B" transform="translate(357,179)"/>
<path d="M0 0 C0.33 0.66 0.66 1.32 1 2 C1.66 2.33 2.32 2.66 3 3 C3.625 5.0625 3.625 5.0625 4 7 C2.02 7.99 2.02 7.99 0 9 C0 9.66 0 10.32 0 11 C-3.46153846 14 -3.46153846 14 -6 14 C-5.71517632 12.58194169 -5.42181856 11.16559621 -5.125 9.75 C-4.96257812 8.96109375 -4.80015625 8.1721875 -4.6328125 7.359375 C-4.00106448 5.00396882 -3.24959008 3.09190636 -2 1 C-1.34 0.67 -0.68 0.34 0 0 Z " fill="#AA2DA3" transform="translate(195,220)"/>
<path d="M0 0 C2 1 2 1 3 3 C0.69 3.33 -1.62 3.66 -4 4 C-4.226875 4.763125 -4.45375 5.52625 -4.6875 6.3125 C-6.28096179 9.5753027 -7.76338336 10.46260709 -11 12 C-11.66 12 -12.32 12 -13 12 C-13 12.99 -13 13.98 -13 15 C-13.66 15 -14.32 15 -15 15 C-15.33 15.99 -15.66 16.98 -16 18 C-18.0625 18.6875 -18.0625 18.6875 -20 19 C-16.50051828 10.67430997 -7.82912823 4.05436997 0 0 Z " fill="#B760B4" transform="translate(219,194)"/>
<path d="M0 0 C2.72702955 5.09552533 2.43122593 9.02760269 0.8125 14.5 C-0.71877092 18.85087074 -2.84138763 21.67065183 -6 25 C-6.33 24.34 -6.66 23.68 -7 23 C-6.30190548 20.97346402 -5.51519636 18.9771451 -4.6875 17 C-2.43353012 11.37133633 -0.90540443 5.98648005 0 0 Z " fill="#EA6E6E" transform="translate(327,262)"/>
<path d="M0 0 C5.78055456 -0.36897157 10.72464129 0.5156741 16 3 C17.02900331 3.97012999 18.03091314 4.97001424 19 6 C20.546875 6.99 20.546875 6.99 22.125 8 C25 10 25 10 26 13 C22.8502827 11.91728468 20.24260225 10.53527016 17.5 8.6875 C12.07842776 5.18433025 6.04819121 3.16665386 0 1 C0 0.67 0 0.34 0 0 Z " fill="#C4549B" transform="translate(272,174)"/>
<path d="M0 0 C0.66 0.33 1.32 0.66 2 1 C1.01 2.98 0.02 4.96 -1 7 C-1.66 7 -2.32 7 -3 7 C-3.33 7.99 -3.66 8.98 -4 10 C-4.99 10.33 -5.98 10.66 -7 11 C-7.28875 11.825 -7.5775 12.65 -7.875 13.5 C-8.431875 14.7375 -8.431875 14.7375 -9 16 C-11.625 16.8125 -11.625 16.8125 -14 17 C-11.40029603 9.4175301 -5.95889072 5.01877447 0 0 Z " fill="#8276D4" transform="translate(102,90)"/>
<path d="M0 0 C0 0.33 0 0.66 0 1 C-1.28970703 1.14695313 -1.28970703 1.14695313 -2.60546875 1.296875 C-10.23979118 2.26261263 -17.07027321 3.75078584 -24.35546875 6.29296875 C-27 7 -27 7 -30 6 C-29.67 5.34 -29.34 4.68 -29 4 C-27.02 4 -25.04 4 -23 4 C-23 3.34 -23 2.68 -23 2 C-15.0074348 -0.2173731 -8.21920674 -1.53994167 0 0 Z " fill="#BA71C0" transform="translate(246,171)"/>
<path d="M0 0 C0.66 0.33 1.32 0.66 2 1 C2.40729228 3.32156597 2.74438677 5.6568787 3 8 C1.865625 8.433125 0.73125 8.86625 -0.4375 9.3125 C-1.613125 9.869375 -2.78875 10.42625 -4 11 C-4.33 11.99 -4.66 12.98 -5 14 C-7.0625 14.6875 -7.0625 14.6875 -9 15 C-9.33 14.34 -9.66 13.68 -10 13 C-9.34 13 -8.68 13 -8 13 C-8 12.34 -8 11.68 -8 11 C-8.66 10.67 -9.32 10.34 -10 10 C-9.01 10 -8.02 10 -7 10 C-6.67 9.01 -6.34 8.02 -6 7 C-4.68 7 -3.36 7 -2 7 C-1.855625 6.21625 -1.71125 5.4325 -1.5625 4.625 C-1 2 -1 2 0 0 Z " fill="#DC235D" transform="translate(341,176)"/>
<path d="M0 0 C0.33 0 0.66 0 1 0 C1.60409415 7.49076746 0.2195544 12.71226963 -4 19 C-4.99 19.66 -5.98 20.32 -7 21 C-6.33574584 16.88162422 -5.04478955 13.09184849 -3.69921875 9.16015625 C-2.93451399 6.79768847 -2.39535881 4.45122463 -2 2 C-1.34 2 -0.68 2 0 2 C0 1.34 0 0.68 0 0 Z " fill="#F3B681" transform="translate(356,321)"/>
<path d="M0 0 C1.56841403 0.39382075 3.13330328 0.80335706 4.6875 1.25 C-0.08868266 5.14635954 -2.11651645 6.38469529 -8.3125 6.25 C-8.3125 5.59 -8.3125 4.93 -8.3125 4.25 C-8.9725 3.92 -9.6325 3.59 -10.3125 3.25 C-6.89771646 -0.62008801 -4.85559711 -1.00555628 0 0 Z " fill="#AC55BD" transform="translate(212.3125,176.75)"/>
<path d="M0 0 C0 0.33 0 0.66 0 1 C-1.11375 1.2475 -2.2275 1.495 -3.375 1.75 C-9.87294875 3.3687061 -16.05112493 5.94369721 -22 9 C-21.49396008 6.83125748 -21.00016187 5.00032373 -20 3 C-18.35 3 -16.7 3 -15 3 C-15 2.34 -15 1.68 -15 1 C-9.4584498 -0.96263236 -5.79141983 -1.01603857 0 0 Z " fill="#7D64C9" transform="translate(176,128)"/>
<path d="M0 0 C1.98 0.495 1.98 0.495 4 1 C3.87431641 1.90492188 3.87431641 1.90492188 3.74609375 2.828125 C3.64425781 3.62734375 3.54242188 4.4265625 3.4375 5.25 C3.33308594 6.03890625 3.22867188 6.8278125 3.12109375 7.640625 C2.88458163 9.98056802 2.88458163 9.98056802 3.53515625 12.109375 C4 14 4 14 3 17 C3.66 17 4.32 17 5 17 C5 18.65 5 20.3 5 22 C0.83012707 16.93074271 -0.7864297 10.9899842 -1.25 4.5 C-1 2 -1 2 0 0 Z " fill="#BF52A9" transform="translate(81,368)"/>
<path d="M0 0 C2.375 0.25 2.375 0.25 5 1 C6.83425979 3.853293 7.32980464 6.40445264 7.625 9.75 C7.69976562 10.54921875 7.77453125 11.3484375 7.8515625 12.171875 C7.92503906 13.07679687 7.92503906 13.07679687 8 14 C6.5 12.625 6.5 12.625 5 11 C5 10.34 5 9.68 5 9 C4.34 9 3.68 9 3 9 C0.8125 6.1875 0.8125 6.1875 -1 3 C-0.67 2.01 -0.34 1.02 0 0 Z " fill="#E04C77" transform="translate(409,107)"/>
<path d="M0 0 C1.32 0 2.64 0 4 0 C2.55053895 3.33973757 0.71827612 5.52304659 -1.875 8.0625 C-2.55304688 8.73410156 -3.23109375 9.40570313 -3.9296875 10.09765625 C-5.8707937 11.88127647 -7.8619601 13.46118653 -10 15 C-10.66 14.67 -11.32 14.34 -12 14 C-11.67 12.68 -11.34 11.36 -11 10 C-9.02 9.67 -7.04 9.34 -5 9 C-5 8.01 -5 7.02 -5 6 C-4.34 6 -3.68 6 -3 6 C-2.67 5.01 -2.34 4.02 -2 3 C-1.34 2.01 -0.68 1.02 0 0 Z " fill="#E76874" transform="translate(296,288)"/>
<path d="M0 0 C-0.33 0.99 -0.66 1.98 -1 3 C-1.66 3 -2.32 3 -3 3 C-3.25523437 3.55171875 -3.51046875 4.1034375 -3.7734375 4.671875 C-5.19302074 7.36637058 -6.86132254 9.76778728 -8.625 12.25 C-9.25664062 13.14203125 -9.88828125 14.0340625 -10.5390625 14.953125 C-11.02117187 15.62859375 -11.50328125 16.3040625 -12 17 C-12.77947781 14.71251282 -13.1114843 13.38673518 -12.43359375 11.03515625 C-9.77308394 5.76630349 -6.54023906 0 0 0 Z " fill="#7964CD" transform="translate(147,141)"/>
<path d="M0 0 C0.33 0.66 0.66 1.32 1 2 C0.33333333 3.66666667 -0.33333333 5.33333333 -1 7 C-1.3496418 9.33094534 -1.68554487 11.66404762 -2 14 C-2.33 14.33 -2.66 14.66 -3 15 C-2.938125 15.94875 -2.87625 16.8975 -2.8125 17.875 C-2.874375 18.90625 -2.93625 19.9375 -3 21 C-5.01171875 22.6953125 -5.01171875 22.6953125 -7 24 C-6.83335947 16.30423725 -5.76184322 5.76184322 0 0 Z " fill="#8C80D4" transform="translate(87,107)"/>
<path d="M0 0 C0.99 0.495 0.99 0.495 2 1 C2 1.66 2 2.32 2 3 C5.3171411 4.4216319 8.44219804 5.39009109 12 6 C11.34 7.32 10.68 8.64 10 10 C10 9.34 10 8.68 10 8 C9.01 8.495 9.01 8.495 8 9 C8.33 9.99 8.66 10.98 9 12 C6.75 12 6.75 12 4 11 C1.56204629 7.52611069 0 4.26177936 0 0 Z " fill="#C9277D" transform="translate(148,332)"/>
<path d="M0 0 C-0.33 1.32 -0.66 2.64 -1 4 C0.11375 4.28875 1.2275 4.5775 2.375 4.875 C6 6 6 6 8 8 C10.57061311 8.64767793 10.57061311 8.64767793 13 9 C13 9.66 13 10.32 13 11 C4.93644351 9.79046653 -1.25577865 6.55320528 -8 2 C-8 1.67 -8 1.34 -8 1 C-5.23735711 0.40267181 -2.83967231 0 0 0 Z " fill="#DB7093" transform="translate(221,300)"/>
<path d="M0 0 C0.99 0.66 1.98 1.32 3 2 C2.34 4.31 1.68 6.62 1 9 C0.34 9 -0.32 9 -1 9 C-1.66 11.31 -2.32 13.62 -3 16 C-3.33 16 -3.66 16 -4 16 C-5.10148066 10.19219286 -5.32571178 7.17332943 -2 2 C-1.34 1.34 -0.68 0.68 0 0 Z " fill="#5B40CD" transform="translate(133,149)"/>
<path d="M0 0 C0.99 0.33 1.98 0.66 3 1 C3.144375 2.0725 3.28875 3.145 3.4375 4.25 C3.88802544 7.72568246 3.88802544 7.72568246 4.5246582 9.97265625 C5.3757621 13.60263403 5.18453513 17.28798844 5.1875 21 C5.19974609 21.80695313 5.21199219 22.61390625 5.22460938 23.4453125 C5.22654297 24.22648437 5.22847656 25.00765625 5.23046875 25.8125 C5.23457764 26.52019531 5.23868652 27.22789062 5.24291992 27.95703125 C4.9621464 30.31835067 4.16578114 31.94392823 3 34 C2.98018066 33.33991943 2.96036133 32.67983887 2.93994141 31.99975586 C2.84406648 28.97863636 2.73464247 25.95814992 2.625 22.9375 C2.5940625 21.89916016 2.563125 20.86082031 2.53125 19.79101562 C2.31646825 14.15299476 1.71531203 9.36209329 0 4 C0 2.68 0 1.36 0 0 Z " fill="#E52D44" transform="translate(327,228)"/>
<path d="M0 0 C6.09433114 2.48287565 9.95783623 8.03391309 14 13 C13.67 13.66 13.34 14.32 13 15 C11.35 14.67 9.7 14.34 8 14 C7.6596875 12.329375 7.6596875 12.329375 7.3125 10.625 C6.879375 9.42875 6.44625 8.2325 6 7 C4.35636866 6.27840576 2.68949614 5.60648579 1 5 C0.1875 2.375 0.1875 2.375 0 0 Z " fill="#D55385" transform="translate(339,149)"/>
<path d="M0 0 C0.86625 0.4640625 0.86625 0.4640625 1.75 0.9375 C3.84294184 1.92583364 5.74535275 2.5168613 8 3 C8 3.66 8 4.32 8 5 C16.58 5 25.16 5 34 5 C34 5.33 34 5.66 34 6 C24.43 6 14.86 6 5 6 C5 5.67 5 5.34 5 5 C2.69 4.67 0.38 4.34 -2 4 C-2 3.34 -2 2.68 -2 2 C-1.34 2 -0.68 2 0 2 C0 1.34 0 0.68 0 0 Z " fill="#C52F58" transform="translate(174,352)"/>
<path d="M0 0 C2.64 0.33 5.28 0.66 8 1 C8 1.66 8 2.32 8 3 C9.65 3 11.3 3 13 3 C13.33 3.99 13.66 4.98 14 6 C12.0625 6.5625 12.0625 6.5625 10 7 C9.67 6.67 9.34 6.34 9 6 C8.01 5.67 7.02 5.34 6 5 C4.65909241 4.34870203 3.32407669 3.68486725 2 3 C1.67 3.99 1.34 4.98 1 6 C0.34 5.67 -0.32 5.34 -1 5 C-0.67 3.35 -0.34 1.7 0 0 Z " fill="#DC225A" transform="translate(209,321)"/>
<path d="M0 0 C0.8971875 0.309375 0.8971875 0.309375 1.8125 0.625 C-2.0063835 3.98098853 -5.43359694 5.9523304 -10.1875 7.625 C-11.1775 7.295 -12.1675 6.965 -13.1875 6.625 C-12.5275 6.625 -11.8675 6.625 -11.1875 6.625 C-11.1875 5.965 -11.1875 5.305 -11.1875 4.625 C-11.8475 4.295 -12.5075 3.965 -13.1875 3.625 C-9.85942599 1.40628399 -8.98259218 1.625 -5.1875 1.625 C-2.1875 -0.375 -2.1875 -0.375 0 0 Z " fill="#E95165" transform="translate(282.1875,302.375)"/>
<path d="M0 0 C0.33 0 0.66 0 1 0 C1.33 8.58 1.66 17.16 2 26 C1.34 26 0.68 26 0 26 C0 25.01 0 24.02 0 23 C-0.99 23 -1.98 23 -3 23 C-2.505 18.545 -2.505 18.545 -2 14 C-1.67 14 -1.34 14 -1 14 C-0.67 9.38 -0.34 4.76 0 0 Z " fill="#D17FCB" transform="translate(171,242)"/>
<path d="M0 0 C5.22174778 -0.31330487 8.57691041 0.11984864 13 3 C14.375 5.1875 14.375 5.1875 15 7 C15.66 7 16.32 7 17 7 C16.67 7.99 16.34 8.98 16 10 C15.26394531 9.51789063 14.52789062 9.03578125 13.76953125 8.5390625 C12.79371094 7.90742188 11.81789063 7.27578125 10.8125 6.625 C9.84957031 5.99851563 8.88664062 5.37203125 7.89453125 4.7265625 C5.30196064 3.18011688 2.83146884 2.02491925 0 1 C0 0.67 0 0.34 0 0 Z " fill="#CE6098" transform="translate(335,131)"/>
<path d="M0 0 C2.64 0 5.28 0 8 0 C8 1.98 8 3.96 8 6 C7.34 6 6.68 6 6 6 C6.33 7.32 6.66 8.64 7 10 C5.68 10 4.36 10 3 10 C3.0928125 8.824375 3.0928125 8.824375 3.1875 7.625 C3.125625 6.75875 3.06375 5.8925 3 5 C2.01 4.34 1.02 3.68 0 3 C0 2.01 0 1.02 0 0 Z " fill="#DF2456" transform="translate(319,208)"/>
<path d="M0 0 C1.04449911 3.13349732 0.93423645 3.98968256 0 7 C0.66 7.33 1.32 7.66 2 8 C1.195625 8.12375 0.39125 8.2475 -0.4375 8.375 C-1.283125 8.58125 -2.12875 8.7875 -3 9 C-3.33 9.66 -3.66 10.32 -4 11 C-6.5625 11.625 -6.5625 11.625 -9 12 C-7.50948318 7.39294801 -5.21457741 4.53603516 -2 1 C-1.34 0.67 -0.68 0.34 0 0 Z " fill="#8965CA" transform="translate(156,152)"/>
<path d="M0 0 C1.36063192 0.05835448 2.72130947 0.11565493 4.08203125 0.171875 C7.38861708 0.31258078 10.69435454 0.46391982 14 0.625 C14 0.955 14 1.285 14 1.625 C12.55379272 1.66258423 12.55379272 1.66258423 11.07836914 1.70092773 C7.51312158 1.79485306 3.94807567 1.89510939 0.38305664 1.99731445 C-1.16214289 2.04071985 -2.70739214 2.08239071 -4.25268555 2.12231445 C-6.46939096 2.17988199 -8.6858448 2.24361424 -10.90234375 2.30859375 C-11.94454323 2.33366249 -11.94454323 2.33366249 -13.00779724 2.35923767 C-16.28762029 2.19002856 -16.28762029 2.19002856 -19 3.625 C-21.33297433 3.66592937 -23.66705225 3.66741723 -26 3.625 C-18.03603907 -1.68430728 -9.16441095 -0.44879584 0 0 Z " fill="#6F42BB" transform="translate(198,124.375)"/>
<path d="M0 0 C-1.52994792 1.23697917 -3.05989583 2.47395833 -4.58984375 3.7109375 C-6.13266437 4.9666391 -6.13266437 4.9666391 -7 7 C-7.66 7 -8.32 7 -9 7 C-9 7.99 -9 8.98 -9 10 C-10.32 9.34 -11.64 8.68 -13 8 C-9.99169047 2.79331042 -6.49825904 -2.16608635 0 0 Z " fill="#F5CE83" transform="translate(359,357)"/>
<path d="M0 0 C0.66 0 1.32 0 2 0 C2 0.66 2 1.32 2 2 C3.32 2.33 4.64 2.66 6 3 C4.58680023 4.12935196 3.16928595 5.25330626 1.75 6.375 C0.96109375 7.00148437 0.1721875 7.62796875 -0.640625 8.2734375 C-2.71181189 9.78910737 -4.67069497 10.94219634 -7 12 C-7 10.68 -7 9.36 -7 8 C-6.01 8 -5.02 8 -4 8 C-4 7.01 -4 6.02 -4 5 C-3.01 5 -2.02 5 -1 5 C-0.67 3.35 -0.34 1.7 0 0 Z " fill="#AF70BE" transform="translate(202,181)"/>
<path d="M0 0 C4.46839215 -0.21278058 7.82262526 0.40861915 12 2 C12 2.66 12 3.32 12 4 C14.97 4.495 14.97 4.495 18 5 C17.34 5.66 16.68 6.32 16 7 C13.4375 6.75 13.4375 6.75 11 6 C10.67 5.34 10.34 4.68 10 4 C9.13375 4.309375 9.13375 4.309375 8.25 4.625 C5.48032433 5.08661261 4.35438733 4.42944945 2 3 C1.34 3.66 0.68 4.32 0 5 C-0.33 4.34 -0.66 3.68 -1 3 C-0.67 2.01 -0.34 1.02 0 0 Z " fill="#C42A80" transform="translate(370,81)"/>
<path d="M0 0 C0.8353125 0.7734375 0.8353125 0.7734375 1.6875 1.5625 C3.94085007 3.29476698 3.94085007 3.29476698 6.75 2.6875 C7.4925 2.460625 8.235 2.23375 9 2 C10.66666667 5.33333333 12.33333333 8.66666667 14 12 C9.99304703 10.63350805 7.3232826 8.82896473 4.1875 6 C3.39730469 5.29875 2.60710937 4.5975 1.79296875 3.875 C0 2 0 2 0 0 Z " fill="#D86DA2" transform="translate(93,400)"/>
<path d="M0 0 C4.31993131 1.66625922 8.38339976 3.67149238 12.5 5.78125 C14.96138218 6.98117381 17.44603342 8.0148986 20 9 C19.01 9.66 18.02 10.32 17 11 C17 10.34 17 9.68 17 9 C15.35 9 13.7 9 12 9 C12 8.34 12 7.68 12 7 C11.07767578 6.99613281 11.07767578 6.99613281 10.13671875 6.9921875 C7.62855042 6.87217945 5.42008233 6.68225725 3 6 C0.9375 2.9375 0.9375 2.9375 0 0 Z " fill="#DD769A" transform="translate(205,315)"/>
<path d="M0 0 C0.66 0 1.32 0 2 0 C1.81824219 0.57105469 1.63648438 1.14210937 1.44921875 1.73046875 C-0.72559637 8.74564162 -2.41551663 15.83049367 -4 23 C-4.33 23 -4.66 23 -5 23 C-5.63690134 13.97015433 -4.8762059 7.71485433 0 0 Z " fill="#8C75CC" transform="translate(132,158)"/>
<path d="M0 0 C-1.3125 1.5 -1.3125 1.5 -3 3 C-3.99 3 -4.98 3 -6 3 C-8.34119555 3.63850788 -10.67451993 4.30643577 -13 5 C-14.33130115 5.34135927 -15.66358148 5.67925956 -17 6 C-17.33 5.01 -17.66 4.02 -18 3 C-16.2365625 2.566875 -16.2365625 2.566875 -14.4375 2.125 C-11.6442146 1.43658392 -8.93955098 0.66969621 -6.1875 -0.1875 C-3 -1 -3 -1 0 0 Z " fill="#E74648" transform="translate(286,324)"/>
<path d="M0 0 C2 1 2 1 3.1171875 3.3203125 C4.36658213 8.52796622 4.21038305 13.54184332 4.125 18.875 C4.11597656 19.94492188 4.10695313 21.01484375 4.09765625 22.1171875 C4.07419342 24.74502439 4.04136459 27.37239406 4 30 C3.67 30 3.34 30 3 30 C3 23.07 3 16.14 3 9 C2.01 8.67 1.02 8.34 0 8 C-1.22393475 5.04215769 -0.96516243 3.00272755 0 0 Z " fill="#D52D51" transform="translate(308,231)"/>
<path d="M0 0 C1.19882812 0.15275391 1.19882812 0.15275391 2.421875 0.30859375 C3.02515625 0.39238281 3.6284375 0.47617188 4.25 0.5625 C4.25 0.8925 4.25 1.2225 4.25 1.5625 C3.64671875 1.67207031 3.0434375 1.78164062 2.421875 1.89453125 C-3.7176378 3.04154594 -3.7176378 3.04154594 -8.75 6.5625 C-9.41 7.5525 -10.07 8.5425 -10.75 9.5625 C-11.4375 6.75 -11.4375 6.75 -11.75 3.5625 C-10.35545768 1.43398804 -9.33349494 0.75574349 -6.93359375 -0.0390625 C-4.46370526 -0.48973983 -2.48408293 -0.32877568 0 0 Z " fill="#D974A9" transform="translate(326.75,159.4375)"/>
<path d="M0 0 C1.25127906 3.54667178 0.72285053 5.72253438 -0.4375 9.25 C-0.72496094 10.14203125 -1.01242187 11.0340625 -1.30859375 11.953125 C-1.53675781 12.62859375 -1.76492188 13.3040625 -2 14 C-2.66 14 -3.32 14 -4 14 C-4.19188324 9.20291909 -3.9022844 5.43866361 -2 1 C-1.34 0.67 -0.68 0.34 0 0 Z " fill="#F6D38B" transform="translate(419,372)"/>
<path d="M0 0 C1.80997736 3.4500038 3.26017315 7.0014711 4.6875 10.625 C5.14511719 11.77226562 5.60273438 12.91953125 6.07421875 14.1015625 C7 17 7 17 6 19 C5.896875 18.360625 5.79375 17.72125 5.6875 17.0625 C5.460625 16.381875 5.23375 15.70125 5 15 C4.01 14.67 3.02 14.34 2 14 C-0.61818051 9.59043283 -0.19427197 4.95393531 0 0 Z " fill="#CD7CB9" transform="translate(173,268)"/>
<path d="M0 0 C5.86809507 0.52393706 10.54873741 1.76108858 16 4 C15.01 4.66 14.02 5.32 13 6 C13 5.34 13 4.68 13 4 C12.32453125 4.02320313 11.6490625 4.04640625 10.953125 4.0703125 C9.61507813 4.09738281 9.61507813 4.09738281 8.25 4.125 C7.36828125 4.14820313 6.4865625 4.17140625 5.578125 4.1953125 C2.8864142 3.99139502 1.30095026 3.36551721 -1 2 C-0.67 1.34 -0.34 0.68 0 0 Z " fill="#C966AB" transform="translate(261,188)"/>
<path d="M0 0 C0.66 0 1.32 0 2 0 C2.25 7.625 2.25 7.625 0 11 C-0.99 11 -1.98 11 -3 11 C-3 8.69 -3 6.38 -3 4 C-2.34 3.67 -1.68 3.34 -1 3 C-0.67 2.01 -0.34 1.02 0 0 Z " fill="#B62A9D" transform="translate(171,268)"/>
<path d="M0 0 C0.99 0.33 1.98 0.66 3 1 C1.73882275 4.88862987 0.54735833 6.89375599 -3 9 C-3.66 9 -4.32 9 -5 9 C-4.51386623 3.53099511 -4.51386623 3.53099511 -2.125 1.0625 C-1.42375 0.711875 -0.7225 0.36125 0 0 Z " fill="#5442D1" transform="translate(106,89)"/>
<path d="M0 0 C0.33 0.66 0.66 1.32 1 2 C-1.94117647 9.94117647 -1.94117647 9.94117647 -5 13 C-7.6875 13.75 -7.6875 13.75 -10 14 C-9.61328125 13.49210937 -9.2265625 12.98421875 -8.828125 12.4609375 C-5.74572807 8.38668017 -2.78428845 4.28352069 0 0 Z " fill="#F6D799" transform="translate(364,343)"/>
<path d="M0 0 C2.475 0.99 2.475 0.99 5 2 C4.67 3.65 4.34 5.3 4 7 C4.61875 7.12375 5.2375 7.2475 5.875 7.375 C8 8 8 8 10 10 C8.68 10.33 7.36 10.66 6 11 C1 5.375 1 5.375 1 2 C0.34 1.67 -0.32 1.34 -1 1 C-0.67 0.67 -0.34 0.34 0 0 Z " fill="#C22B7E" transform="translate(91,393)"/>
<path d="M0 0 C0.66 0 1.32 0 2 0 C1.62257767 6.16456476 -0.15870308 9.17375515 -4 14 C-5.06528748 11.26980214 -5.07998186 10.20701188 -4.00390625 7.421875 C-3.52824219 6.54015625 -3.05257813 5.6584375 -2.5625 4.75 C-2.08941406 3.85796875 -1.61632812 2.9659375 -1.12890625 2.046875 C-0.75636719 1.37140625 -0.38382812 0.6959375 0 0 Z " fill="#E26272" transform="translate(305,274)"/>
<path d="M0 0 C3.91939465 3.80411834 7.49102731 7.81576108 11 12 C9.35 11.67 7.7 11.34 6 11 C6 10.34 6 9.68 6 9 C5.01 9 4.02 9 3 9 C3 7.68 3 6.36 3 5 C2.34 5 1.68 5 1 5 C0.67 3.35 0.34 1.7 0 0 Z " fill="#D06BA1" transform="translate(137,347)"/>
<path d="M0 0 C2.31 0.33 4.62 0.66 7 1 C5.625 3.5 5.625 3.5 4 6 C3.34 6 2.68 6 2 6 C2 6.99 2 7.98 2 9 C1.01 8.67 0.02 8.34 -1 8 C-1 5 -1 5 1 3 C0.34 3 -0.32 3 -1 3 C-0.67 2.01 -0.34 1.02 0 0 Z " fill="#F02C3E" transform="translate(289,288)"/>
<path d="M0 0 C-0.6496875 0.72316406 -0.6496875 0.72316406 -1.3125 1.4609375 C-1.869375 2.09257812 -2.42625 2.72421875 -3 3.375 C-3.556875 4.00148437 -4.11375 4.62796875 -4.6875 5.2734375 C-6.20172487 6.90389833 -6.20172487 6.90389833 -6 9 C-6.66 9 -7.32 9 -8 9 C-8.625 6.1875 -8.625 6.1875 -9 3 C-7 0 -7 0 -4.5 -0.75 C-2 -1 -2 -1 0 0 Z " fill="#B029AD" transform="translate(222,198)"/>
<path d="M0 0 C1.25664978 2.90600261 2 4.79604584 2 8 C-0.91517292 6.92598892 -2.77810176 6.22189824 -5 4 C-5 3.01 -5 2.02 -5 1 C-2 0 -2 0 0 0 Z " fill="#CF4A87" transform="translate(162,345)"/>
<path d="M0 0 C1.32 0.66 2.64 1.32 4 2 C0.7 4.97 -2.6 7.94 -6 11 C-6.66 10.67 -7.32 10.34 -8 10 C-7.67 9.01 -7.34 8.02 -7 7 C-6.38125 6.896875 -5.7625 6.79375 -5.125 6.6875 C-2.62535475 6.14223648 -2.62535475 6.14223648 -1.25 2.9375 C-0.8375 1.968125 -0.425 0.99875 0 0 Z " fill="#F7DD9F" transform="translate(403,400)"/>
<path d="M0 0 C0.66 0.33 1.32 0.66 2 1 C-3.82643885 6.97976619 -3.82643885 6.97976619 -8.625 7.0625 C-9.73875 7.041875 -10.8525 7.02125 -12 7 C-9.5129261 5.34195074 -7.02682498 3.80125522 -4.4375 2.3125 C-3.65246094 1.85488281 -2.86742187 1.39726562 -2.05859375 0.92578125 C-1.37925781 0.62027344 -0.69992187 0.31476563 0 0 Z " fill="#F8D399" transform="translate(346,362)"/>
<path d="M0 0 C0.66 0.33 1.32 0.66 2 1 C1.67 2.65 1.34 4.3 1 6 C-1.31 6.33 -3.62 6.66 -6 7 C-5.67 5.35 -5.34 3.7 -5 2 C-3.33333333 2 -1.66666667 2 0 2 C0 1.34 0 0.68 0 0 Z " fill="#F15248" transform="translate(317,297)"/>
<path d="M0 0 C0.99 0 1.98 0 3 0 C3.66 1.65 4.32 3.3 5 5 C3.68 6.32 2.36 7.64 1 9 C0.34 8.67 -0.32 8.34 -1 8 C-0.7215625 7.1028125 -0.7215625 7.1028125 -0.4375 6.1875 C0.22093687 3.83591238 0.22093687 3.83591238 -1 1 C-0.67 0.67 -0.34 0.34 0 0 Z " fill="#CF2773" transform="translate(145,359)"/>
<path d="M0 0 C2 2 2 2 2 5 C2.66 5 3.32 5 4 5 C4 6.32 4 7.64 4 9 C4.99 9.33 5.98 9.66 7 10 C4 11 4 11 3 11 C3 11.66 3 12.32 3 13 C2.01 12.67 1.02 12.34 0 12 C0.33 9.03 0.66 6.06 1 3 C0.34 2.67 -0.32 2.34 -1 2 C-0.67 1.34 -0.34 0.68 0 0 Z " fill="#C9267D" transform="translate(136,347)"/>
<path d="M0 0 C0.99 0.33 1.98 0.66 3 1 C2.67 2.65 2.34 4.3 2 6 C1.34 6 0.68 6 0 6 C-0.66 8.31 -1.32 10.62 -2 13 C-3.32 12.67 -4.64 12.34 -6 12 C-5.65066406 11.55269531 -5.30132812 11.10539063 -4.94140625 10.64453125 C-2.31101372 7.14976044 -0.40792858 4.48721443 0 0 Z " fill="#D54F7E" transform="translate(341,170)"/>
<path d="M0 0 C0.66 0.33 1.32 0.66 2 1 C1.01 2.98 0.02 4.96 -1 7 C-1.66 7 -2.32 7 -3 7 C-3.33 7.99 -3.66 8.98 -4 10 C-5.32 9.67 -6.64 9.34 -8 9 C-5.68462045 5.27885429 -3.71420527 2.38770339 0 0 Z " fill="#7669CC" transform="translate(102,90)"/>
<path d="M0 0 C0.66 0.33 1.32 0.66 2 1 C2 2.98 2 4.96 2 7 C-0.66666667 7 -3.33333333 7 -6 7 C-4.02 4.69 -2.04 2.38 0 0 Z " fill="#F75043" transform="translate(310,304)"/>
<path d="M0 0 C0.33 0 0.66 0 1 0 C1.25401601 4.1238677 1.47400105 8.24885192 1.6875 12.375 C1.76033203 13.550625 1.83316406 14.72625 1.90820312 15.9375 C1.96298828 17.05898438 2.01777344 18.18046875 2.07421875 19.3359375 C2.13182373 20.37282715 2.18942871 21.4097168 2.2487793 22.47802734 C2.16668213 23.31027832 2.08458496 24.1425293 2 25 C1.01 25.66 0.02 26.32 -1 27 C-0.67 18.09 -0.34 9.18 0 0 Z " fill="#CC4551" transform="translate(329,239)"/>
<path d="M0 0 C1.8125 1.5625 1.8125 1.5625 3 3 C2 4 2 4 -0.75 4.3125 C-4.67683725 3.93491949 -6.17346736 2.66026601 -9 0 C-5.67255773 -1.10914742 -3.35438475 -1.03211839 0 0 Z " fill="#BC2A93" transform="translate(276,170)"/>
<path d="M0 0 C2.125 0.9375 2.125 0.9375 4 2 C3.34 2.66 2.68 3.32 2 4 C3.32 4.33 4.64 4.66 6 5 C6 5.99 6 6.98 6 8 C3.125 7.3125 3.125 7.3125 0 6 C-1.375 3.375 -1.375 3.375 -2 1 C-1.34 0.67 -0.68 0.34 0 0 Z " fill="#D6548B" transform="translate(108,408)"/>
<path d="M0 0 C2.0625 0.4375 2.0625 0.4375 4 1 C4 1.66 4 2.32 4 3 C-1.22512279 4.46670113 -5.5814234 5.22577402 -11 5 C-10.34 4.67 -9.68 4.34 -9 4 C-9 3.34 -9 2.68 -9 2 C-8.34 2 -7.68 2 -7 2 C-7 2.66 -7 3.32 -7 4 C-3.25332798 2.3672149 -3.25332798 2.3672149 0 0 Z " fill="#E42546" transform="translate(267,306)"/>
<path d="M0 0 C6.27 0 12.54 0 19 0 C19 0.99 19 1.98 19 3 C12.73 2.34 6.46 1.68 0 1 C0 0.67 0 0.34 0 0 Z " fill="#D386C6" transform="translate(253,171)"/>
<path d="M0 0 C5.28137429 0.51525603 8.57221156 2.25477117 13 5 C10.21176345 6.0326802 9.1322726 6.04509293 6.25 5.0625 C5.5075 4.711875 4.765 4.36125 4 4 C4 3.34 4 2.68 4 2 C2.35 2 0.7 2 -1 2 C-0.67 1.34 -0.34 0.68 0 0 Z " fill="#CF6FA2" transform="translate(326,143)"/>
<path d="M0 0 C1.65 0.33 3.3 0.66 5 1 C5 1.66 5 2.32 5 3 C6.32 3.66 7.64 4.32 9 5 C8.01 5.33 7.02 5.66 6 6 C6 5.34 6 4.68 6 4 C3.69 4.33 1.38 4.66 -1 5 C-0.67 3.35 -0.34 1.7 0 0 Z " fill="#CB2A6D" transform="translate(394,91)"/>
<path d="M0 0 C1.98 0.66 3.96 1.32 6 2 C6 2.66 6 3.32 6 4 C6.66 4 7.32 4 8 4 C8.33 5.32 8.66 6.64 9 8 C6 8 6 8 4.39453125 6.7578125 C3.87246094 6.21898437 3.35039062 5.68015625 2.8125 5.125 C2.28269531 4.59132813 1.75289062 4.05765625 1.20703125 3.5078125 C0 2 0 2 0 0 Z " fill="#D3679A" transform="translate(199,287)"/>
<path d="M0 0 C0.99 0.99 1.98 1.98 3 3 C1.25 6.875 1.25 6.875 -1 8 C-1.65555119 10.52733235 -1.65555119 10.52733235 -2 13 C-2.66 13 -3.32 13 -4 13 C-3.71517632 11.58194169 -3.42181856 10.16559621 -3.125 8.75 C-2.96257812 7.96109375 -2.80015625 7.1721875 -2.6328125 6.359375 C-2.00849925 4.03168856 -1.15161458 2.10968048 0 0 Z " fill="#C472C0" transform="translate(193,221)"/>
<path d="M0 0 C0.99 0.33 1.98 0.66 3 1 C3.625 3.3125 3.625 3.3125 4 6 C3.01 7.485 3.01 7.485 2 9 C1.61500109 10.65549531 1.27206865 12.3222433 1 14 C0.67 14 0.34 14 0 14 C0 9.38 0 4.76 0 0 Z " fill="#DB3472" transform="translate(340,161)"/>
<path d="M0 0 C2 0 4 0 6 0 C5.67 0.99 5.34 1.98 5 3 C3.68 3 2.36 3 1 3 C1 3.99 1 4.98 1 6 C-0.32 6 -1.64 6 -3 6 C-3 5.01 -3 4.02 -3 3 C-2.34 3 -1.68 3 -1 3 C-0.67 2.01 -0.34 1.02 0 0 Z " fill="#F8C159" transform="translate(395,404)"/>
<path d="M0 0 C0.66 0 1.32 0 2 0 C2.4375 2.5625 2.4375 2.5625 2 6 C-0.08682726 8.6203019 -2.46686248 10.8158151 -5 13 C-5 10 -5 10 -3.625 8.1875 C-1.69671113 5.59172653 -0.91096615 3.08327005 0 0 Z " fill="#F8BC58" transform="translate(365,343)"/>
<path d="M0 0 C2.6075248 1.01007276 3.80441446 1.68518363 5.30078125 4.09375 C5.63464844 4.8878125 5.96851563 5.681875 6.3125 6.5 C6.65925781 7.2940625 7.00601563 8.088125 7.36328125 8.90625 C8 11 8 11 7 13 C6.01364163 11.58833114 5.03618745 10.17043816 4.0625 8.75 C3.51722656 7.96109375 2.97195312 7.1721875 2.41015625 6.359375 C1.10377559 4.17363007 0.45019489 2.4846199 0 0 Z " fill="#CF74AB" transform="translate(144,330)"/>
<path d="M0 0 C5.07283639 -0.20705455 9.20867943 0.27512459 14 2 C14.33 2.66 14.66 3.32 15 4 C12.69 4 10.38 4 8 4 C8 3.34 8 2.68 8 2 C5.36 1.67 2.72 1.34 0 1 C0 0.67 0 0.34 0 0 Z " fill="#D4295A" transform="translate(226,307)"/>
<path d="M0 0 C1.38891641 3.85810114 0.98376812 7.06492751 0 11 C-2.5625 13.4375 -2.5625 13.4375 -5 15 C-1.92482916 4.44191344 -1.92482916 4.44191344 0 0 Z " fill="#EB9795" transform="translate(325,272)"/>
<path d="M0 0 C0.66 0 1.32 0 2 0 C2 1.32 2 2.64 2 4 C2.66 4.66 3.32 5.32 4 6 C3.625 8.625 3.625 8.625 3 11 C0.47411298 8.63707344 -0.88820837 7.33537489 -2 4 C-1.34 4 -0.68 4 0 4 C0 2.68 0 1.36 0 0 Z " fill="#DA4F80" transform="translate(361,144)"/>
<path d="M0 0 C0.99 0.33 1.98 0.66 3 1 C2.75 3.875 2.75 3.875 2 7 C-0.0625 8.375 -0.0625 8.375 -2 9 C-2.33 7.68 -2.66 6.36 -3 5 C-1.68 4.01 -0.36 3.02 1 2 C0.67 1.34 0.34 0.68 0 0 Z " fill="#F7C66B" transform="translate(407,392)"/>
<path d="M0 0 C5.28 1.32 10.56 2.64 16 4 C16 4.33 16 4.66 16 5 C4.89635502 5.38808856 4.89635502 5.38808856 1 3 C0.67 2.01 0.34 1.02 0 0 Z " fill="#DF7FA3" transform="translate(161,367)"/>
<path d="M0 0 C1.65 0 3.3 0 5 0 C4.34 2.31 3.68 4.62 3 7 C1.68 6.34 0.36 5.68 -1 5 C-0.67 3.35 -0.34 1.7 0 0 Z " fill="#EE2C42" transform="translate(281,296)"/>
<path d="M0 0 C0.66 0.66 1.32 1.32 2 2 C1.360625 2.268125 0.72125 2.53625 0.0625 2.8125 C-2.33131686 3.88667752 -2.33131686 3.88667752 -3 7 C-4.84765625 8.16796875 -4.84765625 8.16796875 -7.0625 9.1875 C-7.79597656 9.53167969 -8.52945313 9.87585938 -9.28515625 10.23046875 C-9.85105469 10.48441406 -10.41695312 10.73835937 -11 11 C-10.67 10.01 -10.34 9.02 -10 8 C-9.01 7.67 -8.02 7.34 -7 7 C-6.67 6.34 -6.34 5.68 -6 5 C-5.34 5 -4.68 5 -4 5 C-4 4.01 -4 3.02 -4 2 C-2.68 1.34 -1.36 0.68 0 0 Z " fill="#A72DA5" transform="translate(210,204)"/>
<path d="M0 0 C1.98 0.99 1.98 0.99 4 2 C4 3.32 4 4.64 4 6 C5.32 6.66 6.64 7.32 8 8 C7.67 9.65 7.34 11.3 7 13 C5.43802705 10.65704057 3.89153541 8.30985802 2.375 5.9375 C1.92898438 5.24527344 1.48296875 4.55304688 1.0234375 3.83984375 C0 2 0 2 0 0 Z " fill="#DD7C9C" transform="translate(315,205)"/>
<path d="M0 0 C-0.33 0.66 -0.66 1.32 -1 2 C-3.75078884 2.91692961 -5.35948913 3.10886083 -8.1875 3.0625 C-10.0746875 3.0315625 -10.0746875 3.0315625 -12 3 C-12.33 2.34 -12.66 1.68 -13 1 C-11.20994059 0.63779734 -9.41787943 0.28547531 -7.625 -0.0625 C-6.12839844 -0.35833984 -6.12839844 -0.35833984 -4.6015625 -0.66015625 C-2 -1 -2 -1 0 0 Z " fill="#D16189" transform="translate(335,184)"/>
<path d="M0 0 C5.35048061 0.37328935 7.50912907 1.9957657 11 6 C7.61121488 6 6.60242783 5.35638802 3.8125 3.5625 C2.73935547 2.88380859 2.73935547 2.88380859 1.64453125 2.19140625 C1.10183594 1.79824219 0.55914062 1.40507812 0 1 C0 0.67 0 0.34 0 0 Z " fill="#D077A9" transform="translate(287,180)"/>
<path d="M0 0 C1.06775224 1.96466413 2.06553465 3.96855359 3 6 C2.67 6.66 2.34 7.32 2 8 C1.34 8 0.68 8 0 8 C-0.061875 7.38125 -0.12375 6.7625 -0.1875 6.125 C-0.828919 3.72238859 -0.828919 3.72238859 -3.5625 2.75 C-4.366875 2.5025 -5.17125 2.255 -6 2 C-3 0 -3 0 0 0 Z " fill="#D7246E" transform="translate(356,136)"/>
<path d="M0 0 C5.27749285 0.53851968 9.25645564 1.77343836 14 4 C14 4.33 14 4.66 14 5 C11.36 4.67 8.72 4.34 6 4 C6 3.34 6 2.68 6 2 C4.35 2 2.7 2 1 2 C0.67 1.34 0.34 0.68 0 0 Z " fill="#D787B3" transform="translate(376,81)"/>
<path d="M0 0 C0 1.98 0 3.96 0 6 C-3.37503669 4.8141763 -5.64722731 3.72426311 -8 1 C-5.23735711 0.40267181 -2.83967231 0 0 0 Z " fill="#D75D8D" transform="translate(221,300)"/>
<path d="M0 0 C4.2742558 1.5830577 6.26531794 4.50568404 9 8 C8.01 8.495 8.01 8.495 7 9 C7 8.34 7 7.68 7 7 C5.35 7 3.7 7 2 7 C1.34 4.69 0.68 2.38 0 0 Z " fill="#D8709E" transform="translate(287,199)"/>
<path d="M0 0 C0.66 0 1.32 0 2 0 C2.66 3.63 3.32 7.26 4 11 C3.01 10.67 2.02 10.34 1 10 C-0.60725635 6.78548731 -0.05748185 3.56387464 0 0 Z " fill="#C876B6" transform="translate(127,323)"/>
<path d="M0 0 C2.49505962 2.49505962 2.35948376 3.67328888 2.625 7.125 C2.69976562 8.03507812 2.77453125 8.94515625 2.8515625 9.8828125 C2.92503906 10.93082031 2.92503906 10.93082031 3 12 C2.67 11.34 2.34 10.68 2 10 C1.34 10 0.68 10 0 10 C0 6.7 0 3.4 0 0 Z " fill="#B44196" transform="translate(189,259)"/>
<path d="M0 0 C0.33 0.66 0.66 1.32 1 2 C0.67 2.99 0.34 3.98 0 5 C-0.66 5 -1.32 5 -2 5 C-2.33 5.99 -2.66 6.98 -3 8 C-5.0625 8.6875 -5.0625 8.6875 -7 9 C-5.44499019 5.18315774 -2.96404505 2.80804268 0 0 Z " fill="#C176C0" transform="translate(206,204)"/>
<path d="M0 0 C2.94956528 1.36944102 5.52468811 2.87830409 8 5 C8 5.66 8 6.32 8 7 C5.69 6.34 3.38 5.68 1 5 C0.67 3.35 0.34 1.7 0 0 Z " fill="#D56598" transform="translate(339,149)"/>
<path d="M0 0 C1.32 0.33 2.64 0.66 4 1 C4.33 2.65 4.66 4.3 5 6 C3.35 6.33 1.7 6.66 0 7 C0.185625 6.21625 0.37125 5.4325 0.5625 4.625 C1.25962266 2.02910225 1.25962266 2.02910225 0 0 Z " fill="#F89E52" transform="translate(344,336)"/>
<path d="M0 0 C0.66 0.33 1.32 0.66 2 1 C2 1.99 2 2.98 2 4 C-1.63 4.33 -5.26 4.66 -9 5 C-6.06626269 3.04417512 -3.21783702 1.43775696 0 0 Z " fill="#ED9493" transform="translate(286,319)"/>
<path d="M0 0 C1.65 0.99 3.3 1.98 5 3 C4.67 3.99 4.34 4.98 4 6 C1.97954558 5.39816251 -0.02111039 4.72693904 -2 4 C-2.33 3.34 -2.66 2.68 -3 2 C-2.01 2 -1.02 2 0 2 C0 1.34 0 0.68 0 0 Z " fill="#CA2581" transform="translate(291,176)"/>
<path d="M0 0 C0.99 0 1.98 0 3 0 C4.4783226 2.95664519 4.06032783 5.74229737 4 9 C1.18167487 7.59083743 0.97406539 5.92219617 0 3 C0 2.01 0 1.02 0 0 Z " fill="#D45479" transform="translate(353,168)"/>
<path d="M0 0 C0.86625 0.3403125 0.86625 0.3403125 1.75 0.6875 C1.75 1.6775 1.75 2.6675 1.75 3.6875 C-0.5625 4.3125 -0.5625 4.3125 -3.25 4.6875 C-4.24 4.0275 -5.23 3.3675 -6.25 2.6875 C-2.80384615 -0.38942308 -2.80384615 -0.38942308 0 0 Z " fill="#D82662" transform="translate(351.25,163.3125)"/>
<path d="M0 0 C2.31 0.33 4.62 0.66 7 1 C8.125 3.3125 8.125 3.3125 9 6 C8.01 7.485 8.01 7.485 7 9 C6.5875 8.071875 6.175 7.14375 5.75 6.1875 C4.06558214 3.11945319 2.91545917 1.80959535 0 0 Z " fill="#D76E9B" transform="translate(332,161)"/>
<path d="M0 0 C0.7425 0.598125 1.485 1.19625 2.25 1.8125 C4.47417764 3.58173222 6.71662235 5.30860915 9 7 C6.69 6.67 4.38 6.34 2 6 C2 5.01 2 4.02 2 3 C0.35 3 -1.3 3 -3 3 C-2.01 2.01 -1.02 1.02 0 0 Z " fill="#C72D68" transform="translate(112,410)"/>
<path d="M0 0 C-1.375 2 -1.375 2 -3 4 C-4.66666667 4 -6.33333333 4 -8 4 C-5.97675095 -0.48005146 -4.79569304 -1.43870791 0 0 Z " fill="#F6B15D" transform="translate(338,370)"/>
<path d="M0 0 C0.86625 0.4640625 0.86625 0.4640625 1.75 0.9375 C3.84294184 1.92583364 5.74535275 2.5168613 8 3 C8 3.66 8 4.32 8 5 C4.7 4.67 1.4 4.34 -2 4 C-2 3.34 -2 2.68 -2 2 C-1.34 2 -0.68 2 0 2 C0 1.34 0 0.68 0 0 Z " fill="#D52663" transform="translate(174,352)"/>
<path d="M0 0 C0.66 0.33 1.32 0.66 2 1 C0.99796679 4.00609963 0.39971554 5.06176821 -2 7 C-2.99 7 -3.98 7 -5 7 C-4.60196439 4.11424181 -4.20990931 3.17810487 -1.9375 1.25 C-1.298125 0.8375 -0.65875 0.425 0 0 Z " fill="#F69D52" transform="translate(341,344)"/>
<path d="M0 0 C0.66 0.66 1.32 1.32 2 2 C1.34 3.98 0.68 5.96 0 8 C-0.99 8 -1.98 8 -3 8 C-3.33 6.68 -3.66 5.36 -4 4 C-3.34 4 -2.68 4 -2 4 C-2 3.34 -2 2.68 -2 2 C-1.34 2 -0.68 2 0 2 C0 1.34 0 0.68 0 0 Z " fill="#EE2E3F" transform="translate(300,280)"/>
<path d="M0 0 C2.40034102 3.60051153 4.32187705 6.96144535 3.625 11.375 C3.41875 11.91125 3.2125 12.4475 3 13 C2.34 11.02 1.68 9.04 1 7 C0.34 7 -0.32 7 -1 7 C-0.67 4.69 -0.34 2.38 0 0 Z " fill="#E37D9A" transform="translate(308,225)"/>
<path d="M0 0 C2.0625 0.4375 2.0625 0.4375 4 1 C3.01 1 2.02 1 1 1 C1 1.99 1 2.98 1 4 C0.01 4 -0.98 4 -2 4 C-2 5.32 -2 6.64 -2 8 C-2.66 8 -3.32 8 -4 8 C-4.625 6.125 -4.625 6.125 -5 4 C-3 2 -3 2 -1 1 C-0.67 0.67 -0.34 0.34 0 0 Z " fill="#9831B0" transform="translate(197,185)"/>
<path d="M0 0 C0.99 0 1.98 0 3 0 C2.74438677 2.3431213 2.40729228 4.67843403 2 7 C1.01 7.495 1.01 7.495 0 8 C-0.38063221 5.6739143 -0.71269945 3.33944736 -1 1 C-0.67 0.67 -0.34 0.34 0 0 Z " fill="#6C3DC5" transform="translate(148,163)"/>
<path d="M0 0 C0.66 0 1.32 0 2 0 C2 0.66 2 1.32 2 2 C3.65 2.33 5.3 2.66 7 3 C7 3.66 7 4.32 7 5 C5.02 5 3.04 5 1 5 C0.67 3.35 0.34 1.7 0 0 Z " fill="#CF2579" transform="translate(328,145)"/>
<path d="M0 0 C0.33 0 0.66 0 1 0 C1 1.65 1 3.3 1 5 C1.99 5 2.98 5 4 5 C4.33 7.31 4.66 9.62 5 12 C3.5 10.625 3.5 10.625 2 9 C2 8.34 2 7.68 2 7 C1.34 7 0.68 7 0 7 C0 4.69 0 2.38 0 0 Z " fill="#D32B56" transform="translate(412,109)"/>
<path d="M0 0 C-0.99 1.32 -1.98 2.64 -3 4 C-5.475 3.01 -5.475 3.01 -8 2 C-7 0 -7 0 -5.125 -0.6875 C-3 -1 -3 -1 0 0 Z " fill="#5644C7" transform="translate(121,84)"/>
<path d="M0 0 C2.475 0.495 2.475 0.495 5 1 C5 1.66 5 2.32 5 3 C5.99 3 6.98 3 8 3 C7.67 3.99 7.34 4.98 7 6 C6.34 6 5.68 6 5 6 C4.01 6.495 4.01 6.495 3 7 C2.814375 5.824375 2.814375 5.824375 2.625 4.625 C2.20882007 1.85942178 2.20882007 1.85942178 0 0 Z " fill="#D12964" transform="translate(157,367)"/>
<path d="M0 0 C0.99 0.33 1.98 0.66 3 1 C2.67 1.66 2.34 2.32 2 3 C1.34 3 0.68 3 0 3 C0 3.99 0 4.98 0 6 C-1.32 5.34 -2.64 4.68 -4 4 C-2.68 2.68 -1.36 1.36 0 0 Z " fill="#F7BC59" transform="translate(350,361)"/>
<path d="M0 0 C3.36720387 1.39332574 4.9859524 2.9789286 7 6 C6.01 6.33 5.02 6.66 4 7 C1.49962266 4.82575883 0.56371414 3.26954202 0 0 Z " fill="#D878A5" transform="translate(194,306)"/>
<path d="M0 0 C1.2065625 0.0309375 1.2065625 0.0309375 2.4375 0.0625 C2.7675 1.0525 3.0975 2.0425 3.4375 3.0625 C1.4575 4.0525 1.4575 4.0525 -0.5625 5.0625 C-1.5525 3.7425 -2.5425 2.4225 -3.5625 1.0625 C-2.5625 0.0625 -2.5625 0.0625 0 0 Z " fill="#BF2A86" transform="translate(180.5625,291.9375)"/>
<path d="M0 0 C0.66 0 1.32 0 2 0 C2.66 1.98 3.32 3.96 4 6 C2.68 7.32 1.36 8.64 0 10 C0.185625 9.0925 0.37125 8.185 0.5625 7.25 C0.95734621 4.31685676 0.94691572 2.7355343 0 0 Z " fill="#BA2A8A" transform="translate(176,283)"/>
<path d="M0 0 C0.33 0 0.66 0 1 0 C1.144375 1.11375 1.28875 2.2275 1.4375 3.375 C1.78372035 6.82142047 1.78372035 6.82142047 3 9 C2.34 9.66 1.68 10.32 1 11 C-2.125 4.375 -2.125 4.375 -1 1 C-0.67 0.67 -0.34 0.34 0 0 Z " fill="#D276B4" transform="translate(192,268)"/>
<path d="M0 0 C0.99 0 1.98 0 3 0 C2.67 0.99 2.34 1.98 2 3 C1.34 3 0.68 3 0 3 C-0.28875 3.639375 -0.5775 4.27875 -0.875 4.9375 C-2 7 -2 7 -4 8 C-4 7.01 -4 6.02 -4 5 C-3.34 5 -2.68 5 -2 5 C-1.7834375 4.0409375 -1.7834375 4.0409375 -1.5625 3.0625 C-1 1 -1 1 0 0 Z " fill="#8373C9" transform="translate(144,141)"/>
<path d="M0 0 C0.33 0 0.66 0 1 0 C1 2.64 1 5.28 1 8 C-0.32 8.33 -1.64 8.66 -3 9 C-2.01 6.03 -1.02 3.06 0 0 Z " fill="#F8D49B" transform="translate(368,334)"/>
<path d="M0 0 C0.99 0 1.98 0 3 0 C2.67 2.97 2.34 5.94 2 9 C0.11656068 5.23312136 -0.22057835 3.97041037 0 0 Z " fill="#C869AC" transform="translate(142,321)"/>
<path d="M0 0 C0.99 0 1.98 0 3 0 C3.33 1.98 3.66 3.96 4 6 C2.68 5.67 1.36 5.34 0 5 C0 3.35 0 1.7 0 0 Z " fill="#9A2FB3" transform="translate(177,205)"/>
<path d="M0 0 C2 1 2 1 4 4 C2.35 4.33 0.7 4.66 -1 5 C-1 4.34 -1 3.68 -1 3 C-1.66 2.67 -2.32 2.34 -3 2 C-2.01 1.34 -1.02 0.68 0 0 Z " fill="#9934B2" transform="translate(205,178)"/>
<path d="M0 0 C0.33 0 0.66 0 1 0 C1.33 1.98 1.66 3.96 2 6 C0.68 6.99 -0.64 7.98 -2 9 C-2.25 3.375 -2.25 3.375 0 0 Z " fill="#6F63CA" transform="translate(82,122)"/>
<path d="M0 0 C0.99 0 1.98 0 3 0 C2.67 1.65 2.34 3.3 2 5 C2.66 5 3.32 5 4 5 C4 6.65 4 8.3 4 10 C1.16625119 6.79663178 0.4794463 4.21912747 0 0 Z " fill="#D17FBD" transform="translate(82,380)"/>
<path d="M0 0 C-1.65 1.32 -3.3 2.64 -5 4 C-5.66 3.67 -6.32 3.34 -7 3 C-6.67 2.01 -6.34 1.02 -6 0 C-3.50907189 -1.24546405 -2.58919267 -0.7767578 0 0 Z " fill="#E86575" transform="translate(284,303)"/>
<path d="M0 0 C-2.64738916 1.4606285 -3.89448334 2 -7 2 C-7 2.66 -7 3.32 -7 4 C-7.99 4.33 -8.98 4.66 -10 5 C-10.66 4.34 -11.32 3.68 -12 3 C-10.3789897 2.30314502 -8.75303934 1.61777139 -7.125 0.9375 C-6.22007812 0.55464844 -5.31515625 0.17179688 -4.3828125 -0.22265625 C-2 -1 -2 -1 0 0 Z " fill="#D192CE" transform="translate(233,190)"/>
<path d="M0 0 C1.33597652 0.80814651 2.668725 1.62163181 4 2.4375 C5.11375 3.11619141 5.11375 3.11619141 6.25 3.80859375 C6.8275 4.20175781 7.405 4.59492188 8 5 C8 5.33 8 5.66 8 6 C5.125 6.125 5.125 6.125 2 6 C1.34 5.34 0.68 4.68 0 4 C0 2.68 0 1.36 0 0 Z " fill="#DB7EA5" transform="translate(317,179)"/>
<path d="M0 0 C0.66 0.66 1.32 1.32 2 2 C1.625 4.625 1.625 4.625 1 7 C0.01 7 -0.98 7 -2 7 C-1.125 2.25 -1.125 2.25 0 0 Z " fill="#8F6ACB" transform="translate(146,164)"/>
<path d="M0 0 C3.93673644 1.31224548 6.22719294 2.91910327 9 6 C7.35 5.67 5.7 5.34 4 5 C4 4.34 4 3.68 4 3 C2.35 2.67 0.7 2.34 -1 2 C-0.67 1.34 -0.34 0.68 0 0 Z " fill="#D27CA5" transform="translate(390,86)"/>
<path d="M0 0 C1.98 0.495 1.98 0.495 4 1 C3.01 1.495 3.01 1.495 2 2 C2.33 2.99 2.66 3.98 3 5 C2.34 5 1.68 5 1 5 C1 5.66 1 6.32 1 7 C0.34 7 -0.32 7 -1 7 C-0.67 4.69 -0.34 2.38 0 0 Z " fill="#5442D2" transform="translate(111,87)"/>
<path d="M0 0 C0.66 0.66 1.32 1.32 2 2 C-0.12780579 4.34058637 -2.11562221 5.70700306 -5 7 C-3.75023244 3.34683329 -3.32901247 2.21934164 0 0 Z " fill="#E85048" transform="translate(325,282)"/>
<path d="M0 0 C0.66 0 1.32 0 2 0 C1.67 2.97 1.34 5.94 1 9 C0.34 8.34 -0.32 7.68 -1 7 C-0.625 3.375 -0.625 3.375 0 0 Z " fill="#B66CBF" transform="translate(173,223)"/>
<path d="M0 0 C1.0326802 2.78823655 1.04509293 3.8677274 0.0625 6.75 C-0.288125 7.4925 -0.63875 8.235 -1 9 C-1.99 8.67 -2.98 8.34 -4 8 C-2.87548273 5.0280615 -1.77706209 2.66559313 0 0 Z " fill="#C277BD" transform="translate(198,213)"/>
<path d="M0 0 C2 1 2 1 3 3 C0.03 3.66 -2.94 4.32 -6 5 C-3 2 -3 2 0 0 Z " fill="#C372BE" transform="translate(219,194)"/>
<path d="M0 0 C1.65 0 3.3 0 5 0 C4.67 1.32 4.34 2.64 4 4 C2.68 4.33 1.36 4.66 0 5 C0 3.35 0 1.7 0 0 Z " fill="#CA2486" transform="translate(272,195)"/>
<path d="M0 0 C0.66 0 1.32 0 2 0 C2 0.66 2 1.32 2 2 C3.32 2.33 4.64 2.66 6 3 C3.625 4.0625 3.625 4.0625 1 5 C0.34 4.67 -0.32 4.34 -1 4 C-0.67 2.68 -0.34 1.36 0 0 Z " fill="#A552BA" transform="translate(202,181)"/>
<path d="M0 0 C3.3125 -0.25 3.3125 -0.25 7 0 C7.99 1.32 8.98 2.64 10 4 C6.7 3.01 3.4 2.02 0 1 C0 0.67 0 0.34 0 0 Z " fill="#D38BBE" transform="translate(272,174)"/>
<path d="M0 0 C2.64 0.33 5.28 0.66 8 1 C8 1.33 8 1.66 8 2 C4.7 2.66 1.4 3.32 -2 4 C-1.34 2.68 -0.68 1.36 0 0 Z " fill="#9780D0" transform="translate(168,127)"/>
<path d="M0 0 C0.99 0.33 1.98 0.66 3 1 C2.67 2.98 2.34 4.96 2 7 C1.34 7 0.68 7 0 7 C0 4.69 0 2.38 0 0 Z " fill="#993AA3" transform="translate(170,229)"/>
<path d="M0 0 C0.99 0.99 1.98 1.98 3 3 C1.25 6.875 1.25 6.875 -1 8 C-0.67 5.36 -0.34 2.72 0 0 Z " fill="#D85684" transform="translate(301,213)"/>
<path d="M0 0 C0.66 0.66 1.32 1.32 2 2 C1.625 5.125 1.625 5.125 1 8 C-1 6 -1 6 -1.1875 3.4375 C-1 1 -1 1 0 0 Z " fill="#A44EB5" transform="translate(177,211)"/>
</svg>
