<svg version="1.2" xmlns="http://www.w3.org/2000/svg" viewBox="0 0 63 71" width="63" height="71">
	<title>facebook-svg</title>
	<defs>
		<clipPath clipPathUnits="userSpaceOnUse" id="cp1">
			<path d="m0 1.29h61.51v68.92h-61.51z"/>
		</clipPath>
		<clipPath clipPathUnits="userSpaceOnUse" id="cp2">
			<path d="m0.52 9.49h60.77v60.72h-60.77z"/>
		</clipPath>
	</defs>
	<style>
		.s0 { fill: #1a4789 } 
		.s1 { fill: #ffffff } 
	</style>
	<g id="Clip-Path" clip-path="url(#cp1)">
		<g id="Layer">
		</g>
	</g>
	<g id="Clip-Path" clip-path="url(#cp2)">
		<g id="Layer">
			<path id="Layer" class="s0" d="m61.3 39.9q0 1.5-0.2 3-0.1 1.4-0.4 2.9-0.3 1.5-0.7 2.9-0.4 1.4-1 2.8-0.6 1.4-1.3 2.7-0.7 1.3-1.5 2.6-0.9 1.2-1.8 2.4-0.9 1.1-2 2.2-1.1 1-2.2 2-1.2 0.9-2.4 1.7-1.2 0.9-2.6 1.6-1.3 0.7-2.7 1.2-1.3 0.6-2.8 1.1-1.4 0.4-2.9 0.7-1.4 0.3-2.9 0.4-1.5 0.2-3 0.2-1.5 0-3-0.2-1.5-0.1-2.9-0.4-1.5-0.3-2.9-0.7-1.4-0.5-2.8-1.1-1.4-0.5-2.7-1.2-1.3-0.7-2.6-1.6-1.2-0.8-2.4-1.7-1.1-1-2.2-2-1-1.1-2-2.2-0.9-1.2-1.8-2.4-0.8-1.3-1.5-2.6-0.7-1.3-1.3-2.7-0.5-1.4-1-2.8-0.4-1.4-0.7-2.9-0.3-1.5-0.4-2.9-0.2-1.5-0.2-3 0-1.5 0.2-3 0.1-1.5 0.4-3 0.3-1.4 0.7-2.8 0.5-1.5 1-2.8 0.6-1.4 1.3-2.7 0.7-1.4 1.5-2.6 0.9-1.2 1.8-2.4 1-1.2 2-2.2 1.1-1.1 2.2-2 1.2-1 2.4-1.8 1.3-0.8 2.6-1.5 1.3-0.7 2.7-1.3 1.4-0.6 2.8-1 1.4-0.4 2.9-0.7 1.4-0.3 2.9-0.5 1.5-0.1 3-0.1 1.5 0 3 0.1 1.5 0.2 2.9 0.5 1.5 0.3 2.9 0.7 1.5 0.4 2.8 1 1.4 0.6 2.7 1.3 1.4 0.7 2.6 1.5 1.2 0.8 2.4 1.8 1.1 0.9 2.2 2 1.1 1 2 2.2 0.9 1.2 1.8 2.4 0.8 1.2 1.5 2.6 0.7 1.3 1.3 2.7 0.6 1.3 1 2.8 0.4 1.4 0.7 2.8 0.3 1.5 0.4 3 0.2 1.5 0.2 3z"/>
		</g>
	</g>
	<path id="Layer" class="s1" d="m38.5 41.4l0.9-6.6h-6.6v-4.3c0-1.9 0.5-3.2 3.3-3.2h3.5v-6c-0.6-0.1-2.7-0.2-5.1-0.2-5.1 0-8.6 3.1-8.6 8.8v4.9h-5.7v6.6h5.7v17.1h6.9v-17.1z"/>
</svg>