<?xml version="1.0" encoding="UTF-8"?>
<!DOCTYPE svg PUBLIC "-//W3C//DTD SVG 1.1//EN" "http://www.w3.org/Graphics/SVG/1.1/DTD/svg11.dtd">
<svg xmlns="http://www.w3.org/2000/svg" version="1.1" width="84px" height="122px" style="shape-rendering:geometricPrecision; text-rendering:geometricPrecision; image-rendering:optimizeQuality; fill-rule:evenodd; clip-rule:evenodd" xmlns:xlink="http://www.w3.org/1999/xlink">
<g><path style="opacity:1" fill="#1a468a" d="M 71.5,30.5 C 71.5,30.8333 71.5,31.1667 71.5,31.5C 70.5089,35.8202 68.6755,39.8202 66,43.5C 62.9739,41.9829 59.8072,40.6496 56.5,39.5C 55.5344,37.604 55.2011,35.604 55.5,33.5C 59.0945,33.785 62.4279,32.9517 65.5,31C 62.5113,30.6696 59.678,29.8362 57,28.5C 51.966,30.0497 46.7994,30.883 41.5,31C 40.7476,31.6708 40.4142,32.5041 40.5,33.5C 39.1667,33.5 37.8333,33.5 36.5,33.5C 36.6499,29.8388 35.1499,28.8388 32,30.5C 29.9419,29.8905 29.1086,28.8905 29.5,27.5C 28.376,28.914 27.376,30.414 26.5,32C 23.2683,31.6114 20.1016,31.7781 17,32.5C 16.8333,32.1667 16.6667,31.8333 16.5,31.5C 20.7186,29.9507 24.7186,27.9507 28.5,25.5C 26.4536,25.6732 24.4536,24.8399 22.5,23C 23.756,22.5831 24.4226,21.7498 24.5,20.5C 30.3735,20.1525 36.2068,19.4858 42,18.5C 45.9451,18.8628 49.7784,19.6961 53.5,21C 52.6919,21.3076 52.0253,21.8076 51.5,22.5C 54.414,25.3495 57.7473,26.0161 61.5,24.5C 62.5063,24.9377 62.5063,25.6043 61.5,26.5C 64.876,27.915 68.2093,29.2483 71.5,30.5 Z"/></g>
<g><path style="opacity:1" fill="#3c598f" d="M 71.5,30.5 C 68.2093,29.2483 64.876,27.915 61.5,26.5C 62.5063,25.6043 62.5063,24.9377 61.5,24.5C 57.7473,26.0161 54.414,25.3495 51.5,22.5C 52.0253,21.8076 52.6919,21.3076 53.5,21C 49.7784,19.6961 45.9451,18.8628 42,18.5C 36.2068,19.4858 30.3735,20.1525 24.5,20.5C 42.3536,13.3378 58.0203,16.6712 71.5,30.5 Z"/></g>
<g><path style="opacity:1" fill="#1d4789" d="M 24.5,20.5 C 24.4226,21.7498 23.756,22.5831 22.5,23C 24.4536,24.8399 26.4536,25.6732 28.5,25.5C 24.7186,27.9507 20.7186,29.9507 16.5,31.5C 16.6667,31.8333 16.8333,32.1667 17,32.5C 20.1016,31.7781 23.2683,31.6114 26.5,32C 27.376,30.414 28.376,28.914 29.5,27.5C 29.1086,28.8905 29.9419,29.8905 32,30.5C 35.1499,28.8388 36.6499,29.8388 36.5,33.5C 37.8333,33.5 39.1667,33.5 40.5,33.5C 37.7533,35.2427 35.7533,37.5761 34.5,40.5C 33.5206,43.6248 33.1872,46.9581 33.5,50.5C 30.8333,50.5 28.1667,50.5 25.5,50.5C 25.19,53.7131 25.5233,56.7131 26.5,59.5C 28.6074,60.4682 30.9407,60.8016 33.5,60.5C 33.5,68.1667 33.5,75.8333 33.5,83.5C 37.0419,83.8128 40.3752,83.4794 43.5,82.5C 44.1174,82.3893 44.6174,82.056 45,81.5C 47.0657,86.3265 48.5657,91.3265 49.5,96.5C 43.5451,97.3635 37.5451,97.6968 31.5,97.5C 18.8694,95.034 9.86937,88.034 4.5,76.5C 3.60673,70.1409 2.60673,63.8075 1.5,57.5C 1.76512,50.5656 3.09845,43.8989 5.5,37.5C 9.61906,29.3821 15.9524,23.7154 24.5,20.5 Z"/></g>
<g><path style="opacity:0.081" fill="#b0cae9" d="M 47.5,32.5 C 49.1667,32.5 50.8333,32.5 52.5,32.5C 52.5,35.5 52.5,38.5 52.5,41.5C 49.8333,41.5 47.1667,41.5 44.5,41.5C 46.6074,40.5318 48.9407,40.1984 51.5,40.5C 51.5,38.1667 51.5,35.8333 51.5,33.5C 49.901,33.7678 48.5676,33.4345 47.5,32.5 Z"/></g>
<g><path style="opacity:1" fill="#1a468a" d="M 76.5,38.5 C 76.5405,41.8806 76.2071,45.2139 75.5,48.5C 76.5,48.5 77.5,48.5 78.5,48.5C 78.2054,55.2289 78.2054,61.8956 78.5,68.5C 76.4932,77.523 74.4932,78.023 72.5,70C 74.015,67.2336 73.6816,64.7336 71.5,62.5C 70.914,62.7093 70.414,63.0426 70,63.5C 68.8184,67.5238 68.6517,71.5238 69.5,75.5C 70.325,76.3857 71.325,76.719 72.5,76.5C 72.5,77.8333 72.5,79.1667 72.5,80.5C 71.5,80.5 70.5,80.5 69.5,80.5C 69.5,82.5 69.5,84.5 69.5,86.5C 68.1667,86.5 66.8333,86.5 65.5,86.5C 66.2174,81.3606 65.8841,76.1939 64.5,71C 65.5615,67.1848 65.5615,63.3514 64.5,59.5C 62.1667,59.5 59.8333,59.5 57.5,59.5C 57.3359,56.8127 57.5026,54.146 58,51.5C 60.0462,51.5487 62.2129,51.2154 64.5,50.5C 63.2889,49.2798 63.2889,48.1131 64.5,47C 63.6721,46.0853 62.6721,45.4186 61.5,45C 64.1194,45.0833 66.786,45.25 69.5,45.5C 69.281,46.675 69.6143,47.675 70.5,48.5C 71.7053,46.1409 71.372,43.9743 69.5,42C 70.5909,40.2377 71.5909,38.4044 72.5,36.5C 73.7989,37.09 74.6322,38.09 75,39.5C 75.3826,38.944 75.8826,38.6107 76.5,38.5 Z"/></g>
<g><path style="opacity:0.404" fill="#899fbd" d="M 34.5,40.5 C 34.5,44.1667 34.5,47.8333 34.5,51.5C 31.8333,51.5 29.1667,51.5 26.5,51.5C 26.5,54.1667 26.5,56.8333 26.5,59.5C 25.5233,56.7131 25.19,53.7131 25.5,50.5C 28.1667,50.5 30.8333,50.5 33.5,50.5C 33.1872,46.9581 33.5206,43.6248 34.5,40.5 Z"/></g>
<g><path style="opacity:0.341" fill="#9db5dc" d="M 43.5,43.5 C 43.5,45.8333 43.5,48.1667 43.5,50.5C 46.5,50.5 49.5,50.5 52.5,50.5C 52.7373,51.791 52.404,52.791 51.5,53.5C 49.0122,51.6122 46.0122,50.9455 42.5,51.5C 42.1936,48.6146 42.5269,45.9479 43.5,43.5 Z"/></g>
<g><path style="opacity:1" fill="#456190" d="M 5.5,37.5 C 3.09845,43.8989 1.76512,50.5656 1.5,57.5C 2.60673,63.8075 3.60673,70.1409 4.5,76.5C 2.4401,72.6509 0.773429,68.6509 -0.5,64.5C -0.5,60.1667 -0.5,55.8333 -0.5,51.5C 0.519329,46.4509 2.51933,41.7843 5.5,37.5 Z"/></g>
<g><path style="opacity:1" fill="#1f4889" d="M 71.5,31.5 C 73.9,33.2964 75.5667,35.6298 76.5,38.5C 75.8826,38.6107 75.3826,38.944 75,39.5C 74.6322,38.09 73.7989,37.09 72.5,36.5C 71.5909,38.4044 70.5909,40.2377 69.5,42C 71.372,43.9743 71.7053,46.1409 70.5,48.5C 69.6143,47.675 69.281,46.675 69.5,45.5C 66.786,45.25 64.1194,45.0833 61.5,45C 62.6721,45.4186 63.6721,46.0853 64.5,47C 63.2889,48.1131 63.2889,49.2798 64.5,50.5C 62.2129,51.2154 60.0462,51.5487 58,51.5C 57.5026,54.146 57.3359,56.8127 57.5,59.5C 59.8333,59.5 62.1667,59.5 64.5,59.5C 65.5615,63.3514 65.5615,67.1848 64.5,71C 65.8841,76.1939 66.2174,81.3606 65.5,86.5C 66.8333,86.5 68.1667,86.5 69.5,86.5C 65.1515,91.3444 59.8182,94.6778 53.5,96.5C 52.1667,96.5 50.8333,96.5 49.5,96.5C 48.5657,91.3265 47.0657,86.3265 45,81.5C 44.6174,82.056 44.1174,82.3893 43.5,82.5C 43.5,75.1667 43.5,67.8333 43.5,60.5C 46.0593,60.8016 48.3926,60.4682 50.5,59.5C 50.5172,57.4352 50.8505,55.4352 51.5,53.5C 52.404,52.791 52.7373,51.791 52.5,50.5C 49.5,50.5 46.5,50.5 43.5,50.5C 43.5,48.1667 43.5,45.8333 43.5,43.5C 43.3284,42.5084 43.6618,41.8417 44.5,41.5C 47.1667,41.5 49.8333,41.5 52.5,41.5C 52.5,38.5 52.5,35.5 52.5,32.5C 50.8333,32.5 49.1667,32.5 47.5,32.5C 45.1944,32.9926 42.861,33.3259 40.5,33.5C 40.4142,32.5041 40.7476,31.6708 41.5,31C 46.7994,30.883 51.966,30.0497 57,28.5C 59.678,29.8362 62.5113,30.6696 65.5,31C 62.4279,32.9517 59.0945,33.785 55.5,33.5C 55.2011,35.604 55.5344,37.604 56.5,39.5C 59.8072,40.6496 62.9739,41.9829 66,43.5C 68.6755,39.8202 70.5089,35.8202 71.5,31.5 Z"/></g>
<g><path style="opacity:1" fill="#2f528b" d="M 76.5,38.5 C 78.8559,41.7145 80.3559,45.3812 81,49.5C 83.4557,63.9575 79.6224,76.2909 69.5,86.5C 69.5,84.5 69.5,82.5 69.5,80.5C 70.5,80.5 71.5,80.5 72.5,80.5C 72.5,79.1667 72.5,77.8333 72.5,76.5C 71.325,76.719 70.325,76.3857 69.5,75.5C 68.6517,71.5238 68.8184,67.5238 70,63.5C 70.414,63.0426 70.914,62.7093 71.5,62.5C 73.6816,64.7336 74.015,67.2336 72.5,70C 74.4932,78.023 76.4932,77.523 78.5,68.5C 78.2054,61.8956 78.2054,55.2289 78.5,48.5C 77.5,48.5 76.5,48.5 75.5,48.5C 76.2071,45.2139 76.5405,41.8806 76.5,38.5 Z"/></g>
<g><path style="opacity:0.263" fill="#a2b3d0" d="M 26.5,59.5 C 29.1667,59.5 31.8333,59.5 34.5,59.5C 34.5,67.1667 34.5,74.8333 34.5,82.5C 37.1667,82.5 39.8333,82.5 42.5,82.5C 42.5,74.8333 42.5,67.1667 42.5,59.5C 45.1667,59.5 47.8333,59.5 50.5,59.5C 48.3926,60.4682 46.0593,60.8016 43.5,60.5C 43.5,67.8333 43.5,75.1667 43.5,82.5C 40.3752,83.4794 37.0419,83.8128 33.5,83.5C 33.5,75.8333 33.5,68.1667 33.5,60.5C 30.9407,60.8016 28.6074,60.4682 26.5,59.5 Z"/></g>
<g><path style="opacity:1" fill="#576f95" d="M 49.5,96.5 C 50.8333,96.5 52.1667,96.5 53.5,96.5C 49.4405,98.017 45.1071,98.6836 40.5,98.5C 37.3138,98.498 34.3138,98.1647 31.5,97.5C 37.5451,97.6968 43.5451,97.3635 49.5,96.5 Z"/></g>
</svg>
