<?xml version="1.0" encoding="UTF-8"?>
<!DOCTYPE svg PUBLIC "-//W3C//DTD SVG 1.1//EN" "http://www.w3.org/Graphics/SVG/1.1/DTD/svg11.dtd">
<svg xmlns="http://www.w3.org/2000/svg" version="1.1" width="131px" height="119px" style="shape-rendering:geometricPrecision; text-rendering:geometricPrecision; image-rendering:optimizeQuality; fill-rule:evenodd; clip-rule:evenodd" xmlns:xlink="http://www.w3.org/1999/xlink">
<g><path style="opacity:1" fill="#cc313b" d="M 46.5,17.5 C 49.1667,17.5 51.8333,17.5 54.5,17.5C 54.5,17.8333 54.5,18.1667 54.5,18.5C 52.1667,18.5 49.8333,18.5 47.5,18.5C 43.8405,18.1588 40.5072,18.8255 37.5,20.5C 37.1667,20.5 36.8333,20.5 36.5,20.5C 36.1667,20.5 35.8333,20.5 35.5,20.5C 36.347,19.0337 37.6803,18.2004 39.5,18C 41.8098,17.5034 44.1432,17.3367 46.5,17.5 Z"/></g>
<g><path style="opacity:1" fill="#cf5f91" d="M 46.5,17.5 C 59.3597,16.2144 72.3597,16.2144 85.5,17.5C 85.5,17.8333 85.5,18.1667 85.5,18.5C 84.8333,18.5 84.1667,18.5 83.5,18.5C 82.1667,18.5 80.8333,18.5 79.5,18.5C 77.8333,18.5 76.1667,18.5 74.5,18.5C 70.5483,17.7279 66.5483,17.3946 62.5,17.5C 59.8333,17.5 57.1667,17.5 54.5,17.5C 51.8333,17.5 49.1667,17.5 46.5,17.5 Z"/></g>
<g><path style="opacity:1" fill="#e20228" d="M 47.5,19.5 C 47.5,19.1667 47.5,18.8333 47.5,18.5C 49.8333,18.5 52.1667,18.5 54.5,18.5C 55.6005,19.6049 56.2671,20.9382 56.5,22.5C 55.8333,22.5 55.5,22.8333 55.5,23.5C 52.8333,23.5 50.1667,23.5 47.5,23.5C 47.5,23.1667 47.5,22.8333 47.5,22.5C 48.8333,22.5 50.1667,22.5 51.5,22.5C 51.5,21.5 51.5,20.5 51.5,19.5C 50.1667,19.5 48.8333,19.5 47.5,19.5 Z"/></g>
<g><path style="opacity:1" fill="#e20136" d="M 54.5,18.5 C 55.8333,18.5 57.1667,18.5 58.5,18.5C 58.8432,20.4832 58.1765,21.8166 56.5,22.5C 56.2671,20.9382 55.6005,19.6049 54.5,18.5 Z"/></g>
<g><path style="opacity:1" fill="#d30642" d="M 54.5,18.5 C 54.5,18.1667 54.5,17.8333 54.5,17.5C 57.1667,17.5 59.8333,17.5 62.5,17.5C 62.5,18.1667 62.8333,18.5 63.5,18.5C 63.4142,19.4959 63.7476,20.3292 64.5,21C 65.8333,21.3333 67.1667,21.6667 68.5,22C 67.944,22.3826 67.6107,22.8826 67.5,23.5C 63.5,23.5 59.5,23.5 55.5,23.5C 55.5,22.8333 55.8333,22.5 56.5,22.5C 58.1765,21.8166 58.8432,20.4832 58.5,18.5C 57.1667,18.5 55.8333,18.5 54.5,18.5 Z"/></g>
<g><path style="opacity:1" fill="#bd4f9d" d="M 85.5,17.5 C 88.9164,17.5275 91.9164,18.5275 94.5,20.5C 93.8333,20.5 93.1667,20.5 92.5,20.5C 90.2362,19.7814 87.9029,19.448 85.5,19.5C 85.5,19.1667 85.5,18.8333 85.5,18.5C 85.5,18.1667 85.5,17.8333 85.5,17.5 Z"/></g>
<g><path style="opacity:1" fill="#d40157" d="M 63.5,18.5 C 65.8333,18.5 68.1667,18.5 70.5,18.5C 70.4802,20.143 71.1468,21.4763 72.5,22.5C 70.9547,23.4519 69.288,23.7852 67.5,23.5C 67.6107,22.8826 67.944,22.3826 68.5,22C 67.1667,21.6667 65.8333,21.3333 64.5,21C 63.7476,20.3292 63.4142,19.4959 63.5,18.5 Z"/></g>
<g><path style="opacity:1" fill="#c72665" d="M 62.5,17.5 C 66.5483,17.3946 70.5483,17.7279 74.5,18.5C 74.0825,19.2216 73.4158,19.7216 72.5,20C 75.5385,21.1053 78.5385,22.272 81.5,23.5C 81.5,23.8333 81.5,24.1667 81.5,24.5C 72.8333,24.5 64.1667,24.5 55.5,24.5C 55.5,24.1667 55.5,23.8333 55.5,23.5C 59.5,23.5 63.5,23.5 67.5,23.5C 69.288,23.7852 70.9547,23.4519 72.5,22.5C 71.1468,21.4763 70.4802,20.143 70.5,18.5C 68.1667,18.5 65.8333,18.5 63.5,18.5C 62.8333,18.5 62.5,18.1667 62.5,17.5 Z"/></g>
<g><path style="opacity:1" fill="#cd017a" d="M 79.5,18.5 C 80.8333,18.5 82.1667,18.5 83.5,18.5C 84.9538,20.2633 84.6204,21.5967 82.5,22.5C 81.791,21.596 80.791,21.2627 79.5,21.5C 79.5,20.5 79.5,19.5 79.5,18.5 Z"/></g>
<g><path style="opacity:1" fill="#f30402" d="M 36.5,20.5 C 36.8333,20.5 37.1667,20.5 37.5,20.5C 39.2915,20.366 40.9582,20.6993 42.5,21.5C 42.4431,22.609 42.1098,23.609 41.5,24.5C 39.3792,24.6747 37.3792,24.3414 35.5,23.5C 36.1098,22.609 36.4431,21.609 36.5,20.5 Z"/></g>
<g><path style="opacity:1" fill="#ea0314" d="M 47.5,18.5 C 47.5,18.8333 47.5,19.1667 47.5,19.5C 47.5,20.1667 47.5,20.8333 47.5,21.5C 45.8333,21.5 44.1667,21.5 42.5,21.5C 40.9582,20.6993 39.2915,20.366 37.5,20.5C 40.5072,18.8255 43.8405,18.1588 47.5,18.5 Z"/></g>
<g><path style="opacity:1" fill="#ea001b" d="M 47.5,19.5 C 48.8333,19.5 50.1667,19.5 51.5,19.5C 51.5,20.5 51.5,21.5 51.5,22.5C 50.1667,22.5 48.8333,22.5 47.5,22.5C 47.5,22.1667 47.5,21.8333 47.5,21.5C 47.5,20.8333 47.5,20.1667 47.5,19.5 Z"/></g>
<g><path style="opacity:1" fill="#cf0172" d="M 74.5,18.5 C 76.1667,18.5 77.8333,18.5 79.5,18.5C 79.5,19.5 79.5,20.5 79.5,21.5C 80.791,21.2627 81.791,21.596 82.5,22.5C 82.5,22.8333 82.5,23.1667 82.5,23.5C 82.1667,23.5 81.8333,23.5 81.5,23.5C 78.5385,22.272 75.5385,21.1053 72.5,20C 73.4158,19.7216 74.0825,19.2216 74.5,18.5 Z"/></g>
<g><path style="opacity:1" fill="#e80310" d="M 42.5,21.5 C 44.1667,21.5 45.8333,21.5 47.5,21.5C 47.5,21.8333 47.5,22.1667 47.5,22.5C 47.5,22.8333 47.5,23.1667 47.5,23.5C 45.7085,23.366 44.0418,23.6993 42.5,24.5C 42.1667,24.5 41.8333,24.5 41.5,24.5C 42.1098,23.609 42.4431,22.609 42.5,21.5 Z"/></g>
<g><path style="opacity:1" fill="#c10291" d="M 85.5,19.5 C 87.9029,19.448 90.2362,19.7814 92.5,20.5C 93.8062,21.4674 94.4729,22.8007 94.5,24.5C 93.609,23.8902 92.609,23.5569 91.5,23.5C 89.6208,22.6586 87.6208,22.3253 85.5,22.5C 85.5,21.5 85.5,20.5 85.5,19.5 Z"/></g>
<g><path style="opacity:1" fill="#c40386" d="M 83.5,18.5 C 84.1667,18.5 84.8333,18.5 85.5,18.5C 85.5,18.8333 85.5,19.1667 85.5,19.5C 85.5,20.5 85.5,21.5 85.5,22.5C 87.6208,22.3253 89.6208,22.6586 91.5,23.5C 90.8166,25.1765 89.4832,25.8432 87.5,25.5C 86.3646,23.7868 84.698,23.1201 82.5,23.5C 82.5,23.1667 82.5,22.8333 82.5,22.5C 84.6204,21.5967 84.9538,20.2633 83.5,18.5 Z"/></g>
<g><path style="opacity:0.898" fill="#cc4652" d="M 47.5,23.5 C 50.1667,23.5 52.8333,23.5 55.5,23.5C 55.5,23.8333 55.5,24.1667 55.5,24.5C 51.1434,24.5865 46.81,24.9198 42.5,25.5C 42.5,25.1667 42.5,24.8333 42.5,24.5C 44.0418,23.6993 45.7085,23.366 47.5,23.5 Z"/></g>
<g><path style="opacity:1" fill="#cc4899" d="M 81.5,23.5 C 81.8333,23.5 82.1667,23.5 82.5,23.5C 84.698,23.1201 86.3646,23.7868 87.5,25.5C 85.2646,25.7947 83.2646,25.4614 81.5,24.5C 81.5,24.1667 81.5,23.8333 81.5,23.5 Z"/></g>
<g><path style="opacity:1" fill="#bf59ad" d="M 95.5,20.5 C 97.914,21.9108 99.5806,23.9108 100.5,26.5C 97.4589,25.8009 95.7922,23.8009 95.5,20.5 Z"/></g>
<g><path style="opacity:1" fill="#d9472e" d="M 35.5,20.5 C 33.8333,22.5 32.1667,24.5 30.5,26.5C 28.8958,27.287 28.2291,28.6203 28.5,30.5C 27.8333,30.5 27.1667,30.5 26.5,30.5C 28.1053,25.8955 31.1053,22.5622 35.5,20.5 Z"/></g>
<g><path style="opacity:1" fill="#ea482f" d="M 35.5,23.5 C 37.3792,24.3414 39.3792,24.6747 41.5,24.5C 41.8333,24.5 42.1667,24.5 42.5,24.5C 42.5,24.8333 42.5,25.1667 42.5,25.5C 39.4968,26.6662 36.8302,28.3328 34.5,30.5C 34.1667,30.5 33.8333,30.5 33.5,30.5C 33.5,29.5 33.5,28.5 33.5,27.5C 34.1894,26.2264 35.0228,26.2264 36,27.5C 36.195,26.1807 36.0283,24.8474 35.5,23.5 Z"/></g>
<g><path style="opacity:1" fill="#be3495" d="M 91.5,23.5 C 92.609,23.5569 93.609,23.8902 94.5,24.5C 94.5,24.8333 94.5,25.1667 94.5,25.5C 93.9033,25.7352 93.5699,26.2352 93.5,27C 94.5442,28.1739 95.5442,29.3406 96.5,30.5C 96.5,31.5 96.5,32.5 96.5,33.5C 96.5,33.8333 96.5,34.1667 96.5,34.5C 94.5,30.5 91.5,27.5 87.5,25.5C 89.4832,25.8432 90.8166,25.1765 91.5,23.5 Z"/></g>
<g><path style="opacity:1" fill="#ee1c04" d="M 35.5,20.5 C 35.8333,20.5 36.1667,20.5 36.5,20.5C 36.4431,21.609 36.1098,22.609 35.5,23.5C 36.0283,24.8474 36.195,26.1807 36,27.5C 35.0228,26.2264 34.1894,26.2264 33.5,27.5C 32.609,26.8902 31.609,26.5569 30.5,26.5C 32.1667,24.5 33.8333,22.5 35.5,20.5 Z"/></g>
<g><path style="opacity:1" fill="#f92b04" d="M 30.5,26.5 C 31.609,26.5569 32.609,26.8902 33.5,27.5C 33.5,28.5 33.5,29.5 33.5,30.5C 32.8333,30.5 32.5,30.8333 32.5,31.5C 30.744,30.4479 30.0773,28.7812 30.5,26.5 Z"/></g>
<g><path style="opacity:1" fill="#c20197" d="M 94.5,25.5 C 96.8835,26.8851 98.5501,28.8851 99.5,31.5C 98.8333,31.1667 98.1667,30.8333 97.5,30.5C 97.1667,30.5 96.8333,30.5 96.5,30.5C 95.5442,29.3406 94.5442,28.1739 93.5,27C 93.5699,26.2352 93.9033,25.7352 94.5,25.5 Z"/></g>
<g><path style="opacity:1" fill="#bc0e9e" d="M 92.5,20.5 C 93.1667,20.5 93.8333,20.5 94.5,20.5C 94.8333,20.5 95.1667,20.5 95.5,20.5C 95.7922,23.8009 97.4589,25.8009 100.5,26.5C 100.5,28.1667 100.5,29.8333 100.5,31.5C 100.167,31.5 99.8333,31.5 99.5,31.5C 98.5501,28.8851 96.8835,26.8851 94.5,25.5C 94.5,25.1667 94.5,24.8333 94.5,24.5C 94.4729,22.8007 93.8062,21.4674 92.5,20.5 Z"/></g>
<g><path style="opacity:1" fill="#f43b0c" d="M 30.5,26.5 C 30.0773,28.7812 30.744,30.4479 32.5,31.5C 31.3702,33.3146 30.7036,35.3146 30.5,37.5C 28.8372,35.5615 28.1706,33.2282 28.5,30.5C 28.2291,28.6203 28.8958,27.287 30.5,26.5 Z"/></g>
<g><path style="opacity:1" fill="#c6568c" d="M 90.5,33.5 C 88.3469,32.4271 86.3469,32.4271 84.5,33.5C 83.5084,33.3284 82.8417,33.6618 82.5,34.5C 82.1667,34.5 81.8333,34.5 81.5,34.5C 81.8844,31.9504 83.3844,30.6171 86,30.5C 88.1829,30.5221 89.6829,31.5221 90.5,33.5 Z"/></g>
<g><path style="opacity:1" fill="#b1279a" d="M 100.5,26.5 C 101.906,26.9731 102.573,27.9731 102.5,29.5C 102.517,31.5648 102.85,33.5648 103.5,35.5C 103.167,35.5 102.833,35.5 102.5,35.5C 102.011,34.0048 101.345,32.6715 100.5,31.5C 100.5,29.8333 100.5,28.1667 100.5,26.5 Z"/></g>
<g><path style="opacity:1" fill="#c1086b" d="M 84.5,33.5 C 86.3469,32.4271 88.3469,32.4271 90.5,33.5C 90.5979,35.5529 89.9313,37.2196 88.5,38.5C 89.2436,35.0504 87.9103,33.3838 84.5,33.5 Z"/></g>
<g><path style="opacity:1" fill="#c2028c" d="M 96.5,30.5 C 96.8333,30.5 97.1667,30.5 97.5,30.5C 99.0435,32.9278 100.043,35.5944 100.5,38.5C 99.8333,38.1667 99.1667,37.8333 98.5,37.5C 98.7709,35.6203 98.1042,34.287 96.5,33.5C 96.5,32.5 96.5,31.5 96.5,30.5 Z"/></g>
<g><path style="opacity:1" fill="#f74b0b" d="M 26.5,30.5 C 27.1667,30.5 27.8333,30.5 28.5,30.5C 28.1706,33.2282 28.8372,35.5615 30.5,37.5C 30.5,38.8333 30.5,40.1667 30.5,41.5C 28.8058,40.4726 27.4725,39.1392 26.5,37.5C 26.5,35.1667 26.5,32.8333 26.5,30.5 Z"/></g>
<g><path style="opacity:1" fill="#eb7a4f" d="M 33.5,30.5 C 33.8333,30.5 34.1667,30.5 34.5,30.5C 32.0287,37.9282 31.0287,45.5948 31.5,53.5C 31.1667,53.5 30.8333,53.5 30.5,53.5C 30.5,51.5 30.5,49.5 30.5,47.5C 30.5,45.5 30.5,43.5 30.5,41.5C 30.5,40.1667 30.5,38.8333 30.5,37.5C 30.7036,35.3146 31.3702,33.3146 32.5,31.5C 32.5,30.8333 32.8333,30.5 33.5,30.5 Z"/></g>
<g><path style="opacity:1" fill="#cf0267" d="M 84.5,33.5 C 87.9103,33.3838 89.2436,35.0504 88.5,38.5C 87.209,38.2627 86.209,38.596 85.5,39.5C 82.9162,38.9517 81.9162,37.285 82.5,34.5C 82.8417,33.6618 83.5084,33.3284 84.5,33.5 Z"/></g>
<g><path style="opacity:1" fill="#c30095" d="M 97.5,30.5 C 98.1667,30.8333 98.8333,31.1667 99.5,31.5C 99.8333,31.5 100.167,31.5 100.5,31.5C 101.345,32.6715 102.011,34.0048 102.5,35.5C 102.662,37.5273 102.495,39.5273 102,41.5C 101.768,40.2625 101.268,39.2625 100.5,38.5C 100.043,35.5944 99.0435,32.9278 97.5,30.5 Z"/></g>
<g><path style="opacity:1" fill="#d11b33" d="M 58.5,37.5 C 62.1817,37.3347 65.8484,37.5014 69.5,38C 70.056,38.3826 70.3893,38.8826 70.5,39.5C 69.1667,39.1667 67.8333,38.8333 66.5,38.5C 63.6146,38.1936 60.9479,38.5269 58.5,39.5C 57.1667,39.5 55.8333,39.5 54.5,39.5C 55.5137,38.3263 56.847,37.6596 58.5,37.5 Z"/></g>
<g><path style="opacity:0.796" fill="#df7487" d="M 58.5,37.5 C 62.3112,36.3547 66.3112,36.1881 70.5,37C 73.0254,37.4238 75.0254,38.5905 76.5,40.5C 75.8333,40.5 75.1667,40.5 74.5,40.5C 73.2921,39.7659 71.9587,39.4326 70.5,39.5C 70.3893,38.8826 70.056,38.3826 69.5,38C 65.8484,37.5014 62.1817,37.3347 58.5,37.5 Z"/></g>
<g><path style="opacity:1" fill="#e80023" d="M 58.5,39.5 C 60.9479,38.5269 63.6146,38.1936 66.5,38.5C 66.7329,40.0618 67.3995,41.3951 68.5,42.5C 67.1667,42.5 65.8333,42.5 64.5,42.5C 64.8039,41.8501 65.1373,41.1835 65.5,40.5C 63.604,39.5344 61.604,39.2011 59.5,39.5C 59.1667,39.5 58.8333,39.5 58.5,39.5 Z"/></g>
<g><path style="opacity:1" fill="#c84c84" d="M 90.5,33.5 C 91.1386,34.0968 91.472,34.9302 91.5,36C 91.6134,37.6991 90.9468,38.8658 89.5,39.5C 88.1667,39.5 86.8333,39.5 85.5,39.5C 86.209,38.596 87.209,38.2627 88.5,38.5C 89.9313,37.2196 90.5979,35.5529 90.5,33.5 Z"/></g>
<g><path style="opacity:1" fill="#c24290" d="M 96.5,33.5 C 98.1042,34.287 98.7709,35.6203 98.5,37.5C 98.5,40.8333 98.5,44.1667 98.5,47.5C 98.5,49.5 98.5,51.5 98.5,53.5C 98.5,54.1667 98.1667,54.5 97.5,54.5C 97.609,47.8039 97.2757,41.1373 96.5,34.5C 96.5,34.1667 96.5,33.8333 96.5,33.5 Z"/></g>
<g><path style="opacity:1" fill="#ec011b" d="M 59.5,39.5 C 61.604,39.2011 63.604,39.5344 65.5,40.5C 65.1373,41.1835 64.8039,41.8501 64.5,42.5C 64.1667,42.5 63.8333,42.5 63.5,42.5C 62.8333,42.5 62.1667,42.5 61.5,42.5C 61.2178,41.2223 60.5511,40.2223 59.5,39.5 Z"/></g>
<g><path style="opacity:1" fill="#cc5f8c" d="M 81.5,34.5 C 81.8333,34.5 82.1667,34.5 82.5,34.5C 81.9162,37.285 82.9162,38.9517 85.5,39.5C 86.8333,39.5 88.1667,39.5 89.5,39.5C 85.196,42.3636 82.196,41.1969 80.5,36C 80.5699,35.2352 80.9033,34.7352 81.5,34.5 Z"/></g>
<g><path style="opacity:1" fill="#c60280" d="M 98.5,37.5 C 99.1667,37.8333 99.8333,38.1667 100.5,38.5C 100.166,41.491 101.166,43.8243 103.5,45.5C 103.847,48.3409 103.513,50.3409 102.5,51.5C 102.819,49.2495 102.319,47.2495 101,45.5C 100.283,46.0442 99.7828,46.7109 99.5,47.5C 99.1667,47.5 98.8333,47.5 98.5,47.5C 98.5,44.1667 98.5,40.8333 98.5,37.5 Z"/></g>
<g><path style="opacity:1" fill="#cc75b5" d="M 102.5,29.5 C 103.963,32.2026 104.796,35.2026 105,38.5C 105.827,51.3401 105.66,64.0067 104.5,76.5C 104.828,65.3206 104.495,54.3206 103.5,43.5C 103.5,40.8333 103.5,38.1667 103.5,35.5C 102.85,33.5648 102.517,31.5648 102.5,29.5 Z"/></g>
<g><path style="opacity:1" fill="#ec0607" d="M 55.5,40.5 C 57.1765,41.1834 57.8432,42.5168 57.5,44.5C 56.6618,44.8417 56.3284,45.5084 56.5,46.5C 55.0755,48.0311 54.4088,47.6977 54.5,45.5C 54.6287,43.7839 54.962,42.1172 55.5,40.5 Z"/></g>
<g><path style="opacity:1" fill="#e70130" d="M 66.5,38.5 C 67.8333,38.8333 69.1667,39.1667 70.5,39.5C 71.6736,41.3678 71.0069,42.3678 68.5,42.5C 67.3995,41.3951 66.7329,40.0618 66.5,38.5 Z"/></g>
<g><path style="opacity:1" fill="#f65c0e" d="M 26.5,37.5 C 27.4725,39.1392 28.8058,40.4726 30.5,41.5C 30.5,43.5 30.5,45.5 30.5,47.5C 29.5413,51.3615 28.5413,51.3615 27.5,47.5C 26.7929,44.2139 26.4595,40.8806 26.5,37.5 Z"/></g>
<g><path style="opacity:1" fill="#e61211" d="M 54.5,39.5 C 55.8333,39.5 57.1667,39.5 58.5,39.5C 58.8333,39.5 59.1667,39.5 59.5,39.5C 60.5511,40.2223 61.2178,41.2223 61.5,42.5C 59.8007,42.5271 58.4674,43.1938 57.5,44.5C 57.8432,42.5168 57.1765,41.1834 55.5,40.5C 53.8058,41.5274 52.4725,42.8608 51.5,44.5C 50.609,45.1098 49.609,45.4431 48.5,45.5C 49.8333,43.8333 51.1667,42.1667 52.5,40.5C 52.8417,39.6618 53.5084,39.3284 54.5,39.5 Z"/></g>
<g><path style="opacity:1" fill="#bb0689" d="M 102.5,35.5 C 102.833,35.5 103.167,35.5 103.5,35.5C 103.5,38.1667 103.5,40.8333 103.5,43.5C 103.5,44.1667 103.5,44.8333 103.5,45.5C 101.166,43.8243 100.166,41.491 100.5,38.5C 101.268,39.2625 101.768,40.2625 102,41.5C 102.495,39.5273 102.662,37.5273 102.5,35.5 Z"/></g>
<g><path style="opacity:0.914" fill="#ed867c" d="M 52.5,40.5 C 51.1667,42.1667 49.8333,43.8333 48.5,45.5C 48.1667,45.5 47.8333,45.5 47.5,45.5C 48.1667,42.8333 49.8333,41.1667 52.5,40.5 Z"/></g>
<g><path style="opacity:1" fill="#e15147" d="M 61.5,42.5 C 62.1667,42.5 62.8333,42.5 63.5,42.5C 63.5,42.8333 63.5,43.1667 63.5,43.5C 62.5084,43.3284 61.8417,43.6618 61.5,44.5C 60.4863,45.6737 59.153,46.3404 57.5,46.5C 57.1667,46.5 56.8333,46.5 56.5,46.5C 56.3284,45.5084 56.6618,44.8417 57.5,44.5C 58.4674,43.1938 59.8007,42.5271 61.5,42.5 Z"/></g>
<g><path style="opacity:1" fill="#dc0535" d="M 70.5,39.5 C 71.9587,39.4326 73.2921,39.7659 74.5,40.5C 74.4431,41.609 74.1098,42.609 73.5,43.5C 73.1583,44.3382 72.4916,44.6716 71.5,44.5C 68.9455,43.612 66.2788,43.2786 63.5,43.5C 63.5,43.1667 63.5,42.8333 63.5,42.5C 63.8333,42.5 64.1667,42.5 64.5,42.5C 65.8333,42.5 67.1667,42.5 68.5,42.5C 71.0069,42.3678 71.6736,41.3678 70.5,39.5 Z"/></g>
<g><path style="opacity:1" fill="#d73250" d="M 74.5,40.5 C 75.1667,40.5 75.8333,40.5 76.5,40.5C 79.1894,41.1894 80.8561,42.856 81.5,45.5C 80.2223,45.2178 79.2223,44.5511 78.5,43.5C 76.9008,44.562 75.2341,44.562 73.5,43.5C 74.1098,42.609 74.4431,41.609 74.5,40.5 Z"/></g>
<g><path style="opacity:1" fill="#e66b27" d="M 26.5,30.5 C 26.5,32.8333 26.5,35.1667 26.5,37.5C 26.4595,40.8806 26.7929,44.2139 27.5,47.5C 26.7784,47.0825 26.2784,46.4158 26,45.5C 25.5034,47.8098 25.3367,50.1432 25.5,52.5C 25.5,53.5 25.5,54.5 25.5,55.5C 25.1667,55.5 24.8333,55.5 24.5,55.5C 24.5,50.1667 24.5,44.8333 24.5,39.5C 24.0679,36.1226 24.7345,33.1226 26.5,30.5 Z"/></g>
<g><path style="opacity:1" fill="#d9525e" d="M 61.5,44.5 C 61.8417,43.6618 62.5084,43.3284 63.5,43.5C 66.2788,43.2786 68.9455,43.612 71.5,44.5C 71.5,45.1667 71.5,45.8333 71.5,46.5C 68.3652,44.9767 65.0318,44.31 61.5,44.5 Z"/></g>
<g><path style="opacity:1" fill="#f70703" d="M 55.5,40.5 C 54.962,42.1172 54.6287,43.7839 54.5,45.5C 53.391,45.5569 52.391,45.8902 51.5,46.5C 51.5,45.8333 51.5,45.1667 51.5,44.5C 52.4725,42.8608 53.8058,41.5274 55.5,40.5 Z"/></g>
<g><path style="opacity:1" fill="#da2444" d="M 73.5,43.5 C 75.2341,44.562 76.9008,44.562 78.5,43.5C 78.5,44.1667 78.5,44.8333 78.5,45.5C 77.1266,45.3433 75.7932,45.51 74.5,46C 75.3366,47.0113 75.67,48.1779 75.5,49.5C 74.1283,48.4884 72.795,47.4884 71.5,46.5C 71.5,45.8333 71.5,45.1667 71.5,44.5C 72.4916,44.6716 73.1583,44.3382 73.5,43.5 Z"/></g>
<g><path style="opacity:1" fill="#f9715a" d="M 54.5,45.5 C 54.4088,47.6977 55.0755,48.0311 56.5,46.5C 56.8333,46.5 57.1667,46.5 57.5,46.5C 56.1667,48.5 54.5,50.1667 52.5,51.5C 52.5,50.8333 52.5,50.1667 52.5,49.5C 52.4431,48.391 52.1098,47.391 51.5,46.5C 52.391,45.8902 53.391,45.5569 54.5,45.5 Z"/></g>
<g><path style="opacity:1" fill="#dc2143" d="M 78.5,45.5 C 79.1667,46.8333 79.8333,48.1667 80.5,49.5C 80.631,50.2389 80.4643,50.9056 80,51.5C 79.7508,50.376 79.2508,49.376 78.5,48.5C 78.1667,48.8333 77.8333,49.1667 77.5,49.5C 78.3629,50.7264 78.3629,52.0597 77.5,53.5C 76.3263,52.4863 75.6596,51.153 75.5,49.5C 75.67,48.1779 75.3366,47.0113 74.5,46C 75.7932,45.51 77.1266,45.3433 78.5,45.5 Z"/></g>
<g><path style="opacity:1" fill="#cc007d" d="M 102.5,51.5 C 100.468,50.9522 99.4677,49.6188 99.5,47.5C 99.7828,46.7109 100.283,46.0442 101,45.5C 102.319,47.2495 102.819,49.2495 102.5,51.5 Z"/></g>
<g><path style="opacity:1" fill="#ed1d05" d="M 51.5,44.5 C 51.5,45.1667 51.5,45.8333 51.5,46.5C 52.1098,47.391 52.4431,48.391 52.5,49.5C 51.1667,49.1667 49.8333,48.8333 48.5,48.5C 47.8333,48.5 47.1667,48.5 46.5,48.5C 47.1098,47.609 47.4431,46.609 47.5,45.5C 47.8333,45.5 48.1667,45.5 48.5,45.5C 49.609,45.4431 50.609,45.1098 51.5,44.5 Z"/></g>
<g><path style="opacity:1" fill="#e9492a" d="M 48.5,48.5 C 49.8333,48.8333 51.1667,49.1667 52.5,49.5C 52.5,50.1667 52.5,50.8333 52.5,51.5C 52.7373,52.791 52.404,53.791 51.5,54.5C 51.1667,54.5 50.8333,54.5 50.5,54.5C 50.3964,52.2972 49.7298,50.2972 48.5,48.5 Z"/></g>
<g><path style="opacity:1" fill="#d31f4b" d="M 78.5,43.5 C 79.2223,44.5511 80.2223,45.2178 81.5,45.5C 82.9063,45.9731 83.573,46.9731 83.5,48.5C 83.5,49.8333 83.5,51.1667 83.5,52.5C 82.2719,51.6935 81.2719,50.6935 80.5,49.5C 79.8333,48.1667 79.1667,46.8333 78.5,45.5C 78.5,44.8333 78.5,44.1667 78.5,43.5 Z"/></g>
<g><path style="opacity:1" fill="#f67114" d="M 27.5,47.5 C 28.5413,51.3615 29.5413,51.3615 30.5,47.5C 30.5,49.5 30.5,51.5 30.5,53.5C 30.6716,54.4916 30.3382,55.1583 29.5,55.5C 28.1001,54.9002 27.1001,53.9002 26.5,52.5C 26.1667,52.5 25.8333,52.5 25.5,52.5C 25.3367,50.1432 25.5034,47.8098 26,45.5C 26.2784,46.4158 26.7784,47.0825 27.5,47.5 Z"/></g>
<g><path style="opacity:1" fill="#f62a0b" d="M 46.5,48.5 C 47.1667,48.5 47.8333,48.5 48.5,48.5C 49.7298,50.2972 50.3964,52.2972 50.5,54.5C 50.5,54.8333 50.5,55.1667 50.5,55.5C 48.3812,55.5323 47.0478,54.5323 46.5,52.5C 46.5,51.1667 46.5,49.8333 46.5,48.5 Z"/></g>
<g><path style="opacity:1" fill="#d6093a" d="M 80.5,49.5 C 81.2719,50.6935 82.2719,51.6935 83.5,52.5C 84.4816,55.9619 84.815,59.6286 84.5,63.5C 84.5,63.8333 84.5,64.1667 84.5,64.5C 83.6618,64.1583 83.3284,63.4916 83.5,62.5C 84.0738,58.7334 82.9071,55.7334 80,53.5C 79.5065,55.1341 79.3398,56.8008 79.5,58.5C 79.5,59.1667 79.1667,59.5 78.5,59.5C 78.7845,57.5853 78.4511,55.9187 77.5,54.5C 77.5,54.1667 77.5,53.8333 77.5,53.5C 78.3629,52.0597 78.3629,50.7264 77.5,49.5C 77.8333,49.1667 78.1667,48.8333 78.5,48.5C 79.2508,49.376 79.7508,50.376 80,51.5C 80.4643,50.9056 80.631,50.2389 80.5,49.5 Z"/></g>
<g><path style="opacity:1" fill="#bb1b69" d="M 103.5,43.5 C 104.495,54.3206 104.828,65.3206 104.5,76.5C 104.795,78.7354 104.461,80.7354 103.5,82.5C 103.5,77.5 103.5,72.5 103.5,67.5C 103.768,65.901 103.434,64.5676 102.5,63.5C 102.664,60.8127 102.497,58.146 102,55.5C 101.29,54.0267 100.124,53.3601 98.5,53.5C 98.5,51.5 98.5,49.5 98.5,47.5C 98.8333,47.5 99.1667,47.5 99.5,47.5C 99.4677,49.6188 100.468,50.9522 102.5,51.5C 103.513,50.3409 103.847,48.3409 103.5,45.5C 103.5,44.8333 103.5,44.1667 103.5,43.5 Z"/></g>
<g><path style="opacity:1" fill="#fa7e10" d="M 26.5,52.5 C 27.1001,53.9002 28.1001,54.9002 29.5,55.5C 29.5,57.1667 29.5,58.8333 29.5,60.5C 27.0181,58.4973 26.0181,55.8306 26.5,52.5 Z"/></g>
<g><path style="opacity:1" fill="#ce206c" d="M 98.5,53.5 C 100.124,53.3601 101.29,54.0267 102,55.5C 102.497,58.146 102.664,60.8127 102.5,63.5C 100.672,57.2965 99.6722,57.2965 99.5,63.5C 98.5386,65.2646 98.2053,67.2646 98.5,69.5C 98.5,70.8333 98.5,72.1667 98.5,73.5C 98.1667,73.5 97.8333,73.5 97.5,73.5C 97.5,67.1667 97.5,60.8333 97.5,54.5C 98.1667,54.5 98.5,54.1667 98.5,53.5 Z"/></g>
<g><path style="opacity:0.953" fill="#eb7d58" d="M 47.5,45.5 C 47.4431,46.609 47.1098,47.609 46.5,48.5C 46.5,49.8333 46.5,51.1667 46.5,52.5C 44.1559,54.7179 43.8226,57.3846 45.5,60.5C 45.5,62.5 45.5,64.5 45.5,66.5C 44.7321,65.7375 44.2321,64.7375 44,63.5C 43.3333,59.5 43.3333,55.5 44,51.5C 44.4238,48.9746 45.5905,46.9746 47.5,45.5 Z"/></g>
<g><path style="opacity:1" fill="#f23e0b" d="M 46.5,52.5 C 47.0478,54.5323 48.3812,55.5323 50.5,55.5C 50.5,58.8333 50.5,62.1667 50.5,65.5C 49.5082,63.1851 47.8415,61.5184 45.5,60.5C 43.8226,57.3846 44.1559,54.7179 46.5,52.5 Z"/></g>
<g><path style="opacity:0.933" fill="#de6483" d="M 83.5,48.5 C 84.9908,51.1864 85.6575,54.1864 85.5,57.5C 85.4954,59.6965 85.162,61.6965 84.5,63.5C 84.815,59.6286 84.4816,55.9619 83.5,52.5C 83.5,51.1667 83.5,49.8333 83.5,48.5 Z"/></g>
<g><path style="opacity:1" fill="#e00234" d="M 83.5,62.5 C 83.1667,62.5 82.8333,62.5 82.5,62.5C 82.628,60.3453 82.128,58.3453 81,56.5C 80.7216,57.4158 80.2216,58.0825 79.5,58.5C 79.3398,56.8008 79.5065,55.1341 80,53.5C 82.9071,55.7334 84.0738,58.7334 83.5,62.5 Z"/></g>
<g><path style="opacity:1" fill="#f98918" d="M 25.5,52.5 C 25.8333,52.5 26.1667,52.5 26.5,52.5C 26.0181,55.8306 27.0181,58.4973 29.5,60.5C 29.5,61.5 29.5,62.5 29.5,63.5C 28.0413,63.5674 26.7079,63.2341 25.5,62.5C 25.5,60.1667 25.5,57.8333 25.5,55.5C 25.5,54.5 25.5,53.5 25.5,52.5 Z"/></g>
<g><path style="opacity:1" fill="#e40129" d="M 82.5,62.5 C 82.7845,64.4147 82.4511,66.0813 81.5,67.5C 81.5,65.8333 81.5,64.1667 81.5,62.5C 80.5,62.5 79.5,62.5 78.5,62.5C 78.5,61.5 78.5,60.5 78.5,59.5C 79.1667,59.5 79.5,59.1667 79.5,58.5C 80.2216,58.0825 80.7216,57.4158 81,56.5C 82.128,58.3453 82.628,60.3453 82.5,62.5 Z"/></g>
<g><path style="opacity:1" fill="#d2025c" d="M 102.5,63.5 C 103.434,64.5676 103.768,65.901 103.5,67.5C 100.783,68.129 99.4501,66.7957 99.5,63.5C 99.6722,57.2965 100.672,57.2965 102.5,63.5 Z"/></g>
<g><path style="opacity:1" fill="#de4e57" d="M 77.5,54.5 C 78.4511,55.9187 78.7845,57.5853 78.5,59.5C 78.5,60.5 78.5,61.5 78.5,62.5C 78.0679,63.7095 77.4013,64.7095 76.5,65.5C 76.1667,65.5 75.8333,65.5 75.5,65.5C 77.0916,62.0336 77.7583,58.3669 77.5,54.5 Z"/></g>
<g><path style="opacity:1" fill="#f19337" d="M 30.5,53.5 C 30.8333,53.5 31.1667,53.5 31.5,53.5C 31.5,59.8333 31.5,66.1667 31.5,72.5C 31.5,73.1667 31.5,73.8333 31.5,74.5C 31.1667,74.5 30.8333,74.5 30.5,74.5C 30.5,74.1667 30.5,73.8333 30.5,73.5C 30.1667,70.1667 29.8333,66.8333 29.5,63.5C 29.5,62.5 29.5,61.5 29.5,60.5C 29.5,58.8333 29.5,57.1667 29.5,55.5C 30.3382,55.1583 30.6716,54.4916 30.5,53.5 Z"/></g>
<g><path style="opacity:1" fill="#f19a7f" d="M 51.5,60.5 C 52.4918,62.4561 53.4918,64.4561 54.5,66.5C 52.0246,65.3126 51.0246,63.3126 51.5,60.5 Z"/></g>
<g><path style="opacity:1" fill="#df5b62" d="M 82.5,62.5 C 82.8333,62.5 83.1667,62.5 83.5,62.5C 83.3284,63.4916 83.6618,64.1583 84.5,64.5C 83.9213,67.3311 82.588,69.6644 80.5,71.5C 80.5,70.1667 80.5,68.8333 80.5,67.5C 80.8333,67.5 81.1667,67.5 81.5,67.5C 82.4511,66.0813 82.7845,64.4147 82.5,62.5 Z"/></g>
<g><path style="opacity:1" fill="#fa9919" d="M 25.5,62.5 C 26.7079,63.2341 28.0413,63.5674 29.5,63.5C 29.8333,66.8333 30.1667,70.1667 30.5,73.5C 26.3612,71.1271 24.6946,67.4605 25.5,62.5 Z"/></g>
<g><path style="opacity:1" fill="#ea5023" d="M 50.5,54.5 C 50.8333,54.5 51.1667,54.5 51.5,54.5C 51.5,56.5 51.5,58.5 51.5,60.5C 51.0246,63.3126 52.0246,65.3126 54.5,66.5C 54.5,67.1667 54.5,67.8333 54.5,68.5C 53.5,68.5 52.5,68.5 51.5,68.5C 50.8902,67.609 50.5569,66.609 50.5,65.5C 50.5,62.1667 50.5,58.8333 50.5,55.5C 50.5,55.1667 50.5,54.8333 50.5,54.5 Z"/></g>
<g><path style="opacity:1" fill="#f25921" d="M 45.5,60.5 C 47.8415,61.5184 49.5082,63.1851 50.5,65.5C 50.5569,66.609 50.8902,67.609 51.5,68.5C 50.1667,69.8333 50.1667,71.1667 51.5,72.5C 50.8333,72.5 50.1667,72.5 49.5,72.5C 47.6736,70.8525 46.3403,68.8525 45.5,66.5C 45.5,64.5 45.5,62.5 45.5,60.5 Z"/></g>
<g><path style="opacity:1" fill="#ea021a" d="M 78.5,62.5 C 79.5,62.5 80.5,62.5 81.5,62.5C 81.5,64.1667 81.5,65.8333 81.5,67.5C 81.1667,67.5 80.8333,67.5 80.5,67.5C 79.8333,67.5 79.1667,67.5 78.5,67.5C 77.1667,67.5 76.5,66.8333 76.5,65.5C 77.4013,64.7095 78.0679,63.7095 78.5,62.5 Z"/></g>
<g><path style="opacity:1" fill="#e12425" d="M 75.5,65.5 C 75.8333,65.5 76.1667,65.5 76.5,65.5C 76.5,66.8333 77.1667,67.5 78.5,67.5C 78.5,69.5 78.5,71.5 78.5,73.5C 77.596,72.791 77.2627,71.791 77.5,70.5C 76.3646,68.7868 74.698,68.1201 72.5,68.5C 73.1667,67.1667 74.1667,66.1667 75.5,65.5 Z"/></g>
<g><path style="opacity:1" fill="#e1423d" d="M 78.5,67.5 C 79.1667,67.5 79.8333,67.5 80.5,67.5C 80.5,68.8333 80.5,70.1667 80.5,71.5C 80.1667,72.5 79.5,73.1667 78.5,73.5C 78.5,71.5 78.5,69.5 78.5,67.5 Z"/></g>
<g><path style="opacity:1" fill="#ce084f" d="M 99.5,63.5 C 99.4501,66.7957 100.783,68.129 103.5,67.5C 103.5,72.5 103.5,77.5 103.5,82.5C 103.5,82.8333 103.5,83.1667 103.5,83.5C 103.167,83.5 102.833,83.5 102.5,83.5C 102.5,82.1667 102.5,80.8333 102.5,79.5C 102.5,77.5 102.5,75.5 102.5,73.5C 102.5,72.1667 102.5,70.8333 102.5,69.5C 101.167,69.5 99.8333,69.5 98.5,69.5C 98.2053,67.2646 98.5386,65.2646 99.5,63.5 Z"/></g>
<g><path style="opacity:1" fill="#fa4603" d="M 51.5,68.5 C 52.5,68.5 53.5,68.5 54.5,68.5C 54.3284,69.4916 54.6618,70.1583 55.5,70.5C 57.129,72.1959 56.7957,73.1959 54.5,73.5C 53.609,72.8902 52.609,72.5569 51.5,72.5C 50.1667,71.1667 50.1667,69.8333 51.5,68.5 Z"/></g>
<g><path style="opacity:1" fill="#ed613d" d="M 54.5,66.5 C 56.0009,67.7515 57.6675,68.7515 59.5,69.5C 59.5,70.1667 59.5,70.8333 59.5,71.5C 58.2921,70.7659 56.9587,70.4326 55.5,70.5C 54.6618,70.1583 54.3284,69.4916 54.5,68.5C 54.5,67.8333 54.5,67.1667 54.5,66.5 Z"/></g>
<g><path style="opacity:0.455" fill="#f29585" d="M 59.5,69.5 C 62.0545,70.388 64.7212,70.7214 67.5,70.5C 65.0521,71.4731 62.3854,71.8064 59.5,71.5C 59.5,70.8333 59.5,70.1667 59.5,69.5 Z"/></g>
<g><path style="opacity:1" fill="#f10503" d="M 72.5,68.5 C 74.698,68.1201 76.3646,68.7868 77.5,70.5C 76.596,71.209 76.2627,72.209 76.5,73.5C 73.0897,73.6162 71.7564,71.9496 72.5,68.5 Z"/></g>
<g><path style="opacity:1" fill="#f4a329" d="M 24.5,55.5 C 24.8333,55.5 25.1667,55.5 25.5,55.5C 25.5,57.8333 25.5,60.1667 25.5,62.5C 24.6946,67.4605 26.3612,71.1271 30.5,73.5C 30.5,73.8333 30.5,74.1667 30.5,74.5C 30.7845,76.4147 30.4511,78.0813 29.5,79.5C 30.0838,76.715 29.0838,75.0483 26.5,74.5C 26.5,73.8333 26.1667,73.5 25.5,73.5C 24.6365,67.5451 24.3032,61.5451 24.5,55.5 Z"/></g>
<g><path style="opacity:1" fill="#f43f0b" d="M 55.5,70.5 C 56.9587,70.4326 58.2921,70.7659 59.5,71.5C 59.5,71.8333 59.5,72.1667 59.5,72.5C 58.1667,73.8333 58.1667,75.1667 59.5,76.5C 58.8333,76.5 58.1667,76.5 57.5,76.5C 56.6935,75.2719 55.6935,74.2719 54.5,73.5C 56.7957,73.1959 57.129,72.1959 55.5,70.5 Z"/></g>
<g><path style="opacity:1" fill="#f5cb7e" d="M 24.5,39.5 C 24.5,44.8333 24.5,50.1667 24.5,55.5C 24.3032,61.5451 24.6365,67.5451 25.5,73.5C 25.5,75.5 25.5,77.5 25.5,79.5C 25.5,80.5 25.5,81.5 25.5,82.5C 24.71,81.3915 24.21,80.0581 24,78.5C 23.1731,65.3268 23.3398,52.3268 24.5,39.5 Z"/></g>
<g><path style="opacity:1" fill="#f91504" d="M 65.5,72.5 C 67.5,72.5 69.5,72.5 71.5,72.5C 71.5,73.8333 71.5,75.1667 71.5,76.5C 70.1667,76.5 68.8333,76.5 67.5,76.5C 66.1938,75.5326 65.5271,74.1993 65.5,72.5 Z"/></g>
<g><path style="opacity:1" fill="#d5024a" d="M 98.5,69.5 C 99.8333,69.5 101.167,69.5 102.5,69.5C 102.5,70.8333 102.5,72.1667 102.5,73.5C 101.041,73.4326 99.7079,73.7659 98.5,74.5C 98.5,74.1667 98.5,73.8333 98.5,73.5C 98.5,72.1667 98.5,70.8333 98.5,69.5 Z"/></g>
<g><path style="opacity:1" fill="#f83104" d="M 59.5,72.5 C 61.5,72.5 63.5,72.5 65.5,72.5C 65.5271,74.1993 66.1938,75.5326 67.5,76.5C 64.8333,76.5 62.1667,76.5 59.5,76.5C 58.1667,75.1667 58.1667,73.8333 59.5,72.5 Z"/></g>
<g><path style="opacity:1" fill="#e33e25" d="M 72.5,68.5 C 71.7564,71.9496 73.0897,73.6162 76.5,73.5C 75.4324,74.4345 74.099,74.7678 72.5,74.5C 72.5,75.5 72.5,76.5 72.5,77.5C 67.4688,78.7829 62.4688,78.7829 57.5,77.5C 57.5,77.1667 57.5,76.8333 57.5,76.5C 58.1667,76.5 58.8333,76.5 59.5,76.5C 62.1667,76.5 64.8333,76.5 67.5,76.5C 68.8333,76.5 70.1667,76.5 71.5,76.5C 71.5,75.1667 71.5,73.8333 71.5,72.5C 69.5,72.5 67.5,72.5 65.5,72.5C 63.5,72.5 61.5,72.5 59.5,72.5C 59.5,72.1667 59.5,71.8333 59.5,71.5C 62.3854,71.8064 65.0521,71.4731 67.5,70.5C 69.0495,69.5592 70.7162,68.8925 72.5,68.5 Z"/></g>
<g><path style="opacity:1" fill="#eb7147" d="M 49.5,72.5 C 50.1667,72.5 50.8333,72.5 51.5,72.5C 52.609,72.5569 53.609,72.8902 54.5,73.5C 55.6935,74.2719 56.6935,75.2719 57.5,76.5C 57.5,76.8333 57.5,77.1667 57.5,77.5C 54.2957,76.6167 51.6291,74.9501 49.5,72.5 Z"/></g>
<g><path style="opacity:1" fill="#e76052" d="M 77.5,70.5 C 77.2627,71.791 77.596,72.791 78.5,73.5C 76.8816,75.316 74.8816,76.6493 72.5,77.5C 72.5,76.5 72.5,75.5 72.5,74.5C 74.099,74.7678 75.4324,74.4345 76.5,73.5C 76.2627,72.209 76.596,71.209 77.5,70.5 Z"/></g>
<g><path style="opacity:1" fill="#dd0040" d="M 102.5,73.5 C 102.5,75.5 102.5,77.5 102.5,79.5C 101.167,79.5 99.8333,79.5 98.5,79.5C 98.5,77.8333 98.5,76.1667 98.5,74.5C 99.7079,73.7659 101.041,73.4326 102.5,73.5 Z"/></g>
<g><path style="opacity:1" fill="#fdaf19" d="M 26.5,74.5 C 29.0838,75.0483 30.0838,76.715 29.5,79.5C 27.2591,78.7002 26.2591,77.0336 26.5,74.5 Z"/></g>
<g><path style="opacity:1" fill="#fab620" d="M 25.5,73.5 C 26.1667,73.5 26.5,73.8333 26.5,74.5C 26.2591,77.0336 27.2591,78.7002 29.5,79.5C 29.4326,80.9587 29.7659,82.2921 30.5,83.5C 30.1667,83.5 29.8333,83.5 29.5,83.5C 28.7281,82.3065 27.7281,81.3065 26.5,80.5C 26.5,79.8333 26.1667,79.5 25.5,79.5C 25.5,77.5 25.5,75.5 25.5,73.5 Z"/></g>
<g><path style="opacity:1" fill="#f4b02c" d="M 30.5,74.5 C 30.8333,74.5 31.1667,74.5 31.5,74.5C 31.3367,76.8568 31.5034,79.1902 32,81.5C 32.3826,82.056 32.8826,82.3893 33.5,82.5C 33.5,83.1667 33.5,83.8333 33.5,84.5C 32.609,83.8902 31.609,83.5569 30.5,83.5C 29.7659,82.2921 29.4326,80.9587 29.5,79.5C 30.4511,78.0813 30.7845,76.4147 30.5,74.5 Z"/></g>
<g><path style="opacity:1" fill="#f4d18e" d="M 31.5,72.5 C 32.3232,75.6838 32.9899,79.0172 33.5,82.5C 32.8826,82.3893 32.3826,82.056 32,81.5C 31.5034,79.1902 31.3367,76.8568 31.5,74.5C 31.5,73.8333 31.5,73.1667 31.5,72.5 Z"/></g>
<g><path style="opacity:1" fill="#d95062" d="M 97.5,73.5 C 97.8333,73.5 98.1667,73.5 98.5,73.5C 98.5,73.8333 98.5,74.1667 98.5,74.5C 98.5,76.1667 98.5,77.8333 98.5,79.5C 98.4729,81.1993 97.8062,82.5326 96.5,83.5C 96.1583,84.3382 95.4916,84.6716 94.5,84.5C 95.7773,80.8059 96.7773,77.1393 97.5,73.5 Z"/></g>
<g><path style="opacity:1" fill="#f9c326" d="M 26.5,80.5 C 27.7281,81.3065 28.7281,82.3065 29.5,83.5C 29.5,84.5 29.5,85.5 29.5,86.5C 29.8333,87.1667 30.1667,87.8333 30.5,88.5C 28.1525,86.4726 26.8192,83.806 26.5,80.5 Z"/></g>
<g><path style="opacity:1" fill="#df0335" d="M 98.5,79.5 C 99.8333,79.5 101.167,79.5 102.5,79.5C 102.5,80.8333 102.5,82.1667 102.5,83.5C 101.833,83.8333 101.167,84.1667 100.5,84.5C 99.4324,83.5655 98.099,83.2322 96.5,83.5C 97.8062,82.5326 98.4729,81.1993 98.5,79.5 Z"/></g>
<g><path style="opacity:1" fill="#fdb51a" d="M 29.5,83.5 C 29.8333,83.5 30.1667,83.5 30.5,83.5C 31.609,83.5569 32.609,83.8902 33.5,84.5C 33.5569,85.609 33.8902,86.609 34.5,87.5C 32.7839,87.3713 31.1172,87.038 29.5,86.5C 29.5,85.5 29.5,84.5 29.5,83.5 Z"/></g>
<g><path style="opacity:1" fill="#f5d469" d="M 25.5,79.5 C 26.1667,79.5 26.5,79.8333 26.5,80.5C 26.8192,83.806 28.1525,86.4726 30.5,88.5C 30.5,89.5 30.5,90.5 30.5,91.5C 27.5505,89.2725 25.8838,86.2725 25.5,82.5C 25.5,81.5 25.5,80.5 25.5,79.5 Z"/></g>
<g><path style="opacity:1" fill="#e20327" d="M 96.5,83.5 C 98.099,83.2322 99.4324,83.5655 100.5,84.5C 99.478,86.5439 98.478,88.5439 97.5,90.5C 97.762,89.0222 97.4287,87.6888 96.5,86.5C 95.3777,87.6302 94.0443,88.2969 92.5,88.5C 93.6005,87.3951 94.2671,86.0618 94.5,84.5C 95.4916,84.6716 96.1583,84.3382 96.5,83.5 Z"/></g>
<g><path style="opacity:1" fill="#e90120" d="M 97.5,90.5 C 96.7784,90.9175 96.2784,91.5842 96,92.5C 95.7679,91.2625 95.2679,90.2625 94.5,89.5C 93.5,89.5 92.5,89.5 91.5,89.5C 91.5,88.8333 91.8333,88.5 92.5,88.5C 94.0443,88.2969 95.3777,87.6302 96.5,86.5C 97.4287,87.6888 97.762,89.0222 97.5,90.5 Z"/></g>
<g><path style="opacity:1" fill="#df5258" d="M 102.5,83.5 C 102.833,83.5 103.167,83.5 103.5,83.5C 102.299,88.6952 99.2994,92.3619 94.5,94.5C 94.5,92.8333 94.5,91.1667 94.5,89.5C 95.2679,90.2625 95.7679,91.2625 96,92.5C 96.2784,91.5842 96.7784,90.9175 97.5,90.5C 98.478,88.5439 99.478,86.5439 100.5,84.5C 101.167,84.1667 101.833,83.8333 102.5,83.5 Z"/></g>
<g><path style="opacity:1" fill="#fab725" d="M 29.5,86.5 C 31.1172,87.038 32.7839,87.3713 34.5,87.5C 35.209,88.404 36.209,88.7373 37.5,88.5C 37.2627,89.791 37.596,90.791 38.5,91.5C 39.803,93.1423 41.1363,94.8089 42.5,96.5C 40.5648,95.8505 38.5648,95.5172 36.5,95.5C 35.5084,95.6716 34.8417,95.3382 34.5,94.5C 32.576,92.9098 32.2427,91.0765 33.5,89C 32.552,88.5172 31.552,88.3505 30.5,88.5C 30.1667,87.8333 29.8333,87.1667 29.5,86.5 Z"/></g>
<g><path style="opacity:1" fill="#db5253" d="M 94.5,84.5 C 94.2671,86.0618 93.6005,87.3951 92.5,88.5C 91.8333,88.5 91.5,88.8333 91.5,89.5C 90.1667,89.5 88.8333,89.5 87.5,89.5C 90.0667,88.2831 92.4,86.6165 94.5,84.5 Z"/></g>
<g><path style="opacity:1" fill="#f9c94d" d="M 30.5,88.5 C 31.552,88.3505 32.552,88.5172 33.5,89C 32.2427,91.0765 32.576,92.9098 34.5,94.5C 32.5956,94.2624 31.2623,93.2624 30.5,91.5C 30.5,90.5 30.5,89.5 30.5,88.5 Z"/></g>
<g><path style="opacity:1" fill="#f4b854" d="M 33.5,82.5 C 35.7358,86.2938 39.0691,88.6272 43.5,89.5C 44.8333,90.1667 46.1667,90.8333 47.5,91.5C 46.5084,91.3284 45.8417,91.6618 45.5,92.5C 43.7231,92.2137 42.0564,91.5471 40.5,90.5C 39.5836,90.5427 38.9169,90.8761 38.5,91.5C 37.596,90.791 37.2627,89.791 37.5,88.5C 36.209,88.7373 35.209,88.404 34.5,87.5C 33.8902,86.609 33.5569,85.609 33.5,84.5C 33.5,83.8333 33.5,83.1667 33.5,82.5 Z"/></g>
<g><path style="opacity:0.884" fill="#f1b78f" d="M 43.5,89.5 C 53.6179,90.2148 63.9512,90.5482 74.5,90.5C 74.5,90.8333 74.5,91.1667 74.5,91.5C 70.8333,91.5 67.1667,91.5 63.5,91.5C 60.5,91.5 57.5,91.5 54.5,91.5C 52.1667,91.5 49.8333,91.5 47.5,91.5C 46.1667,90.8333 44.8333,90.1667 43.5,89.5 Z"/></g>
<g><path style="opacity:1" fill="#d45648" d="M 87.5,89.5 C 87.5,89.8333 87.5,90.1667 87.5,90.5C 83.2315,91.3726 78.8982,91.7059 74.5,91.5C 74.5,91.1667 74.5,90.8333 74.5,90.5C 78.8689,90.5328 83.2022,90.1995 87.5,89.5 Z"/></g>
<g><path style="opacity:1" fill="#e00711" d="M 87.5,90.5 C 87.5,90.1667 87.5,89.8333 87.5,89.5C 88.8333,89.5 90.1667,89.5 91.5,89.5C 92.5,89.5 93.5,89.5 94.5,89.5C 94.5,91.1667 94.5,92.8333 94.5,94.5C 93.8333,94.5 93.1667,94.5 92.5,94.5C 92.33,93.1779 92.6634,92.0113 93.5,91C 91.5273,90.5045 89.5273,90.3379 87.5,90.5 Z"/></g>
<g><path style="opacity:1" fill="#fca416" d="M 38.5,91.5 C 38.9169,90.8761 39.5836,90.5427 40.5,90.5C 42.0564,91.5471 43.7231,92.2137 45.5,92.5C 46.8062,93.4674 47.4729,94.8007 47.5,96.5C 45.8333,96.5 44.1667,96.5 42.5,96.5C 41.1363,94.8089 39.803,93.1423 38.5,91.5 Z"/></g>
<g><path style="opacity:1" fill="#e03315" d="M 87.5,90.5 C 87.1667,91.5 86.5,92.1667 85.5,92.5C 84.8333,92.5 84.1667,92.5 83.5,92.5C 80.8333,92.5 78.1667,92.5 75.5,92.5C 74.8333,92.5 74.1667,92.5 73.5,92.5C 72.5,92.5 71.5,92.5 70.5,92.5C 68.5,92.5 66.5,92.5 64.5,92.5C 64.1667,92.5 63.8333,92.5 63.5,92.5C 63.5,92.1667 63.5,91.8333 63.5,91.5C 67.1667,91.5 70.8333,91.5 74.5,91.5C 78.8982,91.7059 83.2315,91.3726 87.5,90.5 Z"/></g>
<g><path style="opacity:1" fill="#f10302" d="M 87.5,90.5 C 89.5273,90.3379 91.5273,90.5045 93.5,91C 92.6634,92.0113 92.33,93.1779 92.5,94.5C 91.1667,94.5 89.8333,94.5 88.5,94.5C 87.5,93.8333 86.5,93.1667 85.5,92.5C 86.5,92.1667 87.1667,91.5 87.5,90.5 Z"/></g>
<g><path style="opacity:1" fill="#f62e07" d="M 73.5,92.5 C 74.1667,92.5 74.8333,92.5 75.5,92.5C 77.328,93.2828 78.6613,94.6161 79.5,96.5C 78.5,96.5 77.5,96.5 76.5,96.5C 75.7888,94.9699 74.7888,93.6366 73.5,92.5 Z"/></g>
<g><path style="opacity:1" fill="#f78c1e" d="M 47.5,91.5 C 49.8333,91.5 52.1667,91.5 54.5,91.5C 54.5,91.8333 54.5,92.1667 54.5,92.5C 49.4935,91.6077 48.4935,92.941 51.5,96.5C 50.1667,96.5 48.8333,96.5 47.5,96.5C 47.4729,94.8007 46.8062,93.4674 45.5,92.5C 45.8417,91.6618 46.5084,91.3284 47.5,91.5 Z"/></g>
<g><path style="opacity:1" fill="#fa8113" d="M 54.5,92.5 C 54.9258,94.1388 54.9258,95.4721 54.5,96.5C 53.5,96.5 52.5,96.5 51.5,96.5C 48.4935,92.941 49.4935,91.6077 54.5,92.5 Z"/></g>
<g><path style="opacity:1" fill="#f0731c" d="M 54.5,91.5 C 57.5,91.5 60.5,91.5 63.5,91.5C 63.5,91.8333 63.5,92.1667 63.5,92.5C 61.396,92.2011 59.396,92.5344 57.5,93.5C 58.7118,95.9231 60.7118,96.9231 63.5,96.5C 63.5,96.8333 63.5,97.1667 63.5,97.5C 60.2869,97.81 57.2869,97.4767 54.5,96.5C 54.9258,95.4721 54.9258,94.1388 54.5,92.5C 54.5,92.1667 54.5,91.8333 54.5,91.5 Z"/></g>
<g><path style="opacity:1" fill="#ee4613" d="M 64.5,92.5 C 66.5,92.5 68.5,92.5 70.5,92.5C 71.1124,95.6973 73.1124,97.0306 76.5,96.5C 77.5,96.5 78.5,96.5 79.5,96.5C 81.5,96.5 83.5,96.5 85.5,96.5C 85.5,96.8333 85.5,97.1667 85.5,97.5C 78.1667,97.5 70.8333,97.5 63.5,97.5C 63.5,97.1667 63.5,96.8333 63.5,96.5C 68.403,96.3065 68.7363,94.9731 64.5,92.5 Z"/></g>
<g><path style="opacity:1" fill="#f83b0b" d="M 70.5,92.5 C 71.5,92.5 72.5,92.5 73.5,92.5C 74.7888,93.6366 75.7888,94.9699 76.5,96.5C 73.1124,97.0306 71.1124,95.6973 70.5,92.5 Z"/></g>
<g><path style="opacity:1" fill="#f71b03" d="M 75.5,92.5 C 78.1667,92.5 80.8333,92.5 83.5,92.5C 84.1667,93.8333 84.8333,95.1667 85.5,96.5C 83.5,96.5 81.5,96.5 79.5,96.5C 78.6613,94.6161 77.328,93.2828 75.5,92.5 Z"/></g>
<g><path style="opacity:1" fill="#f30f04" d="M 83.5,92.5 C 84.1667,92.5 84.8333,92.5 85.5,92.5C 86.5,93.1667 87.5,93.8333 88.5,94.5C 87.7777,95.5511 86.7777,96.2178 85.5,96.5C 84.8333,95.1667 84.1667,93.8333 83.5,92.5 Z"/></g>
<g><path style="opacity:1" fill="#f8590f" d="M 63.5,92.5 C 63.8333,92.5 64.1667,92.5 64.5,92.5C 68.7363,94.9731 68.403,96.3065 63.5,96.5C 63.5,95.1667 63.5,93.8333 63.5,92.5 Z"/></g>
<g><path style="opacity:1" fill="#e6544a" d="M 88.5,94.5 C 89.8333,94.5 91.1667,94.5 92.5,94.5C 93.1667,94.5 93.8333,94.5 94.5,94.5C 92.0443,96.8676 89.0443,97.8676 85.5,97.5C 85.5,97.1667 85.5,96.8333 85.5,96.5C 86.7777,96.2178 87.7777,95.5511 88.5,94.5 Z"/></g>
<g><path style="opacity:1" fill="#f9670d" d="M 63.5,92.5 C 63.5,93.8333 63.5,95.1667 63.5,96.5C 60.7118,96.9231 58.7118,95.9231 57.5,93.5C 59.396,92.5344 61.396,92.2011 63.5,92.5 Z"/></g>
<g><path style="opacity:1" fill="#f3ad6b" d="M 36.5,95.5 C 38.5648,95.5172 40.5648,95.8505 42.5,96.5C 44.1667,96.5 45.8333,96.5 47.5,96.5C 48.8333,96.5 50.1667,96.5 51.5,96.5C 52.5,96.5 53.5,96.5 54.5,96.5C 57.2869,97.4767 60.2869,97.81 63.5,97.5C 70.8333,97.5 78.1667,97.5 85.5,97.5C 71.6728,98.6607 57.6728,98.8273 43.5,98C 40.8091,97.8442 38.4758,97.0109 36.5,95.5 Z"/></g>
</svg>
