<?xml version="1.0" encoding="UTF-8"?>
<svg version="1.1" xmlns="http://www.w3.org/2000/svg" width="4001" height="4001">
<path d="M0 0 C1320.33 0 2640.66 0 4001 0 C4001 1320.33 4001 2640.66 4001 4001 C2680.67 4001 1360.34 4001 0 4001 C0 2680.67 0 1360.34 0 0 Z " fill="#000000" transform="translate(0,0)"/>
<path d="M0 0 C62.696152 -0.41142679 125.39246228 -0.79300358 188.08959961 -1.01623535 C189.01781747 -1.01954872 189.94603534 -1.02286209 190.90238102 -1.02627587 C211.07598839 -1.09810887 231.24961008 -1.16459277 251.42325312 -1.22556791 C261.31667712 -1.25550348 271.21009725 -1.28662084 281.10351562 -1.31835938 C282.08801966 -1.32149759 283.07252369 -1.32463581 284.08686118 -1.32786912 C315.98676567 -1.43010742 347.8856486 -1.61035097 379.78493442 -1.8311333 C412.57095039 -2.05764026 445.35640124 -2.2052787 478.14318642 -2.25395976 C482.77607225 -2.26087528 487.40895616 -2.26869056 492.0418396 -2.27705383 C492.95364015 -2.27867199 493.8654407 -2.28029014 494.80487157 -2.28195732 C509.47157996 -2.31029849 524.13653887 -2.42155106 538.8025343 -2.56396881 C553.55406171 -2.70544202 568.30385841 -2.75918979 583.05604017 -2.72403306 C591.81789274 -2.70580143 600.57340271 -2.75417819 609.33410694 -2.89914103 C615.19454846 -2.98947011 621.05086211 -2.99172702 626.91159425 -2.92396353 C630.25205658 -2.88781894 633.57097733 -2.90184153 636.91168463 -2.99719638 C656.11055917 -3.51320273 656.11055917 -3.51320273 662.56361461 2.31562793 C667.34769875 8.03348923 670.87179165 14.30835738 674.28723323 20.90702409 C677.07290143 25.93748404 680.54477187 30.41797401 684 35 C686.13500556 38.04177854 688.22563181 41.11254882 690.3125 44.1875 C691.44124636 45.84385897 692.57015523 47.50010721 693.69921875 49.15625 C694.53138916 50.37828125 694.53138916 50.37828125 695.38037109 51.625 C697.78582624 55.15232404 700.20447409 58.67050774 702.625 62.1875 C703.07077393 62.83549561 703.51654785 63.48349121 703.97583008 64.15112305 C704.86955525 65.45024599 705.76335365 66.74931855 706.65722656 68.04833984 C708.47862497 70.69565963 710.29905083 73.34364741 712.11938477 75.99169922 C713.04163744 77.33324661 713.96400117 78.67471767 714.88647461 80.01611328 C717.11767581 83.26070913 719.34760537 86.50615999 721.57421875 89.75390625 C726.93377221 97.56706086 732.3316296 105.35250818 737.75 113.125 C743.6728414 121.62311161 749.53249961 130.16156934 755.35449219 138.72900391 C759.85967831 145.34990473 764.41771731 151.93226472 769 158.5 C775.576244 167.92672244 782.07097819 177.40633678 788.53515625 186.91015625 C792.89631778 193.32193808 797.29090487 199.71051677 801.68945312 206.09667969 C803.49934686 208.72520642 805.3072156 211.35512299 807.11499023 213.98510742 C808.03884291 215.3291152 808.96283396 216.67302787 809.88696289 218.0168457 C812.11801471 221.26118823 814.34777126 224.50640196 816.57421875 227.75390625 C821.22671939 234.53624558 825.90306772 241.30097524 830.60864258 248.04663086 C837.68985625 258.19902837 844.68922352 268.40270141 851.63427734 278.64868164 C857.11504083 286.72417542 862.67085297 294.74487473 868.25512695 302.74902344 C875.09133133 312.55162646 881.8308837 322.41905992 888.56347656 332.29296875 C895.62646932 342.64792267 902.74776066 352.95967716 909.91723633 363.24121094 C915.11397794 370.70326256 920.24410284 378.20871464 925.35498047 385.72973633 C929.86001813 392.35038311 934.41788524 398.9325054 939 405.5 C945.576244 414.92672244 952.07097819 424.40633678 958.53515625 433.91015625 C962.90340799 440.33236212 967.30552714 446.73103546 971.71142578 453.12744141 C972.99573734 454.9938055 974.27755351 456.86185805 975.55859375 458.73046875 C980.92290677 466.55174972 986.32635094 474.34473906 991.75 482.125 C998.98395386 492.50665034 1006.12562819 502.94893007 1013.24023438 513.41259766 C1021.44040828 525.46940164 1029.70993018 537.47518243 1038.04736328 549.4375 C1043.91675588 557.8647657 1049.72041609 566.3356716 1055.50927734 574.81835938 C1057.87427983 578.27948977 1060.24906678 581.73386751 1062.625 585.1875 C1063.07141846 585.8364624 1063.51783691 586.4854248 1063.9777832 587.15405273 C1064.87087138 588.45218945 1065.76401891 589.75028533 1066.65722656 591.04833984 C1068.93908519 594.36491764 1071.21945755 597.6825171 1073.5 601 C1074.41665976 602.33333808 1075.33332642 603.66667142 1076.25 605 C1092.75 629 1092.75 629 1094.1237793 630.99829102 C1095.04443216 632.33737791 1095.96516841 633.67640747 1096.88598633 635.01538086 C1099.11733692 638.26023002 1101.34743948 641.50591802 1103.57421875 644.75390625 C1108.22671939 651.53624558 1112.90306772 658.30097524 1117.60864258 665.04663086 C1124.68985625 675.19902837 1131.68922352 685.40270141 1138.63427734 695.64868164 C1144.11355684 703.72198887 1149.66758553 711.74071594 1155.25073242 719.74243164 C1161.05576682 728.06574697 1166.78923461 736.43651457 1172.50927734 744.81835938 C1176.21921605 750.24777508 1179.95135595 755.66197313 1183.67919922 761.07910156 C1184.97645558 762.96575832 1186.27174505 764.85374916 1187.56640625 766.7421875 C1192.92833892 774.55940577 1198.32899652 782.34861921 1203.75 790.125 C1209.14575501 797.86785073 1214.50196528 805.63594828 1219.8125 813.4375 C1220.73675781 814.79476196 1220.73675781 814.79476196 1221.6796875 816.17944336 C1224.01212489 819.60599117 1226.34379833 823.03304668 1228.67138672 826.46289062 C1230.19470168 828.70641074 1231.72191727 830.94722573 1233.25 833.1875 C1233.91286011 834.16771118 1233.91286011 834.16771118 1234.58911133 835.16772461 C1236.5346281 838.01412107 1238.41876482 840.69532573 1241 843 C1245.64075322 837.94234697 1250.18250335 832.83785742 1254.5 827.5 C1258.11149134 823.03579543 1261.88660694 818.76997886 1265.75390625 814.52734375 C1268.06187598 811.93037607 1270.25555863 809.26595987 1272.4375 806.5625 C1276.29708603 801.79003797 1280.37199991 797.26890891 1284.52734375 792.75390625 C1287.74709519 789.16792716 1290.75905176 785.43298508 1293.78515625 781.68359375 C1295.95632827 779.05291443 1298.20241357 776.52057576 1300.5 774 C1303.61458668 770.58260628 1306.5918662 767.0947765 1309.5 763.5 C1313.11149134 759.03579543 1316.88660694 754.76997886 1320.75390625 750.52734375 C1323.06187598 747.93037607 1325.25555863 745.26595987 1327.4375 742.5625 C1331.29708603 737.79003797 1335.37199991 733.26890891 1339.52734375 728.75390625 C1342.74709519 725.16792716 1345.75905176 721.43298508 1348.78515625 717.68359375 C1350.95632827 715.05291443 1353.20241357 712.52057576 1355.5 710 C1358.61458668 706.58260628 1361.5918662 703.0947765 1364.5 699.5 C1368.11149134 695.03579543 1371.88660694 690.76997886 1375.75390625 686.52734375 C1378.06187598 683.93037607 1380.25555863 681.26595987 1382.4375 678.5625 C1386.29708603 673.79003797 1390.37199991 669.26890891 1394.52734375 664.75390625 C1397.74709519 661.16792716 1400.75905176 657.43298508 1403.78515625 653.68359375 C1405.95632827 651.05291443 1408.20241357 648.52057576 1410.5 646 C1413.61458668 642.58260628 1416.5918662 639.0947765 1419.5 635.5 C1423.11032442 631.03723787 1426.88427929 626.77280467 1430.75 622.53125 C1433.07862053 619.9115519 1435.29562947 617.2248469 1437.5 614.5 C1441.11149134 610.03579543 1444.88660694 605.76997886 1448.75390625 601.52734375 C1451.06187598 598.93037607 1453.25555863 596.26595987 1455.4375 593.5625 C1459.29708603 588.79003797 1463.37199991 584.26890891 1467.52734375 579.75390625 C1470.74709519 576.16792716 1473.75905176 572.43298508 1476.78515625 568.68359375 C1478.95632827 566.05291443 1481.20241357 563.52057576 1483.5 561 C1486.61458668 557.58260628 1489.5918662 554.0947765 1492.5 550.5 C1496.11149134 546.03579543 1499.88660694 541.76997886 1503.75390625 537.52734375 C1506.06187598 534.93037607 1508.25555863 532.26595987 1510.4375 529.5625 C1514.29708603 524.79003797 1518.37199991 520.26890891 1522.52734375 515.75390625 C1525.74709519 512.16792716 1528.75905176 508.43298508 1531.78515625 504.68359375 C1533.95632827 502.05291443 1536.20241357 499.52057576 1538.5 497 C1541.61458668 493.58260628 1544.5918662 490.0947765 1547.5 486.5 C1551.11149134 482.03579543 1554.88660694 477.76997886 1558.75390625 473.52734375 C1561.06187598 470.93037607 1563.25555863 468.26595987 1565.4375 465.5625 C1569.29708603 460.79003797 1573.37199991 456.26890891 1577.52734375 451.75390625 C1580.74709519 448.16792716 1583.75905176 444.43298508 1586.78515625 440.68359375 C1588.95632827 438.05291443 1591.20241357 435.52057576 1593.5 433 C1596.61458668 429.58260628 1599.5918662 426.0947765 1602.5 422.5 C1606.11032442 418.03723787 1609.88427929 413.77280467 1613.75 409.53125 C1616.07862053 406.9115519 1618.29562947 404.2248469 1620.5 401.5 C1624.11149134 397.03579543 1627.88660694 392.76997886 1631.75390625 388.52734375 C1634.06187598 385.93037607 1636.25555863 383.26595987 1638.4375 380.5625 C1642.29708603 375.79003797 1646.37199991 371.26890891 1650.52734375 366.75390625 C1653.74709519 363.16792716 1656.75905176 359.43298508 1659.78515625 355.68359375 C1661.95632827 353.05291443 1664.20241357 350.52057576 1666.5 348 C1669.61458668 344.58260628 1672.5918662 341.0947765 1675.5 337.5 C1679.11149134 333.03579543 1682.88660694 328.76997886 1686.75390625 324.52734375 C1689.06187598 321.93037607 1691.25555863 319.26595987 1693.4375 316.5625 C1697.29708603 311.79003797 1701.37199991 307.26890891 1705.52734375 302.75390625 C1708.74709519 299.16792716 1711.75905176 295.43298508 1714.78515625 291.68359375 C1717.66480887 288.19449084 1720.70693876 284.87003079 1723.75390625 281.52734375 C1726.06187598 278.93037607 1728.25555863 276.26595987 1730.4375 273.5625 C1734.29708603 268.79003797 1738.37199991 264.26890891 1742.52734375 259.75390625 C1745.74709519 256.16792716 1748.75905176 252.43298508 1751.78515625 248.68359375 C1753.95632827 246.05291443 1756.20241357 243.52057576 1758.5 241 C1761.61458668 237.58260628 1764.5918662 234.0947765 1767.5 230.5 C1771.11032442 226.03723787 1774.88427929 221.77280467 1778.75 217.53125 C1781.07862053 214.9115519 1783.29562947 212.2248469 1785.5 209.5 C1789.11149134 205.03579543 1792.88660694 200.76997886 1796.75390625 196.52734375 C1799.06187598 193.93037607 1801.25555863 191.26595987 1803.4375 188.5625 C1807.29825137 183.788597 1811.37437075 179.26611572 1815.53125 174.75 C1817.94378104 172.06262366 1820.2325621 169.31034556 1822.5 166.5 C1826.33719031 161.74404581 1830.39385101 157.24495199 1834.53125 152.75 C1836.94378104 150.06262366 1839.2325621 147.31034556 1841.5 144.5 C1845.33719031 139.74404581 1849.39385101 135.24495199 1853.53125 130.75 C1855.94378104 128.06262366 1858.2325621 125.31034556 1860.5 122.5 C1864.33719031 117.74404581 1868.39385101 113.24495199 1872.53125 108.75 C1874.94378104 106.06262366 1877.2325621 103.31034556 1879.5 100.5 C1883.33719031 95.74404581 1887.39385101 91.24495199 1891.53125 86.75 C1893.94378104 84.06262366 1896.2325621 81.31034556 1898.5 78.5 C1902.33719031 73.74404581 1906.39385101 69.24495199 1910.53125 64.75 C1912.94378104 62.06262366 1915.2325621 59.31034556 1917.5 56.5 C1921.33719031 51.74404581 1925.39385101 47.24495199 1929.53125 42.75 C1931.94378104 40.06262366 1934.2325621 37.31034556 1936.5 34.5 C1939.55348679 30.71539666 1942.70668301 27.07792463 1946 23.5 C1950.10953207 19.03311732 1953.99501643 14.43368185 1957.796875 9.703125 C1958.52390625 8.81109375 1959.2509375 7.9190625 1960 7 C1960.29280916 6.41679458 1960.58561832 5.83358915 1960.88730049 5.23271084 C1962.35810312 2.78314622 1963.57312332 1.5507573 1966 0 C1972.05714635 -1.06974665 1978.08112163 -0.88431871 1984.21435547 -0.79467773 C1986.0969892 -0.79270256 1987.97962832 -0.79381284 1989.86225891 -0.79777527 C1994.96758591 -0.79978316 2000.07176094 -0.75863835 2005.17682028 -0.70975757 C2010.51390836 -0.66598875 2015.85102307 -0.66188568 2021.18826294 -0.65357971 C2031.29249322 -0.6318257 2041.39619313 -0.57438605 2051.5001899 -0.50413328 C2063.00426731 -0.42588268 2074.50837009 -0.38740147 2086.01264739 -0.35226524 C2109.67539226 -0.27910352 2133.33766641 -0.15598427 2157 0 C2154.34149313 4.05812536 2151.63595676 7.64997195 2148.3125 11.1875 C2144.08732631 15.75960878 2140.1235268 20.47348613 2136.21484375 25.31640625 C2134.04367173 27.94708557 2131.79758643 30.47942424 2129.5 33 C2126.38541332 36.41739372 2123.4081338 39.9052235 2120.5 43.5 C2116.88850866 47.96420457 2113.11339306 52.23002114 2109.24609375 56.47265625 C2106.93812402 59.06962393 2104.74444137 61.73404013 2102.5625 64.4375 C2098.70291397 69.20996203 2094.62800009 73.73109109 2090.47265625 78.24609375 C2087.25290481 81.83207284 2084.24094824 85.56701492 2081.21484375 89.31640625 C2079.04367173 91.94708557 2076.79758643 94.47942424 2074.5 97 C2071.38541332 100.41739372 2068.4081338 103.9052235 2065.5 107.5 C2061.88850866 111.96420457 2058.11339306 116.23002114 2054.24609375 120.47265625 C2051.93812402 123.06962393 2049.74444137 125.73404013 2047.5625 128.4375 C2043.70291397 133.20996203 2039.62800009 137.73109109 2035.47265625 142.24609375 C2032.25290481 145.83207284 2029.24094824 149.56701492 2026.21484375 153.31640625 C2023.33519113 156.80550916 2020.29306124 160.12996921 2017.24609375 163.47265625 C2014.93812402 166.06962393 2012.74444137 168.73404013 2010.5625 171.4375 C2006.70291397 176.20996203 2002.62800009 180.73109109 1998.47265625 185.24609375 C1995.25290481 188.83207284 1992.24094824 192.56701492 1989.21484375 196.31640625 C1987.04367173 198.94708557 1984.79758643 201.47942424 1982.5 204 C1979.38541332 207.41739372 1976.4081338 210.9052235 1973.5 214.5 C1969.88850866 218.96420457 1966.11339306 223.23002114 1962.24609375 227.47265625 C1959.93812402 230.06962393 1957.74444137 232.73404013 1955.5625 235.4375 C1951.70291397 240.20996203 1947.62800009 244.73109109 1943.47265625 249.24609375 C1940.25290481 252.83207284 1937.24094824 256.56701492 1934.21484375 260.31640625 C1932.04367173 262.94708557 1929.79758643 265.47942424 1927.5 268 C1924.38541332 271.41739372 1921.4081338 274.9052235 1918.5 278.5 C1914.88850866 282.96420457 1911.11339306 287.23002114 1907.24609375 291.47265625 C1904.93812402 294.06962393 1902.74444137 296.73404013 1900.5625 299.4375 C1896.70291397 304.20996203 1892.62800009 308.73109109 1888.47265625 313.24609375 C1885.25290481 316.83207284 1882.24094824 320.56701492 1879.21484375 324.31640625 C1877.04367173 326.94708557 1874.79758643 329.47942424 1872.5 332 C1869.38541332 335.41739372 1866.4081338 338.9052235 1863.5 342.5 C1859.88850866 346.96420457 1856.11339306 351.23002114 1852.24609375 355.47265625 C1849.93812402 358.06962393 1847.74444137 360.73404013 1845.5625 363.4375 C1841.70291397 368.20996203 1837.62800009 372.73109109 1833.47265625 377.24609375 C1830.25290481 380.83207284 1827.24094824 384.56701492 1824.21484375 388.31640625 C1822.04367173 390.94708557 1819.79758643 393.47942424 1817.5 396 C1814.38541332 399.41739372 1811.4081338 402.9052235 1808.5 406.5 C1804.88850866 410.96420457 1801.11339306 415.23002114 1797.24609375 419.47265625 C1794.93812402 422.06962393 1792.74444137 424.73404013 1790.5625 427.4375 C1786.70291397 432.20996203 1782.62800009 436.73109109 1778.47265625 441.24609375 C1775.25290481 444.83207284 1772.24094824 448.56701492 1769.21484375 452.31640625 C1766.33519113 455.80550916 1763.29306124 459.12996921 1760.24609375 462.47265625 C1757.93812402 465.06962393 1755.74444137 467.73404013 1753.5625 470.4375 C1749.70291397 475.20996203 1745.62800009 479.73109109 1741.47265625 484.24609375 C1738.25290481 487.83207284 1735.24094824 491.56701492 1732.21484375 495.31640625 C1730.04367173 497.94708557 1727.79758643 500.47942424 1725.5 503 C1722.38541332 506.41739372 1719.4081338 509.9052235 1716.5 513.5 C1712.88850866 517.96420457 1709.11339306 522.23002114 1705.24609375 526.47265625 C1702.93812402 529.06962393 1700.74444137 531.73404013 1698.5625 534.4375 C1694.70291397 539.20996203 1690.62800009 543.73109109 1686.47265625 548.24609375 C1683.25290481 551.83207284 1680.24094824 555.56701492 1677.21484375 559.31640625 C1675.04367173 561.94708557 1672.79758643 564.47942424 1670.5 567 C1667.38541332 570.41739372 1664.4081338 573.9052235 1661.5 577.5 C1657.88850866 581.96420457 1654.11339306 586.23002114 1650.24609375 590.47265625 C1647.93812402 593.06962393 1645.74444137 595.73404013 1643.5625 598.4375 C1639.70291397 603.20996203 1635.62800009 607.73109109 1631.47265625 612.24609375 C1628.25290481 615.83207284 1625.24094824 619.56701492 1622.21484375 623.31640625 C1620.04367173 625.94708557 1617.79758643 628.47942424 1615.5 631 C1612.38541332 634.41739372 1609.4081338 637.9052235 1606.5 641.5 C1602.88850866 645.96420457 1599.11339306 650.23002114 1595.24609375 654.47265625 C1592.93812402 657.06962393 1590.74444137 659.73404013 1588.5625 662.4375 C1584.70291397 667.20996203 1580.62800009 671.73109109 1576.47265625 676.24609375 C1573.25290481 679.83207284 1570.24094824 683.56701492 1567.21484375 687.31640625 C1565.04367173 689.94708557 1562.79758643 692.47942424 1560.5 695 C1557.38541332 698.41739372 1554.4081338 701.9052235 1551.5 705.5 C1547.88850866 709.96420457 1544.11339306 714.23002114 1540.24609375 718.47265625 C1537.93812402 721.06962393 1535.74444137 723.73404013 1533.5625 726.4375 C1529.70291397 731.20996203 1525.62800009 735.73109109 1521.47265625 740.24609375 C1518.25290481 743.83207284 1515.24094824 747.56701492 1512.21484375 751.31640625 C1509.33519113 754.80550916 1506.29306124 758.12996921 1503.24609375 761.47265625 C1500.93812402 764.06962393 1498.74444137 766.73404013 1496.5625 769.4375 C1492.70291397 774.20996203 1488.62800009 778.73109109 1484.47265625 783.24609375 C1481.25290481 786.83207284 1478.24094824 790.56701492 1475.21484375 794.31640625 C1473.04367173 796.94708557 1470.79758643 799.47942424 1468.5 802 C1465.38541332 805.41739372 1462.4081338 808.9052235 1459.5 812.5 C1455.88850866 816.96420457 1452.11339306 821.23002114 1448.24609375 825.47265625 C1445.93812402 828.06962393 1443.74444137 830.73404013 1441.5625 833.4375 C1437.70291397 838.20996203 1433.62800009 842.73109109 1429.47265625 847.24609375 C1426.25290481 850.83207284 1423.24094824 854.56701492 1420.21484375 858.31640625 C1417.33519113 861.80550916 1414.29306124 865.12996921 1411.24609375 868.47265625 C1408.93812402 871.06962393 1406.74444137 873.73404013 1404.5625 876.4375 C1400.70291397 881.20996203 1396.62800009 885.73109109 1392.47265625 890.24609375 C1389.25290481 893.83207284 1386.24094824 897.56701492 1383.21484375 901.31640625 C1381.04367173 903.94708557 1378.79758643 906.47942424 1376.5 909 C1373.38541332 912.41739372 1370.4081338 915.9052235 1367.5 919.5 C1363.88967558 923.96276213 1360.11572071 928.22719533 1356.25 932.46875 C1353.92137947 935.0884481 1351.70437053 937.7751531 1349.5 940.5 C1345.90072669 944.94910173 1342.13947202 949.2014963 1338.28515625 953.4296875 C1334.37335788 957.82962481 1330.68921194 962.41246931 1327 967 C1328.36648922 970.76523065 1330.08869881 973.84865588 1332.3515625 977.1484375 C1333.02977051 978.14190186 1333.70797852 979.13536621 1334.40673828 980.15893555 C1335.50477783 981.75088745 1335.50477783 981.75088745 1336.625 983.375 C1337.39210134 984.49431664 1338.15886043 985.61386789 1338.92529297 986.73364258 C1344.61348311 995.03271421 1350.35918714 1003.2920803 1356.11767578 1011.54248047 C1360.62151204 1017.99949405 1365.07536253 1024.48849952 1369.5 1031 C1374.61934317 1038.53355592 1379.78829947 1046.03004297 1385 1053.5 C1392.1502584 1063.75058269 1399.20415414 1074.06427385 1406.23144531 1084.39941406 C1413.38285511 1094.91526403 1420.5649909 1105.40610258 1427.875 1115.8125 C1434.77439621 1125.63435629 1441.53225797 1135.54971459 1448.28076172 1145.47558594 C1452.06344291 1151.02982103 1455.87765543 1156.562408 1459.68945312 1162.09667969 C1461.49934686 1164.72520642 1463.3072156 1167.35512299 1465.11499023 1169.98510742 C1466.03884291 1171.3291152 1466.96283396 1172.67302787 1467.88696289 1174.0168457 C1470.11801471 1177.26118823 1472.34777126 1180.50640196 1474.57421875 1183.75390625 C1479.22688537 1190.53648753 1483.90342482 1197.30144159 1488.60913086 1204.04736328 C1495.74010724 1214.27099152 1502.78623524 1224.54779951 1509.77929688 1234.86621094 C1514.72945036 1242.15961889 1519.75411705 1249.39607559 1524.82592773 1256.60522461 C1531.07227448 1265.49746253 1537.1710272 1274.48923266 1543.28076172 1283.47558594 C1547.06344291 1289.02982103 1550.87765543 1294.562408 1554.68945312 1300.09667969 C1556.96155061 1303.39646956 1559.23057913 1306.69836901 1561.5 1310 C1562.41665286 1311.33334282 1563.33331951 1312.66667617 1564.25 1314 C1569.75000001 1322.00000001 1569.75000001 1322.00000001 1571.1237793 1323.99829102 C1572.04443216 1325.33737791 1572.96516841 1326.67640747 1573.88598633 1328.01538086 C1576.11733692 1331.26023002 1578.34743948 1334.50591802 1580.57421875 1337.75390625 C1585.93377249 1345.56706127 1591.33168193 1353.35247139 1596.75 1361.125 C1604.01698153 1371.55304076 1611.18626699 1382.04536233 1618.33496094 1392.5546875 C1625.07663347 1402.45565409 1631.90091465 1412.29812248 1638.75 1422.125 C1646.01687667 1432.55311478 1653.18626608 1443.045361 1660.33496094 1453.5546875 C1667.07663347 1463.45565409 1673.90091465 1473.29812248 1680.75 1483.125 C1687.40721604 1492.67823946 1693.98661533 1502.2822005 1700.53515625 1511.91015625 C1704.90340799 1518.33236212 1709.30552714 1524.73103546 1713.71142578 1531.12744141 C1714.99573734 1532.9938055 1716.27755351 1534.86185805 1717.55859375 1536.73046875 C1722.92290677 1544.55174972 1728.32635094 1552.34473906 1733.75 1560.125 C1740.98395386 1570.50665034 1748.12562819 1580.94893007 1755.24023438 1591.41259766 C1763.44040828 1603.46940164 1771.70993018 1615.47518243 1780.04736328 1627.4375 C1785.91675588 1635.8647657 1791.72041609 1644.3356716 1797.50927734 1652.81835938 C1799.87427983 1656.27948977 1802.24906678 1659.73386751 1804.625 1663.1875 C1805.07141846 1663.8364624 1805.51783691 1664.4854248 1805.9777832 1665.15405273 C1806.87087138 1666.45218945 1807.76401891 1667.75028533 1808.65722656 1669.04833984 C1810.47862497 1671.69565963 1812.29905083 1674.34364741 1814.11938477 1676.99169922 C1815.04163744 1678.33324661 1815.96400117 1679.67471767 1816.88647461 1681.01611328 C1819.11767581 1684.26070913 1821.34760537 1687.50615999 1823.57421875 1690.75390625 C1824.4451913 1692.02352065 1825.31628705 1693.29305055 1826.1875 1694.5625 C1826.63198486 1695.21025391 1827.07646973 1695.85800781 1827.53442383 1696.52539062 C1830.23544835 1700.45449538 1832.95433672 1704.37051975 1835.6875 1708.27734375 C1843.4065709 1719.31699952 1851.01409479 1730.4154965 1858.4206543 1741.66796875 C1862.17883801 1747.35677696 1866.07732324 1752.90879534 1870.11132812 1758.40527344 C1872.82368259 1762.1316053 1875.4155598 1765.93436944 1878 1769.75 C1882.91364135 1776.96913875 1887.87807179 1784.15078075 1892.875 1791.3125 C1899.49467892 1800.80614656 1906.03413826 1810.35199505 1912.54296875 1819.921875 C1915.99474284 1824.99673144 1919.46834449 1830.0562556 1922.94970703 1835.11083984 C1925.30772441 1838.53555873 1927.66015937 1841.9639325 1930.00390625 1845.3984375 C1935.96159312 1854.1279368 1941.95673203 1862.82947499 1948 1871.5 C1954.55488806 1880.90456739 1961.04752285 1890.34964981 1967.50927734 1899.81835938 C1969.87427983 1903.27948977 1972.24906678 1906.73386751 1974.625 1910.1875 C1975.07141846 1910.8364624 1975.51783691 1911.4854248 1975.9777832 1912.15405273 C1976.87087138 1913.45218945 1977.76401891 1914.75028533 1978.65722656 1916.04833984 C1980.47862497 1918.69565963 1982.29905083 1921.34364741 1984.11938477 1923.99169922 C1985.04163744 1925.33324661 1985.96400117 1926.67471767 1986.88647461 1928.01611328 C1989.11767581 1931.26070913 1991.34760537 1934.50615999 1993.57421875 1937.75390625 C1998.22671939 1944.53624558 2002.90306772 1951.30097524 2007.60864258 1958.04663086 C2014.68985625 1968.19902837 2021.68922352 1978.40270141 2028.63427734 1988.64868164 C2034.11355684 1996.72198887 2039.66758553 2004.74071594 2045.25073242 2012.74243164 C2051.05576682 2021.06574697 2056.78923461 2029.43651457 2062.50927734 2037.81835938 C2066.21921605 2043.24777508 2069.95135595 2048.66197313 2073.67919922 2054.07910156 C2074.97645558 2055.96575832 2076.27174505 2057.85374916 2077.56640625 2059.7421875 C2082.92833912 2067.55940605 2088.32903634 2075.34859128 2093.75 2083.125 C2100.98395386 2093.50665034 2108.12562819 2103.94893007 2115.24023438 2114.41259766 C2123.44040828 2126.46940164 2131.70993018 2138.47518243 2140.04736328 2150.4375 C2145.91675588 2158.8647657 2151.72041609 2167.3356716 2157.50927734 2175.81835938 C2159.87427988 2179.27948984 2162.24908509 2182.73385485 2164.625 2186.1875 C2165.07286865 2186.8386377 2165.5207373 2187.48977539 2165.98217773 2188.16064453 C2167.32126946 2190.10722191 2168.66059113 2192.05364084 2170 2194 C2171.79195165 2196.60397073 2173.58364297 2199.20812017 2175.375 2201.8125 C2175.82738037 2202.47008301 2176.27976074 2203.12766602 2176.74584961 2203.80517578 C2179.1762689 2207.34009841 2181.60142742 2210.87851493 2184.01953125 2214.421875 C2189.93006689 2223.0813256 2195.87788765 2231.71273063 2201.875 2240.3125 C2207.86134828 2248.89835417 2213.79328804 2257.51914052 2219.67358398 2266.17797852 C2222.55576538 2270.42135123 2225.44813639 2274.6559931 2228.3828125 2278.86328125 C2228.90125732 2279.60843994 2229.41970215 2280.35359863 2229.95385742 2281.12133789 C2230.91626569 2282.502157 2231.88236025 2283.88041693 2232.8527832 2285.25561523 C2236 2289.77803552 2236 2289.77803552 2236 2292 C2173.303848 2292.41142679 2110.60753772 2292.79300358 2047.91040039 2293.01623535 C2046.98218253 2293.01954872 2046.05396466 2293.02286209 2045.09761898 2293.02627587 C2024.92401161 2293.09810887 2004.75038992 2293.16459277 1984.57674688 2293.22556791 C1974.68332288 2293.25550348 1964.78990275 2293.28662084 1954.89648438 2293.31835938 C1953.91198034 2293.32149759 1952.92747631 2293.32463581 1951.91313882 2293.32786912 C1920.01323433 2293.43010742 1888.1143514 2293.61035097 1856.21506558 2293.8311333 C1823.42904961 2294.05764026 1790.64359876 2294.2052787 1757.85681358 2294.25395976 C1753.22392775 2294.26087528 1748.59104384 2294.26869056 1743.9581604 2294.27705383 C1743.04635985 2294.27867199 1742.1345593 2294.28029014 1741.19512843 2294.28195732 C1726.52842004 2294.31029849 1711.86346113 2294.42155106 1697.1974657 2294.56396881 C1682.44593829 2294.70544202 1667.69614159 2294.75918979 1652.94395983 2294.72403306 C1644.18210726 2294.70580143 1635.42659729 2294.75417819 1626.66589306 2294.89914103 C1620.80545154 2294.98947011 1614.94913789 2294.99172702 1609.08840575 2294.92396353 C1605.74794342 2294.88781894 1602.42902267 2294.90184153 1599.08831537 2294.99719638 C1579.88944083 2295.51320273 1579.88944083 2295.51320273 1573.43638539 2289.68437207 C1568.65241443 2283.96664603 1565.12830339 2277.69195778 1561.71304142 2271.0933879 C1558.92729862 2266.06292981 1555.45637423 2261.58127815 1552 2257 C1549.90669386 2254.02069262 1547.85765299 2251.01251265 1545.8125 2248 C1544.68229618 2246.34244484 1543.55208772 2244.68489284 1542.421875 2243.02734375 C1541.28119225 2241.35160181 1540.14056659 2239.675821 1539 2238 C1532.43052081 2228.35624058 1525.83299374 2218.73558689 1519.125 2209.1875 C1512.22553493 2199.36569304 1505.46774116 2189.45028412 1498.71923828 2179.52441406 C1494.93655709 2173.97017897 1491.12234457 2168.437592 1487.31054688 2162.90332031 C1485.50065314 2160.27479358 1483.6927844 2157.64487701 1481.88500977 2155.01489258 C1480.96115709 2153.6708848 1480.03716604 2152.32697213 1479.11303711 2150.9831543 C1476.88198529 2147.73881177 1474.65222874 2144.49359804 1472.42578125 2141.24609375 C1467.06622751 2133.43293873 1461.66831807 2125.64752861 1456.25 2117.875 C1449.59268788 2108.32182831 1443.01338386 2098.71779831 1436.46484375 2089.08984375 C1432.09659201 2082.66763788 1427.69447286 2076.26896454 1423.28857422 2069.87255859 C1422.00426266 2068.0061945 1420.72244649 2066.13814195 1419.44140625 2064.26953125 C1414.07709343 2056.44825057 1408.67368889 2048.655233 1403.25 2040.875 C1395.98301847 2030.44695924 1388.81373301 2019.95463767 1381.66503906 2009.4453125 C1375.59536209 2000.53125318 1369.4642362 1991.66062105 1363.29785156 1982.81323242 C1355.3871674 1971.46307936 1347.56035151 1960.05914669 1339.78173828 1948.61816406 C1334.8704112 1941.4012455 1329.93437538 1934.20116999 1325 1927 C1324.54737793 1926.3390332 1324.09475586 1925.67806641 1323.62841797 1924.99707031 C1317.83142374 1916.53427371 1311.98875454 1908.10417698 1306.125 1899.6875 C1299.52953155 1890.21973615 1292.99478147 1880.71234068 1286.49072266 1871.18164062 C1284.12572017 1867.72051023 1281.75093322 1864.26613249 1279.375 1860.8125 C1278.92858154 1860.1635376 1278.48216309 1859.5145752 1278.0222168 1858.84594727 C1277.12912862 1857.54781055 1276.23598109 1856.24971467 1275.34277344 1854.95166016 C1273.06091481 1851.63508236 1270.78054245 1848.3174829 1268.5 1845 C1267.58334024 1843.66666192 1266.66667358 1842.33332858 1265.75 1841 C1249.25 1817 1249.25 1817 1247.8762207 1815.00170898 C1246.95556784 1813.66262209 1246.03483159 1812.32359253 1245.11401367 1810.98461914 C1242.88266308 1807.73976998 1240.65256052 1804.49408198 1238.42578125 1801.24609375 C1233.06622779 1793.43293914 1227.6683704 1785.64749182 1222.25 1777.875 C1216.32564895 1769.37472235 1210.46440836 1760.83414706 1204.64111328 1752.2644043 C1200.17974682 1745.70765356 1195.66453855 1739.19032235 1191.125 1732.6875 C1184.79723864 1723.62140917 1178.56343167 1714.49499903 1172.36035156 1705.34326172 C1166.93037052 1697.34242695 1161.42424316 1689.39737684 1155.88989258 1681.46850586 C1149.41005347 1672.17594966 1143.03664661 1662.81223966 1136.66503906 1653.4453125 C1130.59536209 1644.53125318 1124.4642362 1635.66062105 1118.29785156 1626.81323242 C1110.38299579 1615.45709398 1102.55167309 1604.04733235 1094.76855469 1592.60058594 C1087.61714489 1582.08473597 1080.4350091 1571.59389742 1073.125 1561.1875 C1066.22560379 1551.36564371 1059.46774203 1541.45028541 1052.71923828 1531.52441406 C1048.92946154 1525.95976034 1045.10769487 1520.4170906 1041.28857422 1514.87255859 C1040.00426266 1513.0061945 1038.72244649 1511.13814195 1037.44140625 1509.26953125 C1032.07709323 1501.44825028 1026.67364906 1493.65526094 1021.25 1485.875 C1014.01604614 1475.49334966 1006.87437181 1465.05106993 999.75976562 1454.58740234 C992.14653403 1443.39358596 984.4837658 1432.23593647 976.75 1421.125 C976.07203369 1420.15030762 975.39406738 1419.17561523 974.69555664 1418.17138672 C971.80233603 1414.01430977 968.90546726 1409.86020609 965.984375 1405.72265625 C965.34097168 1404.80685791 965.34097168 1404.80685791 964.68457031 1403.87255859 C963.59514118 1402.32283892 962.50092236 1400.77648923 961.40625 1399.23046875 C960 1397 960 1397 960 1395 C951.8857715 1403.02666489 944.33529844 1411.46434464 937.1796875 1420.3515625 C935.02242601 1422.97275119 932.78689 1425.49154281 930.5 1428 C927.40444804 1431.39598682 924.44848793 1434.86171531 921.5625 1438.4375 C917.70291397 1443.20996203 913.62800009 1447.73109109 909.47265625 1452.24609375 C906.25290481 1455.83207284 903.24094824 1459.56701492 900.21484375 1463.31640625 C898.04367173 1465.94708557 895.79758643 1468.47942424 893.5 1471 C890.38541332 1474.41739372 887.4081338 1477.9052235 884.5 1481.5 C880.88850866 1485.96420457 877.11339306 1490.23002114 873.24609375 1494.47265625 C870.93812402 1497.06962393 868.74444137 1499.73404013 866.5625 1502.4375 C862.70291397 1507.20996203 858.62800009 1511.73109109 854.47265625 1516.24609375 C851.25290481 1519.83207284 848.24094824 1523.56701492 845.21484375 1527.31640625 C842.33519113 1530.80550916 839.29306124 1534.12996921 836.24609375 1537.47265625 C833.93812402 1540.06962393 831.74444137 1542.73404013 829.5625 1545.4375 C825.70291397 1550.20996203 821.62800009 1554.73109109 817.47265625 1559.24609375 C814.25290481 1562.83207284 811.24094824 1566.56701492 808.21484375 1570.31640625 C806.04367173 1572.94708557 803.79758643 1575.47942424 801.5 1578 C798.38541332 1581.41739372 795.4081338 1584.9052235 792.5 1588.5 C788.88850866 1592.96420457 785.11339306 1597.23002114 781.24609375 1601.47265625 C778.93812402 1604.06962393 776.74444137 1606.73404013 774.5625 1609.4375 C770.70291397 1614.20996203 766.62800009 1618.73109109 762.47265625 1623.24609375 C759.25290481 1626.83207284 756.24094824 1630.56701492 753.21484375 1634.31640625 C750.33519113 1637.80550916 747.29306124 1641.12996921 744.24609375 1644.47265625 C741.93812402 1647.06962393 739.74444137 1649.73404013 737.5625 1652.4375 C733.70291397 1657.20996203 729.62800009 1661.73109109 725.47265625 1666.24609375 C722.25290481 1669.83207284 719.24094824 1673.56701492 716.21484375 1677.31640625 C714.04367173 1679.94708557 711.79758643 1682.47942424 709.5 1685 C706.38541332 1688.41739372 703.4081338 1691.9052235 700.5 1695.5 C696.88967558 1699.96276213 693.11572071 1704.22719533 689.25 1708.46875 C686.92137947 1711.0884481 684.70437053 1713.7751531 682.5 1716.5 C678.88850866 1720.96420457 675.11339306 1725.23002114 671.24609375 1729.47265625 C668.93812402 1732.06962393 666.74444137 1734.73404013 664.5625 1737.4375 C660.70291397 1742.20996203 656.62800009 1746.73109109 652.47265625 1751.24609375 C649.25290481 1754.83207284 646.24094824 1758.56701492 643.21484375 1762.31640625 C641.04367173 1764.94708557 638.79758643 1767.47942424 636.5 1770 C633.38541332 1773.41739372 630.4081338 1776.9052235 627.5 1780.5 C623.88850866 1784.96420457 620.11339306 1789.23002114 616.24609375 1793.47265625 C613.93812402 1796.06962393 611.74444137 1798.73404013 609.5625 1801.4375 C605.70291397 1806.20996203 601.62800009 1810.73109109 597.47265625 1815.24609375 C594.25290481 1818.83207284 591.24094824 1822.56701492 588.21484375 1826.31640625 C585.33519113 1829.80550916 582.29306124 1833.12996921 579.24609375 1836.47265625 C576.93812402 1839.06962393 574.74444137 1841.73404013 572.5625 1844.4375 C568.70291397 1849.20996203 564.62800009 1853.73109109 560.47265625 1858.24609375 C557.25290481 1861.83207284 554.24094824 1865.56701492 551.21484375 1869.31640625 C549.04367173 1871.94708557 546.79758643 1874.47942424 544.5 1877 C541.38541332 1880.41739372 538.4081338 1883.9052235 535.5 1887.5 C531.88850866 1891.96420457 528.11339306 1896.23002114 524.24609375 1900.47265625 C521.93812402 1903.06962393 519.74444137 1905.73404013 517.5625 1908.4375 C513.70291397 1913.20996203 509.62800009 1917.73109109 505.47265625 1922.24609375 C502.25290481 1925.83207284 499.24094824 1929.56701492 496.21484375 1933.31640625 C494.04367173 1935.94708557 491.79758643 1938.47942424 489.5 1941 C486.38541332 1944.41739372 483.4081338 1947.9052235 480.5 1951.5 C476.88850866 1955.96420457 473.11339306 1960.23002114 469.24609375 1964.47265625 C466.93812402 1967.06962393 464.74444137 1969.73404013 462.5625 1972.4375 C458.70291397 1977.20996203 454.62800009 1981.73109109 450.47265625 1986.24609375 C447.25290481 1989.83207284 444.24094824 1993.56701492 441.21484375 1997.31640625 C438.33519113 2000.80550916 435.29306124 2004.12996921 432.24609375 2007.47265625 C429.93812402 2010.06962393 427.74444137 2012.73404013 425.5625 2015.4375 C421.70291397 2020.20996203 417.62800009 2024.73109109 413.47265625 2029.24609375 C410.25290481 2032.83207284 407.24094824 2036.56701492 404.21484375 2040.31640625 C402.04367173 2042.94708557 399.79758643 2045.47942424 397.5 2048 C394.38541332 2051.41739372 391.4081338 2054.9052235 388.5 2058.5 C384.88850866 2062.96420457 381.11339306 2067.23002114 377.24609375 2071.47265625 C374.93812402 2074.06962393 372.74444137 2076.73404013 370.5625 2079.4375 C366.70291397 2084.20996203 362.62800009 2088.73109109 358.47265625 2093.24609375 C355.25290481 2096.83207284 352.24094824 2100.56701492 349.21484375 2104.31640625 C346.33519113 2107.80550916 343.29306124 2111.12996921 340.24609375 2114.47265625 C337.93812402 2117.06962393 335.74444137 2119.73404013 333.5625 2122.4375 C329.70291397 2127.20996203 325.62800009 2131.73109109 321.47265625 2136.24609375 C318.25290481 2139.83207284 315.24094824 2143.56701492 312.21484375 2147.31640625 C310.04367173 2149.94708557 307.79758643 2152.47942424 305.5 2155 C302.38541332 2158.41739372 299.4081338 2161.9052235 296.5 2165.5 C292.88967558 2169.96276213 289.11572071 2174.22719533 285.25 2178.46875 C282.92137947 2181.0884481 280.70437053 2183.7751531 278.5 2186.5 C274.88850866 2190.96420457 271.11339306 2195.23002114 267.24609375 2199.47265625 C264.93812402 2202.06962393 262.74444137 2204.73404013 260.5625 2207.4375 C256.70291397 2212.20996203 252.62800009 2216.73109109 248.47265625 2221.24609375 C245.25290481 2224.83207284 242.24094824 2228.56701492 239.21484375 2232.31640625 C237.04367173 2234.94708557 234.79758643 2237.47942424 232.5 2240 C229.38541332 2243.41739372 226.4081338 2246.9052235 223.5 2250.5 C219.88850866 2254.96420457 216.11339306 2259.23002114 212.24609375 2263.47265625 C209.93812402 2266.06962393 207.74444137 2268.73404013 205.5625 2271.4375 C201.60395178 2276.33524683 197.44683829 2280.97396317 193.1640625 2285.58984375 C190.98988131 2287.82605123 190.98988131 2287.82605123 189.84048748 2290.12057114 C187.52394337 2292.48612912 185.8432371 2292.47801053 182.61369115 2292.51632524 C181.87925855 2292.50467387 181.14482595 2292.4930225 180.38813782 2292.48101807 C179.60561604 2292.48443577 178.82309427 2292.48785347 178.01685971 2292.49137473 C175.38627783 2292.49798037 172.75670907 2292.47593406 170.1262207 2292.45410156 C168.24402897 2292.45297366 166.36183548 2292.45360582 164.47964478 2292.45587158 C159.36206372 2292.4570219 154.24485569 2292.43346124 149.12736154 2292.40557575 C143.78220768 2292.38061493 138.4370458 2292.3782243 133.09184265 2292.37347412 C122.9664348 2292.36102869 112.84119915 2292.32818585 102.71586722 2292.28807616 C91.19004365 2292.24340722 79.66421197 2292.22138369 68.13832343 2292.20129442 C44.42545338 2292.15945461 20.71273633 2292.08907209 -3 2292 C-2.04785033 2290.71955128 -1.09418839 2289.440227 -0.13989258 2288.16137695 C0.39101486 2287.44883255 0.9219223 2286.73628815 1.46891785 2286.00215149 C3.29824704 2283.60999104 5.26215553 2281.39229603 7.3125 2279.1875 C10.49283241 2275.70884495 13.5373212 2272.16586259 16.5 2268.5 C20.11032442 2264.03723787 23.88427929 2259.77280467 27.75 2255.53125 C30.07862053 2252.9115519 32.29562947 2250.2248469 34.5 2247.5 C38.11032442 2243.03723787 41.88427929 2238.77280467 45.75 2234.53125 C48.07862053 2231.9115519 50.29562947 2229.2248469 52.5 2226.5 C56.11149134 2222.03579543 59.88660694 2217.76997886 63.75390625 2213.52734375 C66.06187598 2210.93037607 68.25555863 2208.26595987 70.4375 2205.5625 C74.29708603 2200.79003797 78.37199991 2196.26890891 82.52734375 2191.75390625 C85.74709519 2188.16792716 88.75905176 2184.43298508 91.78515625 2180.68359375 C93.95632827 2178.05291443 96.20241357 2175.52057576 98.5 2173 C101.61458668 2169.58260628 104.5918662 2166.0947765 107.5 2162.5 C111.11149134 2158.03579543 114.88660694 2153.76997886 118.75390625 2149.52734375 C121.06187598 2146.93037607 123.25555863 2144.26595987 125.4375 2141.5625 C129.29708603 2136.79003797 133.37199991 2132.26890891 137.52734375 2127.75390625 C140.74709519 2124.16792716 143.75905176 2120.43298508 146.78515625 2116.68359375 C148.95632827 2114.05291443 151.20241357 2111.52057576 153.5 2109 C156.61458668 2105.58260628 159.5918662 2102.0947765 162.5 2098.5 C166.11149134 2094.03579543 169.88660694 2089.76997886 173.75390625 2085.52734375 C176.06187598 2082.93037607 178.25555863 2080.26595987 180.4375 2077.5625 C184.29708603 2072.79003797 188.37199991 2068.26890891 192.52734375 2063.75390625 C195.74709519 2060.16792716 198.75905176 2056.43298508 201.78515625 2052.68359375 C203.95632827 2050.05291443 206.20241357 2047.52057576 208.5 2045 C211.61458668 2041.58260628 214.5918662 2038.0947765 217.5 2034.5 C221.11149134 2030.03579543 224.88660694 2025.76997886 228.75390625 2021.52734375 C231.06187598 2018.93037607 233.25555863 2016.26595987 235.4375 2013.5625 C239.29708603 2008.79003797 243.37199991 2004.26890891 247.52734375 1999.75390625 C250.74709519 1996.16792716 253.75905176 1992.43298508 256.78515625 1988.68359375 C258.95632827 1986.05291443 261.20241357 1983.52057576 263.5 1981 C266.61458668 1977.58260628 269.5918662 1974.0947765 272.5 1970.5 C276.11032442 1966.03723787 279.88427929 1961.77280467 283.75 1957.53125 C286.07862053 1954.9115519 288.29562947 1952.2248469 290.5 1949.5 C294.11149134 1945.03579543 297.88660694 1940.76997886 301.75390625 1936.52734375 C304.06187598 1933.93037607 306.25555863 1931.26595987 308.4375 1928.5625 C312.29708603 1923.79003797 316.37199991 1919.26890891 320.52734375 1914.75390625 C323.74709519 1911.16792716 326.75905176 1907.43298508 329.78515625 1903.68359375 C332.66480887 1900.19449084 335.70693876 1896.87003079 338.75390625 1893.52734375 C341.06187598 1890.93037607 343.25555863 1888.26595987 345.4375 1885.5625 C349.29708603 1880.79003797 353.37199991 1876.26890891 357.52734375 1871.75390625 C360.74709519 1868.16792716 363.75905176 1864.43298508 366.78515625 1860.68359375 C368.95632827 1858.05291443 371.20241357 1855.52057576 373.5 1853 C376.61458668 1849.58260628 379.5918662 1846.0947765 382.5 1842.5 C386.11032442 1838.03723787 389.88427929 1833.77280467 393.75 1829.53125 C396.07862053 1826.9115519 398.29562947 1824.2248469 400.5 1821.5 C404.11149134 1817.03579543 407.88660694 1812.76997886 411.75390625 1808.52734375 C414.06187598 1805.93037607 416.25555863 1803.26595987 418.4375 1800.5625 C422.29708603 1795.79003797 426.37199991 1791.26890891 430.52734375 1786.75390625 C433.74709519 1783.16792716 436.75905176 1779.43298508 439.78515625 1775.68359375 C441.95632827 1773.05291443 444.20241357 1770.52057576 446.5 1768 C449.61458668 1764.58260628 452.5918662 1761.0947765 455.5 1757.5 C459.11032442 1753.03723787 462.88427929 1748.77280467 466.75 1744.53125 C469.07862053 1741.9115519 471.29562947 1739.2248469 473.5 1736.5 C477.11149134 1732.03579543 480.88660694 1727.76997886 484.75390625 1723.52734375 C487.06187598 1720.93037607 489.25555863 1718.26595987 491.4375 1715.5625 C495.29708603 1710.79003797 499.37199991 1706.26890891 503.52734375 1701.75390625 C506.74709519 1698.16792716 509.75905176 1694.43298508 512.78515625 1690.68359375 C514.95632827 1688.05291443 517.20241357 1685.52057576 519.5 1683 C522.61458668 1679.58260628 525.5918662 1676.0947765 528.5 1672.5 C532.11149134 1668.03579543 535.88660694 1663.76997886 539.75390625 1659.52734375 C542.06187598 1656.93037607 544.25555863 1654.26595987 546.4375 1651.5625 C550.29708603 1646.79003797 554.37199991 1642.26890891 558.52734375 1637.75390625 C561.74709519 1634.16792716 564.75905176 1630.43298508 567.78515625 1626.68359375 C569.95632827 1624.05291443 572.20241357 1621.52057576 574.5 1619 C577.61458668 1615.58260628 580.5918662 1612.0947765 583.5 1608.5 C587.11149134 1604.03579543 590.88660694 1599.76997886 594.75390625 1595.52734375 C597.06187598 1592.93037607 599.25555863 1590.26595987 601.4375 1587.5625 C605.29708603 1582.79003797 609.37199991 1578.26890891 613.52734375 1573.75390625 C616.74709519 1570.16792716 619.75905176 1566.43298508 622.78515625 1562.68359375 C624.95632827 1560.05291443 627.20241357 1557.52057576 629.5 1555 C632.61458668 1551.58260628 635.5918662 1548.0947765 638.5 1544.5 C642.11032442 1540.03723787 645.88427929 1535.77280467 649.75 1531.53125 C652.07862053 1528.9115519 654.29562947 1526.2248469 656.5 1523.5 C660.11149134 1519.03579543 663.88660694 1514.76997886 667.75390625 1510.52734375 C670.06187598 1507.93037607 672.25555863 1505.26595987 674.4375 1502.5625 C678.29708603 1497.79003797 682.37199991 1493.26890891 686.52734375 1488.75390625 C689.74709519 1485.16792716 692.75905176 1481.43298508 695.78515625 1477.68359375 C697.95632827 1475.05291443 700.20241357 1472.52057576 702.5 1470 C705.61458668 1466.58260628 708.5918662 1463.0947765 711.5 1459.5 C715.11149134 1455.03579543 718.88660694 1450.76997886 722.75390625 1446.52734375 C725.06187598 1443.93037607 727.25555863 1441.26595987 729.4375 1438.5625 C733.29708603 1433.79003797 737.37199991 1429.26890891 741.52734375 1424.75390625 C744.74709519 1421.16792716 747.75905176 1417.43298508 750.78515625 1413.68359375 C752.95632827 1411.05291443 755.20241357 1408.52057576 757.5 1406 C760.61458668 1402.58260628 763.5918662 1399.0947765 766.5 1395.5 C770.11149134 1391.03579543 773.88660694 1386.76997886 777.75390625 1382.52734375 C780.06187598 1379.93037607 782.25555863 1377.26595987 784.4375 1374.5625 C788.29708603 1369.79003797 792.37199991 1365.26890891 796.52734375 1360.75390625 C799.74709519 1357.16792716 802.75905176 1353.43298508 805.78515625 1349.68359375 C807.95632827 1347.05291443 810.20241357 1344.52057576 812.5 1342 C815.61458668 1338.58260628 818.5918662 1335.0947765 821.5 1331.5 C825.11032442 1327.03723787 828.88427929 1322.77280467 832.75 1318.53125 C835.07862053 1315.9115519 837.29562947 1313.2248469 839.5 1310.5 C843.11149134 1306.03579543 846.88660694 1301.76997886 850.75390625 1297.52734375 C853.84189985 1294.05267965 856.7379802 1290.43535214 859.64453125 1286.80859375 C861.32881317 1284.80030403 863.00751652 1282.91346249 864.82421875 1281.03515625 C865.52430054 1280.30413696 865.52430054 1280.30413696 866.23852539 1279.55834961 C867.5558742 1278.19646285 868.89077701 1276.85162073 870.2265625 1275.5078125 C872.24538544 1273.17168416 872.24538544 1273.17168416 871.9765625 1270.5 C870.86058629 1267.6431009 869.50069829 1265.39806519 867.75 1262.875 C867.02296875 1261.81667969 866.2959375 1260.75835938 865.546875 1259.66796875 C865.14017578 1259.08321777 864.73347656 1258.4984668 864.31445312 1257.89599609 C862.91135196 1255.87213212 861.5246862 1253.8377102 860.140625 1251.80078125 C853.52715448 1242.0779925 846.82013132 1232.42161138 840.0949707 1222.77587891 C834.16010073 1214.25317509 828.30562983 1205.67718071 822.46484375 1197.08984375 C818.09659201 1190.66763788 813.69447286 1184.26896454 809.28857422 1177.87255859 C808.00426266 1176.0061945 806.72244649 1174.13814195 805.44140625 1172.26953125 C800.78407386 1165.47911617 796.10230567 1158.70672775 791.39135742 1151.95336914 C784.30863322 1141.79880596 777.30770021 1131.59300429 770.36132812 1121.34472656 C764.92751091 1113.33817339 759.41766668 1105.38731802 753.87890625 1097.453125 C749.37667141 1090.99725768 744.92359572 1084.5099674 740.5 1078 C735.38065717 1070.46644459 730.21173984 1062.96992928 725 1055.5 C718.42106905 1046.06942595 711.92368443 1036.58594102 705.45703125 1027.078125 C702.00674258 1022.00545245 698.53481254 1016.94798229 695.0546875 1011.89575195 C692.67107055 1008.43414599 690.29391056 1004.96831821 687.92578125 1001.49609375 C682.37435801 993.35817355 676.78856777 985.24786548 671.125 977.1875 C664.21823705 967.35545166 657.4531397 957.42972171 650.69726562 947.49365234 C643.94656859 937.57541018 637.11014967 927.7177523 630.25 917.875 C623.59278396 908.32176054 617.01338467 898.7177995 610.46484375 889.08984375 C606.09659201 882.66763788 601.69447286 876.26896454 597.28857422 869.87255859 C596.00426266 868.0061945 594.72244649 866.13814195 593.44140625 864.26953125 C588.07709343 856.44825057 582.67368889 848.655233 577.25 840.875 C570.59000294 831.31797546 564.00804437 821.71007733 557.45703125 812.078125 C554.00525716 807.00326856 550.53165551 801.9437444 547.05029297 796.88916016 C544.69227559 793.46444127 542.33984063 790.0360675 539.99609375 786.6015625 C534.03840658 777.87206276 528.04322397 769.17055595 522 760.5 C514.41295963 749.61350028 506.91193709 738.67034871 499.43652344 727.70703125 C492.37353068 717.35207733 485.25223934 707.04032284 478.08276367 696.75878906 C472.88602206 689.29673744 467.75589716 681.79128536 462.64501953 674.27026367 C458.13998157 667.64961645 453.58208021 661.06751901 449 654.5 C441.84671781 644.24508242 434.78997689 633.92694775 427.75976562 623.58740234 C420.27315828 612.57976296 412.73873238 601.60765257 405.125 590.6875 C398.50836409 581.19745358 391.97120329 571.65573111 385.46484375 562.08984375 C381.09659201 555.66763788 376.69447286 549.26896454 372.28857422 542.87255859 C371.00426266 541.0061945 369.72244649 539.13814195 368.44140625 537.26953125 C363.03468057 529.38632668 357.5897026 521.53063579 352.125 513.6875 C345.52948462 504.21976915 338.99478116 494.71234021 332.49072266 485.18164062 C330.12572012 481.72051016 327.75091491 478.26614515 325.375 474.8125 C324.70319702 473.83579346 324.70319702 473.83579346 324.01782227 472.83935547 C322.67873054 470.89277809 321.33940887 468.94635916 320 467 C318.20804835 464.39602926 316.41637092 461.79187028 314.625 459.1875 C313.94860474 458.20438843 313.94860474 458.20438843 313.25854492 457.20141602 C310.80255994 453.62958497 308.35261041 450.05375529 305.91015625 446.47265625 C300.36365085 438.34275408 294.78316706 430.2401792 289.125 422.1875 C282.22546604 412.3657424 275.46774029 402.45028284 268.71923828 392.52441406 C264.93655709 386.97017897 261.12234457 381.437592 257.31054688 375.90332031 C255.50065314 373.27479358 253.6927844 370.64487701 251.88500977 368.01489258 C250.96115709 366.6708848 250.03716604 365.32697213 249.11303711 363.9831543 C246.88198529 360.73881177 244.65222874 357.49359804 242.42578125 354.24609375 C237.06622751 346.43293873 231.66831807 338.64752861 226.25 330.875 C219.59268788 321.32182831 213.01338386 311.71779831 206.46484375 302.08984375 C202.09659201 295.66763788 197.69447286 289.26896454 193.28857422 282.87255859 C192.00426266 281.0061945 190.72244649 279.13814195 189.44140625 277.26953125 C184.07709323 269.44825028 178.67364906 261.65526094 173.25 253.875 C166.02323855 243.50367169 158.88895438 233.07163866 151.78173828 222.61816406 C146.8704112 215.4012455 141.93437538 208.20116999 137 201 C136.54737793 200.3390332 136.09475586 199.67806641 135.62841797 198.99707031 C129.83142374 190.53427371 123.98875454 182.10417698 118.125 173.6875 C111.52651045 164.21539937 104.98890425 154.70356788 98.48193359 145.16845703 C96.16204925 141.77385856 93.83124997 138.38679872 91.5 135 C87.49032158 129.17326446 83.49247599 123.33853506 79.5 117.5 C71.08531328 105.19830105 62.64480574 92.91673214 54.125 80.6875 C46.49773406 69.7375536 38.95421903 58.7323587 31.43652344 47.70703125 C24.14098735 37.01114885 16.79005557 26.35596139 9.37963867 15.73925781 C7.58226344 13.16236606 5.79013926 10.58192126 4 8 C3.55414551 7.36400879 3.10829102 6.72801758 2.64892578 6.07275391 C0 2.23001151 0 2.23001151 0 0 Z " fill="#FEFEFE" transform="translate(884,854)"/>
<path d="M0 0 C37.69965473 -0.27467616 75.39915871 -0.48612 113.09961164 -0.61278395 C117.55062164 -0.6277924 122.00162966 -0.64332427 126.45263672 -0.65917969 C127.33875082 -0.66232741 128.22486493 -0.66547514 129.13783097 -0.66871825 C143.48518838 -0.72093228 157.83196872 -0.81554511 172.17898381 -0.92583355 C186.90078798 -1.03805907 201.62228998 -1.10470649 216.34450436 -1.12906194 C225.42905201 -1.14552692 234.51196867 -1.19751984 243.5960142 -1.2949976 C249.82566288 -1.35843985 256.05446872 -1.37760004 262.28441697 -1.36201653 C265.87934943 -1.35432982 269.47143344 -1.3660864 273.06585884 -1.4304657 C295.78878098 -1.81756662 295.78878098 -1.81756662 300.37327576 2.57219696 C302.48235478 5.68126816 303.72519168 8.48254035 305 12 C306.20121751 13.84351738 307.44703672 15.65949771 308.75390625 17.4296875 C309.37305908 18.3158374 309.99221191 19.2019873 310.63012695 20.11499023 C311.58665161 21.48119507 311.58665161 21.48119507 312.5625 22.875 C319.88960175 33.37295481 327.11303699 43.93855383 334.31298828 54.52392578 C338.09292633 60.07184643 341.90329115 65.59885871 345.71142578 71.12744141 C346.99573734 72.9938055 348.27755351 74.86185805 349.55859375 76.73046875 C354.92290657 84.55174943 360.32631111 92.344767 365.75 100.125 C372.40731212 109.67817169 378.98661614 119.28220169 385.53515625 128.91015625 C389.89631778 135.32193808 394.29090487 141.71051677 398.68945312 148.09667969 C400.49934686 150.72520642 402.3072156 153.35512299 404.11499023 155.98510742 C405.03884291 157.3291152 405.96283396 158.67302787 406.88696289 160.0168457 C409.11801471 163.26118823 411.34777126 166.50640196 413.57421875 169.75390625 C418.93377249 177.56706127 424.33168193 185.35247139 429.75 193.125 C436.40731212 202.67817169 442.98661614 212.28220169 449.53515625 221.91015625 C453.90340799 228.33236212 458.30552714 234.73103546 462.71142578 241.12744141 C463.99573734 242.9938055 465.27755351 244.86185805 466.55859375 246.73046875 C471.92290657 254.55174943 477.32631111 262.344767 482.75 270.125 C489.40731212 279.67817169 495.98661614 289.28220169 502.53515625 298.91015625 C506.89631778 305.32193808 511.29090487 311.71051677 515.68945312 318.09667969 C517.49934686 320.72520642 519.3072156 323.35512299 521.11499023 325.98510742 C522.03884291 327.3291152 522.96283396 328.67302787 523.88696289 330.0168457 C526.11801471 333.26118823 528.34777126 336.50640196 530.57421875 339.75390625 C535.93377249 347.56706127 541.33168193 355.35247139 546.75 363.125 C553.40731212 372.67817169 559.98661614 382.28220169 566.53515625 391.91015625 C570.90340799 398.33236212 575.30552714 404.73103546 579.71142578 411.12744141 C580.99573734 412.9938055 582.27755351 414.86185805 583.55859375 416.73046875 C588.96531963 424.6136736 594.41033661 432.46933669 599.875 440.3125 C606.43754028 449.73379282 612.9451205 459.19086303 619.41455078 468.67626953 C622.1478778 472.68239928 624.88644902 476.68494024 627.625 480.6875 C628.16519775 481.47713135 628.70539551 482.2667627 629.26196289 483.08032227 C633.61217344 489.43741064 637.97296983 495.78716186 642.33984375 502.1328125 C644.08427489 504.66773869 645.82643213 507.20420008 647.56640625 509.7421875 C652.92833892 517.55940577 658.32899652 525.34861921 663.75 533.125 C670.40731212 542.67817169 676.98661614 552.28220169 683.53515625 561.91015625 C687.90340799 568.33236212 692.30552714 574.73103546 696.71142578 581.12744141 C697.99573734 582.9938055 699.27755351 584.86185805 700.55859375 586.73046875 C705.92290657 594.55174943 711.32631111 602.344767 716.75 610.125 C723.40731212 619.67817169 729.98661614 629.28220169 736.53515625 638.91015625 C740.90340799 645.33236212 745.30552714 651.73103546 749.71142578 658.12744141 C750.99573734 659.9938055 752.27755351 661.86185805 753.55859375 663.73046875 C758.92290657 671.55174943 764.32631111 679.344767 769.75 687.125 C776.40731212 696.67817169 782.98661614 706.28220169 789.53515625 715.91015625 C793.89631778 722.32193808 798.29090487 728.71051677 802.68945312 735.09667969 C804.49934686 737.72520642 806.3072156 740.35512299 808.11499023 742.98510742 C809.03884291 744.3291152 809.96283396 745.67302787 810.88696289 747.0168457 C813.11801471 750.26118823 815.34777126 753.50640196 817.57421875 756.75390625 C821.55804012 762.56139246 825.55059592 768.36213303 829.58203125 774.13671875 C838.30869362 786.63719253 846.91947362 799.21003908 855.46615601 811.83377075 C856.04945175 812.69529251 856.04945175 812.69529251 856.64453125 813.57421875 C857.02622467 814.13801239 857.40791809 814.70180603 857.80117798 815.28268433 C862.08614402 821.60877803 866.41378688 827.90503945 870.75390625 834.19335938 C873.00663681 837.45946559 875.25276397 840.73011216 877.5 844 C878.42316981 845.34245292 879.34634686 846.68490086 880.26953125 848.02734375 C882.03950133 850.60167457 883.80767685 853.17722191 885.57421875 855.75390625 C890.93377249 863.56706127 896.33168193 871.35247139 901.75 879.125 C909.01093821 889.54436866 916.17452415 900.02780815 923.31738281 910.52832031 C929.43062911 919.50837044 935.59380434 928.44901233 941.875 937.3125 C947.82996478 945.71563848 953.64389742 954.21177125 959.44482422 962.72167969 C961.82999945 966.21594268 964.22677632 969.70218479 966.625 973.1875 C967.07109619 973.835979 967.51719238 974.48445801 967.97680664 975.15258789 C968.87021331 976.45121772 969.76368628 977.74980194 970.65722656 979.04833984 C972.93908519 982.36491764 975.21945755 985.6825171 977.5 989 C978.41665976 990.33333808 979.33332642 991.66667142 980.25 993 C996.75 1016.99999999 996.75 1016.99999999 998.1237793 1018.99829102 C999.04443216 1020.33737791 999.96516841 1021.67640747 1000.88598633 1023.01538086 C1003.11733692 1026.26023002 1005.34743948 1029.50591802 1007.57421875 1032.75390625 C1012.93377249 1040.56706127 1018.33168193 1048.35247139 1023.75 1056.125 C1030.40731212 1065.67817169 1036.98661614 1075.28220169 1043.53515625 1084.91015625 C1047.90340799 1091.33236212 1052.30552714 1097.73103546 1056.71142578 1104.12744141 C1057.99573734 1105.9938055 1059.27755351 1107.86185805 1060.55859375 1109.73046875 C1065.92290657 1117.55174943 1071.32631111 1125.344767 1076.75 1133.125 C1083.40731212 1142.67817169 1089.98661614 1152.28220169 1096.53515625 1161.91015625 C1100.90340799 1168.33236212 1105.30552714 1174.73103546 1109.71142578 1181.12744141 C1110.99573734 1182.9938055 1112.27755351 1184.86185805 1113.55859375 1186.73046875 C1118.92290657 1194.55174943 1124.32631111 1202.344767 1129.75 1210.125 C1136.40731212 1219.67817169 1142.98661614 1229.28220169 1149.53515625 1238.91015625 C1153.89631778 1245.32193808 1158.29090487 1251.71051677 1162.68945312 1258.09667969 C1164.49934686 1260.72520642 1166.3072156 1263.35512299 1168.11499023 1265.98510742 C1169.03884291 1267.3291152 1169.96283396 1268.67302787 1170.88696289 1270.0168457 C1173.11801471 1273.26118823 1175.34777126 1276.50640196 1177.57421875 1279.75390625 C1182.93377249 1287.56706127 1188.33168193 1295.35247139 1193.75 1303.125 C1200.40731212 1312.67817169 1206.98661614 1322.28220169 1213.53515625 1331.91015625 C1217.90340799 1338.33236212 1222.30552714 1344.73103546 1226.71142578 1351.12744141 C1227.99573734 1352.9938055 1229.27755351 1354.86185805 1230.55859375 1356.73046875 C1235.92290657 1364.55174943 1241.32631111 1372.344767 1246.75 1380.125 C1253.40731212 1389.67817169 1259.98661614 1399.28220169 1266.53515625 1408.91015625 C1270.90340799 1415.33236212 1275.30552714 1421.73103546 1279.71142578 1428.12744141 C1280.99573734 1429.9938055 1282.27755351 1431.86185805 1283.55859375 1433.73046875 C1288.92290657 1441.55174943 1294.32631111 1449.344767 1299.75 1457.125 C1306.40731212 1466.67817169 1312.98661614 1476.28220169 1319.53515625 1485.91015625 C1323.89631778 1492.32193808 1328.29090487 1498.71051677 1332.68945312 1505.09667969 C1334.49934686 1507.72520642 1336.3072156 1510.35512299 1338.11499023 1512.98510742 C1339.03884291 1514.3291152 1339.96283396 1515.67302787 1340.88696289 1517.0168457 C1343.11801471 1520.26118823 1345.34777126 1523.50640196 1347.57421875 1526.75390625 C1352.93377249 1534.56706127 1358.33168193 1542.35247139 1363.75 1550.125 C1370.40731212 1559.67817169 1376.98661614 1569.28220169 1383.53515625 1578.91015625 C1387.90340799 1585.33236212 1392.30552714 1591.73103546 1396.71142578 1598.12744141 C1397.99573734 1599.9938055 1399.27755351 1601.86185805 1400.55859375 1603.73046875 C1405.92290657 1611.55174943 1411.32631111 1619.344767 1416.75 1627.125 C1423.40731212 1636.67817169 1429.98661614 1646.28220169 1436.53515625 1655.91015625 C1440.90340799 1662.33236212 1445.30552714 1668.73103546 1449.71142578 1675.12744141 C1450.99573734 1676.9938055 1452.27755351 1678.86185805 1453.55859375 1680.73046875 C1458.92290657 1688.55174943 1464.32631111 1696.344767 1469.75 1704.125 C1476.40731212 1713.67817169 1482.98661614 1723.28220169 1489.53515625 1732.91015625 C1493.90340799 1739.33236212 1498.30552714 1745.73103546 1502.71142578 1752.12744141 C1503.99573734 1753.9938055 1505.27755351 1755.86185805 1506.55859375 1757.73046875 C1511.92290657 1765.55174943 1517.32631111 1773.344767 1522.75 1781.125 C1529.40731212 1790.67817169 1535.98661614 1800.28220169 1542.53515625 1809.91015625 C1546.89631778 1816.32193808 1551.29090487 1822.71051677 1555.68945312 1829.09667969 C1557.49934686 1831.72520642 1559.3072156 1834.35512299 1561.11499023 1836.98510742 C1562.03884291 1838.3291152 1562.96283396 1839.67302787 1563.88696289 1841.0168457 C1566.11801471 1844.26118823 1568.34777126 1847.50640196 1570.57421875 1850.75390625 C1575.93377249 1858.56706127 1581.33168193 1866.35247139 1586.75 1874.125 C1593.40731212 1883.67817169 1599.98661614 1893.28220169 1606.53515625 1902.91015625 C1610.90340799 1909.33236212 1615.30552714 1915.73103546 1619.71142578 1922.12744141 C1620.99573734 1923.9938055 1622.27755351 1925.86185805 1623.55859375 1927.73046875 C1628.92290597 1935.55174856 1634.3261915 1943.34485093 1639.75 1951.125 C1645.90481396 1959.95450763 1651.99796764 1968.82391817 1658.04003906 1977.73095703 C1658.61850586 1978.58286621 1659.19697266 1979.43477539 1659.79296875 1980.3125 C1660.33614746 1981.11300781 1660.87932617 1981.91351562 1661.43896484 1982.73828125 C1662.89916063 1984.85389803 1664.40376965 1986.92865485 1665.92578125 1989 C1668 1992 1668 1992 1668 1994 C1630.30034527 1994.27467616 1592.60084129 1994.48612 1554.90038836 1994.61278395 C1550.44937836 1994.6277924 1545.99837034 1994.64332427 1541.54736328 1994.65917969 C1540.66124918 1994.66232741 1539.77513507 1994.66547514 1538.86216903 1994.66871825 C1524.51481162 1994.72093228 1510.16803128 1994.81554511 1495.82101619 1994.92583355 C1481.09921202 1995.03805907 1466.37771002 1995.10470649 1451.65549564 1995.12906194 C1442.57094799 1995.14552692 1433.48803133 1995.19751984 1424.4039858 1995.2949976 C1418.17433712 1995.35843985 1411.94553128 1995.37760004 1405.71558303 1995.36201653 C1402.12065057 1995.35432982 1398.52856656 1995.3660864 1394.93414116 1995.4304657 C1372.20164244 1995.81795412 1372.20164244 1995.81795412 1367.59321594 1991.3813858 C1365.48851348 1988.28100403 1364.22254068 1985.52457998 1363 1982 C1361.60306971 1979.72838543 1361.60306971 1979.72838543 1360.19921875 1977.890625 C1359.78542969 1977.28992187 1359.37164063 1976.68921875 1358.9453125 1976.0703125 C1358.53023437 1975.46960937 1358.11515625 1974.86890625 1357.6875 1974.25 C1356.74346572 1972.88022478 1355.79945602 1971.51043262 1354.85546875 1970.140625 C1354.38286621 1969.45548828 1353.91026367 1968.77035156 1353.42333984 1968.06445312 C1351.11202952 1964.71206202 1348.80629412 1961.35584294 1346.5 1958 C1345.57682988 1956.65754729 1344.6536528 1955.31509937 1343.73046875 1953.97265625 C1341.96049867 1951.39832543 1340.19232315 1948.82277809 1338.42578125 1946.24609375 C1333.06622751 1938.43293873 1327.66831807 1930.64752861 1322.25 1922.875 C1315.59268788 1913.32182831 1309.01338386 1903.71779831 1302.46484375 1894.08984375 C1298.09659201 1887.66763788 1293.69447286 1881.26896454 1289.28857422 1874.87255859 C1288.00426266 1873.0061945 1286.72244649 1871.13814195 1285.44140625 1869.26953125 C1280.07709343 1861.44825057 1274.67368889 1853.655233 1269.25 1845.875 C1262.59268788 1836.32182831 1256.01338386 1826.71779831 1249.46484375 1817.08984375 C1245.09659201 1810.66763788 1240.69447286 1804.26896454 1236.28857422 1797.87255859 C1235.00426266 1796.0061945 1233.72244649 1794.13814195 1232.44140625 1792.26953125 C1227.07709343 1784.44825057 1221.67368889 1776.655233 1216.25 1768.875 C1209.59268788 1759.32182831 1203.01338386 1749.71779831 1196.46484375 1740.08984375 C1192.10368222 1733.67806192 1187.70909513 1727.28948323 1183.31054688 1720.90332031 C1181.50065314 1718.27479358 1179.6927844 1715.64487701 1177.88500977 1713.01489258 C1176.96115709 1711.6708848 1176.03716604 1710.32697213 1175.11303711 1708.9831543 C1172.88198529 1705.73881177 1170.65222874 1702.49359804 1168.42578125 1699.24609375 C1163.06622751 1691.43293873 1157.66831807 1683.64752861 1152.25 1675.875 C1145.59268788 1666.32182831 1139.01338386 1656.71779831 1132.46484375 1647.08984375 C1128.09659201 1640.66763788 1123.69447286 1634.26896454 1119.28857422 1627.87255859 C1118.00426266 1626.0061945 1116.72244649 1624.13814195 1115.44140625 1622.26953125 C1110.07709343 1614.44825057 1104.67368889 1606.655233 1099.25 1598.875 C1091.98301847 1588.44695924 1084.81373301 1577.95463767 1077.66503906 1567.4453125 C1070.92336653 1557.54434591 1064.09908535 1547.70187752 1057.25 1537.875 C1050.59278396 1528.32176054 1044.01338467 1518.7177995 1037.46484375 1509.08984375 C1033.10368222 1502.67806192 1028.70909513 1496.28948323 1024.31054688 1489.90332031 C1022.50065314 1487.27479358 1020.6927844 1484.64487701 1018.88500977 1482.01489258 C1017.96115709 1480.6708848 1017.03716604 1479.32697213 1016.11303711 1477.9831543 C1013.88198529 1474.73881177 1011.65222874 1471.49359804 1009.42578125 1468.24609375 C1004.06622751 1460.43293873 998.66831807 1452.64752861 993.25 1444.875 C986.59268788 1435.32182831 980.01338386 1425.71779831 973.46484375 1416.08984375 C969.10665082 1409.68242634 964.71496414 1403.2982681 960.31933594 1396.91650391 C958.94343526 1394.9178325 957.56915654 1392.91805434 956.1953125 1390.91796875 C951.9733726 1384.77179294 947.74710076 1378.62882334 943.5 1372.5 C938.78441376 1365.69512378 934.09487515 1358.87248066 929.40722656 1352.04833984 C927.10570819 1348.69828101 924.80279359 1345.34918233 922.5 1342 C921.58332642 1340.66667142 920.66665976 1339.33333808 919.75 1338 C919.29625 1337.34 918.8425 1336.68 918.375 1336 C903.25 1314 903.25 1314 901.8762207 1312.00170898 C900.95556784 1310.66262209 900.03483159 1309.32359253 899.11401367 1307.98461914 C896.88266308 1304.73976998 894.65256052 1301.49408198 892.42578125 1298.24609375 C887.06622751 1290.43293873 881.66831807 1282.64752861 876.25 1274.875 C869.59268788 1265.32182831 863.01338386 1255.71779831 856.46484375 1246.08984375 C852.09659201 1239.66763788 847.69447286 1233.26896454 843.28857422 1226.87255859 C842.00426266 1225.0061945 840.72244649 1223.13814195 839.44140625 1221.26953125 C834.07709343 1213.44825057 828.67368889 1205.655233 823.25 1197.875 C816.59268788 1188.32182831 810.01338386 1178.71779831 803.46484375 1169.08984375 C800.40599783 1164.59272696 797.33333337 1160.10535602 794.25 1155.625 C793.58762329 1154.66243286 793.58762329 1154.66243286 792.91186523 1153.68041992 C791.60826097 1151.78670474 790.30422235 1149.89328955 789 1148 C782.15803048 1138.06777536 775.34720314 1128.11491477 768.55664062 1118.14746094 C763.4872165 1110.70868823 758.39499252 1103.28596663 753.28857422 1095.87255859 C752.00426266 1094.0061945 750.72244649 1092.13814195 749.44140625 1090.26953125 C744.07709343 1082.44825057 738.67368889 1074.655233 733.25 1066.875 C725.98604013 1056.45129529 718.81960442 1045.96341476 711.67382812 1035.45849609 C704.59414251 1025.05994969 697.42082491 1014.7295588 690.19775391 1004.43017578 C685.19715481 997.29489021 680.25076579 990.12375591 675.32666016 982.93554688 C673.05487936 979.62110482 670.77708142 976.31080154 668.5 973 C667.58330572 971.66668565 666.66663902 970.33335234 665.75 969 C665.29625 968.34 664.8425 967.68 664.375 967 C660.25 961 660.25 961 658.8762207 959.00170898 C657.95556784 957.66262209 657.03483159 956.32359253 656.11401367 954.98461914 C653.88266308 951.73976998 651.65256052 948.49408198 649.42578125 945.24609375 C644.06622751 937.43293873 638.66831807 929.64752861 633.25 921.875 C626.59268788 912.32182831 620.01338386 902.71779831 613.46484375 893.08984375 C609.10368222 886.67806192 604.70909513 880.28948323 600.31054688 873.90332031 C598.50065314 871.27479358 596.6927844 868.64487701 594.88500977 866.01489258 C593.96115709 864.6708848 593.03716604 863.32697213 592.11303711 861.9831543 C589.88198529 858.73881177 587.65222874 855.49359804 585.42578125 852.24609375 C580.06622751 844.43293873 574.66831807 836.64752861 569.25 828.875 C562.59268788 819.32182831 556.01338386 809.71779831 549.46484375 800.08984375 C545.09659201 793.66763788 540.69447286 787.26896454 536.28857422 780.87255859 C535.00426266 779.0061945 533.72244649 777.13814195 532.44140625 775.26953125 C527.07709343 767.44825057 521.67368889 759.655233 516.25 751.875 C509.59268788 742.32182831 503.01338386 732.71779831 496.46484375 723.08984375 C492.09659201 716.66763788 487.69447286 710.26896454 483.28857422 703.87255859 C482.00426266 702.0061945 480.72244649 700.13814195 479.44140625 698.26953125 C474.07709343 690.44825057 468.67368889 682.655233 463.25 674.875 C456.59268788 665.32182831 450.01338386 655.71779831 443.46484375 646.08984375 C439.10368222 639.67806192 434.70909513 633.28948323 430.31054688 626.90332031 C428.50065314 624.27479358 426.6927844 621.64487701 424.88500977 619.01489258 C423.96115709 617.6708848 423.03716604 616.32697213 422.11303711 614.9831543 C419.88198529 611.73881177 417.65222874 608.49359804 415.42578125 605.24609375 C410.06622751 597.43293873 404.66831807 589.64752861 399.25 581.875 C392.59268788 572.32182831 386.01338386 562.71779831 379.46484375 553.08984375 C375.09659201 546.66763788 370.69447286 540.26896454 366.28857422 533.87255859 C365.00426266 532.0061945 363.72244649 530.13814195 362.44140625 528.26953125 C357.07709343 520.44825057 351.67368889 512.655233 346.25 504.875 C339.59268788 495.32182831 333.01338386 485.71779831 326.46484375 476.08984375 C322.09659201 469.66763788 317.69447286 463.26896454 313.28857422 456.87255859 C312.00426266 455.0061945 310.72244649 453.13814195 309.44140625 451.26953125 C304.07709343 443.44825057 298.67368889 435.655233 293.25 427.875 C286.59268788 418.32182831 280.01338386 408.71779831 273.46484375 399.08984375 C269.10368222 392.67806192 264.70909513 386.28948323 260.31054688 379.90332031 C258.50065314 377.27479358 256.6927844 374.64487701 254.88500977 372.01489258 C253.96115709 370.6708848 253.03716604 369.32697213 252.11303711 367.9831543 C249.88198529 364.73881177 247.65222874 361.49359804 245.42578125 358.24609375 C240.06622751 350.43293873 234.66831807 342.64752861 229.25 334.875 C222.59268788 325.32182831 216.01338386 315.71779831 209.46484375 306.08984375 C205.09659201 299.66763788 200.69447286 293.26896454 196.28857422 286.87255859 C195.00426266 285.0061945 193.72244649 283.13814195 192.44140625 281.26953125 C187.03468037 273.3863264 181.58966339 265.53066331 176.125 257.6875 C169.56245972 248.26620718 163.0548795 238.80913697 156.58544922 229.32373047 C151.73194732 222.21014392 146.86574793 215.10521351 142 208 C141.54447754 207.33468262 141.08895508 206.66936523 140.61962891 205.98388672 C134.86795569 197.58742337 129.06985354 189.22434772 123.25 180.875 C116.59273593 171.32179442 110.01338426 161.7177989 103.46484375 152.08984375 C99.10368222 145.67806192 94.70909513 139.28948323 90.31054688 132.90332031 C88.50065314 130.27479358 86.6927844 127.64487701 84.88500977 125.01489258 C83.96115709 123.6708848 83.03716604 122.32697213 82.11303711 120.9831543 C79.88198529 117.73881177 77.65222874 114.49359804 75.42578125 111.24609375 C70.06622751 103.43293873 64.66831807 95.64752861 59.25 87.875 C52.59268788 78.32182831 46.01338386 68.71779831 39.46484375 59.08984375 C35.09956058 52.67200227 30.70034188 46.27774942 26.29736328 39.88574219 C24.98630042 37.9800874 23.67828351 36.07237578 22.37109375 34.1640625 C21.47662301 32.85933351 20.5820914 31.55464626 19.6875 30.25 C19.24913818 29.60998047 18.81077637 28.96996094 18.35913086 28.31054688 C15.6673891 24.3914401 12.94322 20.49715066 10.1953125 16.6171875 C9.55118408 15.70549805 8.90705566 14.79380859 8.2434082 13.85449219 C6.97253659 12.05801417 5.69773293 10.26431025 4.41870117 8.47363281 C3.55595581 7.25305176 3.55595581 7.25305176 2.67578125 6.0078125 C2.15927002 5.28223145 1.64275879 4.55665039 1.1105957 3.80908203 C0 2 0 2 0 0 Z " fill="#000000" transform="translate(1168,1003)"/>
</svg>
