<svg version="1.2" xmlns="http://www.w3.org/2000/svg" viewBox="0 0 63 64" width="63" height="64">
	<title>twitter-svg</title>
	<defs>
		<clipPath clipPathUnits="userSpaceOnUse" id="cp1">
			<path d="m0 1h61.51v61.51h-61.51z"/>
		</clipPath>
		<clipPath clipPathUnits="userSpaceOnUse" id="cp2">
			<path d="m0.53 1.13h60.77v60.77h-60.77z"/>
		</clipPath>
	</defs>
	<style>
		.s0 { fill: #1d9bf0 } 
		.s1 { fill: #ffffff } 
	</style>
	<g id="Clip-Path" clip-path="url(#cp1)">
		<g id="Layer">
		</g>
	</g>
	<g id="Clip-Path" clip-path="url(#cp2)">
		<g id="Layer">
			<path id="Layer" class="s0" d="m61.3 31.5c0-4.4-2.6-8.2-6.3-10 1.4-3.8 0.5-8.4-2.6-11.5-3.1-3.1-7.6-3.9-11.5-2.6-1.8-3.7-5.6-6.3-10-6.3-4.4 0-8.2 2.6-10 6.3-3.8-1.3-8.4-0.5-11.5 2.6-3.1 3.1-3.9 7.7-2.6 11.5-3.7 1.8-6.3 5.6-6.3 10 0 4.4 2.6 8.2 6.3 10-1.3 3.9-0.5 8.4 2.6 11.5 3.1 3.1 7.7 4 11.5 2.6 1.8 3.7 5.6 6.3 10 6.3 4.4 0 8.2-2.6 10-6.3 3.9 1.4 8.4 0.5 11.5-2.6 3.1-3.1 4-7.6 2.6-11.5 3.7-1.8 6.3-5.6 6.3-10z"/>
		</g>
	</g>
	<path id="Layer" class="s1" d="m26.6 43.2l-10.1-10.8 4.1-3.8 6.2 6.5 15.2-15.3 4 4z"/>
</svg>