<?xml version="1.0" standalone="no"?>
<!DOCTYPE svg PUBLIC "-//W3C//DTD SVG 20010904//EN"
 "http://www.w3.org/TR/2001/REC-SVG-20010904/DTD/svg10.dtd">
<svg version="1.0" xmlns="http://www.w3.org/2000/svg"
 width="512.000000pt" height="512.000000pt" viewBox="0 0 512.000000 512.000000"
 preserveAspectRatio="xMidYMid meet">

<g transform="translate(0.000000,512.000000) scale(0.100000,-0.100000)"
fill="WHITE" stroke="none">
<path d="M1355 5113 c-201 -24 -375 -76 -544 -163 -411 -213 -701 -605 -787
-1065 -18 -94 -19 -171 -19 -1325 0 -1154 1 -1231 19 -1325 115 -617 594
-1096 1211 -1211 94 -18 171 -19 1335 -19 l1235 0 105 23 c463 102 829 377
1039 782 68 130 109 247 143 400 l23 105 0 1235 c0 1164 -1 1241 -19 1335
-107 576 -532 1036 -1093 1185 -182 49 -210 50 -1453 48 -641 0 -1178 -3
-1195 -5z m1623 -2551 l962 -1677 -442 -3 c-346 -2 -445 1 -453 10 -9 10
-1791 3223 -1844 3326 l-12 22 413 0 413 0 963 -1678z m880 1656 c-8 -13 -198
-344 -423 -736 -320 -559 -411 -710 -420 -700 -10 11 -307 534 -343 604 -10
18 12 72 149 365 88 189 176 377 194 417 l34 72 411 0 412 0 -14 -22z m-1614
-2096 c147 -251 176 -307 169 -326 -4 -13 -96 -224 -203 -469 l-195 -446 -418
-1 c-230 0 -417 4 -415 8 2 5 196 360 432 790 369 674 430 780 441 765 6 -10
92 -154 189 -321z"/>
</g>
</svg>
